<?xml version="1.0" encoding="UTF-8" standalone="no"?>
<!-- Created with Inkscape (http://www.inkscape.org/) -->
<svg
   xmlns:svg="http://www.w3.org/2000/svg"
   xmlns="http://www.w3.org/2000/svg"
   version="1.0"
   width="128"
   height="80"
   id="svg2513">
  <defs
     id="defs2515">
    <linearGradient
       id="linearGradient3985">
      <stop
         id="stop3987"
         style="stop-color:#afafaf;stop-opacity:1"
         offset="0" />
      <stop
         id="stop3989"
         style="stop-color:#565656;stop-opacity:1"
         offset="1" />
    </linearGradient>
  </defs>
  <g
     transform="translate(0,-30)"
     id="layer1">
    <path
       d="M 4.291126,70.5 L 118.71386,70.5"
       id="path5494"
       style="fill:none;fill-rule:evenodd;stroke:#000000;stroke-width:7;stroke-linecap:butt;stroke-linejoin:miter;marker-end:none;stroke-miterlimit:4;stroke-dasharray:none;stroke-opacity:1" />
    <rect
       width="68"
       height="67"
       x="20.5"
       y="35.5"
       id="rect5508"
       style="fill:#ffffff;fill-opacity:1;fill-rule:nonzero;stroke:#000000;stroke-width:3;stroke-linecap:butt;stroke-linejoin:miter;stroke-miterlimit:4;stroke-dasharray:none;stroke-dashoffset:0;stroke-opacity:1" />
    <path
       d="M 100.60931,53.727265 L 118.79113,70.454538 L 100.97295,86.818174"
       id="path5147"
       style="fill:none;fill-rule:evenodd;stroke:#000000;stroke-width:7;stroke-linecap:round;stroke-linejoin:miter;stroke-miterlimit:4;stroke-dasharray:none;stroke-opacity:1" />
    <path
       d="M 43.089979,56.213573 L 40.631548,55.903987 L 40.235027,55.284814 C 41.345282,52.008404 42.217628,48.590059 42.852066,45.02977 C 44.755359,43.662483 46.658657,42.682128 48.561967,42.0887 C 50.465255,41.495382 52.646118,41.198695 55.104563,41.198641 C 59.783487,41.198695 63.477737,42.359642 66.187323,44.681485 C 68.896851,47.003431 70.25163,49.8929 70.251663,53.3499 C 70.25163,55.646038 69.656849,57.80024 68.467319,59.812513 C 67.277726,61.824858 64.991124,64.120954 61.607507,66.700807 C 57.510103,69.822494 55.025241,71.957347 54.152913,73.105372 C 53.280551,74.253443 52.844378,75.407941 52.844394,76.568868 C 52.844378,77.39445 53.148377,78.413503 53.756391,79.626032 L 51.020398,80.825679 C 49.592909,78.761788 48.879173,76.801077 48.879184,74.94354 C 48.879173,73.679419 49.202998,72.376578 49.85066,71.035014 C 50.498298,69.6935 51.958816,67.668292 54.232217,64.959384 C 56.320542,62.456929 57.681928,60.528466 58.316383,59.173992 C 58.950794,57.819589 59.268011,56.497399 59.268033,55.207417 C 59.268011,53.272546 58.593926,51.705268 57.245776,50.505577 C 55.897586,49.305976 54.007505,48.706154 51.575527,48.706107 C 50.359516,48.706154 49.328563,48.841597 48.482664,49.112439 C 47.636742,49.383373 46.711527,49.905799 45.707017,50.679719 C 45.09901,51.737516 44.226665,53.582132 43.089979,56.213573 L 43.089979,56.213573 z M 52.368568,84.618111 C 54.139678,84.618122 55.639848,85.217945 56.869082,86.417581 C 58.098275,87.617235 58.712882,89.081319 58.712904,90.809835 C 58.712882,92.512563 58.091666,93.970197 56.849256,95.182741 C 55.606804,96.395287 54.113244,97.001558 52.368568,97.00156 C 50.623863,97.001558 49.130303,96.395287 47.887882,95.182741 C 46.64544,93.970197 46.024224,92.512563 46.024234,90.809835 C 46.024224,89.107117 46.64544,87.649484 47.887882,86.43693 C 49.130303,85.224395 50.623863,84.618122 52.368568,84.618111 L 52.368568,84.618111 z"
       id="text3980"
       style="font-size:80.22483826px;font-style:normal;font-variant:normal;font-weight:bold;font-stretch:normal;text-align:start;line-height:125%;writing-mode:lr-tb;text-anchor:start;fill:#afafaf;fill-opacity:1;stroke:#000000;stroke-width:2;stroke-linecap:butt;stroke-linejoin:miter;stroke-miterlimit:4;stroke-dasharray:none;stroke-opacity:1;font-family:Book Antiqua;-inkscape-font-specification:Book Antiqua Bold" />
  </g>
</svg>
