<?xml version="1.0" encoding="UTF-8" standalone="no"?>
<svg
   xmlns:dc="http://purl.org/dc/elements/1.1/"
   xmlns:cc="http://creativecommons.org/ns#"
   xmlns:rdf="http://www.w3.org/1999/02/22-rdf-syntax-ns#"
   xmlns:svg="http://www.w3.org/2000/svg"
   xmlns="http://www.w3.org/2000/svg"
   xmlns:sodipodi="http://sodipodi.sourceforge.net/DTD/sodipodi-0.dtd"
   xmlns:inkscape="http://www.inkscape.org/namespaces/inkscape"
   height="220"
   width="560"
   version="1.1"
   id="svg1045"
   sodipodi:docname="calc_grin_draw.svg"
   inkscape:version="0.92.4 (5da689c313, 2019-01-14)"
   inkscape:export-filename="C:\Projects\rezonator2\help\img\calc_grin_draw.png"
   inkscape:export-xdpi="96"
   inkscape:export-ydpi="96">
  <metadata
     id="metadata1051">
    <rdf:RDF>
      <cc:Work
         rdf:about="">
        <dc:format>image/svg+xml</dc:format>
        <dc:type
           rdf:resource="http://purl.org/dc/dcmitype/StillImage" />
        <dc:title></dc:title>
      </cc:Work>
    </rdf:RDF>
  </metadata>
  <defs
     id="defs1049">
    <marker
       inkscape:isstock="true"
       style="overflow:visible"
       id="marker2038"
       refX="0"
       refY="0"
       orient="auto"
       inkscape:stockid="DotS">
      <path
         transform="matrix(0.2,0,0,0.2,1.48,0.2)"
         style="fill:#000000;fill-opacity:1;fill-rule:evenodd;stroke:#000000;stroke-width:1.00000003pt;stroke-opacity:1"
         d="m -2.5,-1 c 0,2.76 -2.24,5 -5,5 -2.76,0 -5,-2.24 -5,-5 0,-2.76 2.24,-5 5,-5 2.76,0 5,2.24 5,5 z"
         id="path2036"
         inkscape:connector-curvature="0" />
    </marker>
    <marker
       inkscape:isstock="true"
       style="overflow:visible"
       id="marker2034"
       refX="0"
       refY="0"
       orient="auto"
       inkscape:stockid="DotS">
      <path
         transform="matrix(0.2,0,0,0.2,1.48,0.2)"
         style="fill:#000000;fill-opacity:1;fill-rule:evenodd;stroke:#000000;stroke-width:1.00000003pt;stroke-opacity:1"
         d="m -2.5,-1 c 0,2.76 -2.24,5 -5,5 -2.76,0 -5,-2.24 -5,-5 0,-2.76 2.24,-5 5,-5 2.76,0 5,2.24 5,5 z"
         id="path2032"
         inkscape:connector-curvature="0" />
    </marker>
    <marker
       inkscape:stockid="DotS"
       orient="auto"
       refY="0"
       refX="0"
       id="marker2028"
       style="overflow:visible"
       inkscape:isstock="true"
       inkscape:collect="always">
      <path
         id="path2026"
         d="m -2.5,-1 c 0,2.76 -2.24,5 -5,5 -2.76,0 -5,-2.24 -5,-5 0,-2.76 2.24,-5 5,-5 2.76,0 5,2.24 5,5 z"
         style="fill:#000000;fill-opacity:1;fill-rule:evenodd;stroke:#000000;stroke-width:1.00000003pt;stroke-opacity:1"
         transform="matrix(0.2,0,0,0.2,1.48,0.2)"
         inkscape:connector-curvature="0" />
    </marker>
    <marker
       inkscape:stockid="DotS"
       orient="auto"
       refY="0"
       refX="0"
       id="DotS"
       style="overflow:visible"
       inkscape:isstock="true"
       inkscape:collect="always">
      <path
         id="path1783"
         d="m -2.5,-1 c 0,2.76 -2.24,5 -5,5 -2.76,0 -5,-2.24 -5,-5 0,-2.76 2.24,-5 5,-5 2.76,0 5,2.24 5,5 z"
         style="fill:#000000;fill-opacity:1;fill-rule:evenodd;stroke:#000000;stroke-width:1.00000003pt;stroke-opacity:1"
         transform="matrix(0.2,0,0,0.2,1.48,0.2)"
         inkscape:connector-curvature="0" />
    </marker>
    <marker
       inkscape:isstock="true"
       style="overflow:visible"
       id="marker2022"
       refX="0"
       refY="0"
       orient="auto"
       inkscape:stockid="Arrow2Send">
      <path
         transform="matrix(-0.3,0,0,-0.3,0.69,0)"
         d="M 8.7185878,4.0337352 -2.2072895,0.01601326 8.7185884,-4.0017078 c -1.7454984,2.3720609 -1.7354408,5.6174519 -6e-7,8.035443 z"
         style="fill:#000000;fill-opacity:1;fill-rule:evenodd;stroke:#000000;stroke-width:0.625;stroke-linejoin:round;stroke-opacity:1"
         id="path2020"
         inkscape:connector-curvature="0" />
    </marker>
    <marker
       inkscape:isstock="true"
       style="overflow:visible"
       id="marker2018"
       refX="0"
       refY="0"
       orient="auto"
       inkscape:stockid="DotS">
      <path
         transform="matrix(0.2,0,0,0.2,1.48,0.2)"
         style="fill:#000000;fill-opacity:1;fill-rule:evenodd;stroke:#000000;stroke-width:1.00000003pt;stroke-opacity:1"
         d="m -2.5,-1 c 0,2.76 -2.24,5 -5,5 -2.76,0 -5,-2.24 -5,-5 0,-2.76 2.24,-5 5,-5 2.76,0 5,2.24 5,5 z"
         id="path2016"
         inkscape:connector-curvature="0" />
    </marker>
    <marker
       inkscape:stockid="Arrow2Send"
       orient="auto"
       refY="0"
       refX="0"
       id="marker2012"
       style="overflow:visible"
       inkscape:isstock="true">
      <path
         id="path2010"
         style="fill:#000000;fill-opacity:1;fill-rule:evenodd;stroke:#000000;stroke-width:0.625;stroke-linejoin:round;stroke-opacity:1"
         d="M 8.7185878,4.0337352 -2.2072895,0.01601326 8.7185884,-4.0017078 c -1.7454984,2.3720609 -1.7354408,5.6174519 -6e-7,8.035443 z"
         transform="matrix(-0.3,0,0,-0.3,0.69,0)"
         inkscape:connector-curvature="0" />
    </marker>
    <marker
       inkscape:stockid="DotS"
       orient="auto"
       refY="0"
       refX="0"
       id="marker2008"
       style="overflow:visible"
       inkscape:isstock="true">
      <path
         id="path2006"
         d="m -2.5,-1 c 0,2.76 -2.24,5 -5,5 -2.76,0 -5,-2.24 -5,-5 0,-2.76 2.24,-5 5,-5 2.76,0 5,2.24 5,5 z"
         style="fill:#000000;fill-opacity:1;fill-rule:evenodd;stroke:#000000;stroke-width:1.00000003pt;stroke-opacity:1"
         transform="matrix(0.2,0,0,0.2,1.48,0.2)"
         inkscape:connector-curvature="0" />
    </marker>
    <marker
       inkscape:stockid="Arrow2Mend"
       orient="auto"
       refY="0"
       refX="0"
       id="Arrow2Mend"
       style="overflow:visible"
       inkscape:isstock="true">
      <path
         id="path1743"
         style="fill:#000000;fill-opacity:1;fill-rule:evenodd;stroke:#000000;stroke-width:0.625;stroke-linejoin:round;stroke-opacity:1"
         d="M 8.7185878,4.0337352 -2.2072895,0.01601326 8.7185884,-4.0017078 c -1.7454984,2.3720609 -1.7354408,5.6174519 -6e-7,8.035443 z"
         transform="scale(-0.6)"
         inkscape:connector-curvature="0" />
    </marker>
    <marker
       inkscape:stockid="Arrow1Send"
       orient="auto"
       refY="0"
       refX="0"
       id="Arrow1Send"
       style="overflow:visible"
       inkscape:isstock="true">
      <path
         id="path1731"
         d="M 0,0 5,-5 -12.5,0 5,5 Z"
         style="fill:#000000;fill-opacity:1;fill-rule:evenodd;stroke:#000000;stroke-width:1.00000003pt;stroke-opacity:1"
         transform="matrix(-0.2,0,0,-0.2,-1.2,0)"
         inkscape:connector-curvature="0" />
    </marker>
    <marker
       inkscape:stockid="Arrow2Send"
       orient="auto"
       refY="0"
       refX="0"
       id="Arrow2Send"
       style="overflow:visible"
       inkscape:isstock="true">
      <path
         id="path1749"
         style="fill:#000000;fill-opacity:1;fill-rule:evenodd;stroke:#000000;stroke-width:0.625;stroke-linejoin:round;stroke-opacity:1"
         d="M 8.7185878,4.0337352 -2.2072895,0.01601326 8.7185884,-4.0017078 c -1.7454984,2.3720609 -1.7354408,5.6174519 -6e-7,8.035443 z"
         transform="matrix(-0.3,0,0,-0.3,0.69,0)"
         inkscape:connector-curvature="0" />
    </marker>
    <marker
       inkscape:stockid="DotM"
       orient="auto"
       refY="0"
       refX="0"
       id="DotM"
       style="overflow:visible"
       inkscape:isstock="true">
      <path
         id="path1780"
         d="m -2.5,-1 c 0,2.76 -2.24,5 -5,5 -2.76,0 -5,-2.24 -5,-5 0,-2.76 2.24,-5 5,-5 2.76,0 5,2.24 5,5 z"
         style="fill:#000000;fill-opacity:1;fill-rule:evenodd;stroke:#000000;stroke-width:1.00000003pt;stroke-opacity:1"
         transform="matrix(0.4,0,0,0.4,2.96,0.4)"
         inkscape:connector-curvature="0" />
    </marker>
    <marker
       inkscape:stockid="DotL"
       orient="auto"
       refY="0"
       refX="0"
       id="DotL"
       style="overflow:visible"
       inkscape:isstock="true">
      <path
         id="path1777"
         d="m -2.5,-1 c 0,2.76 -2.24,5 -5,5 -2.76,0 -5,-2.24 -5,-5 0,-2.76 2.24,-5 5,-5 2.76,0 5,2.24 5,5 z"
         style="fill:#000000;fill-opacity:1;fill-rule:evenodd;stroke:#000000;stroke-width:1.00000003pt;stroke-opacity:1"
         transform="matrix(0.8,0,0,0.8,5.92,0.8)"
         inkscape:connector-curvature="0" />
    </marker>
    <linearGradient
       id="a-6"
       gradientUnits="userSpaceOnUse"
       x1="9.5"
       x2="9.5"
       y1="0.5"
       y2="24.5">
      <stop
         offset="0"
         stop-color="#eafaff"
         id="stop1101" />
      <stop
         offset=".5"
         stop-color="#4bcffc"
         id="stop1103" />
      <stop
         offset="1"
         stop-color="#eafaff"
         id="stop1105" />
    </linearGradient>
  </defs>
  <sodipodi:namedview
     pagecolor="#ffffff"
     bordercolor="#666666"
     borderopacity="1"
     objecttolerance="10"
     gridtolerance="10"
     guidetolerance="10"
     inkscape:pageopacity="0"
     inkscape:pageshadow="2"
     inkscape:window-width="1920"
     inkscape:window-height="1017"
     id="namedview1047"
     showgrid="false"
     inkscape:zoom="1"
     inkscape:cx="253.41643"
     inkscape:cy="55.553415"
     inkscape:window-x="-8"
     inkscape:window-y="-8"
     inkscape:window-maximized="1"
     inkscape:current-layer="svg1045">
    <inkscape:grid
       type="xygrid"
       id="grid2822" />
  </sodipodi:namedview>
  <linearGradient
     id="a"
     gradientTransform="matrix(0.83,0,0,1,71.33,4)"
     gradientUnits="userSpaceOnUse"
     x1="75.629997"
     x2="75.629997"
     y1="48.970001"
     y2="206.71001">
    <stop
       offset="0"
       stop-color="#f0f0f0"
       id="stop986"
       style="stop-color:#eafaff;stop-opacity:1" />
    <stop
       offset=".5"
       stop-color="#6a6a6a"
       id="stop988"
       style="stop-color:#4bcffc;stop-opacity:1" />
    <stop
       offset="1"
       stop-color="#f0f0f0"
       id="stop990"
       style="stop-color:#eafaff;stop-opacity:1" />
  </linearGradient>
  <path
     inkscape:connector-curvature="0"
     style="fill:url(#a);stroke:#00b4ff;stroke-width:3;stroke-opacity:1"
     id="path993"
     d="m 87.5,53.5 h 97 v 157 h -97 z" />
  <path
     d="M 3.5,132 H 493.92"
     id="path995"
     inkscape:connector-curvature="0"
     style="fill:none;stroke:#ff0000;stroke-width:2;stroke-miterlimit:4;stroke-dasharray:none;stroke-opacity:1"
     sodipodi:nodetypes="cc" />
  <path
     style="fill:none;stroke:#000000"
     d="m 179.64,30.18 4.91,4.36 -4.91,3.64 m -87,-8 -4.91,4.18 4.91,3.82 M 88.41,34.5 h 95.47"
     id="path999"
     inkscape:connector-curvature="0" />
  <text
     font-size="10"
     font-style="italic"
     x="131.00948"
     y="31.093512"
     id="text1007"
     style="font-style:italic;font-size:8.88225269px;font-family:'Times New Roman';stroke-width:0.88822526">
    <tspan
       font-size="36"
       x="131.00948"
       y="31.093512"
       id="tspan1005"
       style="font-size:31.97611046px;stroke-width:0.88822526">L</tspan>
  </text>
  <path
     sodipodi:nodetypes="cscc"
     style="fill:none;stroke:#ff0000;stroke-width:2;stroke-miterlimit:4;stroke-dasharray:none;stroke-opacity:1"
     inkscape:connector-curvature="0"
     id="path1009"
     d="m 3.5,71.06 84.431992,-0.09685 c 33.098758,-0.03797 67.651588,-0.421489 96.591458,6.926968 l 309.07738,98.615722" />
  <path
     id="path1011"
     style="fill:none;stroke:#000000"
     d="m 86.5,30.82 v 20.47 m 99,-20.47 v 20.47"
     inkscape:connector-curvature="0"
     sodipodi:nodetypes="cccc" />
  <path
     sodipodi:nodetypes="cscc"
     style="fill:none;stroke:#ff0000;stroke-width:2;stroke-miterlimit:4;stroke-dasharray:none;stroke-opacity:1"
     inkscape:connector-curvature="0"
     id="path1033"
     d="m 3.5,193 83.718333,0.0939 c 33.394277,0.0375 68.321917,0.46743 97.529117,-6.98253 L 491.82307,87.554156" />
  <path
     style="fill:none;stroke:#000000"
     inkscape:connector-curvature="0"
     id="path1035"
     d="M 353.5,30.82 V 131.29" />
  <path
     style="fill:none;stroke:#000000"
     inkscape:connector-curvature="0"
     id="path1037"
     d="m 347.14,30.18 4.91,4.36 -4.91,3.64 m -155.5,-8 -4.91,4.18 4.91,3.82 m -4.23,-3.68 h 163.97"
     sodipodi:nodetypes="cccccccc" />
  <text
     font-size="10"
     font-style="italic"
     x="274.43552"
     y="31.093512"
     id="text1043"
     style="font-style:italic;font-size:8.88225269px;font-family:'Times New Roman';stroke-width:0.88822526">
    <tspan
       font-size="36"
       x="274.43552"
       y="31.093512"
       id="tspan1041"
       style="font-size:31.97611046px;stroke-width:0.88822526">F</tspan>
  </text>
  <path
     inkscape:connector-curvature="0"
     id="path2014"
     d="M 87.420342,131.95877 V 70.708779"
     style="fill:none;stroke:#000000;stroke-width:3;stroke-linecap:butt;stroke-linejoin:miter;stroke-miterlimit:4;stroke-dasharray:none;stroke-opacity:1;marker-start:url(#DotS);marker-end:url(#marker2028)"
     sodipodi:nodetypes="cc" />
  <path
     sodipodi:nodetypes="cc"
     style="fill:none;stroke:#000000;stroke-width:3;stroke-linecap:butt;stroke-linejoin:miter;stroke-miterlimit:4;stroke-dasharray:none;stroke-opacity:1;marker-start:url(#marker2034);marker-end:url(#marker2038)"
     d="M 184.67034,131.95877 V 77.708779"
     id="path2030"
     inkscape:connector-curvature="0" />
  <path
     style="fill:none;stroke:#000000;stroke-width:1;stroke-linecap:butt;stroke-linejoin:miter;stroke-miterlimit:4;stroke-dasharray:3, 3;stroke-dashoffset:0;stroke-opacity:1"
     d="M 184.67034,77.708779 H 315"
     id="path2040"
     inkscape:connector-curvature="0"
     sodipodi:nodetypes="cc" />
  <path
     inkscape:connector-curvature="0"
     id="path2128"
     style="fill:none;stroke:#000000"
     d="m 305.03024,107.97372 -6.10494,4.56927 -0.77729,-7.45659 m 4.26581,-19.79245 4.62911,-5.983466 4.28874,7.062954 m -4.43049,-6.995433 c -0.10863,11.35429 -2.80145,22.635455 -7.87443,32.924765"
     sodipodi:nodetypes="cccccccc" />
  <text
     style="font-style:italic;font-size:24.87030792px;font-family:'Times New Roman';stroke-width:0.88822526"
     x="308.81537"
     y="107.5642"
     id="text2146">
    <tspan
       x="308.81537"
       y="107.5642"
       id="tspan2144"
       dy="0 7.9940276"
       dx="0 -5.3293514"
       style="stroke-width:0.88822526">V<tspan
   style="font-size:16.58020401px;stroke-width:0.88822526"
   id="tspan2768"
   dy="4.4411263">2</tspan>
</tspan>
  </text>
  <path
     sodipodi:nodetypes="cccccccc"
     d="m 481.09983,163.12805 -6.10494,4.56927 -0.77729,-7.45659 m 4.26581,-19.79245 4.62911,-5.98347 4.28874,7.06296 m -4.43049,-6.99544 c -0.10863,11.35429 -2.80145,22.63546 -7.87443,32.92477"
     style="fill:none;stroke:#000000"
     id="path2760"
     inkscape:connector-curvature="0" />
  <circle
     style="opacity:1;fill:#001217;fill-opacity:1;stroke:none;stroke-width:1;stroke-linecap:square;stroke-linejoin:round;stroke-miterlimit:4;stroke-dasharray:3, 3;stroke-dashoffset:0;stroke-opacity:1"
     id="path2766"
     cx="353.45709"
     cy="132.74821"
     r="4.75" />
  <text
     id="text2780"
     y="109.13268"
     x="59.805389"
     style="font-style:italic;font-size:28px;font-family:'Times New Roman'">
    <tspan
       dx="0"
       dy="0"
       id="tspan2778"
       y="109.13268"
       x="59.805389">r<tspan
   id="tspan2776"
   style="font-size:18.66666603px"
   dy="7"
   dx="-2.5">1</tspan>
</tspan>
  </text>
  <text
     style="font-style:italic;font-size:28px;font-family:'Times New Roman'"
     x="196.30539"
     y="111.13268"
     id="text2786">
    <tspan
       x="196.30539"
       y="111.13268"
       id="tspan2784"
       dy="0"
       dx="0">r<tspan
   style="font-size:18.66666603px"
   id="tspan2782"
   dy="7"
   dx="-3">2</tspan>
</tspan>
  </text>
  <text
     id="text2792"
     y="167.50769"
     x="334.30539"
     style="font-style:italic;font-size:28px;font-family:'Times New Roman'">
    <tspan
       dx="0 0 -0.5 2.5"
       dy="0 0 -5"
       id="tspan2790"
       y="167.50769"
       x="334.30539">r<tspan
   style="font-size:21.33333397px"
   id="tspan2794"
   dy="8.5"
   dx="-3.5">3</tspan>
=0</tspan>
  </text>
  <g
     id="g2830"
     transform="translate(-20.23833,-0.4142136)">
    <text
       style="font-style:italic;font-size:24.87030792px;font-family:'Times New Roman';stroke-width:0.88822526"
       x="48.483498"
       y="62.372639"
       id="text2808">
      <tspan
         style="stroke-width:0.88822526"
         x="48.483498"
         y="62.372639"
         id="tspan2806"
         dy="0"
         dx="0">V<tspan
   dx="-3.552901"
   dy="5.3293514"
   style="font-size:16.58020401px;stroke-width:0.88822526"
   id="tspan2804">1</tspan>
</tspan>
    </text>
    <text
       id="text2814"
       y="62.705723"
       x="69.800903"
       style="font-style:italic;font-size:24.87030792px;font-family:'Times New Roman';stroke-width:0.88822526">
      <tspan
         style="stroke-width:0.88822526"
         dx="0 0"
         dy="0 0"
         id="tspan2812"
         y="62.705723"
         x="69.800903">=0<tspan
   id="tspan2810"
   style="font-size:16.58020401px;stroke-width:0.88822526" />
</tspan>
    </text>
  </g>
  <g
     id="g2840"
     transform="translate(58.006097,44.656854)">
    <text
       style="font-style:italic;font-size:24.87030792px;font-family:'Times New Roman';stroke-width:0.88822526"
       x="429.53214"
       y="117.44261"
       id="text2774">
      <tspan
         style="stroke-width:0.88822526"
         x="429.53214"
         y="117.44261"
         id="tspan2772"
         dy="0"
         dx="0">V<tspan
   dy="3.9970138"
   dx="-3.552901"
   style="font-size:16.58020401px;stroke-width:0.88822526"
   id="tspan2770">3</tspan>
</tspan>
    </text>
    <text
       style="font-style:italic;font-size:24.87030792px;font-family:'Times New Roman';stroke-width:0.88822526"
       x="467.28171"
       y="116.9985"
       id="text2802">
      <tspan
         style="stroke-width:0.88822526"
         x="467.28171"
         y="116.9985"
         id="tspan2800"
         dy="0 7.9940276"
         dx="0 -5.3293514">V<tspan
   style="font-size:16.58020401px;stroke-width:0.88822526"
   id="tspan2798"
   dy="4.4411263">2</tspan>
</tspan>
    </text>
    <text
       style="font-style:italic;font-size:24.87030792px;font-family:'Times New Roman';stroke-width:0.88822526"
       x="450.40543"
       y="115.34655"
       id="text2820">
      <tspan
         style="stroke-width:0.88822526"
         x="450.40543"
         y="115.34655"
         id="tspan2818"
         dy="0"
         dx="0">=</tspan>
    </text>
  </g>
</svg>
