<?xml version="1.0" encoding="UTF-8" standalone="no"?>
<!-- Created with Inkscape (http://www.inkscape.org/) -->
<svg
   xmlns:dc="http://purl.org/dc/elements/1.1/"
   xmlns:cc="http://creativecommons.org/ns#"
   xmlns:rdf="http://www.w3.org/1999/02/22-rdf-syntax-ns#"
   xmlns:svg="http://www.w3.org/2000/svg"
   xmlns="http://www.w3.org/2000/svg"
   xmlns:xlink="http://www.w3.org/1999/xlink"
   xmlns:sodipodi="http://sodipodi.sourceforge.net/DTD/sodipodi-0.dtd"
   xmlns:inkscape="http://www.inkscape.org/namespaces/inkscape"
   width="24"
   height="24"
   id="svg2"
   sodipodi:version="0.32"
   inkscape:version="0.46"
   version="1.0"
   sodipodi:docname="adjust.svg"
   inkscape:output_extension="org.inkscape.output.svg.inkscape"
   inkscape:export-filename="D:\Projects\rezonator 1.5\img\adjust_24.png"
   inkscape:export-xdpi="90"
   inkscape:export-ydpi="90">
  <defs
     id="defs4">
    <linearGradient
       y2="7.2779684"
       x2="19.892296"
       y1="18.08366"
       x1="19.892296"
       gradientTransform="matrix(0.5,0.8660253,-0.8660253,0.5,19.191227,-5.8049831)"
       gradientUnits="userSpaceOnUse"
       id="linearGradient3724"
       xlink:href="#linearGradient4718"
       inkscape:collect="always" />
    <linearGradient
       y2="7.0166574"
       x2="18.666157"
       y1="18.383104"
       x1="18.821608"
       gradientTransform="matrix(0.5,0.8660253,-0.8660253,0.5,19.350217,-5.5296057)"
       gradientUnits="userSpaceOnUse"
       id="linearGradient3722"
       xlink:href="#linearGradient4672"
       inkscape:collect="always" />
    <linearGradient
       y2="16.350063"
       x2="15.489261"
       y1="14.751556"
       x1="3.5124271"
       gradientTransform="matrix(0.5460156,0.8343151,-0.9631103,0.6303054,20.34414,-7.2284566)"
       gradientUnits="userSpaceOnUse"
       id="linearGradient3720"
       xlink:href="#linearGradient4718"
       inkscape:collect="always" />
    <linearGradient
       y2="16.416857"
       x2="4.6415753"
       y1="14.877687"
       x1="15.199285"
       gradientTransform="matrix(0.5460156,0.8343151,-0.8025921,0.5252545,17.696271,-5.4955641)"
       gradientUnits="userSpaceOnUse"
       id="linearGradient3718"
       xlink:href="#linearGradient4672"
       inkscape:collect="always" />
    <linearGradient
       y2="17.709242"
       x2="11.101351"
       y1="19.683817"
       x1="15.031294"
       gradientTransform="matrix(0.7071068,0.7071067,-0.7071067,0.7071068,11.980537,-7.1781527)"
       gradientUnits="userSpaceOnUse"
       id="linearGradient3716"
       xlink:href="#linearGradient4718"
       inkscape:collect="always" />
    <linearGradient
       y2="13.96378"
       x2="5.1425667"
       y1="14.427205"
       x1="10.253586"
       gradientTransform="matrix(0.9265324,0.3762147,-0.3135123,0.7721104,5.1630162,1.477887)"
       gradientUnits="userSpaceOnUse"
       id="linearGradient3714"
       xlink:href="#linearGradient4672"
       inkscape:collect="always" />
    <linearGradient
       y2="12.754565"
       x2="21.205133"
       y1="12.754565"
       x1="10.042229"
       gradientTransform="matrix(0.5439283,0.8391315,-0.8391315,0.5439283,18.440802,-5.8377586)"
       gradientUnits="userSpaceOnUse"
       id="linearGradient3712"
       xlink:href="#linearGradient4718"
       inkscape:collect="always" />
    <linearGradient
       y2="14.995732"
       x2="16.981876"
       y1="14.995732"
       x1="5.8189707"
       gradientTransform="matrix(0.5439283,0.8391315,-0.6992761,0.4532735,20.521354,-2.1534895)"
       gradientUnits="userSpaceOnUse"
       id="linearGradient3710"
       xlink:href="#linearGradient4672"
       inkscape:collect="always" />
    <linearGradient
       y2="10.263395"
       x2="17.23114"
       y1="10.263395"
       x1="10.444094"
       gradientTransform="matrix(0.5239466,0.851751,-0.851751,0.5239466,18.785313,-5.6222736)"
       gradientUnits="userSpaceOnUse"
       id="linearGradient3708"
       xlink:href="#linearGradient4718"
       inkscape:collect="always" />
    <linearGradient
       y2="14.995729"
       x2="12.248805"
       y1="14.995729"
       x1="5.4617586"
       gradientTransform="matrix(0.5239466,0.851751,-0.7097925,0.4366222,23.297789,-2.5485616)"
       gradientUnits="userSpaceOnUse"
       id="linearGradient3706"
       xlink:href="#linearGradient4672"
       inkscape:collect="always" />
    <linearGradient
       id="linearGradient4718">
      <stop
         id="stop4720"
         offset="0"
         style="stop-color:#aa803b;stop-opacity:1;" />
      <stop
         id="stop4722"
         offset="1"
         style="stop-color:#ccb383;stop-opacity:1;" />
    </linearGradient>
    <linearGradient
       y2="7.8628902"
       x2="15.087862"
       y1="7.8628902"
       x1="11.560384"
       gradientTransform="matrix(0.5669675,0.82374,-0.82374,0.5669675,17.923961,-5.5198006)"
       gradientUnits="userSpaceOnUse"
       id="linearGradient3704"
       xlink:href="#linearGradient4718"
       inkscape:collect="always" />
    <linearGradient
       id="linearGradient4672">
      <stop
         id="stop4674"
         offset="0"
         style="stop-color:#ffe168;stop-opacity:1;" />
      <stop
         id="stop4676"
         offset="1"
         style="stop-color:#e4dcd4;stop-opacity:1;" />
    </linearGradient>
    <linearGradient
       y2="14.995723"
       x2="8.8999338"
       y1="14.995723"
       x1="5.3724556"
       gradientTransform="matrix(0.5669675,0.82374,-0.6315384,0.4346781,24.425713,-2.482866)"
       gradientUnits="userSpaceOnUse"
       id="linearGradient3702"
       xlink:href="#linearGradient4672"
       inkscape:collect="always" />
    <linearGradient
       id="linearGradient3905">
      <stop
         id="stop3907"
         offset="0"
         style="stop-color:#97b094;stop-opacity:1;" />
      <stop
         id="stop3909"
         offset="1"
         style="stop-color:#b0c892;stop-opacity:1;" />
    </linearGradient>
    <linearGradient
       id="linearGradient3899">
      <stop
         id="stop3901"
         offset="0"
         style="stop-color:#4a5405;stop-opacity:1;" />
      <stop
         id="stop3903"
         offset="1"
         style="stop-color:#594740;stop-opacity:1;" />
    </linearGradient>
    <linearGradient
       id="linearGradient3175">
      <stop
         style="stop-color:#1d81ff;stop-opacity:1;"
         offset="0"
         id="stop3177" />
      <stop
         style="stop-color:#99c4f9;stop-opacity:1;"
         offset="1"
         id="stop3179" />
    </linearGradient>
    <linearGradient
       id="linearGradient3159">
      <stop
         style="stop-color:#000000;stop-opacity:1;"
         offset="0"
         id="stop3161" />
      <stop
         style="stop-color:#5a00ff;stop-opacity:1;"
         offset="1"
         id="stop3163" />
    </linearGradient>
    <inkscape:perspective
       sodipodi:type="inkscape:persp3d"
       inkscape:vp_x="0 : 526.18109 : 1"
       inkscape:vp_y="0 : 1000 : 0"
       inkscape:vp_z="744.09448 : 526.18109 : 1"
       inkscape:persp3d-origin="372.04724 : 350.78739 : 1"
       id="perspective10" />
    <linearGradient
       inkscape:collect="always"
       xlink:href="#linearGradient3159"
       id="linearGradient3169"
       gradientUnits="userSpaceOnUse"
       x1="-4.5465946"
       y1="13"
       x2="22.546595"
       y2="13" />
    <linearGradient
       inkscape:collect="always"
       xlink:href="#linearGradient3175"
       id="linearGradient3921"
       gradientUnits="userSpaceOnUse"
       x1="-4.3989553"
       y1="13"
       x2="22.398954"
       y2="13" />
    <linearGradient
       inkscape:collect="always"
       xlink:href="#linearGradient3159"
       id="linearGradient3923"
       gradientUnits="userSpaceOnUse"
       x1="-4.5465946"
       y1="13"
       x2="22.546595"
       y2="13" />
    <linearGradient
       inkscape:collect="always"
       xlink:href="#linearGradient3175"
       id="linearGradient3940"
       gradientUnits="userSpaceOnUse"
       x1="-4.3989553"
       y1="13"
       x2="22.398954"
       y2="13" />
    <linearGradient
       inkscape:collect="always"
       xlink:href="#linearGradient3159"
       id="linearGradient3942"
       gradientUnits="userSpaceOnUse"
       x1="-4.5465946"
       y1="13"
       x2="22.546595"
       y2="13" />
    <linearGradient
       inkscape:collect="always"
       xlink:href="#linearGradient3905"
       id="linearGradient3949"
       gradientUnits="userSpaceOnUse"
       x1="-4.3989553"
       y1="13"
       x2="22.398954"
       y2="13" />
    <linearGradient
       inkscape:collect="always"
       xlink:href="#linearGradient3899"
       id="linearGradient3951"
       gradientUnits="userSpaceOnUse"
       x1="-4.5465946"
       y1="13"
       x2="22.546595"
       y2="13" />
    <filter
       inkscape:collect="always"
       id="filter3994">
      <feGaussianBlur
         inkscape:collect="always"
         stdDeviation="0.48376595"
         id="feGaussianBlur3996" />
    </filter>
    <linearGradient
       inkscape:collect="always"
       xlink:href="#linearGradient3175"
       id="linearGradient4251"
       gradientUnits="userSpaceOnUse"
       x1="-4.3989553"
       y1="13"
       x2="22.398954"
       y2="13" />
    <linearGradient
       inkscape:collect="always"
       xlink:href="#linearGradient3159"
       id="linearGradient4253"
       gradientUnits="userSpaceOnUse"
       x1="-4.5465946"
       y1="13"
       x2="22.546595"
       y2="13" />
    <linearGradient
       inkscape:collect="always"
       xlink:href="#linearGradient3905"
       id="linearGradient4260"
       gradientUnits="userSpaceOnUse"
       x1="-4.3989553"
       y1="13"
       x2="22.398954"
       y2="13" />
    <linearGradient
       inkscape:collect="always"
       xlink:href="#linearGradient3899"
       id="linearGradient4262"
       gradientUnits="userSpaceOnUse"
       x1="-4.5465946"
       y1="13"
       x2="22.546595"
       y2="13" />
  </defs>
  <sodipodi:namedview
     id="base"
     pagecolor="#ffffff"
     bordercolor="#666666"
     borderopacity="1.0"
     gridtolerance="10000"
     guidetolerance="10"
     objecttolerance="10"
     inkscape:pageopacity="0.0"
     inkscape:pageshadow="2"
     inkscape:zoom="22.627416"
     inkscape:cx="22.000018"
     inkscape:cy="15.675409"
     inkscape:document-units="px"
     inkscape:current-layer="layer1"
     showgrid="true"
     inkscape:window-width="1920"
     inkscape:window-height="1144"
     inkscape:window-x="-4"
     inkscape:window-y="-4">
    <inkscape:grid
       type="xygrid"
       id="grid2383"
       visible="true"
       enabled="true" />
  </sodipodi:namedview>
  <metadata
     id="metadata7">
    <rdf:RDF>
      <cc:Work
         rdf:about="">
        <dc:format>image/svg+xml</dc:format>
        <dc:type
           rdf:resource="http://purl.org/dc/dcmitype/StillImage" />
      </cc:Work>
    </rdf:RDF>
  </metadata>
  <g
     inkscape:label="Layer 1"
     inkscape:groupmode="layer"
     id="layer1">
    <g
       id="g4255"
       transform="matrix(0.548911,0,0,0.5701477,-0.4321356,-0.3975059)">
      <path
         sodipodi:type="star"
         style="fill:url(#linearGradient4260);fill-opacity:1;fill-rule:nonzero;stroke:url(#linearGradient4262);stroke-width:1.50675309;stroke-linecap:round;stroke-linejoin:miter;stroke-miterlimit:4;stroke-dasharray:none;stroke-dashoffset:0;stroke-opacity:1"
         id="path3913"
         sodipodi:sides="10"
         sodipodi:cx="9"
         sodipodi:cy="13"
         sodipodi:r1="13.601471"
         sodipodi:r2="9.5210295"
         sodipodi:arg1="0.94200004"
         sodipodi:arg2="1.2561593"
         inkscape:flatsided="false"
         inkscape:rounded="0.5"
         inkscape:randomized="0"
         d="M 17,24 C 14.810193,25.592588 14.521253,21.215678 11.946486,22.05363 C 9.3717184,22.891583 11.714189,26.600176 9.0064982,26.601469 C 6.2988074,26.602763 8.6377333,22.891934 6.0621666,22.056442 C 3.4865998,21.22095 3.2018423,25.598134 1.010514,24.007639 C -1.1808142,22.417145 2.8925872,20.789808 1.2999999,18.6 C -0.29258738,16.410193 -3.0958052,19.784033 -3.933758,17.209265 C -4.7717108,14.634498 -0.51973477,15.71224 -0.52102839,13.004549 C -0.522322,10.296858 -4.7732663,11.378662 -3.9377741,8.8030949 C -3.102282,6.2275282 -0.29584165,9.5986882 1.2946525,7.40736 C 2.8851467,5.2160317 -1.1898078,3.592587 0.99999974,1.9999996 C 3.1898073,0.40741235 3.478747,4.7843223 6.0535143,3.9463696 C 8.6282816,3.1084168 6.285811,-0.60017576 8.9935018,-0.60146939 C 11.701193,-0.60276303 9.3622667,3.1080661 11.937833,3.9435583 C 14.5134,4.7790505 14.798158,0.40186639 16.989486,1.9923606 C 19.180814,3.5828547 15.107413,5.2101924 16.7,7.3999999 C 18.292587,9.5898074 21.095805,6.2159674 21.933758,8.7907347 C 22.771711,11.365502 18.519735,10.28776 18.521028,12.995451 C 18.522322,15.703142 22.773266,14.621338 21.937774,17.196905 C 21.102282,19.772472 18.295842,16.401312 16.705347,18.59264 C 15.114853,20.783968 19.189808,22.407413 17,24 z"
         transform="matrix(0.9698412,-0.2976294,0.2974505,0.9692583,2.7525171,4.8062821)" />
      <path
         transform="matrix(0.9452596,-0.2900856,0.257854,0.8402309,1.0600978,7.7835592)"
         d="M 20,12 A 8,9 0 1 1 4,12 A 8,9 0 1 1 20,12 z"
         sodipodi:ry="9"
         sodipodi:rx="8"
         sodipodi:cy="12"
         sodipodi:cx="12"
         id="path3915"
         style="fill:#8bb666;fill-opacity:1;fill-rule:nonzero;stroke:#abd9ad;stroke-width:1.17204249;stroke-linecap:round;stroke-linejoin:miter;stroke-miterlimit:4;stroke-dasharray:none;stroke-dashoffset:0;stroke-opacity:1"
         sodipodi:type="arc" />
      <path
         sodipodi:type="arc"
         style="fill:#ffffff;fill-opacity:1;fill-rule:nonzero;stroke:#5b6900;stroke-width:5.1876955;stroke-linecap:round;stroke-linejoin:miter;stroke-miterlimit:4;stroke-dasharray:none;stroke-dashoffset:0;stroke-opacity:1"
         id="path3917"
         sodipodi:cx="12"
         sodipodi:cy="12"
         sodipodi:rx="8"
         sodipodi:ry="9"
         d="M 20,12 A 8,9 0 1 1 4,12 A 8,9 0 1 1 20,12 z"
         transform="matrix(0.388291,-0.1191605,0.1059205,0.3451476,9.4040282,11.659647)" />
    </g>
    <g
       transform="matrix(0.8998949,0,0,0.8900926,2.4128464,2.6007407)"
       id="g5075">
      <path
         sodipodi:nodetypes="cscccc"
         id="path4700"
         d="M 19.367705,8.219398 C 18.633832,7.1531623 17.569746,6.7260756 17.044122,7.0878551 C 16.518496,7.4496343 16.320275,8.0468808 17.054149,9.113116 L 19.571164,12.770056 C 20.159332,12.336419 20.911694,12.101663 21.542776,11.599807 C 20.638702,9.9707592 19.367705,8.219398 19.367705,8.219398 z"
         style="fill:url(#linearGradient3702);fill-opacity:1;fill-rule:nonzero;stroke:url(#linearGradient3704);stroke-width:1.11734283;stroke-miterlimit:4;stroke-dasharray:none;stroke-opacity:1" />
      <path
         style="opacity:0.5;fill:#000000;fill-opacity:1;fill-rule:nonzero;stroke:none;stroke-width:1;stroke-miterlimit:4;stroke-dasharray:none;stroke-opacity:1"
         d="M 12.714462,7.2578526 C 12.27921,7.5255933 12.198453,7.8851991 12.452504,8.4916263 C 11.74845,7.4054663 11.05829,7.3789498 10.476282,7.7562102 C 10.068474,8.0205513 9.8297106,8.4085394 9.9623779,8.9911058 C 9.040476,7.778929 8.7519303,5.9758804 7.8882713,5.1870891 C 6.936293,4.3176345 5.7868502,4.0803515 4.9481183,4.8482574 C 3.9121367,5.7967564 4.4161982,6.9986105 5.6801675,8.3240995 C 6.8811823,9.58357 10.318666,13.952823 10.77097,14.616813 C 9.9180787,13.8699 7.8450314,12.54496 6.7020133,12.180644 C 5.2215549,11.836643 4.0994127,11.831737 3.554352,12.916333 C 2.6933932,14.629523 3.7250717,15.56424 5.1483329,16.255777 C 6.5567172,16.940086 7.6020883,17.891515 8.4045276,18.828001 C 10.209802,20.934846 12.44193,22.325068 14.608147,23.714764 L 21.927823,19.403358 C 18.054604,13 18.439236,7.7732586 12.714462,7.2578526 z"
         id="path5089"
         sodipodi:nodetypes="ccscsssccszsccc" />
      <path
         style="fill:url(#linearGradient3706);fill-opacity:1;fill-rule:nonzero;stroke:url(#linearGradient3708);stroke-width:1.11734283;stroke-miterlimit:4;stroke-dasharray:none;stroke-opacity:1"
         d="M 16.094968,7.9181621 C 15.672266,7.4319606 14.868328,6.8947221 14.277573,7.2581199 C 13.686812,7.6215211 13.726034,8.1274944 14.404223,9.2299879 L 17.361915,14.038144 C 18.025659,13.601987 18.490122,13.312622 19.491287,12.728282 C 19.491287,12.728282 16.999871,8.8540314 16.094968,7.9181621 z"
         id="path4696"
         sodipodi:nodetypes="cscccc" />
      <path
         sodipodi:nodetypes="cscccc"
         id="path4692"
         d="M 14.006439,8.4721213 C 13.302385,7.3859612 12.619889,7.3759974 12.037881,7.7532569 C 11.455873,8.1305173 11.204558,8.7457814 11.90861,9.831941 L 15.391983,15.205826 C 16.045235,14.754105 16.50273,14.453844 17.489813,13.846004 L 14.006439,8.4721213 z"
         style="fill:url(#linearGradient3710);fill-opacity:1;fill-rule:nonzero;stroke:url(#linearGradient3712);stroke-width:1.11734283;stroke-miterlimit:4;stroke-dasharray:none;stroke-opacity:1" />
      <path
         sodipodi:nodetypes="cssccs"
         id="path4704"
         d="M 7.4985916,12.923486 C 5.8398791,12.125965 4.45891,13.456297 4.6841542,14.112287 C 4.9915396,15.007502 5.6091035,15.171839 7.0554564,15.708601 C 8.3865488,16.202588 8.8898971,18.633245 11.162057,19.294462 C 11.308447,18.206486 12.877891,18.221537 13.054604,17 C 13.054604,17 9.8240823,14.041601 7.4985916,12.923486 z"
         style="fill:url(#linearGradient3714);fill-opacity:1;fill-rule:nonzero;stroke:url(#linearGradient3716);stroke-width:1.11734283;stroke-miterlimit:4;stroke-dasharray:none;stroke-opacity:1" />
      <path
         style="fill:url(#linearGradient3718);fill-opacity:1;fill-rule:nonzero;stroke:url(#linearGradient3720);stroke-width:1.11734283;stroke-miterlimit:4;stroke-dasharray:none;stroke-opacity:1"
         d="M 8.8050778,5.8277578 C 7.8530996,4.9583033 7.2499816,4.6246383 6.4032695,5.3837356 C 5.8088462,5.9166501 5.9793201,6.9750014 7.2432899,8.3004913 C 8.5122202,9.6311828 13.19317,16.517942 13.19317,16.517942 C 13.944793,15.99776 14.470127,15.650249 15.600947,14.942177 C 15.600947,14.942177 11.664948,8.4397164 8.8050778,5.8277578 z"
         id="rect4159"
         sodipodi:nodetypes="cszccs" />
      <path
         style="fill:url(#linearGradient3722);fill-opacity:1;fill-rule:evenodd;stroke:none;stroke-width:1;stroke-linecap:butt;stroke-linejoin:miter;stroke-miterlimit:4;stroke-dasharray:none;stroke-opacity:1"
         d="M 10.073714,17.871281 C 11.368902,20.682165 16.436701,23.58203 16.436701,23.58203 L 23.544771,19.478184 C 23.544771,19.478184 23.341744,14.697272 21.421725,11.371702"
         id="path4760"
         sodipodi:nodetypes="cccc" />
      <path
         sodipodi:nodetypes="cccc"
         id="path4838"
         d="M 9.9729244,18.661191 C 12.091337,21.036733 16.389341,23.5 16.389341,23.5 L 23.497411,19.396154 C 23.497411,19.396154 23.294384,14.615243 21.374365,11.289672"
         style="fill:none;fill-opacity:1;fill-rule:evenodd;stroke:url(#linearGradient3724);stroke-width:1.11734283;stroke-linecap:butt;stroke-linejoin:miter;stroke-miterlimit:4;stroke-dasharray:none;stroke-opacity:1" />
    </g>
  </g>
</svg>
