<?xml version="1.0" encoding="UTF-8" standalone="no"?>
<!-- Created with Inkscape (http://www.inkscape.org/) -->

<svg
   xmlns:dc="http://purl.org/dc/elements/1.1/"
   xmlns:cc="http://creativecommons.org/ns#"
   xmlns:rdf="http://www.w3.org/1999/02/22-rdf-syntax-ns#"
   xmlns:svg="http://www.w3.org/2000/svg"
   xmlns="http://www.w3.org/2000/svg"
   xmlns:xlink="http://www.w3.org/1999/xlink"
   xmlns:sodipodi="http://sodipodi.sourceforge.net/DTD/sodipodi-0.dtd"
   xmlns:inkscape="http://www.inkscape.org/namespaces/inkscape"
   width="32"
   height="32"
   id="svg2"
   version="1.1"
   inkscape:version="0.48.2 r9819"
   sodipodi:docname="opts_gears.svg"
   inkscape:export-filename="L:\projects\rezonator2\img\opts_gears_24.png"
   inkscape:export-xdpi="67.5"
   inkscape:export-ydpi="67.5">
  <defs
     id="defs4">
    <linearGradient
       id="linearGradient4899">
      <stop
         id="stop4901"
         offset="0"
         style="stop-color:#45f28c;stop-opacity:1;" />
      <stop
         id="stop4903"
         offset="1"
         style="stop-color:#06584b;stop-opacity:1;" />
    </linearGradient>
    <linearGradient
       id="linearGradient4885">
      <stop
         id="stop4887"
         offset="0"
         style="stop-color:#0a489a;stop-opacity:1;" />
      <stop
         id="stop4889"
         offset="1"
         style="stop-color:#61a0d9;stop-opacity:1;" />
    </linearGradient>
    <linearGradient
       id="linearGradient3991">
      <stop
         style="stop-color:#0cb150;stop-opacity:1;"
         offset="0"
         id="stop3993" />
      <stop
         style="stop-color:#0ba48b;stop-opacity:1;"
         offset="1"
         id="stop3995" />
    </linearGradient>
    <linearGradient
       id="linearGradient3966">
      <stop
         style="stop-color:#0e65d9;stop-opacity:1;"
         offset="0"
         id="stop3968" />
      <stop
         style="stop-color:#0eb4d9;stop-opacity:1;"
         offset="1"
         id="stop3970" />
    </linearGradient>
    <linearGradient
       inkscape:collect="always"
       xlink:href="#linearGradient3886"
       id="linearGradient3972"
       x1="17.907984"
       y1="26.90328"
       x2="5.176621"
       y2="14.50869"
       gradientUnits="userSpaceOnUse"
       gradientTransform="matrix(1.4308158,0,0,1.4286485,-0.45438068,1007.0527)" />
    <linearGradient
       inkscape:collect="always"
       xlink:href="#linearGradient3991"
       id="linearGradient3997"
       x1="18.615118"
       y1="3.7198336"
       x2="28.17337"
       y2="13.70319"
       gradientUnits="userSpaceOnUse"
       gradientTransform="matrix(1.3162156,0,0,1.3162156,44.795783,1006.0683)" />
    <linearGradient
       inkscape:collect="always"
       xlink:href="#linearGradient3966"
       id="linearGradient4843"
       gradientUnits="userSpaceOnUse"
       gradientTransform="translate(-1.15625,961.4872)"
       x1="17.907984"
       y1="26.90328"
       x2="5.176621"
       y2="14.50869" />
    <linearGradient
       inkscape:collect="always"
       xlink:href="#linearGradient3991"
       id="linearGradient4845"
       gradientUnits="userSpaceOnUse"
       gradientTransform="matrix(1.3162156,0,0,1.3162156,-8.0891361,958.3922)"
       x1="18.615118"
       y1="3.7198336"
       x2="28.17337"
       y2="13.70319" />
    <linearGradient
       inkscape:collect="always"
       xlink:href="#linearGradient3991"
       id="linearGradient4870"
       gradientUnits="userSpaceOnUse"
       gradientTransform="matrix(0.96592583,-0.25881905,0.25881905,0.96592583,-37.310686,966.4641)"
       x1="49.1875"
       y1="35.859375"
       x2="61.8125"
       y2="35.859375" />
    <linearGradient
       inkscape:collect="always"
       xlink:href="#linearGradient3991"
       id="linearGradient4875"
       gradientUnits="userSpaceOnUse"
       gradientTransform="matrix(-1.4068115,0.37695858,-0.376954,-1.4068286,94.20672,1039.3463)"
       x1="49.1875"
       y1="35.859375"
       x2="61.8125"
       y2="35.859375" />
    <linearGradient
       inkscape:collect="always"
       xlink:href="#linearGradient3812"
       id="linearGradient4883"
       x1="8.0797501"
       y1="1030.4064"
       x2="20.098101"
       y2="1049.9078"
       gradientUnits="userSpaceOnUse"
       gradientTransform="matrix(1.1352198,0,0,1.1335003,1.0864779,-141.57741)" />
    <linearGradient
       inkscape:collect="always"
       xlink:href="#linearGradient4899"
       id="linearGradient4897"
       x1="20.6507"
       y1="1037.6232"
       x2="24.445255"
       y2="1021.8021"
       gradientUnits="userSpaceOnUse"
       gradientTransform="translate(-20,-20)" />
    <linearGradient
       inkscape:collect="always"
       xlink:href="#linearGradient3886"
       id="linearGradient3790"
       x1="10.405562"
       y1="1043.2808"
       x2="26.395218"
       y2="1052.3744"
       gradientUnits="userSpaceOnUse" />
    <linearGradient
       id="linearGradient3886">
      <stop
         id="stop3888"
         offset="0"
         style="stop-color:#9baec0;stop-opacity:1;" />
      <stop
         style="stop-color:#d5e4f3;stop-opacity:1;"
         offset="0.5"
         id="stop3890" />
      <stop
         id="stop3892"
         offset="1"
         style="stop-color:#8ba1b6;stop-opacity:1;" />
    </linearGradient>
    <linearGradient
       inkscape:collect="always"
       xlink:href="#linearGradient3812"
       id="linearGradient3826"
       x1="12.965721"
       y1="1046.385"
       x2="36.876179"
       y2="1046.4918"
       gradientUnits="userSpaceOnUse" />
    <linearGradient
       id="linearGradient3812">
      <stop
         style="stop-color:#123761;stop-opacity:1;"
         offset="0"
         id="stop3814" />
      <stop
         style="stop-color:#6a93c3;stop-opacity:1;"
         offset="1"
         id="stop3816" />
    </linearGradient>
    <linearGradient
       gradientTransform="translate(49.492489,21.626774)"
       y2="1052.3744"
       x2="26.395218"
       y1="1043.2808"
       x1="10.405562"
       gradientUnits="userSpaceOnUse"
       id="linearGradient4931"
       xlink:href="#linearGradient3886"
       inkscape:collect="always" />
    <linearGradient
       gradientTransform="translate(49.492489,21.626774)"
       y2="1046.4918"
       x2="36.876179"
       y1="1046.385"
       x1="12.965721"
       gradientUnits="userSpaceOnUse"
       id="linearGradient4933"
       xlink:href="#linearGradient3812"
       inkscape:collect="always" />
    <linearGradient
       inkscape:collect="always"
       xlink:href="#linearGradient3966"
       id="linearGradient4966"
       gradientUnits="userSpaceOnUse"
       gradientTransform="matrix(1.4308158,0,0,1.4286485,-80.454381,1007.0527)"
       x1="17.907984"
       y1="26.90328"
       x2="5.176621"
       y2="14.50869" />
    <linearGradient
       inkscape:collect="always"
       xlink:href="#linearGradient4885"
       id="linearGradient4968"
       gradientUnits="userSpaceOnUse"
       gradientTransform="matrix(1.1352198,0,0,1.1335003,-78.913522,-141.57741)"
       x1="8.0797501"
       y1="1030.4064"
       x2="20.098101"
       y2="1049.9078" />
  </defs>
  <sodipodi:namedview
     id="base"
     pagecolor="#ffffff"
     bordercolor="#666666"
     borderopacity="1.0"
     inkscape:pageopacity="0.0"
     inkscape:pageshadow="2"
     inkscape:zoom="5.909836"
     inkscape:cx="15.450242"
     inkscape:cy="18.093077"
     inkscape:document-units="px"
     inkscape:current-layer="layer1"
     showgrid="true"
     inkscape:window-width="1920"
     inkscape:window-height="1138"
     inkscape:window-x="-8"
     inkscape:window-y="-8"
     inkscape:window-maximized="1"
     inkscape:snap-global="false">
    <inkscape:grid
       type="xygrid"
       id="grid3846"
       empspacing="5"
       visible="true"
       enabled="true"
       snapvisiblegridlinesonly="true" />
  </sodipodi:namedview>
  <metadata
     id="metadata7">
    <rdf:RDF>
      <cc:Work
         rdf:about="">
        <dc:format>image/svg+xml</dc:format>
        <dc:type
           rdf:resource="http://purl.org/dc/dcmitype/StillImage" />
        <dc:title></dc:title>
      </cc:Work>
    </rdf:RDF>
  </metadata>
  <g
     inkscape:label="Layer 1"
     inkscape:groupmode="layer"
     id="layer1"
     transform="translate(0,-1020.3622)">
    <path
       inkscape:connector-curvature="0"
       style="opacity:0.58878503;fill:#076a30;fill-opacity:1;stroke:none"
       d="m 69.796875,1035.1903 -3.96875,-0.5625 0,3.125 3.96875,-0.4687 0,-2.0938 z m -24.625,-0.5625 -3.96875,0.5625 0,2.0938 3.96875,0.4687 0,-3.125 z"
       id="path3022" />
    <path
       id="path3024"
       d="m 55.53125,1024.831 c -6.296431,0 -11.40625,5.1098 -11.40625,11.4062 0,6.2964 5.109819,11.375 11.40625,11.375 6.296431,0 11.40625,-5.0786 11.40625,-11.375 0,-6.2964 -5.109819,-11.4062 -11.40625,-11.4062 z m 0,1.9375 c 5.218802,0 9.4375,4.2499 9.4375,9.4687 0,5.2188 -4.218698,9.4375 -9.4375,9.4375 -5.218802,0 -9.46875,-4.2187 -9.46875,-9.4375 0,-5.2188 4.249948,-9.4687 9.46875,-9.4687 z m 0,5.5937 c -2.139863,0 -3.875,1.7351 -3.875,3.875 0,2.1399 1.735137,3.875 3.875,3.875 2.139863,0 3.875,-1.7351 3.875,-3.875 0,-2.1399 -1.735137,-3.875 -3.875,-3.875 z m 0,2.3125 c 0.846708,0 1.53125,0.7158 1.53125,1.5625 0,0.8467 -0.684542,1.5313 -1.53125,1.5313 -0.846708,0 -1.53125,-0.6846 -1.53125,-1.5313 0,-0.8467 0.684542,-1.5625 1.53125,-1.5625 z"
       style="opacity:0.58878503;fill:#076a30;fill-opacity:1;stroke:none"
       inkscape:connector-curvature="0" />
    <path
       style="fill:url(#linearGradient3972);fill-opacity:1.0;stroke:url(#linearGradient4883);stroke-width:0.40000004000000000;stroke-miterlimit:4;stroke-opacity:1;stroke-dasharray:none"
       d="m 18.861631,1021.5622 -1.251964,2.9913 c -1.077736,-0.1386 -2.17643,-0.1505 -3.219334,0 l -1.251963,-2.9466 -2.101513,0.5803 0.447132,3.1699 c -0.983291,0.4081 -1.9283177,0.957 -2.7722067,1.6073 L 6.1184288,1025 l -1.5202416,1.5624 1.9673716,2.5001 c -0.6441174,0.8271 -1.1942591,1.767 -1.6096677,2.768 l -3.1746223,-0.4017 -0.5812688,2.143 2.9510573,1.2054 c -0.147978,1.1017 -0.1011677,2.1978 0.044714,3.2593 l -2.995771,1.1606 0.5812688,2.0984 3.1299093,-0.3573 c 0.4123901,1.0004 0.9878204,1.9155 1.6543806,2.768 l -1.9673714,2.5002 1.5202416,1.5628 2.5933535,-1.92 c 0.8312536,0.6355 1.7234203,1.198 2.7274923,1.6073 l -0.357704,3.125 2.146224,0.5359 1.162538,-2.9019 c 1.099232,0.1549 2.157761,0.1429 3.219334,0 l 1.162538,2.9467 2.146224,-0.5807 -0.402416,-3.125 c 1.013436,-0.4112 1.997311,-0.9366 2.86163,-1.6073 l 2.414501,1.92 1.564955,-1.5628 -1.877943,-2.5002 c 0.66065,-0.852 1.236472,-1.8207 1.654379,-2.8574 l 3.085197,0.4914 0.581268,-2.1431 -2.951057,-1.2054 c 0.138044,-1.0777 0.142138,-2.1735 0,-3.2145 l 2.906343,-1.2054 -0.581268,-2.143 -3.040483,0.4467 c -0.411859,-1.0037 -0.988149,-1.9568 -1.654379,-2.813 l 1.877943,-2.5445 -1.564955,-1.518 -2.459212,1.9644 c -0.854312,-0.6604 -1.778765,-1.2337 -2.816919,-1.652 l 0.491843,-3.1696 -2.146225,-0.5806 z m -3.174622,6.1165 c 0.457075,-0.018 0.925055,-0.017 1.386105,0.044 l -0.938973,3.5716 c -1.891129,-0.045 -3.640906,0.9837 -4.560727,2.6342 l -3.5323264,-0.9822 c 1.3464612,-3.0914 4.3488384,-5.1343 7.6459214,-5.268 z m 3.755893,0.7144 c 3.544709,1.5078 5.646084,5.1918 5.186705,9.0183 l -3.487614,-0.9376 c 0.02726,-1.8928 -1.011138,-3.6533 -2.682779,-4.5539 l 0.983688,-3.5268 z m -3.308761,5.9378 c 0.134493,0 0.267411,0.052 0.402414,0.088 1.080036,0.2891 1.720524,1.4205 1.430817,2.5002 -0.289708,1.0794 -1.379179,1.7176 -2.459214,1.4285 -1.080036,-0.2887 -1.720523,-1.3759 -1.430816,-2.4553 0.253494,-0.9447 1.115288,-1.6116 2.056799,-1.5627 z m -8.7637483,0.982 3.5323273,0.9376 c -0.0624,1.9149 0.959202,3.7224 2.638067,4.6433 l -0.938974,3.4823 c -3.5785683,-1.5141 -5.7298574,-5.2101 -5.2314203,-9.0632 z m 13.1456203,3.5272 3.487613,0.9374 c -1.49816,3.5702 -5.18873,5.6927 -9.032023,5.2236 l 0.938971,-3.4823 c 1.911921,0.044 3.695471,-0.9954 4.605439,-2.6787 z"
       id="path2996"
       inkscape:connector-curvature="0" />
    <path
       inkscape:connector-curvature="0"
       style="opacity:0.58878503;fill:#076a30;fill-opacity:1;stroke:none"
       d="m -24.46875,1026.7685 c 5.218802,0 9.4375,4.2499 9.4375,9.4687 0,5.2188 -4.218698,9.4375 -9.4375,9.4375 -5.218802,0 -9.46875,-4.2187 -9.46875,-9.4375 0,-5.2188 4.249948,-9.4687 9.46875,-9.4687 z"
       id="path3812"
       sodipodi:nodetypes="sssss" />
    <path
       sodipodi:nodetypes="cccccccccccccccccccccccccccccccccccccccccccccccccsssss"
       inkscape:connector-curvature="0"
       id="path3814"
       d="m 14.5,1061.8935 -0.4375,3.0625 c -1.025903,0.1381 -2.013711,0.3905 -2.9375,0.7812 l -1.875,-2.4062 -1.8125,1.0312 1.1875,2.8438 c -0.8040757,0.6178 -1.5402791,1.3185 -2.15625,2.125 L 3.625,1068.1747 2.59375,1069.9872 5,1071.7997 c -0.3884949,0.92 -0.6461958,1.9136 -0.78125,2.9375 l -3.03125,0.4375 0,2.125 3.03125,0.3438 c 0.1358684,1.0506 0.4161534,2.0588 0.8125,3 l -2.4375,1.8125 1.03125,1.8125 2.8125,-1.125 c 0.6265017,0.8193 1.3635623,1.5354 2.1875,2.1562 l -1.1875,2.7813 1.8125,1.0625 1.875,-2.4063 c 0.921859,0.3803 1.912469,0.6518 2.9375,0.7813 l 0.4375,2.9687 2.09375,0 0.34375,-2.9687 c 1.049787,-0.1281 2.058173,-0.3892 3,-0.7813 l 1.78125,2.4063 1.8125,-1.0625 -1.125,-2.7813 c 0.831021,-0.6282 1.589013,-1.3572 2.21875,-2.1875 l 2.71875,1.1875 1.0625,-1.8125 -2.375,-1.8437 c 0.397532,-0.9471 0.683914,-1.9741 0.8125,-3.0313 l 2.96875,-0.3125 0,-2.125 -3,-0.4062 c -0.139099,-1.0261 -0.39336,-2.0143 -0.78125,-2.9375 l 2.375,-1.8438 -1.0625,-1.8125 -2.71875,1.1563 c -0.626808,-0.8224 -1.363028,-1.5635 -2.1875,-2.1875 l 1.09375,-2.7813 -1.8125,-1.0312 -1.78125,2.4062 c -0.949187,-0.3974 -1.941382,-0.6831 -3,-0.8125 l -0.34375,-3.0312 z m 1.03125,4.875 c 5.218802,0 9.4375,4.2499 9.4375,9.4687 0,5.2188 -4.218698,9.4375 -9.4375,9.4375 -5.218802,0 -9.46875,-4.2187 -9.46875,-9.4375 0,-5.2188 4.249948,-9.4687 9.46875,-9.4687 z"
       style="fill:#076a30;fill-opacity:1;stroke:none" />
    <path
       id="path3823"
       d="m 54.375,985.8622 0,8 2.3125,0 0,-8 -2.3125,0 z m -9.1875,9.1875 0,2.3125 8,0 0,-2.3125 -8,0 z m 12.6875,0 0,2.3125 8,0 0,-2.3125 -8,0 z m -3.5,3.5 0,8 2.3125,0 0,-8 -2.3125,0 z"
       style="fill:#076a30;fill-opacity:1;stroke:none;opacity:0.6"
       inkscape:connector-curvature="0" />
    <g
       id="g3830"
       transform="translate(-40,-40)">
      <path
         style="fill:#076a30;fill-opacity:1;stroke:none"
         d="m 14.5,1.53125 -0.4375,3.0625 C 13.036597,4.7319017 12.048789,4.9842636 11.125,5.375 L 9.25,2.96875 7.4375,4 8.625,6.84375 C 7.8209243,7.4616408 7.0847209,8.16232 6.46875,8.96875 L 3.625,7.8125 2.59375,9.625 5,11.4375 C 4.6115051,12.357497 4.3538042,13.351115 4.21875,14.375 l -3.03125,0.4375 0,2.125 3.03125,0.34375 c 0.1358684,1.050661 0.4161534,2.058829 0.8125,3 l -2.4375,1.8125 1.03125,1.8125 2.8125,-1.125 c 0.6265017,0.819323 1.3635623,1.535495 2.1875,2.15625 L 7.4375,27.71875 9.25,28.78125 11.125,26.375 c 0.921859,0.380269 1.912469,0.651756 2.9375,0.78125 L 14.5,30.125 l 2.09375,0 0.34375,-2.96875 c 1.049787,-0.12806 2.058173,-0.389102 3,-0.78125 l 1.78125,2.40625 1.8125,-1.0625 -1.125,-2.78125 C 23.237271,24.309264 23.995263,23.580312 24.625,22.75 l 2.71875,1.1875 1.0625,-1.8125 -2.375,-1.84375 c 0.397532,-0.947074 0.683914,-1.974095 0.8125,-3.03125 l 2.96875,-0.3125 0,-2.125 -3,-0.40625 c -0.139099,-1.026025 -0.39336,-2.014295 -0.78125,-2.9375 L 28.40625,9.625 27.34375,7.8125 24.625,8.96875 C 23.998192,8.14635 23.261972,7.4052998 22.4375,6.78125 L 23.53125,4 21.71875,2.96875 19.9375,5.375 c -0.949187,-0.3973787 -1.941382,-0.6830836 -3,-0.8125 l -0.34375,-3.03125 -2.09375,0 z m 1.03125,6.03125 c 4.584446,0 8.28125,3.7281 8.28125,8.3125 0,4.5844 -3.696804,8.28125 -8.28125,8.28125 -4.584446,0 -8.3125,-3.69685 -8.3125,-8.28125 0,-4.5844 3.728054,-8.3125 8.3125,-8.3125 z"
         transform="translate(0,1020.3622)"
         id="path3832"
         inkscape:connector-curvature="0" />
      <path
         style="fill:#076a30;fill-opacity:1;stroke:none"
         d="m 14.375,5.5 0,8 2.3125,0 0,-8 -2.3125,0 z m -9.1875,9.1875 0,2.3125 8,0 0,-2.3125 -8,0 z m 12.6875,0 0,2.3125 8,0 0,-2.3125 -8,0 z m -3.5,3.5 0,8 2.3125,0 0,-8 -2.3125,0 z"
         transform="translate(0,1020.3622)"
         id="path3834"
         inkscape:connector-curvature="0" />
      <path
         inkscape:connector-curvature="0"
         style="fill:#076a30;fill-opacity:1;stroke:none"
         d="m 15.53125,1032.3622 c -2.139863,0 -3.875,1.7351 -3.875,3.875 0,2.1399 1.735137,3.875 3.875,3.875 2.139863,0 3.875,-1.7351 3.875,-3.875 0,-2.1399 -1.735137,-3.875 -3.875,-3.875 z m 0,2.3125 c 0.846708,0 1.53125,0.7158 1.53125,1.5625 0,0.8467 -0.684542,1.5313 -1.53125,1.5313 -0.846708,0 -1.53125,-0.6846 -1.53125,-1.5313 0,-0.8467 0.684542,-1.5625 1.53125,-1.5625 z"
         id="path3836"
         sodipodi:nodetypes="ssssssssss" />
    </g>
    <path
       style="fill:url(#linearGradient3997);fill-opacity:1;stroke:none"
       d="m 75.151002,1008.0427 -0.329055,2.5091 c -0.562963,0.089 -1.115284,0.2621 -1.645268,0.4935 l -1.563008,-2.0154 -1.028292,0.5758 1.028292,2.3855 c -0.186705,0.1516 -0.360864,0.3199 -0.534712,0.4937 -0.237908,0.2379 -0.462822,0.4788 -0.658107,0.7403 l -2.38564,-1.0283 -0.575845,0.9872 2.056587,1.6453 c -0.188314,0.4899 -0.299967,1.0085 -0.370185,1.5219 l -2.632433,0.3702 0,1.1517 2.632433,0.329 c 0.0764,0.5516 0.19856,1.0808 0.411317,1.6041 l -2.138851,1.6042 0.616977,0.9873 2.467903,-0.9873 c 0.172552,0.2216 0.372005,0.4543 0.575844,0.658 0.179455,0.1796 0.34141,0.3385 0.534712,0.4938 l -1.028292,2.4266 1.028292,0.5759 1.604139,-2.0565 c 0.51461,0.2176 1.060217,0.3678 1.604137,0.4523 l 0.329055,2.5091 1.19282,0 0.287923,-2.5091 c 0.580024,-0.067 1.135473,-0.1949 1.686401,-0.4112 l 1.480742,2.0154 1.028294,-0.5759 -0.946031,-2.2621 c 0.27491,-0.2023 0.532509,-0.4092 0.781503,-0.6583 0.18019,-0.1801 0.337843,-0.3816 0.493581,-0.5757 l 2.262245,0.905 0.575845,-0.9873 -1.933192,-1.4397 c 0.2572,-0.5863 0.410758,-1.1855 0.493581,-1.8097 l 2.385642,-0.2879 0,-1.1517 -2.385642,-0.3291 c -0.07686,-0.5877 -0.221066,-1.172 -0.452449,-1.7275 l 1.89206,-1.4808 -0.616976,-0.9872 -2.13885,0.946 c -0.179665,-0.2335 -0.36162,-0.4438 -0.575845,-0.658 -0.235532,-0.2355 -0.481801,-0.4637 -0.740371,-0.6581 l 0.904899,-2.2211 -1.028294,-0.5758 -1.398479,1.9331 c -0.562218,-0.2268 -1.174097,-0.3425 -1.768664,-0.4112 l -0.287923,-2.5091 -1.19282,0 z m 0.699239,3.8664 c 0.668545,0 1.33959,0.1503 1.974324,0.4113 l -1.521875,2.5913 c -0.152087,-0.032 -0.301916,-0.041 -0.452449,-0.041 -0.53991,0 -1.045312,0.2436 -1.480743,0.6169 l -2.632431,-1.5219 c 0.121706,-0.1517 0.229432,-0.3116 0.370186,-0.4523 1.03999,-1.0401 2.379725,-1.6043 3.742988,-1.6043 z m 3.290539,1.1516 c 0.176163,0.138 0.332451,0.2913 0.493581,0.4526 1.550228,1.5502 1.91227,3.8027 1.151688,5.7172 l -2.632431,-1.5219 c 0.0028,-0.013 -0.0025,-0.029 0,-0.041 0.134567,-0.693 -0.03186,-1.4196 -0.534711,-1.9744 l 1.521873,-2.6324 z m -8.185216,2.2622 2.591301,1.4809 c -0.117847,0.6696 0.07379,1.3786 0.534711,1.9331 l -1.521874,2.6736 c -0.151744,-0.1216 -0.311696,-0.2293 -0.452449,-0.3702 -1.550226,-1.5503 -1.91227,-3.8029 -1.151689,-5.7174 z m 4.894677,1.0284 c 0.228622,0 0.484189,0.1139 0.658109,0.2879 0.34784,0.3478 0.347853,0.8861 0,1.234 -0.347855,0.3478 -0.927246,0.3478 -1.275084,0 -0.34784,-0.3478 -0.347854,-0.8861 0,-1.234 0.174005,-0.174 0.38843,-0.2879 0.616975,-0.2879 z m 1.521875,2.6737 2.673562,1.5218 c -0.131698,0.1678 -0.2566,0.3387 -0.411317,0.4935 -1.559984,1.56 -3.836444,1.9317 -5.758443,1.1517 l 1.521875,-2.6325 c 0.685348,0.147 1.406282,-0.04 1.974323,-0.5345 z"
       id="path3848"
       inkscape:connector-curvature="0" />
    <g
       transform="matrix(0.55396468,0.55396506,-0.55396468,0.55396506,566.88442,426.21939)"
       id="g3903">
      <path
         inkscape:connector-curvature="0"
         id="path3905"
         transform="matrix(0.8500109,-0.8500109,0.8500109,0.8500109,8.303612,1028.3774)"
         d="m 23.15625,3.78125 c -1.304045,-2.6e-6 -2.598939,0.5051892 -3.59375,1.5 -1.989622,1.9896215 -1.9896,5.1979 0,7.1875 1.9896,1.9896 5.197878,1.989622 7.1875,0 1.989622,-1.989622 1.9896,-5.1978996 0,-7.1875 -0.9948,-0.9948002 -2.289705,-1.4999974 -3.59375,-1.5 z m 0,1.09375 c 1.021248,1.11e-5 2.033426,0.4084262 2.8125,1.1875 1.558148,1.5581477 1.558156,4.066844 0,5.625 -1.558156,1.558156 -4.066852,1.558148 -5.625,0 -1.558148,-1.558148 -1.558156,-4.0668435 0,-5.625 0.779078,-0.7790782 1.791252,-1.1875111 2.8125,-1.1875 z"
         style="fill:#076a30;fill-opacity:1;stroke:none" />
      <path
         sodipodi:nodetypes="cccccccccc"
         inkscape:connector-curvature="0"
         style="fill:#076a30;fill-opacity:1;stroke:none"
         d="m 29.101961,1010.9326 1.772882,2.5686 1.725443,-1.7255 -2.502107,-1.8393 z m 9.216135,10.0115 2.517449,1.7221 0.996197,-0.9962 -1.788582,-2.4512 z"
         id="path3907" />
      <path
         inkscape:connector-curvature="0"
         style="fill:#076a30;fill-opacity:1;stroke:none"
         d="m 34.954872,1011.0497 0,3.9879 1.152756,0 0,-3.9879 -1.152756,0 z m -4.579872,4.5799 0,1.1527 3.987915,0 0,-1.1527 -3.987915,0 z m 6.324585,0 0,1.1527 3.987915,0 0,-1.1527 -3.987915,0 z m -1.744713,1.7447 0,3.9879 1.152756,0 0,-3.9879 -1.152756,0 z"
         id="path3909" />
      <path
         sodipodi:nodetypes="sssss"
         id="path3911"
         d="m 35.519281,1014.2821 c 1.070967,0 1.9367,0.8721 1.9367,1.9432 0,1.071 -0.865733,1.9367 -1.9367,1.9367 -1.070967,0 -1.943112,-0.8657 -1.943112,-1.9367 0,-1.0711 0.872145,-1.9432 1.943112,-1.9432 z"
         style="fill:#076a30;fill-opacity:1;stroke:none"
         inkscape:connector-curvature="0" />
      <path
         id="path3913"
         d="m 40.835553,1010.0028 -2.5686,1.7729 1.7255,1.7255 1.8393,-2.5021 z m -10.0115,9.2162 -1.7221,2.5174 0.9962,0.9962 2.4512,-1.7886 z"
         style="fill:#076a30;fill-opacity:1;stroke:none"
         inkscape:connector-curvature="0"
         sodipodi:nodetypes="cccccccccc" />
      <path
         sodipodi:nodetypes="cccccccccc"
         inkscape:connector-curvature="0"
         style="fill:#076a30;fill-opacity:1;stroke:none"
         d="m 43.75403,1015.6708 -3.069862,-0.5627 -7e-6,2.4402 3.069851,-0.4687 z m -13.596035,-0.5624 -2.997781,0.5624 7e-6,1.4088 2.998014,0.4685 z"
         id="path3915" />
      <path
         id="path3917"
         d="m 36.161513,1024.6721 0.5627,-3.0699 -2.4402,0 0.4687,3.0699 z m 0.5624,-13.596 -0.5624,-2.9978 -1.4088,0 -0.4685,2.998 z"
         style="fill:#076a30;fill-opacity:1;stroke:none"
         inkscape:connector-curvature="0"
         sodipodi:nodetypes="cccccccccc" />
    </g>
    <g
       transform="matrix(0.7086268,0.18987598,-0.19008383,0.7094025,157.47931,322.8431)"
       id="g3933">
      <path
         inkscape:connector-curvature="0"
         style="fill:#076a30;fill-opacity:1;stroke:none"
         d="m 14.5,1021.8935 -0.4375,3.0625 c -1.025903,0.1381 -2.013711,0.3905 -2.9375,0.7812 l -1.875,-2.4062 -1.8125,1.0312 1.1875,2.8438 c -0.8040757,0.6178 -1.5402791,1.3185 -2.15625,2.125 L 3.625,1028.1747 2.59375,1029.9872 5,1031.7997 c -0.3884949,0.92 -0.6461958,1.9136 -0.78125,2.9375 l -3.03125,0.4375 0,2.125 3.03125,0.3438 c 0.1358684,1.0506 0.4161534,2.0588 0.8125,3 l -2.4375,1.8125 1.03125,1.8125 2.8125,-1.125 c 0.6265017,0.8193 1.3635623,1.5354 2.1875,2.1562 l -1.1875,2.7813 1.8125,1.0625 1.875,-2.4063 c 0.921859,0.3803 1.912469,0.6518 2.9375,0.7813 l 0.4375,2.9687 2.09375,0 0.34375,-2.9687 c 1.049787,-0.1281 2.058173,-0.3892 3,-0.7813 l 1.78125,2.4063 1.8125,-1.0625 -1.125,-2.7813 c 0.831021,-0.6282 1.589013,-1.3572 2.21875,-2.1875 l 2.71875,1.1875 1.0625,-1.8125 -2.375,-1.8437 c 0.397532,-0.9471 0.683914,-1.9741 0.8125,-3.0313 l 2.96875,-0.3125 0,-2.125 -3,-0.4062 c -0.139099,-1.0261 -0.39336,-2.0143 -0.78125,-2.9375 l 2.375,-1.8438 -1.0625,-1.8125 -2.71875,1.1563 c -0.626808,-0.8224 -1.363028,-1.5635 -2.1875,-2.1875 l 1.09375,-2.7813 -1.8125,-1.0312 -1.78125,2.4062 c -0.949187,-0.3974 -1.941382,-0.6831 -3,-0.8125 l -0.34375,-3.0312 -2.09375,0 z m 1.03125,6.0312 c 4.584446,0 8.28125,3.7281 8.28125,8.3125 0,4.5844 -3.696804,8.2813 -8.28125,8.2813 -4.584446,0 -8.3125,-3.6969 -8.3125,-8.2813 0,-4.5844 3.728054,-8.3125 8.3125,-8.3125 z"
         id="path3935" />
      <path
         inkscape:connector-curvature="0"
         style="fill:#076a30;fill-opacity:1;stroke:none"
         d="m 14.375,1025.8622 0,8 2.3125,0 0,-8 -2.3125,0 z m -9.1875,9.1875 0,2.3125 8,0 0,-2.3125 -8,0 z m 12.6875,0 0,2.3125 8,0 0,-2.3125 -8,0 z m -3.5,3.5 0,8 2.3125,0 0,-8 -2.3125,0 z"
         id="path3937" />
      <path
         inkscape:connector-curvature="0"
         style="fill:#076a30;fill-opacity:1;stroke:none"
         d="m 15.53125,1031.3622 c -2.692086,0 -4.875,2.1829 -4.875,4.875 0,2.6921 2.182914,4.875 4.875,4.875 2.692086,0 4.875,-2.1829 4.875,-4.875 0,-2.6921 -2.182914,-4.875 -4.875,-4.875 z m 0,2.9093 c 1.065213,0 1.926411,0.9005 1.926411,1.9657 0,1.0652 -0.861198,1.9265 -1.926411,1.9265 -1.065213,0 -1.926411,-0.8613 -1.926411,-1.9265 0,-1.0652 0.861198,-1.9657 1.926411,-1.9657 z"
         id="path3939"
         sodipodi:nodetypes="ssssssssss" />
    </g>
    <g
       transform="matrix(0.59657715,0.59657771,-0.59657715,0.59657771,628.67542,381.40837)"
       id="g3941">
      <path
         inkscape:connector-curvature="0"
         id="path3943"
         transform="matrix(0.8500109,-0.8500109,0.8500109,0.8500109,8.303612,1028.3774)"
         d="m 23.15625,3.78125 c -1.304045,-2.6e-6 -2.598939,0.5051892 -3.59375,1.5 -1.989622,1.9896215 -1.9896,5.1979 0,7.1875 1.9896,1.9896 5.197878,1.989622 7.1875,0 1.989622,-1.989622 1.9896,-5.1978996 0,-7.1875 -0.9948,-0.9948002 -2.289705,-1.4999974 -3.59375,-1.5 z m 0,1.09375 c 1.021248,1.11e-5 2.033426,0.4084262 2.8125,1.1875 1.558148,1.5581477 1.558156,4.066844 0,5.625 -1.558156,1.558156 -4.066852,1.558148 -5.625,0 -1.558148,-1.558148 -1.558156,-4.0668435 0,-5.625 0.779078,-0.7790782 1.791252,-1.1875111 2.8125,-1.1875 z"
         style="fill:#076a30;fill-opacity:1;stroke:none" />
      <path
         sodipodi:nodetypes="cccccccccc"
         inkscape:connector-curvature="0"
         style="fill:#076a30;fill-opacity:1;stroke:none"
         d="m 29.218343,1010.8162 1.872487,2.469 1.293469,-1.2935 -2.41914,-1.9223 z m 9.315696,9.912 2.41789,1.8216 0.746798,-0.7468 -1.871526,-2.3682 z"
         id="path3945" />
      <path
         sodipodi:nodetypes="cccccccccccccccccccc"
         inkscape:connector-curvature="0"
         style="fill:#076a30;fill-opacity:1;stroke:none"
         d="m 40.639368,1014.136 -3.960539,1.0612 0.359301,1.3408 3.960496,-1.0611 z m -5.927128,-3.5247 -1.340782,0.3591 1.093653,4.0817 1.34069,-0.3592 z m 1.821853,6.7996 -1.340666,0.3592 1.054629,3.9364 1.340805,-0.3593 z m -2.573183,-1.4856 -3.936294,1.0546 0.359259,1.3409 3.936334,-1.0547 z"
         id="path3947" />
      <path
         inkscape:connector-curvature="0"
         id="path3949"
         d="m 33.99939,1014.7327 c -0.383425,0.3835 -0.599273,0.9289 -0.599273,1.5125 0,1.1668 0.973373,2.0832 2.140258,2.0832 1.166883,0 2.083186,-0.9164 2.083186,-2.0832 0,-1.1671 -0.916301,-2.1403 -2.083185,-2.1403 -0.583442,0 -1.157561,0.2444 -1.540986,0.6278 z m 0.941714,0.9418 c 0.145556,-0.1456 0.377782,-0.2569 0.599272,-0.2569 0.442981,0 0.799029,0.356 0.799029,0.799 0,0.443 -0.384586,0.8276 -0.827567,0.8276 -0.44298,0 -0.799029,-0.356 -0.79903,-0.799 0,-0.2216 0.08274,-0.4252 0.228296,-0.5707 z"
         style="fill:#076a30;fill-opacity:1;stroke:none" />
      <path
         id="path3951"
         d="m 40.95194,1010.1192 -2.469001,1.8725 1.293499,1.2935 1.922302,-2.4192 z m -9.912006,9.3157 -1.821602,2.4179 0.7468,0.7468 2.368201,-1.8715 z"
         style="fill:#076a30;fill-opacity:1;stroke:none"
         inkscape:connector-curvature="0"
         sodipodi:nodetypes="cccccccccc" />
      <path
         sodipodi:nodetypes="cccccccccc"
         inkscape:connector-curvature="0"
         style="fill:#076a30;fill-opacity:1;stroke:none"
         d="m 43.602136,1018.0023 -2.856178,-1.2019 -0.473418,1.7669 3.056203,0.4552 z m -13.023669,-3.9262 -3.004723,-0.3686 -0.273393,1.0202 2.804881,1.1152 z"
         id="path3953" />
      <path
         id="path3955"
         d="m 38.103154,1024.2352 -0.387198,-3.0744 -1.766896,0.4734 1.133872,2.8744 z m -3.111609,-13.2419 -1.183195,-2.7864 -1.020195,0.2733 0.436674,2.9867 z"
         style="fill:#076a30;fill-opacity:1;stroke:none"
         inkscape:connector-curvature="0"
         sodipodi:nodetypes="cccccccccc" />
      <path
         sodipodi:nodetypes="cccccccccc"
         inkscape:connector-curvature="0"
         style="fill:#076a30;fill-opacity:1;stroke:none"
         d="m 33.808374,1024.5086 1.201889,-2.8562 -1.766892,-0.4734 -0.455217,3.0562 z m 3.926224,-13.0236 0.368508,-3.0047 -1.020149,-0.2735 -1.115188,2.805 z"
         id="path3957" />
      <path
         id="path3959"
         d="m 27.575423,1019.0097 3.074491,-0.3873 -0.473423,-1.7669 -2.87439,1.1339 z m 13.241896,-3.1117 2.786398,-1.1831 -0.273215,-1.0203 -2.9868,0.4368 z"
         style="fill:#076a30;fill-opacity:1;stroke:none"
         inkscape:connector-curvature="0"
         sodipodi:nodetypes="cccccccccc" />
    </g>
    <path
       inkscape:connector-curvature="0"
       id="path4839"
       d="m 12.34375,971.6434 -0.875,2.0938 c -0.753233,-0.097 -1.5211133,-0.1054 -2.25,0 l -0.875,-2.0625 -1.46875,0.4062 0.3125,2.2188 c -0.6872234,0.2856 -1.3477039,0.6699 -1.9375,1.125 l -1.8125,-1.375 -1.0625,1.0937 1.375,1.75 c -0.450175,0.5789 -0.8346701,1.2368 -1.125,1.9375 l -2.21875,-0.2812 -0.40625,1.5 2.0625,0.8437 c -0.1034221,0.7711 -0.070707,1.5384 0.03125,2.2813 L 0,983.9872 l 0.40625,1.4687 2.1875,-0.25 c 0.2882202,0.7002 0.6903897,1.3407 1.15625,1.9375 l -1.375,1.75 1.0625,1.0938 1.8125,-1.3438 c 0.5809651,0.4448 1.2045014,0.8385 1.90625,1.125 l -0.25,2.1875 1.5,0.375 0.8125,-2.0312 c 0.7682567,0.1084 1.508064,0.1 2.25,0 l 0.8125,2.0625 1.5,-0.4063 L 13.5,989.7684 c 0.708294,-0.2878 1.395925,-0.6556 2,-1.125 l 1.6875,1.3438 1.09375,-1.0938 -1.3125,-1.75 c 0.46173,-0.5964 0.864174,-1.2745 1.15625,-2 l 2.15625,0.3438 0.40625,-1.5 -2.0625,-0.8438 c 0.09648,-0.7543 0.09934,-1.5214 0,-2.25 l 2.03125,-0.8437 -0.40625,-1.5 -2.125,0.3125 c -0.287848,-0.7024 -0.690619,-1.3696 -1.15625,-1.9688 l 1.3125,-1.7812 -1.09375,-1.0625 -1.71875,1.375 C 14.87167,974.9625 14.225568,974.5612 13.5,974.2684 l 0.34375,-2.2187 -1.5,-0.4063 z m -2.21875,4.2813 c 0.319451,-0.013 0.646523,-0.012 0.96875,0.031 l -0.65625,2.5 c -1.321713,-0.032 -2.5446351,0.6885 -3.1875,1.8438 L 4.78125,979.612 c 0.9410447,-2.1639 3.0394118,-3.5939 5.34375,-3.6875 z m 2.625,0.5 c 2.477405,1.0555 3.946061,3.6341 3.625,6.3125 l -2.4375,-0.6563 c 0.01905,-1.3248 -0.706687,-2.5571 -1.875,-3.1875 l 0.6875,-2.4687 z m -2.3125,4.1562 c 0.094,0 0.186895,0.037 0.28125,0.062 0.754838,0.2023 1.202477,0.9943 1,1.75 -0.202478,0.7556 -0.963912,1.2023 -1.7187503,1 C 9.245161,983.1907 8.7975225,982.4298 9,981.6742 c 0.177167,-0.6612 0.779477,-1.128 1.4375,-1.0938 z m -6.125,0.6875 2.46875,0.6563 c -0.043611,1.3402 0.6703889,2.6055 1.84375,3.25 l -0.65625,2.4375 C 5.4676817,986.5525 3.9641413,983.9654 4.3125,981.2684 z m 9.1875,2.4688 2.4375,0.6562 c -1.047067,2.499 -3.626414,3.9847 -6.3125,3.6563 l 0.65625,-2.4375 c 1.336245,0.031 2.582771,-0.6966 3.21875,-1.875 z"
       style="fill:url(#linearGradient4843);fill-opacity:1;stroke:none" />
    <path
       inkscape:connector-curvature="0"
       id="path4841"
       d="m 22.266083,960.3666 -0.329055,2.5091 c -0.562963,0.089 -1.115284,0.2621 -1.645268,0.4935 l -1.563008,-2.0154 -1.028292,0.5758 1.028292,2.3855 c -0.186705,0.1516 -0.360864,0.3199 -0.534712,0.4937 -0.237908,0.2379 -0.462822,0.4788 -0.658107,0.7403 l -2.38564,-1.0283 -0.575845,0.9872 2.056587,1.6453 c -0.188314,0.4899 -0.299967,1.0085 -0.370185,1.5219 l -2.632433,0.3702 0,1.1517 2.632433,0.329 c 0.0764,0.5516 0.19856,1.0808 0.411317,1.6041 l -2.138851,1.6042 0.616977,0.9873 2.467903,-0.9873 c 0.172552,0.2216 0.372005,0.4543 0.575844,0.658 0.179455,0.1796 0.34141,0.3385 0.534712,0.4938 l -1.028292,2.4266 1.028292,0.5759 1.604139,-2.0565 c 0.51461,0.2176 1.060217,0.3678 1.604137,0.4523 l 0.329055,2.5091 1.19282,0 0.287923,-2.5091 c 0.580024,-0.067 1.135473,-0.1949 1.686401,-0.4112 l 1.480742,2.0154 1.028294,-0.5759 -0.946031,-2.2621 c 0.27491,-0.2023 0.532509,-0.4092 0.781503,-0.6583 0.18019,-0.1801 0.337843,-0.3816 0.493581,-0.5757 l 2.262245,0.905 0.575845,-0.9873 -1.933192,-1.4397 c 0.2572,-0.5863 0.410758,-1.1855 0.493581,-1.8097 l 2.385642,-0.2879 0,-1.1517 -2.385642,-0.3291 c -0.07686,-0.5877 -0.221066,-1.172 -0.452449,-1.7275 l 1.89206,-1.4808 -0.616976,-0.9872 -2.13885,0.946 c -0.179665,-0.2335 -0.36162,-0.4438 -0.575845,-0.658 -0.235532,-0.2355 -0.481801,-0.4637 -0.740371,-0.6581 l 0.904899,-2.2211 -1.028294,-0.5758 -1.398479,1.9331 c -0.562218,-0.2268 -1.174097,-0.3425 -1.768664,-0.4112 l -0.287923,-2.5091 -1.19282,0 z m 0.699239,3.8664 c 0.668545,0 1.33959,0.1503 1.974324,0.4113 l -1.521875,2.5913 c -0.152087,-0.032 -0.301916,-0.041 -0.452449,-0.041 -0.53991,0 -1.045312,0.2436 -1.480743,0.6169 l -2.632431,-1.5219 c 0.121706,-0.1517 0.229432,-0.3116 0.370186,-0.4523 1.03999,-1.0401 2.379725,-1.6043 3.742988,-1.6043 z m 3.290539,1.1516 c 0.176163,0.138 0.332451,0.2913 0.493581,0.4526 1.550228,1.5502 1.91227,3.8027 1.151688,5.7172 l -2.632431,-1.5219 c 0.0028,-0.013 -0.0025,-0.029 0,-0.041 0.134567,-0.693 -0.03186,-1.4196 -0.534711,-1.9744 l 1.521873,-2.6324 z m -8.185216,2.2622 2.591301,1.4809 c -0.117847,0.6696 0.07379,1.3786 0.534711,1.9331 l -1.521874,2.6736 c -0.151744,-0.1216 -0.311696,-0.2293 -0.452449,-0.3702 -1.550226,-1.5503 -1.91227,-3.8029 -1.151689,-5.7174 z m 4.894677,1.0284 c 0.228622,0 0.484189,0.1139 0.658109,0.2879 0.34784,0.3478 0.347853,0.8861 0,1.234 -0.347855,0.3478 -0.927246,0.3478 -1.275084,0 -0.34784,-0.3478 -0.347854,-0.8861 0,-1.234 0.174005,-0.174 0.38843,-0.2879 0.616975,-0.2879 z m 1.521875,2.6737 2.673562,1.5218 c -0.131698,0.1678 -0.2566,0.3387 -0.411317,0.4935 -1.559984,1.56 -3.836444,1.9317 -5.758443,1.1517 l 1.521875,-2.6325 c 0.685348,0.147 1.406282,-0.04 1.974323,-0.5345 z"
       style="fill:url(#linearGradient4845);fill-opacity:1;stroke:none" />
    <path
       inkscape:connector-curvature="0"
       id="path4905"
       d="m 1.598618,1019.5665 1.456438,-3.5957 c 0.285795,-0.032 0.532709,-0.1056 0.819246,-0.1821 0.285966,-0.077 0.603325,-0.1575 0.86476,-0.2731 l 0.04551,-0.045 3.094932,2.3666 2.184657,-2.139 -2.503253,-3.1406 0,-0.045 c 0.209587,-0.4931 0.342892,-0.9611 0.409624,-1.502 l 3.777637,-1.593 -0.773733,-3.004 -4.005206,0.5917 c -0.333381,-0.4585 -0.739923,-0.8458 -1.183356,-1.1832 l 0.546165,-3.9598 -2.958391,-0.8192 -1.547467,3.6865 c -0.288731,0.03 -0.57448,0.057 -0.86476,0.136 -0.292153,0.079 -0.552595,0.2005 -0.819245,0.3186 l -3.049418,-2.4578 -2.139145,2.1392 2.412226,3.1861 c -0.240738,0.5525 -0.441154,1.1173 -0.50065,1.7295 l -3.68661,1.4109 0.819247,3.004 3.914178,-0.5006 c 0.348114,0.4637 0.764979,0.85 1.228869,1.1832 l -0.455136,3.8687 2.912877,0.8194 z m 0.819246,-5.1887 c -2.225417,0 -4.005206,-1.8254 -4.005206,-4.0507 0,-2.2255 1.779789,-4.0052 4.005206,-4.0052 2.225414,0 4.05072,1.7797 4.05072,4.0052 0,2.2253 -1.825306,4.0507 -4.05072,4.0507 z"
       style="fill:none;stroke:#000000;stroke-width:0.60000002;stroke-linejoin:round;stroke-miterlimit:4;stroke-opacity:1;stroke-dasharray:none" />
    <path
       style="fill:url(#linearGradient4875);fill-opacity:1;stroke:url(#linearGradient4897);stroke-width:0.40000001;stroke-linejoin:round;stroke-miterlimit:4;stroke-opacity:1;stroke-dasharray:none"
       d="m 1.725524,1019.0589 1.456438,-3.5957 c 0.285795,-0.032 0.532709,-0.1056 0.819246,-0.1821 0.285966,-0.077 0.603325,-0.1575 0.86476,-0.2731 l 0.04551,-0.045 3.094932,2.3666 2.184657,-2.139 -2.503253,-3.1406 0,-0.045 c 0.209587,-0.4931 0.342892,-0.9611 0.409624,-1.502 l 3.777637,-1.593 -0.773733,-3.004 -4.005206,0.5917 c -0.333381,-0.4585 -0.739923,-0.8458 -1.183356,-1.1832 l 0.546165,-3.9598 -2.958391,-0.8192 -1.547467,3.6865 c -0.288731,0.03 -0.57448,0.057 -0.86476,0.136 -0.292153,0.079 -0.552595,0.2005 -0.819245,0.3186 l -3.049418,-2.4578 -2.139145,2.1392 2.412226,3.1861 c -0.240738,0.5525 -0.441154,1.1173 -0.50065,1.7295 l -3.68661,1.4109 0.819247,3.004 3.914178,-0.5006 c 0.348114,0.4637 0.764979,0.85 1.228869,1.1832 l -0.455136,3.8687 2.912877,0.8194 z m 0.819246,-5.1887 c -2.225417,0 -4.005206,-1.8254 -4.005206,-4.0507 0,-2.2255 1.779789,-4.0052 4.005206,-4.0052 2.225414,0 4.05072,1.7797 4.05072,4.0052 0,2.2253 -1.825306,4.0507 -4.05072,4.0507 z"
       id="path4847"
       inkscape:connector-curvature="0" />
    <path
       inkscape:connector-curvature="0"
       id="path4868"
       d="m 26.173575,980.3824 -0.981379,2.4953 c -0.196228,0.022 -0.384804,0.071 -0.581542,0.1237 -0.196346,0.053 -0.385991,0.104 -0.565495,0.1836 l -0.03018,0.01 -2.149805,-1.6239 -1.483821,1.4653 1.711605,2.1618 0.008,0.03 c -0.143904,0.3385 -0.254872,0.6797 -0.30069,1.0511 l -2.589424,1.0821 0.54999,2.0526 2.737177,-0.4099 c 0.228902,0.3149 0.497688,0.5886 0.802152,0.8203 l -0.371173,2.7199 2.025736,0.5572 1.071934,-2.5195 c 0.198245,-0.021 0.390257,-0.04 0.589565,-0.094 0.200594,-0.054 0.374387,-0.1325 0.557472,-0.2136 l 2.09751,1.6702 1.483846,-1.4651 -1.65126,-2.1782 c 0.165292,-0.3793 0.287859,-0.7677 0.328709,-1.188 l 2.523146,-0.9672 -0.549991,-2.0526 -2.692983,0.3333 c -0.239017,-0.3184 -0.513827,-0.5834 -0.832337,-0.8122 l 0.318878,-2.6737 -2.025736,-0.5571 z m -0.964453,4.8525 c 0.817857,-0.2191 1.664336,0.2951 1.883478,1.113 0.219142,0.8178 -0.264913,1.6561 -1.08277,1.8753 -0.817857,0.2191 -1.656235,-0.2649 -1.875378,-1.0827 -0.219142,-0.8179 0.256812,-1.6864 1.07467,-1.9056 z"
       style="fill:url(#linearGradient4870);fill-opacity:1;stroke:#043930;stroke-width:0.2;stroke-linejoin:round;stroke-miterlimit:4;stroke-opacity:1;stroke-dasharray:none" />
    <path
       inkscape:connector-curvature="0"
       id="path4964"
       d="m -61.138369,1021.5622 -1.251964,2.9913 c -1.077736,-0.1386 -2.17643,-0.1505 -3.219334,0 l -1.251963,-2.9466 -2.101513,0.5803 0.447132,3.1699 c -0.983291,0.4081 -1.928318,0.957 -2.772207,1.6073 l -2.593353,-1.9644 -1.520242,1.5624 1.967372,2.5001 c -0.644118,0.8271 -1.194259,1.767 -1.609668,2.768 l -3.174622,-0.4017 -0.581269,2.143 2.951057,1.2054 c -0.147978,1.1017 -0.101167,2.1978 0.04471,3.2593 l -2.995771,1.1606 0.581269,2.0984 3.129909,-0.3573 c 0.41239,1.0004 0.987821,1.9155 1.654381,2.768 l -1.967371,2.5002 1.520241,1.5628 2.593354,-1.92 c 0.831253,0.6355 1.72342,1.198 2.727492,1.6073 l -0.357704,3.125 2.146224,0.5359 1.162538,-2.9019 c 1.099232,0.1549 2.157761,0.1429 3.219334,0 l 1.162538,2.9467 2.146224,-0.5807 -0.402416,-3.125 c 1.013436,-0.4112 1.997311,-0.9366 2.86163,-1.6073 l 2.414501,1.92 1.564955,-1.5628 -1.877943,-2.5002 c 0.66065,-0.852 1.236472,-1.8207 1.654379,-2.8574 l 3.085197,0.4914 0.581268,-2.1431 -2.951057,-1.2054 c 0.138044,-1.0777 0.142138,-2.1735 0,-3.2145 l 2.906343,-1.2054 -0.581268,-2.143 -3.040483,0.4467 c -0.411859,-1.0037 -0.988149,-1.9568 -1.654379,-2.813 l 1.877943,-2.5445 -1.564955,-1.518 -2.459212,1.9644 c -0.854312,-0.6604 -1.778765,-1.2337 -2.816919,-1.652 l 0.491843,-3.1696 -2.146225,-0.5806 z m -3.174622,6.1165 c 0.457075,-0.018 0.925055,-0.017 1.386105,0.044 l -0.938973,3.5716 c -1.891129,-0.045 -3.640906,0.9837 -4.560727,2.6342 l -3.532326,-0.9822 c 1.346461,-3.0914 4.348838,-5.1343 7.645921,-5.268 z m 3.755893,0.7144 c 3.544709,1.5078 5.646084,5.1918 5.186705,9.0183 l -3.487614,-0.9376 c 0.02726,-1.8928 -1.011138,-3.6533 -2.682779,-4.5539 l 0.983688,-3.5268 z m -3.308761,5.9378 c 0.134493,0 0.267411,0.052 0.402414,0.088 1.080036,0.2891 1.720524,1.4205 1.430817,2.5002 -0.289708,1.0794 -1.379179,1.7176 -2.459214,1.4285 -1.080036,-0.2887 -1.720523,-1.3759 -1.430816,-2.4553 0.253494,-0.9447 1.115288,-1.6116 2.056799,-1.5627 z m -8.763748,0.982 3.532327,0.9376 c -0.0624,1.9149 0.959202,3.7224 2.638067,4.6433 l -0.938974,3.4823 c -3.578568,-1.5141 -5.729857,-5.2101 -5.23142,-9.0632 z m 13.14562,3.5272 3.487613,0.9374 c -1.49816,3.5702 -5.18873,5.6927 -9.032023,5.2236 l 0.938971,-3.4823 c 1.911921,0.044 3.695471,-0.9954 4.605439,-2.6787 z"
       style="fill:url(#linearGradient4966);fill-opacity:1;stroke:url(#linearGradient4968);stroke-width:0.40000004;stroke-miterlimit:4;stroke-opacity:1;stroke-dasharray:none" />
  </g>
</svg>
