<?xml version="1.0" encoding="UTF-8" standalone="no"?>
<!-- Created with Inkscape (http://www.inkscape.org/) -->
<svg
   xmlns:dc="http://purl.org/dc/elements/1.1/"
   xmlns:cc="http://creativecommons.org/ns#"
   xmlns:rdf="http://www.w3.org/1999/02/22-rdf-syntax-ns#"
   xmlns:svg="http://www.w3.org/2000/svg"
   xmlns="http://www.w3.org/2000/svg"
   xmlns:xlink="http://www.w3.org/1999/xlink"
   xmlns:sodipodi="http://sodipodi.sourceforge.net/DTD/sodipodi-0.dtd"
   xmlns:inkscape="http://www.inkscape.org/namespaces/inkscape"
   width="24"
   height="24"
   id="svg4850"
   sodipodi:version="0.32"
   inkscape:version="0.46"
   version="1.0"
   sodipodi:docname="lens_prop.svg"
   inkscape:output_extension="org.inkscape.output.svg.inkscape"
   inkscape:export-filename="D:\user documents\_kolyan\rezonator2\img\elem_prop_24.png"
   inkscape:export-xdpi="90"
   inkscape:export-ydpi="90">
  <defs
     id="defs4852">
    <linearGradient
       id="linearGradient4672">
      <stop
         style="stop-color:#ffd21c;stop-opacity:1;"
         offset="0"
         id="stop4674" />
      <stop
         style="stop-color:#faff5f;stop-opacity:1;"
         offset="1"
         id="stop4676" />
    </linearGradient>
    <linearGradient
       id="linearGradient4718">
      <stop
         style="stop-color:#a47003;stop-opacity:1;"
         offset="0"
         id="stop4720" />
      <stop
         style="stop-color:#a48f03;stop-opacity:1;"
         offset="1"
         id="stop4722" />
    </linearGradient>
    <filter
       inkscape:collect="always"
       id="filter4886"
       x="-0.11544522"
       width="1.2308904"
       y="-0.12398467"
       height="1.2479693">
      <feGaussianBlur
         inkscape:collect="always"
         stdDeviation="0.33319131"
         id="feGaussianBlur4888" />
    </filter>
    <linearGradient
       id="linearGradient4613">
      <stop
         style="stop-color:#0e0f55;stop-opacity:1;"
         offset="0"
         id="stop4615" />
      <stop
         style="stop-color:#a5a6f1;stop-opacity:1;"
         offset="1"
         id="stop4617" />
    </linearGradient>
    <linearGradient
       id="linearGradient3167">
      <stop
         style="stop-color:#0e0f55;stop-opacity:1;"
         offset="0"
         id="stop3169" />
      <stop
         style="stop-color:#6a6de8;stop-opacity:1;"
         offset="1"
         id="stop3171" />
    </linearGradient>
    <inkscape:perspective
       sodipodi:type="inkscape:persp3d"
       inkscape:vp_x="0 : 16 : 1"
       inkscape:vp_y="0 : 1000 : 0"
       inkscape:vp_z="32 : 16 : 1"
       inkscape:persp3d-origin="16 : 10.666667 : 1"
       id="perspective4858" />
    <linearGradient
       inkscape:collect="always"
       xlink:href="#linearGradient3167"
       id="linearGradient4891"
       gradientUnits="userSpaceOnUse"
       gradientTransform="translate(2.8039461,6.7588051)"
       x1="0.74631572"
       y1="12"
       x2="8.3092041"
       y2="12" />
    <linearGradient
       inkscape:collect="always"
       xlink:href="#linearGradient4613"
       id="linearGradient4893"
       gradientUnits="userSpaceOnUse"
       x1="3.417697"
       y1="12.191525"
       x2="23.230306"
       y2="12.191525" />
    <linearGradient
       inkscape:collect="always"
       xlink:href="#linearGradient3167"
       id="linearGradient4895"
       gradientUnits="userSpaceOnUse"
       x1="2.2127304"
       y1="9.8866615"
       x2="18.562609"
       y2="9.8866615" />
    <linearGradient
       inkscape:collect="always"
       xlink:href="#linearGradient4672"
       id="linearGradient5065"
       gradientUnits="userSpaceOnUse"
       gradientTransform="matrix(0.9994844,3.2107363e-2,-2.4615817e-2,0.7662767,12.187635,3.227187)"
       x1="-1.2235465"
       y1="6.2711792"
       x2="3.5652106"
       y2="6.1773429" />
    <linearGradient
       inkscape:collect="always"
       xlink:href="#linearGradient4718"
       id="linearGradient5067"
       gradientUnits="userSpaceOnUse"
       gradientTransform="matrix(0.9994844,3.2107363e-2,-3.2107363e-2,0.9994844,5.886222,6.6605456)"
       x1="4.9643817"
       y1="1.1740272"
       x2="9.7531385"
       y2="1.1020854" />
    <linearGradient
       inkscape:collect="always"
       xlink:href="#linearGradient4672"
       id="linearGradient5069"
       gradientUnits="userSpaceOnUse"
       gradientTransform="matrix(1,0,0,0.8333333,10.653867,4.9654585)"
       x1="-1.0423747"
       y1="6.8876638"
       x2="6.3761411"
       y2="6.4456587" />
    <linearGradient
       inkscape:collect="always"
       xlink:href="#linearGradient4718"
       id="linearGradient5071"
       gradientUnits="userSpaceOnUse"
       gradientTransform="translate(5.6715318,7.1985042)"
       x1="3.9399605"
       y1="3.5066741"
       x2="11.358476"
       y2="3.1383364" />
    <linearGradient
       inkscape:collect="always"
       xlink:href="#linearGradient4672"
       id="linearGradient5073"
       gradientUnits="userSpaceOnUse"
       gradientTransform="matrix(1,0,0,0.8333333,9.8947898,7.4566261)"
       x1="-0.87460351"
       y1="6.3100872"
       x2="9.0253639"
       y2="6.3100872" />
    <linearGradient
       inkscape:collect="always"
       xlink:href="#linearGradient4718"
       id="linearGradient5075"
       gradientUnits="userSpaceOnUse"
       gradientTransform="translate(5.6715318,7.1985042)"
       x1="3.3486545"
       y1="5.5165277"
       x2="13.248622"
       y2="5.5165277" />
    <linearGradient
       inkscape:collect="always"
       xlink:href="#linearGradient4672"
       id="linearGradient5077"
       gradientUnits="userSpaceOnUse"
       gradientTransform="matrix(0.9211814,-0.3891334,0.3242778,0.7676512,7.0532048,18.139962)"
       x1="7.6400828"
       y1="4.3256407"
       x2="2.6905112"
       y2="3.0141277" />
    <linearGradient
       inkscape:collect="always"
       xlink:href="#linearGradient4718"
       id="linearGradient5079"
       gradientUnits="userSpaceOnUse"
       gradientTransform="translate(5.753174,7.1985042)"
       x1="8.9691887"
       y1="12.485067"
       x2="6.7442126"
       y2="10.194757" />
    <linearGradient
       inkscape:collect="always"
       xlink:href="#linearGradient4672"
       id="linearGradient5081"
       gradientUnits="userSpaceOnUse"
       gradientTransform="matrix(0.9955459,-5.5705766e-2,5.3587593e-2,0.9576925,4.9556818,8.6478844)"
       x1="11.224742"
       y1="7.1805086"
       x2="-0.73957086"
       y2="7.8498497" />
    <linearGradient
       inkscape:collect="always"
       xlink:href="#linearGradient4718"
       id="linearGradient5083"
       gradientUnits="userSpaceOnUse"
       gradientTransform="matrix(0.9955459,-5.5705766e-2,6.4305298e-2,1.1492308,4.7788877,5.4883156)"
       x1="11.224741"
       y1="8.7330484"
       x2="-0.73957199"
       y2="9.2908325" />
    <linearGradient
       inkscape:collect="always"
       xlink:href="#linearGradient4672"
       id="linearGradient5085"
       gradientUnits="userSpaceOnUse"
       gradientTransform="translate(5.753174,7.1985042)"
       x1="13.327825"
       y1="11.310649"
       x2="13.046081"
       y2="0.57567084" />
    <linearGradient
       inkscape:collect="always"
       xlink:href="#linearGradient4718"
       id="linearGradient5087"
       gradientUnits="userSpaceOnUse"
       gradientTransform="translate(5.4351955,7.1985042)"
       x1="13.64075"
       y1="12.021555"
       x2="12.6304"
       y2="-0.1232939" />
    <filter
       inkscape:collect="always"
       id="filter5697">
      <feGaussianBlur
         inkscape:collect="always"
         stdDeviation="0.4679822"
         id="feGaussianBlur5699" />
    </filter>
  </defs>
  <sodipodi:namedview
     id="base"
     pagecolor="#ffffff"
     bordercolor="#666666"
     borderopacity="1.0"
     inkscape:pageopacity="0.0"
     inkscape:pageshadow="2"
     inkscape:zoom="15.836083"
     inkscape:cx="7.5876683"
     inkscape:cy="11.836128"
     inkscape:current-layer="layer1"
     showgrid="true"
     inkscape:grid-bbox="true"
     inkscape:document-units="px"
     inkscape:window-width="1024"
     inkscape:window-height="719"
     inkscape:window-x="-4"
     inkscape:window-y="-4">
    <inkscape:grid
       type="xygrid"
       id="grid4860"
       visible="true"
       enabled="true" />
  </sodipodi:namedview>
  <metadata
     id="metadata4855">
    <rdf:RDF>
      <cc:Work
         rdf:about="">
        <dc:format>image/svg+xml</dc:format>
        <dc:type
           rdf:resource="http://purl.org/dc/dcmitype/StillImage" />
      </cc:Work>
    </rdf:RDF>
  </metadata>
  <g
     id="layer1"
     inkscape:label="Layer 1"
     inkscape:groupmode="layer">
    <g
       id="g4881"
       transform="translate(-3.5502618,-6.758805)">
      <path
         sodipodi:nodetypes="cssscc"
         id="path3559"
         d="M 11.113151,29.758805 C 10.112257,29.758805 9.9907311,29.758805 9.3053975,29.758805 C 6.5429324,29.758805 3.5502618,24.830806 3.5502618,18.758805 C 3.5502618,12.686805 6.5429324,7.7588051 9.3053975,7.7588051 C 10.128738,7.7588051 10.112257,7.7588051 11.113151,7.7588051 C 11.113151,17.758805 11.113151,20.758805 11.113151,29.758805 z"
         style="fill:url(#linearGradient4891);fill-opacity:1;fill-rule:nonzero;stroke:none;stroke-width:0.57363141;stroke-miterlimit:4;stroke-opacity:1" />
      <path
         transform="matrix(0.6399498,0,0,1.1310271,2.7690587,4.9698593)"
         d="M 22.480306,12.191525 A 9.1563044,9.1563044 0 1 1 4.167697,12.191525 A 9.1563044,9.1563044 0 1 1 22.480306,12.191525 z"
         sodipodi:ry="9.1563044"
         sodipodi:rx="9.1563044"
         sodipodi:cy="12.191525"
         sodipodi:cx="13.324001"
         id="path2395"
         style="fill:#7fe1ff;fill-opacity:1;fill-rule:nonzero;stroke:url(#linearGradient4893);stroke-width:1.5;stroke-miterlimit:4;stroke-dasharray:none;stroke-opacity:1"
         sodipodi:type="arc" />
      <path
         transform="matrix(0.5868157,0,0,1.06384,4.261406,4.7050052)"
         d="M 20.207017,13.864919 A 7.356617,7.356617 0 1 1 5.493783,13.864919 A 7.356617,7.356617 0 1 1 20.207017,13.864919 z"
         sodipodi:ry="7.356617"
         sodipodi:rx="7.356617"
         sodipodi:cy="13.864919"
         sodipodi:cx="12.8504"
         id="path4641"
         style="fill:#42a5c9;fill-opacity:1;fill-rule:nonzero;stroke:none;stroke-width:0.5;stroke-miterlimit:4;stroke-dasharray:none;stroke-opacity:1"
         sodipodi:type="arc" />
      <path
         transform="matrix(0.3119749,-0.5892705,0.3211621,0.5724138,4.6778946,13.766472)"
         d="M 10.725712,6.1170263 A 5.0549564,1.7865229 0 1 1 0.61579943,6.1170263 A 5.0549564,1.7865229 0 1 1 10.725712,6.1170263 z"
         sodipodi:ry="1.7865229"
         sodipodi:rx="5.0549564"
         sodipodi:cy="6.1170263"
         sodipodi:cx="5.6707559"
         id="path4878"
         style="fill:#ffffff;fill-opacity:1;fill-rule:nonzero;stroke:none;stroke-width:0.58099997;stroke-miterlimit:4;stroke-dasharray:none;stroke-opacity:1"
         sodipodi:type="arc" />
      <path
         transform="matrix(0.454709,-0.7845447,0.417777,0.8110211,-5.2940189e-2,20.007428)"
         d="M 21.331295,14.259586 A 7.1390228,5.9515977 0 1 1 7.0532494,14.259586 A 7.1390228,5.9515977 0 1 1 21.331295,14.259586 z"
         sodipodi:ry="5.9515977"
         sodipodi:rx="7.1390228"
         sodipodi:cy="14.259586"
         sodipodi:cx="14.192272"
         id="path4645"
         style="fill:#7fe1ff;fill-opacity:1;fill-rule:nonzero;stroke:none;stroke-width:0.5;stroke-miterlimit:4;stroke-dasharray:none;stroke-opacity:1"
         sodipodi:type="arc" />
      <path
         sodipodi:type="arc"
         style="opacity:0.65740739;fill:none;fill-opacity:1;fill-rule:nonzero;stroke:url(#linearGradient4895);stroke-width:0.49996206;stroke-miterlimit:4;stroke-dasharray:none;stroke-opacity:1"
         id="path4625"
         sodipodi:cx="10.38767"
         sodipodi:cy="9.8866615"
         sodipodi:rx="7.9249392"
         sodipodi:ry="7.9249392"
         d="M 18.312609,9.8866615 A 7.9249392,7.9249392 0 1 1 2.4627304,9.8866615 A 7.9249392,7.9249392 0 1 1 18.312609,9.8866615 z"
         transform="matrix(0.6654362,0,0,1.2332639,4.3532235,6.5659427)" />
      <path
         transform="matrix(0.8596781,0.9159958,-0.6540163,1.5134581,9.2980113,-17.266782)"
         d="M 18.681998,15.595762 A 2.9268398,3.6230018 0 1 1 12.828319,15.595762 A 2.9268398,3.6230018 0 1 1 18.681998,15.595762 z"
         sodipodi:ry="3.6230018"
         sodipodi:rx="2.9268398"
         sodipodi:cy="15.595762"
         sodipodi:cx="15.755158"
         id="path4623"
         style="fill:#d2edf7;fill-opacity:1;fill-rule:nonzero;stroke:none;stroke-width:0.5;stroke-miterlimit:4;stroke-dasharray:none;stroke-opacity:1;filter:url(#filter4886)"
         sodipodi:type="arc" />
      <path
         sodipodi:type="arc"
         style="fill:#ffffff;fill-opacity:1;fill-rule:nonzero;stroke:none;stroke-width:0.58099997;stroke-miterlimit:4;stroke-dasharray:none;stroke-opacity:1"
         id="path4884"
         sodipodi:cx="5.6707559"
         sodipodi:cy="6.1170263"
         sodipodi:rx="5.0549564"
         sodipodi:ry="1.7865229"
         d="M 10.725712,6.1170263 A 5.0549564,1.7865229 0 1 1 0.61579943,6.1170263 A 5.0549564,1.7865229 0 1 1 10.725712,6.1170263 z"
         transform="matrix(0.2545787,-0.4233647,0.2620756,0.4112539,10.662378,22.748479)" />
    </g>
    <path
       style="opacity:1;fill:#686868;fill-opacity:1;fill-rule:nonzero;stroke:none;stroke-width:1;stroke-miterlimit:4;stroke-dasharray:none;stroke-opacity:1;filter:url(#filter5697)"
       d="M 6.2851316,4.5022642 C 5.3608523,4.5095153 5.0417227,4.733471 4.8421327,5.129205 C 4.4809194,5.8453949 4.5931353,6.9334332 5.6536623,8.4758662 C 6.5525013,9.7831389 6.8923538,10.018019 7.5521495,10.890723 C 5.7951325,10.896812 5.1355683,12.623999 5.1849123,13.348925 C 5.2522523,14.338217 6.2971747,15.263113 7.5963377,16.198497 C 8.4850957,17.158795 8.2713223,17.95365 8.9661623,19.036425 C 10.43202,21.32069 12.823073,22.73672 15.059912,24.192675 L 22.403662,19.880175 C 22.338688,17.053525 21.236204,13.514116 20.403662,11.786425 C 19.708251,10.339844 18.893619,9.0960882 18.153662,8.1926754 C 17.270023,7.1356959 16.259609,6.5616169 15.778662,6.7239254 C 15.447961,6.8355282 14.779216,7.056873 14.778662,7.8801754 C 14.301426,7.2991761 13.513677,6.7807022 12.903662,7.1614254 C 12.454221,7.4419307 12.360078,7.838586 12.622412,8.4739254 C 11.895406,7.335979 11.192144,7.2974282 10.591162,7.6926754 C 10.170061,7.9696199 9.9229193,8.3635847 10.059912,8.9739254 C 9.1079543,7.7039561 8.80227,6.0139003 7.910455,5.1875 C 7.296071,4.6181824 6.7731476,4.490179 6.2851316,4.5022642 z"
       id="path5089"
       sodipodi:nodetypes="csscscsccscscscscsc" />
    <g
       id="g5048"
       transform="matrix(0.5,0.8660253,-0.8660253,0.5,19.298512,-5.5296061)">
      <path
         style="opacity:1;fill:url(#linearGradient5065);fill-opacity:1;fill-rule:nonzero;stroke:url(#linearGradient5067);stroke-width:1;stroke-miterlimit:4;stroke-dasharray:none;stroke-opacity:1"
         d="M 11.915732,6.8593573 C 10.625408,6.9617927 9.7234964,7.6697742 9.7739943,8.305868 C 9.824492,8.9419629 10.242612,9.4122509 11.532936,9.3098156 L 15.958447,8.9584866 C 15.87699,8.2322988 16.049867,7.4633558 15.930788,6.6658957 C 14.067954,6.6343222 11.915732,6.8593573 11.915732,6.8593573 z"
         id="path4700"
         sodipodi:nodetypes="cscccc" />
      <path
         sodipodi:nodetypes="cscccc"
         id="path4696"
         d="M 10.018485,9.5430135 C 9.3860707,9.6659829 8.5188396,10.093594 8.5381734,10.786902 C 8.5575074,11.480217 9.0153043,11.699236 10.309187,11.663154 L 15.952019,11.505796 C 15.906168,10.712899 15.887802,10.165979 15.882331,9.0067739 C 15.882331,9.0067739 11.281423,9.2272788 10.018485,9.5430135 z"
         style="opacity:1;fill:url(#linearGradient5069);fill-opacity:1;fill-rule:nonzero;stroke:url(#linearGradient5071);stroke-width:1;stroke-miterlimit:4;stroke-dasharray:none;stroke-opacity:1" />
      <path
         style="opacity:1;fill:url(#linearGradient5073);fill-opacity:1;fill-rule:nonzero;stroke:url(#linearGradient5075);stroke-width:1;stroke-miterlimit:4;stroke-dasharray:none;stroke-opacity:1"
         d="M 9.4539622,11.628712 C 8.1612935,11.69536 7.8114164,12.281437 7.8471291,12.974101 C 7.8828417,13.666765 8.2900184,14.192042 9.5826871,14.125395 L 15.978295,13.795648 C 15.913719,13.004055 15.882433,12.457722 15.84957,11.298963 L 9.4539622,11.628712 z"
         id="path4692"
         sodipodi:nodetypes="cscccc" />
      <path
         style="opacity:1;fill:url(#linearGradient5077);fill-opacity:1;fill-rule:nonzero;stroke:url(#linearGradient5079);stroke-width:1;stroke-miterlimit:4;stroke-dasharray:none;stroke-opacity:1"
         d="M 11.044794,17.383219 C 9.307975,17.992173 9.2721673,19.909352 9.8952937,20.213935 C 10.745662,20.629594 11.298549,20.309114 12.700823,19.665936 C 13.991349,19.074013 16.066005,20.436827 18.140214,19.29772 C 17.474412,18.42489 16.638319,17.563612 15.899516,16.574901 C 15.899516,16.574901 13.479791,16.529475 11.044794,17.383219 z"
         id="path4704"
         sodipodi:nodetypes="cssccs" />
      <path
         sodipodi:nodetypes="cszccs"
         id="rect4159"
         d="M 4.5631961,14.811041 C 3.3342368,15.200751 2.7437153,15.556234 2.9777568,16.669057 C 3.1420626,17.4503 4.1438586,17.831841 5.9237514,17.399956 C 7.7106296,16.966376 16.015214,16.355934 16.015214,16.355934 C 15.940535,15.444919 15.902248,14.816211 15.85445,13.482856 C 15.85445,13.482856 8.2551535,13.6403 4.5631961,14.811041 z"
         style="opacity:1;fill:url(#linearGradient5081);fill-opacity:1;fill-rule:nonzero;stroke:url(#linearGradient5083);stroke-width:1;stroke-miterlimit:4;stroke-dasharray:none;stroke-opacity:1" />
      <path
         sodipodi:nodetypes="cccc"
         id="path4760"
         d="M 15.627512,19.734133 C 18.709403,20.017909 23.75466,17.078999 23.75466,17.078999 L 23.75466,8.8713062 C 23.75466,8.8713062 19.512756,6.6566761 15.672717,6.6566761"
         style="fill:url(#linearGradient5085);fill-opacity:1;fill-rule:evenodd;stroke:none;stroke-width:1;stroke-linecap:butt;stroke-linejoin:miter;stroke-miterlimit:4;stroke-dasharray:none;stroke-opacity:1" />
      <path
         style="fill:none;fill-opacity:1;fill-rule:evenodd;stroke:url(#linearGradient5087);stroke-width:1;stroke-linecap:butt;stroke-linejoin:miter;stroke-miterlimit:4;stroke-dasharray:none;stroke-opacity:1"
         d="M 15.532792,19.734133 C 18.614683,20.017909 23.65994,17.078999 23.65994,17.078999 L 23.65994,8.8713062 C 23.65994,8.8713062 19.418036,6.6566761 15.577997,6.6566761"
         id="path4838"
         sodipodi:nodetypes="cccc" />
    </g>
  </g>
</svg>
