<?xml version="1.0" encoding="UTF-8" standalone="no"?>
<!-- Created with Inkscape (http://www.inkscape.org/) -->
<svg
   xmlns:dc="http://purl.org/dc/elements/1.1/"
   xmlns:cc="http://creativecommons.org/ns#"
   xmlns:rdf="http://www.w3.org/1999/02/22-rdf-syntax-ns#"
   xmlns:svg="http://www.w3.org/2000/svg"
   xmlns="http://www.w3.org/2000/svg"
   xmlns:xlink="http://www.w3.org/1999/xlink"
   xmlns:sodipodi="http://sodipodi.sourceforge.net/DTD/sodipodi-0.dtd"
   xmlns:inkscape="http://www.inkscape.org/namespaces/inkscape"
   width="24"
   height="24"
   id="svg4986"
   sodipodi:version="0.32"
   inkscape:version="0.46"
   version="1.0"
   sodipodi:docname="lens_info.svg"
   inkscape:output_extension="org.inkscape.output.svg.inkscape"
   inkscape:export-filename="D:\user documents\_kolyan\rezonator2\img\elem_info_24.png"
   inkscape:export-xdpi="90"
   inkscape:export-ydpi="90">
  <defs
     id="defs4988">
    <linearGradient
       id="linearGradient3165">
      <stop
         style="stop-color:#92b1de;stop-opacity:1;"
         offset="0"
         id="stop3167" />
      <stop
         style="stop-color:#525f96;stop-opacity:1;"
         offset="1"
         id="stop2978" />
    </linearGradient>
    <linearGradient
       inkscape:collect="always"
       xlink:href="#linearGradient3165"
       id="linearGradient10618"
       gradientUnits="userSpaceOnUse"
       gradientTransform="matrix(1.0946961,0,0,1.0455526,4.021216,3.157379)"
       x1="16.453487"
       y1="2.6608078"
       x2="4.5930228"
       y2="16.978306" />
    <linearGradient
       id="linearGradient3157">
      <stop
         style="stop-color:#fdffff;stop-opacity:1;"
         offset="0"
         id="stop3159" />
      <stop
         style="stop-color:#b2d3fa;stop-opacity:1;"
         offset="1"
         id="stop3161" />
    </linearGradient>
    <linearGradient
       inkscape:collect="always"
       xlink:href="#linearGradient3157"
       id="linearGradient10616"
       gradientUnits="userSpaceOnUse"
       gradientTransform="matrix(1.0946961,0,0,1.0455526,4.021216,3.157379)"
       x1="4.5930228"
       y1="2.6608078"
       x2="16.453487"
       y2="16.978306" />
    <linearGradient
       id="linearGradient4718">
      <stop
         style="stop-color:#aa803b;stop-opacity:1;"
         offset="0"
         id="stop4720" />
      <stop
         style="stop-color:#ccb383;stop-opacity:1;"
         offset="1"
         id="stop4722" />
    </linearGradient>
    <linearGradient
       id="linearGradient4672">
      <stop
         style="stop-color:#ffe168;stop-opacity:1;"
         offset="0"
         id="stop4674" />
      <stop
         style="stop-color:#e4dcd4;stop-opacity:1;"
         offset="1"
         id="stop4676" />
    </linearGradient>
    <filter
       inkscape:collect="always"
       id="filter4886"
       x="-0.11544522"
       width="1.2308904"
       y="-0.12398467"
       height="1.2479693">
      <feGaussianBlur
         inkscape:collect="always"
         stdDeviation="0.33319131"
         id="feGaussianBlur4888" />
    </filter>
    <linearGradient
       inkscape:collect="always"
       xlink:href="#linearGradient3167"
       id="linearGradient4895"
       gradientUnits="userSpaceOnUse"
       x1="2.2127304"
       y1="9.8866615"
       x2="18.562609"
       y2="9.8866615" />
    <linearGradient
       id="linearGradient4613">
      <stop
         style="stop-color:#0e0f55;stop-opacity:1;"
         offset="0"
         id="stop4615" />
      <stop
         style="stop-color:#a5a6f1;stop-opacity:1;"
         offset="1"
         id="stop4617" />
    </linearGradient>
    <linearGradient
       inkscape:collect="always"
       xlink:href="#linearGradient4613"
       id="linearGradient4893"
       gradientUnits="userSpaceOnUse"
       x1="3.417697"
       y1="12.191525"
       x2="23.230306"
       y2="12.191525" />
    <linearGradient
       id="linearGradient3167">
      <stop
         style="stop-color:#0e0f55;stop-opacity:1;"
         offset="0"
         id="stop3169" />
      <stop
         style="stop-color:#6a6de8;stop-opacity:1;"
         offset="1"
         id="stop3171" />
    </linearGradient>
    <linearGradient
       inkscape:collect="always"
       xlink:href="#linearGradient3167"
       id="linearGradient4891"
       gradientUnits="userSpaceOnUse"
       gradientTransform="translate(2.8039461,6.7588051)"
       x1="0.74631572"
       y1="12"
       x2="8.3092041"
       y2="12" />
    <inkscape:perspective
       sodipodi:type="inkscape:persp3d"
       inkscape:vp_x="0 : 526.18109 : 1"
       inkscape:vp_y="0 : 1000 : 0"
       inkscape:vp_z="744.09448 : 526.18109 : 1"
       inkscape:persp3d-origin="372.04724 : 350.78739 : 1"
       id="perspective4994" />
  </defs>
  <sodipodi:namedview
     id="base"
     pagecolor="#ffffff"
     bordercolor="#666666"
     borderopacity="1.0"
     gridtolerance="10000"
     guidetolerance="10"
     objecttolerance="10"
     inkscape:pageopacity="0.0"
     inkscape:pageshadow="2"
     inkscape:zoom="23.458333"
     inkscape:cx="12"
     inkscape:cy="12"
     inkscape:document-units="px"
     inkscape:current-layer="layer1"
     showgrid="true"
     inkscape:window-width="1024"
     inkscape:window-height="719"
     inkscape:window-x="-4"
     inkscape:window-y="-4">
    <inkscape:grid
       type="xygrid"
       id="grid2983" />
  </sodipodi:namedview>
  <metadata
     id="metadata4991">
    <rdf:RDF>
      <cc:Work
         rdf:about="">
        <dc:format>image/svg+xml</dc:format>
        <dc:type
           rdf:resource="http://purl.org/dc/dcmitype/StillImage" />
      </cc:Work>
    </rdf:RDF>
  </metadata>
  <g
     inkscape:label="Layer 1"
     inkscape:groupmode="layer"
     id="layer1">
    <g
       id="g4881"
       transform="translate(-3.5502618,-6.758805)">
      <path
         sodipodi:nodetypes="cssscc"
         id="path3559"
         d="M 11.113151,29.758805 C 10.112257,29.758805 9.9907311,29.758805 9.3053975,29.758805 C 6.5429324,29.758805 3.5502618,24.830806 3.5502618,18.758805 C 3.5502618,12.686805 6.5429324,7.7588051 9.3053975,7.7588051 C 10.128738,7.7588051 10.112257,7.7588051 11.113151,7.7588051 C 11.113151,17.758805 11.113151,20.758805 11.113151,29.758805 z"
         style="fill:url(#linearGradient4891);fill-opacity:1;fill-rule:nonzero;stroke:none;stroke-width:0.57363141;stroke-miterlimit:4;stroke-opacity:1" />
      <path
         transform="matrix(0.6399498,0,0,1.1310271,2.7690587,4.9698593)"
         d="M 22.480306,12.191525 A 9.1563044,9.1563044 0 1 1 4.167697,12.191525 A 9.1563044,9.1563044 0 1 1 22.480306,12.191525 z"
         sodipodi:ry="9.1563044"
         sodipodi:rx="9.1563044"
         sodipodi:cy="12.191525"
         sodipodi:cx="13.324001"
         id="path2395"
         style="fill:#7fe1ff;fill-opacity:1;fill-rule:nonzero;stroke:url(#linearGradient4893);stroke-width:1.5;stroke-miterlimit:4;stroke-dasharray:none;stroke-opacity:1"
         sodipodi:type="arc" />
      <path
         transform="matrix(0.5868157,0,0,1.06384,4.261406,4.7050052)"
         d="M 20.207017,13.864919 A 7.356617,7.356617 0 1 1 5.493783,13.864919 A 7.356617,7.356617 0 1 1 20.207017,13.864919 z"
         sodipodi:ry="7.356617"
         sodipodi:rx="7.356617"
         sodipodi:cy="13.864919"
         sodipodi:cx="12.8504"
         id="path4641"
         style="fill:#42a5c9;fill-opacity:1;fill-rule:nonzero;stroke:none;stroke-width:0.5;stroke-miterlimit:4;stroke-dasharray:none;stroke-opacity:1"
         sodipodi:type="arc" />
      <path
         transform="matrix(0.3119749,-0.5892705,0.3211621,0.5724138,4.6778946,13.766472)"
         d="M 10.725712,6.1170263 A 5.0549564,1.7865229 0 1 1 0.61579943,6.1170263 A 5.0549564,1.7865229 0 1 1 10.725712,6.1170263 z"
         sodipodi:ry="1.7865229"
         sodipodi:rx="5.0549564"
         sodipodi:cy="6.1170263"
         sodipodi:cx="5.6707559"
         id="path4878"
         style="fill:#ffffff;fill-opacity:1;fill-rule:nonzero;stroke:none;stroke-width:0.58099997;stroke-miterlimit:4;stroke-dasharray:none;stroke-opacity:1"
         sodipodi:type="arc" />
      <path
         transform="matrix(0.454709,-0.7845447,0.417777,0.8110211,-5.2940189e-2,20.007428)"
         d="M 21.331295,14.259586 A 7.1390228,5.9515977 0 1 1 7.0532494,14.259586 A 7.1390228,5.9515977 0 1 1 21.331295,14.259586 z"
         sodipodi:ry="5.9515977"
         sodipodi:rx="7.1390228"
         sodipodi:cy="14.259586"
         sodipodi:cx="14.192272"
         id="path4645"
         style="fill:#7fe1ff;fill-opacity:1;fill-rule:nonzero;stroke:none;stroke-width:0.5;stroke-miterlimit:4;stroke-dasharray:none;stroke-opacity:1"
         sodipodi:type="arc" />
      <path
         sodipodi:type="arc"
         style="opacity:0.65740739;fill:none;fill-opacity:1;fill-rule:nonzero;stroke:url(#linearGradient4895);stroke-width:0.49996206;stroke-miterlimit:4;stroke-dasharray:none;stroke-opacity:1"
         id="path4625"
         sodipodi:cx="10.38767"
         sodipodi:cy="9.8866615"
         sodipodi:rx="7.9249392"
         sodipodi:ry="7.9249392"
         d="M 18.312609,9.8866615 A 7.9249392,7.9249392 0 1 1 2.4627304,9.8866615 A 7.9249392,7.9249392 0 1 1 18.312609,9.8866615 z"
         transform="matrix(0.6654362,0,0,1.2332639,4.3532235,6.5659427)" />
      <path
         transform="matrix(0.8596781,0.9159958,-0.6540163,1.5134581,9.2980113,-17.266782)"
         d="M 18.681998,15.595762 A 2.9268398,3.6230018 0 1 1 12.828319,15.595762 A 2.9268398,3.6230018 0 1 1 18.681998,15.595762 z"
         sodipodi:ry="3.6230018"
         sodipodi:rx="2.9268398"
         sodipodi:cy="15.595762"
         sodipodi:cx="15.755158"
         id="path4623"
         style="fill:#d2edf7;fill-opacity:1;fill-rule:nonzero;stroke:none;stroke-width:0.5;stroke-miterlimit:4;stroke-dasharray:none;stroke-opacity:1;filter:url(#filter4886)"
         sodipodi:type="arc" />
      <path
         sodipodi:type="arc"
         style="fill:#ffffff;fill-opacity:1;fill-rule:nonzero;stroke:none;stroke-width:0.58099997;stroke-miterlimit:4;stroke-dasharray:none;stroke-opacity:1"
         id="path4884"
         sodipodi:cx="5.6707559"
         sodipodi:cy="6.1170263"
         sodipodi:rx="5.0549564"
         sodipodi:ry="1.7865229"
         d="M 10.725712,6.1170263 A 5.0549564,1.7865229 0 1 1 0.61579943,6.1170263 A 5.0549564,1.7865229 0 1 1 10.725712,6.1170263 z"
         transform="matrix(0.2545787,-0.4233647,0.2620756,0.4112539,10.662378,22.748479)" />
    </g>
    <path
       transform="matrix(0.715178,0,0,1.1691068,-13.458065,1.2904292)"
       style="fill:#ffffff;fill-opacity:0.50588238;fill-rule:nonzero;stroke:none;stroke-width:1;stroke-miterlimit:4;stroke-opacity:1"
       d="M 38.810571,9.1604726 C 38.810571,13.481394 35.596823,18.569365 30.00381,18.569365 C 29.014607,18.569365 28.115237,18.569365 27.207304,18.569365 C 21.804453,18.569365 18.817784,14.35418 18.817784,9.1604719 C 18.817784,3.9667637 20.216036,-0.2484197 27.207304,-0.24841973 C 28.04446,-0.24841974 29.062416,-0.24841973 30.00381,-0.24841973 C 35.596823,-0.24841973 38.810571,4.727053 38.810571,9.1604726 z"
       id="path5869"
       sodipodi:nodetypes="csssssc" />
    <g
       id="g2985">
      <path
         style="fill:url(#linearGradient10616);fill-opacity:1;fill-rule:evenodd;stroke:url(#linearGradient10618);stroke-width:1.20000017;stroke-linecap:round;stroke-linejoin:round;stroke-miterlimit:4;stroke-dasharray:none;stroke-dashoffset:21.44399795;stroke-opacity:1"
         d="M 21.600001,6.3999999 L 21.600001,21.6 L 8.4,21.6 L 8.4,6.3999999 L 21.600001,6.3999999 z"
         id="path10614"
         sodipodi:nodetypes="ccccc" />
      <path
         transform="translate(-2.0000004,-3.0000018)"
         d="M 19,12.5 A 1.5,1.5 0 1 1 16,12.5 A 1.5,1.5 0 1 1 19,12.5 z"
         sodipodi:ry="1.5"
         sodipodi:rx="1.5"
         sodipodi:cy="12.5"
         sodipodi:cx="17.5"
         id="path10620"
         style="opacity:1;fill:#158110;fill-opacity:1;fill-rule:evenodd;stroke:none;stroke-width:0.5;stroke-linecap:round;stroke-linejoin:round;stroke-miterlimit:4;stroke-dasharray:none;stroke-dashoffset:21.44399795;stroke-opacity:1"
         sodipodi:type="arc" />
      <path
         sodipodi:nodetypes="cccccccccccccccc"
         id="text11137"
         d="M 18.64323,19.269755 C 18.22102,19.244429 17.807716,19.153524 17.390817,19.092129 C 16.904181,18.973747 16.840713,18.622422 16.84629,18.440831 L 16.819064,11.671284 C 15.204463,12.057509 14.217525,12.158943 12.898469,12.263373 C 12.616861,12.366565 12.656179,12.768138 12.73511,12.875198 C 13.2219,13.019644 13.707904,13.224713 14.178108,13.427814 C 14.384601,13.530146 14.420132,13.674355 14.423145,13.862012 C 14.432191,15.395614 14.434719,16.928945 14.368692,18.460568 C 14.293243,18.887568 14.126641,18.99074 13.878618,19.072392 C 13.47826,19.18433 13.062382,19.209178 12.653432,19.269755 C 12.360857,19.488418 12.673477,19.85099 12.680658,20.059206 C 13.615379,20.032222 14.549928,20.010947 15.484982,19.999998 C 16.492763,19.995875 17.499978,20.029709 18.507115,20.059207 C 18.792216,19.874742 18.604111,19.496642 18.64323,19.269755 L 18.64323,19.269755 z"
         style="font-size:23.18104935px;font-style:normal;font-variant:normal;font-weight:normal;font-stretch:normal;text-align:start;line-height:125%;writing-mode:lr-tb;text-anchor:start;fill:#158110;fill-opacity:1;stroke:none;stroke-width:1px;stroke-linecap:butt;stroke-linejoin:miter;stroke-opacity:1;font-family:Arno Pro Caption;-inkscape-font-specification:Arno Pro Caption" />
    </g>
  </g>
</svg>
