<?xml version="1.0" encoding="UTF-8" standalone="no"?>
<!-- Created with Inkscape (http://www.inkscape.org/) -->

<svg
   xmlns:dc="http://purl.org/dc/elements/1.1/"
   xmlns:cc="http://creativecommons.org/ns#"
   xmlns:rdf="http://www.w3.org/1999/02/22-rdf-syntax-ns#"
   xmlns:svg="http://www.w3.org/2000/svg"
   xmlns="http://www.w3.org/2000/svg"
   xmlns:xlink="http://www.w3.org/1999/xlink"
   xmlns:sodipodi="http://sodipodi.sourceforge.net/DTD/sodipodi-0.dtd"
   xmlns:inkscape="http://www.inkscape.org/namespaces/inkscape"
   width="24"
   height="24"
   id="svg4976"
   version="1.1"
   inkscape:version="0.48.2 r9819"
   sodipodi:docname="opts_gear_24.svg"
   inkscape:export-filename="L:\projects\rezonator2\img\opts_gears_24.png"
   inkscape:export-xdpi="90"
   inkscape:export-ydpi="90">
  <defs
     id="defs4978">
    <linearGradient
       id="linearGradient5551">
      <stop
         id="stop5553"
         offset="0"
         style="stop-color:#123761;stop-opacity:1;" />
      <stop
         id="stop5555"
         offset="1"
         style="stop-color:#6a93c3;stop-opacity:1" />
    </linearGradient>
    <linearGradient
       inkscape:collect="always"
       xlink:href="#linearGradient3886"
       id="linearGradient3972"
       x1="17.907984"
       y1="26.90328"
       x2="5.176621"
       y2="14.50869"
       gradientUnits="userSpaceOnUse"
       gradientTransform="matrix(1.4308158,0,0,1.4286485,-0.45438068,1007.0527)" />
    <linearGradient
       id="linearGradient3886">
      <stop
         id="stop3888"
         offset="0"
         style="stop-color:#9baec0;stop-opacity:1;" />
      <stop
         style="stop-color:#d5e4f3;stop-opacity:1;"
         offset="0.5"
         id="stop3890" />
      <stop
         id="stop3892"
         offset="1"
         style="stop-color:#8ba1b6;stop-opacity:1;" />
    </linearGradient>
    <linearGradient
       inkscape:collect="always"
       xlink:href="#linearGradient3812"
       id="linearGradient4883"
       x1="8.0797501"
       y1="1030.4064"
       x2="20.098101"
       y2="1049.9078"
       gradientUnits="userSpaceOnUse"
       gradientTransform="matrix(1.1352198,0,0,1.1335003,1.0864779,-141.57741)" />
    <linearGradient
       id="linearGradient3812">
      <stop
         style="stop-color:#123761;stop-opacity:1;"
         offset="0"
         id="stop3814" />
      <stop
         style="stop-color:#6a93c3;stop-opacity:1;"
         offset="1"
         id="stop3816" />
    </linearGradient>
    <linearGradient
       y2="17.633881"
       x2="8.3879633"
       y1="23.626383"
       x1="14.484571"
       gradientTransform="matrix(1.1214502,0,0,1.1197516,-0.89667655,1017.3899)"
       gradientUnits="userSpaceOnUse"
       id="linearGradient5004"
       xlink:href="#linearGradient3886"
       inkscape:collect="always" />
    <linearGradient
       y2="1024.2091"
       x2="2.7624407"
       y1="1049.0686"
       x1="23.162539"
       gradientTransform="matrix(0.88976686,0,0,0.88841918,0.3110234,117.11226)"
       gradientUnits="userSpaceOnUse"
       id="linearGradient5006"
       xlink:href="#linearGradient5551"
       inkscape:collect="always" />
  </defs>
  <sodipodi:namedview
     id="base"
     pagecolor="#ffffff"
     bordercolor="#666666"
     borderopacity="1.0"
     inkscape:pageopacity="0.0"
     inkscape:pageshadow="2"
     inkscape:zoom="29.43332"
     inkscape:cx="11.375244"
     inkscape:cy="11.783587"
     inkscape:document-units="px"
     inkscape:current-layer="layer1"
     showgrid="false"
     inkscape:window-width="1920"
     inkscape:window-height="1138"
     inkscape:window-x="-8"
     inkscape:window-y="-8"
     inkscape:window-maximized="1" />
  <metadata
     id="metadata4981">
    <rdf:RDF>
      <cc:Work
         rdf:about="">
        <dc:format>image/svg+xml</dc:format>
        <dc:type
           rdf:resource="http://purl.org/dc/dcmitype/StillImage" />
        <dc:title></dc:title>
      </cc:Work>
    </rdf:RDF>
  </metadata>
  <g
     inkscape:label="Layer 1"
     inkscape:groupmode="layer"
     id="layer1"
     transform="translate(0,-1028.3622)">
    <path
       style="fill:url(#linearGradient5004);fill-opacity:1;stroke:url(#linearGradient5006);stroke-width:0.6;stroke-miterlimit:4;stroke-opacity:1;stroke-dasharray:none;stroke-linejoin:round"
       d="m 14.242901,1028.7622 -0.981269,2.3446 c -0.844712,-0.1086 -1.705852,-0.1179 -2.523264,0 l -0.9812671,-2.3096 -1.6471318,0.4549 0.3504549,2.4846 c -0.7706876,0.3197 -1.5113842,0.75 -2.1728107,1.2597 l -2.0326284,-1.5398 -1.1915406,1.2247 1.5419939,1.9596 c -0.5048488,0.6482 -0.9360409,1.3849 -1.2616315,2.1695 l -2.48821742,-0.3149 -0.45558904,1.6796 2.31299076,0.9449 c -0.1159826,0.8635 -0.079294,1.7226 0.035046,2.5545 l -2.34803688,0.9098 0.45558905,1.6446 2.45317213,-0.2801 c 0.3232248,0.7841 0.7742376,1.5014 1.2966767,2.1696 l -1.5419937,1.9597 1.1915406,1.2248 2.0326284,-1.5049 c 0.6515232,0.4981 1.3507889,0.9389 2.1377643,1.2598 l -0.2803626,2.4492 1.6821756,0.4201 0.9111774,-2.2745 c 0.861561,0.1214 1.69122,0.1121 2.523264,0 l 0.911178,2.3096 1.682175,-0.4552 -0.315407,-2.4492 c 0.794316,-0.3223 1.565461,-0.7341 2.2429,-1.2598 l 1.892447,1.5049 1.226586,-1.2248 -1.471901,-1.9597 c 0.517806,-0.6677 0.969126,-1.4271 1.296674,-2.2395 l 2.418129,0.385 0.455588,-1.6796 -2.312991,-0.9449 c 0.108197,-0.8447 0.111406,-1.7035 0,-2.5194 l 2.277945,-0.9449 -0.455589,-1.6796 -2.383082,0.3502 c -0.322807,-0.7867 -0.774494,-1.5338 -1.296674,-2.2048 l 1.471901,-1.9944 -1.226586,-1.1899 -1.927491,1.5398 c -0.669597,-0.5177 -1.394167,-0.9669 -2.207856,-1.2949 l 0.385498,-2.4842 -1.682175,-0.4551 z m -2.488218,4.794 c 0.358248,-0.014 0.725043,-0.014 1.086406,0.034 l -0.735952,2.7993 c -1.482236,-0.035 -2.853682,0.7711 -3.5746231,2.0647 l -2.7685801,-0.7699 c 1.0553344,-2.423 3.4085492,-4.0243 5.9927492,-4.1289 z m 2.943808,0.5601 c 2.778286,1.1817 4.425309,4.0692 4.065256,7.0682 l -2.733536,-0.7347 c 0.02136,-1.4835 -0.792513,-2.8635 -2.102718,-3.5693 l 0.770998,-2.7642 z m -2.593354,4.6539 c 0.10541,0 0.209593,0.04 0.315406,0.069 0.846516,0.2266 1.34852,1.1134 1.121452,1.9596 -0.227069,0.8461 -1.080978,1.3463 -1.927493,1.1197 -0.846514,-0.2263 -1.348518,-1.0784 -1.12145,-1.9244 0.198684,-0.7405 0.874145,-1.2632 1.612085,-1.2248 z m -6.868883,0.7696 2.7685807,0.7349 c -0.048908,1.5009 0.751807,2.9175 2.0676743,3.6393 l -0.7359523,2.7294 c -2.8048243,-1.1867 -4.4909697,-4.0835 -4.1003027,-7.1036 z m 10.303324,2.7646 2.733535,0.7346 c -1.174234,2.7983 -4.066843,4.462 -7.079155,4.0943 l 0.73595,-2.7294 c 1.498535,0.034 2.896452,-0.7802 3.60967,-2.0995 z"
       id="path2996"
       inkscape:connector-curvature="0" />
  </g>
</svg>
