<?xml version="1.0" encoding="UTF-8" standalone="no"?>
<!-- Created with Inkscape (http://www.inkscape.org/) -->

<svg
   xmlns:dc="http://purl.org/dc/elements/1.1/"
   xmlns:cc="http://creativecommons.org/ns#"
   xmlns:rdf="http://www.w3.org/1999/02/22-rdf-syntax-ns#"
   xmlns:svg="http://www.w3.org/2000/svg"
   xmlns="http://www.w3.org/2000/svg"
   xmlns:xlink="http://www.w3.org/1999/xlink"
   xmlns:sodipodi="http://sodipodi.sourceforge.net/DTD/sodipodi-0.dtd"
   xmlns:inkscape="http://www.inkscape.org/namespaces/inkscape"
   width="128"
   height="128"
   id="svg3802"
   version="1.1"
   inkscape:version="0.48.1 "
   sodipodi:docname="tree_questions.svg"
   inkscape:export-filename="D:\Projects0\rezonator2\orion\test\img\reset_all_24.png"
   inkscape:export-xdpi="16.879999"
   inkscape:export-ydpi="16.879999">
  <defs
     id="defs3804">
    <linearGradient
       id="linearGradient4341">
      <stop
         style="stop-color:#dfdfdf;stop-opacity:1;"
         offset="0"
         id="stop4343" />
      <stop
         style="stop-color:#898989;stop-opacity:1;"
         offset="1"
         id="stop4345" />
    </linearGradient>
    <radialGradient
       inkscape:collect="always"
       xlink:href="#linearGradient4341"
       id="radialGradient4347"
       cx="47.46109"
       cy="19.96542"
       fx="47.46109"
       fy="19.96542"
       r="59.238617"
       gradientUnits="userSpaceOnUse"
       gradientTransform="matrix(-0.02830081,1.5603195,-1.0785206,-0.01956202,99.350611,-41.462105)" />
    <radialGradient
       inkscape:collect="always"
       xlink:href="#linearGradient4341"
       id="radialGradient4606"
       gradientUnits="userSpaceOnUse"
       gradientTransform="matrix(-0.02830081,1.5603195,-1.0785206,-0.01956202,99.350611,-41.462105)"
       cx="47.46109"
       cy="19.96542"
       fx="47.46109"
       fy="19.96542"
       r="59.238617" />
  </defs>
  <sodipodi:namedview
     id="base"
     pagecolor="#ffffff"
     bordercolor="#666666"
     borderopacity="1.0"
     inkscape:pageopacity="0.0"
     inkscape:pageshadow="2"
     inkscape:zoom="4.2890625"
     inkscape:cx="82.780513"
     inkscape:cy="66.894531"
     inkscape:document-units="px"
     inkscape:current-layer="layer1"
     showgrid="false"
     inkscape:window-width="1920"
     inkscape:window-height="1018"
     inkscape:window-x="-8"
     inkscape:window-y="-8"
     inkscape:window-maximized="1" />
  <metadata
     id="metadata3807">
    <rdf:RDF>
      <cc:Work
         rdf:about="">
        <dc:format>image/svg+xml</dc:format>
        <dc:type
           rdf:resource="http://purl.org/dc/dcmitype/StillImage" />
        <dc:title></dc:title>
      </cc:Work>
    </rdf:RDF>
  </metadata>
  <g
     inkscape:label="Layer 1"
     inkscape:groupmode="layer"
     id="layer1"
     transform="translate(0,-924.36218)">
    <path
       sodipodi:type="arc"
       style="fill:url(#radialGradient4347);fill-opacity:1;stroke:none"
       id="path3831"
       sodipodi:cx="77.289619"
       sodipodi:cy="78.688522"
       sodipodi:rx="57.238617"
       sodipodi:ry="57.238617"
       d="m 134.52824,78.688522 a 57.238617,57.238617 0 1 1 -114.477237,0 57.238617,57.238617 0 1 1 114.477237,0 z"
       transform="matrix(0.54563912,0,0,0.54563912,-6.4199651,917.44851)" />
    <g
       transform="matrix(0.54781491,0,0,0.54792667,0.6885459,418.88929)"
       style="font-size:116.17317963px;font-style:normal;font-variant:normal;font-weight:bold;font-stretch:normal;text-align:start;line-height:125%;letter-spacing:0px;word-spacing:0px;writing-mode:lr-tb;text-anchor:start;fill:#ffffff;fill-opacity:1;stroke:#ffffff;stroke-width:1.82524788;stroke-miterlimit:4;stroke-opacity:1;stroke-dasharray:none;font-family:Sans;-inkscape-font-specification:Sans Bold"
       id="text3790">
      <path
         d="m 68.299919,1007.8313 -14.464922,0 c -1.525677,-20.59764 11.593213,-21.90807 19.910536,-33.01404 7.287106,-9.73034 -3.813538,-17.26541 -11.628663,-17.41463 -8.93015,0.0336 -14.149179,6.81141 -15.769602,14.01112 L 31.71217,969.59854 c 2.335018,-16.38801 15.656037,-24.54065 29.723997,-24.3351 15.007662,0.40259 29.656924,6.99373 29.950898,23.8813 0.29653,17.03439 -23.144853,22.79996 -23.087146,38.68656 z m -14.464922,21.4421 0,-15.9397 15.939777,0 0,15.9397 z"
         id="path3821"
         inkscape:connector-curvature="0"
         sodipodi:nodetypes="ccsccccscccccc"
         style="stroke:#ffffff;stroke-width:1.82524788;stroke-miterlimit:4;stroke-opacity:1;stroke-dasharray:none" />
    </g>
    <path
       transform="matrix(0.54563912,0,0,0.54563912,48.640144,973.17164)"
       d="m 134.52824,78.688522 a 57.238617,57.238617 0 1 1 -114.477237,0 57.238617,57.238617 0 1 1 114.477237,0 z"
       sodipodi:ry="57.238617"
       sodipodi:rx="57.238617"
       sodipodi:cy="78.688522"
       sodipodi:cx="77.289619"
       id="path4600"
       style="fill:url(#radialGradient4606);fill-opacity:1;stroke:none"
       sodipodi:type="arc" />
    <g
       id="g4602"
       style="font-size:116.17317963px;font-style:normal;font-variant:normal;font-weight:bold;font-stretch:normal;text-align:start;line-height:125%;letter-spacing:0px;word-spacing:0px;writing-mode:lr-tb;text-anchor:start;fill:#ffffff;fill-opacity:1;stroke:#ffffff;stroke-width:1.82524788;stroke-miterlimit:4;stroke-opacity:1;stroke-dasharray:none;font-family:Sans;-inkscape-font-specification:Sans Bold"
       transform="matrix(0.54781491,0,0,0.54792667,55.748655,474.61242)">
      <path
         style="stroke:#ffffff;stroke-width:1.82524788;stroke-miterlimit:4;stroke-opacity:1;stroke-dasharray:none"
         sodipodi:nodetypes="ccsccccscccccc"
         inkscape:connector-curvature="0"
         id="path4604"
         d="m 68.299919,1007.8313 -14.464922,0 c -1.525677,-20.59764 11.593213,-21.90807 19.910536,-33.01404 7.287106,-9.73034 -3.813538,-17.26541 -11.628663,-17.41463 -8.93015,0.0336 -14.149179,6.81141 -15.769602,14.01112 L 31.71217,969.59854 c 2.335018,-16.38801 15.656037,-24.54065 29.723997,-24.3351 15.007662,0.40259 29.656924,6.99373 29.950898,23.8813 0.29653,17.03439 -23.144853,22.79996 -23.087146,38.68656 z m -14.464922,21.4421 0,-15.9397 15.939777,0 0,15.9397 z" />
    </g>
    <path
       style="fill:none;stroke:#000000;stroke-width:4.62193012px;stroke-linecap:butt;stroke-linejoin:miter;stroke-opacity:0.49484534"
       d="m 37.335108,1017.6917 25.47459,0"
       id="path3976"
       inkscape:connector-curvature="0"
       sodipodi:nodetypes="cc" />
    <path
       sodipodi:nodetypes="cc"
       inkscape:connector-curvature="0"
       id="path3982"
       d="m 35.113799,986.82533 0,92.37067"
       style="fill:none;stroke:#000000;stroke-width:4.62193012px;stroke-linecap:butt;stroke-linejoin:miter;stroke-opacity:0.49484534" />
  </g>
</svg>
