<svg height="256" width="256" xmlns="http://www.w3.org/2000/svg" xmlns:xlink="http://www.w3.org/1999/xlink">
  <linearGradient gradientTransform="matrix(27.479575 0 0 23.357641 -88.049938 -277.49072)" gradientUnits="userSpaceOnUse" x1="20.515984" x2="15.138612" y1="8.76923" y2="2.269732">
    <stop offset="0" stop-color="#92b1de"/>
    <stop offset="1" stop-color="#7380b2"/>
  </linearGradient>
  <linearGradient id="a" gradientUnits="userSpaceOnUse" x1="21.05571423836" x2="231.333025862" y1="23.2733190272" y2="235.73608700828">
    <stop offset="0" stop-color="#fdffff"/>
    <stop offset="1" stop-color="#cfcfff"/>
  </linearGradient>
  <linearGradient id="b" gradientUnits="userSpaceOnUse" x1="21.05571423836" x2="231.333025862" y1="23.2733190272" y2="235.73608700828">
    <stop offset="0" stop-color="#a4c8f0"/>
    <stop offset="1" stop-color="#737ba6"/>
  </linearGradient>
  <linearGradient id="c" gradientUnits="userSpaceOnUse" x1=".746316" x2="8.309204" xlink:href="#d" y1="12" y2="12"/>
  <linearGradient id="d">
    <stop offset="0" stop-color="#0e0f55"/>
    <stop offset="1" stop-color="#6a6de8"/>
  </linearGradient>
  <linearGradient id="e" gradientUnits="userSpaceOnUse" x1="3.417697" x2="23.230307" y1="12.191525" y2="12.191525">
    <stop offset="0" stop-color="#0e0f55"/>
    <stop offset="1" stop-color="#a5a6f1"/>
  </linearGradient>
  <linearGradient id="f" gradientUnits="userSpaceOnUse" x1="2.21273" x2="18.562609" xlink:href="#d" y1="9.886662" y2="9.886662"/>
  <filter id="g" color-interpolation-filters="sRGB" height="1.247969" width="1.23089" x="-.115445" y="-.123985">
    <feGaussianBlur stdDeviation=".33319131"/>
  </filter>
  <rect fill="url(#a)" height="250.99998" ry="26.829721" stroke="url(#b)" stroke-width="5" width="250.99998" x="2.5" y="2.500016"/>
  <path d="m334.05217-233.10887v157.30237h129.88456" fill="none"/>
  <g transform="matrix(8.8130154 0 0 8.8130154 58.660212 22.243815)">
    <path d="m8.3092044 23c-1.0008932 0-1.1224194 0-1.807753 0-2.7624651 0-5.75513568-4.927999-5.75513568-11 0-6.072 2.99267058-11 5.75513568-11h1.807753z" fill="url(#c)"/>
    <path d="m22.480306 12.191525a9.1563044 9.1563044 0 1 1 -18.312609 0 9.1563044 9.1563044 0 1 1 18.312609 0z" fill="#7fe1ff" stroke="url(#e)" stroke-width="1.5" transform="matrix(.6399498 0 0 1.1310271 -.034887 -1.788946)"/>
    <path d="m20.207017 13.864919a7.356617 7.356617 0 1 1 -14.713234 0 7.356617 7.356617 0 1 1 14.713234 0z" fill="#42a5c9" transform="matrix(.5868157 0 0 1.06384 1.45746 -2.0538)"/>
    <path d="m10.725712 6.1170263a5.0549564 1.7865229 0 1 1 -10.10991257 0 5.0549564 1.7865229 0 1 1 10.10991257 0z" fill="#fff" transform="matrix(.3119749 -.5892705 .3211621 .5724138 1.873949 7.007667)"/>
    <path d="m21.331295 14.259586a7.1390228 5.9515977 0 1 1 -14.2780456 0 7.1390228 5.9515977 0 1 1 14.2780456 0z" fill="#7fe1ff" transform="matrix(.454709 -.7845447 .417777 .8110211 -2.856886 13.248623)"/>
    <path d="m18.312609 9.8866615a7.9249392 7.9249392 0 1 1 -15.8498786 0 7.9249392 7.9249392 0 1 1 15.8498786 0z" fill="none" opacity=".657407" stroke="url(#f)" stroke-width=".499962" transform="matrix(.6654362 0 0 1.2332639 1.549277 -.192862)"/>
    <path d="m18.681998 15.595762a2.9268398 3.6230018 0 1 1 -5.853679 0 2.9268398 3.6230018 0 1 1 5.853679 0z" fill="#d2edf7" filter="url(#g)" transform="matrix(.8596781 .9159958 -.6540163 1.5134581 6.494065 -24.025587)"/>
    <path d="m10.725712 6.1170263a5.0549564 1.7865229 0 1 1 -10.10991257 0 5.0549564 1.7865229 0 1 1 10.10991257 0z" fill="#fff" transform="matrix(.2545787 -.4233647 .2620756 .4112539 7.858432 15.989674)"/>
  </g>
</svg>
