<?xml version="1.0" encoding="UTF-8" standalone="no"?>
<svg
   xmlns:dc="http://purl.org/dc/elements/1.1/"
   xmlns:cc="http://creativecommons.org/ns#"
   xmlns:rdf="http://www.w3.org/1999/02/22-rdf-syntax-ns#"
   xmlns:svg="http://www.w3.org/2000/svg"
   xmlns="http://www.w3.org/2000/svg"
   xmlns:xlink="http://www.w3.org/1999/xlink"
   xmlns:sodipodi="http://sodipodi.sourceforge.net/DTD/sodipodi-0.dtd"
   xmlns:inkscape="http://www.inkscape.org/namespaces/inkscape"
   height="256"
   width="256"
   version="1.1"
   id="svg899"
   sodipodi:docname="help_256.svg"
   inkscape:version="0.92.3 (2405546, 2018-03-11)"
   inkscape:export-filename="G:\Projects\rezonator2\img\icon\help_256.png"
   inkscape:export-xdpi="96"
   inkscape:export-ydpi="96">
  <metadata
     id="metadata905">
    <rdf:RDF>
      <cc:Work
         rdf:about="">
        <dc:format>image/svg+xml</dc:format>
        <dc:type
           rdf:resource="http://purl.org/dc/dcmitype/StillImage" />
        <dc:title />
      </cc:Work>
    </rdf:RDF>
  </metadata>
  <defs
     id="defs903">
    <radialGradient
       id="a-9"
       cx="11.568233"
       cy="3.467792"
       gradientTransform="matrix(-1.394357,0,0,-0.96218181,353.92475,109.85341)"
       gradientUnits="userSpaceOnUse"
       r="10.087649">
      <stop
         offset="0"
         stop-color="#93edb4"
         id="stop1160" />
      <stop
         offset="1"
         stop-color="#31a181"
         id="stop1162" />
    </radialGradient>
    <linearGradient
       gradientTransform="translate(325.92,100.03722)"
       id="b-1"
       gradientUnits="userSpaceOnUse"
       x1="13.90909"
       x2="13.670454"
       y1="22.49921"
       y2="1.8571661">
      <stop
         offset="0"
         stop-color="#2d6857"
         id="stop1165" />
      <stop
         offset="1"
         stop-color="#38b792"
         id="stop1167" />
    </linearGradient>
  </defs>
  <sodipodi:namedview
     pagecolor="#ffffff"
     bordercolor="#666666"
     borderopacity="1"
     objecttolerance="10"
     gridtolerance="10"
     guidetolerance="10"
     inkscape:pageopacity="0"
     inkscape:pageshadow="2"
     inkscape:window-width="1920"
     inkscape:window-height="1137"
     id="namedview901"
     showgrid="false"
     inkscape:zoom="1.6601563"
     inkscape:cx="154.37865"
     inkscape:cy="205.96243"
     inkscape:window-x="-8"
     inkscape:window-y="-8"
     inkscape:window-maximized="1"
     inkscape:current-layer="svg899" />
  <linearGradient
     id="a">
    <stop
       offset="0"
       stop-color="#a4c8f0"
       id="stop861" />
    <stop
       offset="1"
       stop-color="#737ba6"
       id="stop863" />
  </linearGradient>
  <linearGradient
     id="b"
     gradientTransform="matrix(.56229356 0 0 .51132301 -165.96851 19.789748)"
     gradientUnits="userSpaceOnUse"
     x1="326.68332"
     x2="721.24884"
     y1="-5.248622"
     y2="429.62204">
    <stop
       offset="0"
       stop-color="#fdffff"
       id="stop866" />
    <stop
       offset="1"
       stop-color="#cfcfff"
       id="stop868" />
  </linearGradient>
  <linearGradient
     id="c"
     gradientTransform="matrix(.56229356 0 0 .51132301 -165.96851 19.789748)"
     gradientUnits="userSpaceOnUse"
     x1="376.13055"
     x2="644.93158"
     xlink:href="#a"
     y1="-15.148117"
     y2="440.22864" />
  <linearGradient
     id="d"
     gradientTransform="matrix(7.5377222,0,0,7.5377284,-93.265534,-20.08122)"
     gradientUnits="userSpaceOnUse"
     x1="35.304111"
     x2="34.668869"
     xlink:href="#b-1"
     y1="22.786043"
     y2="3.0755675" />
  <path
     d="M 29.110092,2.5000097 H 189.09101 l 64.409,64.6250793 V 227.10599 c 0,14.67853 -11.41828,26.39401 -26.0968,26.39401 H 29.110092 C 14.431563,253.5 2.5,241.56844 2.5,226.88991 V 28.596807 C 2.5,13.918284 14.431563,2.5000097 29.110092,2.5000097 Z"
     id="path873"
     inkscape:connector-curvature="0"
     style="fill:url(#b);stroke:url(#c);stroke-width:5"
     sodipodi:nodetypes="sccssssss" />
  <path
     style="fill:#ff0000;fill-opacity:0.822222;fill-rule:evenodd"
     inkscape:connector-curvature="0"
     id="path875"
     d="M 125.68476,127.37872 172.67377,64 H 45 V 40 H 217.81835 V 68.614535 L 132.35984,134.05447 83.965543,192 H 211.17566 l -0.35132,24 H 33 v -29.33006 z" />
  <path
     style="fill-opacity:0.327778;fill-rule:evenodd"
     inkscape:connector-curvature="0"
     id="path877"
     d="M 33,24 H 57 V 80 H 33 Z" />
  <path
     style="fill-opacity:0.71666709;fill-rule:evenodd"
     inkscape:connector-curvature="0"
     id="path879"
     d="M 33,24 H 45 V 80 H 33 Z" />
  <path
     style="fill-opacity:0.327778;fill-rule:evenodd"
     inkscape:connector-curvature="0"
     id="path881"
     d="m 223,176 h -24 v 56 h 24 z" />
  <path
     style="fill-opacity:0.71666709;fill-rule:evenodd"
     inkscape:connector-curvature="0"
     id="path883"
     d="m 223,176 h -12 v 56 h 12 z" />
  <path
     style="fill-opacity:0.39215698;fill-rule:evenodd;stroke-width:0.55572426"
     inkscape:connector-curvature="0"
     id="path889"
     d="m 255.98226,82.575465 a 82.556005,82.556074 0 0 1 -165.112008,0 82.556005,82.556074 0 1 1 165.112008,0 z" />
  <path
     style="fill:#35ae8b;fill-opacity:1;fill-rule:evenodd;stroke:url(#d);stroke-width:5.91270304"
     inkscape:connector-curvature="0"
     id="path891"
     d="m 253.46968,77.909259 a 75.377219,75.377282 0 0 1 -150.75443,0 75.377219,75.377282 0 1 1 150.75443,0 z" />
  <path
     id="path910"
     style="opacity:1;fill:#ffffff;fill-opacity:1;stroke:#2d6857;stroke-width:2;stroke-linecap:round;stroke-linejoin:round;stroke-miterlimit:4;stroke-dasharray:none;stroke-opacity:1"
     d="m 186.26369,127.34588 c 0,6.44186 -5.22216,11.66402 -11.66402,11.66402 -6.44186,0 -11.66402,-5.22216 -11.66402,-11.66402 0,-6.44186 5.22216,-11.66402 11.66402,-11.66402 6.44186,0 11.66402,5.22216 11.66402,11.66402 z m -2.84798,-27.870215 c -0.0138,7.422415 -16.60997,7.536105 -17.15931,0 -2.66409,-36.546896 28.10663,-27.794942 27.92574,-50.220737 -0.16837,-20.873751 -25.45843,-15.926503 -34.80061,1.834817 -4.21848,8.020142 -29.18823,-4.391026 -21.12202,-15.534167 19.58099,-27.0503573 76.15986,-26.7636592 77.13897,12.972486 0.84009,34.094127 -31.92777,21.201513 -31.98277,50.947601 z"
     inkscape:connector-curvature="0"
     sodipodi:nodetypes="ssssscsssssc" />
</svg>
