<svg height="48" width="48" xmlns="http://www.w3.org/2000/svg" xmlns:xlink="http://www.w3.org/1999/xlink">
  <linearGradient id="a">
    <stop offset="0" stop-color="#a4c8f0"/>
    <stop offset="1" stop-color="#737ba6"/>
  </linearGradient>
  <linearGradient id="b" gradientTransform="matrix(.10529002 0 0 .09574576 -31.045891 3.737521)" gradientUnits="userSpaceOnUse" x1="326.68332" x2="721.24884" y1="-5.248622" y2="429.62204">
    <stop offset="0" stop-color="#fdffff"/>
    <stop offset="1" stop-color="#cfcfff"/>
  </linearGradient>
  <linearGradient id="c" gradientTransform="matrix(.10529002 0 0 .09574576 -31.045891 3.737521)" gradientUnits="userSpaceOnUse" x1="376.13055" x2="644.93158" xlink:href="#a" y1="-15.148117" y2="440.22864"/>
  <linearGradient id="d" gradientTransform="matrix(.44633232 0 0 .44630355 25.255046 4.876096)" gradientUnits="userSpaceOnUse" x1="40.649776" x2="37.074421" xlink:href="#a" y1="-1.236028" y2="22.319952"/>
  <path d="m5.4827652.49999998h33.8290958l8.188138 8.22860202v33.829095c0 2.748568-2.138085 4.942303-4.886651 4.942303h-37.1305828c-2.7485671 0-4.98276522-2.234198-4.98276522-4.982765v-37.130583c0-2.748569 2.23419812-4.88665202 4.98276522-4.88665202z" fill="url(#b)" stroke="url(#c)"/>
  <path d="m22.758303 23.758388 9.241697-11.758388h-25v-4h34v5l-17 12-9 11h26v4h-34v-5z" fill="#f00" fill-opacity=".822222" fill-rule="evenodd"/>
  <path d="m12.194811 15.5h7.885117l14.516199 16h-7.885117z" fill="#49b7ff" fill-opacity=".65" fill-rule="evenodd" stroke="#49b7ff" stroke-linecap="square"/>
  <g transform="matrix(1.6026154 0 0 1.6026154 -25.760463 -9.459472)">
    <path d="m45.935113 10.954324a4.888402 4.8880869 0 0 1 -9.776804 0 4.888402 4.8880869 0 1 1 9.776804 0z" fill-opacity=".392157" fill-rule="evenodd"/>
    <path d="m45.786334 10.678042a4.4633232 4.4630355 0 0 1 -8.926646 0 4.4633232 4.4630355 0 1 1 8.926646 0z" fill="#fff" fill-rule="evenodd" stroke="url(#d)" stroke-width=".62398"/>
    <text font-family="Sans" font-size="7.26095" letter-spacing="0" transform="scale(.99503663 1.0049881)" word-spacing="0" x="39.5005" y="12.79525"><tspan x="39.5005" y="12.79525">2</tspan></text>
  </g>
  <g fill-rule="evenodd">
    <path d="m5 5h4v10h-4z" fill-opacity=".327778"/>
    <path d="m5 5h2v10h-2z" fill-opacity=".716667"/>
    <path d="m39 33h4v10h-4z" fill-opacity=".327778"/>
    <path d="m41 33h2v10h-2z" fill-opacity=".716667"/>
  </g>
</svg>
