<svg height="256" width="256" xmlns="http://www.w3.org/2000/svg" xmlns:xlink="http://www.w3.org/1999/xlink">
  <linearGradient id="a" gradientUnits="userSpaceOnUse" x1="21.05571423836" x2="231.333025862" y1="23.2733190272" y2="235.73608700828">
    <stop offset="0" stop-color="#a4c8f0"/>
    <stop offset="1" stop-color="#737ba6"/>
  </linearGradient>
  <linearGradient id="b" gradientUnits="userSpaceOnUse" x1="40" x2="215" y1="16" y2="236">
    <stop offset="0" stop-color="#fdffff"/>
    <stop offset="1" stop-color="#cfcfff"/>
  </linearGradient>
  <linearGradient id="c" gradientUnits="userSpaceOnUse" x1="25.9125088" x2="25.9125088" xlink:href="#d" y1="44.4487782" y2="114.1570542"/>
  <linearGradient id="d">
    <stop offset="0" stop-color="#418af9"/>
    <stop offset=".2" stop-color="#fdfdfd"/>
    <stop offset=".40000001" stop-color="#418af9"/>
    <stop offset="1" stop-color="#aecbf8"/>
  </linearGradient>
  <linearGradient id="e" gradientUnits="userSpaceOnUse" x1="32.8833364" x2="32.8833364" xlink:href="#f" y1="44.4487782" y2="114.1570542"/>
  <linearGradient id="f">
    <stop offset="0" stop-color="#2d77e6"/>
    <stop offset="1" stop-color="#71a3ee"/>
  </linearGradient>
  <linearGradient id="g" gradientUnits="userSpaceOnUse" x1="25.9125088" x2="25.9125088" xlink:href="#d" y1="150.4487832" y2="220.1570592"/>
  <linearGradient id="h" gradientUnits="userSpaceOnUse" x1="32.8833364" x2="32.8833364" xlink:href="#f" y1="150.4487832" y2="220.1570592"/>
  <rect fill="url(#b)" height="250.99998" ry="26.829721" stroke="url(#a)" stroke-width="5" width="250.99998" x="2.5" y="2.500015"/>
  <g fill-rule="evenodd">
    <path d="m77.855103 66.058346h80.500887v-27.883313l51.87798 42.047682-51.87798 41.602255v-27.883316h-80.500887z" fill="#ff6f6f"/>
    <path d="m5 42.35753h57.642469l10.970829 9.759157v55.766633l-10.970829 9.75915h-57.642469" fill="url(#c)" stroke="url(#e)" stroke-linejoin="round" stroke-width="8.364993"/>
    <path d="m77.855103 172.05835h114.500887v-27.88332l51.87798 42.04768-51.87798 41.60226v-27.88332h-114.500887z" fill="#00b21d"/>
    <path d="m5 148.35753h57.642469l10.970829 9.75916v55.76663l-10.970829 9.75915h-57.642469" fill="url(#g)" stroke="url(#h)" stroke-linejoin="round" stroke-width="8.364993"/>
  </g>
</svg>
