<?xml version="1.0" encoding="UTF-8"?>
<svg width="256" height="256" version="1.1" xmlns="http://www.w3.org/2000/svg" xmlns:xlink="http://www.w3.org/1999/xlink">
 <defs>
  <linearGradient id="b-4" x1="731" x2="2908" y1="94.5" y2="-2801" gradientUnits="userSpaceOnUse" xlink:href="#a-8"/>
  <linearGradient id="a-8">
   <stop stop-color="#510000" offset="0"/>
   <stop stop-color="#510000" stop-opacity="0" offset="1"/>
  </linearGradient>
  <linearGradient id="c" x1="2700" x2="519" y1="-1639" y2="863" gradientUnits="userSpaceOnUse" xlink:href="#a-8"/>
 </defs>
 <linearGradient id="a" x1="21.1" x2="231" y1="23.3" y2="236" gradientUnits="userSpaceOnUse">
  <stop stop-color="#fdffff" offset="0"/>
  <stop stop-color="#cfcfff" offset="1"/>
 </linearGradient>
 <linearGradient id="b" x1="21.1" x2="231" y1="23.3" y2="236" gradientUnits="userSpaceOnUse">
  <stop stop-color="#a4c8f0" offset="0"/>
  <stop stop-color="#737ba6" offset="1"/>
 </linearGradient>
 <rect x="2.5" y="2.5" width="251" height="251" ry="26.8" fill="url(#a)" stroke="url(#b)" stroke-width="5"/>
 <g transform="matrix(.0569 0 0 .057 27.9 169)" stroke-width="1.34">
  <path d="m1711-2216c-396 0-776 157-1057 438s-438 660-438 1057 157 776 438 1057c51 51 105 97.9 162 140l236-323c-40.5-30.5-79-63.9-115-100-205-205-321-483-321-774s115-569 321-774c205-205 483-321 774-321 228 0 448 70.9 631 201l236-323c-252-179-554-277-867-277z" fill="url(#b-4)"/>
  <path transform="rotate(54.9 2853 -665)" d="m2376-268-1511-565 1356-990-38 738z" fill="#510000"/>
  <path transform="rotate(235 1734 -145)" d="m2391-369-1526-464 1356-990-45.5 719z" fill="#510000"/>
  <path d="m2583-1935-236 323c48.7 34.8 94.8 73.8 138 117 205 205 321 483 321 774s-115 569-321 774c-205 205-483 321-774 321-237 0-466-76.9-654-217l-236 323c256 190 567 294 890 294 396 0 776-157 1057-438s438-660 438-1057-157-776-438-1057c-57.6-57.6-119-110-185-157z" fill="url(#c)"/>
 </g>
</svg>
