<?xml version="1.0" encoding="UTF-8" standalone="no"?>
<!-- Created with Inkscape (http://www.inkscape.org/) -->

<svg
   xmlns:dc="http://purl.org/dc/elements/1.1/"
   xmlns:cc="http://creativecommons.org/ns#"
   xmlns:rdf="http://www.w3.org/1999/02/22-rdf-syntax-ns#"
   xmlns:svg="http://www.w3.org/2000/svg"
   xmlns="http://www.w3.org/2000/svg"
   xmlns:xlink="http://www.w3.org/1999/xlink"
   version="1.1"
   width="256"
   height="256"
   id="svg2428">
  <defs
     id="defs2430">
    <linearGradient
       id="linearGradient3899">
      <stop
         id="stop3901"
         style="stop-color:#717f09;stop-opacity:1"
         offset="0" />
      <stop
         id="stop3903"
         style="stop-color:#95786d;stop-opacity:1"
         offset="1" />
    </linearGradient>
    <linearGradient
       x1="-4.5465946"
       y1="13"
       x2="22.546595"
       y2="13"
       id="linearGradient4000"
       xlink:href="#linearGradient3899"
       gradientUnits="userSpaceOnUse" />
    <linearGradient
       id="linearGradient3905">
      <stop
         id="stop3907"
         style="stop-color:#86c57f;stop-opacity:1"
         offset="0" />
      <stop
         id="stop3909"
         style="stop-color:#b2dd7d;stop-opacity:1"
         offset="1" />
    </linearGradient>
    <linearGradient
       x1="-4.3989553"
       y1="13"
       x2="22.398954"
       y2="13"
       id="linearGradient3998"
       xlink:href="#linearGradient3905"
       gradientUnits="userSpaceOnUse" />
    <linearGradient
       x1="-4.3989553"
       y1="13"
       x2="22.398954"
       y2="13"
       id="linearGradient2453"
       xlink:href="#linearGradient3905"
       gradientUnits="userSpaceOnUse" />
    <linearGradient
       x1="-4.5465946"
       y1="13"
       x2="22.546595"
       y2="13"
       id="linearGradient2455"
       xlink:href="#linearGradient3899"
       gradientUnits="userSpaceOnUse" />
    <linearGradient
       x1="-4.3989553"
       y1="13"
       x2="22.398954"
       y2="13"
       id="linearGradient2459"
       xlink:href="#linearGradient3905"
       gradientUnits="userSpaceOnUse" />
    <linearGradient
       x1="-4.5465946"
       y1="13"
       x2="22.546595"
       y2="13"
       id="linearGradient2461"
       xlink:href="#linearGradient3899"
       gradientUnits="userSpaceOnUse" />
    <linearGradient
       x1="-4.3989553"
       y1="13"
       x2="22.398954"
       y2="13"
       id="linearGradient2465"
       xlink:href="#linearGradient3905"
       gradientUnits="userSpaceOnUse" />
    <linearGradient
       x1="-4.5465946"
       y1="13"
       x2="22.546595"
       y2="13"
       id="linearGradient2467"
       xlink:href="#linearGradient3899"
       gradientUnits="userSpaceOnUse" />
    <linearGradient
       x1="-4.3989553"
       y1="13"
       x2="22.398954"
       y2="13"
       id="linearGradient2471"
       xlink:href="#linearGradient3905"
       gradientUnits="userSpaceOnUse" />
    <linearGradient
       x1="-4.5465946"
       y1="13"
       x2="22.546595"
       y2="13"
       id="linearGradient2473"
       xlink:href="#linearGradient3899"
       gradientUnits="userSpaceOnUse" />
    <linearGradient
       x1="-4.3989553"
       y1="13"
       x2="22.398954"
       y2="13"
       id="linearGradient2477"
       xlink:href="#linearGradient3905"
       gradientUnits="userSpaceOnUse" />
    <linearGradient
       x1="-4.5465946"
       y1="13"
       x2="22.546595"
       y2="13"
       id="linearGradient2479"
       xlink:href="#linearGradient3899"
       gradientUnits="userSpaceOnUse" />
    <linearGradient
       x1="47.140759"
       y1="-436.52832"
       x2="457.80655"
       y2="-21.594393"
       id="linearGradient3109"
       xlink:href="#linearGradient3165-3"
       gradientUnits="userSpaceOnUse"
       gradientTransform="matrix(0.51204,0,0,0.51204,-3.0822402,6.7932802)" />
    <linearGradient
       id="linearGradient3165-3">
      <stop
         id="stop3167-1"
         style="stop-color:#a4c8f0;stop-opacity:1"
         offset="0" />
      <stop
         id="stop3169-9"
         style="stop-color:#737ba6;stop-opacity:1"
         offset="1" />
    </linearGradient>
    <linearGradient
       x1="47.140759"
       y1="-436.52832"
       x2="457.80655"
       y2="-21.594393"
       id="linearGradient9811"
       xlink:href="#linearGradient3157-2"
       gradientUnits="userSpaceOnUse"
       gradientTransform="matrix(0.51204,0,0,0.51204,56.91776,246.79328)" />
    <linearGradient
       id="linearGradient3157-2">
      <stop
         id="stop3159-6"
         style="stop-color:#fdffff;stop-opacity:1"
         offset="0" />
      <stop
         id="stop3161-8"
         style="stop-color:#cfcfff;stop-opacity:1"
         offset="1" />
    </linearGradient>
    <linearGradient
       x1="47.140759"
       y1="-436.52832"
       x2="457.80655"
       y2="-21.594393"
       id="linearGradient4334"
       xlink:href="#linearGradient3157-2"
       gradientUnits="userSpaceOnUse"
       gradientTransform="matrix(0.51204,0,0,0.51204,-48.08224,46.79328)" />
    <linearGradient
       x1="-145"
       y1="-184"
       x2="30"
       y2="36"
       id="linearGradient5137"
       xlink:href="#linearGradient3157-2"
       gradientUnits="userSpaceOnUse"
       gradientTransform="translate(185,-40)" />
  </defs>
  <metadata
     id="metadata2433">
    <rdf:RDF>
      <cc:Work
         rdf:about="">
        <dc:format>image/svg+xml</dc:format>
        <dc:type
           rdf:resource="http://purl.org/dc/dcmitype/StillImage" />
        <dc:title></dc:title>
      </cc:Work>
    </rdf:RDF>
  </metadata>
  <g
     transform="translate(0,240)"
     id="layer1">
    <rect
       width="250.99998"
       height="250.99998"
       ry="26.829721"
       x="2.4999998"
       y="-237.49998"
       id="rect3105"
       style="fill:url(#linearGradient5137);fill-opacity:1;stroke:url(#linearGradient3109);stroke-width:4.99999952;stroke-miterlimit:4;stroke-opacity:1;stroke-dasharray:none" />
    <path
       d="M 17,24 C 14.810193,25.592588 14.521253,21.215678 11.946486,22.05363 9.3717184,22.891583 11.714189,26.600176 9.0064982,26.601469 6.2988074,26.602763 8.6377333,22.891934 6.0621666,22.056442 3.4865998,21.22095 3.2018423,25.598134 1.010514,24.007639 -1.1808142,22.417145 2.8925872,20.789808 1.2999999,18.6 -0.29258738,16.410193 -3.0958052,19.784033 -3.933758,17.209265 -4.7717108,14.634498 -0.51973477,15.71224 -0.52102839,13.004549 -0.522322,10.296858 -4.7732663,11.378662 -3.9377741,8.8030949 -3.102282,6.2275282 -0.29584165,9.5986882 1.2946525,7.40736 2.8851467,5.2160317 -1.1898078,3.592587 0.99999974,1.9999996 3.1898073,0.40741235 3.478747,4.7843223 6.0535143,3.9463696 8.6282816,3.1084168 6.285811,-0.60017576 8.9935018,-0.60146939 11.701193,-0.60276303 9.3622667,3.1080661 11.937833,3.9435583 14.5134,4.7790505 14.798158,0.40186639 16.989486,1.9923606 19.180814,3.5828547 15.107413,5.2101924 16.7,7.3999999 c 1.592587,2.1898075 4.395805,-1.1840325 5.233758,1.3907348 0.837953,2.5747673 -3.414023,1.4970253 -3.41273,4.2047163 0.0013,2.707691 4.252238,1.625887 3.416746,4.201454 -0.835492,2.575567 -3.641932,-0.795593 -5.232427,1.395735 C 15.114853,20.783968 19.189808,22.407413 17,24 z"
       transform="matrix(6.5528113,-2.0887639,2.0097476,6.802253,42.54189,-181.27432)"
       id="path3913"
       style="fill:url(#linearGradient3998);fill-opacity:1;fill-rule:nonzero;stroke:url(#linearGradient4000);stroke-width:1.27123654;stroke-linecap:round;stroke-linejoin:miter;stroke-miterlimit:4;stroke-opacity:1;stroke-dasharray:none;stroke-dashoffset:0" />
    <path
       d="M 20,12 A 8,9 0 1 1 4,12 8,9 0 1 1 20,12 z"
       transform="matrix(6.1512886,-1.8877353,1.6779865,5.4678125,33.692609,-154.60484)"
       id="path3915"
       style="fill:#8bb666;fill-opacity:1;fill-rule:nonzero;stroke:#abd9ad;stroke-width:1.04636419;stroke-linecap:round;stroke-linejoin:miter;stroke-miterlimit:4;stroke-opacity:1;stroke-dasharray:none;stroke-dashoffset:0" />
    <path
       d="M 20,12 A 8,9 0 1 1 4,12 8,9 0 1 1 20,12 z"
       transform="matrix(2.7471055,-0.84304411,0.74937279,2.4418714,85.686171,-130.82983)"
       id="path3917"
       style="fill:#ffffff;fill-opacity:1;fill-rule:nonzero;stroke:#5b6900;stroke-width:4.26001263;stroke-linecap:round;stroke-linejoin:miter;stroke-miterlimit:4;stroke-opacity:1;stroke-dasharray:none;stroke-dashoffset:0" />
  </g>
</svg>
