<?xml version="1.0" encoding="UTF-8" standalone="no"?>
<svg
   xmlns:dc="http://purl.org/dc/elements/1.1/"
   xmlns:cc="http://creativecommons.org/ns#"
   xmlns:rdf="http://www.w3.org/1999/02/22-rdf-syntax-ns#"
   xmlns:svg="http://www.w3.org/2000/svg"
   xmlns="http://www.w3.org/2000/svg"
   xmlns:xlink="http://www.w3.org/1999/xlink"
   version="1.0"
   viewBox="0 0 1000 1000"
   id="svg4961"
   width="1000"
   height="1000">
  <metadata
     id="metadata4989">
    <rdf:RDF>
      <cc:Work
         rdf:about="">
        <dc:format>image/svg+xml</dc:format>
        <dc:type
           rdf:resource="http://purl.org/dc/dcmitype/StillImage" />
        <dc:title></dc:title>
      </cc:Work>
    </rdf:RDF>
  </metadata>
  <defs
     id="defs4963">
    <linearGradient
       id="b"
       y2="13.388"
       gradientUnits="userSpaceOnUse"
       x2="8.5530996"
       y1="6.5876002"
       x1="8.5530996"
       gradientTransform="matrix(97.871175,0,0,110.10583,-334.20519,-610.16081)">
      <stop
         stop-color="#6183c6"
         offset="0"
         id="stop4966" />
      <stop
         stop-color="#4e6eca"
         offset="1"
         id="stop4968" />
    </linearGradient>
    <linearGradient
       id="a"
       y2="11.187"
       gradientUnits="userSpaceOnUse"
       x2="8.5"
       y1="4.2210999"
       x1="8.5"
       gradientTransform="matrix(74.246261,0,0,61.04571,-133.40253,-131.27182)">
      <stop
         stop-color="#fff"
         offset="0"
         id="stop4971" />
      <stop
         stop-color="#fff"
         stop-opacity="0"
         offset="1"
         id="stop4973" />
    </linearGradient>
    <linearGradient
       xlink:href="#a"
       id="linearGradient4995"
       gradientUnits="userSpaceOnUse"
       gradientTransform="matrix(42.064438,18.653164,-15.33674,34.585627,343.64717,-83.842753)"
       x1="8.5"
       y1="4.2210999"
       x2="8.5"
       y2="11.187" />
    <linearGradient
       xlink:href="#a"
       id="linearGradient4997"
       gradientUnits="userSpaceOnUse"
       gradientTransform="matrix(66.775025,0,0,61.928022,-69.895458,-70.174576)"
       x1="8.5"
       y1="4.2210999"
       x2="8.5"
       y2="11.187" />
  </defs>
  <path
     d="m 916.31839,490.89484 a 418.6186,418.62148 0 0 1 -837.237192,0 418.6186,418.62148 0 1 1 837.237192,0 z"
     id="path4148"
     style="fill:none;fill-opacity:1;stroke:#5e5e5e;stroke-width:57.74051285;stroke-linecap:round;stroke-linejoin:round;stroke-opacity:0.29746836" />
  <path
     style="fill:#ff6464;fill-opacity:1;stroke:#ac0f0f;stroke-width:50.35945129;stroke-linecap:round;stroke-linejoin:round;stroke-opacity:1"
     id="path4977"
     d="m 862.8057,490.88614 a 365.10591,365.10842 0 0 1 -730.21181,0 365.10591,365.10842 0 1 1 730.21181,0 z" />
  <path
     style="opacity:0.5;fill:url(#linearGradient4997)"
     id="path4979"
     d="m 798.17985,456.21362 a 300.48761,278.67611 0 0 1 -600.97522,0 300.48761,278.67611 0 1 1 600.97522,0 z" />
  <g
     display="none"
     id="g4981"
     style="display:none;fill:#ffffff"
     transform="translate(0,984)">
    <path
       d="M 7.0321,10.14 C 7.0029,8.7682 7.5771,7.737 8.4611,7.0237 9.9872,5.7921 9.7432,4.1842 8.0548,4.0636 6.7422,3.9698 6.2617,4.8699 6.1075,5.7329 5.9226,6.598 4.2455,6.5964 4.3003,5.5166 4.6692,3.4903 6.131,2.6355 7.9708,2.6173 c 1.1299,-0.0111 2.029,0.285 2.6972,0.8549 1.073,1.0112 0.917,2.7367 0.19,3.6057 -0.9272,1.1104 -1.8574,1.6834 -1.8522,3.0621 0.0025,0.678 -1.9592,0.671 -1.9737,0 z"
       id="path4983" />
    <path
       d="m 9.508,13.095 a 1.2183,1.2183 0 1 1 -2.4366,0 1.2183,1.2183 0 1 1 2.4366,0 z"
       transform="translate(-0.28967,-0.59638)"
       display="inline"
       id="path4985"
       style="display:inline" />
  </g>
  <path
     d="M 760.12256,452.62621 A 207.06639,170.2512 23.914538 0 1 381.54262,284.74774 207.06639,170.2512 23.914538 1 1 760.12256,452.62621 Z"
     id="path4993"
     style="opacity:0.5;fill:url(#linearGradient4995)" />
  <path
     d="m 783.15712,676.26368 c -173.56595,136.15798 -406.4724,126.74176 -576.15505,-8.4911 53.5343,91.81996 164.77844,164.214 294.60915,162.43434 114.1989,-1.56539 219.5205,-58.2043 281.5459,-153.94324 z"
     id="path4999"
     style="opacity:0.5;fill:#0e200a;fill-opacity:0.28481014" />
</svg>
