<?xml version="1.0" encoding="UTF-8" standalone="no"?>
<svg
   xmlns:dc="http://purl.org/dc/elements/1.1/"
   xmlns:cc="http://creativecommons.org/ns#"
   xmlns:rdf="http://www.w3.org/1999/02/22-rdf-syntax-ns#"
   xmlns:svg="http://www.w3.org/2000/svg"
   xmlns="http://www.w3.org/2000/svg"
   xmlns:sodipodi="http://sodipodi.sourceforge.net/DTD/sodipodi-0.dtd"
   xmlns:inkscape="http://www.inkscape.org/namespaces/inkscape"
   height="520"
   width="150"
   version="1.1"
   id="svg1105"
   sodipodi:docname="ElemPlate.svg"
   inkscape:version="0.92.3 (2405546, 2018-03-11)">
  <metadata
     id="metadata1111">
    <rdf:RDF>
      <cc:Work
         rdf:about="">
        <dc:format>image/svg+xml</dc:format>
        <dc:type
           rdf:resource="http://purl.org/dc/dcmitype/StillImage" />
        <dc:title />
      </cc:Work>
    </rdf:RDF>
  </metadata>
  <defs
     id="defs1109" />
  <sodipodi:namedview
     pagecolor="#ffffff"
     bordercolor="#666666"
     borderopacity="1"
     objecttolerance="10"
     gridtolerance="10"
     guidetolerance="10"
     inkscape:pageopacity="0"
     inkscape:pageshadow="2"
     inkscape:window-width="1920"
     inkscape:window-height="1137"
     id="namedview1107"
     showgrid="false"
     inkscape:zoom="3.19"
     inkscape:cx="89.533271"
     inkscape:cy="156.78804"
     inkscape:window-x="-8"
     inkscape:window-y="-8"
     inkscape:window-maximized="1"
     inkscape:current-layer="svg1105" />
  <path
     d="M 14.75,100.61 H 129.17"
     id="path1061"
     inkscape:connector-curvature="0"
     style="fill:none;stroke:#000000;stroke-width:7" />
  <path
     style="fill:none;stroke:#000000"
     d="M 29.75,50.12 V 84.41"
     id="path1063"
     inkscape:connector-curvature="0" />
  <path
     style="fill:none;stroke:#000000"
     d="M 99.75,49.94 V 84.41"
     id="path1065"
     inkscape:connector-curvature="0" />
  <path
     d="M 31.85,53.62 H 97.66"
     id="path1067"
     inkscape:connector-curvature="0"
     style="fill:none;stroke:#000000;stroke-width:1.01999998" />
  <path
     d="m 30.75,70.62 h 68 v 67 h -68 z"
     id="path1069"
     inkscape:connector-curvature="0"
     style="fill:none;stroke:#000000;stroke-width:3" />
  <path
     style="fill:none;stroke:#000000"
     d="m 38.39,122.54 12.72,-12.9 m -13.59,9.59 6.59,-6.64 m 1.41,6.64 6.59,-6.64"
     id="path1071"
     inkscape:connector-curvature="0" />
  <path
     style="fill:none;stroke:#000000"
     d="m 54.39,134.54 12.72,-12.9 m -13.59,9.59 6.59,-6.64 m 1.41,6.64 6.59,-6.64"
     id="path1073"
     inkscape:connector-curvature="0" />
  <path
     style="fill:none;stroke:#000000"
     d="m 78.39,120.54 12.72,-12.9 m -13.59,9.59 6.59,-6.64 m 1.41,6.64 6.59,-6.64"
     id="path1075"
     inkscape:connector-curvature="0" />
  <path
     style="fill:none;stroke:#000000"
     d="m 38.39,88.54 12.72,-12.9 m -13.59,9.59 6.59,-6.64 m 1.41,6.64 6.59,-6.64"
     id="path1077"
     inkscape:connector-curvature="0" />
  <path
     style="fill:none;stroke:#000000"
     d="m 58.39,88.54 12.72,-12.9 m -13.59,9.59 6.59,-6.64 m 1.41,6.64 6.59,-6.64"
     id="path1079"
     inkscape:connector-curvature="0" />
  <path
     style="fill:none;stroke:#000000"
     d="m 80.39,88.54 12.72,-12.9 m -13.59,9.59 6.59,-6.64 m 1.41,6.64 6.59,-6.64"
     id="path1081"
     inkscape:connector-curvature="0" />
  <path
     id="path1085"
     style="fill:none;stroke:#000000"
     d="m 79.61,133.3 -1.82,-6.36 7.45,1.27 m 21.46,22 -28.55,-22.91" />
  <path
     d="m 111.07,84.03 18.18,16.73 -17.82,16.36"
     id="path1087"
     inkscape:connector-curvature="0"
     style="fill:none;stroke:#000000;stroke-width:7;stroke-linecap:round" />
  <path
     style="fill:none;stroke:#000000"
     d="m 93.64,49.3 4.91,4.36 -4.91,3.64 m -57.75,-8 -4.91,4.18 4.91,3.82"
     id="path1089"
     inkscape:connector-curvature="0" />
  <text
     style="font-style:italic;font-size:medium;font-family:'Times New Roman'"
     x="108.7"
     y="158.83"
     id="text1095">
    <tspan
       font-size="36"
       x="108.7"
       y="158.83"
       id="tspan1093"
       style="font-size:36px">n</tspan>
  </text>
  <text
     style="font-style:italic;font-size:medium;font-family:'Times New Roman'"
     x="56.5"
     y="50.579998"
     id="text1099">
    <tspan
       font-size="36"
       x="56.5"
       y="50.579998"
       id="tspan1097"
       style="font-size:36px">L</tspan>
  </text>
  <path
     style="fill:none;stroke:#000000;stroke-width:7"
     inkscape:connector-curvature="0"
     id="path2484"
     d="M 14.75,288.61 H 129.17" />
  <path
     style="fill:none;stroke:#000000"
     inkscape:connector-curvature="0"
     id="path2486"
     d="m 29.75,238.12 v 34.29" />
  <path
     style="fill:none;stroke:#000000"
     inkscape:connector-curvature="0"
     id="path2488"
     d="m 65.75,237.94 v 50.47"
     sodipodi:nodetypes="cc" />
  <path
     style="fill:none;stroke:#000000;stroke-width:3"
     inkscape:connector-curvature="0"
     id="path2492"
     d="m 30.75,258.62 h 68 v 67 h -68 z" />
  <path
     style="fill:none;stroke:#000000"
     inkscape:connector-curvature="0"
     id="path2494"
     d="m 37.136082,308.03216 12.72,-12.9 m -13.59,9.59 6.59,-6.64 m 1.41,6.64 6.59,-6.64" />
  <path
     style="fill:none;stroke:#000000"
     inkscape:connector-curvature="0"
     id="path2496"
     d="m 46.866489,321.59956 12.72,-12.9 m -13.59,9.59 6.59,-6.64 m 1.41,6.64 6.59,-6.64" />
  <path
     style="fill:none;stroke:#000000"
     inkscape:connector-curvature="0"
     id="path2498"
     d="m 78.39,308.54 12.72,-12.9 m -13.59,9.59 6.59,-6.64 m 1.41,6.64 6.59,-6.64" />
  <path
     style="fill:none;stroke:#000000"
     inkscape:connector-curvature="0"
     id="path2500"
     d="m 35.255204,275.44282 12.72,-12.9 m -13.59,9.59 6.59,-6.64 m 1.41,6.64 6.59,-6.64" />
  <path
     style="fill:none;stroke:#000000"
     inkscape:connector-curvature="0"
     id="path2502"
     d="m 48.358652,283.12307 12.72,-12.9 m -13.59,9.59 6.59,-6.64 m 1.41,6.64 6.59,-6.64" />
  <path
     style="fill:none;stroke:#000000"
     inkscape:connector-curvature="0"
     id="path2504"
     d="m 80.39,276.54 12.72,-12.9 m -13.59,9.59 6.59,-6.64 m 1.41,6.64 6.59,-6.64" />
  <path
     style="fill:none;stroke:#000000;stroke-width:7;stroke-linecap:round"
     inkscape:connector-curvature="0"
     id="path2510"
     d="m 111.07,272.03 18.18,16.73 -17.82,16.36" />
  <path
     id="path2512"
     style="fill:none;stroke:#000000"
     d="m 59.64,237.3 4.91,4.36 -4.91,3.64 m -23.75,-8 -4.91,4.18 4.91,3.82 m -4.04,-3.68 h 31.81"
     inkscape:connector-curvature="0"
     sodipodi:nodetypes="cccccccc" />
  <text
     style="font-style:italic;font-size:medium;font-family:'Times New Roman'"
     id="text2522"
     y="238.58002"
     x="40.5">
    <tspan
       style="font-size:36px"
       id="tspan2520"
       y="238.58002"
       x="40.5"
       font-size="36">h</tspan>
  </text>
  <rect
     style="fill:#ffffff;fill-opacity:0.90196078;stroke:none;stroke-width:0.72342694"
     id="rect5207"
     width="70.555382"
     height="97.094032"
     x="66.267754"
     y="235.93262" />
  <path
     d="M 14.75,452.61 H 129.17"
     id="path2611"
     inkscape:connector-curvature="0"
     style="fill:none;stroke:#000000;stroke-width:7" />
  <path
     id="path2615"
     style="fill:none;stroke:#000000"
     d="m 99.75,401.94 v 50.47 m -36,-50.29 v 50.29"
     inkscape:connector-curvature="0"
     sodipodi:nodetypes="cccc" />
  <path
     d="m 30.75,422.62 h 68 v 67 h -68 z"
     id="path2617"
     inkscape:connector-curvature="0"
     style="fill:none;stroke:#000000;stroke-width:3" />
  <path
     d="m 37.136082,472.03216 12.72,-12.9 m -13.59,9.59 6.59,-6.64 m 1.41,6.64 6.59,-6.64"
     id="path2619"
     inkscape:connector-curvature="0"
     style="fill:none;stroke:#000000" />
  <path
     d="m 46.866489,485.59956 12.72,-12.9 m -13.59,9.59 6.59,-6.64 m 1.41,6.64 6.59,-6.64"
     id="path2621"
     inkscape:connector-curvature="0"
     style="fill:none;stroke:#000000" />
  <path
     d="m 78.39,472.54 12.72,-12.9 m -13.59,9.59 6.59,-6.64 m 1.41,6.64 6.59,-6.64"
     id="path2623"
     inkscape:connector-curvature="0"
     style="fill:none;stroke:#000000" />
  <path
     d="m 35.255204,439.44282 12.72,-12.9 m -13.59,9.59 6.59,-6.64 m 1.41,6.64 6.59,-6.64"
     id="path2625"
     inkscape:connector-curvature="0"
     style="fill:none;stroke:#000000" />
  <path
     d="m 48.358652,447.12307 12.72,-12.9 m -13.59,9.59 6.59,-6.64 m 1.41,6.64 6.59,-6.64"
     id="path2627"
     inkscape:connector-curvature="0"
     style="fill:none;stroke:#000000" />
  <path
     d="m 80.39,440.54 12.72,-12.9 m -13.59,9.59 6.59,-6.64 m 1.41,6.64 6.59,-6.64"
     id="path2629"
     inkscape:connector-curvature="0"
     style="fill:none;stroke:#000000" />
  <path
     d="m 111.07,436.03 18.18,16.73 -17.82,16.36"
     id="path2631"
     inkscape:connector-curvature="0"
     style="fill:none;stroke:#000000;stroke-width:7;stroke-linecap:round" />
  <path
     sodipodi:nodetypes="cccccccc"
     inkscape:connector-curvature="0"
     d="m 93.64,401.3 4.91,4.36 -4.91,3.64 m -23.75,-8 -4.91,4.18 4.91,3.82 m -4.04,-3.68 h 31.81"
     style="fill:none;stroke:#000000"
     id="path2633" />
  <text
     x="74.5"
     y="402.58002"
     id="text2637"
     style="font-style:italic;font-size:medium;font-family:'Times New Roman'">
    <tspan
       font-size="36"
       x="74.5"
       y="402.58002"
       id="tspan2635"
       style="font-size:36px">h</tspan>
  </text>
  <rect
     y="399.93262"
     x="6.2677536"
     height="96.075226"
     width="56.997387"
     id="rect2639"
     style="fill:#ffffff;fill-opacity:0.90196078;stroke:none;stroke-width:0.72342694" />
</svg>
