<?xml version="1.0" encoding="UTF-8" standalone="no"?>
<svg
   xmlns:dc="http://purl.org/dc/elements/1.1/"
   xmlns:cc="http://creativecommons.org/ns#"
   xmlns:rdf="http://www.w3.org/1999/02/22-rdf-syntax-ns#"
   xmlns:svg="http://www.w3.org/2000/svg"
   xmlns="http://www.w3.org/2000/svg"
   xmlns:sodipodi="http://sodipodi.sourceforge.net/DTD/sodipodi-0.dtd"
   xmlns:inkscape="http://www.inkscape.org/namespaces/inkscape"
   height="280"
   width="200"
   version="1.1"
   id="svg114"
   sodipodi:docname="ElemThickLens.svg"
   inkscape:version="0.92.4 (5da689c313, 2019-01-14)">
  <metadata
     id="metadata120">
    <rdf:RDF>
      <cc:Work
         rdf:about="">
        <dc:format>image/svg+xml</dc:format>
        <dc:type
           rdf:resource="http://purl.org/dc/dcmitype/StillImage" />
        <dc:title></dc:title>
      </cc:Work>
    </rdf:RDF>
  </metadata>
  <defs
     id="defs118" />
  <sodipodi:namedview
     pagecolor="#ffffff"
     bordercolor="#666666"
     borderopacity="1"
     objecttolerance="10"
     gridtolerance="10"
     guidetolerance="10"
     inkscape:pageopacity="0"
     inkscape:pageshadow="2"
     inkscape:window-width="1361"
     inkscape:window-height="1002"
     id="namedview116"
     showgrid="false"
     inkscape:zoom="1"
     inkscape:cx="66.118866"
     inkscape:cy="147.0913"
     inkscape:window-x="0"
     inkscape:window-y="0"
     inkscape:window-maximized="0"
     inkscape:current-layer="svg114">
    <inkscape:grid
       type="xygrid"
       id="grid1009" />
  </sodipodi:namedview>
  <path
     style="fill:none;stroke:#000000;stroke-opacity:1"
     inkscape:connector-curvature="0"
     id="path2"
     d="m 48.5,66.729575 v 68.468855 m 47,-68.46923 v 68.46885"
     sodipodi:nodetypes="cccc" />
  <path
     style="fill:none;stroke:#000000;stroke-width:3"
     inkscape:connector-curvature="0"
     id="path6"
     d="m 58.46875,7.46875 c -13.258253,24.92551 -13.258252,84.45929 0,109.03125 h 64.625 c 26.44642,-25.579433 21.05966,-85.098244 0,-109.03125 z"
     sodipodi:nodetypes="ccccc" />
  <path
     style="fill:none;stroke:#000000"
     inkscape:connector-curvature="0"
     id="path12"
     d="m 56.366701,57.497777 12.724605,-12.89862 m -13.590925,9.59091 6.590915,-6.63636 m 1.40909,6.63636 6.5909,-6.63636" />
  <path
     style="fill:none;stroke:#000000"
     inkscape:connector-curvature="0"
     id="path14"
     d="M 58.366701,88.90158 71.091306,76.002963 m -13.590925,9.59091 6.590915,-6.63636 m 1.40909,6.63636 6.5909,-6.63636" />
  <path
     style="fill:none;stroke:#000000"
     inkscape:connector-curvature="0"
     id="path16"
     d="m 62.25579,26.891175 12.724605,-12.89862 m -13.590925,9.59091 6.590915,-6.63636 m 1.40909,6.63636 6.5909,-6.63636" />
  <g
     style="fill:none;stroke:#000000;stroke-width:7"
     id="g22"
     transform="translate(-19.176853,3.226518)">
    <path
       inkscape:connector-curvature="0"
       id="path18"
       d="M 20.5,63.35666 H 206.92273" />
    <path
       style="stroke-linecap:round"
       inkscape:connector-curvature="0"
       id="path20"
       d="M 190.81818,46.77712 209,63.50439 191.18182,79.86803" />
  </g>
  <path
     style="fill:none;stroke:#000000"
     inkscape:connector-curvature="0"
     id="path42"
     d="M 77.642825,38.322 90.36743,25.42338 m -13.590925,9.59091 6.590915,-6.63636 m 1.40909,6.63636 6.5909,-6.63636" />
  <path
     style="fill:none;stroke:#000000"
     inkscape:connector-curvature="0"
     id="path44"
     d="m 68.619749,109.76123 12.72461,-12.89862 m -13.59093,9.59091 6.590915,-6.63636 m 1.40909,6.63636 6.590905,-6.63636" />
  <path
     style="fill:none;stroke:#000000"
     inkscape:connector-curvature="0"
     id="path46"
     d="M 88.218989,88.90158 100.9436,76.002963 m -13.590931,9.590907 6.59092,-6.636357 m 1.40909,6.636357 6.590901,-6.636357" />
  <path
     style="fill:none;stroke:#000000"
     inkscape:connector-curvature="0"
     id="path48"
     d="M 88.671,56.55807 101.3956,43.65945 M 87.80468,53.25036 94.39559,46.614 m 1.4091,6.63636 6.5909,-6.63636" />
  <path
     d="m 101.14283,125.34284 -4.9091,4.18181 4.9091,3.81819"
     id="path92"
     inkscape:connector-curvature="0"
     style="fill:none;stroke:#000000" />
  <text
     font-size="10"
     font-style="italic"
     x="8.004837"
     y="125.37422"
     id="text96"
     style="font-style:italic;font-size:10px;font-family:'Times New Roman'">
    <tspan
       font-size="36"
       x="8.004837"
       y="125.37422"
       id="tspan94"
       style="font-size:36px">h</tspan>
  </text>
  <path
     d="M 5.101945,129.5 H 106.91284"
     id="path98"
     inkscape:connector-curvature="0"
     style="fill:none;stroke:#000000;stroke-width:1;stroke-miterlimit:4;stroke-dasharray:none"
     sodipodi:nodetypes="cc" />
  <path
     d="m 42.89483,125.34284 4.90909,4.36363 -4.90909,3.63637"
     id="path100"
     inkscape:connector-curvature="0"
     style="fill:none;stroke:#000000" />
  <path
     d="m 106.10687,27.835247 12.7246,-12.89862 m -13.59092,9.59091 6.59091,-6.63636 m 1.40909,6.63636 6.5909,-6.63636"
     id="path951"
     inkscape:connector-curvature="0"
     style="fill:none;stroke:#000000" />
  <path
     style="fill:none;stroke:#000000"
     inkscape:connector-curvature="0"
     id="path953"
     d="m 114.72099,55.17571 12.7246,-12.89862 m -13.59092,9.59091 6.59091,-6.63636 m 1.40909,6.63636 6.5909,-6.63636" />
  <path
     d="m 104.81702,109.87509 12.72461,-12.898621 m -13.59093,9.590911 6.59092,-6.636361 m 1.40909,6.636361 6.5909,-6.636361"
     id="path955"
     inkscape:connector-curvature="0"
     style="fill:none;stroke:#000000" />
  <path
     style="fill:none;stroke:#000000"
     inkscape:connector-curvature="0"
     id="path957"
     d="m 111.93303,87.778003 12.72461,-12.898621 m -13.59093,9.590911 6.59092,-6.636361 m 1.40909,6.636361 6.5909,-6.636361" />
  <rect
     style="fill:#ffffff;fill-opacity:0.90196078;stroke:none;stroke-width:0.99999994"
     id="rect5207"
     width="138.11024"
     height="115.15029"
     x="95.892502"
     y="3.2288704" />
  <path
     sodipodi:nodetypes="cccc"
     d="m 141.5,206.7292 v 68.46885 m -47,-68.46885 v 68.46885"
     id="path965"
     inkscape:connector-curvature="0"
     style="fill:none;stroke:#000000;stroke-opacity:1" />
  <path
     sodipodi:nodetypes="ccccc"
     d="m 58.46875,147.46875 c -13.258253,24.92551 -13.258252,84.45929 0,109.03125 h 64.625 c 26.44642,-25.57943 21.05966,-85.09824 0,-109.03125 z"
     id="path967"
     inkscape:connector-curvature="0"
     style="fill:none;stroke:#000000;stroke-width:3" />
  <path
     d="m 56.366701,197.49778 12.724605,-12.89862 m -13.590925,9.59091 6.590915,-6.63636 m 1.40909,6.63636 6.5909,-6.63636"
     id="path969"
     inkscape:connector-curvature="0"
     style="fill:none;stroke:#000000" />
  <path
     d="m 58.366701,228.90158 12.724605,-12.89862 m -13.590925,9.59091 6.590915,-6.63636 m 1.40909,6.63636 6.5909,-6.63636"
     id="path971"
     inkscape:connector-curvature="0"
     style="fill:none;stroke:#000000" />
  <path
     d="m 62.25579,166.89118 12.724605,-12.89863 m -13.590925,9.59092 6.590915,-6.63637 m 1.40909,6.63637 6.5909,-6.63637"
     id="path973"
     inkscape:connector-curvature="0"
     style="fill:none;stroke:#000000" />
  <g
     transform="translate(-19.176853,143.22652)"
     id="g979"
     style="fill:none;stroke:#000000;stroke-width:7">
    <path
       d="M 20.5,63.35666 H 206.92273"
       id="path975"
       inkscape:connector-curvature="0" />
    <path
       d="M 190.81818,46.77712 209,63.50439 191.18182,79.86803"
       id="path977"
       inkscape:connector-curvature="0"
       style="stroke-linecap:round" />
  </g>
  <path
     d="M 77.642825,178.322 90.36743,165.42338 m -13.590925,9.59091 6.590915,-6.63636 m 1.40909,6.63636 6.5909,-6.63636"
     id="path981"
     inkscape:connector-curvature="0"
     style="fill:none;stroke:#000000" />
  <path
     d="m 68.619749,249.76123 12.72461,-12.89862 m -13.59093,9.59091 6.590915,-6.63636 m 1.40909,6.63636 6.590905,-6.63636"
     id="path983"
     inkscape:connector-curvature="0"
     style="fill:none;stroke:#000000" />
  <path
     d="M 88.468989,229.90158 101.1936,217.00296 m -13.590931,9.59091 6.59092,-6.63636 m 1.40909,6.63636 6.590901,-6.63636"
     id="path985"
     inkscape:connector-curvature="0"
     style="fill:none;stroke:#000000" />
  <path
     d="m 87.421,196.80807 12.7246,-12.89862 m -13.59092,9.59091 6.59091,-6.63636 m 1.4091,6.63636 6.5909,-6.63636"
     id="path987"
     inkscape:connector-curvature="0"
     style="fill:none;stroke:#000000" />
  <path
     style="fill:none;stroke:#000000"
     inkscape:connector-curvature="0"
     id="path989"
     d="m 146.89283,265.34284 -4.9091,4.18181 4.9091,3.81819" />
  <text
     style="font-style:italic;font-size:10px;font-family:'Times New Roman'"
     id="text993"
     y="265.37421"
     x="160.00484"
     font-style="italic"
     font-size="10">
    <tspan
       style="font-size:36px"
       id="tspan991"
       y="265.37421"
       x="160.00484"
       font-size="36">h</tspan>
  </text>
  <path
     sodipodi:nodetypes="cc"
     style="fill:none;stroke:#000000;stroke-width:1;stroke-miterlimit:4;stroke-dasharray:none"
     inkscape:connector-curvature="0"
     id="path995"
     d="M 81.101945,269.5 H 182.91284" />
  <path
     style="fill:none;stroke:#000000"
     inkscape:connector-curvature="0"
     id="path997"
     d="m 88.89483,265.34284 4.90909,4.36363 -4.90909,3.63637" />
  <path
     style="fill:none;stroke:#000000"
     inkscape:connector-curvature="0"
     id="path999"
     d="m 106.10687,167.83525 12.7246,-12.89862 m -13.59092,9.59091 6.59091,-6.63636 m 1.40909,6.63636 6.5909,-6.63636" />
  <path
     d="m 114.72099,195.17571 12.7246,-12.89862 m -13.59092,9.59091 6.59091,-6.63636 m 1.40909,6.63636 6.5909,-6.63636"
     id="path1001"
     inkscape:connector-curvature="0"
     style="fill:none;stroke:#000000" />
  <path
     style="fill:none;stroke:#000000"
     inkscape:connector-curvature="0"
     id="path1003"
     d="m 104.81702,249.87509 12.72461,-12.89862 m -13.59093,9.59091 6.59092,-6.63636 m 1.40909,6.63636 6.5909,-6.63636" />
  <path
     d="m 111.93303,227.778 12.72461,-12.89862 m -13.59093,9.59091 6.59092,-6.63636 m 1.40909,6.63636 6.5909,-6.63636"
     id="path1005"
     inkscape:connector-curvature="0"
     style="fill:none;stroke:#000000" />
  <rect
     y="143.22887"
     x="-44.137817"
     height="115.15029"
     width="138.11024"
     id="rect1007"
     style="fill:#ffffff;fill-opacity:0.90196078;stroke:none;stroke-width:0.99999994" />
</svg>
