<?xml version="1.0" encoding="UTF-8" standalone="no"?>
<!-- Created with Inkscape (http://www.inkscape.org/) -->

<svg
   xmlns:dc="http://purl.org/dc/elements/1.1/"
   xmlns:cc="http://creativecommons.org/ns#"
   xmlns:rdf="http://www.w3.org/1999/02/22-rdf-syntax-ns#"
   xmlns:svg="http://www.w3.org/2000/svg"
   xmlns="http://www.w3.org/2000/svg"
   xmlns:xlink="http://www.w3.org/1999/xlink"
   xmlns:sodipodi="http://sodipodi.sourceforge.net/DTD/sodipodi-0.dtd"
   xmlns:inkscape="http://www.inkscape.org/namespaces/inkscape"
   width="128"
   height="128"
   id="svg2"
   version="1.1"
   inkscape:version="0.48.2 r9819"
   sodipodi:docname="scull.svg">
  <defs
     id="defs4">
    <linearGradient
       id="linearGradient3792">
      <stop
         style="stop-color:#ffffff;stop-opacity:1;"
         offset="0"
         id="stop3794" />
      <stop
         style="stop-color:#e3d792;stop-opacity:1;"
         offset="1"
         id="stop3796" />
    </linearGradient>
    <radialGradient
       inkscape:collect="always"
       xlink:href="#linearGradient3792"
       id="radialGradient3800"
       cx="36.339355"
       cy="962.39691"
       fx="36.339355"
       fy="962.39691"
       r="50.651657"
       gradientTransform="matrix(0.83630704,0.87887795,-0.96008311,0.91357879,929.92952,43.198891)"
       gradientUnits="userSpaceOnUse" />
  </defs>
  <sodipodi:namedview
     id="base"
     pagecolor="#ffffff"
     bordercolor="#666666"
     borderopacity="1.0"
     inkscape:pageopacity="0.0"
     inkscape:pageshadow="2"
     inkscape:zoom="5.6"
     inkscape:cx="97.223155"
     inkscape:cy="53.561172"
     inkscape:document-units="px"
     inkscape:current-layer="layer1"
     showgrid="false"
     inkscape:window-width="1920"
     inkscape:window-height="1138"
     inkscape:window-x="-8"
     inkscape:window-y="-8"
     inkscape:window-maximized="1" />
  <metadata
     id="metadata7">
    <rdf:RDF>
      <cc:Work
         rdf:about="">
        <dc:format>image/svg+xml</dc:format>
        <dc:type
           rdf:resource="http://purl.org/dc/dcmitype/StillImage" />
        <dc:title></dc:title>
      </cc:Work>
    </rdf:RDF>
  </metadata>
  <g
     inkscape:label="Layer 1"
     inkscape:groupmode="layer"
     id="layer1"
     transform="translate(0,-924.36218)">
    <path
       id="path3002"
       style="fill:url(#radialGradient3800);fill-opacity:1;stroke:#35321a;stroke-width:4;stroke-linecap:round;stroke-linejoin:round;stroke-miterlimit:4;stroke-opacity:1;stroke-dasharray:none"
       d="m 63.441963,1027.5535 0,16.1429 m 13.642857,-17.3928 0,16.1429 m -27.321429,-15.9643 0,16.1429 m -11.307693,-2.2405 c 0,0 -2.298854,-32.0839 -7.097001,-35.1014 -10.208918,-5.7837 -15.666734,-21.64862 -15.488163,-34.60413 0.348641,-25.29421 22.962315,-42.33929 48.129463,-42.33929 25.167149,0 49.288243,17.06923 48.129473,42.33929 -0.61823,13.48221 -4.3528,28.65663 -15.488174,34.60413 -4.79814,3.0175 -7.097,35.1014 -7.097,35.1014 -18.349182,5.875 -34.939724,7.1995 -51.088598,0 z"
       inkscape:connector-curvature="0"
       sodipodi:nodetypes="ccccccccsssccc" />
    <path
       style="fill:#6c5e35;fill-opacity:1;stroke:#35321a;stroke-width:3;stroke-linejoin:round;stroke-miterlimit:4;stroke-opacity:1;stroke-dasharray:none"
       d="m 52.821429,1016.6436 c 7.019924,3.2228 15.396529,3.6209 22.357142,0 -9.738086,-25.30395 -13.176297,-25.20892 -22.357142,0 z"
       id="path3784"
       inkscape:connector-curvature="0"
       sodipodi:nodetypes="ccc" />
    <path
       sodipodi:type="arc"
       style="fill:#6c5e35;fill-opacity:1;stroke:#35321a;stroke-width:3.4678371;stroke-miterlimit:4;stroke-opacity:1;stroke-dasharray:none"
       id="path3786"
       sodipodi:cx="42.232143"
       sodipodi:cy="48.80357"
       sodipodi:rx="12.946428"
       sodipodi:ry="17.767857"
       d="m 55.178572,48.80357 a 12.946428,17.767857 0 1 1 -25.892857,0 12.946428,17.767857 0 1 1 25.892857,0 z"
       transform="matrix(0.86206896,0,0,0.86812676,10.25369,943.58378)" />
    <path
       transform="matrix(0.82068965,0,0,0.82856479,46.78695,945.1574)"
       d="m 55.178572,48.80357 a 12.946428,17.767857 0 1 1 -25.892857,0 12.946428,17.767857 0 1 1 25.892857,0 z"
       sodipodi:ry="17.767857"
       sodipodi:rx="12.946428"
       sodipodi:cy="48.80357"
       sodipodi:cx="42.232143"
       id="path3788"
       style="fill:#6c5e35;fill-opacity:1;stroke:#35321a;stroke-width:3.63804889;stroke-miterlimit:4;stroke-opacity:1;stroke-dasharray:none"
       sodipodi:type="arc" />
    <path
       style="fill:none;stroke:#35321a;stroke-width:3;stroke-linecap:butt;stroke-linejoin:miter;stroke-miterlimit:4;stroke-opacity:1;stroke-dasharray:none"
       d="m 36.607143,1022.0229 c 17.011346,6.4059 34.597956,6.5479 54.464286,0"
       id="path3790"
       inkscape:connector-curvature="0"
       sodipodi:nodetypes="cc" />
  </g>
</svg>
