<svg height="128" width="200" xmlns="http://www.w3.org/2000/svg">
<g transform="translate(27.52 -.75)">
<g fill="none" stroke="#000">
<path d="m3.5 76.58h134.42" stroke-width="7"/>
<path d="m20.5 43v34.29"/>
<path d="m94.68 43.18v34.47"/>
<path d="m22.74 48.5h70.96" stroke-width=".9"/>
<path d="m28.73 43.45-6.91 5.09 6.91 4.36m58.73 0 6-4.36-6-5.09"/>
<path d="m123.27 59.45 18.18 16.73-17.82 16.36" stroke-linecap="round" stroke-width="7"/>
</g>
<text font-family="Times New Roman" font-size="10" font-style="italic" x="46.26" y="43.19"><tspan font-size="36" x="46.26" y="43.19">L</tspan></text>
<path d="m116.25 7c-11.79 8.92 1.99 21.17 1.84 31-.17 11.92-10.03 15.97-5.28 25.46 5.66 11.3-3.47 20.24-4.17 29.67-.75 10.14 8.48 10.28 8.76 19.39.21 6.65-2.83 10.1-6.16 13.72" fill="none" stroke="#000"/>
<path d="m11.25 4.75c-6.76 10.07 1.51 18.01 1.67 25.24.22 9.66-6.33 16.24-1.11 26.68 4.18 8.35 3.95 17.54-.81 25.22-5.95 9.62 5.54 15.3 4.3 24.89-.9 6.94-6.76 10.48-9.3 16.22" fill="none" stroke="#000"/>
<text font-family="Times New Roman" font-size="10" font-style="italic" x="69.64" y="121.99"><tspan font-size="36" x="69.64" y="121.99">n</tspan></text>
<g fill="none" stroke="#000">
<path d="m90.87 20.2 12.72-12.9m-13.59 9.59 6.59-6.64m1.41 6.64 6.59-6.64"/>
<path d="m74.82 41.45 12.72-12.9m-13.59 9.59 6.59-6.64m1.41 6.64 6.59-6.64"/>
<path d="m14.07 18.65 12.72-12.9m-13.59 9.59 6.59-6.64m1.41 6.64 6.59-6.64"/>
<path d="m32.07 68.2 12.72-12.9m-13.59 9.59 6.59-6.64m1.41 6.64 6.59-6.64"/>
<path d="m65.32 68.2 12.72-12.9m-13.59 9.59 6.59-6.64m1.41 6.64 6.59-6.64"/>
<path d="m87.87 97.2 12.72-12.9m-13.59 9.59 6.59-6.64m1.41 6.64 6.59-6.64"/>
<path d="m19.57 97.7 12.72-12.9m-13.59 9.59 6.59-6.64m1.41 6.64 6.59-6.64"/>
<path d="m45.87 117.45 12.72-12.9m-13.59 9.59 6.59-6.64m1.41 6.64 6.59-6.64"/>
<path d="m18.57 121.2 12.72-12.9m-13.59 9.59 6.59-6.64m1.41 6.64 6.59-6.64"/>
<path d="m101.28 49.2 12.72-12.9m-13.59 9.59 6.59-6.64m1.41 6.64 6.59-6.64"/>
<path d="m96.28 121.95 12.72-12.9m-13.59 9.59 6.59-6.64m1.41 6.64 6.59-6.64"/>
<path d="m56.07 95.7 12.72-12.9m-13.59 9.59 6.59-6.64m1.41 6.64 6.59-6.64"/>
<path d="m63.82 17.2 12.72-12.9m-13.59 9.59 6.59-6.64m1.41 6.64 6.59-6.64"/>
<path d="m24.57 36.95 12.72-12.9m-13.59 9.59 6.59-6.64m1.41 6.64 6.59-6.64"/>
</g>
</g>
</svg>
