<svg height="250" width="200" xmlns="http://www.w3.org/2000/svg">
<g fill="none">
<path d="m69 64.73v128.47m52-128.47v128.47" stroke="#8c8c8c"/>
<g stroke="#000">
<path d="m61.88 135.47-3.13 5.06c14.38 28.67 14.48 68.54.56 100.03l2.75 3.94h67.03l2.72-3.94c-14.8-31.49-14.53-71.36.56-100.03l-3.09-5.06z" stroke-width="3"/>
<path d="m78.47 5.47c-13.26 24.93-13.26 84.46 0 109.03h24.63c26.45-25.58 21.06-85.1 0-109.03z" stroke-width="3"/>
<path d="m75.14 154.23 12.72-12.9m-13.59 9.59 6.59-6.64m1.41 6.64 6.59-6.64"/>
<path d="m71.14 237.23 12.72-12.9m-13.59 9.59 6.59-6.64m1.41 6.64 6.59-6.64"/>
<path d="m74.34 55.5 12.72-12.9m-13.59 9.59 6.59-6.64m1.41 6.64 6.59-6.64"/>
<path d="m76.34 86.9 12.72-12.9m-13.59 9.59 6.59-6.64m1.41 6.64 6.59-6.64"/>
<path d="m80.23 24.89 12.72-12.9m-13.59 9.59 6.59-6.64m1.41 6.64 6.59-6.64"/>
<g stroke-width="7" transform="translate(-19.18 1.23)">
<path d="m20.5 63.36h186.42"/>
<path d="m190.82 46.78 18.18 16.73-17.82 16.36" stroke-linecap="round"/>
</g>
<g stroke-width="7" transform="translate(-19.18 128.87)">
<path d="m20.5 63.36h186.42"/>
<path d="m190.82 46.78 18.18 16.73-17.82 16.36" stroke-linecap="round"/>
</g>
<path d="m78.83 176.5 12.72-12.9m-13.59 9.59 6.59-6.64m1.41 6.64 6.59-6.64"/>
<path d="m101.9 155.55 12.72-12.9m-13.59 9.59 6.59-6.64m1.41 6.64 6.59-6.64"/>
<path d="m97.13 183.77 12.72-12.9m-13.59 9.59 6.59-6.64m1.41 6.64 6.59-6.64"/>
<path d="m96.86 222.13 12.72-12.9m-13.59 9.59 6.59-6.64m1.41 6.64 6.59-6.64"/>
<path d="m106.72 239.38 12.72-12.9m-13.59 9.59 6.59-6.64m1.41 6.64 6.59-6.64"/>
<path d="m78.55 212.97 12.72-12.9m-13.59 9.59 6.59-6.64m1.41 6.64 6.59-6.64"/>
<path d="m94.5 37.82 12.72-12.9m-13.59 9.59 6.59-6.64m1.41 6.64 6.59-6.64"/>
<path d="m86.6 107.76 12.72-12.9m-13.59 9.59 6.59-6.64m1.41 6.64 6.59-6.64"/>
<path d="m101.45 86.9 12.72-12.9m-13.59 9.59 6.59-6.64m1.41 6.64 6.59-6.64"/>
<path d="m102.27 58.68 12.72-12.9m-13.59 9.59 6.59-6.64m1.41 6.64 6.59-6.64"/>
</g>
</g>
<g font-family="Times New Roman" font-style="italic">
<g transform="translate(-2 -2)">
<text font-size="10" x="5.73" y="181.17"><tspan font-size="28" x="5.73" y="181.17">R &gt;0</tspan></text>
<text font-size="5.18" x="20.43" y="186.17"><tspan font-size="18.66" x="20.43" y="186.17">1</tspan></text>
</g>
<text font-size="10" x="135.73" y="164.17"><tspan font-size="28" x="135.73" y="164.17">R &lt;0</tspan></text>
<text font-size="5.18" x="150.66" y="169.67"><tspan font-size="18.66" x="150.66" y="169.67">2</tspan></text>
<g transform="translate(0 -130)">
<text font-size="10" x="5.73" y="181.17"><tspan font-size="28" x="5.73" y="181.17">R &lt;0</tspan></text>
<text font-size="5.18" x="20.43" y="186.17"><tspan font-size="18.66" x="20.43" y="186.17">1</tspan></text>
</g>
<g transform="translate(-6 -134)">
<text font-size="10" x="135.73" y="164.17"><tspan font-size="28" x="135.73" y="164.17">R &gt;0</tspan></text>
<text font-size="5.18" x="150.13" y="169.67"><tspan font-size="18.66" x="150.13" y="169.67">2</tspan></text>
</g>
</g>
<path d="m123.1 121.66h17.81" fill="none" stroke="#000" stroke-width="1.02"/>
<path d="m127.14 117.34-4.91 4.18 4.91 3.82" fill="none" stroke="#000"/>
<text font-family="Times New Roman" font-size="10" font-style="italic" x="28" y="119.37"><tspan font-size="36" x="28" y="119.37">L</tspan></text>
<g fill="none" stroke="#000">
<path d="m21.1 121.66h45.81" stroke-width="1.02"/>
<path d="m62.89 117.34 4.91 4.36-4.91 3.64"/>
<path d="m61.1 121.66h65.81" stroke-width="1.02"/>
<g transform="matrix(.97 -.26 .26 .97 -5.88 157.6)">
<path d="m129.86 98.59-28.55-22.91" stroke-width="1.5"/>
<path d="m102.77 81.68-1.82-6.36 7.45 1.27"/>
</g>
</g>
<text font-family="Times New Roman" font-size="10" font-style="italic" x="146.8" y="234.26"><tspan font-size="36" x="146.8" y="234.26">n</tspan></text>
</svg>
