<svg height="150" width="200" xmlns="http://www.w3.org/2000/svg">
  <g transform="translate(39.25 3.118028)">
    <g fill="none" stroke="#000">
      <path d="m3.5 79.488632h114.42273" stroke-width="7"/>
      <path d="m18.5 29v34.287026"/>
      <path d="m88.5 28.818182v34.468844"/>
      <path d="m20.601945 32.5h65.810898" stroke-width="1.021851"/>
      <path d="m19.5 49.500008h68v67h-68z" stroke-width="3"/>
      <path d="m27.1362 101.42263 12.7246-12.89862m-13.59092 9.590909 6.5909-6.636364m1.4091 6.636364 6.5909-6.636364"/>
      <path d="m43.1362 113.42263 12.7246-12.89862m-13.59092 9.59091 6.5909-6.63636m1.4091 6.63636 6.5909-6.63636"/>
      <path d="m67.1362 99.42263 12.7246-12.89862m-13.59092 9.59091 6.5909-6.636365m1.4091 6.636365 6.5909-6.636365"/>
      <path d="m27.1362 67.42263 12.7246-12.89862m-13.59092 9.59091 6.5909-6.63636m1.4091 6.63636 6.5909-6.63636"/>
      <path d="m47.1362 67.42263 12.7246-12.89862m-13.59092 9.59091 6.5909-6.63636m1.4091 6.63636 6.5909-6.63636"/>
      <path d="m69.1362 67.42263 12.7246-12.89862m-13.59092 9.59091 6.5909-6.63636m1.4091 6.63636 6.5909-6.63636"/>
      <path d="m95.454545 129.09091-28.545454-22.90909" stroke-width="1.5"/>
      <path d="m68.363636 112.18182-1.818181-6.36364 7.454545 1.27273"/>
      <path d="m99.818182 62.909091 18.181818 16.727273-17.81818 16.363636" stroke-linecap="round" stroke-width="7"/>
      <path d="m82.394831 28.181818 4.909091 4.363637-4.909091 3.636363m-57.752006-8-4.909091 4.181818 4.909091 3.818182"/>
    </g>
    <text font-family="Times New Roman" font-size="10" font-style="italic" x="97.452179" y="137.71481"><tspan font-size="36" x="97.452179" y="137.71481">n</tspan></text>
    <text font-family="Times New Roman" font-size="10" font-style="italic" x="45.254841" y="29.463194"><tspan font-size="36" x="45.254841" y="29.463194">L</tspan></text>
  </g>
</svg>
