<svg height="385" width="260" xmlns="http://www.w3.org/2000/svg" xmlns:xlink="http://www.w3.org/1999/xlink">
<linearGradient id="a" gradientTransform="matrix(1.11 0 0 1 5.1 171)" gradientUnits="userSpaceOnUse" x1="75.63" x2="75.63" y1="48.89" y2="206.11">
<stop offset="0" stop-color="#6a6a6a"/>
<stop offset=".5" stop-color="#f0f0f0"/>
<stop offset="1" stop-color="#6a6a6a"/>
</linearGradient>
<linearGradient id="b" gradientTransform="matrix(1.11 0 0 1 5.1 1)" gradientUnits="userSpaceOnUse" x1="75.63" x2="75.63" y1="48.89" y2="206.81">
<stop offset="0" stop-color="#f0f0f0"/>
<stop offset=".5" stop-color="#6a6a6a"/>
<stop offset="1" stop-color="#f0f0f0"/>
</linearGradient>
<path d="m26.83 220.5h130.34c5.31 4.09 12.72 16.41 3.93 31.25-13.21 22.29-2.5 25.88 2.71 41.28 6.39 18.92-17.85 32.36-3.31 55.15 12.1 18.96-6.53 26.36-3.33 29.32h-130.34c4.35-10.63 8.33-23.41.75-36.17-9.95-16.75 9.78-34.82 3.75-46.66-10.47-20.56-7.37-35.69-2.75-43.56 4.64-7.91 6.32-19.19-1.75-30.61z" fill="url(#a)"/>
<g fill="none" stroke="#000">
<path d="m3.5 299h250.42" stroke-width="4"/>
<path d="m248 305 7-6-7-6" stroke-linecap="round" stroke-width="3"/>
<path d="m252.5 235.22.71-9.19-9.19.71" stroke-linecap="round" stroke-width="3"/>
<path d="m3.5 280h66.8c80.53 0 134.87-14.59 181.62-51.99" stroke-width="4"/>
<path d="m27.5 220.5h129m0 157h-129" stroke-width="3"/>
</g>
<path d="m26.83 50.5h130.34c5.31 4.09 12.72 16.41 3.93 31.25-13.21 22.29-2.5 25.88 2.71 41.28 6.39 18.92-17.85 32.36-3.31 55.15 12.1 18.96-6.53 26.36-3.33 29.32h-130.34c4.35-10.63 8.33-23.41.75-36.17-9.95-16.75 9.78-34.82 3.75-46.66-10.47-20.56-7.37-35.69-2.75-43.56 4.64-7.91 6.32-19.19-1.75-30.61z" fill="url(#b)"/>
<path d="m3.5 129h250.42" fill="none" stroke="#000" stroke-width="4"/>
<path d="m135.64 27.18 4.91 4.36-4.91 3.64m-87-8-4.91 4.18 4.91 3.82m-4.23-3.68h95.47" fill="none" stroke="#000"/>
<text font-family="Times New Roman" font-size="10" font-style="italic" x="83.25" y="26.99"><tspan font-size="36" x="83.25" y="26.99">L</tspan></text>
<g fill="none" stroke="#000">
<path d="m3.5 68.06h66.8c80.53 0 134.88 42.59 181.63 79.99" stroke-width="4"/>
<path d="m42.5 27.82v22.47m99-22.47v22.47"/>
<g stroke-linecap="round" stroke-width="3">
<path d="m248 135 7-6-7-6"/>
<path d="m252.5 117.22.71-9.19-9.19.71"/>
<path d="m252.5 140.8.71 9.19-9.19-.71"/>
</g>
</g>
<g font-family="Times New Roman" font-style="italic" transform="translate(13.6 -.29)">
<text font-size="10" x="64" y="115.02"><tspan font-size="36" x="64" y="115.02">n</tspan></text>
<text font-size="7.02" transform="scale(.99 1.01)" x="80.3" y="122.41"><tspan font-size="25.28" x="80.3" y="122.41">0</tspan></text>
</g>
<g fill="none" stroke="#000">
<path d="m3.5 190h66.8c80.53 0 134.87-42.59 181.62-79.99" stroke-width="4"/>
<path d="m27.5 50.5h129m0 157h-129" stroke-width="3"/>
<path d="m42.5 51.82v154.47m99-154.47v154.47" stroke-dasharray="3 3"/>
</g>
<g font-family="Times New Roman" font-style="italic" transform="translate(109.78 -40.54)">
<text font-size="10" x="64" y="115.02"><tspan font-size="36" x="64" y="115.02">n &gt;0</tspan></text>
<text font-size="7.02" transform="scale(.99 1.01)" x="80.3" y="122.41"><tspan font-size="25.28" x="80.3" y="122.41">2</tspan></text>
</g>
<g font-family="Times New Roman" font-style="italic" transform="translate(105.13 118.09)">
<text font-size="10" x="64" y="115.02"><tspan font-size="36" x="64" y="115.02">n &lt;0</tspan></text>
<text font-size="7.02" transform="scale(.99 1.01)" x="80.3" y="122.41"><tspan font-size="25.28" x="80.3" y="122.41">2</tspan></text>
</g>
<g fill="none" stroke="#000">
<path d="m252.5 363.18.71 9.19-9.19-.71" stroke-linecap="round" stroke-width="3"/>
<path d="m3.5 318.4h66.8c80.53 0 134.87 14.59 181.62 51.99" stroke-width="4"/>
</g>
</svg>
