<?xml version="1.0" encoding="UTF-8" standalone="no"?>
<svg
   xmlns:dc="http://purl.org/dc/elements/1.1/"
   xmlns:cc="http://creativecommons.org/ns#"
   xmlns:rdf="http://www.w3.org/1999/02/22-rdf-syntax-ns#"
   xmlns:svg="http://www.w3.org/2000/svg"
   xmlns="http://www.w3.org/2000/svg"
   xmlns:xlink="http://www.w3.org/1999/xlink"
   version="1.0"
   id="svg2160"
   height="24"
   width="24">
  <defs
     id="defs2162">
    <linearGradient
       id="linearGradient3261">
      <stop
         id="stop3263"
         offset="0"
         style="stop-color:#dbf6ff;stop-opacity:1;" />
      <stop
         id="stop3265"
         offset="1"
         style="stop-color:#7ddcfd;stop-opacity:1;" />
    </linearGradient>
    <linearGradient
       gradientTransform="translate(-1.212836,-9.7178e-3)"
       gradientUnits="userSpaceOnUse"
       y2="23"
       x2="9.9385099"
       y1="1.0479119"
       x1="10.088602"
       id="linearGradient3634"
       xlink:href="#linearGradient3261" />
    <marker
       style="overflow:visible"
       id="TriangleOutM"
       refX="0"
       refY="0"
       orient="auto">
      <path
         transform="scale(0.4,0.4)"
         style="fill-rule:evenodd;stroke:#000000;stroke-width:1pt;marker-start:none"
         d="M 5.77,0 L -2.88,5 L -2.88,-5 L 5.77,0 z "
         id="path7131" />
    </marker>
    <marker
       style="overflow:visible"
       id="TriangleOutS"
       refX="0"
       refY="0"
       orient="auto">
      <path
         transform="scale(0.2,0.2)"
         style="fill-rule:evenodd;stroke:#000000;stroke-width:1pt;marker-start:none"
         d="M 5.77,0 L -2.88,5 L -2.88,-5 L 5.77,0 z "
         id="path7134" />
    </marker>
    <marker
       style="overflow:visible"
       id="TriangleInS"
       refX="0"
       refY="0"
       orient="auto">
      <path
         transform="scale(-0.2,-0.2)"
         style="fill-rule:evenodd;stroke:#000000;stroke-width:1pt;marker-start:none"
         d="M 5.77,0 L -2.88,5 L -2.88,-5 L 5.77,0 z "
         id="path7125" />
    </marker>
    <marker
       style="overflow:visible"
       id="Arrow2Mend"
       refX="0"
       refY="0"
       orient="auto">
      <path
         transform="scale(-0.6,-0.6)"
         d="M 8.7185878,4.0337352 L -2.2072895,0.016013256 L 8.7185884,-4.0017078 C 6.97309,-1.6296469 6.9831476,1.6157441 8.7185878,4.0337352 z "
         style="font-size:12px;fill-rule:evenodd;stroke-width:0.625;stroke-linejoin:round"
         id="path7057" />
    </marker>
    <marker
       style="overflow:visible"
       id="Arrow1Mend"
       refX="0"
       refY="0"
       orient="auto">
      <path
         transform="matrix(-0.4,0,0,-0.4,-4,0)"
         style="fill-rule:evenodd;stroke:#000000;stroke-width:1pt;marker-start:none"
         d="M 0,0 L 5,-5 L -12.5,0 L 5,5 L 0,0 z "
         id="path7039" />
    </marker>
  </defs>
  <metadata
     id="metadata2165">
    <rdf:RDF>
      <cc:Work
         rdf:about="">
        <dc:format>image/svg+xml</dc:format>
        <dc:type
           rdf:resource="http://purl.org/dc/dcmitype/StillImage" />
        <dc:title></dc:title>
      </cc:Work>
    </rdf:RDF>
  </metadata>
  <g
     style="display:inline"
     id="layer1">
    <path
       id="path6056"
       d="M 1.560891,22.471039 L 22.493565,1.5834158"
       style="fill:none;fill-rule:evenodd;stroke:#ff0000;stroke-width:3;stroke-linecap:round;stroke-linejoin:miter;marker-end:none;stroke-miterlimit:4;stroke-dasharray:none;stroke-opacity:1" />
    <path
       id="path8202"
       d="M 17.500493,1.5225248 L 22.477475,1.5225248 L 22.477475,6.5352268"
       style="fill:none;fill-rule:evenodd;stroke:#ff0000;stroke-width:3;stroke-linecap:round;stroke-linejoin:round;stroke-miterlimit:4;stroke-dasharray:none;stroke-opacity:1" />
    <path
       id="path8631"
       d="M 7.759544,0.7642311 C 7.759544,0.7642311 10.013768,0.7642311 10.013768,0.7642311 C 10.013768,0.7642311 13.079874,6.187473 13.108929,11.945233 C 13.137985,17.702994 10.013768,23.25 10.013768,23.25 C 10.013768,23.25 7.759544,23.25 7.759544,23.25 C 7.683197,15.719987 7.663106,8.4393739 7.759544,0.7642311 z"
       style="fill:url(#linearGradient3634);fill-opacity:1;fill-rule:evenodd;stroke:#00b4ff;stroke-width:1.5;stroke-miterlimit:4;stroke-dashoffset:0;stroke-opacity:1" />
    <path
       id="path3636-3"
       d="M 5.017501,19.060038 16.11805,7.9594891"
       style="fill:none;fill-rule:evenodd;stroke:#ff0000;stroke-width:3;stroke-linecap:butt;stroke-linejoin:miter;stroke-miterlimit:4;stroke-dasharray:none;stroke-opacity:0.31666667" />
    <g
       id="text27865"
       style="font-style:normal;font-variant:normal;font-weight:bold;font-stretch:normal;font-size:15.08029461px;line-height:125%;font-family:FreeSerif;-inkscape-font-specification:'FreeSerif, Bold';text-align:start;writing-mode:lr-tb;text-anchor:start;display:inline;fill:#000000;fill-opacity:1;stroke:none;stroke-width:1px;stroke-linecap:butt;stroke-linejoin:miter;stroke-opacity:1"
       transform="scale(1.1059606,0.90419136)">
      <path
         id="path4213"
         style="font-style:normal;font-variant:normal;font-weight:bold;font-stretch:normal;font-size:15.08029461px;line-height:125%;font-family:FreeSerif;-inkscape-font-specification:'FreeSerif, Bold';text-align:start;writing-mode:lr-tb;text-anchor:start"
         d="m 17.05891,14.430734 q 0.723854,0 1.50803,0.256365 0.784175,0.241284 0.889737,0.241284 0.196044,0 0.301606,-0.105562 0.105562,-0.120642 0.180964,-0.407168 l 0.452408,0 0,3.272424 -0.422248,0 q -0.437328,-1.432628 -1.221504,-2.111241 -0.769095,-0.678613 -1.688993,-0.678613 -0.769095,0 -1.221504,0.407168 -0.437328,0.407168 -0.437328,1.100861 0,0.542891 0.316686,0.904818 0.331767,0.346847 1.236584,0.799256 l 2.216804,1.100861 q 0.723854,0.361927 1.191343,1.131022 0.467489,0.769095 0.467489,1.613592 0,1.417547 -1.04054,2.307285 -1.02546,0.874657 -2.699373,0.874657 -0.814336,0 -1.628672,-0.256365 -0.799256,-0.256365 -0.950058,-0.256365 -0.331767,0 -0.452409,0.51273 l -0.437329,0 0,-3.724833 0.437329,0 q 0.784175,3.227183 3.07638,3.227183 0.874657,0 1.387387,-0.467489 0.51273,-0.467489 0.51273,-1.251664 0,-0.588132 -0.346847,-0.965139 -0.346847,-0.377008 -1.342146,-0.844497 l -1.01038,-0.482569 q -1.342146,-0.648453 -1.960438,-1.387387 -0.618292,-0.754015 -0.618292,-1.749314 0,-1.432628 0.874657,-2.246964 0.889737,-0.814336 2.427927,-0.814336 z" />
    </g>
  </g>
</svg>
