<svg height="128" width="200" xmlns="http://www.w3.org/2000/svg">
<path d="m132.95 64v36.86h-75v-36.86z" style="fill:#fff;fill-opacity:.8;stroke:#4d4d4d;stroke-width:3;stroke-linecap:round;stroke-linejoin:round"/>
<path d="m84.56 74.45-1.31 5.69h-.47l-.05-1.43q-.06-.78-.3-1.39-.23-.61-.7-1.05-.47-.45-1.18-.7-.71-.26-1.58-.26-2.32 0-4.06 1.27-2.22 1.62-3.48 4.58-1.04 2.44-1.04 4.94 0 2.55 1.49 4.09 1.49 1.52 3.88 1.52 1.8 0 3.2-.8 1.41-.8 2.62-2.48h.61q-1.43 2.27-3.16 3.35-1.74 1.06-4.16 1.06-2.15 0-3.81-.89-1.66-.91-2.53-2.54-.87-1.63-.87-3.51 0-2.88 1.54-5.6 1.54-2.72 4.23-4.28 2.7-1.56 5.43-1.56 1.28 0 2.88.61.7.26 1.01.26.31 0 .54-.13.23-.13.78-.74z" fill="#4d4d4d"/>
<path d="m109.95 75.33.16-.48h5.62q3.57 0 5.28.82 1.72.82 2.75 2.58 1.02 1.75 1.02 3.76 0 1.72-.6 3.36-.58 1.62-1.34 2.61-.74.97-2.28 2.15-1.54 1.18-3.35 1.75-1.8.56-4.5.56h-7.44l.17-.48q1.02-.03 1.37-.18.52-.22.77-.6.38-.54.84-2.19l3.11-10.63q.36-1.26.36-1.97 0-.51-.34-.78-.34-.27-1.32-.27zm4.6.49-3.81 13.16q-.43 1.48-.43 1.83 0 .21.13.4.14.19.38.26.34.12 1.09.12 2.04 0 3.77-.42 1.75-.43 2.87-1.26 1.58-1.21 2.53-3.32.95-2.11.95-4.81 0-3.05-1.45-4.53-1.45-1.49-4.24-1.49-.69 0-1.78.05z" fill="#4d4d4d"/>
<path d="m95.75 64.36v36.29" fill="none" stroke="#4d4d4d" stroke-dasharray="3 3"/>
<path d="m93.24 44.48h75.61l-39.61 19.53-74.51-.54z" fill="#fff" fill-opacity=".8" stroke="#6f6f6f" stroke-linejoin="round" stroke-width="3"/>
<path d="m128.84 45.56-36.01 17.76" fill="none" stroke="#4d4d4d" stroke-dasharray="3 3"/>
<path d="m153.55 64.88-.98 10.75q-.08.75-.08.99 0 .38.14.58.18.28.49.41.31.13 1.05.13l-.1.35h-5.09l.1-.35h.22q.62 0 1.01-.27.28-.18.43-.6.1-.3.2-1.39l.15-1.64h-3.7l-1.32 1.78q-.45.6-.56.87-.11.26-.11.49 0 .3.25.52.25.22.82.24l-.1.35h-3.82l.1-.35q.71-.03 1.24-.47.54-.45 1.61-1.9l7.72-10.5zm-1.89 3.17-3.75 5.1h3.25z" fill="#6f6f6f" stroke-width=".73" transform="matrix(1.36 0 -1.5 .73 0 0)"/>
<path d="m174.3 65.38.13-.35h4.61q1.16 0 2.07.36.91.36 1.36 1.01.46.65.46 1.37 0 1.12-.81 2.02-.8.9-2.62 1.32 1.17.44 1.72 1.16.55.72.55 1.59 0 .96-.5 1.84-.5.88-1.28 1.36-.77.49-1.87.71-.78.16-2.44.16h-4.74l.12-.35q.74-.02 1.01-.14.38-.16.54-.43.23-.36.61-1.66l2.32-7.82q.3-.99.3-1.39 0-.35-.27-.55-.26-.21-.99-.21-.16 0-.3-.01zm1.93 5.37q.62.02.9.02 1.98 0 2.94-.86.97-.87.97-2.16 0-.98-.59-1.52-.59-.55-1.89-.55-.34 0-.88.11zm-1.88 6.37q1.03.13 1.61.13 1.49 0 2.63-.9 1.15-.9 1.15-2.43 0-1.17-.71-1.83-.71-.66-2.29-.66-.3 0-.74.03z" fill="#6f6f6f" stroke-width=".73" transform="matrix(1.36 0 -1.5 .73 0 0)"/>
<path d="m134.38 63.44-43.68 21.54h-75.61l43.99-21.69z" fill="#fff" fill-opacity=".91" stroke="#000" stroke-linejoin="round" stroke-width="3"/>
<path d="m96.41 63.52-45.49 22.43" fill="none" stroke="#000" stroke-dasharray="3 3"/>
<path d="m157.5 95.74-.96 4.18h-.34l-.04-1.05q-.05-.57-.22-1.02-.17-.45-.51-.77-.34-.33-.87-.51-.52-.19-1.16-.19-1.71 0-2.98.93-1.63 1.19-2.55 3.36-.76 1.79-.76 3.63 0 1.88 1.1 3 1.1 1.12 2.85 1.12 1.32 0 2.35-.59 1.04-.59 1.93-1.82h.45q-1.05 1.67-2.33 2.46-1.28.78-3.06.78-1.58 0-2.8-.66-1.22-.67-1.86-1.87-.64-1.2-.64-2.58 0-2.12 1.13-4.12 1.13-2 3.11-3.14 1.98-1.14 3.99-1.14.94 0 2.12.45.51.19.74.19.23 0 .4-.1.17-.1.57-.54z" stroke-width=".73" transform="matrix(1.36 0 -1.5 .73 0 0)"/>
<path d="m176.16 96.39.11-.35h4.13q2.62 0 3.88.6 1.27.6 2.02 1.9.75 1.29.75 2.76 0 1.27-.44 2.47-.43 1.19-.98 1.92-.54.71-1.68 1.58-1.13.87-2.46 1.29-1.32.41-3.31.41h-5.47l.12-.35q.75-.02 1.01-.13.38-.16.56-.44.28-.4.62-1.61l2.29-7.81q.27-.92.27-1.45 0-.37-.25-.57-.25-.2-.97-.2zm3.38.36-2.8 9.67q-.31 1.09-.31 1.34 0 .15.1.3.1.14.28.19.25.09.8.09 1.5 0 2.77-.3 1.29-.31 2.11-.92 1.16-.89 1.86-2.44.7-1.55.7-3.54 0-2.24-1.07-3.33-1.07-1.1-3.12-1.1-.51 0-1.31.04z" stroke-width=".73" transform="matrix(1.36 0 -1.5 .73 0 0)"/>
<path d="m57.95 26.36h75v36.64h-75z" style="fill:#fff;fill-opacity:.8;stroke:#000;stroke-width:3;stroke-linecap:round;stroke-linejoin:round"/>
<path d="m83.17 32.45-1.34 14.63q-.1 1.02-.1 1.35 0 .52.19.79.25.38.66.56.43.18 1.43.18l-.14.48h-6.93l.14-.48h.3q.84 0 1.37-.36.38-.25.58-.82.14-.4.27-1.89l.21-2.23h-5.03l-1.79 2.43q-.61.82-.77 1.18-.16.35-.16.66 0 .42.34.71.34.3 1.12.32l-.14.48h-5.2l.14-.48q.96-.04 1.69-.64.74-.61 2.19-2.58l10.52-14.29zm-2.57 4.32-5.1 6.94h4.42z"/>
<path d="m111.42 33.13.18-.48h6.28q1.58 0 2.81.49 1.25.49 1.85 1.37.62.88.62 1.87 0 1.52-1.1 2.75-1.09 1.22-3.57 1.8 1.6.6 2.35 1.58.75.99.75 2.17 0 1.31-.67 2.5-.67 1.19-1.74 1.85-1.05.66-2.54.97-1.06.22-3.32.22h-6.45l.17-.48q1.01-.03 1.37-.19.52-.22.74-.58.31-.49.83-2.26l3.15-10.65q.4-1.35.4-1.89 0-.48-.36-.75-.35-.29-1.35-.29-.22 0-.42-.01zm2.63 7.3q.84.03 1.22.03 2.7 0 4.01-1.17 1.32-1.18 1.32-2.94 0-1.34-.8-2.08-.8-.75-2.57-.75-.47 0-1.19.16zm-2.55 8.66q1.4.18 2.19.18 2.02 0 3.58-1.22 1.57-1.22 1.57-3.31 0-1.6-.97-2.49-.96-.89-3.11-.89-.42 0-1.01.04z"/>
<g fill="none" stroke="#000">
<path d="m95.75 26.36v36.29" stroke-dasharray="3 3"/>
<g stroke-width="7">
<path d="m156.07 47.06 18.18 16.73-17.82 16.36" stroke-linecap="round"/>
<path d="m23.75 63.61h146.42"/>
</g>
</g>
</svg>
