<svg height="220" width="260" xmlns="http://www.w3.org/2000/svg" xmlns:xlink="http://www.w3.org/1999/xlink">
<linearGradient id="a" gradientTransform="matrix(1.11 0 0 1 -5.27 7.63)" gradientUnits="userSpaceOnUse" x1="75.63" x2="75.63" y1="48.89" y2="206.81">
<stop offset="0" stop-color="#f0f0f0"/>
<stop offset=".5" stop-color="#6a6a6a"/>
<stop offset="1" stop-color="#f0f0f0"/>
</linearGradient>
<path d="m16.46 57.13h130.34c5.31 4.09 12.72 16.41 3.93 31.25-13.21 22.29-2.5 25.88 2.71 41.28 6.39 18.92-17.85 32.36-3.31 55.15 12.1 18.96-6.53 26.36-3.33 29.32h-130.34c4.35-10.63 8.33-23.41.75-36.17-9.95-16.75 9.78-34.82 3.75-46.66-10.47-20.56-7.37-35.69-2.75-43.56 4.64-7.91 6.32-19.19-1.75-30.61z" fill="url(#a)"/>
<path d="m3.5 134h250.42" fill="none" stroke="#000" stroke-width="4"/>
<path d="m123.64 32.18 4.91 4.36-4.91 3.64m-87-8-4.91 4.18 4.91 3.82m-4.23-3.68h95.47" fill="none" stroke="#000"/>
<path d="m87.76 31.99h-17.67l.25-.65q1.41-.04 1.88-.23.74-.32 1.09-.83.54-.81 1.16-2.92l4.2-14.49q.53-1.79.53-2.64 0-.67-.49-1.04-.47-.37-1.81-.37-.3 0-.47-.02l.21-.65h9.72l-.14.65q-1.63 0-2.32.32-.69.32-1.14 1.04-.32.47-1.04 2.95l-4.13 14.26q-.47 1.62-.47 2.25 0 .42.47.81.3.26 1.35.26h2.3q2.51 0 3.99-.63 1.09-.47 2-1.42.49-.53 1.74-2.62l.46-.79h.65z"/>
<g fill="none" stroke="#000">
<path d="m3.5 73.06h66.8c80.53 0 134.88 42.59 181.63 79.99" stroke-width="4"/>
<path d="m30.5 32.82v22.47m99-22.47v22.47"/>
<g stroke-linecap="round" stroke-width="3" transform="translate(0 5)">
<path d="m248 135 7-6-7-6"/>
<path d="m252.5 117.22.71-9.19-9.19.71"/>
<path d="m252.5 140.8.71 9.19-9.19-.71"/>
</g>
</g>
<path d="m73.55 103.82-2.34 8q3.29-4.9 5.03-6.45 1.76-1.55 3.38-1.55.88 0 1.44.58.58.58.58 1.51 0 1.05-.51 2.81l-2.14 7.4q-.37 1.28-.37 1.56 0 .25.14.42.14.16.3.16.21 0 .51-.23.93-.74 2.04-2.25l.54.33q-1.63 2.34-3.09 3.34-1.02.69-1.83.69-.65 0-1.04-.4-.39-.39-.39-1.05 0-.84.6-2.9l2.04-7.07q.39-1.32.39-2.06 0-.35-.23-.56-.23-.23-.56-.23-.49 0-1.18.42-1.3.79-2.71 2.62-1.41 1.81-2.97 4.64-.83 1.49-1.37 3.27l-.89 2.91h-2.64l3.2-11q.56-1.99.56-2.39 0-.39-.32-.67-.3-.3-.76-.3-.21 0-.74.07l-.67.11-.11-.63z"/>
<path d="m90.65 109.98q1.58 0 2.65 1.32 1.09 1.32 1.09 4.17 0 2.44-.8 4.99-.8 2.54-2.26 4.41-1.16 1.47-2.43 2.12-.74.37-1.72.37-1.6 0-2.69-1.32-1.07-1.32-1.07-4.18 0-2.83 1.09-5.68 1.27-3.33 3.25-5.06 1.3-1.14 2.9-1.14zm.01.64q-.72 0-1.46.57-.73.56-1.52 2.33-.78 1.78-1.49 4.58-.93 3.67-.93 6.25 0 1.28.56 1.93.56.63 1.35.63.75 0 1.28-.49 1.42-1.33 2.43-4.55 1.64-5.27 1.64-8.57 0-1.37-.56-2.01-.56-.65-1.31-.65z" transform="scale(.99 1.01)"/>
<g fill="none" stroke="#000">
<path d="m3.5 195h66.8c80.53 0 134.87-42.59 181.62-79.99" stroke-width="4"/>
<path d="m15.5 55.5h129m0 157h-129" stroke-width="3"/>
<path d="m30.5 56.82v154.47m99-154.47v154.47" stroke-dasharray="3 3"/>
<path d="m222.58 32.18 4.91 4.36-4.91 3.64m-87-8-4.91 4.18 4.91 3.82m-4.23-3.68h95.47"/>
</g>
<path d="m181.9 9.42-2.81 9.44h3.13q2.11 0 3.15-.65 1.05-.65 2.16-2.78h.66l-2.48 8.69h-.7q.26-1.05.26-1.74 0-1.07-.72-1.65-.7-.6-2.65-.6h-3.16l-2.07 7.19q-.56 1.92-.56 2.55 0 .65.47 1 .49.35 2.37.47l-.22.65h-9.42l.23-.65q1.37-.04 1.83-.25.7-.3 1.04-.81.47-.72 1.13-2.97l4.2-14.36q.51-1.74.51-2.72 0-.46-.23-.77-.23-.33-.69-.49-.44-.16-1.78-.16l.21-.65h18.49l-1.76 6.03h-.67q.19-1.09.19-1.79 0-1.16-.65-1.83-.63-.69-1.63-.97-.7-.18-3.15-.18z"/>
<path d="m228.44 32.82v100.47" fill="none" stroke="#000"/>
</svg>
