<svg height="256" width="128" xmlns="http://www.w3.org/2000/svg">
<path d="m16.34 82.5h95" fill="none" stroke="#000" stroke-dasharray="8 2 1 2"/>
<path d="m90.66 74.18-3.33 6.86-4.11-6.27m-4.82-17.49 1.37-7.44 7.05 4.31m-6.75-3.75c4.43 9.32 6.92 19.53 7.3 29.94" fill="none" stroke="#000"/>
<path d="m28.09 186.5h83.25" fill="none" stroke="#000" stroke-dasharray="8 2 1 2"/>
<path d="m104.82 194.81-3.33-6.86-4.11 6.27m-4.91 18.42 1.37 7.44 7.05-4.31m-6.73 3.69c4.61-9.71 7.11-20.39 7.31-31.25" fill="none" stroke="#000"/>
<text font-family="Times New Roman" font-size="10" font-style="italic" x="36.57" y="28.93"><tspan font-size="28" x="36.57" y="28.93">θ&gt;0</tspan></text>
<text font-family="Times New Roman" font-size="10" font-style="italic" x="44.94" y="249.7"><tspan font-size="28" x="44.94" y="249.7">θ&lt;0</tspan></text>
<text font-family="Times New Roman" font-size="28" font-style="italic" x="92.08" y="66.52"><tspan x="92.08" y="66.52">α</tspan></text>
<text font-family="Times New Roman" font-size="28" font-style="italic" x="101.95" y="211.68"><tspan x="101.95" y="211.68">α</tspan></text>
<g fill="none" stroke="#000">
<g transform="translate(-.34 -3.57)">
<path d="m14.42 237.07h-8.58v-93h8.58l11.94 46z" stroke-width="3"/>
<path d="m22.46 205.71-16.81-19.72m18.37 13.57-18.37-21.57m20.23 15.74-20.23-23.74m20.89 17.09-20.89-25.09m16.68 12.41-16.68-20.41m13.46 8.41-13.46-16.41m15.33 66.38-15.33-18.37m13.67 24.56-13.67-16.56m12.23 22.32-12.23-14.32m10.84 20.3-10.84-12.3m9.05 17.92-9.05-9.92"/>
</g>
<g transform="translate(-1.14 16)">
<path d="m12.4 65.23-6.32-7.68m7.99 1.71-7.99-9.71m9.27 3.27-9.27-11.27m11.57 5.51-11.57-13.51m13.42 8.26-13.42-16.26m15.78 10.71-15.78-18.71m17.49 12.86-13.32-16.8m5.11 63.21-9.27-11.27m13.2 23.72-13.2-15.72m17.52 28.36-17.52-20.36m20.63 30.62-20.63-22.62m15.4 24.97-15.4-16.97m8.71 17.04-8.71-9.04m10.49-92.01 9.03 11.62"/>
<path d="m28.51 18.51-16.73 47.99 16.17 44.02-2.73 3.93h-18.58v-101h18.76z" stroke-width="3"/>
</g>
<path d="m5.5 41.55v-35.11"/>
<path d="m20 55 16.88-45.19"/>
<g transform="translate(0 4)">
<path d="m12.87 11.32-5.97-4.64 6.68-3.37"/>
<path d="m7.38 6.67c7.9.25 17.33 2.55 24.8 5.23"/>
<path d="m28.32 6.27 4.71 5.99-7.29 1.58"/>
</g>
<path d="m16.54 150.03 25.76 96.81"/>
<path d="m5.5 249.55v-35.11"/>
<path d="m13.58 250.64-6.81-3.43 6.33-4.01m18.73-4.7 7.42 1.48-4.42 6.98m3.9-6.76c-9.88 4.56-20.71 6.96-31.71 6.99"/>
<g stroke-width="7" transform="matrix(1 0 0 -1 -104 253.69)">
<path d="m212.05 19.38-74.71 47.81 70.96 41.4"/>
<path d="m189.34 110.07h20l-10-20" stroke-linecap="round"/>
</g>
<g stroke-width="7" transform="translate(-116.46 14.98)">
<path d="m233.55 7.88-100.21 59.64 85.96 47.82"/>
<path d="m203.34 118.07h20l-10-20" stroke-linecap="round"/>
</g>
</g>
</svg>
