<svg height="128" width="200" xmlns="http://www.w3.org/2000/svg">
<g transform="translate(5.34)">
<g fill="none" stroke="#000">
<path d="m65.94 51-42.91-25.55" stroke-dasharray="12 6" stroke-width="1.5"/>
<path d="m157.94 79-42.91-25.55" stroke-dasharray="12 6" stroke-width="1.5"/>
<path d="m-146.4 9.48h53.5v93.38h-53.5z" stroke-width="3.18" transform="matrix(-1 0 -.46 .89 0 0)"/>
<path d="m175.28 12.37-57 40.59h-51.9l-52.41 33.32" stroke-linecap="round" stroke-width="7"/>
<path d="m161.79 10.25 18.38-2.47-6.19 18.4" stroke-linecap="round" stroke-width="7"/>
<path d="m146.96 39.64c1.41 9.85.68 19.9-2.15 29.44"/>
<path d="m148.54 64.84-3.81 4.61-.95-6.02"/>
<path d="m144.4 45.16 2.28-5.57 4.14 4.57"/>
<path d="m35.49 66.19c-2-9.75-1.87-19.82.37-29.52"/>
<path d="m32.4 41.13 3.52-4.83 1.31 5.95"/>
<path d="m37.72 60.52-1.94 5.69-4.41-4.32"/>
<path d="m124.52 98.59-28.55-22.91" stroke-width="1.5"/>
<path d="m97.42 81.68-1.82-6.36 7.45 1.27"/>
</g>
<text font-family="Times New Roman" font-size="10" font-style="italic" x="126.51" y="107.22"><tspan font-size="36" x="126.51" y="107.22">n</tspan></text>
<g fill="none" stroke="#000">
<path d="m90.02 26.71 12.72-12.9m-13.59 9.59 6.59-6.64m1.41 6.64 6.59-6.64"/>
<path d="m112.02 28.71 12.72-12.9m-13.59 9.59 6.59-6.64m1.41 6.64 6.59-6.64"/>
<path d="m90.02 44.71 12.72-12.9m-13.59 9.59 6.59-6.64m1.41 6.64 6.59-6.64"/>
<path d="m90.02 72.71 12.72-12.9m-13.59 9.59 6.59-6.64m1.41 6.64 6.59-6.64"/>
<path d="m62.02 76.71 12.72-12.9m-13.59 9.59 6.59-6.64m1.41 6.64 6.59-6.64"/>
<path d="m72.02 88.71 12.72-12.9m-13.59 9.59 6.59-6.64m1.41 6.64 6.59-6.64"/>
</g>
<text font-family="Times New Roman" font-size="10" font-style="italic" x="63.45" y="125.78"><tspan font-size="36" x="63.45" y="125.78">L</tspan></text>
<g fill="none" stroke="#000">
<path d="m44.18 118.99v-26.29"/>
<path d="m100 119.17v-26.47"/>
<path d="m93.89 119.81 4.91-4.36-4.91-3.64m-43.75 8-4.91-4.18 4.91-3.82"/>
<path d="m61.78 115.58h-16.29"/>
<path d="m98.6 115.58h-16.29"/>
</g>
<g font-family="Times New Roman" font-style="italic">
<text font-size="8.14" transform="scale(.96 1.04)" x="155.78" y="59.67"><tspan font-size="29.29" x="155.78" y="59.67">Θ</tspan></text>
<text font-size="5.28" transform="scale(.95 1.06)" x="177.06" y="64.81"><tspan font-size="19.02" x="177.06" y="64.81">b</tspan></text>
<text font-size="8.14" transform="scale(.96 1.04)" x="4.08" y="53.9"><tspan font-size="29.29" x="4.08" y="53.9">Θ</tspan></text>
<text font-size="5.28" transform="scale(.95 1.06)" x="22.83" y="59.13"><tspan font-size="19.02" x="22.83" y="59.13">b</tspan></text>
</g>
</g>
</svg>
