<svg height="24" width="24" xmlns="http://www.w3.org/2000/svg" xmlns:xlink="http://www.w3.org/1999/xlink">
<linearGradient id="a" gradientTransform="matrix(1 0 0 1.02 -.02 -.27)" gradientUnits="userSpaceOnUse" x1="15.91" x2="4.89" y1="1.04" y2="23">
<stop offset="0" stop-color="#dbf6ff"/>
<stop offset="1" stop-color="#7ddcfd"/>
</linearGradient>
<g stroke-linecap="round">
<path d="m12.12.5h7.64l-10.95 23h-7.59z" fill="url(#a)" fill-rule="evenodd" stroke="#00b4ff"/>
<g fill="none">
<path d="m-.06 10.5h7.15l6.33 3.99h9.02" stroke="#f00" stroke-width="3"/>
<path d="m18.49 10.54 4 3.95-4.03 4.01" stroke="#f00" stroke-linejoin="round" stroke-width="3"/>
<g stroke="#00b4ff">
<path d="m10.58 7.33 3.51-3.35m-1.51 4.35 3.51-3.35" stroke-width=".6"/>
<path d="m4.45 20.22 3.51-3.35m-1.51 4.35 3.51-3.35" stroke-width=".7"/>
</g>
</g>
</g>
<path d="m7.07 12.28 1.32-2.73 5.01 3.16-1.28 2.76z" fill="#da9999" fill-rule="evenodd"/>
<path d="m2.85 3.25h3.67v.88h-3.67zm1.84-2.47q-1.14 0-1.81.85-.68.85-.68 2.32 0 1.47.67 2.32.68.85 1.82.85 1.14 0 1.81-.85.67-.85.67-2.32 0-1.47-.67-2.32-.67-.85-1.81-.85zm0-.85q1.63 0 2.61 1.1.98 1.09.98 2.93 0 1.83-.98 2.93-.98 1.1-2.61 1.1-1.64 0-2.61-1.09-.98-1.09-.98-2.93 0-1.84.98-2.94.98-1.09 2.61-1.09z" transform="scale(.99 1.01)"/>
</svg>
