<svg height="24" width="24" xmlns="http://www.w3.org/2000/svg" xmlns:xlink="http://www.w3.org/1999/xlink">
  <linearGradient id="a" gradientUnits="userSpaceOnUse" x1="8.875766" x2="8.725674" y1="1.038194" y2="22.990282">
    <stop offset="0" stop-color="#dbf6ff"/>
    <stop offset="1" stop-color="#7ddcfd"/>
  </linearGradient>
  <g>
    <path d="m1.560891 22.471039 20.932674-20.8876232" fill="none" stroke="#f00" stroke-linecap="round" stroke-width="3"/>
    <path d="m17.500493 1.5225248h4.976982v5.012702" fill="none" stroke="#f00" stroke-linecap="round" stroke-linejoin="round" stroke-width="3"/>
    <path d="m7.759544.7642311h2.254224s3.066106 5.4232419 3.095161 11.1810019c.029056 5.757761-3.095161 11.304767-3.095161 11.304767h-2.254224c-.076347-7.530013-.096438-14.8106261 0-22.4857689z" fill="url(#a)" fill-rule="evenodd" stroke="#00b4ff" stroke-width="1.5"/>
    <path d="m5.017501 19.060038 11.100549-11.1005489" fill="none" stroke="#f00" stroke-opacity=".316667" stroke-width="3"/>
    <path d="m18.66805 20.475179v-7.299817q-1.288203.04156-1.897676.581769-.595621.526362-.775692 1.759159h-.401698l.04156-2.784181h8.310987l.0277 2.784181h-.401698q-.180071-1.232797-.789544-1.759159-.59562-.540214-1.869972-.581769v7.299817q0 .789544.221626.997318.235478.207775 1.135835.277033v.346291h-4.945037v-.346291q.886505-.06926 1.108132-.277033.235478-.221626.235478-.997318z" transform="scale(.97110104 1.029759)"/>
  </g>
</svg>
