<svg height="272" width="205" xmlns="http://www.w3.org/2000/svg">
  <path d="m15.407377 167.65864 82.218263 25.29973" fill="none" stroke="#000" stroke-dasharray="6 6"/>
  <path d="m16.225397 44.59798 85.400243 26.36039" fill="none" stroke="#000" stroke-dasharray="8 8"/>
  <path d="m12.100505 195h106.685205" fill="none" stroke="#000" stroke-width="7"/>
  <path d="m12.918525 73h109.867185" fill="none" stroke="#000" stroke-width="7"/>
  <path d="m66.631959 47.552048c11.762497 15.335914 10.952896 62.157452-.809602 81.066782m-9.910649-81.290121 71.915012-38.0420006h8.93355c11.76249 15.3359146 11.76249 62.6836876 0 81.5930186l-71.393509 38.216823-9.008375-.10038z" fill="#7f7f7f" fill-opacity=".741176" stroke="#000" stroke-width="3.573417"/>
  <path d="m56.358386 47.403155 11.279692.105283 69.829232-37.6292594" fill="none" stroke="#000" stroke-width="3.573417"/>
  <path d="m55.993819 169.18984 75.219981-39.79029h17.93356c-12.14385 20.6658-11.70337 63.14176.22024 85.34276l-74.674506 39.97314-18.23207-.10499z" fill="#7f7f7f" fill-opacity=".741176" stroke="#000" stroke-width="3.737639"/>
  <path d="m56.461024 169.2677h17.933553c-12.14385 20.6658-11.703369 63.14176.220247 85.34276" fill="none" stroke="#000" stroke-width="3.737639"/>
  <path d="m73.825472 169.73491 75.219988-40.49109" fill="none" stroke="#000" stroke-width="3.737639"/>
  <path d="m106.35355 69.5c.07576 2.209709.45457 4.158946-.74499 6.911612l75.82894.088388v-7z" fill-rule="evenodd"/>
  <path d="m101.82322 191.5c-1.07329 2.12132-.95964 4.07056-.21466 6.91161l83.82894.08839v-7z" fill-rule="evenodd"/>
  <g fill="none">
    <path d="m106.01398 73.194174s78.61166 23.264196 78.61166 23.264196" stroke="#000" stroke-dasharray="6 6"/>
    <path d="m102.01398 197.19417 79.11166 24.7642" stroke="#000" stroke-dasharray="8 8"/>
    <path d="m28.409263 81.204013a66.207108 62.5 0 0 1 1.793724-18.608428" stroke="#000" transform="translate(0 -12.530331)"/>
    <path d="m25.577165 64.640935 2.828427 4.065864 2.740038-3.889087" stroke="#000"/>
    <path d="m26.902989 53.415615 3.27037-3.270369 1.502602 4.065864" stroke="#000"/>
    <path d="m28.409263 81.204013a66.207108 62.5 0 0 1 1.793724-18.608428" stroke="#000" transform="translate(-6 109.375)"/>
    <path d="m19.577165 186.54627 2.828427 4.06586 2.740038-3.88909" stroke="#000"/>
    <path d="m20.902989 175.32095 3.27037-3.27037 1.502602 4.06586" stroke="#000"/>
    <path d="m163 60.25 19.5 13-19.75 11.25" stroke="#000" stroke-linecap="round" stroke-width="7"/>
    <path d="m167 182.25 19.5 13-19.75 11.25" stroke="#000" stroke-linecap="round" stroke-width="7"/>
  </g>
  <text font-family="Times New Roman" font-size="10" font-style="italic" x="139.91113" y="118.79688"><tspan font-size="28" x="139.91113" y="118.79688">F&gt;0</tspan></text>
  <text font-family="Times New Roman" font-size="10" font-style="italic" x="139.91113" y="250.79688"><tspan font-size="28" x="139.91113" y="250.79688">F&lt;0</tspan></text>
  <text font-family="Times New Roman" font-size="28" font-style="italic" x="7.076172" y="64.022461"><tspan x="7.076172" y="64.022461">α</tspan></text>
  <text font-family="Times New Roman" font-size="28" font-style="italic" x="3.076172" y="188.02246"><tspan x="3.076172" y="188.02246">α</tspan></text>
</svg>
