<svg height="256" width="128" xmlns="http://www.w3.org/2000/svg">
<g fill="none" stroke="#000">
<path d="m111.34 7.07-90 60 90 55" stroke-width="7"/>
<path d="m16.34 66.5h95" stroke-dasharray="8 2 1 2"/>
<path d="m91.34 122.07h20l-10-20" stroke-linecap="round" stroke-width="7"/>
<path d="m77.3 32.84c5.11 10.14 7.89 21.4 8.1 32.87" stroke-linecap="round" stroke-linejoin="bevel"/>
<path d="m76.4 41.28 1.37-7.44 7.05 4.31"/>
<path d="m88.75 59.11-3.33 6.86-4.11-6.27"/>
<path d="m111.34 131.07-78.25 60 78.25 55" stroke-width="7"/>
<path d="m91.34 246.07h20l-10-20" stroke-linecap="round" stroke-width="7"/>
<path d="m28.09 190.5h83.25" stroke-dasharray="8 2 1 2"/>
<path d="m83.3 156.84c5.11 10.14 7.89 21.4 8.1 32.87" stroke-linecap="round" stroke-linejoin="bevel"/>
<path d="m82.4 165.28 1.37-7.44 7.05 4.31"/>
<path d="m94.75 183.11-3.33 6.86-4.11-6.27"/>
</g>
<g font-family="Times New Roman" font-style="italic">
<text font-size="10" x="32.13" y="130.62"><tspan font-size="28" x="32.13" y="130.62">R&gt;0</tspan></text>
<text font-size="10" x="28.13" y="252.62"><tspan font-size="28" x="28.13" y="252.62">R&lt;0</tspan></text>
<g font-size="28">
<text x="90.08" y="50.52"><tspan x="90.08" y="50.52">α</tspan></text>
<text x="95.62" y="174.64"><tspan x="95.62" y="174.64">α</tspan></text>
</g>
</g>
<g fill="none" stroke="#000">
<path d="m16.42 245.07h-10.58v-109h10.58c13.26 24.93 13.26 84.43 0 109z" stroke-width="3"/>
<path d="m25.35 209.11-19.7-23.12m20.14 15.65-20.14-23.65m20.23 15.74-20.23-23.74m20.89 17.09-20.89-25.09m20.04 16.53-20.04-24.53m18.94 15.09-18.94-23.09m17.59 12.69-16.86-20.96m18.27 79.04-19-22.76m18.27 30.13-18.27-22.13m16.96 27.85-16.96-19.85m15.56 25.66-15.56-17.66m13.42 22.71-13.42-14.71m11.04 19.93-11.04-11.93m4.51 12.61-4.51-4.61m6.31-104.51 8.9 10.9"/>
<path d="m15.35 68.82-9.27-11.27m9.27 3.27-9.27-11.27m9.27 3.27-9.27-11.27m10.82 4.36-10.82-12.36m11.82 6.36-11.82-14.36m13.82 8.82-13.82-16.82m16 11.36-15.27-19.64m8.55 67.55-9.27-11.27m11.82 22.09-11.82-14.09m15.64 25.73-15.64-17.73m22.55 32.73-22.55-24.73m18.73 28.64-18.73-20.64m12.27 20.73-12.27-12.73m4.95 13.41-4.95-5.41m8.16-103.01 10.23 13.37m-5.05-15.06 8.75 10.99"/>
<path d="m30.51 14.51c-18.8 27.61-20.32 69.93-.56 100.01l-2.73 3.93h-20.58v-109h20.76z" stroke-width="3"/>
</g>
</svg>
