<svg height="235" width="128" xmlns="http://www.w3.org/2000/svg">
  <g fill="none" stroke="#000">
    <path d="m3.0332854 177.5h115.5365246" stroke-dasharray="8 2 1 2"/>
    <path d="m117.36364 131-106.03053 86.76968" stroke-linecap="round" stroke-width="7"/>
    <path d="m51.625 120.46875-3.125 5.0625c14.381318 28.67063 14.482302 68.53969.5625 100.03125l2.75 3.9375h25.28125l2.71875-3.9375c-14.803686-31.49156-14.525926-71.36062.5625-100.03125l-3.09375-5.0625z" stroke-width="3"/>
    <path d="m77.675918 32.19641a69.272728 69.272728 0 0 1 8.329607 28.31915" transform="matrix(-1 0 0 -1 95.07219 239.1495)"/>
    <path d="m60.46875 4.46875c-13.258253 24.92551-13.258252 84.45929 0 109.03125h6.625c13.258252-24.57196 13.258249-84.10574 0-109.03125z" stroke-width="3"/>
    <path d="m5 63.5h119.38139" stroke-dasharray="8 2 1 2"/>
    <path d="m59.636885 136.73001 12.724605-12.89862m-13.590925 9.59091 6.590915-6.63636m1.40909 6.63636 6.5909-6.63636"/>
    <path d="m55.636885 224.73001 12.724605-12.89862m-13.590925 9.59091 6.590915-6.63636m1.40909 6.63636 6.5909-6.63636"/>
    <path d="m55.636885 52.73001 12.724605-12.89862m-13.590925 9.59091 6.590915-6.63636m1.40909 6.63636 6.5909-6.63636"/>
    <path d="m57.636885 88.73001 12.724605-12.89862m-13.590925 9.59091 6.590915-6.63636m1.40909 6.63636 6.5909-6.63636"/>
    <path d="m115.36364 19-106.03053 86.76968" stroke-linecap="round" stroke-width="7"/>
    <path d="m56.222673 32.73001 12.724605-12.89862m-13.590925 9.59091 6.590915-6.63636m1.40909 6.63636 6.5909-6.63636"/>
    <path d="m7.0710679 183.91153 1.9445436-5.65685 3.0052035 5.3033"/>
    <path d="m17.854446 200.8821-.176776 6.01041-5.480078-2.82843"/>
    <path d="m77.675918 32.19641a69.272728 69.272728 0 0 1 8.329607 28.31915" transform="matrix(-1 0 0 -1 95.07219 125.50305)"/>
    <path d="m7.0710679 70.265083 1.9445436-5.65685 3.0052035 5.3033"/>
    <path d="m17.854446 87.235653-.176776 6.01041-5.480078-2.82843"/>
  </g>
  <text font-family="Times New Roman" font-size="28" font-style="italic" x="15.910697" y="80.509216"><tspan x="15.910697" y="80.509216">α</tspan></text>
  <text font-family="Times New Roman" font-size="28" font-style="italic" x="15.910697" y="194.50922"><tspan x="15.910697" y="194.50922">α</tspan></text>
  <text font-family="Times New Roman" font-size="10" font-style="italic" x="74.032013" y="114.89632"><tspan font-size="28" x="74.032013" y="114.89632">F&gt;0</tspan></text>
  <text font-family="Times New Roman" font-size="10" font-style="italic" x="74.385567" y="200.65369"><tspan font-size="28" x="74.385567" y="200.65369">F&lt;0</tspan></text>
  <path d="m94.398756 132.46952 25.455844-3.88909-7.07107 24.74874" fill="none" stroke="#000" stroke-linecap="round" stroke-width="7"/>
  <path d="m94.398756 18.46952 25.455844-3.88909-7.07107 24.74874" fill="none" stroke="#000" stroke-linecap="round" stroke-width="7"/>
</svg>
