<svg height="200" width="200" xmlns="http://www.w3.org/2000/svg">
  <path d="m152.54459 138.5545-111.009645-69.205722" fill="none" stroke="#000" stroke-dasharray="12 6" stroke-width="1.5"/>
  <path d="m156.51014 102.31455h-61.90276l-64.909794 39.32272" fill="none" stroke="#000" stroke-linecap="round" stroke-width="7"/>
  <path d="m142.59958 92.607724 16.13871 9.131746-16.0476 10.92699" fill="none" stroke="#000" stroke-linecap="round" stroke-width="7"/>
  <path d="m63.729128 115.53843c-1.998941-9.75108-1.872973-19.818432.369331-29.516442" fill="none" stroke="#000"/>
  <path d="m60.638692 90.479048 3.522538-4.83455 1.312212 5.95267" fill="none" stroke="#000"/>
  <path d="m65.952882 109.87082-1.936985 5.69249-4.405602-4.31532" fill="none" stroke="#000"/>
  <path d="m99.75057 54.47086 12.7246-12.89862m-13.59092 9.59091 6.5909-6.63636m1.4091 6.63636 6.5909-6.63636" fill="none" stroke="#a3a3a3"/>
  <path d="m42.21904 48.014315 12.7246-12.89862m-13.59092 9.59091 6.5909-6.63636m1.4091 6.63636 6.5909-6.63636" fill="none" stroke="#a3a3a3"/>
  <path d="m82.868995 84.064325 12.7246-12.89862m-13.59092 9.59091 6.5909-6.63636m1.4091 6.63636 6.5909-6.63636" fill="none" stroke="#a3a3a3"/>
  <path d="m24.22583 162.70742 12.7246-12.89862m-13.59092 9.59091 6.5909-6.63636m1.4091 6.63636 6.5909-6.63636" fill="none" stroke="#a3a3a3"/>
  <text font-family="Times New Roman" font-size="8.135203" font-style="italic" transform="scale(.96244668 1.0390186)" x="27.961727" y="101.15793"><tspan font-size="29.286732" x="27.961727" y="101.15793">Θ</tspan></text>
  <text font-family="Times New Roman" font-size="5.282076" font-style="italic" transform="scale(.94667566 1.056328)" x="47.113388" y="105.60863"><tspan font-size="19.015472" x="47.113388" y="105.60863">b</tspan></text>
  <path d="m50.042747 180.94526 89.575213-164.591239" fill="none" stroke="#000" stroke-linecap="round" stroke-width="3"/>
  <g font-family="Times New Roman" font-style="italic" transform="translate(-8.847458 -24.576271)">
    <text font-size="10" x="73.957069" y="59.585152"><tspan font-size="36" x="73.957069" y="59.585152">n</tspan></text>
    <text font-size="5.18307" x="91.09951" y="64.953575"><tspan font-size="18.65905" x="91.09951" y="64.953575">1</tspan></text>
  </g>
  <g font-family="Times New Roman" font-style="italic" transform="translate(46.661017 -112.28814)">
    <text font-size="10" x="106.49361" y="148.43114"><tspan font-size="36" x="106.49361" y="148.43114">n</tspan></text>
    <text font-size="6.027103" x="121.56142" y="155.54956"><tspan font-size="21.697573" x="121.56142" y="155.54956">2</tspan></text>
  </g>
  <g fill="none">
    <path d="m102.13227 117.1075-6.63638 6.5909m6.98864-.2273-6.5909-6.63637" stroke="#a3a3a3"/>
    <path d="m88.607069 147.47987-6.636374 6.5909m6.988637-.2273-6.5909-6.63637" stroke="#a3a3a3"/>
    <path d="m141.75872 143.44604-6.63638 6.5909m6.98864-.2273-6.5909-6.63637" stroke="#a3a3a3"/>
    <path d="m123.96241 83.650438-6.63638 6.5909m6.98864-.2273-6.5909-6.63637" stroke="#a3a3a3"/>
    <path d="m147.45354 73.921778-6.63637 6.5909m6.98863-.2273-6.5909-6.63637" stroke="#a3a3a3"/>
    <path d="m130.36908 59.210164-6.63638 6.590904m6.98864-.2273-6.5909-6.636374" stroke="#a3a3a3"/>
    <path d="m151.25009 48.532378-6.63638 6.590899m6.98864-.2273-6.5909-6.636369" stroke="#a3a3a3"/>
    <path d="m52.055861 148.55499 12.7246-12.89862m-13.59092 9.59091 6.5909-6.63636m1.4091 6.63636 6.5909-6.63636" stroke="#a3a3a3"/>
    <path d="m152.95111 119.92954-6.63638 6.5909m6.98864-.2273-6.5909-6.63637" stroke="#a3a3a3"/>
    <path d="m35.191932 177.50403 12.7246-12.89862m-13.59092 9.59091 6.5909-6.63636m1.4091 6.63636 6.5909-6.63636" stroke="#a3a3a3"/>
    <path d="m103.56413 28.623402 12.7246-12.89862m-13.59092 9.59091 6.5909-6.63636m1.4091 6.63636 6.5909-6.63636" stroke="#a3a3a3"/>
    <path d="m26.126861 29.022046 12.7246-12.89862m-13.59092 9.59091 6.5909-6.63636m1.4091 6.63636 6.5909-6.63636" stroke="#a3a3a3"/>
    <path d="m170.3349 60.362456-6.63637 6.5909m6.98863-.2273-6.5909-6.63637" stroke="#a3a3a3"/>
    <path d="m169.91117 86.633642-6.63637 6.5909m6.98863-.2273-6.5909-6.63637" stroke="#a3a3a3"/>
    <path d="m110.21724 136.88665-6.63638 6.5909m6.98864-.2273-6.5909-6.63637" stroke="#a3a3a3"/>
    <path d="m112.75961 160.19173-6.63638 6.5909m6.98864-.2273-6.5909-6.63637" stroke="#a3a3a3"/>
    <path d="m146.84347 162.51384-6.63638 6.5909m6.98864-.2273-6.5909-6.63637" stroke="#a3a3a3"/>
    <path d="m83.707877 170.14096-6.63638 6.5909m6.98864-.2273-6.5909-6.63637" stroke="#a3a3a3"/>
    <path d="m170.99601 126.07316-6.63638 6.5909m6.98864-.2273-6.5909-6.63637" stroke="#a3a3a3"/>
    <path d="m168.87737 152.76808-6.63638 6.5909m6.98864-.2273-6.5909-6.63637" stroke="#a3a3a3"/>
    <path d="m68.868995 66.064325 12.7246-12.89862m-13.59092 9.59091 6.5909-6.63636m1.4091 6.63636 6.5909-6.63636" stroke="#a3a3a3"/>
    <path d="m24.633254 73.267363 12.7246-12.89862m-13.59092 9.59091 6.5909-6.63636m1.4091 6.63636 6.5909-6.63636" stroke="#a3a3a3"/>
    <path d="m24.579383 126.99853 12.7246-12.89862m-13.59092 9.59091 6.5909-6.63636m1.4091 6.63636 6.5909-6.63636" stroke="#a3a3a3"/>
  </g>
</svg>
