<svg height="350" viewBox="0 0 52.92 92.6" width="200" xmlns="http://www.w3.org/2000/svg" xmlns:xlink="http://www.w3.org/1999/xlink">
<linearGradient id="a" gradientTransform="matrix(.22 0 0 .26 7.49 195.13)" gradientUnits="userSpaceOnUse" spreadMethod="pad" x1="75.63" x2="75.63" y1="49.2" y2="206.53">
<stop offset="0" stop-color="#7e7e7e"/>
<stop offset=".5" stop-color="#f0f0f0"/>
<stop offset="1" stop-color="#7e7e7e"/>
</linearGradient>
<linearGradient id="b" gradientTransform="matrix(.22 0 0 .26 7.5 240.58)" gradientUnits="userSpaceOnUse" spreadMethod="pad" x1="75.63" x2="75.63" y1="49.2" y2="206.53">
<stop offset="0" stop-color="#f0f0f0"/>
<stop offset=".5" stop-color="#7e7e7e"/>
<stop offset="1" stop-color="#f0f0f0"/>
</linearGradient>
<g transform="translate(0 -204.4)">
<path d="m48.35 276.15 1.85-1.59-1.85-1.59" fill="none" stroke="#000" stroke-linecap="round" stroke-width=".79"/>
<path d="m5.07 257.38s10.58 5.72 10.58 17.21-10.58 16.94-10.58 16.94" fill="none" stroke="#000" stroke-width=".32"/>
<path d="m20.28 255.5 1.3 1.15-1.3.96m-15.14-.96h16.26" fill="none" stroke="#6a6a6a" stroke-width=".26"/>
<path d="m4.01 254.58 1.15-1.3.96 1.3m-.97 37.9v-39.02" fill="none" stroke="#6a6a6a" stroke-width=".26"/>
<path d="m32.94 208.23h4.5v41.54h-4.5z" fill="url(#a)" stroke="#000" stroke-width=".79"/>
<path d="m1.65 229.01h47.74" fill="none" stroke="#000" stroke-width="1.06"/>
<path d="m48.35 230.6 1.85-1.59-1.85-1.59" fill="none" stroke="#000" stroke-linecap="round" stroke-width=".79"/>
<path d="m15.74 211.87s-10.58 5.72-10.58 17.21 10.58 16.94 10.58 16.94" fill="none" stroke="#000" stroke-width=".32"/>
<path d="m20.28 210 1.3 1.15-1.3.96m-15.14-.97h16.26" fill="none" stroke="#6a6a6a" stroke-width=".26"/>
<path d="m4.01 209.07 1.15-1.3.96 1.3m-.97 37.37v-38.49" fill="none" stroke="#6a6a6a" stroke-width=".26"/>
<g transform="matrix(.26 0 0 .26 -20.5 218.34)">
<path d="m150.12 277.1h-6.94v-.38q5.3-4.65 7.01-7.29.79-1.22.79-2.57 0-1.07-.66-1.74-.66-.68-1.71-.68-1.45 0-2.38 1.39l-.36-.16q.52-1.33 1.53-2.06 1.01-.74 2.18-.74 1.33 0 2.23.91.9.9.9 2.2 0 .9-.32 1.68-.49 1.2-1.82 2.69-2.01 2.28-5.38 5.25h3.5q.84 0 1.39-.35.54-.35.78-.94h.41z" stroke-width=".83" transform="scale(.99 1.01)"/>
<path d="m139.61 258.82h2.28l-3.3 7.54q.23 4.24 1.46 4.24.43 0 .82-.45.39-.46.46-1.14h.63q-.46 3.76-2.14 3.76-.59 0-1.08-.62-.49-.62-.86-4.31-2.84 4.93-6.38 4.93-1.99 0-3.21-1.37-1.22-1.37-1.22-3.67 0-2.23 1.12-4.33 1.12-2.11 2.8-3.53 1.68-1.42 3.71-1.42 1.45 0 2.27.89.83.89 1.14 2.77zm-2.06 4.47q-.08-1.12-.71-2.53-.63-1.4-1.86-1.4-1.8 0-3.65 3.47-1.83 3.45-1.83 6.09 0 1.45.6 2.3.62.85 1.68.85 1.11 0 2-1.14.89-1.16 2.48-4.73z" stroke-width="1.13"/>
<path d="m155.68 264.39 14.71-6.37v1.19l-12.66 5.5 12.66 5.55v1.23l-14.71-6.43z"/>
<path d="m182.24 255.12q1.75 0 2.94 1.46 1.2 1.46 1.2 4.62 0 2.71-.89 5.52-.89 2.82-2.5 4.88-1.29 1.63-2.69 2.35-.82.41-1.9.41-1.78 0-2.98-1.46-1.19-1.46-1.19-4.63 0-3.13 1.2-6.29 1.41-3.69 3.6-5.61 1.44-1.26 3.21-1.26zm.01.71q-.79 0-1.61.63-.81.62-1.68 2.58-.86 1.97-1.65 5.07-1.03 4.06-1.03 6.92 0 1.42.62 2.13.62.7 1.49.7.83 0 1.42-.55 1.57-1.48 2.69-5.04 1.82-5.84 1.82-9.49 0-1.52-.62-2.23-.62-.72-1.45-.72z"/>
</g>
<path d="m19.02 238.14h-1.84v-.1q1.4-1.23 1.86-1.93.21-.32.21-.68 0-.28-.17-.46-.17-.18-.45-.18-.38 0-.63.37l-.1-.04q.14-.35.41-.54.27-.2.58-.2.35 0 .59.24.24.24.24.58 0 .24-.08.44-.13.32-.48.71-.53.6-1.42 1.39h.92q.22 0 .37-.09.14-.09.21-.25h.11z" stroke-width=".22" transform="scale(.99 1.01)"/>
<path d="m16.44 234.96h.6l-.87 1.99q.06 1.12.39 1.12.11 0 .22-.12.1-.12.12-.3h.17q-.12.99-.57.99-.15 0-.29-.16-.13-.16-.23-1.14-.75 1.3-1.69 1.3-.53 0-.85-.36-.32-.36-.32-.97 0-.59.3-1.15.3-.56.74-.93.44-.38.98-.38.38 0 .6.24.22.24.3.73zm-.55 1.18q-.02-.3-.19-.67-.17-.37-.49-.37-.48 0-.97.92-.49.91-.49 1.61 0 .38.16.61.16.22.44.22.29 0 .53-.3.24-.31.66-1.25z" stroke-width=".3"/>
<g stroke-width=".26">
<path d="m24.59 236.62-3.89 1.69v-.31l3.35-1.45-3.35-1.47v-.33l3.89 1.7z"/>
<path d="m27.72 233.98q.46 0 .78.39.32.39.32 1.22 0 .72-.24 1.46-.24.75-.66 1.29-.34.43-.71.62-.22.11-.5.11-.47 0-.79-.39-.31-.39-.31-1.23 0-.83.32-1.66.37-.98.95-1.48.38-.33.85-.33zm0 .19q-.21 0-.43.17-.21.16-.44.68-.23.52-.44 1.34-.27 1.07-.27 1.83 0 .38.16.56.16.18.39.18.22 0 .38-.14.42-.39.71-1.33.48-1.54.48-2.51 0-.4-.16-.59-.16-.19-.38-.19z"/>
</g>
<path d="m32.95 253.68h4.5v41.54h-4.5z" fill="url(#b)" stroke="#000" stroke-width=".79"/>
<path d="m1.65 274.56h47.74" fill="none" stroke="#000" stroke-width="1.06"/>
<g id="c" stroke-width=".26">
<path d="m11.29 206.35-.94 3.28q-.07.25-.07.3 0 .04.02.07.03.03.07.03.05 0 .11-.05.14-.11.3-.35l.08.09q-.26.37-.48.52-.16.1-.31.1-.1 0-.18-.07-.07-.07-.07-.17 0-.1.09-.41l.75-2.59q.09-.32.09-.36 0-.07-.05-.11-.05-.04-.16-.04-.06 0-.19.02v-.1z" stroke-width=".26"/>
<path d="m13.79 208.64q0 .41-.22.82-.22.41-.61.64-.39.24-.76.24-.38 0-.62-.24-.24-.24-.24-.63 0-.41.23-.81.23-.41.62-.64.39-.24.76-.24.36 0 .6.24.24.24.24.62zm-.46-.19q0-.26-.13-.39-.12-.14-.32-.14-.41 0-.75.58-.34.58-.34 1.15 0 .26.13.41.13.14.33.14.39 0 .73-.58.34-.58.34-1.17z" stroke-width=".26"/>
<path d="m16.05 207.78-.17.85h-.1q-.01-.37-.16-.54-.14-.17-.36-.17-.17 0-.27.09-.1.09-.1.23 0 .09.04.17.04.08.18.23.36.39.46.59.1.2.1.37 0 .29-.24.51-.24.22-.6.22-.2 0-.46-.09-.09-.03-.14-.03-.12 0-.19.13h-.1l.17-.89h.1q.02.42.17.59.16.17.43.17.21 0 .33-.12.12-.12.12-.29 0-.11-.04-.2-.08-.17-.33-.46-.25-.29-.32-.44-.07-.15-.07-.29 0-.27.19-.45.2-.18.5-.18.09 0 .16.01.04.01.18.06.14.05.19.05.12 0 .2-.13z" stroke-width=".26"/>
<path d="m18.24 207.78-.17.85h-.1q-.01-.37-.16-.54-.14-.17-.36-.17-.17 0-.27.09-.1.09-.1.23 0 .09.04.17.04.08.18.23.36.39.46.59.1.2.1.37 0 .29-.24.51-.24.22-.6.22-.2 0-.46-.09-.09-.03-.14-.03-.12 0-.19.13h-.1l.17-.89h.1q.02.42.17.59.16.17.43.17.21 0 .33-.12.12-.12.12-.29 0-.11-.04-.2-.08-.17-.33-.46-.25-.29-.32-.44-.07-.15-.07-.29 0-.27.19-.45.2-.18.5-.18.09 0 .16.01.04.01.18.06.14.05.19.05.12 0 .2-.13z" stroke-width=".26"/>
</g>
<use height="100%" transform="translate(0 45.6)" width="100%" xlink:href="#c"/>
</g>
</svg>
