<svg height="24" width="24" xmlns="http://www.w3.org/2000/svg" xmlns:xlink="http://www.w3.org/1999/xlink">
<linearGradient id="a" gradientUnits="userSpaceOnUse" spreadMethod="pad" x1="12" x2="12" y1="0" y2="24">
<stop offset="0" stop-color="#dbf6ff"/>
<stop offset="1" stop-color="#7ddcfd"/>
</linearGradient>
<path d="m0 0h24v24h-24z" fill="url(#a)"/>
<g fill="none" stroke-linecap="round">
<path d="m9 13 5-5m-3 6 5-5" stroke="#00b4ff"/>
<g stroke="#000">
<path d="m3 12h18" stroke-width="2"/>
<path d="m6 9-5 3 5 3"/>
<path d="m18 9 5 3-5 3"/>
</g>
<g stroke="#00b4ff">
<path d="m3 7 5-5m-3 6 5-5"/>
<path d="m15 6 5-5m-3 6 5-5"/>
<path d="m15 21 5-5m-3 6 5-5"/>
<path d="m3 21 5-5m-3 6 5-5"/>
</g>
</g>
</svg>
