<svg height="24" width="24" xmlns="http://www.w3.org/2000/svg" xmlns:xlink="http://www.w3.org/1999/xlink">
<linearGradient id="a">
<stop offset="0" stop-color="#dbf6ff"/>
<stop offset="1" stop-color="#7ddcfd"/>
</linearGradient>
<linearGradient id="b" gradientTransform="matrix(1 0 0 1.02 3.98 -.27)" gradientUnits="userSpaceOnUse" x1="15.91" x2="4.89" xlink:href="#a" y1="1.04" y2="23"/>
<linearGradient id="c" gradientTransform="scale(.5 1)" gradientUnits="userSpaceOnUse" spreadMethod="pad" x1="12" x2="12" y1="0" y2="24">
<stop offset="0" stop-color="#e4ffdb"/>
<stop offset="1" stop-color="#99fdc8"/>
</linearGradient>
<linearGradient id="d" gradientTransform="matrix(.5 0 0 1 12 -24)" gradientUnits="userSpaceOnUse" spreadMethod="pad" x1="12" x2="12" xlink:href="#a" y1="0" y2="24"/>
<path d="m5.08-24h18.92v24h-8z" fill="url(#d)" transform="scale(1 -1)"/>
<path d="m23.06 6.03-5-5m3 6-3.83-3.78" fill="none" stroke="#00b4ff" stroke-linecap="round"/>
<path d="m15.16 21.98-4.08-4.03m2.08 5.03-3.98-3.88" fill="none" stroke="#00b4ff" stroke-linecap="round"/>
<path d="m0 0h16l-11.11 24h-4.89z" fill="url(#c)"/>
<path d="m1.52 16.97 3.12-2.92m-2.03 4.98 4.19-3.88" fill="none" stroke="#00c8aa" stroke-linecap="round"/>
<path d="m20.77 11.19 1.6 5.39-5.47 1.57" fill="none" stroke="#f00" stroke-linecap="round" stroke-linejoin="round" stroke-width="3"/>
<path d="m2.85 3.25h3.67v.88h-3.67zm1.84-2.47q-1.14 0-1.81.85-.68.85-.68 2.32 0 1.47.67 2.32.68.85 1.82.85 1.14 0 1.81-.85.67-.85.67-2.32 0-1.47-.67-2.32-.67-.85-1.81-.85zm0-.85q1.63 0 2.61 1.1.98 1.09.98 2.93 0 1.83-.98 2.93-.98 1.1-2.61 1.1-1.64 0-2.61-1.09-.98-1.09-.98-2.93 0-1.84.98-2.94.98-1.09 2.61-1.09z" transform="scale(.99 1.01)"/>
<g stroke-linecap="round">
<path d="m5.22 23.5 10.9-23" fill="url(#b)" fill-rule="evenodd" stroke="#00b4ff"/>
<path d="m-.06 10.5h11.15l10.54 5.52" fill="none" stroke="#f00" stroke-width="3"/>
</g>
</svg>
