<?xml version="1.0" encoding="UTF-8" standalone="no"?>
<!-- Created with Inkscape (http://www.inkscape.org/) -->

<svg
   xmlns:dc="http://purl.org/dc/elements/1.1/"
   xmlns:cc="http://creativecommons.org/ns#"
   xmlns:rdf="http://www.w3.org/1999/02/22-rdf-syntax-ns#"
   xmlns:svg="http://www.w3.org/2000/svg"
   xmlns="http://www.w3.org/2000/svg"
   version="1.0"
   width="200"
   height="128"
   id="svg4473">
  <metadata
     id="metadata3203">
    <rdf:RDF>
      <cc:Work
         rdf:about="">
        <dc:format>image/svg+xml</dc:format>
        <dc:type
           rdf:resource="http://purl.org/dc/dcmitype/StillImage" />
        <dc:title></dc:title>
      </cc:Work>
    </rdf:RDF>
  </metadata>
  <defs
     id="defs4475" />
  <g
     transform="translate(26.727273,0)"
     id="layer1">
    <g
       transform="translate(0.795452,-0.7472065)"
       id="g4483">
      <path
         d="m 3.5,76.579542 134.42273,0"
         id="path5494"
         style="fill:none;stroke:#000000;stroke-width:7;stroke-linecap:butt;stroke-linejoin:miter;stroke-miterlimit:4;stroke-opacity:1;stroke-dasharray:none;marker-mid:none;marker-end:none" />
      <path
         d="m 20.5,43 0,34.287026"
         id="path5500"
         style="fill:none;stroke:#000000;stroke-width:1;stroke-linecap:butt;stroke-linejoin:miter;stroke-miterlimit:4;stroke-opacity:1;stroke-dasharray:none" />
      <path
         d="m 94.681818,43.181818 0,34.468844"
         id="path5502"
         style="fill:none;stroke:#000000;stroke-width:1;stroke-linecap:butt;stroke-linejoin:miter;stroke-miterlimit:4;stroke-opacity:1;stroke-dasharray:none" />
      <path
         d="m 22.744734,48.5 70.955979,0"
         id="path5504"
         style="fill:none;stroke:#000000;stroke-width:0.90274507px;stroke-linecap:butt;stroke-linejoin:miter;stroke-opacity:1;marker-start:none;marker-end:none" />
      <path
         d="m 28.727272,43.454545 -6.909091,5.09091 6.909091,4.363636 m 58.727273,0 6.000003,-4.363636 -6.000003,-5.09091"
         id="path5917"
         style="fill:none;stroke:#000000;stroke-width:1px;stroke-linecap:butt;stroke-linejoin:miter;stroke-opacity:1" />
      <path
         d="M 123.27273,59.454545 141.45455,76.181818 123.63637,92.54545"
         id="path5147"
         style="fill:none;stroke:#000000;stroke-width:7;stroke-linecap:round;stroke-linejoin:miter;stroke-miterlimit:4;stroke-opacity:1;stroke-dasharray:none" />
      <text
         x="46.2579"
         y="43.190697"
         id="text6225"
         xml:space="preserve"
         style="font-size:10px;font-style:italic;font-variant:normal;font-weight:normal;font-stretch:normal;text-align:start;line-height:125%;writing-mode:lr-tb;text-anchor:start;fill:#000000;fill-opacity:1;stroke:none;font-family:Times New Roman;-inkscape-font-specification:Times New Roman Italic"><tspan
           x="46.2579"
           y="43.190697"
           id="tspan6227"
           style="font-size:36px">L</tspan></text>
      <path
         d="m 116.25,7 c -11.78697,8.915526 1.98784,21.171117 1.84417,31 -0.17053,11.916585 -10.02805,15.969876 -5.27804,25.460193 5.65741,11.303262 -3.47356,20.23538 -4.16969,29.67334 -0.74809,10.142497 8.47984,10.280277 8.76346,19.394027 0.20693,6.64925 -2.83322,10.09548 -6.1599,13.72244"
         id="path6106"
         style="fill:none;stroke:#000000;stroke-width:1px;stroke-linecap:butt;stroke-linejoin:miter;stroke-opacity:1" />
      <path
         d="m 11.25,4.75 c -6.7631966,10.074452 1.506642,18.009346 1.666519,25.23975 0.219212,9.663809 -6.3275879,16.244612 -1.108326,26.679206 4.175075,8.347007 3.946213,17.538816 -0.812211,25.222944 -5.954588,9.615751 5.54083,15.300894 4.301192,24.88858 C 14.399749,113.7214 8.5418426,117.26272 6,123"
         id="path6108"
         style="fill:none;stroke:#000000;stroke-width:1px;stroke-linecap:butt;stroke-linejoin:miter;stroke-opacity:1" />
      <text
         x="69.636719"
         y="121.99316"
         id="text6221"
         xml:space="preserve"
         style="font-size:10px;font-style:italic;font-variant:normal;font-weight:normal;font-stretch:normal;text-align:start;line-height:125%;writing-mode:lr-tb;text-anchor:start;fill:#000000;fill-opacity:1;stroke:none;font-family:Times New Roman;-inkscape-font-specification:Times New Roman Italic"><tspan
           x="69.636719"
           y="121.99316"
           id="tspan6223"
           style="font-size:36px">n</tspan></text>
      <path
         d="M 90.86632,20.19931 103.59092,7.30069 M 90,16.8916 96.5909,10.25524 M 98,16.8916 l 6.5909,-6.63636"
         id="path5519"
         style="fill:none;stroke:#000000;stroke-width:1px;stroke-linecap:butt;stroke-linejoin:miter;stroke-opacity:1" />
      <path
         d="m 74.82087,41.44931 12.7246,-12.89862 m -13.59092,9.59091 6.5909,-6.63636 m 1.4091,6.63636 6.5909,-6.63636"
         id="path6151"
         style="fill:none;stroke:#000000;stroke-width:1px;stroke-linecap:butt;stroke-linejoin:miter;stroke-opacity:1" />
      <path
         d="M 14.07087,18.64862 26.79547,5.75 m -13.59092,9.59091 6.5909,-6.63636 m 1.4091,6.63636 6.5909,-6.63636"
         id="path6153"
         style="fill:none;stroke:#000000;stroke-width:1px;stroke-linecap:butt;stroke-linejoin:miter;stroke-opacity:1" />
      <path
         d="m 32.07087,68.19931 12.7246,-12.89862 m -13.59092,9.59091 6.5909,-6.63636 m 1.4091,6.63636 6.5909,-6.63636"
         id="path6155"
         style="fill:none;stroke:#000000;stroke-width:1px;stroke-linecap:butt;stroke-linejoin:miter;stroke-opacity:1" />
      <path
         d="m 65.32087,68.19931 12.7246,-12.89862 m -13.59092,9.59091 6.5909,-6.63636 m 1.4091,6.63636 6.5909,-6.63636"
         id="path6157"
         style="fill:none;stroke:#000000;stroke-width:1px;stroke-linecap:butt;stroke-linejoin:miter;stroke-opacity:1" />
      <path
         d="m 87.86632,97.19931 12.7246,-12.89862 M 87,93.8916 93.5909,87.25524 M 95,93.8916 l 6.5909,-6.63636"
         id="path6159"
         style="fill:none;stroke:#000000;stroke-width:1px;stroke-linecap:butt;stroke-linejoin:miter;stroke-opacity:1" />
      <path
         d="m 19.57087,97.69931 12.7246,-12.89862 m -13.59092,9.59091 6.5909,-6.63636 m 1.4091,6.63636 6.5909,-6.63636"
         id="path6161"
         style="fill:none;stroke:#000000;stroke-width:1px;stroke-linecap:butt;stroke-linejoin:miter;stroke-opacity:1" />
      <path
         d="m 45.86632,117.44931 12.7246,-12.89862 M 45,114.1416 51.5909,107.50524 M 53,114.1416 l 6.5909,-6.63636"
         id="path6163"
         style="fill:none;stroke:#000000;stroke-width:1px;stroke-linecap:butt;stroke-linejoin:miter;stroke-opacity:1" />
      <path
         d="m 18.57087,121.19931 12.7246,-12.89862 m -13.59092,9.59091 6.5909,-6.63636 m 1.4091,6.63636 6.5909,-6.63636"
         id="path6165"
         style="fill:none;stroke:#000000;stroke-width:1px;stroke-linecap:butt;stroke-linejoin:miter;stroke-opacity:1" />
      <path
         d="m 101.27542,49.19931 12.7246,-12.89862 M 100.4091,45.8916 107,39.25524 M 108.4091,45.8916 115,39.25524"
         id="path6167"
         style="fill:none;stroke:#000000;stroke-width:1px;stroke-linecap:butt;stroke-linejoin:miter;stroke-opacity:1" />
      <path
         d="m 96.27542,121.94931 12.7246,-12.89862 M 95.4091,118.6416 102,112.00524 m 1.4091,6.63636 6.5909,-6.63636"
         id="path6169"
         style="fill:none;stroke:#000000;stroke-width:1px;stroke-linecap:butt;stroke-linejoin:miter;stroke-opacity:1" />
      <path
         d="m 56.07087,95.69931 12.7246,-12.89862 m -13.59092,9.59091 6.5909,-6.63636 m 1.4091,6.63636 6.5909,-6.63636"
         id="path6171"
         style="fill:none;stroke:#000000;stroke-width:1px;stroke-linecap:butt;stroke-linejoin:miter;stroke-opacity:1" />
      <path
         d="M 63.82087,17.19931 76.54547,4.30069 m -13.59092,9.59091 6.5909,-6.63636 m 1.4091,6.63636 6.5909,-6.63636"
         id="path6173"
         style="fill:none;stroke:#000000;stroke-width:1px;stroke-linecap:butt;stroke-linejoin:miter;stroke-opacity:1" />
      <path
         d="m 24.57087,36.94931 12.7246,-12.89862 m -13.59092,9.59091 6.5909,-6.63636 m 1.4091,6.63636 6.5909,-6.63636"
         id="path6175"
         style="fill:none;stroke:#000000;stroke-width:1px;stroke-linecap:butt;stroke-linejoin:miter;stroke-opacity:1" />
    </g>
  </g>
</svg>
