<svg height="128" width="200" xmlns="http://www.w3.org/2000/svg">
<g fill="none" stroke="#000" transform="translate(37.52 6.3)">
<path d="m3.5 76.58h114.42" stroke-width="7"/>
<path d="m10.5 43v34.29"/>
<path d="m94.68 43.18v34.47"/>
<path d="m11.24 48.5h82.39" stroke-width=".97"/>
<path d="m18.36 43.45-6.91 5.09 6.91 4.36m69.09 0 6-4.36-6-5.09"/>
<path d="m103.27 59.45 18.18 16.73-17.82 16.36" stroke-linecap="round" stroke-width="7"/>
</g>
<path d="m100.29 49.49h-17.67l.25-.65q1.41-.04 1.88-.23.74-.32 1.09-.83.54-.81 1.16-2.92l4.2-14.5q.53-1.79.53-2.64 0-.67-.49-1.04-.47-.37-1.81-.37-.3 0-.47-.02l.21-.65h9.72l-.14.65q-1.63 0-2.32.32-.69.32-1.14 1.04-.32.47-1.04 2.95l-4.13 14.26q-.47 1.62-.47 2.25 0 .42.47.81.3.26 1.35.26h2.3q2.51 0 3.99-.63 1.09-.47 2-1.42.49-.53 1.74-2.62l.46-.79h.65z"/>
</svg>
