<svg height="250" width="200" xmlns="http://www.w3.org/2000/svg" xmlns:xlink="http://www.w3.org/1999/xlink">
<g fill="none">
<g stroke="#000">
<path d="m130.85 90.52-81.31-51.17" stroke-dasharray="12 6" stroke-width="1.5"/>
<path d="m164.51 72.31h-61.9l-89.3 55.94" stroke-linecap="round" stroke-width="7"/>
<path d="m150.8 62.32 15.96 9.43-16.25 10.62" stroke-linecap="round" stroke-width="7"/>
<path d="m71.73 85.54c-2-9.75-1.87-19.82.37-29.52"/>
<path d="m68.64 60.48 3.52-4.83 1.31 5.95"/>
<path d="m73.95 79.87-1.94 5.69-4.41-4.32"/>
</g>
<g stroke="#a3a3a3">
<path d="m90.43 21.64 12.72-12.9m-13.59 9.59 6.59-6.64m1.41 6.64 6.59-6.64"/>
<path d="m61.46 35.35 12.72-12.9m-13.59 9.59 6.59-6.64m1.41 6.64 6.59-6.64"/>
<path d="m86.55 50.45 12.72-12.9m-13.59 9.59 6.59-6.64m1.41 6.64 6.59-6.64"/>
<path d="m35.97 137.91 12.72-12.9m-13.59 9.59 6.59-6.64m1.41 6.64 6.59-6.64"/>
</g>
<path d="m60.99 241.52 56.26-234.59" stroke="#000" stroke-linecap="round" stroke-width="3"/>
</g>
<path id="a" d="m33.47 8.02-2.34 8q3.29-4.9 5.03-6.45 1.76-1.55 3.38-1.55.88 0 1.44.58.58.58.58 1.51 0 1.05-.51 2.81l-2.14 7.4q-.37 1.28-.37 1.56 0 .25.14.42.14.16.3.16.21 0 .51-.23.93-.74 2.04-2.25l.54.33q-1.63 2.34-3.09 3.34-1.02.69-1.83.69-.65 0-1.04-.4-.39-.39-.39-1.05 0-.84.6-2.9l2.04-7.07q.39-1.32.39-2.06 0-.35-.23-.56-.23-.23-.56-.23-.49 0-1.18.42-1.3.79-2.71 2.62-1.41 1.81-2.97 4.64-.83 1.49-1.37 3.27l-.89 2.91h-2.64l3.2-11q.56-1.99.56-2.39 0-.39-.32-.67-.3-.3-.76-.3-.21 0-.74.07l-.65.1-.11-.63z"/>
<path d="m50.45 16.69-2.93 10.21q-.26.9-.26 1.3 0 .34.23.52.24.17 1.09.24l-.09.34h-4.69l.13-.34q.75-.02.98-.12.38-.16.57-.44.3-.42.61-1.5l2.11-7.33q.19-.67.21-.77.03-.18.03-.36 0-.32-.17-.5-.17-.18-.47-.18-.24 0-.74.11l-.12-.33 3.07-.86z"/>
<path d="m182.44 31.15h-7.15v-.39q5.47-4.79 7.23-7.51.82-1.26.82-2.65 0-1.1-.68-1.79-.68-.7-1.76-.7-1.49 0-2.46 1.43l-.37-.17q.54-1.37 1.58-2.12 1.04-.76 2.25-.76 1.37 0 2.3.94.93.93.93 2.27 0 .93-.33 1.73-.51 1.24-1.88 2.78-2.08 2.35-5.54 5.41h3.6q.87 0 1.43-.36.56-.36.81-.96h.42z"/>
<g fill="none">
<g stroke="#a3a3a3">
<path d="m117.91 91.7-6.64 6.59m6.99-.23-6.59-6.64"/>
<path d="m108.27 117.13-6.64 6.59m6.99-.23-6.59-6.64"/>
<path d="m141.27 108.5-6.64 6.59m6.99-.23-6.59-6.64"/>
<path d="m129.49 41.28-6.64 6.59m6.99-.23-6.59-6.64"/>
<path d="m156.51 31.9-6.64 6.59m6.99-.23-6.59-6.64"/>
<path d="m133.07 17.9-6.64 6.59m6.99-.23-6.59-6.64"/>
<path d="m141.22 138.74-6.64 6.59m6.99-.23-6.59-6.64"/>
<path d="m69.3 119.14 12.72-12.9m-13.59 9.59 6.59-6.64m1.41 6.64 6.59-6.64"/>
<path d="m164.84 88.16-6.64 6.59m6.99-.23-6.59-6.64"/>
</g>
<g stroke="#000">
<path d="m180.11 173.08h-101.9l-64.91 39.32" stroke-linecap="round" stroke-width="7"/>
<path d="m166.4 163.08 15.96 9.43-16.25 10.62" stroke-linecap="round" stroke-width="7"/>
<path d="m140.04 213.21-94.04-60.72" stroke-dasharray="12 6" stroke-width="1.5"/>
<g transform="matrix(-.92 -.4 .4 -.92 176.91 285.89)">
<path d="m71.73 85.54c-2-9.75-1.87-19.82.37-29.52"/>
<path d="m68.64 60.48 3.52-4.83 1.31 5.95"/>
<path d="m73.95 79.87-1.94 5.69-4.41-4.32"/>
</g>
</g>
<g stroke="#a3a3a3">
<path d="m105.63 147.78-6.64 6.59m6.99-.23-6.59-6.64"/>
<path d="m168.02 117.83-6.64 6.59m6.99-.23-6.59-6.64"/>
<path d="m180.05 144.35-6.64 6.59m6.99-.23-6.59-6.64"/>
<path d="m58.6 153.47 12.72-12.9m-13.59 9.59 6.59-6.64m1.41 6.64 6.59-6.64"/>
<path d="m25.72 183.52 12.72-12.9m-13.59 9.59 6.59-6.64m1.41 6.64 6.59-6.64"/>
<path d="m50.47 211.09 12.72-12.9m-13.59 9.59 6.59-6.64m1.41 6.64 6.59-6.64"/>
<path d="m27.13 236.9 12.72-12.9m-13.59 9.59 6.59-6.64m1.41 6.64 6.59-6.64"/>
</g>
</g>
<path id="b" d="m13.33 97.08-.34.16c-.79-1.51-1.36-2.84-1.7-3.99-.27-.9-.4-1.81-.4-2.73 0-2.14.49-4.05 1.48-5.75 1.22-2.07 3.18-4.09 5.91-6.06l.24.35c-1.23.91-2.23 1.93-3.01 3.06-.97 1.41-1.76 3.11-2.38 5.1s-.93 3.81-.93 5.44c0 1.25.38 2.72 1.13 4.42zm11.66-12.98h1.47l-2.13 4.87c.1 1.83.42 2.74.95 2.74.19 0 .36-.1.53-.29.17-.2.27-.44.3-.74h.41c-.2 1.62-.66 2.43-1.38 2.43-.25 0-.48-.13-.7-.4-.21-.27-.4-1.2-.56-2.79-1.22 2.13-2.6 3.19-4.12 3.19-.86 0-1.55-.3-2.07-.89s-.79-1.38-.79-2.37c0-.96.24-1.9.73-2.8.48-.91 1.09-1.67 1.81-2.28s1.52-.92 2.4-.92c.62 0 1.11.19 1.46.58.36.39.6.98.74 1.79zm-1.33 2.89c-.03-.48-.19-1.03-.46-1.63s-.67-.91-1.21-.91c-.78 0-1.56.75-2.36 2.24-.79 1.49-1.19 2.8-1.19 3.93 0 .62.13 1.12.39 1.48.27.37.63.55 1.09.55.48 0 .91-.25 1.29-.74.39-.5.92-1.52 1.6-3.06zm24.16-7.9c.85 0 1.56.36 2.14 1.07s.88 1.83.88 3.37c0 1.31-.22 2.66-.65 4.02-.43 1.37-1.04 2.55-1.82 3.56-.62.79-1.28 1.36-1.96 1.71-.4.2-.86.3-1.38.3-.86 0-1.59-.36-2.17-1.07s-.87-1.84-.87-3.38c0-1.52.29-3.05.88-4.58.68-1.79 1.56-3.15 2.62-4.08.7-.61 1.48-.92 2.34-.92zm.01.52c-.39 0-.78.15-1.18.46-.39.3-.8.93-1.23 1.88-.42.96-.82 2.19-1.21 3.7-.5 1.97-.75 3.65-.75 5.04 0 .69.15 1.21.45 1.55s.66.51 1.09.51c.41 0 .75-.13 1.04-.4.76-.72 1.42-1.94 1.96-3.68.88-2.84 1.32-5.14 1.32-6.91 0-.74-.15-1.28-.45-1.62-.3-.35-.65-.53-1.06-.53zm6.11-.71.34-.19c.79 1.5 1.35 2.83 1.69 3.98.27.9.41 1.81.41 2.73 0 2.14-.49 4.06-1.48 5.75-1.22 2.08-3.19 4.1-5.91 6.07l-.24-.31c1.23-.92 2.23-1.94 3.01-3.06.97-1.41 1.76-3.11 2.38-5.1.62-2 .93-3.82.93-5.45 0-1.25-.38-2.72-1.13-4.42z"/>
<path id="c" d="m55.79 58.22h2.87l-4.15 9.49q.29 5.34 1.84 5.34.54 0 1.03-.56.49-.58.58-1.44h.8q-.58 4.73-2.7 4.73-.74 0-1.36-.78-.62-.78-1.09-5.43-3.57 6.21-8.03 6.21-2.5 0-4.04-1.73-1.53-1.73-1.53-4.62 0-2.81 1.42-5.45 1.42-2.66 3.53-4.44 2.12-1.79 4.68-1.79 1.82 0 2.85 1.13 1.05 1.13 1.44 3.49zm-2.6 5.63q-.1-1.42-.89-3.18-.8-1.77-2.35-1.77-2.27 0-4.6 4.37-2.31 4.35-2.31 7.66 0 1.82.76 2.89.78 1.07 2.12 1.07 1.4 0 2.52-1.44 1.13-1.46 3.12-5.96z"/>
<g fill="none" stroke="#a3a3a3">
<path d="m10.52 163.37 12.72-12.9m-13.59 9.59 6.59-6.64m1.41 6.64 6.59-6.64"/>
<path d="m92.56 195.24-6.64 6.59m6.99-.23-6.59-6.64"/>
<path d="m85.78 226.63-6.64 6.59m6.99-.23-6.59-6.64"/>
<path d="m116.34 216.5-6.64 6.59m6.99-.23-6.59-6.64"/>
<path d="m124.18 183.59-6.64 6.59m6.99-.23-6.59-6.64"/>
<path d="m179.51 47.4-6.64 6.59m6.99-.23-6.59-6.64"/>
<path d="m12.31 55.15 12.72-12.9m-13.59 9.59 6.59-6.64m1.41 6.64 6.59-6.64"/>
<path d="m135.34 234-6.64 6.59m6.99-.23-6.59-6.64"/>
</g>
<use transform="translate(134.36 .1)" xlink:href="#a"/>
<use transform="translate(106.42 134.7)" xlink:href="#c"/>
<path id="d" d="m39.21 86.38-10.71 4.64v-.86l9.23-4-9.23-4.04v-.91l10.72 4.68z"/>
<use transform="translate(135.42 136.47)" xlink:href="#b"/>
<use transform="matrix(-1 0 0 1 203.13 136.47)" xlink:href="#d"/>
</svg>
