<svg height="385" width="260" xmlns="http://www.w3.org/2000/svg" xmlns:xlink="http://www.w3.org/1999/xlink">
<linearGradient id="a" gradientTransform="matrix(.83 0 0 1 33.35 3.98)" gradientUnits="userSpaceOnUse" x1="75.63" x2="75.63" y1="49.2" y2="206.53">
<stop offset="0" stop-color="#f0f0f0"/>
<stop offset=".5" stop-color="#6a6a6a"/>
<stop offset="1" stop-color="#f0f0f0"/>
</linearGradient>
<linearGradient id="b" gradientTransform="matrix(.83 0 0 1 33.35 171.98)" gradientUnits="userSpaceOnUse" x1="75.63" x2="75.63" y1="50.28" y2="206.81">
<stop offset="0" stop-color="#6a6a6a"/>
<stop offset=".5" stop-color="#f0f0f0"/>
<stop offset="1" stop-color="#6a6a6a"/>
</linearGradient>
<g stroke="#000">
<path d="m49.52 221.48h97v157h-97z" fill="url(#b)" stroke-width="3"/>
<g fill="none">
<path d="m3.52 299.98h250.42" stroke-width="4"/>
<path d="m248.02 305.98 7-6-7-6" stroke-linecap="round" stroke-width="3"/>
<path d="m252.52 236.2.71-9.19-9.19.71" stroke-linecap="round" stroke-width="3"/>
<path d="m3.52 280.98h66.79c80.53 0 134.88-14.59 181.63-51.99" stroke-width="4"/>
</g>
<path d="m49.52 53.48h97v157h-97z" fill="url(#a)" stroke-width="3"/>
<g fill="none">
<path d="m3.52 131.98h250.42" stroke-width="4"/>
<path d="m147.52 30.8v34.47"/>
<path d="m50.43 34.48h95.47" stroke-width="1.02"/>
<path d="m141.66 30.16 4.91 4.36-4.91 3.64m-87-8-4.91 4.18 4.91 3.82"/>
</g>
</g>
<text font-family="Times New Roman" font-size="10" font-style="italic" x="89.27" y="27.97"><tspan font-size="36" x="89.27" y="27.97">L</tspan></text>
<g fill="none" stroke="#000">
<path d="m3.52 71.04h66.79c80.53 0 134.88 42.59 181.63 79.99" stroke-width="4"/>
<path d="m48.52 30.8v34.47"/>
<g stroke-linecap="round" stroke-width="3">
<path d="m248.02 137.98 7-6-7-6"/>
<path d="m252.52 120.2.71-9.19-9.19.71"/>
<path d="m252.52 143.78.71 9.19-9.19-.71"/>
</g>
</g>
<g font-family="Times New Roman" font-style="italic" transform="translate(19.61 2.69)">
<text font-size="10" x="64" y="115.02"><tspan font-size="36" x="64" y="115.02">n</tspan></text>
<text font-size="7.02" transform="scale(.99 1.01)" x="80.3" y="122.41"><tspan font-size="25.28" x="80.3" y="122.41">0</tspan></text>
</g>
<path d="m3.52 192.98h66.79c80.53 0 134.88-42.59 181.63-79.99" fill="none" stroke="#000" stroke-width="4"/>
<g font-family="Times New Roman" font-style="italic" transform="translate(104.61 -42.59)">
<text font-size="10" x="64" y="115.02"><tspan font-size="36" x="64" y="115.02">n &gt;0</tspan></text>
<text font-size="7.02" transform="scale(.99 1.01)" x="80.3" y="122.41"><tspan font-size="25.28" x="80.3" y="122.41">2</tspan></text>
</g>
<g font-family="Times New Roman" font-style="italic" transform="translate(94.82 121.59)">
<text font-size="10" x="64" y="115.02"><tspan font-size="36" x="64" y="115.02">n &lt;0</tspan></text>
<text font-size="7.02" transform="scale(.99 1.01)" x="80.3" y="122.41"><tspan font-size="25.28" x="80.3" y="122.41">2</tspan></text>
</g>
<g fill="none" stroke="#000">
<path d="m252.52 364.16.71 9.19-9.19-.71" stroke-linecap="round" stroke-width="3"/>
<path d="m3.52 319.38h66.79c80.53 0 134.88 14.59 181.63 51.99" stroke-width="4"/>
</g>
</svg>
