<svg height="250" width="200" xmlns="http://www.w3.org/2000/svg">
  <path d="m130.84611 90.523277-81.311165-51.174497" fill="none" stroke="#000" stroke-dasharray="12 6" stroke-width="1.5"/>
  <path d="m164.51014 72.31455h-61.90276l-89.304978 55.93973" fill="none" stroke="#000" stroke-linecap="round" stroke-width="7"/>
  <path d="m150.79961 62.319767 15.9643 9.433308-16.25003 10.623594" fill="none" stroke="#000" stroke-linecap="round" stroke-width="7"/>
  <path d="m71.729128 85.53843c-1.998941-9.75108-1.872973-19.81843.369331-29.51644" fill="none" stroke="#000"/>
  <path d="m68.638692 60.47905 3.522538-4.83455 1.312212 5.95267" fill="none" stroke="#000"/>
  <path d="m73.952882 79.87082-1.936985 5.69249-4.405602-4.31532" fill="none" stroke="#000"/>
  <path d="m90.426454 21.64243 12.724596-12.898617m-13.590916 9.59091 6.5909-6.63636m1.4091 6.63636 6.590896-6.63636" fill="none" stroke="#a3a3a3"/>
  <path d="m61.457816 35.352405 12.7246-12.898619m-13.59092 9.590909 6.5909-6.636359m1.4091 6.636359 6.5909-6.636359" fill="none" stroke="#a3a3a3"/>
  <path d="m86.553502 50.450588 12.7246-12.89862m-13.59092 9.59091 6.5909-6.63636m1.4091 6.63636 6.590898-6.63636" fill="none" stroke="#a3a3a3"/>
  <path d="m35.972485 137.90932 12.7246-12.89862m-13.59092 9.59091 6.5909-6.63636m1.4091 6.63636 6.5909-6.63636" fill="none" stroke="#a3a3a3"/>
  <path d="m60.985665 241.51847 56.255245-234.589571" fill="none" stroke="#000" stroke-linecap="round" stroke-width="3"/>
  <g font-family="Times New Roman" font-style="italic" transform="translate(-35.355339 -7.424621)">
    <text font-size="10" x="60.875595" y="31.352921"><tspan font-size="36" x="60.875595" y="31.352921">n</tspan></text>
    <text font-size="5.18307" x="78.018036" y="36.721336"><tspan font-size="18.65905" x="78.018036" y="36.721336">1</tspan></text>
  </g>
  <g font-family="Times New Roman" font-style="italic" transform="translate(53.386562 -94.398755)">
    <text font-size="10" x="106.49361" y="118.43114"><tspan font-size="36" x="106.49361" y="118.43114">n</tspan></text>
    <text font-size="6.027103" x="121.56142" y="125.54956"><tspan font-size="21.697573" x="121.56142" y="125.54956">2</tspan></text>
  </g>
  <g fill="none">
    <path d="m117.91044 91.703694-6.63638 6.5909m6.98864-.2273-6.5909-6.63637" stroke="#a3a3a3"/>
    <path d="m108.27433 117.12632-6.63637 6.5909m6.98864-.2273-6.5909-6.63637" stroke="#a3a3a3"/>
    <path d="m141.27344 108.49629-6.63638 6.5909m6.98864-.2273-6.5909-6.63637" stroke="#a3a3a3"/>
    <path d="m129.48754 41.276071-6.63638 6.5909m6.98864-.2273-6.5909-6.63637" stroke="#a3a3a3"/>
    <path d="m156.5142 31.900965-6.63637 6.5909m6.98863-.2273-6.5909-6.63637" stroke="#a3a3a3"/>
    <path d="m133.06578 17.896451-6.63638 6.59091m6.98864-.2273-6.5909-6.63638" stroke="#a3a3a3"/>
    <path d="m141.21886 138.74053-6.63638 6.5909m6.98864-.2273-6.5909-6.63637" stroke="#a3a3a3"/>
    <path d="m69.295825 119.14435 12.7246-12.89862m-13.59092 9.59091 6.5909-6.63636m1.4091 6.63636 6.5909-6.63636" stroke="#a3a3a3"/>
    <path d="m164.8402 88.161773-6.63638 6.5909m6.98864-.2273-6.5909-6.63637" stroke="#a3a3a3"/>
    <path d="m180.11496 173.07727h-101.902764l-64.909794 39.32272" stroke="#000" stroke-linecap="round" stroke-width="7"/>
    <path d="m166.40443 163.08249 15.9643 9.43331-16.25003 10.62359" stroke="#000" stroke-linecap="round" stroke-width="7"/>
    <path d="m140.03849 213.20631-94.039079-60.72044" stroke="#000" stroke-dasharray="12 6" stroke-width="1.5"/>
    <g stroke="#000" transform="matrix(-.91672496 -.39951888 .39951888 -.91672496 176.9146 285.88514)">
      <path d="m71.729128 85.53843c-1.998941-9.75108-1.872973-19.81843.369331-29.51644"/>
      <path d="m68.638692 60.47905 3.522538-4.83455 1.312212 5.95267"/>
      <path d="m73.952882 79.87082-1.936985 5.69249-4.405602-4.31532"/>
    </g>
    <path d="m105.63219 147.78496-6.636366 6.5909m6.988636-.2273-6.590896-6.63637" stroke="#a3a3a3"/>
    <path d="m168.02485 117.83343-6.63637 6.5909m6.98864-.2273-6.5909-6.63637" stroke="#a3a3a3"/>
    <path d="m180.04567 144.34993-6.63637 6.5909m6.98864-.2273-6.5909-6.63637" stroke="#a3a3a3"/>
    <path d="m58.599902 153.46567 12.7246-12.89862m-13.59092 9.59091 6.5909-6.63636m1.4091 6.63636 6.5909-6.63636" stroke="#a3a3a3"/>
    <path d="m25.719437 183.51771 12.7246-12.89862m-13.59092 9.59091 6.5909-6.63636m1.4091 6.63636 6.5909-6.63636" stroke="#a3a3a3"/>
    <path d="m50.468175 211.09487 12.7246-12.89862m-13.59092 9.59091 6.5909-6.63636m1.4091 6.63636 6.5909-6.63636" stroke="#a3a3a3"/>
    <path d="m27.133651 236.90426 12.7246-12.89862m-13.59092 9.59091 6.5909-6.63636m1.4091 6.63636 6.5909-6.63636" stroke="#a3a3a3"/>
  </g>
  <text font-family="Times New Roman" font-size="20.398727" font-style="italic" x="9.504468" y="92.881332"><tspan x="9.504468" y="92.881332">(α&gt;0)</tspan></text>
  <text font-family="Times New Roman" font-size="39.737831" font-style="italic" x="145.27327" y="210.02409"><tspan x="145.27327" y="210.02409">α</tspan></text>
  <text font-family="Times New Roman" font-size="20.398727" font-style="italic" x="144.91542" y="229.35294"><tspan x="144.91542" y="229.35294">(α&lt;0)</tspan></text>
  <text font-family="Times New Roman" font-size="39.737831" font-style="italic" x="38.853695" y="75.320259"><tspan x="38.853695" y="75.320259">α</tspan></text>
  <path d="m10.516641 163.36517 12.7246-12.89862m-13.5909198 9.59091 6.5908998-6.63636m1.4091 6.63636 6.5909-6.63636" fill="none" stroke="#a3a3a3"/>
  <path d="m92.561126 195.23649-6.63637 6.5909m6.98864-.2273-6.5909-6.63637" fill="none" stroke="#a3a3a3"/>
  <path d="m85.778639 226.63168-6.63637 6.5909m6.98864-.2273-6.5909-6.63637" fill="none" stroke="#a3a3a3"/>
  <path d="m116.34108 216.49564-6.63637 6.5909m6.98864-.2273-6.5909-6.63637" fill="none" stroke="#a3a3a3"/>
  <path d="m124.18423 183.59436-6.63637 6.5909m6.98864-.2273-6.5909-6.63637" fill="none" stroke="#a3a3a3"/>
  <path d="m179.5142 47.400965-6.63637 6.5909m6.98863-.2273-6.5909-6.63637" fill="none" stroke="#a3a3a3"/>
  <path d="m12.313895 55.151395 12.7246-12.898619m-13.59092 9.590909 6.5909-6.636359m1.4091 6.636359 6.5909-6.636359" fill="none" stroke="#a3a3a3"/>
  <path d="m135.34108 233.99564-6.63637 6.5909m6.98864-.2273-6.5909-6.63637" fill="none" stroke="#a3a3a3"/>
</svg>
