<svg height="128" width="200" xmlns="http://www.w3.org/2000/svg">
<g transform="translate(4.34)">
<g fill="none" stroke="#000">
<path d="m67 48.98-49.02-9.51" stroke-dasharray="12 6" stroke-width="1.5"/>
<path d="m165 64.98-49.02-9.51" stroke-dasharray="12 6" stroke-width="1.5"/>
<path d="m-132.85 8.68h53.5v85.47h-53.5z" stroke-width="3.04" transform="matrix(-1 0 -.24 .97 0 0)"/>
<path d="m175.28 12.37-57 40.59h-51.9l-52.41 33.32" stroke-linecap="round" stroke-width="7"/>
<path d="m161.79 10.25 18.38-2.47-6.19 18.4" stroke-linecap="round" stroke-width="7"/>
<path d="m155.12 32.58c3.91 9.15 5.8 19.04 5.55 28.99"/>
<path d="m163.17 56.52-2.48 5.44-2.48-5.57"/>
<path d="m154.08 38.58.76-5.96 5.18 3.35"/>
<path d="m25.44 73.25c-2-9.75-1.87-19.82.37-29.52"/>
<path d="m22.35 48.19 3.52-4.83 1.31 5.95"/>
<path d="m27.66 67.58-1.94 5.69-4.41-4.32"/>
<path d="m124.52 98.59-28.55-22.91" stroke-width="1.5"/>
<path d="m97.42 81.68-1.82-6.36 7.45 1.27"/>
</g>
<text font-family="Times New Roman" font-size="10" font-style="italic" x="126.51" y="107.22"><tspan font-size="36" x="126.51" y="107.22">n</tspan></text>
<g fill="none" stroke="#000">
<path d="m82.02 26.71 12.72-12.9m-13.59 9.59 6.59-6.64m1.41 6.64 6.59-6.64"/>
<path d="m106.02 28.71 12.72-12.9m-13.59 9.59 6.59-6.64m1.41 6.64 6.59-6.64"/>
<path d="m84.02 44.71 12.72-12.9m-13.59 9.59 6.59-6.64m1.41 6.64 6.59-6.64"/>
<path d="m98.02 72.71 12.72-12.9m-13.59 9.59 6.59-6.64m1.41 6.64 6.59-6.64"/>
<path d="m70.02 72.71 12.72-12.9m-13.59 9.59 6.59-6.64m1.41 6.64 6.59-6.64"/>
<path d="m72.02 88.71 12.72-12.9m-13.59 9.59 6.59-6.64m1.41 6.64 6.59-6.64"/>
</g>
<text font-family="Times New Roman" font-size="10" font-style="italic" x="73.1" y="125.78"><tspan font-size="36" x="73.1" y="125.78">L</tspan></text>
<g fill="none" stroke="#000">
<path d="m55.83 118.99v-26.29"/>
<path d="m111.39 119.17v-26.47"/>
<path d="m105.04 119.81 4.91-4.36-4.91-3.64m-43.13 8-4.91-4.18 4.91-3.82"/>
<path d="m73.42 115.58h-16.29"/>
<path d="m109.74 115.58h-16.29"/>
</g>
<g font-family="Times New Roman" font-size="28" font-style="italic">
<text x="170.86" y="52.13"><tspan x="170.86" y="52.13">α</tspan></text>
<text x="5.61" y="64.67"><tspan x="5.61" y="64.67">α</tspan></text>
</g>
</g>
</svg>
