<svg height="128" width="200" xmlns="http://www.w3.org/2000/svg">
<g transform="translate(5.34)">
<g fill="none" stroke="#000">
<path d="m65.94 51-42.91-25.55" stroke-dasharray="12 6" stroke-width="1.5"/>
<path d="m157.94 79-42.91-25.55" stroke-dasharray="12 6" stroke-width="1.5"/>
<path d="m175.28 12.37-57 40.59h-51.9l-52.41 33.32" stroke-linecap="round" stroke-width="7"/>
<path d="m161.79 10.25 18.38-2.47-6.19 18.4" stroke-linecap="round" stroke-width="7"/>
<path d="m147.14 38.7c1.41 9.85.68 19.9-2.15 29.44"/>
<path d="m148.72 63.9-3.81 4.61-.95-6.02"/>
<path d="m144.58 44.22 2.28-5.57 4.14 4.57"/>
<path d="m35.49 66.19c-2-9.75-1.87-19.82.37-29.52"/>
<path d="m32.4 41.13 3.52-4.83 1.31 5.95"/>
<path d="m37.72 60.52-1.94 5.69-4.41-4.32"/>
<path d="m124.52 98.59-28.55-22.91" stroke-width="1.5"/>
<path d="m97.42 81.68-1.82-6.36 7.45 1.27"/>
</g>
<text font-family="Times New Roman" font-size="10" font-style="italic" x="126.51" y="107.22"><tspan font-size="36" x="126.51" y="107.22">n</tspan></text>
<g fill="none" stroke="#000">
<path d="m86.02 28.71 12.72-12.9m-13.59 9.59 6.59-6.64m1.41 6.64 6.59-6.64"/>
<path d="m104.02 44.71 12.72-12.9m-13.59 9.59 6.59-6.64m1.41 6.64 6.59-6.64"/>
<path d="m80.02 46.71 12.72-12.9m-13.59 9.59 6.59-6.64m1.41 6.64 6.59-6.64"/>
<path d="m90.02 72.71 12.72-12.9m-13.59 9.59 6.59-6.64m1.41 6.64 6.59-6.64"/>
<path d="m66.02 72.71 12.72-12.9m-13.59 9.59 6.59-6.64m1.41 6.64 6.59-6.64"/>
<path d="m66.02 88.71 12.72-12.9m-13.59 9.59 6.59-6.64m1.41 6.64 6.59-6.64"/>
</g>
<text font-family="Times New Roman" font-size="10" font-style="italic" x="51.45" y="125.78"><tspan font-size="36" x="51.45" y="125.78">L</tspan></text>
<g fill="none" stroke="#000">
<path d="m77.75 124.02 6.38-1.58-2.65-5.5m-37.68-10.93-2.4-5.99 6.12-1.09"/>
<path d="m56.06 107.67-14.41-7.58"/>
<path d="m83.79 122.23-14.41-7.58"/>
</g>
<g font-family="Times New Roman" font-style="italic">
<text font-size="8.14" transform="scale(.96 1.04)" x="155.78" y="59.67"><tspan font-size="29.29" x="155.78" y="59.67">Θ</tspan></text>
<text font-size="5.28" transform="scale(.95 1.06)" x="177.06" y="64.81"><tspan font-size="19.02" x="177.06" y="64.81">b</tspan></text>
<text font-size="8.14" transform="scale(.96 1.04)" x="4.08" y="53.9"><tspan font-size="29.29" x="4.08" y="53.9">Θ</tspan></text>
<text font-size="5.28" transform="scale(.95 1.06)" x="22.83" y="59.13"><tspan font-size="19.02" x="22.83" y="59.13">b</tspan></text>
</g>
<g fill="none" stroke="#000">
<path d="m82.37-36.32h48.19v89.91h-48.19z" stroke-dashoffset="21.44" stroke-linecap="round" stroke-width="3" transform="matrix(.89 .45 -.45 .89 0 0)"/>
<path d="m95 103.56-11.19 22.06m-45.23-21.81 11.44-22.55" stroke-dashoffset="21.44" stroke-linecap="round"/>
<path d="m82.02 96.71 12.72-12.9m-13.59 9.59 6.59-6.64m1.41 6.64 6.59-6.64"/>
</g>
</g>
</svg>
