<svg height="24" width="24" xmlns="http://www.w3.org/2000/svg" xmlns:xlink="http://www.w3.org/1999/xlink">
  <linearGradient id="a" gradientUnits="userSpaceOnUse" x1="8.875766" x2="8.725674" y1="1.038194" y2="22.990282">
    <stop offset="0" stop-color="#dbf6ff"/>
    <stop offset="1" stop-color="#7ddcfd"/>
  </linearGradient>
  <g>
    <path d="m1.560891 22.471039 20.932674-20.8876232" fill="none" stroke="#f00" stroke-linecap="round" stroke-width="3"/>
    <path d="m17.500493 1.5225248h4.976982v5.012702" fill="none" stroke="#f00" stroke-linecap="round" stroke-linejoin="round" stroke-width="3"/>
    <path d="m7.759544.7642311h2.254224s3.066106 5.4232419 3.095161 11.1810019c.029056 5.757761-3.095161 11.304767-3.095161 11.304767h-2.254224c-.076347-7.530013-.096438-14.8106261 0-22.4857689z" fill="url(#a)" fill-rule="evenodd" stroke="#00b4ff" stroke-width="1.5"/>
    <path d="m5.017501 19.060038 11.100549-11.1005489" fill="none" stroke="#f00" stroke-opacity=".316667" stroke-width="3"/>
    <path d="m17.05891 14.430734q.723854 0 1.50803.256365.784175.241284.889737.241284.196044 0 .301606-.105562.105562-.120642.180964-.407168h.452408v3.272424h-.422248q-.437328-1.432628-1.221504-2.111241-.769095-.678613-1.688993-.678613-.769095 0-1.221504.407168-.437328.407168-.437328 1.100861 0 .542891.316686.904818.331767.346847 1.236584.799256l2.216804 1.100861q.723854.361927 1.191343 1.131022.467489.769095.467489 1.613592 0 1.417547-1.04054 2.307285-1.02546.874657-2.699373.874657-.814336 0-1.628672-.256365-.799256-.256365-.950058-.256365-.331767 0-.452409.51273h-.437329v-3.724833h.437329q.784175 3.227183 3.07638 3.227183.874657 0 1.387387-.467489.51273-.467489.51273-1.251664 0-.588132-.346847-.965139-.346847-.377008-1.342146-.844497l-1.01038-.482569q-1.342146-.648453-1.960438-1.387387-.618292-.754015-.618292-1.749314 0-1.432628.874657-2.246964.889737-.814336 2.427927-.814336z" transform="scale(1.1059606 .90419136)"/>
  </g>
</svg>
