<svg height="256" width="128" xmlns="http://www.w3.org/2000/svg">
  <g fill="none" stroke="#000">
    <path d="m111.33978 7.065277-90.000001 60 90.000001 55.000003" stroke-width="7"/>
    <path d="m16.339779 66.5h95.000001" stroke-dasharray="8 2 1 2"/>
    <path d="m91.339779 122.06528h20.000001l-10-20" stroke-linecap="round" stroke-width="7"/>
    <path d="m77.301686 32.843803c5.112767 10.138732 7.887609 21.397199 8.101042 32.868652" stroke-linecap="round" stroke-linejoin="bevel"/>
    <path d="m76.404265 41.284424 1.371359-7.444518 7.052701 4.309984"/>
    <path d="m88.746493 59.112086-3.330443 6.856793-4.114075-6.269068"/>
    <path d="m111.33978 131.06528-78.245499 60 78.245499 55" stroke-width="7"/>
    <path d="m91.339779 246.06528h20.000001l-10-20" stroke-linecap="round" stroke-width="7"/>
    <path d="m28.094281 190.5h83.245499" stroke-dasharray="8 2 1 2"/>
    <path d="m83.301686 156.8438c5.112767 10.13873 7.887609 21.3972 8.101042 32.86866" stroke-linecap="round" stroke-linejoin="bevel"/>
    <path d="m82.404265 165.28442 1.371359-7.44451 7.052701 4.30998"/>
    <path d="m94.746493 183.11209-3.330443 6.85679-4.114075-6.26907"/>
  </g>
  <text font-family="Times New Roman" font-size="10" font-style="italic" x="32.128971" y="130.61864"><tspan font-size="28" x="32.128971" y="130.61864">R&gt;0</tspan></text>
  <text font-family="Times New Roman" font-size="10" font-style="italic" x="28.128971" y="252.61864"><tspan font-size="28" x="28.128971" y="252.61864">R&lt;0</tspan></text>
  <text font-family="Times New Roman" font-size="28" font-style="italic" x="90.077026" y="50.523399"><tspan x="90.077026" y="50.523399">α</tspan></text>
  <text font-family="Times New Roman" font-size="28" font-style="italic" x="95.618149" y="174.64461"><tspan x="95.618149" y="174.64461">α</tspan></text>
  <path d="m16.415659 245.06841h-10.57665v-109.00362h10.57665c13.258252 24.92551 13.258252 84.43166 0 109.00362z" fill="none" stroke="#000" stroke-width="3"/>
  <path d="m25.354505 209.10567-19.702555-23.11677m20.144497 15.6471-20.144497-23.6471m20.232885 15.73549-20.232885-23.73549m20.894457 17.09156-20.894457-25.09156m20.038301 16.5283-20.038301-24.5283m18.944709 15.09376-18.944709-23.09376m17.590993 12.68946-16.86372-20.96218m18.268175 79.03594-18.995448-22.76322m18.270534 30.13425-18.270534-22.13425m16.962191 27.8486-16.962191-19.8486m15.562778 25.65621-15.562778-17.65621m13.423974 22.71435-13.423974-14.71435m11.035293 19.93178-11.035293-11.93178m4.512605 12.61359-4.512605-4.61359m6.308179-104.50955 8.900948 10.8976" fill="none" stroke="#000"/>
  <path d="m15.345341 68.818967-9.27273-11.272727m9.27273 3.272727-9.27273-11.272727m9.27273 3.272727-9.27273-11.272727m10.818185 4.363636-10.818185-12.363636m11.818185 6.363636-11.818185-14.363639m13.818185 8.818185-13.818185-16.818185m16.000003 11.363639-15.27273-19.6363587m8.545457 67.5454497-9.27273-11.272727m11.818185 22.090909-11.818185-14.090909m15.636366 25.727277-15.636366-17.727277m22.545457 32.72728-22.545457-24.72728m18.727275 28.63637-18.727275-20.636373m12.27273 20.727283-12.27273-12.72728m4.954547 13.40909-4.954547-5.40909m8.164334-103.006953 10.226774 13.37248m-5.049525-15.0583097 8.748278 10.9940197" fill="none" stroke="#000"/>
  <path d="m30.50787 14.509663c-18.800735 27.609971-20.315898 69.933267-.56247 100.010607l-2.72831 3.93307h-20.57665v-109.003617h20.75847z" fill="none" stroke="#000" stroke-width="3"/>
</svg>
