<svg height="128" width="200" xmlns="http://www.w3.org/2000/svg">
  <g transform="translate(27.522725 -.747207)">
    <path d="m3.5 76.579542h134.42273" fill="none" stroke="#000" stroke-width="7"/>
    <path d="m20.5 43v34.287026" fill="none" stroke="#000"/>
    <path d="m94.681818 43.181818v34.468844" fill="none" stroke="#000"/>
    <path d="m22.744734 48.5h70.955979" fill="none" stroke="#000" stroke-width=".902745"/>
    <path d="m28.727272 43.454545-6.909091 5.09091 6.909091 4.363636m58.727273 0 6.000003-4.363636-6.000003-5.09091" fill="none" stroke="#000"/>
    <path d="m123.27273 59.454545 18.18182 16.727273-17.81818 16.363632" fill="none" stroke="#000" stroke-linecap="round" stroke-width="7"/>
    <text font-family="Times New Roman" font-size="10" font-style="italic" x="46.2579" y="43.190697"><tspan font-size="36" x="46.2579" y="43.190697">L</tspan></text>
    <path d="m116.25 7c-11.78697 8.915526 1.98784 21.171117 1.84417 31-.17053 11.916585-10.02805 15.969876-5.27804 25.460193 5.65741 11.303262-3.47356 20.23538-4.16969 29.67334-.74809 10.142497 8.47984 10.280277 8.76346 19.394027.20693 6.64925-2.83322 10.09548-6.1599 13.72244" fill="none" stroke="#000"/>
    <path d="m11.25 4.75c-6.7631966 10.074452 1.506642 18.009346 1.666519 25.23975.219212 9.663809-6.3275879 16.244612-1.108326 26.679206 4.175075 8.347007 3.946213 17.538816-.812211 25.222944-5.954588 9.615751 5.54083 15.300894 4.301192 24.88858-.897425 6.94092-6.7553314 10.48224-9.297174 16.21952" fill="none" stroke="#000"/>
    <text font-family="Times New Roman" font-size="10" font-style="italic" x="69.636719" y="121.99316"><tspan font-size="36" x="69.636719" y="121.99316">n</tspan></text>
    <g fill="none" stroke="#000">
      <path d="m90.86632 20.19931 12.7246-12.89862m-13.59092 9.59091 6.5909-6.63636m1.4091 6.63636 6.5909-6.63636"/>
      <path d="m74.82087 41.44931 12.7246-12.89862m-13.59092 9.59091 6.5909-6.63636m1.4091 6.63636 6.5909-6.63636"/>
      <path d="m14.07087 18.64862 12.7246-12.89862m-13.59092 9.59091 6.5909-6.63636m1.4091 6.63636 6.5909-6.63636"/>
      <path d="m32.07087 68.19931 12.7246-12.89862m-13.59092 9.59091 6.5909-6.63636m1.4091 6.63636 6.5909-6.63636"/>
      <path d="m65.32087 68.19931 12.7246-12.89862m-13.59092 9.59091 6.5909-6.63636m1.4091 6.63636 6.5909-6.63636"/>
      <path d="m87.86632 97.19931 12.7246-12.89862m-13.59092 9.59091 6.5909-6.63636m1.4091 6.63636 6.5909-6.63636"/>
      <path d="m19.57087 97.69931 12.7246-12.89862m-13.59092 9.59091 6.5909-6.63636m1.4091 6.63636 6.5909-6.63636"/>
      <path d="m45.86632 117.44931 12.7246-12.89862m-13.59092 9.59091 6.5909-6.63636m1.4091 6.63636 6.5909-6.63636"/>
      <path d="m18.57087 121.19931 12.7246-12.89862m-13.59092 9.59091 6.5909-6.63636m1.4091 6.63636 6.5909-6.63636"/>
      <path d="m101.27542 49.19931 12.7246-12.89862m-13.59092 9.59091 6.5909-6.63636m1.4091 6.63636 6.5909-6.63636"/>
      <path d="m96.27542 121.94931 12.7246-12.89862m-13.59092 9.59091 6.5909-6.63636m1.4091 6.63636 6.5909-6.63636"/>
      <path d="m56.07087 95.69931 12.7246-12.89862m-13.59092 9.59091 6.5909-6.63636m1.4091 6.63636 6.5909-6.63636"/>
      <path d="m63.82087 17.19931 12.7246-12.89862m-13.59092 9.59091 6.5909-6.63636m1.4091 6.63636 6.5909-6.63636"/>
      <path d="m24.57087 36.94931 12.7246-12.89862m-13.59092 9.59091 6.5909-6.63636m1.4091 6.63636 6.5909-6.63636"/>
    </g>
  </g>
</svg>
