<?xml version="1.0" encoding="UTF-8" standalone="no"?>
<svg
   xmlns:dc="http://purl.org/dc/elements/1.1/"
   xmlns:cc="http://creativecommons.org/ns#"
   xmlns:rdf="http://www.w3.org/1999/02/22-rdf-syntax-ns#"
   xmlns:svg="http://www.w3.org/2000/svg"
   xmlns="http://www.w3.org/2000/svg"
   id="svg2513"
   height="80"
   width="128"
   version="1.0">
  <metadata
     id="metadata14">
    <rdf:RDF>
      <cc:Work
         rdf:about="">
        <dc:format>image/svg+xml</dc:format>
        <dc:type
           rdf:resource="http://purl.org/dc/dcmitype/StillImage" />
        <dc:title></dc:title>
      </cc:Work>
    </rdf:RDF>
  </metadata>
  <defs
     id="defs2515">
    <linearGradient
       id="linearGradient3985">
      <stop
         offset="0"
         style="stop-color:#afafaf;stop-opacity:1"
         id="stop3987" />
      <stop
         offset="1"
         style="stop-color:#565656;stop-opacity:1"
         id="stop3989" />
    </linearGradient>
  </defs>
  <path
     d="m 4.291126,40.5 114.422734,0"
     id="path5494"
     style="fill:none;fill-rule:evenodd;stroke:#000000;stroke-width:7;stroke-linecap:butt;stroke-linejoin:miter;stroke-miterlimit:4;stroke-dasharray:none;stroke-opacity:1;marker-end:none" />
  <rect
     width="68"
     height="67"
     x="20.5"
     y="5.5"
     id="rect5508"
     style="fill:#ffffff;fill-opacity:1;fill-rule:nonzero;stroke:#000000;stroke-width:3;stroke-linecap:butt;stroke-linejoin:miter;stroke-miterlimit:4;stroke-dasharray:none;stroke-dashoffset:0;stroke-opacity:1" />
  <path
     d="m 100.60931,23.727265 18.18182,16.727273 -17.81818,16.363636"
     id="path5147"
     style="fill:none;fill-rule:evenodd;stroke:#000000;stroke-width:7;stroke-linecap:round;stroke-linejoin:miter;stroke-miterlimit:4;stroke-dasharray:none;stroke-opacity:1" />
  <path
     d="M 40.631548,25.903987 C 35.857178,24.846569 39.602896,14.9706 48.561967,12.0887 58.406031,8.9221204 69.824926,12.350304 70.251663,23.3499 70.73116,35.709429 51.102153,41.72735 53.756391,49.626032 l -2.735993,1.199647 C 45.69233,39.080961 59.432311,34.556133 59.268033,25.207417 59.145524,18.235721 49.240092,14.405833 45.707017,20.679719 c -1.769511,3.142223 -1.937239,5.919317 -5.075469,5.224268 z m 11.73702,28.714124 c 3.609169,0.120682 6.47559,2.876235 6.344336,6.191724 -0.142843,3.608208 -3.065626,6.310066 -6.344336,6.191725 -3.571706,-0.128916 -6.474845,-2.890576 -6.344334,-6.191725 0.142652,-3.608236 3.065334,-6.301365 6.344334,-6.191724 z"
     id="text3980"
     style="font-style:normal;font-variant:normal;font-weight:bold;font-stretch:normal;font-size:80.22483826px;line-height:125%;font-family:'Book Antiqua';-inkscape-font-specification:'Book Antiqua Bold';text-align:start;writing-mode:lr-tb;text-anchor:start;fill:#afafaf;fill-opacity:1;stroke:#8f8f8f;stroke-width:1;stroke-linecap:butt;stroke-linejoin:miter;stroke-miterlimit:4;stroke-dasharray:none;stroke-opacity:1" />
</svg>
