<svg height="128" width="200" xmlns="http://www.w3.org/2000/svg">
  <g fill="none" stroke="#000">
    <path d="m71.947967 48.980894-49.024209-9.507241" stroke-dasharray="12 6" stroke-width="1.5"/>
    <path d="m169.94796 64.980898-49.02419-9.507238" stroke-dasharray="12.000001 6.000001" stroke-width="1.5"/>
    <path d="m180.22873 12.372315-57.00087 40.59047h-51.902754l-52.409798 33.322718" stroke-linecap="round" stroke-width="7"/>
    <path d="m166.74006 10.254167 18.37734-2.4739482-6.18576 18.4027392" stroke-linecap="round" stroke-width="7"/>
    <path d="m160.07579 32.583977c3.91007 9.153729 5.80152 19.042583 5.54557 28.99317"/>
    <path d="m168.11905 56.517833-2.48367 5.441721-2.47702-5.569609"/>
    <path d="m159.03133 38.581971.7585-5.964966 5.18014 3.346278"/>
    <path d="m30.391397 73.247324c-1.998941-9.751081-1.872973-19.818427.369331-29.516438"/>
    <path d="m27.300961 48.187944 3.522538-4.834556 1.312212 5.952674"/>
    <path d="m32.615151 67.579716-1.936985 5.692485-4.405602-4.315316"/>
    <path d="m129.46822 98.593924-28.54545-22.909091" stroke-width="1.5"/>
    <path d="m102.37731 81.684833-1.81818-6.36364 7.45454 1.27273"/>
  </g>
  <text font-family="Times New Roman" font-size="10" font-style="italic" x="131.46585" y="107.21783"><tspan font-size="36" x="131.46585" y="107.21783">n</tspan></text>
  <path d="m86.976452 26.71195 12.7246-12.89862m-13.59092 9.59091 6.5909-6.63636m1.4091 6.63636 6.590898-6.63636" fill="none" stroke="#000"/>
  <path d="m110.97645 28.71195 12.7246-12.89862m-13.59092 9.59091 6.5909-6.63636m1.4091 6.63636 6.5909-6.63636" fill="none" stroke="#000"/>
  <path d="m88.976452 44.71195 12.724598-12.89862m-13.590918 9.59091 6.5909-6.63636m1.4091 6.63636 6.590898-6.63636" fill="none" stroke="#000"/>
  <path d="m102.97645 72.71195 12.7246-12.89862m-13.59092 9.59091 6.5909-6.63636m1.4091 6.63636 6.5909-6.63636" fill="none" stroke="#000"/>
  <path d="m74.976452 72.71195 12.7246-12.89862m-13.59092 9.59091 6.5909-6.63636m1.4091 6.63636 6.5909-6.63636" fill="none" stroke="#000"/>
  <path d="m76.976452 88.71195 12.7246-12.89862m-13.59092 9.59091 6.5909-6.63636m1.4091 6.63636 6.5909-6.63636" fill="none" stroke="#000"/>
  <text font-family="Times New Roman" font-size="10" font-style="italic" x="70.048836" y="125.77584"><tspan font-size="36" x="70.048836" y="125.77584">L</tspan></text>
  <path d="m101.40809 125.61229 5.76331-3.1503-3.96749-4.64552m-41.82218-1.63834-3.845073-5.17717 5.640908-2.61874" fill="none" stroke="#000"/>
  <path d="m73.550526 114.63595-15.871367-3.65614" fill="none" stroke="#000"/>
  <path d="m106.94176 122.41824-15.871314-3.65612" fill="none" stroke="#000"/>
  <text font-family="Times New Roman" font-size="28" font-style="italic" x="169.81013" y="52.129803"><tspan x="169.81013" y="52.129803">α</tspan></text>
  <text font-family="Times New Roman" font-size="28" font-style="italic" x="10.562285" y="64.67054"><tspan x="10.562285" y="64.67054">α</tspan></text>
  <path d="m81.044502-15.858404h51.210438v89.448326h-51.210438z" fill="none" stroke="#000" stroke-dashoffset="21.443998" stroke-linecap="round" stroke-width="3" transform="matrix(.97378752 .2274596 -.2274596 .97378752 0 0)"/>
  <path d="m55.30815 114.87284 7.54371-32.295712m51.91743 12.0209-7.49747 32.097752" fill="none" stroke="#000" stroke-dashoffset="21.443998" stroke-linecap="round"/>
</svg>
