<svg height="350" viewBox="0 0 52.92 92.6" width="200" xmlns="http://www.w3.org/2000/svg" xmlns:xlink="http://www.w3.org/1999/xlink">
<linearGradient id="a" gradientTransform="matrix(.22 0 0 .26 7.49 195.13)" gradientUnits="userSpaceOnUse" spreadMethod="pad" x1="75.63" x2="75.63" y1="49.2" y2="206.53">
<stop offset="0" stop-color="#7e7e7e"/>
<stop offset=".5" stop-color="#f0f0f0"/>
<stop offset="1" stop-color="#7e7e7e"/>
</linearGradient>
<linearGradient id="b" gradientTransform="matrix(.22 0 0 .26 7.5 240.58)" gradientUnits="userSpaceOnUse" spreadMethod="pad" x1="75.63" x2="75.63" y1="49.2" y2="206.53">
<stop offset="0" stop-color="#f0f0f0"/>
<stop offset=".5" stop-color="#7e7e7e"/>
<stop offset="1" stop-color="#f0f0f0"/>
</linearGradient>
<g transform="translate(0 -204.4)">
<path d="m48.35 276.15 1.85-1.59-1.85-1.59" fill="none" stroke="#000" stroke-linecap="round" stroke-width=".79"/>
<path d="m5.07 257.38s10.58 5.72 10.58 17.21-10.58 16.94-10.58 16.94" fill="none" stroke="#000" stroke-width=".32"/>
<path d="m20.28 255.5 1.3 1.15-1.3.96m-15.14-.96h16.26" fill="none" stroke="#6a6a6a" stroke-width=".26"/>
<path d="m4.01 254.58 1.15-1.3.96 1.3m-.97 37.9v-39.02" fill="none" stroke="#6a6a6a" stroke-width=".26"/>
<path d="m32.94 208.23h2.38s5.29 9.33 5.29 20.84-5.29 20.7-5.29 20.7h-2.38z" fill="url(#a)" stroke="#000" stroke-width=".79"/>
<path d="m1.65 229.01h47.74" fill="none" stroke="#000" stroke-width="1.06"/>
<path d="m48.35 230.6 1.85-1.59-1.85-1.59" fill="none" stroke="#000" stroke-linecap="round" stroke-width=".79"/>
<path d="m15.74 211.87s-10.58 5.72-10.58 17.21 10.58 16.94 10.58 16.94" fill="none" stroke="#000" stroke-width=".32"/>
<path d="m20.28 210 1.3 1.15-1.3.96m-15.14-.97h16.26" fill="none" stroke="#6a6a6a" stroke-width=".26"/>
<path d="m4.01 209.07 1.15-1.3.96 1.3m-.97 37.37v-38.49" fill="none" stroke="#6a6a6a" stroke-width=".26"/>
<path id="c" d="m27.72 285.84q.46 0 .78.39.32.39.32 1.22 0 .72-.24 1.46-.24.75-.66 1.29-.34.43-.71.62-.22.11-.5.11-.47 0-.79-.39-.31-.39-.31-1.23 0-.83.32-1.66.37-.98.95-1.48.38-.33.85-.33zm0 .19q-.21 0-.43.17-.21.16-.44.68-.23.52-.44 1.34-.27 1.07-.27 1.83 0 .38.16.56.16.18.39.18.22 0 .38-.14.42-.39.71-1.33.48-1.54.48-2.51 0-.4-.16-.59-.16-.19-.38-.19zm-7.03 2.26 3.89-1.69v.31l-3.35 1.45 3.35 1.47v.33l-3.89-1.7z" stroke-width=".26"/>
<g id="d" stroke-width=".3">
<path d="m16.44 234.96h.6l-.87 1.99q.06 1.12.39 1.12.11 0 .22-.12.1-.12.12-.3h.17q-.12.99-.57.99-.15 0-.29-.16-.13-.16-.23-1.14-.75 1.3-1.69 1.3-.53 0-.85-.36-.32-.36-.32-.97 0-.59.3-1.15.3-.56.74-.93.44-.38.98-.38.38 0 .6.24.22.24.3.73zm-.55 1.18q-.02-.3-.19-.67-.17-.37-.49-.37-.48 0-.97.92-.49.91-.49 1.61 0 .38.16.61.16.22.44.22.29 0 .53-.3.24-.31.66-1.25zm2.93 4.39h-1.82v-.1q1.39-1.24 1.84-1.95.21-.33.21-.69 0-.29-.17-.46-.17-.18-.45-.18-.38 0-.62.37l-.09-.04q.14-.35.4-.55.26-.2.57-.2.35 0 .58.24.24.24.24.59 0 .24-.08.45-.13.32-.48.72-.53.61-1.41 1.4h.92q.22 0 .36-.09.14-.09.2-.25h.11z" stroke-width=".3"/>
</g>
<g id="e" stroke-width=".26">
<path d="m27.72 233.98q.46 0 .78.39.32.39.32 1.22 0 .72-.24 1.46-.24.75-.66 1.29-.34.43-.71.62-.22.11-.5.11-.47 0-.79-.39-.31-.39-.31-1.23 0-.83.32-1.66.37-.98.95-1.48.38-.33.85-.33zm0 .19q-.21 0-.43.17-.21.16-.44.68-.23.52-.44 1.34-.27 1.07-.27 1.83 0 .38.16.56.16.18.39.18.22 0 .38-.14.42-.39.71-1.33.48-1.54.48-2.51 0-.4-.16-.59-.16-.19-.38-.19zm-3.14 2.46-3.89 1.69v-.31l3.35-1.45-3.35-1.47v-.33l3.89 1.7z" stroke-width=".26"/>
</g>
<path d="m32.95 253.68h5.9l.96 1.4c-1.49 2.78-4.47 9.62-4.47 19.51 0 9.91 3 16.59 4.48 19.29l-1.03 1.34h-5.84z" fill="url(#b)" stroke="#000" stroke-width=".79"/>
<path d="m1.65 274.56h47.74" fill="none" stroke="#000" stroke-width="1.06"/>
<g id="f" stroke-width=".26">
<path d="m11.29 206.35-.94 3.28q-.07.25-.07.3 0 .04.02.07.03.03.07.03.05 0 .11-.05.14-.11.3-.35l.08.09q-.26.37-.48.52-.16.1-.31.1-.1 0-.18-.07-.07-.07-.07-.17 0-.1.09-.41l.75-2.59q.09-.32.09-.36 0-.07-.05-.11-.05-.04-.16-.04-.06 0-.19.02v-.1z" stroke-width=".26"/>
<path d="m13.79 208.64q0 .41-.22.82-.22.41-.61.64-.39.24-.76.24-.38 0-.62-.24-.24-.24-.24-.63 0-.41.23-.81.23-.41.62-.64.39-.24.76-.24.36 0 .6.24.24.24.24.62zm-.46-.19q0-.26-.13-.39-.12-.14-.32-.14-.41 0-.75.58-.34.58-.34 1.15 0 .26.13.41.13.14.33.14.39 0 .73-.58.34-.58.34-1.17z" stroke-width=".26"/>
<path d="m16.05 207.78-.17.85h-.1q-.01-.37-.16-.54-.14-.17-.36-.17-.17 0-.27.09-.1.09-.1.23 0 .09.04.17.04.08.18.23.36.39.46.59.1.2.1.37 0 .29-.24.51-.24.22-.6.22-.2 0-.46-.09-.09-.03-.14-.03-.12 0-.19.13h-.1l.17-.89h.1q.02.42.17.59.16.17.43.17.21 0 .33-.12.12-.12.12-.29 0-.11-.04-.2-.08-.17-.33-.46-.25-.29-.32-.44-.07-.15-.07-.29 0-.27.19-.45.2-.18.5-.18.09 0 .16.01.04.01.18.06.14.05.19.05.12 0 .2-.13z" stroke-width=".26"/>
<path d="m18.24 207.78-.17.85h-.1q-.01-.37-.16-.54-.14-.17-.36-.17-.17 0-.27.09-.1.09-.1.23 0 .09.04.17.04.08.18.23.36.39.46.59.1.2.1.37 0 .29-.24.51-.24.22-.6.22-.2 0-.46-.09-.09-.03-.14-.03-.12 0-.19.13h-.1l.17-.89h.1q.02.42.17.59.16.17.43.17.21 0 .33-.12.12-.12.12-.29 0-.11-.04-.2-.08-.17-.33-.46-.25-.29-.32-.44-.07-.15-.07-.29 0-.27.19-.45.2-.18.5-.18.09 0 .16.01.04.01.18.06.14.05.19.05.12 0 .2-.13z" stroke-width=".26"/>
</g>
<use height="100%" transform="translate(0 45.6)" width="100%" xlink:href="#f"/>
<use height="100%" transform="translate(0 51.86)" width="100%" xlink:href="#d"/>
<g id="g" stroke-width="1.04" transform="matrix(.99 0 0 1.01 0 -.96)">
<path d="m40.5 264.05-.6 2.01h.66q.45 0 .67-.14.22-.14.46-.59h.14l-.53 1.85h-.14q.06-.22.06-.37 0-.23-.15-.35-.15-.13-.56-.13h-.67l-.44 1.53q-.12.41-.12.54 0 .14.1.21.1.07.5.1l-.04.14h-2l.05-.14q.29-.01.39-.05.15-.06.22-.17.1-.15.24-.63l.89-3.05q.11-.37.11-.58 0-.1-.05-.16-.05-.07-.15-.1-.09-.03-.38-.03l.04-.14h3.93l-.37 1.28h-.14q.04-.23.04-.38 0-.25-.14-.39-.13-.15-.35-.21-.15-.04-.67-.04z" stroke-width="1.04"/>
</g>
<use height="100%" transform="translate(21.82 -20.73)" width="100%" xlink:href="#c"/>
<use height="100%" transform="translate(.27 -59.34)" width="100%" xlink:href="#g"/>
<use height="100%" transform="translate(22.63 -28.22)" width="100%" xlink:href="#e"/>
</g>
</svg>
