<svg height="250" width="200" xmlns="http://www.w3.org/2000/svg">
  <g fill="none">
    <path d="m69 64.7292v128.46885m52-128.46885v128.46885" stroke="#8c8c8c"/>
    <path d="m61.875 135.46875-3.125 5.0625c14.381318 28.67063 14.482302 68.53969.5625 100.03125l2.75 3.9375h67.03125l2.71875-3.9375c-14.80369-31.49156-14.52593-71.36062.5625-100.03125l-3.09375-5.0625z" stroke="#000" stroke-width="3"/>
    <path d="m78.46875 5.46875c-13.258253 24.92551-13.258252 84.45929 0 109.03125h24.625c26.44642-25.579433 21.05966-85.098244 0-109.03125z" stroke="#000" stroke-width="3"/>
    <path d="m75.136885 154.23001 12.724605-12.89862m-13.590925 9.59091 6.590915-6.63636m1.40909 6.63636 6.5909-6.63636" stroke="#000"/>
    <path d="m71.136885 237.23001 12.724605-12.89862m-13.590925 9.59091 6.590915-6.63636m1.40909 6.63636 6.5909-6.63636" stroke="#000"/>
    <path d="m74.343992 55.497777 12.724605-12.89862m-13.590925 9.59091 6.590915-6.63636m1.40909 6.63636 6.5909-6.63636" stroke="#000"/>
    <path d="m76.343992 86.90158 12.724605-12.898617m-13.590925 9.59091 6.590915-6.63636m1.40909 6.63636 6.5909-6.63636" stroke="#000"/>
    <path d="m80.233081 24.891175 12.724605-12.89862m-13.590925 9.59091 6.590915-6.63636m1.40909 6.63636 6.5909-6.63636" stroke="#000"/>
    <g stroke="#000" stroke-width="7" transform="translate(-19.176853 1.226518)">
      <path d="m20.5 63.35666h186.42273"/>
      <path d="m190.81818 46.77712 18.18182 16.72727-17.81818 16.36364" stroke-linecap="round"/>
    </g>
    <g stroke="#000" stroke-width="7" transform="translate(-19.176853 128.87446)">
      <path d="m20.5 63.35666h186.42273"/>
      <path d="m190.81818 46.77712 18.18182 16.72727-17.81818 16.36364" stroke-linecap="round"/>
    </g>
    <path d="m78.825935 176.50127 12.724605-12.89862m-13.590925 9.59091 6.590915-6.63636m1.40909 6.63636 6.5909-6.63636" stroke="#000"/>
    <path d="m101.89858 155.54645 12.7246-12.89862m-13.59092 9.59091 6.59091-6.63636m1.40909 6.63636 6.5909-6.63636" stroke="#000"/>
    <path d="m97.13281 183.76703 12.72461-12.89862m-13.59093 9.59091 6.59092-6.63636m1.40909 6.63636 6.5909-6.63636" stroke="#000"/>
    <path d="m96.857473 222.12724 12.724607-12.89862m-13.590927 9.59091 6.590917-6.63636m1.40909 6.63636 6.5909-6.63636" stroke="#000"/>
    <path d="m106.71502 239.37796 12.7246-12.89862m-13.59092 9.59091 6.59092-6.63636m1.40908 6.63636 6.5909-6.63636" stroke="#000"/>
    <path d="m78.550598 212.97381 12.7246-12.89862m-13.59092 9.59091 6.590915-6.63636m1.409085 6.63636 6.5909-6.63636" stroke="#000"/>
    <path d="m94.496535 37.820108 12.724605-12.89862m-13.590925 9.59091 6.590915-6.63636m1.40909 6.63636 6.5909-6.63636" stroke="#000"/>
    <path d="m86.59704 107.76123 12.72461-12.89862m-13.59093 9.59091 6.590915-6.63636m1.40909 6.63636 6.590905-6.63636" stroke="#000"/>
    <path d="m101.44628 86.90158 12.72461-12.898617m-13.59093 9.590907 6.59092-6.636357m1.40909 6.636357 6.5909-6.636357" stroke="#000"/>
    <path d="m102.27471 58.679758 12.7246-12.89862m-13.59092 9.59091 6.59091-6.63636m1.4091 6.63636 6.5909-6.63636" stroke="#000"/>
  </g>
  <g font-family="Times New Roman" font-style="italic" transform="translate(-2 -2)">
    <text font-size="10" x="5.733398" y="181.17383"><tspan font-size="28" x="5.733398" y="181.17383">R &gt;0</tspan></text>
    <text font-size="5.18307" x="22.017052" y="186.16566"><tspan font-size="18.65905" x="22.017052" y="186.16566">1</tspan></text>
  </g>
  <text font-family="Times New Roman" font-size="10" font-style="italic" x="135.7334" y="164.17383"><tspan font-size="28" x="135.7334" y="164.17383">R &lt;0</tspan></text>
  <text font-family="Times New Roman" font-size="5.18307" font-style="italic" x="152.51706" y="169.66566"><tspan font-size="18.65905" x="152.51706" y="169.66566">2</tspan></text>
  <g font-family="Times New Roman" font-style="italic" transform="translate(0 -130)">
    <text font-size="10" x="5.733398" y="181.17383"><tspan font-size="28" x="5.733398" y="181.17383">R &lt;0</tspan></text>
    <text font-size="5.18307" x="22.017052" y="186.16566"><tspan font-size="18.65905" x="22.017052" y="186.16566">1</tspan></text>
  </g>
  <g font-family="Times New Roman" font-style="italic" transform="translate(-6 -134)">
    <text font-size="10" x="135.7334" y="164.17383"><tspan font-size="28" x="135.7334" y="164.17383">R &gt;0</tspan></text>
    <text font-size="5.18307" x="152.51706" y="169.66566"><tspan font-size="18.65905" x="152.51706" y="169.66566">2</tspan></text>
  </g>
  <path d="m123.10195 121.66102h17.81089" fill="none" stroke="#000" stroke-width="1.021851"/>
  <path d="m127.14283 117.34284-4.9091 4.18181 4.9091 3.81819" fill="none" stroke="#000"/>
  <text font-family="Times New Roman" font-size="10" font-style="italic" x="28.004837" y="119.37422"><tspan font-size="36" x="28.004837" y="119.37422">L</tspan></text>
  <path d="m21.101945 121.66102h45.810895" fill="none" stroke="#000" stroke-width="1.021851"/>
  <path d="m62.89483 117.34284 4.90909 4.36363-4.90909 3.63637" fill="none" stroke="#000"/>
  <path d="m61.101945 121.66102h65.810895" fill="none" stroke="#000" stroke-width="1.021851"/>
  <g fill="none" stroke="#000" transform="matrix(.96592583 -.25881905 .25881905 .96592583 -5.879767 157.5954)">
    <path d="m129.85963 98.593924-28.54546-22.909091" stroke-width="1.5"/>
    <path d="m102.76872 81.684833-1.81819-6.36364 7.45455 1.27273"/>
  </g>
  <text font-family="Times New Roman" font-size="10" font-style="italic" x="146.79996" y="234.2616"><tspan font-size="36" x="146.79996" y="234.2616">n</tspan></text>
</svg>
