<svg height="272" width="205" xmlns="http://www.w3.org/2000/svg" xmlns:xlink="http://www.w3.org/1999/xlink">
<g stroke="#000">
<path d="m20 191h96.79" fill="none" stroke-width="7"/>
<path d="m20 79h96.79" fill="none" stroke-width="7"/>
<path d="m132.98 11.86v61.42c1.48 30.39-25.4 57.28-67.85 67.85l-6.12-2.8v-61.42l67.85-67.85zm-.12 0c1.48 30.39-25.41 57.28-67.85 67.85l-6.12-2.8m6.62 1.96v61.42" fill="#7f7f7f" fill-opacity=".74" stroke-width="3"/>
</g>
<path d="m116 75.5c-.72 2.21-5.38 5.13-9.85 7h71.29v-7z" fill-rule="evenodd"/>
<g stroke="#000">
<path d="m32 35 160 90" fill="none" stroke-dasharray="8 8"/>
<path d="m28.38 80.66a66.21 62.5 0 0 1 9.23-35.13" fill="none" transform="translate(0 -6)"/>
<path d="m142.88 130.11v61.42c-30.7 11.77-52.81 27.51-62.65 68.3l-21.34-8.74.12-60.17 67.85-67.85zm-.12-.35c-28.2 15.98-51.62 34.65-62.77 70.32l-21.09-9.16m21.12 8.96v60.17" fill="#7f7f7f" fill-opacity=".74" stroke-width="3"/>
<path d="m32 147 160 90" fill="none" stroke-dasharray="8 8"/>
</g>
<path d="m116 187.5c-2.97.96-7 2.88-9.85 7h71.29v-7z" fill-rule="evenodd"/>
<g fill="none" stroke="#000">
<path d="m32.17 42.19 5.66-2.83-.18 6.72"/>
<path d="m31.29 70.12-2.83 4.95-2.65-4.95"/>
<path d="m28.38 80.66a66.21 62.5 0 0 1 9.23-35.13" transform="translate(0 106)"/>
<path d="m32.17 154.19 5.66-2.83-.18 6.72"/>
<path d="m31.29 182.12-2.83 4.95-2.65-4.95"/>
</g>
<path id="a" d="m153.87 28.28-2.19 7.34h2.43c1.09 0 1.91-.17 2.45-.51.55-.34 1.11-1.06 1.68-2.16h.52l-1.93 6.75h-.55c.14-.55.21-1 .21-1.35 0-.56-.19-.98-.56-1.29-.36-.31-1.05-.46-2.06-.46h-2.46l-1.61 5.59c-.29.99-.44 1.65-.44 1.98 0 .34.12.6.37.78.26.18.87.31 1.85.37l-.16.51h-7.33l.18-.51c.71-.02 1.18-.08 1.42-.19.36-.15.63-.36.81-.63.25-.37.54-1.14.88-2.31l3.27-11.17c.26-.9.4-1.61.4-2.12 0-.24-.06-.44-.18-.6-.12-.17-.3-.3-.53-.38s-.69-.12-1.38-.12l.16-.51h14.38l-1.37 4.69h-.52c.1-.57.15-1.03.15-1.39 0-.6-.17-1.08-.51-1.42-.33-.36-.75-.61-1.27-.75-.36-.09-1.18-.14-2.45-.14zm36.57-1.37c1.17 0 2.15.49 2.94 1.46.8.98 1.2 2.52 1.2 4.62 0 1.8-.3 3.65-.89 5.52-.59 1.88-1.43 3.5-2.5 4.88-.86 1.08-1.75 1.87-2.69 2.35-.55.27-1.18.41-1.9.41-1.18 0-2.18-.49-2.98-1.46-.79-.98-1.19-2.52-1.19-4.63 0-2.09.4-4.18 1.2-6.29.94-2.46 2.14-4.33 3.6-5.61.96-.84 2.03-1.26 3.21-1.26zm.01.71c-.53 0-1.07.21-1.61.63-.54.41-1.1 1.27-1.68 2.58-.57 1.31-1.13 3-1.65 5.07-.68 2.71-1.03 5.01-1.03 6.92 0 .95.21 1.66.62 2.13.41.46.91.7 1.49.7.56 0 1.03-.18 1.42-.55 1.05-.98 1.95-2.67 2.69-5.04 1.21-3.89 1.82-7.05 1.82-9.49 0-1.01-.21-1.75-.62-2.23s-.89-.72-1.45-.72z"/>
<path d="m163.04 66.64 19.5 13-19.75 11.25" fill="none" stroke="#000" stroke-linecap="round" stroke-width="7"/>
<path d="m163.04 178.64 19.5 13-19.75 11.25" fill="none" stroke="#000" stroke-linecap="round" stroke-width="7"/>
<path id="b" d="m23.25 48.19h2.02l-2.93 6.69q.21 3.76 1.3 3.76.38 0 .72-.4.34-.41.41-1.01h.56q-.41 3.34-1.9 3.34-.52 0-.96-.55-.44-.55-.77-3.83-2.52 4.38-5.66 4.38-1.76 0-2.84-1.22-1.08-1.22-1.08-3.25 0-1.98 1-3.84 1-1.87 2.49-3.13 1.49-1.26 3.29-1.26 1.29 0 2.01.79.74.79 1.01 2.46zm-1.83 3.96q-.07-1-.63-2.24-.56-1.24-1.65-1.24-1.6 0-3.24 3.08-1.63 3.06-1.63 5.4 0 1.29.53 2.04.55.75 1.49.75.98 0 1.78-1.01.79-1.03 2.2-4.2z"/>
<path id="c" d="m178.63 36.9-14.71 6.37v-1.17l12.67-5.5-12.67-5.55v-1.24l14.71 6.43z"/>
<use transform="translate(5.63 123.39)" xlink:href="#a"/>
<use transform="matrix(-1 0 0 1 348.17 123.39)" xlink:href="#c"/>
<use transform="translate(0 116)" xlink:href="#b"/>
</svg>
