<svg height="150" width="200" xmlns="http://www.w3.org/2000/svg">
<g fill="none" stroke="#000" transform="translate(39.25 3.12)">
<path d="m3.5 79.49h114.42" stroke-width="7"/>
<path d="m18.5 29v34.29"/>
<path d="m88.5 28.82v34.47"/>
<path d="m20.6 32.5h65.81" stroke-width="1.02"/>
<path d="m19.5 49.5h68v67h-68z" stroke-width="3"/>
<path d="m27.14 101.42 12.72-12.9m-13.59 9.59 6.59-6.64m1.41 6.64 6.59-6.64"/>
<path d="m43.14 113.42 12.72-12.9m-13.59 9.59 6.59-6.64m1.41 6.64 6.59-6.64"/>
<path d="m67.14 99.42 12.72-12.9m-13.59 9.59 6.59-6.64m1.41 6.64 6.59-6.64"/>
<path d="m27.14 67.42 12.72-12.9m-13.59 9.59 6.59-6.64m1.41 6.64 6.59-6.64"/>
<path d="m47.14 67.42 12.72-12.9m-13.59 9.59 6.59-6.64m1.41 6.64 6.59-6.64"/>
<path d="m69.14 67.42 12.72-12.9m-13.59 9.59 6.59-6.64m1.41 6.64 6.59-6.64"/>
<path d="m95.45 129.09-28.55-22.91" stroke-width="1.5"/>
<path d="m68.36 112.18-1.82-6.36 7.45 1.27"/>
<path d="m99.82 62.91 18.18 16.73-17.82 16.36" stroke-linecap="round" stroke-width="7"/>
<path d="m82.39 28.18 4.91 4.36-4.91 3.64m-57.75-8-4.91 4.18 4.91 3.82"/>
</g>
<path d="m144.65 124.92-2.34 8q3.29-4.9 5.03-6.45 1.76-1.55 3.38-1.55.88 0 1.44.58.58.58.58 1.51 0 1.05-.51 2.81l-2.14 7.4q-.37 1.28-.37 1.56 0 .25.14.42.14.16.3.16.21 0 .51-.23.93-.74 2.04-2.25l.54.33q-1.63 2.34-3.09 3.34-1.02.69-1.83.69-.65 0-1.04-.4-.39-.39-.39-1.05 0-.84.6-2.9l2.04-7.07q.39-1.32.39-2.06 0-.35-.23-.56-.23-.23-.56-.23-.49 0-1.18.42-1.3.79-2.71 2.62-1.41 1.81-2.97 4.64-.83 1.49-1.37 3.27l-.88 2.9h-2.64l3.2-11q.56-1.99.56-2.39 0-.39-.32-.67-.3-.3-.76-.3-.21 0-.74.07l-.67.11-.11-.63z"/>
<path d="m101.01 32.58h-17.67l.25-.65q1.41-.04 1.88-.23.74-.32 1.09-.83.54-.81 1.16-2.92l4.2-14.5q.53-1.79.53-2.64 0-.67-.49-1.04-.47-.37-1.81-.37-.3 0-.47-.02l.21-.65h9.72l-.14.65q-1.63 0-2.32.32-.69.32-1.14 1.04-.32.47-1.04 2.95l-4.13 14.26q-.47 1.62-.47 2.25 0 .42.47.81.3.26 1.35.26h2.3q2.51 0 3.99-.63 1.09-.47 2-1.42.49-.53 1.74-2.62l.46-.79h.65z"/>
</svg>
