<svg height="235" width="128" xmlns="http://www.w3.org/2000/svg" xmlns:xlink="http://www.w3.org/1999/xlink">
<g fill="none" stroke="#000">
<path d="m1 175.5h123" stroke-dasharray="8 2 1 2"/>
<path d="m48.5 120.47v109.03h28.59l2.72-3.94-22.91-50.06 23.47-49.97-3.09-5.06z" stroke-width="3"/>
<path d="m48.5 4.47v109.03h12.6l25.9-54.16-25.9-54.87z" stroke-width="3"/>
<path d="m1 59.5h123" stroke-dasharray="8 2 1 2"/>
<path d="m55.16 138.97 12.72-12.9m-13.59 9.59 6.59-6.64m1.41 6.64 6.59-6.64"/>
<path d="m57.38 226.47 12.72-12.9m-13.59 9.59 6.59-6.64m1.41 6.64 6.59-6.64"/>
<path d="m55.64 53.23 12.72-12.9m-13.59 9.59 6.59-6.64m1.41 6.64 6.59-6.64"/>
<path d="m60.38 82.51 12.72-12.9m-13.59 9.59 6.59-6.64m1.41 6.64 6.59-6.64"/>
<path d="m51.99 34.47 12.72-12.9m-13.59 9.59 6.59-6.64m1.41 6.64 6.59-6.64"/>
</g>
<path id="a" d="m23.34 39.83h2.02l-2.93 6.69q.21 3.76 1.3 3.76.38 0 .72-.4.34-.41.41-1.01h.56q-.41 3.34-1.9 3.34-.52 0-.96-.55-.44-.55-.77-3.83-2.52 4.38-5.66 4.38-1.76 0-2.84-1.22-1.08-1.22-1.08-3.25 0-1.98 1-3.84 1-1.87 2.49-3.13 1.49-1.26 3.29-1.26 1.29 0 2.01.79.74.79 1.01 2.46zm-1.83 3.96q-.07-1-.63-2.24-.56-1.24-1.65-1.24-1.6 0-3.24 3.08-1.63 3.06-1.63 5.4 0 1.29.53 2.04.55.75 1.49.75.98 0 1.78-1.01.79-1.03 2.2-4.2z"/>
<path id="b" d="m89.84 73.72c2.53 0 3.8 1.74 3.8 5.21 0 2.1-.51 4.42-1.54 6.97-1.02 2.54-2.19 4.44-3.51 5.7-1.31 1.26-2.67 1.89-4.06 1.89-1.14 0-2.07-.48-2.79-1.45-.71-.98-1.07-2.19-1.07-3.64 0-.93.21-2.21.62-3.86.41-1.64 1.03-3.29 1.85-4.96.82-1.68 1.85-3.07 3.08-4.18 1.24-1.12 2.45-1.68 3.64-1.68zm.85 9.3c.61-1.92.92-3.79.92-5.61 0-2.08-.59-3.12-1.76-3.12-1.03 0-2.04.78-3.04 2.34-.99 1.55-1.9 3.68-2.73 6.38zm-6.88.78c-.84 2.62-1.26 4.62-1.26 6.02 0 .91.19 1.66.56 2.24.37.57.93.86 1.67.86.61 0 1.18-.24 1.72-.72.54-.49 1.17-1.49 1.89-2.98s1.4-3.3 2.04-5.41zm37.95-9.56c1.17 0 2.15.49 2.94 1.46.8.98 1.2 2.52 1.2 4.62 0 1.8-.3 3.65-.89 5.52-.59 1.88-1.43 3.5-2.5 4.88-.86 1.08-1.75 1.87-2.69 2.35-.55.27-1.18.41-1.9.41-1.18 0-2.18-.49-2.98-1.46-.79-.98-1.19-2.52-1.19-4.63 0-2.09.4-4.18 1.2-6.29.94-2.46 2.14-4.33 3.6-5.61.96-.84 2.03-1.26 3.21-1.26zm.01.71c-.53 0-1.07.21-1.61.63-.54.41-1.1 1.27-1.68 2.58-.57 1.31-1.13 3-1.65 5.07-.68 2.71-1.03 5.01-1.03 6.92 0 .95.21 1.66.62 2.13.41.46.91.7 1.49.7.56 0 1.03-.18 1.42-.55 1.05-.98 1.95-2.67 2.69-5.04 1.21-3.89 1.82-7.05 1.82-9.49 0-1.01-.21-1.75-.62-2.23s-.89-.72-1.45-.72z"/>
<path d="m118.02 138.57-110.93 62.65" fill="none" stroke="#000" stroke-linecap="round" stroke-width="6.96"/>
<path d="m95.27 136.11 25.61.52-11.14 23.05" fill="none" stroke="#000" stroke-linecap="round" stroke-width="6.96"/>
<path d="m53.4 161.75 9.72-9.9m-10.59 6.59 6.59-6.64" fill="none" stroke="#000"/>
<path d="m51.7 204.12 9.42-9.56m-10.29 6.25 6.59-6.64" fill="none" stroke="#000"/>
<g fill="none" stroke="#000" stroke-linecap="round" stroke-width="7" transform="matrix(.98 .17 -.17 .98 25.28 -119.76)">
<path d="m117.36 131-97.65 79.91"/>
<path d="m94.4 132.47 25.46-3.89-7.07 24.75"/>
</g>
<path d="m30.73 93.51c6.21-1.23 12.64-1.87 19.21-1.87 14.64 0 28.53 3.19 41.03 8.92" fill="none" stroke="#000" stroke-linejoin="round"/>
<path d="m77.09 98.51-4.9-4.32 6.58-1.59" fill="none" stroke="#000"/>
<path d="m41.13 95 5.69-3.34-5.82-2.78" fill="none" stroke="#000"/>
<path d="m52.9 108.25 9.72-9.9m-10.59 6.59 6.59-6.64" fill="none" stroke="#000"/>
<g fill="none" stroke="#000" transform="matrix(1 0 0 -1 0 299.38)">
<path d="m30.73 93.51c6.21-1.23 12.64-1.87 19.21-1.87 14.64 0 28.53 3.19 41.03 8.92" stroke-linejoin="round"/>
<path d="m77.09 98.51-4.9-4.32 6.58-1.59"/>
<path d="m41.13 95 5.69-3.34-5.82-2.78"/>
</g>
<g fill="none" stroke="#000" transform="matrix(-.41 -.91 .91 -.41 -47.26 170.96)">
<path d="m30.73 93.51c6.21-1.23 12.64-1.87 19.21-1.87 10.82 0 21.24 1.74 30.98 4.97 3.44 1.14 11.91 4.66 15.86 6.75" stroke-linejoin="round"/>
<path d="m84.18 101.07-4.42-4.8 6.71-.89"/>
<path d="m41.13 95 5.69-3.34-5.82-2.78"/>
</g>
<g fill="none" stroke="#000" transform="matrix(-.37 -.93 .93 -.37 -51.52 278.12)">
<path d="m30.73 93.51c6.21-1.23 12.64-1.87 19.21-1.87 14.64 0 28.53 3.19 41.03 8.92" stroke-linejoin="round"/>
<path d="m78.52 98.96-4.76-4.46 6.62-1.39"/>
<path d="m41.13 95 5.69-3.34-5.82-2.78"/>
</g>
<path d="m26.96 132.91 30.49 12.9" fill="none" stroke="#000"/>
<path d="m54.14 140.6 3.45 5.3-6.28.75" fill="none" stroke="#000"/>
<path id="c" d="m15.44 11.99-1.82 6.22q2.56-3.81 3.91-5.02 1.37-1.2 2.63-1.2.68 0 1.12.45.45.45.45 1.18 0 .82-.4 2.19l-1.67 5.76q-.29 1-.29 1.22 0 .19.11.33.11.12.23.12.16 0 .4-.18.72-.57 1.59-1.75l.42.26q-1.27 1.82-2.41 2.6-.79.53-1.42.53-.51 0-.81-.31-.3-.3-.3-.82 0-.66.46-2.26l1.59-5.5q.3-1.03.3-1.6 0-.27-.18-.44-.18-.18-.44-.18-.38 0-.92.33-1.01.62-2.11 2.04-1.09 1.41-2.31 3.61-.64 1.16-1.07 2.54l-.68 2.26h-2.03l2.49-8.56q.44-1.54.44-1.86 0-.3-.25-.52-.23-.23-.59-.23-.16 0-.57.05l-.52.08-.08-.49z"/>
<g fill="none" stroke="#000" transform="matrix(.87 -.5 .5 .87 -64.2 -83.98)">
<path d="m26.96 132.91 30.49 12.9"/>
<path d="m54.14 140.6 3.45 5.3-6.28.75"/>
</g>
<use transform="translate(2.73 114.4)" xlink:href="#c"/>
<use transform="translate(1.07 111.87)" xlink:href="#a"/>
<path id="d" d="m109.96 84.23-14.72 6.37v-1.17l12.68-5.5-12.68-5.55v-1.24l14.71 6.43z"/>
<use transform="translate(-2 104)" xlink:href="#b"/>
<use transform="matrix(-1 0 0 1 203.2 104)" xlink:href="#d"/>
</svg>
