<svg height="250" width="200" xmlns="http://www.w3.org/2000/svg">
<g fill="none">
<g stroke="#a3a3a3">
<path d="m87.76 149.21 12.72-12.9m-13.59 9.59 6.59-6.64m1.41 6.64 6.59-6.64"/>
<path d="m28.22 22.25 12.72-12.9m-13.59 9.59 6.59-6.64m1.41 6.64 6.59-6.64"/>
<path d="m56.69 86.58 12.72-12.9m-13.59 9.59 6.59-6.64m1.41 6.64 6.59-6.64"/>
<path d="m70.15 20.79 12.72-12.9m-13.59 9.59 6.59-6.64m1.41 6.64 6.59-6.64"/>
</g>
<path d="m20.5 63.36h150.42" stroke="#000" stroke-width="7"/>
<path d="m156.82 46.78 18.18 16.73-17.82 16.36" stroke="#000" stroke-linecap="round" stroke-width="7"/>
<g stroke="#a3a3a3">
<path d="m133.12 80.67-6.64 6.59m6.99-.23-6.59-6.64"/>
<path d="m21.51 100.21 12.72-12.9m-13.59 9.59 6.59-6.64m1.41 6.64 6.59-6.64"/>
<path d="m106.37 79.68-6.64 6.59m6.99-.23-6.59-6.64"/>
<path d="m175.58 31.97-6.64 6.59m6.99-.23-6.59-6.64"/>
<path d="m99.87 44.72-6.64 6.59m6.99-.23-6.59-6.64"/>
<path d="m168.37 7.42-6.64 6.59m6.99-.23-6.59-6.64"/>
<path d="m110.87 18.42-6.64 6.59m6.99-.23-6.59-6.64"/>
<path d="m121.16 114.51-6.64 6.59m6.99-.23-6.59-6.64"/>
<path d="m132.62 44.42-6.64 6.59m6.99-.23-6.59-6.64"/>
<path d="m174.54 82.73-6.64 6.59m6.99-.23-6.59-6.64"/>
</g>
</g>
<g font-family="Times New Roman" font-style="italic" transform="translate(-1.35 -81.33)">
<text font-size="10" x="45.87" y="214.3"><tspan font-size="36" x="45.87" y="214.3">n</tspan></text>
<text font-size="5.18" x="63.02" y="219.67"><tspan font-size="18.66" x="63.02" y="219.67">1</tspan></text>
</g>
<g font-family="Times New Roman" font-style="italic" transform="translate(22 -80.46)">
<text font-size="10" x="113.14" y="213.42"><tspan font-size="36" x="113.14" y="213.42">n</tspan></text>
<text font-size="6.03" x="128.21" y="220.54"><tspan font-size="21.7" x="128.21" y="220.54">2</tspan></text>
</g>
<g fill="none">
<path d="m71.46 125.03 12.72-12.9m-13.59 9.59 6.59-6.64m1.41 6.64 6.59-6.64" stroke="#a3a3a3"/>
<path d="m21.69 134.81 12.72-12.9m-13.59 9.59 6.59-6.64m1.41 6.64 6.59-6.64" stroke="#a3a3a3"/>
<g stroke="#000">
<path d="m104.77 122.68c-14.43-15.42-23.27-36.14-23.27-58.93 0-23.06 9.05-44 23.79-59.48" stroke-linecap="round" stroke-linejoin="round" stroke-width="3"/>
<path d="m105.03 240.68c14.43-15.42 23.27-36.14 23.27-58.93 0-23.06-9.05-44-23.79-59.48" stroke-linecap="round" stroke-linejoin="round" stroke-width="3"/>
<g stroke-width="7" transform="translate(0 124)">
<path d="m20.5 63.36h150.42"/>
<path d="m156.82 46.78 18.18 16.73-17.82 16.36" stroke-linecap="round"/>
</g>
</g>
</g>
<text font-family="Times New Roman" font-size="10" font-style="italic" x="124.73" y="235.67"><tspan font-size="28" x="124.73" y="235.67">R&gt;0</tspan></text>
<text font-family="Times New Roman" font-size="10" font-style="italic" x="23.73" y="51.67"><tspan font-size="28" x="23.73" y="51.67">R&lt;0</tspan></text>
<g fill="none" stroke="#a3a3a3">
<path d="m101.19 174.31 12.72-12.9m-13.59 9.59 6.59-6.64m1.41 6.64 6.59-6.64"/>
<path d="m99.19 211.81 12.72-12.9m-13.59 9.59 6.59-6.64m1.41 6.64 6.59-6.64"/>
<path d="m70.19 234.81 12.72-12.9m-13.59 9.59 6.59-6.64m1.41 6.64 6.59-6.64"/>
<path d="m57.69 211.31 12.72-12.9m-13.59 9.59 6.59-6.64m1.41 6.64 6.59-6.64"/>
<path d="m27.19 231.31 12.72-12.9m-13.59 9.59 6.59-6.64m1.41 6.64 6.59-6.64"/>
<path d="m63.69 178.31 12.72-12.9m-13.59 9.59 6.59-6.64m1.41 6.64 6.59-6.64"/>
<path d="m24.69 173.81 12.72-12.9m-13.59 9.59 6.59-6.64m1.41 6.64 6.59-6.64"/>
<path d="m150.66 97.01-6.64 6.59m6.99-.23-6.59-6.64"/>
<path d="m140.16 20.51-6.64 6.59m6.99-.23-6.59-6.64"/>
<path d="m176.66 112.51-6.64 6.59m6.99-.23-6.59-6.64"/>
<path d="m178.16 152.51-6.64 6.59m6.99-.23-6.59-6.64"/>
<path d="m143.66 163.51-6.64 6.59m6.99-.23-6.59-6.64"/>
<path d="m142.16 201.51-6.64 6.59m6.99-.23-6.59-6.64"/>
<path d="m179.66 204.51-6.64 6.59m6.99-.23-6.59-6.64"/>
</g>
</svg>
