<?xml version="1.0" encoding="UTF-8" standalone="no"?>
<svg
   xmlns:dc="http://purl.org/dc/elements/1.1/"
   xmlns:cc="http://creativecommons.org/ns#"
   xmlns:rdf="http://www.w3.org/1999/02/22-rdf-syntax-ns#"
   xmlns:svg="http://www.w3.org/2000/svg"
   xmlns="http://www.w3.org/2000/svg"
   version="1.0"
   width="200"
   height="200"
   id="svg5484">
  <metadata
     id="metadata3372">
    <rdf:RDF>
      <cc:Work
         rdf:about="">
        <dc:format>image/svg+xml</dc:format>
        <dc:type
           rdf:resource="http://purl.org/dc/dcmitype/StillImage" />
        <dc:title></dc:title>
      </cc:Work>
    </rdf:RDF>
  </metadata>
  <defs
     id="defs5486">
    <marker
       refX="0"
       refY="0"
       orient="auto"
       id="Arrow1Send"
       style="overflow:visible">
      <path
         d="M 0,0 5,-5 -12.5,0 5,5 0,0 Z"
         transform="matrix(-0.2,0,0,-0.2,-1.2,0)"
         id="path3299"
         style="fill-rule:evenodd;stroke:#000000;stroke-width:1pt;marker-start:none" />
    </marker>
    <marker
       refX="0"
       refY="0"
       orient="auto"
       id="TriangleInM"
       style="overflow:visible">
      <path
         d="m 5.77,0 -8.65,5 0,-10 8.65,5 z"
         transform="scale(-0.4,-0.4)"
         id="path3240"
         style="fill-rule:evenodd;stroke:#000000;stroke-width:1pt;marker-start:none" />
    </marker>
    <marker
       refX="0"
       refY="0"
       orient="auto"
       id="TriangleOutS"
       style="overflow:visible">
      <path
         d="m 5.77,0 -8.65,5 0,-10 8.65,5 z"
         transform="scale(0.2,0.2)"
         id="path3252"
         style="fill-rule:evenodd;stroke:#000000;stroke-width:1pt;marker-start:none" />
    </marker>
    <marker
       refX="0"
       refY="0"
       orient="auto"
       id="TriangleOutM"
       style="overflow:visible">
      <path
         d="m 5.77,0 -8.65,5 0,-10 8.65,5 z"
         transform="scale(0.4,0.4)"
         id="path3249"
         style="fill-rule:evenodd;stroke:#000000;stroke-width:1pt;marker-start:none" />
    </marker>
  </defs>
  <path
     style="fill:none;stroke:#000000;stroke-width:7;stroke-linecap:butt;stroke-linejoin:miter;stroke-miterlimit:4;stroke-dasharray:none;stroke-opacity:1;marker-end:none"
     id="path5494"
     d="m 40.5,99.35666 114.42273,0" />
  <path
     style="fill:none;stroke:#000000;stroke-width:3;stroke-linecap:butt;stroke-linejoin:miter;stroke-miterlimit:4;stroke-dasharray:none;stroke-dashoffset:0;stroke-opacity:1"
     d="m 92.5,166.36803 0,-130.999996"
     id="rect5508" />
  <path
     style="fill:none;stroke:#a3a3a3;stroke-width:1px;stroke-linecap:butt;stroke-linejoin:miter;stroke-opacity:1"
     id="path3371"
     d="m 44.757006,136.7118 12.7246,-12.89862 m -13.59092,9.59091 6.5909,-6.63637 m 1.4091,6.63637 6.5909,-6.63637" />
  <path
     style="fill:none;stroke:#a3a3a3;stroke-width:1px;stroke-linecap:butt;stroke-linejoin:miter;stroke-opacity:1"
     id="path5517"
     d="m 45.723912,50.252764 12.7246,-12.89862 m -13.59092,9.59091 6.5909,-6.63636 m 1.4091,6.63636 6.5909,-6.63636" />
  <path
     style="fill:none;stroke:#a3a3a3;stroke-width:1px;stroke-linecap:butt;stroke-linejoin:miter;stroke-opacity:1"
     id="path5519"
     d="m 67.693482,65.576874 12.7246,-12.89862 m -13.59092,9.59091 6.5909,-6.63636 m 1.4091,6.63636 6.5909,-6.63636" />
  <path
     style="fill:none;stroke:#a3a3a3;stroke-width:1px;stroke-linecap:butt;stroke-linejoin:miter;stroke-opacity:1"
     id="path5523"
     d="m 40.154551,84.79419 12.7246,-12.898616 m -13.59092,9.590906 6.5909,-6.636356 m 1.4091,6.636356 6.5909,-6.636356" />
  <path
     style="fill:none;stroke:#000000;stroke-width:7;stroke-linecap:round;stroke-linejoin:miter;stroke-miterlimit:4;stroke-dasharray:none;stroke-opacity:1"
     id="path5147"
     d="M 136.81818,82.77712 155,99.50439 137.18182,115.86803" />
  <path
     d="m 108.61547,129.16849 -6.63638,6.5909 m 6.98864,-0.2273 -6.5909,-6.63637"
     id="path4233"
     style="fill:none;stroke:#a3a3a3;stroke-width:1px;stroke-linecap:butt;stroke-linejoin:miter;stroke-opacity:1" />
  <path
     d="m 69.507006,121.7118 12.7246,-12.89862 m -13.59092,9.59091 6.5909,-6.63637 m 1.4091,6.63637 6.5909,-6.63637"
     id="path4249"
     style="fill:none;stroke:#a3a3a3;stroke-width:1px;stroke-linecap:butt;stroke-linejoin:miter;stroke-opacity:1" />
  <path
     style="fill:none;stroke:#a3a3a3;stroke-width:1px;stroke-linecap:butt;stroke-linejoin:miter;stroke-opacity:1"
     id="path4251"
     d="m 125.36831,112.67701 -6.63638,6.5909 m 6.98864,-0.2273 -6.5909,-6.63637" />
  <path
     d="m 123.57626,81.46622 -6.63638,6.5909 m 6.98864,-0.2273 -6.5909,-6.63637"
     id="path4255"
     style="fill:none;stroke:#a3a3a3;stroke-width:1px;stroke-linecap:butt;stroke-linejoin:miter;stroke-opacity:1" />
  <path
     style="fill:none;stroke:#a3a3a3;stroke-width:1px;stroke-linecap:butt;stroke-linejoin:miter;stroke-opacity:1"
     id="path4257"
     d="m 106.87398,64.221896 -6.63637,6.5909 m 6.98864,-0.2273 -6.5909,-6.63637" />
  <path
     d="m 151.36547,61.91849 -6.63638,6.5909 m 6.98864,-0.2273 -6.5909,-6.63637"
     id="path4259"
     style="fill:none;stroke:#a3a3a3;stroke-width:1px;stroke-linecap:butt;stroke-linejoin:miter;stroke-opacity:1" />
  <path
     style="fill:none;stroke:#a3a3a3;stroke-width:1px;stroke-linecap:butt;stroke-linejoin:miter;stroke-opacity:1"
     id="path4261"
     d="m 108.36547,40.91849 -6.63638,6.5909 m 6.98864,-0.2273 -6.5909,-6.63637" />
  <path
     d="m 128.1632,53.013948 -6.63638,6.5909 m 6.98864,-0.2273 -6.5909,-6.63637"
     id="path4263"
     style="fill:none;stroke:#a3a3a3;stroke-width:1px;stroke-linecap:butt;stroke-linejoin:miter;stroke-opacity:1" />
  <path
     style="fill:none;stroke:#a3a3a3;stroke-width:1px;stroke-linecap:butt;stroke-linejoin:miter;stroke-opacity:1"
     id="path4265"
     d="m 147.11547,36.41849 -6.63638,6.5909 m 6.98864,-0.2273 -6.5909,-6.63637" />
  <path
     d="m 150.53651,137.228 -6.63637,6.5909 m 6.98863,-0.2273 -6.5909,-6.63637"
     id="path4267"
     style="fill:none;stroke:#a3a3a3;stroke-width:1px;stroke-linecap:butt;stroke-linejoin:miter;stroke-opacity:1" />
  <text
     x="45.874611"
     y="164.29723"
     id="text4239-3"
     xml:space="preserve"
     style="font-style:italic;font-variant:normal;font-weight:normal;font-stretch:normal;font-size:10px;line-height:125%;font-family:'Times New Roman';-inkscape-font-specification:'Times New Roman Italic';text-align:start;writing-mode:lr-tb;text-anchor:start;fill:#000000;fill-opacity:1;stroke:none"><tspan
       x="45.874611"
       y="164.29723"
       id="tspan4241-6"
       style="font-size:36px">n</tspan></text>
  <text
     style="font-style:italic;font-variant:normal;font-weight:normal;font-stretch:normal;font-size:5.18306971px;line-height:125%;font-family:'Times New Roman';-inkscape-font-specification:'Times New Roman Italic';text-align:start;writing-mode:lr-tb;text-anchor:start;fill:#000000;fill-opacity:1;stroke:none"
     xml:space="preserve"
     id="text4243-7"
     y="169.66565"
     x="63.017052"><tspan
       style="font-size:18.65904999px"
       id="tspan4245-5"
       y="169.66565"
       x="63.017052">1</tspan></text>
  <text
     style="font-style:italic;font-variant:normal;font-weight:normal;font-stretch:normal;font-size:10px;line-height:125%;font-family:'Times New Roman';-inkscape-font-specification:'Times New Roman Italic';text-align:start;writing-mode:lr-tb;text-anchor:start;fill:#000000;fill-opacity:1;stroke:none"
     xml:space="preserve"
     id="text6221"
     y="163.42223"
     x="113.13847"><tspan
       style="font-size:36px"
       id="tspan6223"
       y="163.42223"
       x="113.13847">n</tspan></text>
  <text
     x="128.20628"
     y="170.54065"
     id="text4235"
     xml:space="preserve"
     style="font-style:italic;font-variant:normal;font-weight:normal;font-stretch:normal;font-size:6.02710342px;line-height:125%;font-family:'Times New Roman';-inkscape-font-specification:'Times New Roman Italic';text-align:start;writing-mode:lr-tb;text-anchor:start;fill:#000000;fill-opacity:1;stroke:none"><tspan
       x="128.20628"
       y="170.54065"
       id="tspan4237"
       style="font-size:21.69757271px">2</tspan></text>
  <path
     d="m 69.461249,91.032718 12.7246,-12.89862 m -13.59092,9.59091 6.5909,-6.63636 m 1.4091,6.63636 6.5909,-6.63636"
     id="path4348"
     style="fill:none;stroke:#a3a3a3;stroke-width:1px;stroke-linecap:butt;stroke-linejoin:miter;stroke-opacity:1" />
  <path
     style="fill:none;stroke:#a3a3a3;stroke-width:1px;stroke-linecap:butt;stroke-linejoin:miter;stroke-opacity:1"
     id="path4350"
     d="m 72.688987,146.81409 12.7246,-12.89862 m -13.59092,9.59091 6.5909,-6.63637 m 1.4091,6.63637 6.5909,-6.63637" />
</svg>
