<svg height="24" width="24" xmlns="http://www.w3.org/2000/svg">
<g fill="none" stroke="#302978" stroke-linecap="round">
<path d="m3.05 18h18" stroke-width="2"/>
<path d="m6 15-5 3 5 3"/>
<path d="m18 15 5 3-5 3"/>
</g>
<path d="m11.08 2.32c0-.22-.08-.36-.23-.42-.15-.07-1.2-.15-1.75-.23v-.44h7.08v.44c-.59.04-1.81.13-2.04.3-.23.16-.42.49-.55.97l-2.27 8.41c-.06.21-.09.4-.09.56 0 .35.38.53 1.13.53 1.47 0 2.68-.34 3.64-1.02.34-.25.63-.5.86-.77.25-.27.52-.65.81-1.14l.42.09-1.04 3.41h-10.42v-.44c.43-.06 1.44-.17 1.63-.33.2-.18.36-.49.48-.93l2.16-7.9c.12-.42.18-.78.18-1.07z" fill="#454545" transform="matrix(.95 0 .15 .98 -1.04 .08)"/>
</svg>
