<svg height="256" width="128" xmlns="http://www.w3.org/2000/svg" xmlns:xlink="http://www.w3.org/1999/xlink">
<g fill="none" stroke="#000">
<path d="m111.34 7.07-90 60 90 55" stroke-width="7"/>
<path d="m16.34 66.5h95" stroke-dasharray="8 2 1 2"/>
<path d="m91.34 122.07h20l-10-20" stroke-linecap="round" stroke-width="7"/>
<path d="m77.3 32.84c5.11 10.14 7.89 21.4 8.1 32.87" stroke-linecap="round" stroke-linejoin="bevel"/>
<path d="m76.4 41.28 1.37-7.44 7.05 4.31"/>
<path d="m88.75 59.11-3.33 6.86-4.11-6.27"/>
<path d="m111.34 131.07-78.25 60 78.25 55" stroke-width="7"/>
<path d="m91.34 246.07h20l-10-20" stroke-linecap="round" stroke-width="7"/>
<path d="m28.09 190.5h83.25" stroke-dasharray="8 2 1 2"/>
<path d="m83.3 156.84c5.11 10.14 7.89 21.4 8.1 32.87" stroke-linecap="round" stroke-linejoin="bevel"/>
<path d="m82.4 165.28 1.37-7.44 7.05 4.31"/>
<path d="m94.75 183.11-3.33 6.86-4.11-6.27"/>
</g>
<path id="a" d="m43.76 130.62-2.97-9.01c-.69.01-1.4-.06-2.13-.21l-1.6 5.61c-.21.73-.31 1.34-.31 1.85 0 .38.13.68.4.9.2.16.75.28 1.64.36l-.12.5h-7.18l.15-.51c.67-.03 1.13-.1 1.37-.21.37-.15.65-.36.82-.63.29-.43.6-1.18.92-2.27l3.24-11.2c.22-.75.33-1.33.33-1.74 0-.42-.17-.77-.52-1.07-.34-.29-.82-.43-1.46-.42l.16-.51h6.04c2.02 0 3.48.38 4.38 1.15.89.77 1.34 1.77 1.34 3.02 0 1.19-.46 2.29-1.38 3.28-.91.98-2.16 1.61-3.76 1.87l1.8 5.43c.44 1.33.88 2.2 1.31 2.6.44.4 1.14.63 2.12.68l-.16.53zm-4.87-9.99c.58.08 1.1.12 1.56.12 1.57 0 2.81-.43 3.72-1.3.91-.88 1.37-1.96 1.37-3.25 0-1.01-.29-1.79-.86-2.32-.57-.54-1.42-.81-2.56-.81-.29 0-.64.04-1.04.11zm38.91-8.93c1.17 0 2.15.49 2.94 1.46.8.98 1.2 2.52 1.2 4.62 0 1.8-.3 3.65-.89 5.52-.59 1.88-1.43 3.5-2.5 4.88-.86 1.08-1.75 1.87-2.69 2.35-.55.27-1.18.41-1.9.41-1.18 0-2.18-.49-2.98-1.46-.79-.98-1.19-2.52-1.19-4.63 0-2.09.4-4.18 1.2-6.29.94-2.46 2.14-4.33 3.6-5.61.96-.84 2.03-1.26 3.21-1.26zm.01.71c-.53 0-1.07.21-1.61.63-.54.41-1.1 1.27-1.68 2.58-.57 1.31-1.13 3-1.65 5.07-.68 2.71-1.03 5.01-1.03 6.92 0 .95.21 1.66.62 2.13.41.46.91.7 1.49.7.56 0 1.03-.18 1.42-.55 1.05-.98 1.95-2.67 2.69-5.04 1.21-3.89 1.82-7.05 1.82-9.49 0-1.01-.21-1.75-.62-2.23s-.89-.72-1.45-.72z"/>
<path id="b" d="m102.02 38.48h2.02l-2.93 6.69q.21 3.76 1.3 3.76.38 0 .72-.4.34-.41.41-1.01h.56q-.41 3.34-1.9 3.34-.52 0-.96-.55-.44-.55-.77-3.83-2.52 4.38-5.66 4.38-1.76 0-2.84-1.22-1.08-1.22-1.08-3.25 0-1.98 1-3.84 1-1.87 2.49-3.13 1.49-1.26 3.29-1.26 1.29 0 2.01.79.74.79 1.01 2.46zm-1.83 3.96q-.07-1-.63-2.24-.56-1.24-1.65-1.24-1.6 0-3.24 3.08-1.63 3.06-1.63 5.4 0 1.29.53 2.04.55.75 1.49.75.98 0 1.78-1.01.79-1.03 2.2-4.2z"/>
<g fill="none" stroke="#000">
<path d="m16.42 245.07h-10.58v-109h10.58c13.26 24.93 13.26 84.43 0 109z" stroke-width="3"/>
<path d="m25.35 209.11-19.7-23.12m20.14 15.65-20.14-23.65m20.23 15.74-20.23-23.74m20.89 17.09-20.89-25.09m20.04 16.53-20.04-24.53m18.94 15.09-18.94-23.09m17.59 12.69-16.86-20.96m18.27 79.04-19-22.76m18.27 30.13-18.27-22.13m16.96 27.85-16.96-19.85m15.56 25.66-15.56-17.66m13.42 22.71-13.42-14.71m11.04 19.93-11.04-11.93m4.51 12.61-4.51-4.61m6.31-104.51 8.9 10.9"/>
<path d="m15.35 68.82-9.27-11.27m9.27 3.27-9.27-11.27m9.27 3.27-9.27-11.27m10.82 4.36-10.82-12.36m11.82 6.36-11.82-14.36m13.82 8.82-13.82-16.82m16 11.36-15.27-19.64m8.55 67.55-9.27-11.27m11.82 22.09-11.82-14.09m15.64 25.73-15.64-17.73m22.55 32.73-22.55-24.73m18.73 28.64-18.73-20.64m12.27 20.73-12.27-12.73m4.95 13.41-4.95-5.41m8.16-103.01 10.23 13.37m-5.05-15.06 8.75 10.99"/>
<path d="m30.51 14.51c-18.8 27.61-20.32 69.93-.56 100.01l-2.73 3.93h-20.58v-109h20.76z" stroke-width="3"/>
</g>
<use transform="translate(5.54 124.12)" xlink:href="#b"/>
<path id="c" d="m66 121.69-14.71 6.37v-1.18l12.67-5.5-12.67-5.55v-1.24l14.71 6.43z"/>
<use transform="translate(-4 122)" xlink:href="#a"/>
<use transform="matrix(-1 0 0 1 113.28 122)" xlink:href="#c"/>
</svg>
