<svg height="24" width="24" xmlns="http://www.w3.org/2000/svg" xmlns:xlink="http://www.w3.org/1999/xlink">
  <linearGradient id="a" gradientUnits="userSpaceOnUse" spreadMethod="pad" x1="12" x2="12" y1=".479999" y2="23.519999">
    <stop offset="0" stop-color="#dbf6ff"/>
    <stop offset="1" stop-color="#7ddcfd"/>
  </linearGradient>
  <g stroke-linecap="round">
    <path d="m.48.479999h23.040001v23.040001h-23.040001z" fill="url(#a)" stroke="#00b4ff" stroke-width=".96"/>
    <g fill="none">
      <path d="m9 13 5-5m-3 6 5-5" stroke="#00b4ff"/>
      <path d="m3 12h18" stroke="#000" stroke-width="1.999969"/>
      <path d="m7 9-5 3 5 3" stroke="#000"/>
      <path d="m17 9 5 3-5 3" stroke="#000"/>
      <path d="m3 7 5-5m-3 6 5-5" stroke="#00b4ff"/>
      <path d="m15 6 5-5m-3 6 5-5" stroke="#00b4ff"/>
      <path d="m15 21 5-5m-3 6 5-5" stroke="#00b4ff"/>
      <path d="m3 21 5-5m-3 6 5-5" stroke="#00b4ff"/>
    </g>
  </g>
</svg>
