<svg height="235" width="128" xmlns="http://www.w3.org/2000/svg" xmlns:xlink="http://www.w3.org/1999/xlink">
<g fill="none" stroke="#000">
<path d="m3.03 177.5h115.54" stroke-dasharray="8 2 1 2"/>
<path d="m117.36 131-106.03 86.77" stroke-linecap="round" stroke-width="7"/>
<path d="m51.63 120.47-3.13 5.06c14.38 28.67 14.48 68.54.56 100.03l2.75 3.94h25.28l2.72-3.94c-14.8-31.49-14.53-71.36.56-100.03l-3.09-5.06z" stroke-width="3"/>
<path d="m77.68 32.2a69.27 69.27 0 0 1 8.33 28.32" transform="matrix(-1 0 0 -1 95.07 239.15)"/>
<path d="m60.47 4.47c-13.26 24.93-13.26 84.46 0 109.03h6.63c13.26-24.57 13.26-84.11 0-109.03z" stroke-width="3"/>
<path d="m5 63.5h119.38" stroke-dasharray="8 2 1 2"/>
<path d="m59.64 136.73 12.72-12.9m-13.59 9.59 6.59-6.64m1.41 6.64 6.59-6.64"/>
<path d="m55.64 224.73 12.72-12.9m-13.59 9.59 6.59-6.64m1.41 6.64 6.59-6.64"/>
<path d="m55.64 52.73 12.72-12.9m-13.59 9.59 6.59-6.64m1.41 6.64 6.59-6.64"/>
<path d="m57.64 88.73 12.72-12.9m-13.59 9.59 6.59-6.64m1.41 6.64 6.59-6.64"/>
<path d="m115.36 19-106.03 86.77" stroke-linecap="round" stroke-width="7"/>
<path d="m56.22 32.73 12.72-12.9m-13.59 9.59 6.59-6.64m1.41 6.64 6.59-6.64"/>
<path d="m7.07 183.91 1.94-5.66 3.01 5.3"/>
<path d="m17.85 200.88-.18 6.01-5.48-2.83"/>
<path d="m77.68 32.2a69.27 69.27 0 0 1 8.33 28.32" transform="matrix(-1 0 0 -1 95.07 125.5)"/>
<path d="m7.07 70.27 1.94-5.66 3.01 5.3"/>
<path d="m17.85 87.24-.18 6.01-5.48-2.83"/>
</g>
<path id="a" d="m27.85 68.47h2.02l-2.93 6.69q.21 3.76 1.3 3.76.38 0 .72-.4.34-.41.41-1.01h.56q-.41 3.34-1.9 3.34-.52 0-.96-.55-.44-.55-.77-3.83-2.52 4.38-5.66 4.38-1.76 0-2.84-1.22-1.08-1.22-1.08-3.25 0-1.98 1-3.84 1-1.87 2.49-3.13 1.49-1.26 3.29-1.26 1.29 0 2.01.79.74.79 1.01 2.46zm-1.83 3.96q-.07-1-.63-2.24-.56-1.24-1.65-1.24-1.6 0-3.24 3.08-1.63 3.06-1.63 5.4 0 1.29.53 2.04.55.75 1.49.75.98 0 1.78-1.01.79-1.03 2.2-4.2z"/>
<path id="b" d="m107.9 105.97-14.71 6.37v-1.18l12.67-5.5-12.67-5.55v-1.24l14.71 6.43z"/>
<g fill="none" stroke="#000" stroke-linecap="round" stroke-width="7">
<path d="m94.4 132.47 25.46-3.89-7.07 24.75"/>
<path d="m94.4 18.47 25.46-3.89-7.07 24.75"/>
</g>
<use transform="translate(0 114)" xlink:href="#a"/>
<path id="c" d="m83.14 97.35-2.19 7.34h2.43c1.09 0 1.91-.17 2.45-.51.55-.34 1.11-1.06 1.68-2.16h.52l-1.93 6.75h-.55c.14-.55.21-1 .21-1.35 0-.56-.19-.98-.56-1.29-.36-.31-1.05-.46-2.06-.46h-2.47l-1.61 5.59c-.29.99-.44 1.65-.44 1.98 0 .34.12.6.37.78.26.18.87.31 1.85.37l-.17.51h-7.33l.18-.51c.71-.02 1.18-.08 1.42-.19.36-.15.63-.36.81-.63.25-.37.54-1.14.88-2.31l3.27-11.17c.26-.9.4-1.61.4-2.12 0-.24-.06-.44-.18-.6-.12-.17-.3-.3-.53-.38s-.69-.12-1.38-.12l.16-.51h14.38l-1.37 4.69h-.52c.1-.57.15-1.03.15-1.39 0-.6-.17-1.08-.51-1.42-.33-.36-.75-.61-1.27-.75-.36-.09-1.18-.14-2.45-.14zm36.57-1.37c1.17 0 2.15.49 2.94 1.46.8.98 1.2 2.52 1.2 4.62 0 1.8-.3 3.65-.89 5.52-.59 1.88-1.43 3.5-2.5 4.88-.86 1.08-1.75 1.87-2.69 2.35-.55.27-1.18.41-1.9.41-1.18 0-2.18-.49-2.98-1.46-.79-.98-1.19-2.52-1.19-4.63 0-2.09.4-4.18 1.2-6.29.94-2.46 2.14-4.33 3.6-5.61.96-.84 2.03-1.26 3.21-1.26zm.01.71c-.53 0-1.07.21-1.61.63-.54.41-1.1 1.27-1.68 2.58-.57 1.31-1.13 3-1.65 5.07-.68 2.71-1.03 5.01-1.03 6.92 0 .95.21 1.66.62 2.13.41.46.91.7 1.49.7.56 0 1.03-.18 1.42-.55 1.05-.98 1.95-2.67 2.69-5.04 1.21-3.89 1.82-7.05 1.82-9.49 0-1.01-.21-1.75-.62-2.23s-.89-.72-1.45-.72z"/>
<use transform="matrix(-1 0 0 1 201.44 85.75)" xlink:href="#b"/>
<use transform="translate(.36 85.75)" xlink:href="#c"/>
</svg>
