<svg height="128" width="200" xmlns="http://www.w3.org/2000/svg">
<g fill="none" stroke="#000">
<path d="m39.75 63.61h118.42" stroke-width="7"/>
<path d="m89.75 26.59v74.29" stroke-dasharray="3 3"/>
<path d="m51.95 26.36h75.61v74.5h-75.61z" stroke-width="3"/>
<path d="m142.07 47.06 18.18 16.73-17.82 16.36" stroke-linecap="round" stroke-width="7"/>
</g>
<g stroke-width="1.01">
<path d="m79.51 43.53-3.09 10.76q-.27.95-.27 1.37 0 .36.24.55.25.18 1.15.25l-.1.36h-4.94l.13-.36q.79-.02 1.04-.12.4-.17.6-.46.32-.44.64-1.58l2.23-7.73q.2-.7.22-.81.03-.19.03-.37 0-.34-.18-.53-.18-.19-.5-.19-.25 0-.78.12l-.12-.35 3.23-.9z"/>
<path d="m117.37 56.49h-6.48v-.36q4.95-4.34 6.55-6.8.74-1.14.74-2.4 0-1-.61-1.62-.61-.63-1.59-.63-1.35 0-2.23 1.3l-.34-.15q.49-1.24 1.43-1.92.94-.69 2.03-.69 1.24 0 2.08.85.84.84.84 2.05 0 .84-.3 1.56-.46 1.12-1.7 2.51-1.88 2.13-5.02 4.9h3.26q.79 0 1.3-.33.51-.33.73-.87h.38z"/>
<path d="m76.1 88.74v-.27q2.32-.36 3.46-1.38.83-.73.83-1.74 0-.76-.48-1.25-.48-.5-1.16-.5-1.07 0-1.91 1.33l-.36-.11q.5-1.11 1.28-1.68.79-.58 1.72-.58 1.13 0 1.83.68.7.67.7 1.71 0 .88-.66 1.7-.65.82-2.26 1.46 1 .41 1.51 1.19.51.77.51 1.85 0 1.2-.69 2.41-.69 1.2-1.9 1.86-1.2.65-2.52.65-1.21 0-1.83-.42-.41-.29-.41-.67 0-.34.24-.58.25-.24.6-.24.25 0 .5.08.15.05.75.38.6.34.94.45.34.11.69.11.86 0 1.42-1 .57-1.01.57-2.14 0-.92-.38-1.64-.39-.71-1.2-1.15-.82-.45-1.79-.51z"/>
<path d="m119.51 83.21-2.49 8.56h1.55l-.35 1.19h-1.57l-1.01 3.49h-1.41l1.02-3.49h-4.7l.4-1.34 7.82-8.41zm-2.13 2.48-5.59 6.08h3.85z"/>
</g>
<path d="m12.69 9.8c-.77 2.44-1.07 5.21-2.22 7.45-.75 1.46-2.2 2.33-3.38 2.34-.46.01-.89-.09-1.12-.33-.5-.51-.43-1.05-.12-1.32.45-.38 1.04-.26 1.37.02.35.3.31.79.02 1.1.13.18.43.02.56-.06 1.2-.76 2.02-6.08 2.83-9.22h-2.19l.26-.96h2.17c.65-1.49 1.24-2.35 2.2-3.21.65-.47 1.38-.71 2.18-.71.97.01 1.47.37 1.56 1.07.08.65-.48.9-.9.9-.57 0-.75-.37-.76-.67-.01-.33.3-.62.29-.74-.01-.14-.13-.2-.22-.2-.31-.01-.64.19-.97.58-.54.63-.98 1.62-1.31 2.98h2.08l-.28.98z" transform="matrix(1.48 0 -.12 1.55 54.15 24.4)"/>
<path d="m12.69 9.8c-.77 2.44-1.07 5.21-2.22 7.45-.75 1.46-2.2 2.33-3.38 2.34-.46.01-.89-.09-1.12-.33-.5-.51-.43-1.05-.12-1.32.45-.38 1.04-.26 1.37.02.35.3.31.79.02 1.1.13.18.43.02.56-.06 1.2-.76 2.02-6.08 2.83-9.22h-2.19l.26-.96h2.17c.65-1.49 1.24-2.35 2.2-3.21.65-.47 1.38-.71 2.18-.71.97.01 1.47.37 1.56 1.07.08.65-.48.9-.9.9-.57 0-.75-.37-.76-.67-.01-.33.3-.62.29-.74-.01-.14-.13-.2-.22-.2-.31-.01-.64.19-.97.58-.54.63-.98 1.62-1.31 2.98h2.08l-.28.98z" transform="matrix(1.48 0 -.12 1.55 91.98 24.4)"/>
<path d="m12.69 9.8c-.77 2.44-1.07 5.21-2.22 7.45-.75 1.46-2.2 2.33-3.38 2.34-.46.01-.89-.09-1.12-.33-.5-.51-.43-1.05-.12-1.32.45-.38 1.04-.26 1.37.02.35.3.31.79.02 1.1.13.18.43.02.56-.06 1.2-.76 2.02-6.08 2.83-9.22h-2.19l.26-.96h2.17c.65-1.49 1.24-2.35 2.2-3.21.65-.47 1.38-.71 2.18-.71.97.01 1.47.37 1.56 1.07.08.65-.48.9-.9.9-.57 0-.75-.37-.76-.67-.01-.33.3-.62.29-.74-.01-.14-.13-.2-.22-.2-.31-.01-.64.19-.97.58-.54.63-.98 1.62-1.31 2.98h2.08l-.28.98z" transform="matrix(1.48 0 -.12 1.55 54.15 64.56)"/>
<path d="m12.69 9.8c-.77 2.44-1.07 5.21-2.22 7.45-.75 1.46-2.2 2.33-3.38 2.34-.46.01-.89-.09-1.12-.33-.5-.51-.43-1.05-.12-1.32.45-.38 1.04-.26 1.37.02.35.3.31.79.02 1.1.13.18.43.02.56-.06 1.2-.76 2.02-6.08 2.83-9.22h-2.19l.26-.96h2.17c.65-1.49 1.24-2.35 2.2-3.21.65-.47 1.38-.71 2.18-.71.97.01 1.47.37 1.56 1.07.08.65-.48.9-.9.9-.57 0-.75-.37-.76-.67-.01-.33.3-.62.29-.74-.01-.14-.13-.2-.22-.2-.31-.01-.64.19-.97.58-.54.63-.98 1.62-1.31 2.98h2.08l-.28.98z" transform="matrix(1.48 0 -.12 1.55 91.98 64.56)"/>
</svg>
