<svg height="200" width="200" xmlns="http://www.w3.org/2000/svg">
  <g fill="none">
    <path d="m40.5 99.35666h114.42273" stroke="#000" stroke-width="7"/>
    <path d="m92.5 166.36803v-130.999996" stroke="#000" stroke-width="3"/>
    <path d="m44.757006 136.7118 12.7246-12.89862m-13.59092 9.59091 6.5909-6.63637m1.4091 6.63637 6.5909-6.63637" stroke="#a3a3a3"/>
    <path d="m45.723912 50.252764 12.7246-12.89862m-13.59092 9.59091 6.5909-6.63636m1.4091 6.63636 6.5909-6.63636" stroke="#a3a3a3"/>
    <path d="m67.693482 65.576874 12.7246-12.89862m-13.59092 9.59091 6.5909-6.63636m1.4091 6.63636 6.5909-6.63636" stroke="#a3a3a3"/>
    <path d="m40.154551 84.79419 12.7246-12.898616m-13.59092 9.590906 6.5909-6.636356m1.4091 6.636356 6.5909-6.636356" stroke="#a3a3a3"/>
    <path d="m136.81818 82.77712 18.18182 16.72727-17.81818 16.36364" stroke="#000" stroke-linecap="round" stroke-width="7"/>
    <path d="m108.61547 129.16849-6.63638 6.5909m6.98864-.2273-6.5909-6.63637" stroke="#a3a3a3"/>
    <path d="m69.507006 121.7118 12.7246-12.89862m-13.59092 9.59091 6.5909-6.63637m1.4091 6.63637 6.5909-6.63637" stroke="#a3a3a3"/>
    <path d="m125.36831 112.67701-6.63638 6.5909m6.98864-.2273-6.5909-6.63637" stroke="#a3a3a3"/>
    <path d="m123.57626 81.46622-6.63638 6.5909m6.98864-.2273-6.5909-6.63637" stroke="#a3a3a3"/>
    <path d="m106.87398 64.221896-6.63637 6.5909m6.98864-.2273-6.5909-6.63637" stroke="#a3a3a3"/>
    <path d="m151.36547 61.91849-6.63638 6.5909m6.98864-.2273-6.5909-6.63637" stroke="#a3a3a3"/>
    <path d="m108.36547 40.91849-6.63638 6.5909m6.98864-.2273-6.5909-6.63637" stroke="#a3a3a3"/>
    <path d="m128.1632 53.013948-6.63638 6.5909m6.98864-.2273-6.5909-6.63637" stroke="#a3a3a3"/>
    <path d="m147.11547 36.41849-6.63638 6.5909m6.98864-.2273-6.5909-6.63637" stroke="#a3a3a3"/>
    <path d="m150.53651 137.228-6.63637 6.5909m6.98863-.2273-6.5909-6.63637" stroke="#a3a3a3"/>
  </g>
  <text font-family="Times New Roman" font-size="10" font-style="italic" x="45.874611" y="164.29723"><tspan font-size="36" x="45.874611" y="164.29723">n</tspan></text>
  <text font-family="Times New Roman" font-size="5.18307" font-style="italic" x="63.017052" y="169.66565"><tspan font-size="18.65905" x="63.017052" y="169.66565">1</tspan></text>
  <text font-family="Times New Roman" font-size="10" font-style="italic" x="113.13847" y="163.42223"><tspan font-size="36" x="113.13847" y="163.42223">n</tspan></text>
  <text font-family="Times New Roman" font-size="6.027103" font-style="italic" x="128.20628" y="170.54065"><tspan font-size="21.697573" x="128.20628" y="170.54065">2</tspan></text>
  <path d="m69.461249 91.032718 12.7246-12.89862m-13.59092 9.59091 6.5909-6.63636m1.4091 6.63636 6.5909-6.63636" fill="none" stroke="#a3a3a3"/>
  <path d="m72.688987 146.81409 12.7246-12.89862m-13.59092 9.59091 6.5909-6.63637m1.4091 6.63637 6.5909-6.63637" fill="none" stroke="#a3a3a3"/>
</svg>
