<svg height="150" width="200" xmlns="http://www.w3.org/2000/svg">
<g transform="translate(39.25 3.12)">
<g fill="none" stroke="#000">
<path d="m3.5 79.49h114.42" stroke-width="7"/>
<path d="m18.5 29v34.29"/>
<path d="m88.5 28.82v34.47"/>
<path d="m20.6 32.5h65.81" stroke-width="1.02"/>
<path d="m19.5 49.5h68v67h-68z" stroke-width="3"/>
<path d="m27.14 101.42 12.72-12.9m-13.59 9.59 6.59-6.64m1.41 6.64 6.59-6.64"/>
<path d="m43.14 113.42 12.72-12.9m-13.59 9.59 6.59-6.64m1.41 6.64 6.59-6.64"/>
<path d="m67.14 99.42 12.72-12.9m-13.59 9.59 6.59-6.64m1.41 6.64 6.59-6.64"/>
<path d="m27.14 67.42 12.72-12.9m-13.59 9.59 6.59-6.64m1.41 6.64 6.59-6.64"/>
<path d="m47.14 67.42 12.72-12.9m-13.59 9.59 6.59-6.64m1.41 6.64 6.59-6.64"/>
<path d="m69.14 67.42 12.72-12.9m-13.59 9.59 6.59-6.64m1.41 6.64 6.59-6.64"/>
<path d="m95.45 129.09-28.55-22.91" stroke-width="1.5"/>
<path d="m68.36 112.18-1.82-6.36 7.45 1.27"/>
<path d="m99.82 62.91 18.18 16.73-17.82 16.36" stroke-linecap="round" stroke-width="7"/>
<path d="m82.39 28.18 4.91 4.36-4.91 3.64m-57.75-8-4.91 4.18 4.91 3.82"/>
</g>
<g font-family="Times New Roman" font-size="10" font-style="italic">
<text x="97.45" y="137.71"><tspan font-size="36" x="97.45" y="137.71">n</tspan></text>
<text x="45.25" y="29.46"><tspan font-size="36" x="45.25" y="29.46">L</tspan></text>
</g>
</g>
</svg>
