<svg height="24" width="24" xmlns="http://www.w3.org/2000/svg" xmlns:xlink="http://www.w3.org/1999/xlink">
<linearGradient id="a" gradientUnits="userSpaceOnUse" spreadMethod="pad" x1="12" x2="12" y1=".48" y2="23.52">
<stop offset="0" stop-color="#dbf6ff"/>
<stop offset="1" stop-color="#7ddcfd"/>
</linearGradient>
<g stroke-linecap="round">
<path d="m.48.48h23.04v23.04h-23.04z" fill="url(#a)" stroke="#00b4ff" stroke-width=".96"/>
<g fill="none">
<path d="m9 13 5-5m-3 6 5-5" stroke="#00b4ff"/>
<g stroke="#000">
<path d="m3 12h18" stroke-width="2"/>
<path d="m7 9-5 3 5 3"/>
<path d="m17 9 5 3-5 3"/>
</g>
<g stroke="#00b4ff">
<path d="m3 7 5-5m-3 6 5-5"/>
<path d="m15 6 5-5m-3 6 5-5"/>
<path d="m15 21 5-5m-3 6 5-5"/>
<path d="m3 21 5-5m-3 6 5-5"/>
</g>
</g>
</g>
</svg>
