<svg height="128" width="200" xmlns="http://www.w3.org/2000/svg">
<g fill="none" stroke="#000">
<path d="m39.75 63.61h118.42" stroke-width="7"/>
<path d="m89.75 28.36v74.29" stroke-dasharray="3 3"/>
<path d="m51.95 26.36h75.61v74.5h-75.61z" stroke-width="3"/>
<path d="m142.07 47.06 18.18 16.73-17.82 16.36" stroke-linecap="round" stroke-width="7"/>
</g>
<path d="m77.17 32.45-1.34 14.63q-.1 1.02-.1 1.35 0 .52.19.79.25.38.66.56.43.18 1.43.18l-.14.48h-6.93l.14-.48h.3q.84 0 1.37-.36.38-.25.58-.82.14-.4.27-1.89l.21-2.23h-5.02l-1.79 2.43q-.61.82-.77 1.18-.16.35-.16.66 0 .42.34.71.34.3 1.12.32l-.14.48h-5.2l.14-.48q.96-.04 1.69-.64.74-.61 2.19-2.58l10.51-14.29zm-2.57 4.32-5.1 6.94h4.42z"/>
<path d="m105.42 33.13.18-.48h6.28q1.58 0 2.81.49 1.25.49 1.85 1.37.62.88.62 1.87 0 1.52-1.1 2.75-1.09 1.22-3.57 1.8 1.6.6 2.35 1.58.75.99.75 2.17 0 1.31-.67 2.5-.67 1.19-1.74 1.85-1.05.66-2.54.97-1.06.22-3.32.22h-6.45l.17-.48q1.01-.03 1.37-.19.52-.22.74-.58.31-.49.83-2.26l3.15-10.65q.4-1.35.4-1.89 0-.48-.36-.75-.35-.29-1.35-.29-.22 0-.42-.01zm2.63 7.3q.84.03 1.22.03 2.7 0 4.01-1.17 1.32-1.18 1.32-2.94 0-1.34-.8-2.08-.8-.75-2.57-.75-.47 0-1.19.16zm-2.55 8.66q1.4.18 2.19.18 2.02 0 3.58-1.22 1.57-1.22 1.57-3.31 0-1.6-.97-2.49-.96-.89-3.11-.89-.42 0-1.01.04z"/>
<path d="m78.56 74.45-1.31 5.69h-.47l-.05-1.43q-.07-.77-.3-1.38-.23-.61-.7-1.05-.47-.45-1.18-.7-.71-.26-1.58-.26-2.32 0-4.06 1.27-2.22 1.62-3.48 4.58-1.04 2.44-1.04 4.94 0 2.55 1.49 4.09 1.49 1.52 3.88 1.52 1.8 0 3.2-.8 1.41-.8 2.62-2.48h.61q-1.43 2.27-3.16 3.35-1.74 1.06-4.16 1.06-2.15 0-3.81-.89-1.66-.91-2.53-2.54-.87-1.63-.87-3.51 0-2.88 1.54-5.6 1.54-2.72 4.23-4.28 2.7-1.56 5.43-1.56 1.28 0 2.88.61.7.26 1.01.26.31 0 .54-.13.23-.13.78-.74z"/>
<path d="m103.95 75.33.16-.48h5.62q3.57 0 5.28.82 1.72.82 2.75 2.58 1.02 1.75 1.02 3.76 0 1.72-.6 3.36-.58 1.62-1.34 2.61-.74.97-2.28 2.15-1.54 1.18-3.35 1.75-1.8.56-4.5.56h-7.44l.17-.48q1.02-.03 1.37-.18.52-.22.77-.6.38-.54.84-2.19l3.11-10.63q.36-1.26.36-1.97 0-.51-.34-.78-.34-.27-1.32-.27zm4.6.49-3.81 13.16q-.43 1.48-.43 1.83 0 .21.13.4.14.19.38.26.34.12 1.09.12 2.04 0 3.77-.42 1.75-.43 2.87-1.26 1.58-1.21 2.53-3.32.95-2.11.95-4.81 0-3.05-1.45-4.53-1.45-1.49-4.24-1.49-.69 0-1.78.05z"/>
</svg>
