<svg height="24" width="24" xmlns="http://www.w3.org/2000/svg" xmlns:xlink="http://www.w3.org/1999/xlink">
<linearGradient id="a" gradientUnits="userSpaceOnUse" x1="14.42" x2="14.42" y1="-3.76" y2="17.24">
<stop offset="0" stop-color="#dbf6ff"/>
<stop offset="1" stop-color="#7ddcfd"/>
</linearGradient>
<g stroke-linecap="round">
<path d="m11.22-4.36h6.05v21.53h-6.05z" fill="url(#a)" fill-rule="evenodd" stroke="#00b4ff" stroke-dashoffset="21.44" transform="matrix(.9 .44 -.44 .9 0 0)"/>
<g fill="none">
<path d="m10.04 7.48 3.51-3.35m-1.51 4.35 3.51-3.35" stroke="#00b4ff" stroke-width=".6"/>
<path d="m4.23 19.35 3.51-3.35m-1.51 4.35 3.51-3.35" stroke="#00b4ff" stroke-width=".7"/>
<g stroke="#f00" stroke-width="3">
<path d="m-1.72 10.53h9.15l4.67 3.99h9.02"/>
<path d="m18.5 10.57 4 3.95-4.03 4.01" stroke-linejoin="round"/>
</g>
</g>
</g>
<path d="m7.09 12.21 1.35-2.79 3.99 3.39-1.38 2.79z" fill="#da9999" fill-rule="evenodd"/>
<path d="m2.86 3.26h3.67v.88h-3.67zm1.84-2.47q-1.14 0-1.81.85-.68.85-.68 2.32 0 1.47.67 2.32.68.85 1.82.85 1.14 0 1.81-.85.67-.85.67-2.32 0-1.47-.67-2.32-.67-.85-1.81-.85zm0-.85q1.63 0 2.61 1.1.98 1.09.98 2.93 0 1.83-.98 2.93-.98 1.1-2.61 1.1-1.64 0-2.61-1.09-.98-1.09-.98-2.93 0-1.84.98-2.94.98-1.09 2.61-1.09z" transform="scale(.99 1.01)"/>
</svg>
