<svg height="128" width="200" xmlns="http://www.w3.org/2000/svg">
<g fill="none" stroke="#000">
<path d="m39.75 63.61h118.42" stroke-width="7"/>
<path d="m89.75 26.59v74.29" stroke-dasharray="3 3"/>
<path d="m51.95 26.36h75.61v74.5h-75.61z" stroke-width="3"/>
<path d="m142.07 47.06 18.18 16.73-17.82 16.36" stroke-linecap="round" stroke-width="7"/>
</g>
<g font-family="Times New Roman" font-size="7.38" font-style="italic" stroke-width="1.36" transform="matrix(.74 0 0 .74 30.72 21.3)">
<text x="54.85" y="47.99"><tspan font-size="26.56" stroke-width="1.36" x="54.85" y="47.99">1</tspan></text>
<text x="107.93" y="47.56"><tspan font-size="26.56" stroke-width="1.36" x="107.93" y="47.56">2</tspan></text>
<text x="57.27" y="100.75"><tspan font-size="26.56" stroke-width="1.36" x="57.27" y="100.75">3</tspan></text>
<text x="107.05" y="101.25"><tspan font-size="26.56" stroke-width="1.36" x="107.05" y="101.25">4</tspan></text>
</g>
<path d="m12.69 9.8c-.77 2.44-1.07 5.21-2.22 7.45-.75 1.46-2.2 2.33-3.38 2.34-.46.01-.89-.09-1.12-.33-.5-.51-.43-1.05-.12-1.32.45-.38 1.04-.26 1.37.02.35.3.31.79.02 1.1.13.18.43.02.56-.06 1.2-.76 2.02-6.08 2.83-9.22h-2.19l.26-.96h2.17c.65-1.49 1.24-2.35 2.2-3.21.65-.47 1.38-.71 2.18-.71.97.01 1.47.37 1.56 1.07.08.65-.48.9-.9.9-.57 0-.75-.37-.76-.67-.01-.33.3-.62.29-.74-.01-.14-.13-.2-.22-.2-.31-.01-.64.19-.97.58-.54.63-.98 1.62-1.31 2.98h2.08l-.28.98z" transform="matrix(1.48 0 -.12 1.55 54.15 24.4)"/>
<path d="m12.69 9.8c-.77 2.44-1.07 5.21-2.22 7.45-.75 1.46-2.2 2.33-3.38 2.34-.46.01-.89-.09-1.12-.33-.5-.51-.43-1.05-.12-1.32.45-.38 1.04-.26 1.37.02.35.3.31.79.02 1.1.13.18.43.02.56-.06 1.2-.76 2.02-6.08 2.83-9.22h-2.19l.26-.96h2.17c.65-1.49 1.24-2.35 2.2-3.21.65-.47 1.38-.71 2.18-.71.97.01 1.47.37 1.56 1.07.08.65-.48.9-.9.9-.57 0-.75-.37-.76-.67-.01-.33.3-.62.29-.74-.01-.14-.13-.2-.22-.2-.31-.01-.64.19-.97.58-.54.63-.98 1.62-1.31 2.98h2.08l-.28.98z" transform="matrix(1.48 0 -.12 1.55 91.98 24.4)"/>
<path d="m12.69 9.8c-.77 2.44-1.07 5.21-2.22 7.45-.75 1.46-2.2 2.33-3.38 2.34-.46.01-.89-.09-1.12-.33-.5-.51-.43-1.05-.12-1.32.45-.38 1.04-.26 1.37.02.35.3.31.79.02 1.1.13.18.43.02.56-.06 1.2-.76 2.02-6.08 2.83-9.22h-2.19l.26-.96h2.17c.65-1.49 1.24-2.35 2.2-3.21.65-.47 1.38-.71 2.18-.71.97.01 1.47.37 1.56 1.07.08.65-.48.9-.9.9-.57 0-.75-.37-.76-.67-.01-.33.3-.62.29-.74-.01-.14-.13-.2-.22-.2-.31-.01-.64.19-.97.58-.54.63-.98 1.62-1.31 2.98h2.08l-.28.98z" transform="matrix(1.48 0 -.12 1.55 54.15 64.56)"/>
<path d="m12.69 9.8c-.77 2.44-1.07 5.21-2.22 7.45-.75 1.46-2.2 2.33-3.38 2.34-.46.01-.89-.09-1.12-.33-.5-.51-.43-1.05-.12-1.32.45-.38 1.04-.26 1.37.02.35.3.31.79.02 1.1.13.18.43.02.56-.06 1.2-.76 2.02-6.08 2.83-9.22h-2.19l.26-.96h2.17c.65-1.49 1.24-2.35 2.2-3.21.65-.47 1.38-.71 2.18-.71.97.01 1.47.37 1.56 1.07.08.65-.48.9-.9.9-.57 0-.75-.37-.76-.67-.01-.33.3-.62.29-.74-.01-.14-.13-.2-.22-.2-.31-.01-.64.19-.97.58-.54.63-.98 1.62-1.31 2.98h2.08l-.28.98z" transform="matrix(1.48 0 -.12 1.55 91.98 64.56)"/>
</svg>
