<svg height="24" width="24" xmlns="http://www.w3.org/2000/svg" xmlns:xlink="http://www.w3.org/1999/xlink">
  <linearGradient id="a" gradientTransform="matrix(.6667011 0 0 .75 1.5 3.5)" gradientUnits="userSpaceOnUse" spreadMethod="pad" x1="12" x2="12" y1="0" y2="24">
    <stop offset="0" stop-color="#dbf6ff"/>
    <stop offset="1" stop-color="#7ddcfd"/>
  </linearGradient>
  <path d="m-1.105665 12.519287 21.633466.031855" fill="none" stroke="#f00" stroke-linecap="round" stroke-width="3"/>
  <path d="m1.5 3.5h16.000824v18h-16.000824z" fill="url(#a)" stroke="#00b4ff" stroke-linecap="round"/>
  <path d="m5.7325905 5.5510149-1.0592998 2.872481h2.1224657zm-.4407306-.7693455h.8853273l2.1997869 5.7720246h-.8118722l-.5257838-1.4807004h-2.601857l-.5257838 1.4807004h-.8234704z" transform="scale(.9594267 1.0422892)"/>
  <path d="m11.32452 8.5426653v2.3169187h1.372362q.690416 0 1.020799-.283791.334619-.288026.334619-.8767864 0-.5929955-.334619-.8725506-.330383-.2837907-1.020799-.2837907zm0-2.6007091v1.9060572h1.26647q.626881 0 .93185-.2329626.309204-.2371982.309204-.720066 0-.4786321-.309204-.7158304-.304969-.2371982-.93185-.2371982zm-.855607-.7031233h2.185612q.978442 0 1.507903.4066255.52946.4066256.52946 1.1563414 0 .5802885-.271084.9233788-.271083.3430902-.796308.4278039.631117.1355418.978443.5675815.351561.4278039.351561 1.0716276 0 .8471364-.576052 1.3088264-.576053.461689-1.63921.461689h-2.270325z" transform="scale(1.0511552 .9513343)"/>
  <path d="m7.7172718 14.832767v.845131q-.4047104-.376936-.8649693-.56342-.4562911-.186485-.9720985-.186485-1.0157437 0-1.5553576.622937-.5396138.618969-.5396138 1.793422 0 1.170486.5396138 1.793423.5396139.618969 1.5553576.618969.5158074 0 .9720985-.186484.4602589-.186485.8649693-.563421v.837195q-.4205814.285678-.8927435.428517-.4681944.142839-.9919373.142839-1.3450669 0-2.1187779-.821324-.7737111-.825292-.7737111-2.249714 0-1.428389.7737111-2.249713.773711-.825292 2.1187779-.825292.5316784 0 .9998728.142839.4721621.138871.884808.420581z" transform="scale(1.0203728 .980034)"/>
  <path d="m11.888227 14.552467v4.646277h.976479q1.236606 0 1.808886-.560275.576283-.560274.576283-1.768867 0-1.200588-.576283-1.756861-.57228-.560274-1.808886-.560274zm-.808396-.664326h1.660814q1.736851 0 2.549249.724355.812398.720353.812398 2.257106 0 1.544757-.8164 2.269112-.8164.724356-2.545247.724356h-1.660814z" transform="scale(.9931536 1.0068936)"/>
  <path d="m9.506494 3v19" fill="none" opacity=".5" stroke="#00b4ff"/>
  <path d="m24 12.5-5-4.5v9z" fill="#f00" fill-rule="evenodd"/>
  <path d="m17 12.525974h-15" fill="none" opacity=".5" stroke="#00b4ff"/>
</svg>
