<svg height="200" width="200" xmlns="http://www.w3.org/2000/svg">
<g fill="none">
<path d="m40.5 99.36h114.42" stroke="#000" stroke-width="7"/>
<path d="m92.5 166.37v-131" stroke="#000" stroke-width="3"/>
<g stroke="#a3a3a3">
<path d="m44.76 136.71 12.72-12.9m-13.59 9.59 6.59-6.64m1.41 6.64 6.59-6.64"/>
<path d="m45.72 50.25 12.72-12.9m-13.59 9.59 6.59-6.64m1.41 6.64 6.59-6.64"/>
<path d="m67.69 65.58 12.72-12.9m-13.59 9.59 6.59-6.64m1.41 6.64 6.59-6.64"/>
<path d="m40.15 84.79 12.72-12.9m-13.59 9.59 6.59-6.64m1.41 6.64 6.59-6.64"/>
</g>
<path d="m136.82 82.78 18.18 16.73-17.82 16.36" stroke="#000" stroke-linecap="round" stroke-width="7"/>
<g stroke="#a3a3a3">
<path d="m108.62 129.17-6.64 6.59m6.99-.23-6.59-6.64"/>
<path d="m69.51 121.71 12.72-12.9m-13.59 9.59 6.59-6.64m1.41 6.64 6.59-6.64"/>
<path d="m125.37 112.68-6.64 6.59m6.99-.23-6.59-6.64"/>
<path d="m123.58 81.47-6.64 6.59m6.99-.23-6.59-6.64"/>
<path d="m106.87 64.22-6.64 6.59m6.99-.23-6.59-6.64"/>
<path d="m151.37 61.92-6.64 6.59m6.99-.23-6.59-6.64"/>
<path d="m108.37 40.92-6.64 6.59m6.99-.23-6.59-6.64"/>
<path d="m128.16 53.01-6.64 6.59m6.99-.23-6.59-6.64"/>
<path d="m147.12 36.42-6.64 6.59m6.99-.23-6.59-6.64"/>
<path d="m150.54 137.23-6.64 6.59m6.99-.23-6.59-6.64"/>
</g>
</g>
<g font-family="Times New Roman" font-style="italic">
<text font-size="10" x="45.87" y="164.3"><tspan font-size="36" x="45.87" y="164.3">n</tspan></text>
<text font-size="5.18" x="63.02" y="169.67"><tspan font-size="18.66" x="63.02" y="169.67">1</tspan></text>
<text font-size="10" x="113.14" y="163.42"><tspan font-size="36" x="113.14" y="163.42">n</tspan></text>
<text font-size="6.03" x="128.21" y="170.54"><tspan font-size="21.7" x="128.21" y="170.54">2</tspan></text>
</g>
<g fill="none" stroke="#a3a3a3">
<path d="m69.46 91.03 12.72-12.9m-13.59 9.59 6.59-6.64m1.41 6.64 6.59-6.64"/>
<path d="m72.69 146.81 12.72-12.9m-13.59 9.59 6.59-6.64m1.41 6.64 6.59-6.64"/>
</g>
</svg>
