<svg height="250" width="200" xmlns="http://www.w3.org/2000/svg">
<g fill="none">
<g stroke="#000">
<path d="m130.85 90.52-81.31-51.17" stroke-dasharray="12 6" stroke-width="1.5"/>
<path d="m164.51 72.31h-61.9l-89.3 55.94" stroke-linecap="round" stroke-width="7"/>
<path d="m150.8 62.32 15.96 9.43-16.25 10.62" stroke-linecap="round" stroke-width="7"/>
<path d="m71.73 85.54c-2-9.75-1.87-19.82.37-29.52"/>
<path d="m68.64 60.48 3.52-4.83 1.31 5.95"/>
<path d="m73.95 79.87-1.94 5.69-4.41-4.32"/>
</g>
<g stroke="#a3a3a3">
<path d="m90.43 21.64 12.72-12.9m-13.59 9.59 6.59-6.64m1.41 6.64 6.59-6.64"/>
<path d="m61.46 35.35 12.72-12.9m-13.59 9.59 6.59-6.64m1.41 6.64 6.59-6.64"/>
<path d="m86.55 50.45 12.72-12.9m-13.59 9.59 6.59-6.64m1.41 6.64 6.59-6.64"/>
<path d="m35.97 137.91 12.72-12.9m-13.59 9.59 6.59-6.64m1.41 6.64 6.59-6.64"/>
</g>
<path d="m60.99 241.52 56.26-234.59" stroke="#000" stroke-linecap="round" stroke-width="3"/>
</g>
<g font-family="Times New Roman" font-style="italic" transform="translate(-35.36 -7.42)">
<text font-size="10" x="60.88" y="31.35"><tspan font-size="36" x="60.88" y="31.35">n</tspan></text>
<text font-size="5.18" x="78.02" y="36.72"><tspan font-size="18.66" x="78.02" y="36.72">1</tspan></text>
</g>
<g font-family="Times New Roman" font-style="italic" transform="translate(53.39 -94.4)">
<text font-size="10" x="106.49" y="118.43"><tspan font-size="36" x="106.49" y="118.43">n</tspan></text>
<text font-size="6.03" x="121.56" y="125.55"><tspan font-size="21.7" x="121.56" y="125.55">2</tspan></text>
</g>
<g fill="none">
<g stroke="#a3a3a3">
<path d="m117.91 91.7-6.64 6.59m6.99-.23-6.59-6.64"/>
<path d="m108.27 117.13-6.64 6.59m6.99-.23-6.59-6.64"/>
<path d="m141.27 108.5-6.64 6.59m6.99-.23-6.59-6.64"/>
<path d="m129.49 41.28-6.64 6.59m6.99-.23-6.59-6.64"/>
<path d="m156.51 31.9-6.64 6.59m6.99-.23-6.59-6.64"/>
<path d="m133.07 17.9-6.64 6.59m6.99-.23-6.59-6.64"/>
<path d="m141.22 138.74-6.64 6.59m6.99-.23-6.59-6.64"/>
<path d="m69.3 119.14 12.72-12.9m-13.59 9.59 6.59-6.64m1.41 6.64 6.59-6.64"/>
<path d="m164.84 88.16-6.64 6.59m6.99-.23-6.59-6.64"/>
</g>
<g stroke="#000">
<path d="m180.11 173.08h-101.9l-64.91 39.32" stroke-linecap="round" stroke-width="7"/>
<path d="m166.4 163.08 15.96 9.43-16.25 10.62" stroke-linecap="round" stroke-width="7"/>
<path d="m140.04 213.21-94.04-60.72" stroke-dasharray="12 6" stroke-width="1.5"/>
<g transform="matrix(-.92 -.4 .4 -.92 176.91 285.89)">
<path d="m71.73 85.54c-2-9.75-1.87-19.82.37-29.52"/>
<path d="m68.64 60.48 3.52-4.83 1.31 5.95"/>
<path d="m73.95 79.87-1.94 5.69-4.41-4.32"/>
</g>
</g>
<g stroke="#a3a3a3">
<path d="m105.63 147.78-6.64 6.59m6.99-.23-6.59-6.64"/>
<path d="m168.02 117.83-6.64 6.59m6.99-.23-6.59-6.64"/>
<path d="m180.05 144.35-6.64 6.59m6.99-.23-6.59-6.64"/>
<path d="m58.6 153.47 12.72-12.9m-13.59 9.59 6.59-6.64m1.41 6.64 6.59-6.64"/>
<path d="m25.72 183.52 12.72-12.9m-13.59 9.59 6.59-6.64m1.41 6.64 6.59-6.64"/>
<path d="m50.47 211.09 12.72-12.9m-13.59 9.59 6.59-6.64m1.41 6.64 6.59-6.64"/>
<path d="m27.13 236.9 12.72-12.9m-13.59 9.59 6.59-6.64m1.41 6.64 6.59-6.64"/>
</g>
</g>
<g font-family="Times New Roman" font-style="italic">
<text font-size="20.4" x="9.5" y="92.88"><tspan x="9.5" y="92.88">(α&gt;0)</tspan></text>
<text font-size="39.74" x="145.27" y="210.02"><tspan x="145.27" y="210.02">α</tspan></text>
<text font-size="20.4" x="144.92" y="229.35"><tspan x="144.92" y="229.35">(α&lt;0)</tspan></text>
<text font-size="39.74" x="38.85" y="75.32"><tspan x="38.85" y="75.32">α</tspan></text>
</g>
<g fill="none" stroke="#a3a3a3">
<path d="m10.52 163.37 12.72-12.9m-13.59 9.59 6.59-6.64m1.41 6.64 6.59-6.64"/>
<path d="m92.56 195.24-6.64 6.59m6.99-.23-6.59-6.64"/>
<path d="m85.78 226.63-6.64 6.59m6.99-.23-6.59-6.64"/>
<path d="m116.34 216.5-6.64 6.59m6.99-.23-6.59-6.64"/>
<path d="m124.18 183.59-6.64 6.59m6.99-.23-6.59-6.64"/>
<path d="m179.51 47.4-6.64 6.59m6.99-.23-6.59-6.64"/>
<path d="m12.31 55.15 12.72-12.9m-13.59 9.59 6.59-6.64m1.41 6.64 6.59-6.64"/>
<path d="m135.34 234-6.64 6.59m6.99-.23-6.59-6.64"/>
</g>
</svg>
