<svg height="128" width="200" xmlns="http://www.w3.org/2000/svg">
  <g transform="translate(5.344357)">
    <g fill="none" stroke="#000">
      <path d="m65.937455 51-42.90909-25.545455" stroke-dasharray="12 6" stroke-width="1.5"/>
      <path d="m157.93745 79-42.90909-25.545455" stroke-dasharray="12 6" stroke-width="1.5"/>
      <path d="m175.27578 12.372315-57.00087 40.59047h-51.902756l-52.409798 33.322718" stroke-linecap="round" stroke-width="7"/>
      <path d="m161.78711 10.254167 18.37734-2.4739482-6.18576 18.4027392" stroke-linecap="round" stroke-width="7"/>
      <path d="m147.14093 38.697306c1.40768 9.853824.67526 19.895267-2.14737 29.440552"/>
      <path d="m148.71559 63.897385-3.80746 4.613479-.9511-6.02093"/>
      <path d="m144.57967 44.220598 2.2765-5.565401 4.13755 4.572975"/>
      <path d="m35.493898 66.186662c-1.998941-9.751081-1.872973-19.818427.369331-29.516438"/>
      <path d="m32.403462 41.127282 3.522538-4.834556 1.312212 5.952674"/>
      <path d="m37.717652 60.519054-1.936985 5.692485-4.405602-4.315316"/>
      <path d="m124.51527 98.593924-28.545457-22.909091" stroke-width="1.5"/>
      <path d="m97.424358 81.684833-1.818181-6.36364 7.454543 1.27273"/>
    </g>
    <text font-family="Times New Roman" font-size="10" font-style="italic" x="126.5129" y="107.21783"><tspan font-size="36" x="126.5129" y="107.21783">n</tspan></text>
    <path d="m86.0235 28.71195 12.7246-12.89862m-13.59092 9.59091 6.5909-6.63636m1.4091 6.63636 6.5909-6.63636" fill="none" stroke="#000"/>
    <path d="m104.0235 44.71195 12.7246-12.89862m-13.59092 9.59091 6.5909-6.63636m1.4091 6.63636 6.5909-6.63636" fill="none" stroke="#000"/>
    <path d="m80.0235 46.71195 12.7246-12.89862m-13.59092 9.59091 6.5909-6.63636m1.4091 6.63636 6.5909-6.63636" fill="none" stroke="#000"/>
    <path d="m90.0235 72.71195 12.7246-12.89862m-13.59092 9.59091 6.5909-6.63636m1.4091 6.63636 6.5909-6.63636" fill="none" stroke="#000"/>
    <path d="m66.0235 72.71195 12.7246-12.89862m-13.59092 9.59091 6.5909-6.63636m1.4091 6.63636 6.5909-6.63636" fill="none" stroke="#000"/>
    <path d="m66.0235 88.71195 12.7246-12.89862m-13.59092 9.59091 6.5909-6.63636m1.4091 6.63636 6.5909-6.63636" fill="none" stroke="#000"/>
    <text font-family="Times New Roman" font-size="10" font-style="italic" x="51.449429" y="125.77584"><tspan font-size="36" x="51.449429" y="125.77584">L</tspan></text>
    <path d="m77.748957 124.01936 6.376118-1.57657-2.651827-5.50366m-37.683518-10.93434-2.3979-5.9864 6.12219-1.09384" fill="none" stroke="#000"/>
    <path d="m56.060139 107.67466-14.414495-7.58221" fill="none" stroke="#000"/>
    <path d="m83.794326 122.22907-14.414494-7.58219" fill="none" stroke="#000"/>
    <text font-family="Times New Roman" font-size="8.135203" font-style="italic" transform="scale(.9624467 1.0390186)" x="155.7762" y="59.674786"><tspan font-size="29.286732" x="155.7762" y="59.674786">Θ</tspan></text>
    <text font-family="Times New Roman" font-size="5.282076" font-style="italic" transform="scale(.9466757 1.056328)" x="177.05728" y="64.805244"><tspan font-size="19.015472" x="177.05728" y="64.805244">b</tspan></text>
    <text font-family="Times New Roman" font-size="8.135203" font-style="italic" transform="scale(.9624467 1.0390186)" x="4.079647" y="53.900108"><tspan font-size="29.286732" x="4.079647" y="53.900108">Θ</tspan></text>
    <text font-family="Times New Roman" font-size="5.282076" font-style="italic" transform="scale(.9466757 1.056328)" x="22.833443" y="59.125198"><tspan font-size="19.015472" x="22.833443" y="59.125198">b</tspan></text>
    <path d="m82.371887-36.31982h48.194695v89.91497h-48.194695z" fill="none" stroke="#000" stroke-dashoffset="21.443998" stroke-linecap="round" stroke-width="3" transform="matrix(.8917891 .4524513 -.4524513 .8917891 0 0)"/>
    <path d="m95.004237 103.56373-11.190599 22.05686m-45.229507-21.80575 11.441681-22.551747" fill="none" stroke="#000" stroke-dashoffset="21.443998" stroke-linecap="round"/>
    <path d="m82.0235 96.71195 12.7246-12.89862m-13.59092 9.59091 6.5909-6.63636m1.4091 6.63636 6.5909-6.63636" fill="none" stroke="#000"/>
  </g>
</svg>
