<svg height="385" width="320" xmlns="http://www.w3.org/2000/svg" xmlns:xlink="http://www.w3.org/1999/xlink">
<linearGradient id="a" gradientTransform="matrix(1.11 0 0 1 65.1 1)" gradientUnits="userSpaceOnUse" x1="75.63" x2="75.63" y1="48.89" y2="206.11">
<stop offset="0" stop-color="#6a6a6a"/>
<stop offset=".5" stop-color="#f0f0f0"/>
<stop offset="1" stop-color="#6a6a6a"/>
</linearGradient>
<linearGradient id="b" gradientTransform="matrix(1.11 0 0 1 65.1 171)" gradientUnits="userSpaceOnUse" x1="75.63" x2="75.63" y1="48.89" y2="206.81">
<stop offset="0" stop-color="#f0f0f0"/>
<stop offset=".5" stop-color="#6a6a6a"/>
<stop offset="1" stop-color="#f0f0f0"/>
</linearGradient>
<path d="m86.83 220.5h130.34c5.31 4.09 12.72 16.41 3.93 31.25-13.21 22.29-2.5 25.88 2.71 41.28 6.39 18.92-17.85 32.36-3.31 55.15 12.1 18.96-6.53 26.36-3.33 29.32h-130.34c4.35-10.63 8.33-23.41.75-36.17-9.95-16.75 9.78-34.82 3.75-46.66-10.47-20.56-7.37-35.69-2.75-43.56 4.64-7.91 6.32-19.19-1.75-30.61z" fill="url(#b)"/>
<path d="m86.83 50.5h130.34c5.31 4.09 12.72 16.41 3.93 31.25-13.21 22.29-2.5 25.88 2.71 41.28 6.39 18.92-17.85 32.36-3.31 55.15 12.1 18.96-6.53 26.36-3.33 29.32h-130.34c4.35-10.63 8.33-23.41.75-36.17-9.95-16.75 9.78-34.82 3.75-46.66-10.47-20.56-7.37-35.69-2.75-43.56 4.64-7.91 6.32-19.19-1.75-30.61z" fill="url(#a)"/>
<g fill="none" stroke="#000" transform="translate(60)">
<path d="m-52.5 299h306.42" stroke-width="4"/>
<path d="m248 305 7-6-7-6" stroke-linecap="round" stroke-width="3"/>
<path d="m252.5 235.22.71-9.19-9.19.71" stroke-linecap="round" stroke-width="3"/>
<path d="m-52.5 280h122.8c80.53 0 134.87-14.59 181.62-51.99" stroke-width="4"/>
<path d="m27.5 220.5h129m0 157h-129" stroke-width="3"/>
</g>
<path d="m7.5 129h306.42" fill="none" stroke="#000" stroke-width="4"/>
<path d="m195.64 27.18 4.91 4.36-4.91 3.64m-87-8-4.91 4.18 4.91 3.82m-4.23-3.68h95.47" fill="none" stroke="#000"/>
<text font-family="'Times New Roman'" font-size="10" font-style="italic" x="143.25" y="26.99"><tspan font-size="36" x="143.25" y="26.99">L</tspan></text>
<g fill="none" stroke="#000" transform="translate(60)">
<path d="m-52.5 80.06h122.8c80.53 0 134.88 30.59 181.63 67.99" stroke-width="4"/>
<path d="m42.5 27.82v22.47m99-22.47v22.47"/>
<g stroke-linecap="round" stroke-width="3">
<path d="m248 135 7-6-7-6"/>
<path d="m252.5 117.22.71-9.19-9.19.71"/>
<path d="m252.5 140.8.71 9.19-9.19-.71"/>
</g>
</g>
<g font-family="'Times New Roman'" font-style="italic" transform="translate(73.6 -.29)">
<text font-size="10" x="64" y="115.02"><tspan font-size="36" x="64" y="115.02">n</tspan></text>
<text font-size="7.02" transform="scale(.99 1.01)" x="80.3" y="122.41"><tspan font-size="25.28" x="80.3" y="122.41">0</tspan></text>
</g>
<g fill="none" stroke="#000" transform="translate(60)">
<path d="m-52.5 178h122.8c80.53 0 134.87-30.59 181.62-67.99" stroke-width="4"/>
<path d="m27.5 50.5h129m0 157h-129" stroke-width="3"/>
<path d="m42.5 51.82v154.47m99-154.47v154.47" stroke-dasharray="3 3"/>
</g>
<g font-family="'Times New Roman'" font-style="italic" transform="translate(169.78 -40.54)">
<text font-size="10" x="64" y="115.02"><tspan font-size="36" x="64" y="115.02">n &gt;0</tspan></text>
<text font-size="7.02" transform="scale(.99 1.01)" x="80.3" y="122.41"><tspan font-size="25.28" x="80.3" y="122.41">2</tspan></text>
</g>
<g font-family="'Times New Roman'" font-style="italic" transform="translate(165.13 118.09)">
<text font-size="10" x="64" y="115.02"><tspan font-size="36" x="64" y="115.02">n &lt;0</tspan></text>
<text font-size="7.02" transform="scale(.99 1.01)" x="80.3" y="122.41"><tspan font-size="25.28" x="80.3" y="122.41">2</tspan></text>
</g>
<g fill="none" stroke="#000" transform="translate(60)">
<path d="m252.5 363.18.71 9.19-9.19-.71" stroke-linecap="round" stroke-width="3"/>
<path d="m-52.5 318.4h122.8c80.53 0 134.87 14.59 181.62 51.99" stroke-width="4"/>
</g>
<path d="m11.09 236.58s39.98 21.62 39.98 65.04-39.98 64.02-39.98 64.02" fill="none" stroke="#000" stroke-width="1.21"/>
<path d="m68.57 229.48 4.91 4.35-4.91 3.63m-57.22-3.63h61.45" fill="none" stroke="#6a6a6a" stroke-width=".98"/>
<path d="m7.08 226 4.35-4.91 3.63 4.91m-3.67 143.24v-147.47" fill="none" stroke="#6a6a6a" stroke-width=".98"/>
<path d="m51.41 64.59s-39.98 21.62-39.98 65.04 39.98 64.02 39.98 64.02" fill="none" stroke="#000" stroke-width="1.21"/>
<path d="m68.57 57.52 4.91 4.35-4.91 3.63m-57.22-3.67h61.45" fill="none" stroke="#6a6a6a" stroke-width=".98"/>
<path d="m7.08 54.01 4.35-4.91 3.63 4.91m-3.67 141.23v-145.47" fill="none" stroke="#6a6a6a" stroke-width=".98"/>
<path d="m96.69 344.14q1.74 0 2.95 1.47 1.21 1.47 1.21 4.61 0 2.72-.91 5.52-.91 2.83-2.49 4.88-1.28 1.63-2.68 2.34-.83.42-1.89.42-1.78 0-2.99-1.47-1.17-1.47-1.17-4.65 0-3.14 1.21-6.27 1.4-3.7 3.59-5.59 1.44-1.25 3.21-1.25zm0 .72q-.79 0-1.63.64-.79.6-1.66 2.57-.87 1.97-1.66 5.06-1.02 4.04-1.02 6.92 0 1.44.6 2.12.6.68 1.47.68.83 0 1.44-.53 1.59-1.47 2.68-5.03 1.81-5.82 1.81-9.49 0-1.51-.6-2.23-.6-.72-1.44-.72zm-26.57 8.54 14.7-6.39v1.17l-12.66 5.48 12.66 5.56v1.25l-14.7-6.42z" stroke-width=".98"/>
<g id="c" stroke-width=".3" transform="matrix(3.78 0 0 3.78 -24.59 -743.08)">
<path d="m16.44 234.96h.6l-.87 1.99q.06 1.12.39 1.12.11 0 .22-.12.1-.12.12-.3h.17q-.12.99-.57.99-.15 0-.29-.16-.13-.16-.23-1.14-.75 1.3-1.69 1.3-.53 0-.85-.36-.32-.36-.32-.97 0-.59.3-1.15.3-.56.74-.93.44-.38.98-.38.38 0 .6.24.22.24.3.73zm-.55 1.18q-.02-.3-.19-.67-.17-.37-.49-.37-.48 0-.97.92-.49.91-.49 1.61 0 .38.16.61.16.22.44.22.29 0 .53-.3.24-.31.66-1.25zm2.93 4.39h-1.82v-.1q1.39-1.24 1.84-1.95.21-.33.21-.69 0-.29-.17-.46-.17-.18-.45-.18-.38 0-.62.37l-.09-.04q.14-.35.4-.55.26-.2.57-.2.35 0 .58.24.24.24.24.59 0 .24-.08.45-.13.32-.48.72-.53.61-1.41 1.4h.92q.22 0 .36-.09.14-.09.2-.25h.11z" stroke-width=".3"/>
</g>
<path d="m27.72 233.98q.46 0 .78.39.32.39.32 1.22 0 .72-.24 1.46-.24.75-.66 1.29-.34.43-.71.62-.22.11-.5.11-.47 0-.79-.39-.31-.39-.31-1.23 0-.83.32-1.66.37-.98.95-1.48.38-.33.85-.33zm0 .19q-.21 0-.43.17-.21.16-.44.68-.23.52-.44 1.34-.27 1.07-.27 1.83 0 .38.16.56.16.18.39.18.22 0 .38-.14.42-.39.71-1.33.48-1.54.48-2.51 0-.4-.16-.59-.16-.19-.38-.19zm-3.14 2.46-3.89 1.69v-.31l3.35-1.45-3.35-1.47v-.33l3.89 1.7z" stroke-width=".26" transform="matrix(3.78 0 0 3.78 -24.59 -743.08)"/>
<g id="d" stroke-width=".26" transform="matrix(3.78 0 0 3.78 -8.08 -736.13)">
<path d="m11.29 206.35-.94 3.28q-.07.25-.07.3 0 .04.02.07.03.03.07.03.05 0 .11-.05.14-.11.3-.35l.08.09q-.26.37-.48.52-.16.1-.31.1-.1 0-.18-.07-.07-.07-.07-.17 0-.1.09-.41l.75-2.59q.09-.32.09-.36 0-.07-.05-.11-.05-.04-.16-.04-.06 0-.19.02v-.1z" stroke-width=".26"/>
<path d="m13.79 208.64q0 .41-.22.82-.22.41-.61.64-.39.24-.76.24-.38 0-.62-.24-.24-.24-.24-.63 0-.41.23-.81.23-.41.62-.64.39-.24.76-.24.36 0 .6.24.24.24.24.62zm-.46-.19q0-.26-.13-.39-.12-.14-.32-.14-.41 0-.75.58-.34.58-.34 1.15 0 .26.13.41.13.14.33.14.39 0 .73-.58.34-.58.34-1.17z" stroke-width=".26"/>
<path d="m16.05 207.78-.17.85h-.1q-.01-.37-.16-.54-.14-.17-.36-.17-.17 0-.27.09-.1.09-.1.23 0 .09.04.17.04.08.18.23.36.39.46.59.1.2.1.37 0 .29-.24.51-.24.22-.6.22-.2 0-.46-.09-.09-.03-.14-.03-.12 0-.19.13h-.1l.17-.89h.1q.02.42.17.59.16.17.43.17.21 0 .33-.12.12-.12.12-.29 0-.11-.04-.2-.08-.17-.33-.46-.25-.29-.32-.44-.07-.15-.07-.29 0-.27.19-.45.2-.18.5-.18.09 0 .16.01.04.01.18.06.14.05.19.05.12 0 .2-.13z" stroke-width=".26"/>
<path d="m18.24 207.78-.17.85h-.1q-.01-.37-.16-.54-.14-.17-.36-.17-.17 0-.27.09-.1.09-.1.23 0 .09.04.17.04.08.18.23.36.39.46.59.1.2.1.37 0 .29-.24.51-.24.22-.6.22-.2 0-.46-.09-.09-.03-.14-.03-.12 0-.19.13h-.1l.17-.89h.1q.02.42.17.59.16.17.43.17.21 0 .33-.12.12-.12.12-.29 0-.11-.04-.2-.08-.17-.33-.46-.25-.29-.32-.44-.07-.15-.07-.29 0-.27.19-.45.2-.18.5-.18.09 0 .16.01.04.01.18.06.14.05.19.05.12 0 .2-.13z" stroke-width=".26"/>
</g>
<use height="100%" transform="translate(0 172.34)" width="100%" xlink:href="#d"/>
<use height="100%" transform="translate(16.51 202.95)" width="100%" xlink:href="#c"/>
</svg>
