<svg height="200" width="200" xmlns="http://www.w3.org/2000/svg" xmlns:xlink="http://www.w3.org/1999/xlink">
<g fill="none">
<g stroke="#000">
<path d="m152.54 138.55-111.01-69.21" stroke-dasharray="12 6" stroke-width="1.5"/>
<path d="m156.51 102.31h-61.9l-64.91 39.32" stroke-linecap="round" stroke-width="7"/>
<path d="m142.6 92.61 16.14 9.13-16.05 10.93" stroke-linecap="round" stroke-width="7"/>
<path d="m63.73 115.54c-2-9.75-1.87-19.82.37-29.52"/>
<path d="m60.64 90.48 3.52-4.83 1.31 5.95"/>
<path d="m65.95 109.87-1.94 5.69-4.41-4.32"/>
</g>
<g stroke="#a3a3a3">
<path d="m99.75 54.47 12.72-12.9m-13.59 9.59 6.59-6.64m1.41 6.64 6.59-6.64"/>
<path d="m42.22 48.01 12.72-12.9m-13.59 9.59 6.59-6.64m1.41 6.64 6.59-6.64"/>
<path d="m82.87 84.06 12.72-12.9m-13.59 9.59 6.59-6.64m1.41 6.64 6.59-6.64"/>
<path d="m24.23 162.71 12.72-12.9m-13.59 9.59 6.59-6.64m1.41 6.64 6.59-6.64"/>
</g>
</g>
<path d="m52.6 92.4-1.83 6.42q.89-.93 1.55-1.27.67-.34 1.39-.34 1.02 0 1.67.68.65.68.65 1.84 0 1.5-.85 2.98-.85 1.48-2.15 2.3-1.29.83-2.54.83-1.4 0-2.88-1.05l2.82-9.72q.33-1.12.33-1.32 0-.24-.15-.36-.21-.17-.63-.17-.2 0-.59.07v-.35zm-3.59 12.48q.93.51 1.63.51.82 0 1.69-.59.88-.6 1.52-2.02.65-1.42.65-2.87 0-.85-.43-1.34-.42-.48-.99-.48-.86 0-1.69.7-.83.69-1.18 1.92zm-6.34-25.1q3.5 0 5.19 2.02 1.69 2.02 1.69 4.6 0 3.1-1.86 6.41-1.85 3.3-4.73 5.08-2.88 1.78-6.08 1.78-3.43 0-5.12-2.09-1.69-2.09-1.69-4.56 0-2.99 1.78-6.13 1.79-3.16 4.77-5.14 2.99-1.98 6.06-1.98zm-.36.9q-3.61 0-6.43 4.32-2.82 4.31-2.82 8.73 0 2.03 1.07 3.55 1.08 1.5 3.28 1.5 1.91 0 4.1-1.75 2.2-1.75 3.66-5.22 1.46-3.48 1.46-6.23 0-2.15-1.14-3.52-1.14-1.38-3.18-1.38zm-5.19 5.92h.53q-.14.52-.14.79 0 1.22 1.78 1.22h1.46q1.46 0 2.05-.39.61-.41 1.06-1.61h.53l-1.86 6.29h-.55q.19-.65.19-1 0-.66-.53-.94-.52-.29-2.01-.29h-.95q-1.27 0-1.92.53-.64.52-.98 1.7h-.53z" transform="scale(.95 1.06)"/>
<path d="m50.04 180.95 89.58-164.59" fill="none" stroke="#000" stroke-linecap="round" stroke-width="3"/>
<path id="a" d="m73.06 19.1-2.34 8q3.29-4.9 5.03-6.45 1.76-1.55 3.38-1.55.88 0 1.44.58.58.58.58 1.51 0 1.05-.51 2.81l-2.14 7.4q-.37 1.28-.37 1.56 0 .25.14.42.14.16.3.16.21 0 .51-.23.93-.74 2.04-2.25l.54.33q-1.63 2.34-3.09 3.34-1.02.69-1.83.69-.65 0-1.04-.4-.39-.39-.39-1.05 0-.84.6-2.9l2.04-7.07q.39-1.32.39-2.06 0-.35-.23-.56-.23-.23-.56-.23-.49 0-1.18.42-1.3.79-2.71 2.62-1.41 1.81-2.97 4.64-.83 1.49-1.37 3.27l-.88 2.9h-2.64l3.2-11q.56-1.99.56-2.39 0-.39-.32-.67-.3-.3-.76-.3-.21 0-.74.07l-.67.11-.11-.63z"/>
<path d="m90.04 27.76-2.93 10.21q-.26.9-.26 1.3 0 .34.23.52.24.17 1.09.24l-.09.34h-4.69l.13-.34q.75-.02.98-.12.38-.16.57-.44.3-.42.61-1.5l2.11-7.33q.19-.67.21-.77.03-.18.03-.36 0-.32-.17-.5-.17-.18-.47-.18-.24 0-.74.11l-.12-.33 3.07-.86z"/>
<path d="m175.71 43.26h-7.15v-.39q5.47-4.79 7.23-7.51.82-1.26.82-2.65 0-1.1-.68-1.79-.68-.7-1.76-.7-1.49 0-2.46 1.43l-.37-.17q.54-1.37 1.58-2.12 1.04-.76 2.25-.76 1.37 0 2.3.94.93.93.93 2.27 0 .93-.33 1.73-.51 1.24-1.88 2.78-2.08 2.35-5.54 5.41h3.6q.87 0 1.43-.36.56-.36.81-.96h.42z"/>
<g fill="none" stroke="#a3a3a3">
<path d="m102.13 117.11-6.64 6.59m6.99-.23-6.59-6.64"/>
<path d="m88.61 147.48-6.64 6.59m6.99-.23-6.59-6.64"/>
<path d="m141.76 143.45-6.64 6.59m6.99-.23-6.59-6.64"/>
<path d="m123.96 83.65-6.64 6.59m6.99-.23-6.59-6.64"/>
<path d="m147.45 73.92-6.64 6.59m6.99-.23-6.59-6.64"/>
<path d="m130.37 59.21-6.64 6.59m6.99-.23-6.59-6.64"/>
<path d="m151.25 48.53-6.64 6.59m6.99-.23-6.59-6.64"/>
<path d="m52.06 148.55 12.72-12.9m-13.59 9.59 6.59-6.64m1.41 6.64 6.59-6.64"/>
<path d="m152.95 119.93-6.64 6.59m6.99-.23-6.59-6.64"/>
<path d="m35.19 177.5 12.72-12.9m-13.59 9.59 6.59-6.64m1.41 6.64 6.59-6.64"/>
<path d="m103.56 28.62 12.72-12.9m-13.59 9.59 6.59-6.64m1.41 6.64 6.59-6.64"/>
<path d="m26.13 29.02 12.72-12.9m-13.59 9.59 6.59-6.64m1.41 6.64 6.59-6.64"/>
<path d="m170.33 60.36-6.64 6.59m6.99-.23-6.59-6.64"/>
<path d="m169.91 86.63-6.64 6.59m6.99-.23-6.59-6.64"/>
<path d="m110.22 136.89-6.64 6.59m6.99-.23-6.59-6.64"/>
<path d="m112.76 160.19-6.64 6.59m6.99-.23-6.59-6.64"/>
<path d="m146.84 162.51-6.64 6.59m6.99-.23-6.59-6.64"/>
<path d="m83.71 170.14-6.64 6.59m6.99-.23-6.59-6.64"/>
<path d="m171 126.07-6.64 6.59m6.99-.23-6.59-6.64"/>
<path d="m168.88 152.77-6.64 6.59m6.99-.23-6.59-6.64"/>
<path d="m68.87 66.06 12.72-12.9m-13.59 9.59 6.59-6.64m1.41 6.64 6.59-6.64"/>
<path d="m24.63 73.27 12.72-12.9m-13.59 9.59 6.59-6.64m1.41 6.64 6.59-6.64"/>
<path d="m24.58 127 12.72-12.9m-13.59 9.59 6.59-6.64m1.41 6.64 6.59-6.64"/>
</g>
<use transform="translate(88.04 1.13)" xlink:href="#a"/>
</svg>
