<svg height="200" width="200" xmlns="http://www.w3.org/2000/svg">
<g fill="none">
<g stroke="#000">
<path d="m152.54 138.55-111.01-69.21" stroke-dasharray="12 6" stroke-width="1.5"/>
<path d="m156.51 102.31h-61.9l-64.91 39.32" stroke-linecap="round" stroke-width="7"/>
<path d="m142.6 92.61 16.14 9.13-16.05 10.93" stroke-linecap="round" stroke-width="7"/>
<path d="m63.73 115.54c-2-9.75-1.87-19.82.37-29.52"/>
<path d="m60.64 90.48 3.52-4.83 1.31 5.95"/>
<path d="m65.95 109.87-1.94 5.69-4.41-4.32"/>
</g>
<g stroke="#a3a3a3">
<path d="m99.75 54.47 12.72-12.9m-13.59 9.59 6.59-6.64m1.41 6.64 6.59-6.64"/>
<path d="m42.22 48.01 12.72-12.9m-13.59 9.59 6.59-6.64m1.41 6.64 6.59-6.64"/>
<path d="m82.87 84.06 12.72-12.9m-13.59 9.59 6.59-6.64m1.41 6.64 6.59-6.64"/>
<path d="m24.23 162.71 12.72-12.9m-13.59 9.59 6.59-6.64m1.41 6.64 6.59-6.64"/>
</g>
</g>
<text font-family="Times New Roman" font-size="8.14" font-style="italic" transform="scale(.96 1.04)" x="27.96" y="101.16"><tspan font-size="29.29" x="27.96" y="101.16">Θ</tspan></text>
<text font-family="Times New Roman" font-size="5.28" font-style="italic" transform="scale(.95 1.06)" x="47.11" y="105.61"><tspan font-size="19.02" x="47.11" y="105.61">b</tspan></text>
<path d="m50.04 180.95 89.58-164.59" fill="none" stroke="#000" stroke-linecap="round" stroke-width="3"/>
<g font-family="Times New Roman" font-style="italic" transform="translate(-8.85 -24.58)">
<text font-size="10" x="73.96" y="59.59"><tspan font-size="36" x="73.96" y="59.59">n</tspan></text>
<text font-size="5.18" x="91.1" y="64.95"><tspan font-size="18.66" x="91.1" y="64.95">1</tspan></text>
</g>
<g font-family="Times New Roman" font-style="italic" transform="translate(46.66 -112.29)">
<text font-size="10" x="106.49" y="148.43"><tspan font-size="36" x="106.49" y="148.43">n</tspan></text>
<text font-size="6.03" x="121.56" y="155.55"><tspan font-size="21.7" x="121.56" y="155.55">2</tspan></text>
</g>
<g fill="none" stroke="#a3a3a3">
<path d="m102.13 117.11-6.64 6.59m6.99-.23-6.59-6.64"/>
<path d="m88.61 147.48-6.64 6.59m6.99-.23-6.59-6.64"/>
<path d="m141.76 143.45-6.64 6.59m6.99-.23-6.59-6.64"/>
<path d="m123.96 83.65-6.64 6.59m6.99-.23-6.59-6.64"/>
<path d="m147.45 73.92-6.64 6.59m6.99-.23-6.59-6.64"/>
<path d="m130.37 59.21-6.64 6.59m6.99-.23-6.59-6.64"/>
<path d="m151.25 48.53-6.64 6.59m6.99-.23-6.59-6.64"/>
<path d="m52.06 148.55 12.72-12.9m-13.59 9.59 6.59-6.64m1.41 6.64 6.59-6.64"/>
<path d="m152.95 119.93-6.64 6.59m6.99-.23-6.59-6.64"/>
<path d="m35.19 177.5 12.72-12.9m-13.59 9.59 6.59-6.64m1.41 6.64 6.59-6.64"/>
<path d="m103.56 28.62 12.72-12.9m-13.59 9.59 6.59-6.64m1.41 6.64 6.59-6.64"/>
<path d="m26.13 29.02 12.72-12.9m-13.59 9.59 6.59-6.64m1.41 6.64 6.59-6.64"/>
<path d="m170.33 60.36-6.64 6.59m6.99-.23-6.59-6.64"/>
<path d="m169.91 86.63-6.64 6.59m6.99-.23-6.59-6.64"/>
<path d="m110.22 136.89-6.64 6.59m6.99-.23-6.59-6.64"/>
<path d="m112.76 160.19-6.64 6.59m6.99-.23-6.59-6.64"/>
<path d="m146.84 162.51-6.64 6.59m6.99-.23-6.59-6.64"/>
<path d="m83.71 170.14-6.64 6.59m6.99-.23-6.59-6.64"/>
<path d="m171 126.07-6.64 6.59m6.99-.23-6.59-6.64"/>
<path d="m168.88 152.77-6.64 6.59m6.99-.23-6.59-6.64"/>
<path d="m68.87 66.06 12.72-12.9m-13.59 9.59 6.59-6.64m1.41 6.64 6.59-6.64"/>
<path d="m24.63 73.27 12.72-12.9m-13.59 9.59 6.59-6.64m1.41 6.64 6.59-6.64"/>
<path d="m24.58 127 12.72-12.9m-13.59 9.59 6.59-6.64m1.41 6.64 6.59-6.64"/>
</g>
</svg>
