<svg height="24" width="24" xmlns="http://www.w3.org/2000/svg" xmlns:xlink="http://www.w3.org/1999/xlink">
<linearGradient id="a" gradientTransform="matrix(.67 0 0 .75 1.5 3.5)" gradientUnits="userSpaceOnUse" spreadMethod="pad" x1="12" x2="12" y1="0" y2="24">
<stop offset="0" stop-color="#dbf6ff"/>
<stop offset="1" stop-color="#7ddcfd"/>
</linearGradient>
<path d="m-1.11 12.52 21.63.03" fill="none" stroke="#f00" stroke-linecap="round" stroke-width="3"/>
<path d="m1.5 3.5h16v18h-16z" fill="url(#a)" stroke="#00b4ff" stroke-linecap="round"/>
<path d="m6.5 3v19" fill="none" opacity=".5" stroke="#00b4ff"/>
<path d="m24 12.5-5-4.5v9z" fill="#f00" fill-rule="evenodd"/>
<path d="m17 14.5h-15" fill="none" opacity=".5" stroke="#00b4ff"/>
<path d="m12.69 9.8c-.77 2.44-1.07 5.21-2.22 7.45-.75 1.46-2.2 2.33-3.38 2.34-.46.01-.89-.09-1.12-.33-.5-.51-.43-1.05-.12-1.32.45-.38 1.04-.26 1.37.02.35.3.31.79.02 1.1.13.18.43.02.56-.06 1.2-.76 2.02-6.08 2.83-9.22h-2.19l.26-.96h2.17c.65-1.49 1.24-2.35 2.2-3.21.65-.47 1.38-.71 2.18-.71.97.01 1.47.37 1.56 1.07.08.65-.48.9-.9.9-.57 0-.75-.37-.76-.67-.01-.33.3-.62.29-.74-.01-.14-.13-.2-.22-.2-.31-.01-.64.19-.97.58-.54.63-.98 1.62-1.31 2.98h2.08l-.28.98z" fill-opacity=".82" transform="matrix(.98 0 -.08 1.02 0 0)"/>
</svg>
