<?xml version="1.0" encoding="UTF-8" standalone="no"?>
<svg
   xmlns:dc="http://purl.org/dc/elements/1.1/"
   xmlns:cc="http://creativecommons.org/ns#"
   xmlns:rdf="http://www.w3.org/1999/02/22-rdf-syntax-ns#"
   xmlns:svg="http://www.w3.org/2000/svg"
   xmlns="http://www.w3.org/2000/svg"
   xmlns:xlink="http://www.w3.org/1999/xlink"
   version="1.0"
   id="svg11119"
   height="24"
   width="24">
  <defs
     id="defs11121">
    <linearGradient
       id="linearGradient3261">
      <stop
         id="stop3263"
         offset="0"
         style="stop-color:#dbf6ff;stop-opacity:1;" />
      <stop
         id="stop3265"
         offset="1"
         style="stop-color:#7ddcfd;stop-opacity:1;" />
    </linearGradient>
    <marker
       style="overflow:visible;"
       id="Arrow1Lend"
       refX="0.0"
       refY="0.0"
       orient="auto">
      <path
         transform="scale(0.8) rotate(180) translate(12.5,0)"
         style="fill-rule:evenodd;stroke:#000000;stroke-width:1.0pt;marker-start:none;"
         d="M 0.0,0.0 L 5.0,-5.0 L -12.5,0.0 L 5.0,5.0 L 0.0,0.0 z "
         id="path7033" />
    </marker>
    <linearGradient
       gradientTransform="matrix(1,0,0,1.0222222,-2.2560967e-2,-0.2666666)"
       gradientUnits="userSpaceOnUse"
       y2="23"
       x2="4.8921361"
       y1="1.0419451"
       x1="15.913273"
       id="linearGradient9130"
       xlink:href="#linearGradient3261" />
  </defs>
  <metadata
     id="metadata11124">
    <rdf:RDF>
      <cc:Work
         rdf:about="">
        <dc:format>image/svg+xml</dc:format>
        <dc:type
           rdf:resource="http://purl.org/dc/dcmitype/StillImage" />
        <dc:title></dc:title>
      </cc:Work>
    </rdf:RDF>
  </metadata>
  <g
     id="layer1">
    <path
       style="fill:url(#linearGradient9130);fill-opacity:1;fill-rule:evenodd;stroke:#00b4ff;stroke-width:1;stroke-linecap:round;stroke-linejoin:miter;stroke-miterlimit:4;stroke-dasharray:none;stroke-dashoffset:0;stroke-opacity:1"
       d="M 12.123741,0.5000005 L 19.760288,0.50000007 L 8.8144806,23.500001 L 1.2229836,23.500001 L 12.123741,0.5000005 z"
       id="path19877" />
    <path
       id="path13067"
       d="M -0.063709621,10.501252 L 7.0892607,10.501252 L 13.414357,14.495543 L 22.439114,14.495543"
       style="fill:none;fill-rule:evenodd;stroke:#ff0000;stroke-width:3;stroke-linecap:round;stroke-linejoin:miter;marker-end:none;stroke-miterlimit:4;stroke-dasharray:none;stroke-opacity:1" />
    <path
       id="path14040"
       d="M 18.49032,10.53871 L 22.49032,14.487499 L 18.458465,18.5"
       style="fill:none;fill-rule:evenodd;stroke:#ff0000;stroke-width:3;stroke-linecap:round;stroke-linejoin:round;stroke-miterlimit:4;stroke-dasharray:none;stroke-opacity:1" />
    <path
       d="M 10.579829,7.3310492 L 14.089507,3.9806467 L 14.089507,3.9806467 M 12.57983,8.3310492 L 16.089507,4.9806467"
       style="fill:none;fill-rule:evenodd;stroke:#00b4ff;stroke-width:0.6;stroke-linecap:round;stroke-linejoin:miter;stroke-opacity:1;stroke-miterlimit:4;stroke-dasharray:none"
       id="path3259" />
    <path
       id="path9133"
       style="fill:none;fill-rule:evenodd;stroke:#00b4ff;stroke-width:0.69999999;stroke-linecap:round;stroke-linejoin:miter;stroke-miterlimit:4;stroke-dasharray:none;stroke-opacity:1"
       d="M 4.4524098,20.216124 L 7.9620878,16.865722 L 7.9620878,16.865722 M 6.4524108,21.216124 L 9.9620874,17.865722" />
    <path
       id="path9850"
       d="M 7.0722937,12.276492 L 8.3896033,9.5450931 L 13.399087,12.703742 L 12.115564,15.459183 L 7.0722937,12.276492 z"
       style="fill:#da9999;fill-rule:evenodd;stroke:none;stroke-width:1px;stroke-linecap:butt;stroke-linejoin:miter;stroke-opacity:1;fill-opacity:1;opacity:1" />
    <g
       id="text9857"
       style="font-style:normal;font-variant:normal;font-weight:normal;font-stretch:normal;font-size:10.64055061px;line-height:125%;font-family:Calibri;-inkscape-font-specification:Calibri;text-align:start;writing-mode:lr-tb;text-anchor:start;fill:#000000;fill-opacity:1;stroke:none;stroke-width:1px;stroke-linecap:butt;stroke-linejoin:miter;stroke-opacity:1"
       transform="scale(0.9907912,1.0092943)">
      <path
         id="path4156"
         style=""
         d="m 2.8494335,3.2470336 3.6680805,0 0,0.8832488 -3.6680805,0 0,-0.8832488 z M 4.6886693,0.77393689 q -1.1430279,0 -1.8132579,0.85207531 -0.6754255,0.8520754 -0.6754255,2.3224249 0,1.4651539 0.67023,2.3172293 0.6754255,0.8520753 1.8184534,0.8520753 1.1430279,0 1.8132579,-0.8520753 0.6650344,-0.8520754 0.6650344,-2.3172293 0,-1.4703495 -0.6650344,-2.3224249 -0.67023,-0.85207531 -1.8132579,-0.85207531 z m 0,-0.85207535 q 1.6314126,0 2.6081819,1.09626766 0.9767693,1.0910721 0.9767693,2.9303079 0,1.8340402 -0.9767693,2.9251123 -0.9767693,1.0962677 -2.6081819,1.0962677 -1.6366081,0 -2.6133774,-1.0910721 Q 1.093327,5.7876729 1.093327,3.9484371 q 0,-1.8392358 0.9819649,-2.9355035 0.9767693,-1.09107206 2.6133774,-1.09107206 z" />
    </g>
  </g>
</svg>
