<svg height="272" width="205" xmlns="http://www.w3.org/2000/svg" xmlns:xlink="http://www.w3.org/1999/xlink">
<g stroke="#000">
<g fill="none">
<path d="m15.41 167.66 82.22 25.3" stroke-dasharray="6 6"/>
<path d="m16.23 44.6 85.4 26.36" stroke-dasharray="8 8"/>
<g stroke-width="7">
<path d="m12.1 195h106.69"/>
<path d="m12.92 73h109.87"/>
</g>
</g>
<path d="m66.63 47.55c11.76 15.34 10.95 62.16-.81 81.07m-9.91-81.29 71.92-38.04h8.93c11.76 15.34 11.76 62.68 0 81.59l-71.39 38.22-9.01-.1z" fill="#7f7f7f" fill-opacity=".74" stroke-width="3.57"/>
<path d="m56.36 47.4 11.28.11 69.83-37.63" fill="none" stroke-width="3.57"/>
<g stroke-width="3.74">
<path d="m55.99 169.19 75.22-39.79h17.93c-12.14 20.67-11.7 63.14.22 85.34l-74.67 39.97-18.23-.1z" fill="#7f7f7f" fill-opacity=".74"/>
<g fill="none">
<path d="m56.46 169.27h17.93c-12.14 20.67-11.7 63.14.22 85.34"/>
<path d="m73.83 169.73 75.22-40.49"/>
</g>
</g>
</g>
<path d="m106.35 69.5c.08 2.21.45 4.16-.74 6.91l75.83.09v-7z" fill-rule="evenodd"/>
<path d="m101.82 191.5c-1.07 2.12-.96 4.07-.21 6.91l83.83.09v-7z" fill-rule="evenodd"/>
<g fill="none" stroke="#000">
<path d="m106.01 73.19s78.61 23.26 78.61 23.26" stroke-dasharray="6 6"/>
<path d="m102.01 197.19 79.11 24.76" stroke-dasharray="8 8"/>
<path d="m28.41 81.2a66.21 62.5 0 0 1 1.79-18.61" transform="translate(0 -12.53)"/>
<path d="m25.58 64.64 2.83 4.07 2.74-3.89"/>
<path d="m26.9 53.42 3.27-3.27 1.5 4.07"/>
<path d="m28.41 81.2a66.21 62.5 0 0 1 1.79-18.61" transform="translate(-6 109.38)"/>
<path d="m19.58 186.55 2.83 4.07 2.74-3.89"/>
<path d="m20.9 175.32 3.27-3.27 1.5 4.07"/>
<g stroke-linecap="round" stroke-width="7">
<path d="m163 60.25 19.5 13-19.75 11.25"/>
<path d="m167 182.25 19.5 13-19.75 11.25"/>
</g>
</g>
<path id="a" d="m149.02 101.25-2.19 7.34h2.43c1.09 0 1.91-.17 2.45-.51.55-.34 1.11-1.06 1.68-2.16h.52l-1.93 6.75h-.55c.14-.55.21-1 .21-1.35 0-.56-.19-.98-.56-1.29-.36-.31-1.05-.46-2.06-.46h-2.46l-1.61 5.59c-.29.99-.44 1.65-.44 1.98 0 .34.12.6.37.78.26.18.87.31 1.85.37l-.18.51h-7.33l.18-.51c.71-.02 1.18-.08 1.42-.19.36-.15.63-.36.81-.63.25-.37.54-1.14.88-2.31l3.27-11.17c.26-.9.4-1.61.4-2.12 0-.24-.06-.44-.18-.6-.12-.17-.3-.3-.53-.38s-.69-.12-1.38-.12l.16-.51h14.38l-1.37 4.69h-.52c.1-.57.15-1.03.15-1.39 0-.6-.17-1.08-.51-1.42-.33-.36-.75-.61-1.27-.75-.36-.09-1.18-.14-2.45-.14zm36.57-1.37c1.17 0 2.15.49 2.94 1.46.8.98 1.2 2.52 1.2 4.62 0 1.8-.3 3.65-.89 5.52-.59 1.88-1.43 3.5-2.5 4.88-.86 1.08-1.75 1.87-2.69 2.35-.55.27-1.18.41-1.9.41-1.18 0-2.18-.49-2.98-1.46-.79-.98-1.19-2.52-1.19-4.63 0-2.09.4-4.18 1.2-6.29.94-2.46 2.14-4.33 3.6-5.61.96-.84 2.03-1.26 3.21-1.26zm.01.71c-.53 0-1.07.21-1.61.63-.54.41-1.1 1.27-1.68 2.58-.57 1.31-1.13 3-1.65 5.07-.68 2.71-1.03 5.01-1.03 6.92 0 .95.21 1.66.62 2.13.41.46.91.7 1.49.7.56 0 1.03-.18 1.42-.55 1.05-.98 1.95-2.67 2.69-5.04 1.21-3.89 1.82-7.05 1.82-9.49 0-1.01-.21-1.75-.62-2.23s-.89-.72-1.45-.72z"/>
<path id="b" d="m19.02 51.98h2.02l-2.93 6.69q.21 3.76 1.3 3.76.38 0 .72-.4.34-.41.41-1.01h.56q-.41 3.34-1.9 3.34-.52 0-.96-.55-.44-.55-.77-3.83-2.52 4.38-5.66 4.38-1.76 0-2.84-1.22-1.08-1.22-1.08-3.25 0-1.98 1-3.84 1-1.87 2.49-3.13 1.49-1.26 3.29-1.26 1.29 0 2.01.79.74.79 1.01 2.46zm-1.83 3.96q-.07-1-.63-2.24-.56-1.24-1.65-1.24-1.6 0-3.24 3.08-1.63 3.06-1.63 5.4 0 1.29.53 2.04.55.75 1.49.75.98 0 1.78-1.01.79-1.03 2.2-4.2z"/>
<path id="c" d="m173.78 109.87-14.71 6.37v-1.18l12.67-5.5-12.67-5.55v-1.24l14.71 6.43z"/>
<use transform="translate(0 132)" xlink:href="#a"/>
<use transform="matrix(-1 0 0 1 332.84 132)" xlink:href="#c"/>
<use transform="translate(-4 124)" xlink:href="#b"/>
</svg>
