<svg height="128" width="200" xmlns="http://www.w3.org/2000/svg" xmlns:xlink="http://www.w3.org/1999/xlink">
<g fill="none" stroke="#000" transform="translate(5.34)">
<path d="m65.94 51-42.91-25.55" stroke-dasharray="12 6" stroke-width="1.5"/>
<path d="m157.94 79-42.91-25.55" stroke-dasharray="12 6" stroke-width="1.5"/>
<path d="m175.28 12.37-57 40.59h-51.9l-52.41 33.32" stroke-linecap="round" stroke-width="7"/>
<path d="m161.79 10.25 18.38-2.47-6.19 18.4" stroke-linecap="round" stroke-width="7"/>
<path d="m147.14 38.7c1.41 9.85.68 19.9-2.15 29.44"/>
<path d="m148.72 63.9-3.81 4.61-.95-6.02"/>
<path d="m144.58 44.22 2.28-5.57 4.14 4.57"/>
<path d="m35.49 66.19c-2-9.75-1.87-19.82.37-29.52"/>
<path d="m32.4 41.13 3.52-4.83 1.31 5.95"/>
<path d="m37.72 60.52-1.94 5.69-4.41-4.32"/>
<path d="m124.52 98.59-28.55-22.91" stroke-width="1.5"/>
<path d="m97.42 81.68-1.82-6.36 7.45 1.27"/>
</g>
<path d="m139.8 91.31-2.34 8q3.29-4.9 5.03-6.45 1.76-1.55 3.38-1.55.88 0 1.44.58.58.58.58 1.51 0 1.05-.51 2.81l-2.14 7.4q-.37 1.28-.37 1.56 0 .25.14.42.14.16.3.16.21 0 .51-.23.93-.74 2.04-2.25l.54.33q-1.63 2.34-3.09 3.34-1.02.69-1.83.69-.65 0-1.04-.4-.39-.39-.39-1.05 0-.84.6-2.9l2.04-7.07q.39-1.32.39-2.06 0-.35-.23-.56-.23-.23-.56-.23-.49 0-1.18.42-1.3.79-2.71 2.62-1.41 1.81-2.97 4.64-.83 1.49-1.37 3.27l-.88 2.9h-2.64l3.2-11q.56-1.99.56-2.39 0-.39-.32-.67-.3-.3-.76-.3-.21 0-.74.07l-.67.11-.11-.63z"/>
<g fill="none" stroke="#000" transform="translate(5.34)">
<path d="m86.02 28.71 12.72-12.9m-13.59 9.59 6.59-6.64m1.41 6.64 6.59-6.64"/>
<path d="m104.02 44.71 12.72-12.9m-13.59 9.59 6.59-6.64m1.41 6.64 6.59-6.64"/>
<path d="m80.02 46.71 12.72-12.9m-13.59 9.59 6.59-6.64m1.41 6.64 6.59-6.64"/>
<path d="m90.02 72.71 12.72-12.9m-13.59 9.59 6.59-6.64m1.41 6.64 6.59-6.64"/>
<path d="m66.02 72.71 12.72-12.9m-13.59 9.59 6.59-6.64m1.41 6.64 6.59-6.64"/>
<path d="m66.02 88.71 12.72-12.9m-13.59 9.59 6.59-6.64m1.41 6.64 6.59-6.64"/>
</g>
<path d="m73.3 125.78h-17.67l.25-.65q1.41-.04 1.88-.23.74-.32 1.09-.83.54-.81 1.16-2.92l4.2-14.49q.53-1.79.53-2.64 0-.67-.49-1.04-.47-.37-1.81-.37-.3 0-.47-.02l.21-.65h9.72l-.14.65q-1.63 0-2.32.32-.69.32-1.14 1.04-.32.47-1.04 2.95l-4.13 14.26q-.47 1.62-.47 2.25 0 .42.47.81.3.26 1.35.26h2.3q2.51 0 3.99-.63 1.09-.47 2-1.42.49-.53 1.74-2.62l.46-.79h.65z"/>
<g fill="none" stroke="#000" transform="translate(5.34)">
<path d="m77.75 124.02 6.38-1.58-2.65-5.5m-37.68-10.93-2.4-5.99 6.12-1.09"/>
<path d="m56.06 107.67-14.41-7.58"/>
<path d="m83.79 122.23-14.41-7.58"/>
</g>
<path id="a" d="m34.06 46.08-1.84 6.44q.89-.93 1.56-1.28.67-.34 1.4-.34 1.03 0 1.68.68.65.68.65 1.85 0 1.5-.86 2.99-.86 1.48-2.15 2.31-1.3.83-2.55.83-1.41 0-2.89-1.05l2.83-9.76q.33-1.13.33-1.32 0-.24-.15-.36-.21-.17-.63-.17-.2 0-.6.07v-.36zm-3.61 12.53q.93.51 1.64.51.82 0 1.7-.6.89-.61 1.53-2.03.65-1.43.65-2.88 0-.86-.43-1.34-.42-.48-1-.48-.87 0-1.7.7-.83.69-1.18 1.93zm-6.21-25.07q3.51 0 5.21 2.03 1.7 2.03 1.7 4.62 0 3.11-1.87 6.43-1.86 3.31-4.74 5.1-2.89 1.79-6.11 1.79-3.44 0-5.13-2.1-1.7-2.1-1.7-4.58 0-3 1.78-6.15 1.8-3.17 4.79-5.15 3-1.99 6.08-1.99zm-.36.9q-3.63 0-6.45 4.34-2.83 4.32-2.83 8.76 0 2.04 1.07 3.56 1.09 1.51 3.29 1.51 1.91 0 4.12-1.76 2.2-1.76 3.67-5.24 1.46-3.49 1.46-6.25 0-2.15-1.15-3.53-1.15-1.38-3.19-1.38zm-5.21 5.94h.54q-.15.52-.15.79 0 1.23 1.78 1.23h1.46q1.46 0 2.06-.39.61-.41 1.06-1.62h.54l-1.87 6.31h-.55q.19-.65.19-1 0-.66-.54-.94-.52-.3-2.02-.3h-.96q-1.28 0-1.93.54-.64.52-.99 1.7h-.54z" transform="scale(.95 1.06)"/>
<g fill="none" stroke="#000">
<path d="m94.99 4.74 42.89 21.69-40.46 80.02-42.89-21.69z" stroke-dashoffset="21.44" stroke-linecap="round" stroke-width="2.99"/>
<path d="m100.04 103.56-11.19 22.06m-44.93-21.81 11.44-22.55" stroke-dashoffset="21.44" stroke-linecap="round"/>
<path d="m87.36 96.71 12.72-12.9m-13.59 9.59 6.59-6.64m1.41 6.64 6.59-6.64"/>
</g>
<use transform="translate(146.52 6.02)" xlink:href="#a"/>
</svg>
