<svg height="250" width="200" xmlns="http://www.w3.org/2000/svg" xmlns:xlink="http://www.w3.org/1999/xlink">
  <g fill="none">
    <g stroke="#a3a3a3">
      <path d="m87.76 149.21 12.72-12.9m-13.59 9.59 6.59-6.64m1.41 6.64 6.59-6.64"/>
      <path d="m28.22 22.25 12.72-12.9m-13.59 9.59 6.59-6.64m1.41 6.64 6.59-6.64"/>
      <path d="m56.69 86.58 12.72-12.9m-13.59 9.59 6.59-6.64m1.41 6.64 6.59-6.64"/>
      <path d="m70.15 20.79 12.72-12.9m-13.59 9.59 6.59-6.64m1.41 6.64 6.59-6.64"/>
    </g>
    <path d="m20.5 63.36h150.42" stroke="#000" stroke-width="7"/>
    <path d="m156.82 46.78 18.18 16.73-17.82 16.36" stroke="#000" stroke-linecap="round" stroke-width="7"/>
    <g stroke="#a3a3a3">
      <path d="m133.12 80.67-6.64 6.59m6.99-.23-6.59-6.64"/>
      <path d="m21.51 100.21 12.72-12.9m-13.59 9.59 6.59-6.64m1.41 6.64 6.59-6.64"/>
      <path d="m106.37 79.68-6.64 6.59m6.99-.23-6.59-6.64"/>
      <path d="m175.58 31.97-6.64 6.59m6.99-.23-6.59-6.64"/>
      <path d="m99.87 44.72-6.64 6.59m6.99-.23-6.59-6.64"/>
      <path d="m168.37 7.42-6.64 6.59m6.99-.23-6.59-6.64"/>
      <path d="m110.87 18.42-6.64 6.59m6.99-.23-6.59-6.64"/>
      <path d="m121.16 114.51-6.64 6.59m6.99-.23-6.59-6.64"/>
      <path d="m132.62 44.42-6.64 6.59m6.99-.23-6.59-6.64"/>
      <path d="m174.54 82.73-6.64 6.59m6.99-.23-6.59-6.64"/>
    </g>
  </g>
  <path id="a" d="m52.47 117.06-2.34 8q3.29-4.9 5.03-6.45 1.76-1.55 3.38-1.55.88 0 1.44.58.58.58.58 1.51 0 1.05-.51 2.81l-2.14 7.4q-.37 1.28-.37 1.56 0 .25.14.42.14.16.3.16.21 0 .51-.23.93-.74 2.04-2.25l.54.33q-1.63 2.34-3.09 3.34-1.02.69-1.83.69-.65 0-1.04-.4-.39-.39-.39-1.05 0-.84.6-2.9l2.04-7.07q.39-1.32.39-2.06 0-.35-.23-.56-.23-.23-.56-.23-.49 0-1.18.42-1.3.79-2.71 2.62-1.41 1.81-2.97 4.64-.83 1.49-1.37 3.27l-.89 2.91h-2.64l3.2-11q.56-1.99.56-2.39 0-.39-.32-.67-.3-.3-.76-.3-.21 0-.74.07l-.67.11-.11-.63z"/>
  <path d="m69.46 125.73-2.93 10.21q-.26.9-.26 1.3 0 .34.23.52.24.17 1.09.24l-.09.34h-4.69l.13-.34q.75-.02.98-.12.38-.16.57-.44.3-.42.61-1.5l2.11-7.33q.19-.67.21-.77.03-.18.03-.36 0-.32-.17-.5-.17-.18-.47-.18-.24 0-.74.11l-.12-.33 3.07-.86z"/>
  <path d="m157.7 140.08h-7.15v-.39q5.47-4.79 7.23-7.51.82-1.26.82-2.65 0-1.1-.68-1.79-.68-.7-1.76-.7-1.49 0-2.46 1.43l-.37-.17q.54-1.37 1.58-2.12 1.04-.76 2.25-.76 1.37 0 2.3.94.93.93.93 2.27 0 .93-.33 1.73-.51 1.24-1.88 2.78-2.08 2.35-5.54 5.41h3.6q.87 0 1.43-.36.56-.36.81-.96h.42z"/>
  <g fill="none">
    <path d="m71.46 125.03 12.72-12.9m-13.59 9.59 6.59-6.64m1.41 6.64 6.59-6.64" stroke="#a3a3a3"/>
    <path d="m21.69 134.81 12.72-12.9m-13.59 9.59 6.59-6.64m1.41 6.64 6.59-6.64" stroke="#a3a3a3"/>
    <g stroke="#000">
      <path d="m104.77 122.68c-14.43-15.42-23.27-36.14-23.27-58.93 0-23.06 9.05-44 23.79-59.48" stroke-linecap="round" stroke-linejoin="round" stroke-width="3"/>
      <path d="m105.03 240.68c14.43-15.42 23.27-36.14 23.27-58.93 0-23.06-9.05-44-23.79-59.48" stroke-linecap="round" stroke-linejoin="round" stroke-width="3"/>
      <g stroke-width="7" transform="translate(0 124)">
        <path d="m20.5 63.36h150.42"/>
        <path d="m156.82 46.78 18.18 16.73-17.82 16.36" stroke-linecap="round"/>
      </g>
    </g>
  </g>
  <path id="b" d="m57.59 42.02-14.71-6.37v1.19l12.66 5.5-12.66 5.55v1.23l14.71-6.43z"/>
  <g fill="none" stroke="#a3a3a3">
    <path d="m101.19 174.31 12.72-12.9m-13.59 9.59 6.59-6.64m1.41 6.64 6.59-6.64"/>
    <path d="m99.19 211.81 12.72-12.9m-13.59 9.59 6.59-6.64m1.41 6.64 6.59-6.64"/>
    <path d="m70.19 234.81 12.72-12.9m-13.59 9.59 6.59-6.64m1.41 6.64 6.59-6.64"/>
    <path d="m57.69 211.31 12.72-12.9m-13.59 9.59 6.59-6.64m1.41 6.64 6.59-6.64"/>
    <path d="m27.19 231.31 12.72-12.9m-13.59 9.59 6.59-6.64m1.41 6.64 6.59-6.64"/>
    <path d="m63.69 178.31 12.72-12.9m-13.59 9.59 6.59-6.64m1.41 6.64 6.59-6.64"/>
    <path d="m24.69 173.81 12.72-12.9m-13.59 9.59 6.59-6.64m1.41 6.64 6.59-6.64"/>
    <path d="m150.66 97.01-6.64 6.59m6.99-.23-6.59-6.64"/>
    <path d="m140.16 20.51-6.64 6.59m6.99-.23-6.59-6.64"/>
    <path d="m176.66 112.51-6.64 6.59m6.99-.23-6.59-6.64"/>
    <path d="m178.16 152.51-6.64 6.59m6.99-.23-6.59-6.64"/>
    <path d="m143.66 163.51-6.64 6.59m6.99-.23-6.59-6.64"/>
    <path d="m142.16 201.51-6.64 6.59m6.99-.23-6.59-6.64"/>
    <path d="m179.66 204.51-6.64 6.59m6.99-.23-6.59-6.64"/>
  </g>
  <path id="c" d="m35.36 51.67-2.97-9.01c-.69.01-1.4-.06-2.13-.21l-1.6 5.61c-.21.73-.31 1.34-.31 1.85 0 .38.13.68.4.9.2.16.75.28 1.64.36l-.12.51h-7.18l.15-.51c.67-.03 1.13-.1 1.37-.21.37-.15.65-.36.82-.63.29-.43.6-1.18.92-2.27l3.24-11.2c.22-.75.33-1.33.33-1.74 0-.42-.17-.77-.52-1.07-.34-.29-.82-.43-1.46-.42l.16-.51h6.04c2.02 0 3.48.38 4.38 1.15.89.77 1.34 1.77 1.34 3.02 0 1.19-.46 2.29-1.38 3.28-.91.98-2.16 1.61-3.76 1.87l1.8 5.43c.44 1.33.88 2.2 1.31 2.6.44.4 1.14.63 2.12.68l-.15.51zm-4.87-9.99c.58.08 1.1.12 1.56.12 1.57 0 2.81-.43 3.72-1.3.91-.88 1.37-1.96 1.37-3.25 0-1.01-.29-1.79-.86-2.32-.57-.54-1.42-.81-2.56-.81-.29 0-.64.04-1.04.11zm38.91-8.93c1.17 0 2.15.49 2.94 1.46.8.98 1.2 2.52 1.2 4.62 0 1.8-.3 3.65-.89 5.52-.59 1.88-1.43 3.5-2.5 4.88-.86 1.08-1.75 1.87-2.69 2.35-.55.27-1.18.41-1.9.41-1.18 0-2.18-.49-2.98-1.46-.79-.98-1.19-2.52-1.19-4.63 0-2.09.4-4.18 1.2-6.29.94-2.46 2.14-4.33 3.6-5.61.96-.84 2.03-1.26 3.21-1.26zm.01.71c-.53 0-1.07.21-1.61.63-.54.41-1.1 1.27-1.68 2.58-.57 1.31-1.13 3-1.65 5.07-.68 2.71-1.03 5.01-1.03 6.92 0 .95.21 1.66.62 2.13.41.46.91.7 1.49.7.56 0 1.03-.18 1.42-.55 1.05-.98 1.95-2.67 2.69-5.04 1.21-3.89 1.82-7.05 1.82-9.49 0-1.01-.21-1.75-.62-2.23s-.89-.72-1.45-.72z"/>
  <use transform="matrix(-1 0 0 1 202.12 184)" xlink:href="#b"/>
  <use transform="translate(101.64 184)" xlink:href="#c"/>
  <use transform="translate(90.62 -.01)" xlink:href="#a"/>
</svg>
