<svg height="272" width="205" xmlns="http://www.w3.org/2000/svg">
<g stroke="#000">
<path d="m20 191h96.79" fill="none" stroke-width="7"/>
<path d="m20 79h96.79" fill="none" stroke-width="7"/>
<path d="m132.98 11.86v61.42c1.48 30.39-25.4 57.28-67.85 67.85l-6.12-2.8v-61.42l67.85-67.85zm-.12 0c1.48 30.39-25.41 57.28-67.85 67.85l-6.12-2.8m6.62 1.96v61.42" fill="#7f7f7f" fill-opacity=".74" stroke-width="3"/>
</g>
<path d="m116 75.5c-.72 2.21-5.38 5.13-9.85 7h71.29v-7z" fill-rule="evenodd"/>
<g stroke="#000">
<path d="m32 35 160 90" fill="none" stroke-dasharray="8 8"/>
<path d="m28.38 80.66a66.21 62.5 0 0 1 9.23-35.13" fill="none" transform="translate(0 -6)"/>
<path d="m142.88 130.11v61.42c-30.7 11.77-52.81 27.51-62.65 68.3l-21.34-8.74.12-60.17 67.85-67.85zm-.12-.35c-28.2 15.98-51.62 34.65-62.77 70.32l-21.09-9.16m21.12 8.96v60.17" fill="#7f7f7f" fill-opacity=".74" stroke-width="3"/>
<path d="m32 147 160 90" fill="none" stroke-dasharray="8 8"/>
</g>
<path d="m116 187.5c-2.97.96-7 2.88-9.85 7h71.29v-7z" fill-rule="evenodd"/>
<g fill="none" stroke="#000">
<path d="m32.17 42.19 5.66-2.83-.18 6.72"/>
<path d="m31.29 70.12-2.83 4.95-2.65-4.95"/>
<path d="m28.38 80.66a66.21 62.5 0 0 1 9.23-35.13" transform="translate(0 106)"/>
<path d="m32.17 154.19 5.66-2.83-.18 6.72"/>
<path d="m31.29 182.12-2.83 4.95-2.65-4.95"/>
</g>
<text font-family="Times New Roman" font-size="10" font-style="italic" x="144.76" y="45.83"><tspan font-size="28" x="144.76" y="45.83">F&gt;0</tspan></text>
<path d="m163.04 66.64 19.5 13-19.75 11.25" fill="none" stroke="#000" stroke-linecap="round" stroke-width="7"/>
<path d="m163.04 178.64 19.5 13-19.75 11.25" fill="none" stroke="#000" stroke-linecap="round" stroke-width="7"/>
<g font-family="Times New Roman" font-style="italic">
<text font-size="10" x="149.71" y="169.22"><tspan font-size="28" x="149.71" y="169.22">F&lt;0</tspan></text>
<g font-size="28">
<text x="11.31" y="60.23"><tspan x="11.31" y="60.23">α</tspan></text>
<text x="11.31" y="176.23"><tspan x="11.31" y="176.23">α</tspan></text>
</g>
</g>
</svg>
