<svg height="128" width="200" xmlns="http://www.w3.org/2000/svg">
<g fill="none" stroke="#000">
<path d="m71.95 48.98-49.02-9.51" stroke-dasharray="12 6" stroke-width="1.5"/>
<path d="m169.95 64.98-49.02-9.51" stroke-dasharray="12 6" stroke-width="1.5"/>
<path d="m180.23 12.37-57 40.59h-51.9l-52.41 33.32" stroke-linecap="round" stroke-width="7"/>
<path d="m166.74 10.25 18.38-2.47-6.19 18.4" stroke-linecap="round" stroke-width="7"/>
<path d="m160.08 32.58c3.91 9.15 5.8 19.04 5.55 28.99"/>
<path d="m168.12 56.52-2.48 5.44-2.48-5.57"/>
<path d="m159.03 38.58.76-5.96 5.18 3.35"/>
<path d="m30.39 73.25c-2-9.75-1.87-19.82.37-29.52"/>
<path d="m27.3 48.19 3.52-4.83 1.31 5.95"/>
<path d="m32.62 67.58-1.94 5.69-4.41-4.32"/>
<path d="m129.47 98.59-28.55-22.91" stroke-width="1.5"/>
<path d="m102.38 81.68-1.82-6.36 7.45 1.27"/>
</g>
<text font-family="Times New Roman" font-size="10" font-style="italic" x="131.47" y="107.22"><tspan font-size="36" x="131.47" y="107.22">n</tspan></text>
<g fill="none" stroke="#000">
<path d="m86.98 26.71 12.72-12.9m-13.59 9.59 6.59-6.64m1.41 6.64 6.59-6.64"/>
<path d="m110.98 28.71 12.72-12.9m-13.59 9.59 6.59-6.64m1.41 6.64 6.59-6.64"/>
<path d="m88.98 44.71 12.72-12.9m-13.59 9.59 6.59-6.64m1.41 6.64 6.59-6.64"/>
<path d="m102.98 72.71 12.72-12.9m-13.59 9.59 6.59-6.64m1.41 6.64 6.59-6.64"/>
<path d="m74.98 72.71 12.72-12.9m-13.59 9.59 6.59-6.64m1.41 6.64 6.59-6.64"/>
<path d="m76.98 88.71 12.72-12.9m-13.59 9.59 6.59-6.64m1.41 6.64 6.59-6.64"/>
</g>
<text font-family="Times New Roman" font-size="10" font-style="italic" x="70.05" y="125.78"><tspan font-size="36" x="70.05" y="125.78">L</tspan></text>
<g fill="none" stroke="#000">
<path d="m101.41 125.61 5.76-3.15-3.97-4.65m-41.82-1.64-3.85-5.18 5.64-2.62"/>
<path d="m73.55 114.64-15.87-3.66"/>
<path d="m106.94 122.42-15.87-3.66"/>
</g>
<text font-family="Times New Roman" font-size="28" font-style="italic" x="169.81" y="52.13"><tspan x="169.81" y="52.13">α</tspan></text>
<text font-family="Times New Roman" font-size="28" font-style="italic" x="10.56" y="64.67"><tspan x="10.56" y="64.67">α</tspan></text>
<g fill="none" stroke="#000" stroke-dashoffset="21.44" stroke-linecap="round">
<path d="m81.04-15.86h51.21v89.45h-51.21z" stroke-width="3" transform="matrix(.97 .23 -.23 .97 0 0)"/>
<path d="m55.31 114.87 7.54-32.3m51.92 12.02-7.5 32.1"/>
</g>
</svg>
