<svg height="128" width="200" xmlns="http://www.w3.org/2000/svg" xmlns:xlink="http://www.w3.org/1999/xlink">
<g fill="none" stroke="#000">
<path d="m71.95 48.98-49.02-9.51" stroke-dasharray="12 6" stroke-width="1.5"/>
<path d="m169.95 64.98-49.02-9.51" stroke-dasharray="12 6" stroke-width="1.5"/>
<path d="m180.23 12.37-57 40.59h-51.9l-52.41 33.32" stroke-linecap="round" stroke-width="7"/>
<path d="m166.74 10.25 18.38-2.47-6.19 18.4" stroke-linecap="round" stroke-width="7"/>
<path d="m160.08 32.58c3.91 9.15 5.8 19.04 5.55 28.99"/>
<path d="m168.12 56.52-2.48 5.44-2.48-5.57"/>
<path d="m159.03 38.58.76-5.96 5.18 3.35"/>
<path d="m30.39 73.25c-2-9.75-1.87-19.82.37-29.52"/>
<path d="m27.3 48.19 3.52-4.83 1.31 5.95"/>
<path d="m32.62 67.58-1.94 5.69-4.41-4.32"/>
<path d="m129.47 98.59-28.55-22.91" stroke-width="1.5"/>
<path d="m102.38 81.68-1.82-6.36 7.45 1.27"/>
</g>
<path d="m139.42 91.31-2.34 8q3.29-4.9 5.03-6.45 1.76-1.55 3.38-1.55.88 0 1.44.58.58.58.58 1.51 0 1.05-.51 2.81l-2.14 7.4q-.37 1.28-.37 1.56 0 .25.14.42.14.16.3.16.21 0 .51-.23.93-.74 2.04-2.25l.54.33q-1.63 2.34-3.09 3.34-1.02.69-1.83.69-.65 0-1.04-.4-.39-.39-.39-1.05 0-.84.6-2.9l2.04-7.07q.39-1.32.39-2.06 0-.35-.23-.56-.23-.23-.56-.23-.49 0-1.18.42-1.3.79-2.71 2.62-1.41 1.81-2.97 4.64-.83 1.49-1.37 3.27l-.88 2.9h-2.64l3.2-11q.56-1.99.56-2.39 0-.39-.32-.67-.3-.3-.76-.3-.21 0-.74.07l-.67.11-.11-.63z"/>
<g fill="none" stroke="#000">
<path d="m86.98 26.71 12.72-12.9m-13.59 9.59 6.59-6.64m1.41 6.64 6.59-6.64"/>
<path d="m110.98 28.71 12.72-12.9m-13.59 9.59 6.59-6.64m1.41 6.64 6.59-6.64"/>
<path d="m88.98 44.71 12.72-12.9m-13.59 9.59 6.59-6.64m1.41 6.64 6.59-6.64"/>
<path d="m102.98 72.71 12.72-12.9m-13.59 9.59 6.59-6.64m1.41 6.64 6.59-6.64"/>
<path d="m74.98 72.71 12.72-12.9m-13.59 9.59 6.59-6.64m1.41 6.64 6.59-6.64"/>
<path d="m76.98 88.71 12.72-12.9m-13.59 9.59 6.59-6.64m1.41 6.64 6.59-6.64"/>
</g>
<path d="m86.56 125.78h-17.67l.25-.65q1.41-.04 1.88-.23.74-.32 1.09-.83.54-.81 1.16-2.92l4.2-14.49q.53-1.79.53-2.64 0-.67-.49-1.04-.47-.37-1.81-.37-.3 0-.47-.02l.21-.65h9.72l-.14.65q-1.63 0-2.32.32-.69.32-1.14 1.04-.32.47-1.04 2.95l-4.13 14.26q-.47 1.62-.47 2.25 0 .42.47.81.3.26 1.35.26h2.3q2.51 0 3.99-.63 1.09-.47 2-1.42.49-.53 1.74-2.62l.46-.79h.65z"/>
<g fill="none" stroke="#000">
<path d="m101.41 125.61 5.76-3.15-3.97-4.65m-41.82-1.64-3.85-5.18 5.64-2.62"/>
<path d="m73.55 114.64-15.87-3.66"/>
<path d="m106.94 122.42-15.87-3.66"/>
</g>
<path id="a" d="m22.5 52.63h2.02l-2.93 6.69q.21 3.76 1.3 3.76.38 0 .72-.4.34-.41.41-1.01h.56q-.41 3.34-1.9 3.34-.52 0-.96-.55-.44-.55-.77-3.83-2.52 4.38-5.66 4.38-1.76 0-2.84-1.22-1.08-1.22-1.08-3.25 0-1.98 1-3.84 1-1.87 2.49-3.13 1.49-1.26 3.29-1.26 1.29 0 2.01.79.74.79 1.01 2.46zm-1.83 3.96q-.07-1-.63-2.24-.56-1.24-1.65-1.24-1.6 0-3.24 3.08-1.63 3.06-1.63 5.4 0 1.29.53 2.04.55.75 1.49.75.98 0 1.78-1.01.79-1.03 2.2-4.2z"/>
<g fill="none" stroke="#000" stroke-dashoffset="21.44" stroke-linecap="round">
<path d="m81.04-15.86h51.21v89.45h-51.21z" stroke-width="3" transform="matrix(.97 .23 -.23 .97 0 0)"/>
<path d="m55.31 114.87 7.54-32.3m51.92 12.02-7.5 32.1"/>
</g>
<use transform="translate(159.25 -12.54)" xlink:href="#a"/>
</svg>
