<svg height="385" width="260" xmlns="http://www.w3.org/2000/svg" xmlns:xlink="http://www.w3.org/1999/xlink">
<linearGradient id="a" gradientTransform="matrix(1.11 0 0 1 5.1 171)" gradientUnits="userSpaceOnUse" x1="75.63" x2="75.63" y1="48.89" y2="206.11">
<stop offset="0" stop-color="#6a6a6a"/>
<stop offset=".5" stop-color="#f0f0f0"/>
<stop offset="1" stop-color="#6a6a6a"/>
</linearGradient>
<linearGradient id="b" gradientTransform="matrix(1.11 0 0 1 5.1 1)" gradientUnits="userSpaceOnUse" x1="75.63" x2="75.63" y1="48.89" y2="206.81">
<stop offset="0" stop-color="#f0f0f0"/>
<stop offset=".5" stop-color="#6a6a6a"/>
<stop offset="1" stop-color="#f0f0f0"/>
</linearGradient>
<path d="m26.83 220.5h130.34c5.31 4.09 12.72 16.41 3.93 31.25-13.21 22.29-2.5 25.88 2.71 41.28 6.39 18.92-17.85 32.36-3.31 55.15 12.1 18.96-6.53 26.36-3.33 29.32h-130.34c4.35-10.63 8.33-23.41.75-36.17-9.95-16.75 9.78-34.82 3.75-46.66-10.47-20.56-7.37-35.69-2.75-43.56 4.64-7.91 6.32-19.19-1.75-30.61z" fill="url(#a)"/>
<g fill="none" stroke="#000">
<path d="m3.5 299h250.42" stroke-width="4"/>
<path d="m248 305 7-6-7-6" stroke-linecap="round" stroke-width="3"/>
<path d="m252.5 235.22.71-9.19-9.19.71" stroke-linecap="round" stroke-width="3"/>
<path d="m3.5 280h66.8c80.53 0 134.87-14.59 181.62-51.99" stroke-width="4"/>
<path d="m27.5 220.5h129m0 157h-129" stroke-width="3"/>
</g>
<path d="m26.83 50.5h130.34c5.31 4.09 12.72 16.41 3.93 31.25-13.21 22.29-2.5 25.88 2.71 41.28 6.39 18.92-17.85 32.36-3.31 55.15 12.1 18.96-6.53 26.36-3.33 29.32h-130.34c4.35-10.63 8.33-23.41.75-36.17-9.95-16.75 9.78-34.82 3.75-46.66-10.47-20.56-7.37-35.69-2.75-43.56 4.64-7.91 6.32-19.19-1.75-30.61z" fill="url(#b)"/>
<path d="m3.5 129h250.42" fill="none" stroke="#000" stroke-width="4"/>
<path d="m135.64 27.18 4.91 4.36-4.91 3.64m-87-8-4.91 4.18 4.91 3.82m-4.23-3.68h95.47" fill="none" stroke="#000"/>
<path d="m99.76 26.99h-17.67l.25-.65q1.41-.04 1.88-.23.74-.32 1.09-.83.54-.81 1.16-2.92l4.2-14.5q.53-1.79.53-2.64 0-.67-.49-1.04-.47-.37-1.81-.37-.3 0-.47-.02l.21-.65h9.72l-.14.65q-1.63 0-2.32.32-.69.32-1.14 1.04-.32.47-1.04 2.95l-4.14 14.27q-.47 1.62-.47 2.25 0 .42.47.81.3.26 1.35.26h2.3q2.51 0 3.99-.63 1.09-.47 2-1.42.49-.53 1.74-2.62l.46-.79h.65z"/>
<g fill="none" stroke="#000">
<path d="m3.5 68.06h66.8c80.53 0 134.88 42.59 181.63 79.99" stroke-width="4"/>
<path d="m42.5 27.82v22.47m99-22.47v22.47"/>
<g stroke-linecap="round" stroke-width="3">
<path d="m248 135 7-6-7-6"/>
<path d="m252.5 117.22.71-9.19-9.19.71"/>
<path d="m252.5 140.8.71 9.19-9.19-.71"/>
</g>
</g>
<g fill="none" stroke="#000">
<path d="m3.5 190h66.8c80.53 0 134.87-42.59 181.62-79.99" stroke-width="4"/>
<path d="m27.5 50.5h129m0 157h-129" stroke-width="3"/>
<path d="m42.5 51.82v154.47m99-154.47v154.47" stroke-dasharray="3 3"/>
</g>
<g fill="none" stroke="#000">
<path d="m252.5 363.18.71 9.19-9.19-.71" stroke-linecap="round" stroke-width="3"/>
<path d="m3.5 318.4h66.8c80.53 0 134.87 14.59 181.62 51.99" stroke-width="4"/>
</g>
<path d="m85.55 98.82-2.34 8q3.29-4.9 5.03-6.45 1.76-1.55 3.38-1.55.88 0 1.44.58.58.58.58 1.51 0 1.05-.51 2.81l-2.14 7.4q-.37 1.28-.37 1.56 0 .25.14.42.14.16.3.16.21 0 .51-.23.93-.74 2.04-2.25l.54.33q-1.63 2.34-3.09 3.34-1.02.69-1.83.69-.65 0-1.04-.4-.39-.39-.39-1.05 0-.84.6-2.9l2.04-7.07q.39-1.32.39-2.06 0-.35-.23-.56-.23-.23-.56-.23-.49 0-1.18.42-1.3.79-2.71 2.62-1.41 1.81-2.97 4.64-.83 1.49-1.37 3.27l-.88 2.9h-2.64l3.2-11q.56-1.99.56-2.39 0-.39-.32-.67-.3-.3-.76-.3-.21 0-.74.07l-.67.11-.11-.63z"/>
<path d="m101.75 106.09q1.56 0 2.63 1.33 1.08 1.33 1.08 4.21 0 2.47-.79 5.04-.79 2.57-2.24 4.45-1.15 1.48-2.41 2.14-.73.37-1.7.37-1.59 0-2.66-1.33-1.06-1.33-1.06-4.23 0-2.85 1.08-5.73 1.26-3.37 3.21-5.11 1.28-1.15 2.87-1.15zm.01.65q-.71 0-1.44.57-.72.56-1.5 2.36-.77 1.8-1.48 4.63-.92 3.7-.92 6.31 0 1.3.55 1.94.55.64 1.33.64.75 0 1.27-.5 1.41-1.35 2.41-4.6 1.63-5.32 1.63-8.65 0-1.38-.55-2.03-.55-.66-1.3-.66z"/>
<path id="c" d="m222.33 63-18.91 8.19v-1.51l16.29-7.07-16.29-7.14v-1.6l18.91 8.26z"/>
<path id="d" d="m197.92 83.09h-8.25v-.46q6.31-5.64 8.33-8.84.94-1.48.94-3.12 0-1.3-.78-2.11-.78-.82-2.03-.82-1.72 0-2.84 1.68l-.43-.2q.62-1.61 1.82-2.49 1.2-.9 2.59-.9 1.58 0 2.65 1.11 1.08 1.1 1.08 2.67 0 1.1-.38 2.03-.59 1.46-2.16 3.27-2.4 2.77-6.39 6.37h4.15q1 0 1.65-.42.65-.42.93-1.13h.49z"/>
<path id="e" d="m181.73 58.57-2.34 8q3.29-4.9 5.03-6.45 1.76-1.55 3.38-1.55.88 0 1.44.58.58.58.58 1.51 0 1.05-.51 2.81l-2.14 7.4q-.37 1.28-.37 1.56 0 .25.14.42.14.16.3.16.21 0 .51-.23.93-.74 2.04-2.25l.54.33q-1.63 2.34-3.09 3.34-1.02.69-1.83.69-.65 0-1.04-.4-.39-.39-.39-1.05 0-.84.6-2.9l2.04-7.07q.39-1.32.39-2.06 0-.35-.23-.56-.23-.23-.56-.23-.49 0-1.18.42-1.3.79-2.71 2.62-1.41 1.81-2.97 4.64-.83 1.49-1.37 3.27l-.88 2.9h-2.64l3.2-11q.56-1.99.56-2.39 0-.39-.32-.67-.3-.3-.76-.3-.21 0-.74.07l-.67.11-.11-.63z"/>
<path id="f" d="m237.52 50.15c1.5 0 2.76.63 3.78 1.88 1.03 1.25 1.55 3.23 1.55 5.94 0 2.32-.38 4.69-1.14 7.1s-1.83 4.51-3.22 6.28c-1.1 1.39-2.26 2.4-3.46 3.02-.7.35-1.52.53-2.44.53-1.52 0-2.8-.63-3.83-1.88-1.02-1.25-1.53-3.24-1.53-5.96 0-2.68.52-5.38 1.55-8.09 1.21-3.16 2.75-5.57 4.62-7.21 1.23-1.08 2.61-1.62 4.13-1.62zm.02.91c-.68 0-1.37.27-2.07.81-.69.53-1.41 1.63-2.16 3.32-.74 1.69-1.45 3.86-2.13 6.52-.88 3.48-1.32 6.45-1.32 8.89 0 1.22.26 2.13.79 2.74.53.6 1.17.9 1.92.9.71 0 1.32-.23 1.83-.7 1.35-1.27 2.5-3.43 3.46-6.49 1.56-5 2.34-9.07 2.34-12.2 0-1.3-.26-2.26-.79-2.87-.53-.62-1.15-.93-1.86-.93z"/>
<use transform="matrix(-1 0 0 1 421.1 158.63)" xlink:href="#c"/>
<g transform="translate(-4.65 158.63)">
<use xlink:href="#d"/>
<use xlink:href="#e"/>
<use xlink:href="#f"/>
</g>
</svg>
