<svg height="24" width="24" xmlns="http://www.w3.org/2000/svg">
  <g fill="none" stroke="#302978" stroke-linecap="round">
    <path d="m3.0519481 18.000016h17.9999989" stroke-width="2"/>
    <path d="m6 15-5 3 5 3"/>
    <path d="m18 15 5 3-5 3"/>
  </g>
  <path d="m11.076882 2.3202209c0-.2228678-.07624-.3636264-.228732-.4222758-.152489-.0703793-1.1992481-.1466236-1.7505528-.2287328v-.4398707h7.0830958v.4398707c-.586494.0351897-1.807713.1348937-2.042311.2991121-.234597.1642184-.41641.4867902-.545439.9677155l-2.269733 8.4103281c-.05865.211137-.08797.398815-.08797.563034 0 .351897.375356.527845 1.126069.527845 1.466235 0 2.680278-.340167 3.642129-1.0205.340167-.246328.627549-.504386.862147-.774173.246327-.269787.516115-.6510085.809362-1.1436634l.422276.087974-1.038095 3.4133964h-10.4248026v-.43987c.4340031-.05865 1.4397064-.170083 1.6273845-.334302.1994081-.175948.3577615-.48679.4750604-.932526l2.1641637-7.9000776c.117299-.4222759.175948-.7800374.175948-1.0732845z" fill="#454545" transform="matrix(.9515416 0 .14687133 .98181028 -1.044962 .084967)"/>
</svg>
