<svg height="128" width="200" xmlns="http://www.w3.org/2000/svg">
  <g transform="translate(4.342917)">
    <g fill="none" stroke="#000">
      <path d="m66.995015 48.980894-49.024209-9.507241" stroke-dasharray="12 6" stroke-width="1.5"/>
      <path d="m164.99501 64.980898-49.02419-9.507238" stroke-dasharray="12.000001 6.000001" stroke-width="1.5"/>
      <path d="m-132.85204 8.679689h53.5v85.465485h-53.5z" stroke-width="3.043261" transform="matrix(-1 0 -.2359252 .9717712 0 0)"/>
      <path d="m175.27578 12.372315-57.00087 40.59047h-51.902756l-52.409798 33.322718" stroke-linecap="round" stroke-width="7"/>
      <path d="m161.78711 10.254167 18.37734-2.4739482-6.18576 18.4027392" stroke-linecap="round" stroke-width="7"/>
      <path d="m155.12284 32.583977c3.91007 9.153729 5.80152 19.042583 5.54557 28.99317"/>
      <path d="m163.1661 56.517833-2.48367 5.441721-2.47702-5.569609"/>
      <path d="m154.07838 38.581971.7585-5.964966 5.18014 3.346278"/>
      <path d="m25.438445 73.247324c-1.998941-9.751081-1.872973-19.818427.369331-29.516438"/>
      <path d="m22.348009 48.187944 3.522538-4.834556 1.312212 5.952674"/>
      <path d="m27.662199 67.579716-1.936985 5.692485-4.405602-4.315316"/>
      <path d="m124.51527 98.593924-28.545457-22.909091" stroke-width="1.5"/>
      <path d="m97.424358 81.684833-1.818181-6.36364 7.454543 1.27273"/>
    </g>
    <text font-family="Times New Roman" font-size="10" font-style="italic" x="126.5129" y="107.21783"><tspan font-size="36" x="126.5129" y="107.21783">n</tspan></text>
    <path d="m82.0235 26.71195 12.7246-12.89862m-13.59092 9.59091 6.5909-6.63636m1.4091 6.63636 6.5909-6.63636" fill="none" stroke="#000"/>
    <path d="m106.0235 28.71195 12.7246-12.89862m-13.59092 9.59091 6.5909-6.63636m1.4091 6.63636 6.5909-6.63636" fill="none" stroke="#000"/>
    <path d="m84.0235 44.71195 12.7246-12.89862m-13.59092 9.59091 6.5909-6.63636m1.4091 6.63636 6.5909-6.63636" fill="none" stroke="#000"/>
    <path d="m98.0235 72.71195 12.7246-12.89862m-13.59092 9.59091 6.5909-6.63636m1.4091 6.63636 6.5909-6.63636" fill="none" stroke="#000"/>
    <path d="m70.0235 72.71195 12.7246-12.89862m-13.59092 9.59091 6.5909-6.63636m1.4091 6.63636 6.5909-6.63636" fill="none" stroke="#000"/>
    <path d="m72.0235 88.71195 12.7246-12.89862m-13.59092 9.59091 6.5909-6.63636m1.4091 6.63636 6.5909-6.63636" fill="none" stroke="#000"/>
    <text font-family="Times New Roman" font-size="10" font-style="italic" x="73.095886" y="125.77584"><tspan font-size="36" x="73.095886" y="125.77584">L</tspan></text>
    <path d="m55.825969 118.99248v-26.287031" fill="none" stroke="#000"/>
    <path d="m111.39415 119.1743v-26.468851" fill="none" stroke="#000"/>
    <path d="m105.03898 119.81066 4.90909-4.36364-4.90909-3.63636m-43.127004 8-4.909091-4.18182 4.909091-3.81818" fill="none" stroke="#000"/>
    <path d="m73.424029 115.57623h-16.287031" fill="none" stroke="#000"/>
    <path d="m109.74219 115.57623h-16.287022" fill="none" stroke="#000"/>
    <text font-family="Times New Roman" font-size="28" font-style="italic" x="170.85718" y="52.129803"><tspan x="170.85718" y="52.129803">α</tspan></text>
    <text font-family="Times New Roman" font-size="28" font-style="italic" x="5.609333" y="64.67054"><tspan x="5.609333" y="64.67054">α</tspan></text>
  </g>
</svg>
