<svg height="24" width="24" xmlns="http://www.w3.org/2000/svg" xmlns:xlink="http://www.w3.org/1999/xlink">
  <linearGradient id="a">
    <stop offset="0" stop-color="#dbf6ff"/>
    <stop offset="1" stop-color="#7ddcfd"/>
  </linearGradient>
  <linearGradient id="b" gradientTransform="matrix(1 0 0 1.0222222 3.977439 -.266667)" gradientUnits="userSpaceOnUse" x1="15.913273" x2="4.892136" xlink:href="#a" y1="1.041945" y2="23"/>
  <linearGradient id="c" gradientTransform="scale(.49999998 .99999996)" gradientUnits="userSpaceOnUse" spreadMethod="pad" x1="12" x2="12" y1="0" y2="24">
    <stop offset="0" stop-color="#e4ffdb"/>
    <stop offset="1" stop-color="#99fdc8"/>
  </linearGradient>
  <linearGradient id="d" gradientTransform="matrix(.49999998 0 0 .99999996 11.999999 -24.000001)" gradientUnits="userSpaceOnUse" spreadMethod="pad" x1="12" x2="12" xlink:href="#a" y1="0" y2="24"/>
  <path d="m5.0786375-24h18.9213625v24h-8z" fill="url(#d)" transform="scale(1 -1)"/>
  <path d="m23.060942 6.0349586-5-5m3 6-3.830508-3.779661" fill="none" stroke="#00b4ff" stroke-linecap="round"/>
  <path d="m15.159715 21.979624-4.084746-4.033898m2.084746 5.033898-3.9830511-3.881356" fill="none" stroke="#00b4ff" stroke-linecap="round"/>
  <path d="m0 0h16l-11.114592 24h-4.885408z" fill="url(#c)"/>
  <g stroke-linecap="round">
    <path d="m1.5231207 16.968473 3.118644-2.915254m-2.0338983 4.983051 4.1864404-3.881356" fill="none" stroke="#00c8aa"/>
    <path d="m20.772793 11.186372 1.602496 5.387482-5.466296 1.573424" fill="none" stroke="#f00" stroke-linejoin="round" stroke-width="3"/>
    <path d="m5.2229836 23.500001 10.9007574-23.0000005" fill="url(#b)" fill-rule="evenodd" stroke="#00b4ff"/>
    <path d="m-.06370962 10.501252h11.15297062l10.536294 5.519715" fill="none" stroke="#f00" stroke-width="3"/>
    <path d="m3.3536292 4.7142357 3.118644-2.915254m-2.0338983 4.983051 4.1864404-3.881356" fill="none" stroke="#00c8aa"/>
  </g>
</svg>
