<svg height="200" width="200" xmlns="http://www.w3.org/2000/svg" xmlns:xlink="http://www.w3.org/1999/xlink">
<g fill="none">
<path d="m40.5 99.36h114.42" stroke="#000" stroke-width="7"/>
<path d="m92.5 166.37v-131" stroke="#000" stroke-width="3"/>
<g stroke="#a3a3a3">
<path d="m44.76 136.71 12.72-12.9m-13.59 9.59 6.59-6.64m1.41 6.64 6.59-6.64"/>
<path d="m45.72 50.25 12.72-12.9m-13.59 9.59 6.59-6.64m1.41 6.64 6.59-6.64"/>
<path d="m67.69 65.58 12.72-12.9m-13.59 9.59 6.59-6.64m1.41 6.64 6.59-6.64"/>
<path d="m40.15 84.79 12.72-12.9m-13.59 9.59 6.59-6.64m1.41 6.64 6.59-6.64"/>
</g>
<path d="m136.82 82.78 18.18 16.73-17.82 16.36" stroke="#000" stroke-linecap="round" stroke-width="7"/>
<g stroke="#a3a3a3">
<path d="m108.62 129.17-6.64 6.59m6.99-.23-6.59-6.64"/>
<path d="m69.51 121.71 12.72-12.9m-13.59 9.59 6.59-6.64m1.41 6.64 6.59-6.64"/>
<path d="m125.37 112.68-6.64 6.59m6.99-.23-6.59-6.64"/>
<path d="m123.58 81.47-6.64 6.59m6.99-.23-6.59-6.64"/>
<path d="m106.87 64.22-6.64 6.59m6.99-.23-6.59-6.64"/>
<path d="m151.37 61.92-6.64 6.59m6.99-.23-6.59-6.64"/>
<path d="m108.37 40.92-6.64 6.59m6.99-.23-6.59-6.64"/>
<path d="m128.16 53.01-6.64 6.59m6.99-.23-6.59-6.64"/>
<path d="m147.12 36.42-6.64 6.59m6.99-.23-6.59-6.64"/>
<path d="m150.54 137.23-6.64 6.59m6.99-.23-6.59-6.64"/>
</g>
</g>
<path id="a" d="m53.82 148.39-2.34 8q3.29-4.9 5.03-6.45 1.76-1.55 3.38-1.55.88 0 1.44.58.58.58.58 1.51 0 1.05-.51 2.81l-2.14 7.4q-.37 1.28-.37 1.56 0 .25.14.42.14.16.3.16.21 0 .51-.23.93-.74 2.04-2.25l.54.33q-1.63 2.34-3.09 3.34-1.02.69-1.83.69-.65 0-1.04-.4-.39-.39-.39-1.05 0-.84.6-2.9l2.04-7.07q.39-1.32.39-2.06 0-.35-.23-.56-.23-.23-.56-.23-.49 0-1.18.42-1.3.79-2.71 2.62-1.41 1.81-2.97 4.64-.83 1.49-1.37 3.27l-.89 2.91h-2.64l3.2-11q.56-1.99.56-2.39 0-.39-.32-.67-.3-.3-.76-.3-.21 0-.74.07l-.67.11-.11-.63z"/>
<path d="m70.81 157.06-2.93 10.21q-.26.9-.26 1.3 0 .34.23.52.24.17 1.09.24l-.09.34h-4.69l.13-.34q.75-.02.98-.12.38-.16.57-.44.3-.42.61-1.5l2.11-7.33q.19-.67.21-.77.03-.18.03-.36 0-.32-.17-.5-.17-.18-.47-.18-.24 0-.74.11l-.12-.33 3.07-.86z"/>
<path d="m135.7 170.54h-7.15v-.39q5.47-4.79 7.23-7.51.82-1.26.82-2.65 0-1.1-.68-1.79-.68-.7-1.76-.7-1.49 0-2.46 1.43l-.37-.17q.54-1.37 1.58-2.12 1.04-.76 2.25-.76 1.37 0 2.3.94.93.93.93 2.27 0 .93-.33 1.73-.51 1.24-1.88 2.78-2.08 2.35-5.54 5.41h3.6q.87 0 1.43-.36.56-.36.81-.96h.42z"/>
<g fill="none" stroke="#a3a3a3">
<path d="m69.46 91.03 12.72-12.9m-13.59 9.59 6.59-6.64m1.41 6.64 6.59-6.64"/>
<path d="m72.69 146.81 12.72-12.9m-13.59 9.59 6.59-6.64m1.41 6.64 6.59-6.64"/>
</g>
<use transform="translate(67.27 -.88)" xlink:href="#a"/>
</svg>
