<svg height="235" width="128" xmlns="http://www.w3.org/2000/svg">
<g fill="none" stroke="#000">
<path d="m3.03 177.5h115.54" stroke-dasharray="8 2 1 2"/>
<path d="m117.36 131-106.03 86.77" stroke-linecap="round" stroke-width="7"/>
<path d="m51.63 120.47-3.13 5.06c14.38 28.67 14.48 68.54.56 100.03l2.75 3.94h25.28l2.72-3.94c-14.8-31.49-14.53-71.36.56-100.03l-3.09-5.06z" stroke-width="3"/>
<path d="m77.68 32.2a69.27 69.27 0 0 1 8.33 28.32" transform="matrix(-1 0 0 -1 95.07 239.15)"/>
<path d="m60.47 4.47c-13.26 24.93-13.26 84.46 0 109.03h6.63c13.26-24.57 13.26-84.11 0-109.03z" stroke-width="3"/>
<path d="m5 63.5h119.38" stroke-dasharray="8 2 1 2"/>
<path d="m59.64 136.73 12.72-12.9m-13.59 9.59 6.59-6.64m1.41 6.64 6.59-6.64"/>
<path d="m55.64 224.73 12.72-12.9m-13.59 9.59 6.59-6.64m1.41 6.64 6.59-6.64"/>
<path d="m55.64 52.73 12.72-12.9m-13.59 9.59 6.59-6.64m1.41 6.64 6.59-6.64"/>
<path d="m57.64 88.73 12.72-12.9m-13.59 9.59 6.59-6.64m1.41 6.64 6.59-6.64"/>
<path d="m115.36 19-106.03 86.77" stroke-linecap="round" stroke-width="7"/>
<path d="m56.22 32.73 12.72-12.9m-13.59 9.59 6.59-6.64m1.41 6.64 6.59-6.64"/>
<path d="m7.07 183.91 1.94-5.66 3.01 5.3"/>
<path d="m17.85 200.88-.18 6.01-5.48-2.83"/>
<path d="m77.68 32.2a69.27 69.27 0 0 1 8.33 28.32" transform="matrix(-1 0 0 -1 95.07 125.5)"/>
<path d="m7.07 70.27 1.94-5.66 3.01 5.3"/>
<path d="m17.85 87.24-.18 6.01-5.48-2.83"/>
</g>
<g font-family="Times New Roman" font-style="italic">
<text font-size="28" x="15.91" y="80.51"><tspan x="15.91" y="80.51">α</tspan></text>
<text font-size="28" x="15.91" y="194.51"><tspan x="15.91" y="194.51">α</tspan></text>
<g font-size="10">
<text x="74.03" y="114.9"><tspan font-size="28" x="74.03" y="114.9">F&gt;0</tspan></text>
<text x="74.39" y="200.65"><tspan font-size="28" x="74.39" y="200.65">F&lt;0</tspan></text>
</g>
</g>
<g fill="none" stroke="#000" stroke-linecap="round" stroke-width="7">
<path d="m94.4 132.47 25.46-3.89-7.07 24.75"/>
<path d="m94.4 18.47 25.46-3.89-7.07 24.75"/>
</g>
</svg>
