<svg height="256" width="128" xmlns="http://www.w3.org/2000/svg" xmlns:xlink="http://www.w3.org/1999/xlink">
<path d="m16.34 82.5h95" fill="none" stroke="#000" stroke-dasharray="8 2 1 2"/>
<path d="m90.66 74.18-3.33 6.86-4.11-6.27m-4.82-17.49 1.37-7.44 7.05 4.31m-6.75-3.75c4.43 9.32 6.92 19.53 7.3 29.94" fill="none" stroke="#000"/>
<path d="m28.09 186.5h83.25" fill="none" stroke="#000" stroke-dasharray="8 2 1 2"/>
<path d="m104.82 194.81-3.33-6.86-4.11 6.27m-4.91 18.42 1.37 7.44 7.05-4.31m-6.73 3.69c4.61-9.71 7.11-20.39 7.31-31.25" fill="none" stroke="#000"/>
<path id="a" d="m104.02 54.48h2.02l-2.93 6.69q.21 3.76 1.3 3.76.38 0 .72-.4.34-.41.41-1.01h.56q-.41 3.34-1.9 3.34-.52 0-.96-.55-.44-.55-.77-3.83-2.52 4.38-5.66 4.38-1.76 0-2.84-1.22-1.08-1.22-1.08-3.25 0-1.98 1-3.84 1-1.87 2.49-3.13 1.49-1.26 3.29-1.26 1.29 0 2.01.79.74.79 1.01 2.46zm-1.83 3.96q-.07-1-.63-2.24-.56-1.24-1.65-1.24-1.6 0-3.24 3.08-1.63 3.06-1.63 5.4 0 1.29.53 2.04.55.75 1.49.75.98 0 1.78-1.01.79-1.03 2.2-4.2z"/>
<g fill="none" stroke="#000">
<g transform="translate(-.34 -3.57)">
<path d="m14.42 237.07h-8.58v-93h8.58l11.94 46z" stroke-width="3"/>
<path d="m22.46 205.71-16.81-19.72m18.37 13.57-18.37-21.57m20.23 15.74-20.23-23.74m20.89 17.09-20.89-25.09m16.68 12.41-16.68-20.41m13.46 8.41-13.46-16.41m15.33 66.38-15.33-18.37m13.67 24.56-13.67-16.56m12.23 22.32-12.23-14.32m10.84 20.3-10.84-12.3m9.05 17.92-9.05-9.92"/>
</g>
<g transform="translate(-1.14 16)">
<path d="m12.4 65.23-6.32-7.68m7.99 1.71-7.99-9.71m9.27 3.27-9.27-11.27m11.57 5.51-11.57-13.51m13.42 8.26-13.42-16.26m15.78 10.71-15.78-18.71m17.49 12.86-13.32-16.8m5.11 63.21-9.27-11.27m13.2 23.72-13.2-15.72m17.52 28.36-17.52-20.36m20.63 30.62-20.63-22.62m15.4 24.97-15.4-16.97m8.71 17.04-8.71-9.04m10.49-92.01 9.03 11.62"/>
<path d="m28.51 18.51-16.73 47.99 16.17 44.02-2.73 3.93h-18.58v-101h18.76z" stroke-width="3"/>
</g>
<path d="m5.5 41.55v-35.11"/>
<path d="m20 55 16.88-45.19"/>
<g transform="translate(0 4)">
<path d="m12.87 11.32-5.97-4.64 6.68-3.37"/>
<path d="m7.38 6.67c7.9.25 17.33 2.55 24.8 5.23"/>
<path d="m28.32 6.27 4.71 5.99-7.29 1.58"/>
</g>
<path d="m16.54 150.03 25.76 96.81"/>
<path d="m5.5 249.55v-35.11"/>
<path d="m13.58 250.64-6.81-3.43 6.33-4.01m18.73-4.7 7.42 1.48-4.42 6.98m3.9-6.76c-9.88 4.56-20.71 6.96-31.71 6.99"/>
<g stroke-width="7">
<g transform="matrix(1 0 0 -1 -104 253.69)">
<path d="m212.05 19.38-74.71 47.81 70.96 41.4"/>
<path d="m189.34 110.07h20l-10-20" stroke-linecap="round"/>
</g>
<g transform="translate(-116.46 14.98)">
<path d="m233.55 7.88-100.21 59.64 85.96 47.82"/>
<path d="m203.34 118.07h20l-10-20" stroke-linecap="round"/>
</g>
</g>
</g>
<path id="b" d="m46.97 9.49c2.53 0 3.8 1.74 3.8 5.21 0 2.1-.51 4.42-1.54 6.97-1.02 2.54-2.19 4.44-3.51 5.7-1.31 1.26-2.67 1.89-4.06 1.89-1.14 0-2.07-.48-2.79-1.45-.71-.98-1.07-2.19-1.07-3.64 0-.93.21-2.21.62-3.86.41-1.64 1.03-3.29 1.85-4.96.82-1.68 1.85-3.07 3.08-4.18 1.24-1.12 2.45-1.68 3.64-1.68zm.85 9.3c.61-1.92.92-3.79.92-5.61 0-2.08-.59-3.12-1.76-3.12-1.03 0-2.04.78-3.04 2.34-.99 1.55-1.9 3.68-2.73 6.38zm-6.88.78c-.84 2.62-1.26 4.62-1.26 6.02 0 .91.19 1.66.56 2.24.37.57.93.86 1.67.86.61 0 1.18-.24 1.72-.72.54-.49 1.17-1.49 1.89-2.98s1.4-3.3 2.04-5.41zm37.95-9.56c1.17 0 2.15.49 2.94 1.46.8.98 1.2 2.52 1.2 4.62 0 1.8-.3 3.65-.89 5.52-.59 1.88-1.43 3.5-2.5 4.88-.86 1.08-1.75 1.87-2.69 2.35-.55.27-1.18.41-1.9.41-1.18 0-2.18-.49-2.98-1.46-.79-.98-1.19-2.52-1.19-4.63 0-2.09.4-4.18 1.2-6.29.94-2.46 2.14-4.33 3.6-5.61.96-.84 2.03-1.26 3.21-1.26zm.01.71c-.53 0-1.07.21-1.61.63-.54.41-1.1 1.27-1.68 2.58-.57 1.31-1.13 3-1.65 5.07-.68 2.71-1.03 5.01-1.03 6.92 0 .95.21 1.66.62 2.13.41.46.91.7 1.49.7.56 0 1.03-.18 1.42-.55 1.05-.98 1.95-2.67 2.69-5.04 1.21-3.89 1.82-7.05 1.82-9.49 0-1.01-.21-1.75-.62-2.23s-.89-.72-1.45-.72z"/>
<path id="c" d="m67.09 20-14.71 6.37v-1.18l12.67-5.5-12.67-5.55v-1.24l14.71 6.43z"/>
<use transform="translate(8.37 220.77)" xlink:href="#b"/>
<use transform="matrix(-1 0 0 1 127.83 220.77)" xlink:href="#c"/>
<use transform="translate(9.87 145.16)" xlink:href="#a"/>
</svg>
