<?xml version="1.0" encoding="UTF-8" standalone="no"?>
<svg
   xmlns:dc="http://purl.org/dc/elements/1.1/"
   xmlns:cc="http://creativecommons.org/ns#"
   xmlns:rdf="http://www.w3.org/1999/02/22-rdf-syntax-ns#"
   xmlns:svg="http://www.w3.org/2000/svg"
   xmlns="http://www.w3.org/2000/svg"
   id="svg5484"
   height="150"
   width="150"
   version="1.0">
  <metadata
     id="metadata3372">
    <rdf:RDF>
      <cc:Work
         rdf:about="">
        <dc:format>image/svg+xml</dc:format>
        <dc:type
           rdf:resource="http://purl.org/dc/dcmitype/StillImage" />
        <dc:title></dc:title>
      </cc:Work>
    </rdf:RDF>
  </metadata>
  <defs
     id="defs5486">
    <marker
       style="overflow:visible"
       id="Arrow1Send"
       orient="auto"
       refY="0"
       refX="0">
      <path
         style="fill-rule:evenodd;stroke:#000000;stroke-width:1pt;marker-start:none"
         id="path3299"
         transform="matrix(-0.2,0,0,-0.2,-1.2,0)"
         d="M 0,0 5,-5 -12.5,0 5,5 0,0 Z" />
    </marker>
    <marker
       style="overflow:visible"
       id="TriangleInM"
       orient="auto"
       refY="0"
       refX="0">
      <path
         style="fill-rule:evenodd;stroke:#000000;stroke-width:1pt;marker-start:none"
         id="path3240"
         transform="scale(-0.4,-0.4)"
         d="m 5.77,0 -8.65,5 0,-10 8.65,5 z" />
    </marker>
    <marker
       style="overflow:visible"
       id="TriangleOutS"
       orient="auto"
       refY="0"
       refX="0">
      <path
         style="fill-rule:evenodd;stroke:#000000;stroke-width:1pt;marker-start:none"
         id="path3252"
         transform="scale(0.2,0.2)"
         d="m 5.77,0 -8.65,5 0,-10 8.65,5 z" />
    </marker>
    <marker
       style="overflow:visible"
       id="TriangleOutM"
       orient="auto"
       refY="0"
       refX="0">
      <path
         style="fill-rule:evenodd;stroke:#000000;stroke-width:1pt;marker-start:none"
         id="path3249"
         transform="scale(0.4,0.4)"
         d="m 5.77,0 -8.65,5 0,-10 8.65,5 z" />
    </marker>
  </defs>
  <path
     d="m 12.75,82.60666 114.42273,0"
     id="path5494"
     style="fill:none;stroke:#000000;stroke-width:7;stroke-linecap:butt;stroke-linejoin:miter;stroke-miterlimit:4;stroke-dasharray:none;stroke-opacity:1;marker-end:none" />
  <path
     id="rect5508"
     d="m 64.75,139.61803 0,-130.999996"
     style="fill:none;stroke:#000000;stroke-width:3;stroke-linecap:butt;stroke-linejoin:miter;stroke-miterlimit:4;stroke-dasharray:none;stroke-dashoffset:0;stroke-opacity:1" />
  <path
     d="m 17.007006,109.9618 12.7246,-12.898621 m -13.59092,9.590911 6.5909,-6.63637 m 1.4091,6.63637 6.5909,-6.63637"
     id="path3371"
     style="fill:none;stroke:#000000;stroke-width:1px;stroke-linecap:butt;stroke-linejoin:miter;stroke-opacity:1" />
  <path
     d="m 18.872777,24.851061 12.7246,-12.89862 m -13.59092,9.59091 6.5909,-6.63636 m 1.4091,6.63636 6.5909,-6.63636"
     id="path5517"
     style="fill:none;stroke:#000000;stroke-width:1px;stroke-linecap:butt;stroke-linejoin:miter;stroke-opacity:1" />
  <path
     d="m 40.392914,37.478577 12.7246,-12.89862 m -13.59092,9.59091 6.5909,-6.63636 m 1.4091,6.63636 6.5909,-6.63636"
     id="path5519"
     style="fill:none;stroke:#000000;stroke-width:1px;stroke-linecap:butt;stroke-linejoin:miter;stroke-opacity:1" />
  <path
     d="m 18.696603,61.639652 12.7246,-12.89862 m -13.59092,9.59091 6.5909,-6.63636 m 1.4091,6.63636 6.5909,-6.63636"
     id="path5523"
     style="fill:none;stroke:#000000;stroke-width:1px;stroke-linecap:butt;stroke-linejoin:miter;stroke-opacity:1" />
  <path
     d="M 109.06818,66.027119 127.25,82.754392 109.43182,99.118028"
     id="path5147"
     style="fill:none;stroke:#000000;stroke-width:7;stroke-linecap:round;stroke-linejoin:miter;stroke-miterlimit:4;stroke-dasharray:none;stroke-opacity:1" />
  <text
     x="81.963936"
     y="133.74559"
     id="text6221"
     xml:space="preserve"
     style="font-style:italic;font-variant:normal;font-weight:normal;font-stretch:normal;font-size:10px;line-height:125%;font-family:'Times New Roman';-inkscape-font-specification:'Times New Roman Italic';text-align:start;writing-mode:lr-tb;text-anchor:start;fill:#000000;fill-opacity:1;stroke:none"><tspan
       x="81.963936"
       y="133.74559"
       id="tspan6223"
       style="font-size:36px">n</tspan></text>
  <path
     style="fill:none;stroke:#000000;stroke-width:1px;stroke-linecap:butt;stroke-linejoin:miter;stroke-opacity:1"
     id="path4233"
     d="m 80.865467,102.41849 -6.636374,6.5909 m 6.988637,-0.2273 -6.5909,-6.63637" />
  <text
     style="font-style:italic;font-variant:normal;font-weight:normal;font-stretch:normal;font-size:6.86617279px;line-height:125%;font-family:'Times New Roman';-inkscape-font-specification:'Times New Roman Italic';text-align:start;writing-mode:lr-tb;text-anchor:start;fill:#000000;fill-opacity:1;stroke:none"
     xml:space="preserve"
     id="text4235"
     y="141.36401"
     x="98.809036"><tspan
       style="font-size:24.71822166px"
       id="tspan4237"
       y="141.36401"
       x="98.809036">2</tspan></text>
  <text
     style="font-style:italic;font-variant:normal;font-weight:normal;font-stretch:normal;font-size:10px;line-height:125%;font-family:'Times New Roman';-inkscape-font-specification:'Times New Roman Italic';text-align:start;writing-mode:lr-tb;text-anchor:start;fill:#000000;fill-opacity:1;stroke:none"
     xml:space="preserve"
     id="text4239"
     y="134.08116"
     x="17.480713"><tspan
       style="font-size:36px"
       id="tspan4241"
       y="134.08116"
       x="17.480713">n</tspan></text>
  <text
     x="34.325813"
     y="141.69958"
     id="text4243"
     xml:space="preserve"
     style="font-style:italic;font-variant:normal;font-weight:normal;font-stretch:normal;font-size:6.86617279px;line-height:125%;font-family:'Times New Roman';-inkscape-font-specification:'Times New Roman Italic';text-align:start;writing-mode:lr-tb;text-anchor:start;fill:#000000;fill-opacity:1;stroke:none"><tspan
       x="34.325813"
       y="141.69958"
       id="tspan4245"
       style="font-size:24.71822166px">1</tspan></text>
  <path
     style="fill:none;stroke:#000000;stroke-width:1px;stroke-linecap:butt;stroke-linejoin:miter;stroke-opacity:1"
     id="path4247"
     d="m 42.696603,70.639652 12.7246,-12.89862 m -13.59092,9.59091 6.5909,-6.63636 m 1.4091,6.63636 6.5909,-6.63636" />
  <path
     style="fill:none;stroke:#000000;stroke-width:1px;stroke-linecap:butt;stroke-linejoin:miter;stroke-opacity:1"
     id="path4249"
     d="m 43.757006,106.9618 12.7246,-12.898621 m -13.59092,9.590911 6.5909,-6.63637 m 1.4091,6.63637 6.5909,-6.63637" />
  <path
     d="m 99.86547,92.66849 -6.636377,6.5909 m 6.988637,-0.2273 -6.5909,-6.63637"
     id="path4251"
     style="fill:none;stroke:#000000;stroke-width:1px;stroke-linecap:butt;stroke-linejoin:miter;stroke-opacity:1" />
  <path
     d="m 82.615467,64.91849 -6.636374,6.5909 m 6.988637,-0.2273 -6.5909,-6.63637"
     id="path4253"
     style="fill:none;stroke:#000000;stroke-width:1px;stroke-linecap:butt;stroke-linejoin:miter;stroke-opacity:1" />
  <path
     style="fill:none;stroke:#000000;stroke-width:1px;stroke-linecap:butt;stroke-linejoin:miter;stroke-opacity:1"
     id="path4255"
     d="m 104.36547,52.91849 -6.636377,6.5909 m 6.988637,-0.2273 -6.5909,-6.63637" />
  <path
     d="m 85.865467,40.16849 -6.636374,6.5909 m 6.988637,-0.2273 -6.5909,-6.63637"
     id="path4257"
     style="fill:none;stroke:#000000;stroke-width:1px;stroke-linecap:butt;stroke-linejoin:miter;stroke-opacity:1" />
  <path
     style="fill:none;stroke:#000000;stroke-width:1px;stroke-linecap:butt;stroke-linejoin:miter;stroke-opacity:1"
     id="path4259"
     d="m 123.61547,35.16849 -6.63638,6.5909 m 6.98864,-0.2273 -6.5909,-6.63637" />
  <path
     d="m 80.61547,14.16849 -6.63638,6.5909 m 6.98864,-0.2273 -6.5909,-6.63637"
     id="path4261"
     style="fill:none;stroke:#000000;stroke-width:1px;stroke-linecap:butt;stroke-linejoin:miter;stroke-opacity:1" />
  <path
     style="fill:none;stroke:#000000;stroke-width:1px;stroke-linecap:butt;stroke-linejoin:miter;stroke-opacity:1"
     id="path4263"
     d="m 98.61547,22.66849 -6.63638,6.5909 m 6.98864,-0.2273 -6.5909,-6.63637" />
  <path
     d="m 119.36547,9.66849 -6.63638,6.5909 m 6.98864,-0.2273 -6.5909,-6.63637"
     id="path4265"
     style="fill:none;stroke:#000000;stroke-width:1px;stroke-linecap:butt;stroke-linejoin:miter;stroke-opacity:1" />
  <path
     style="fill:none;stroke:#000000;stroke-width:1px;stroke-linecap:butt;stroke-linejoin:miter;stroke-opacity:1"
     id="path4267"
     d="m 126.38197,113.17459 -6.63637,6.5909 m 6.98863,-0.2273 -6.5909,-6.63637" />
</svg>
