<svg height="128" width="200" xmlns="http://www.w3.org/2000/svg">
<g fill="none" stroke="#000" transform="translate(27.52 -.75)">
<path d="m3.5 76.58h134.42" stroke-width="7"/>
<path d="m20.5 43v34.29"/>
<path d="m94.68 43.18v34.47"/>
<path d="m22.74 48.5h70.96" stroke-width=".9"/>
<path d="m28.73 43.45-6.91 5.09 6.91 4.36m58.73 0 6-4.36-6-5.09"/>
<path d="m123.27 59.45 18.18 16.73-17.82 16.36" stroke-linecap="round" stroke-width="7"/>
</g>
<path d="m90.29 42.44h-17.67l.25-.65q1.41-.04 1.88-.23.74-.32 1.09-.83.54-.81 1.16-2.92l4.2-14.5q.53-1.79.53-2.64 0-.67-.49-1.04-.47-.37-1.81-.37-.3 0-.47-.02l.21-.65h9.72l-.14.65q-1.63 0-2.32.32-.69.32-1.14 1.04-.32.47-1.04 2.95l-4.13 14.26q-.47 1.62-.47 2.25 0 .42.47.81.3.26 1.35.26h2.3q2.51 0 3.99-.63 1.09-.47 2-1.42.49-.53 1.74-2.62l.46-.79h.65z"/>
<path d="m143.77 6.25c-11.79 8.92 1.99 21.17 1.84 31-.17 11.92-10.03 15.97-5.28 25.46 5.66 11.3-3.47 20.24-4.17 29.67-.75 10.14 8.48 10.28 8.76 19.39.21 6.65-2.83 10.1-6.16 13.72" fill="none" stroke="#000"/>
<path d="m38.77 4c-6.76 10.07 1.51 18.01 1.67 25.24.22 9.66-6.33 16.24-1.11 26.68 4.18 8.35 3.95 17.54-.81 25.22-5.95 9.62 5.54 15.3 4.3 24.89-.9 6.94-6.76 10.48-9.3 16.22" fill="none" stroke="#000"/>
<path d="m105.11 105.33-2.34 8q3.29-4.9 5.03-6.45 1.76-1.55 3.38-1.55.88 0 1.44.58.58.58.58 1.51 0 1.05-.51 2.81l-2.14 7.4q-.37 1.28-.37 1.56 0 .25.14.42.14.16.3.16.21 0 .51-.23.93-.74 2.04-2.25l.54.33q-1.63 2.34-3.09 3.34-1.02.69-1.83.69-.65 0-1.04-.4-.39-.39-.39-1.05 0-.84.6-2.9l2.04-7.07q.39-1.32.39-2.06 0-.35-.23-.56-.23-.23-.56-.23-.49 0-1.18.42-1.3.79-2.71 2.62-1.41 1.81-2.97 4.64-.83 1.49-1.37 3.27l-.88 2.9h-2.64l3.2-11q.56-1.99.56-2.39 0-.39-.32-.67-.3-.3-.76-.3-.21 0-.74.07l-.67.11-.11-.63z"/>
<g fill="none" stroke="#000" transform="translate(27.52 -.75)">
<path d="m90.87 20.2 12.72-12.9m-13.59 9.59 6.59-6.64m1.41 6.64 6.59-6.64"/>
<path d="m74.82 41.45 12.72-12.9m-13.59 9.59 6.59-6.64m1.41 6.64 6.59-6.64"/>
<path d="m14.07 18.65 12.72-12.9m-13.59 9.59 6.59-6.64m1.41 6.64 6.59-6.64"/>
<path d="m32.07 68.2 12.72-12.9m-13.59 9.59 6.59-6.64m1.41 6.64 6.59-6.64"/>
<path d="m65.32 68.2 12.72-12.9m-13.59 9.59 6.59-6.64m1.41 6.64 6.59-6.64"/>
<path d="m87.87 97.2 12.72-12.9m-13.59 9.59 6.59-6.64m1.41 6.64 6.59-6.64"/>
<path d="m19.57 97.7 12.72-12.9m-13.59 9.59 6.59-6.64m1.41 6.64 6.59-6.64"/>
<path d="m45.87 117.45 12.72-12.9m-13.59 9.59 6.59-6.64m1.41 6.64 6.59-6.64"/>
<path d="m18.57 121.2 12.72-12.9m-13.59 9.59 6.59-6.64m1.41 6.64 6.59-6.64"/>
<path d="m101.28 49.2 12.72-12.9m-13.59 9.59 6.59-6.64m1.41 6.64 6.59-6.64"/>
<path d="m96.28 121.95 12.72-12.9m-13.59 9.59 6.59-6.64m1.41 6.64 6.59-6.64"/>
<path d="m56.07 95.7 12.72-12.9m-13.59 9.59 6.59-6.64m1.41 6.64 6.59-6.64"/>
<path d="m63.82 17.2 12.72-12.9m-13.59 9.59 6.59-6.64m1.41 6.64 6.59-6.64"/>
<path d="m24.57 36.95 12.72-12.9m-13.59 9.59 6.59-6.64m1.41 6.64 6.59-6.64"/>
</g>
</svg>
