<svg height="250" width="200" xmlns="http://www.w3.org/2000/svg">
  <g fill="none">
    <path d="m87.757006 149.2118 12.724604-12.89862m-13.590924 9.59091 6.5909-6.63637m1.4091 6.63637 6.590904-6.63637" stroke="#a3a3a3"/>
    <path d="m28.223912 22.25276 12.7246-12.898616m-13.59092 9.59091 6.5909-6.63636m1.4091 6.63636 6.5909-6.63636" stroke="#a3a3a3"/>
    <path d="m56.693482 86.57687 12.7246-12.89862m-13.59092 9.59091 6.5909-6.63636m1.4091 6.63636 6.5909-6.63636" stroke="#a3a3a3"/>
    <path d="m70.154551 20.79419 12.7246-12.8986201m-13.59092 9.5909101 6.5909-6.63636m1.4091 6.63636 6.5909-6.63636" stroke="#a3a3a3"/>
    <path d="m20.5 63.35666h150.42273" stroke="#000" stroke-width="7"/>
    <path d="m156.81818 46.77712 18.18182 16.72727-17.81818 16.36364" stroke="#000" stroke-linecap="round" stroke-width="7"/>
    <path d="m133.11547 80.66849-6.63638 6.5909m6.98864-.2273-6.5909-6.63637" stroke="#a3a3a3"/>
    <path d="m21.507006 100.2118 12.7246-12.89862m-13.59092 9.59091 6.5909-6.63637m1.4091 6.63637 6.5909-6.63637" stroke="#a3a3a3"/>
    <path d="m106.36831 79.67701-6.63638 6.5909m6.98864-.2273-6.5909-6.63637" stroke="#a3a3a3"/>
    <path d="m175.57626 31.96622-6.63638 6.5909m6.98864-.2273-6.5909-6.63637" stroke="#a3a3a3"/>
    <path d="m99.87398 44.7219-6.63637 6.5909m6.98864-.2273-6.5909-6.63637" stroke="#a3a3a3"/>
    <path d="m168.36547 7.4184899-6.63638 6.5909001m6.98864-.2273-6.5909-6.6363701" stroke="#a3a3a3"/>
    <path d="m110.86547 18.41849-6.63638 6.5909m6.98864-.2273-6.5909-6.63637" stroke="#a3a3a3"/>
    <path d="m121.1632 114.51395-6.63638 6.5909m6.98864-.2273-6.5909-6.63637" stroke="#a3a3a3"/>
    <path d="m132.61547 44.41849-6.63638 6.5909m6.98864-.2273-6.5909-6.63637" stroke="#a3a3a3"/>
    <path d="m174.53651 82.728-6.63637 6.5909m6.98863-.2273-6.5909-6.63637" stroke="#a3a3a3"/>
  </g>
  <g font-family="Times New Roman" font-style="italic" transform="translate(-1.353553 -81.33434)">
    <text font-size="10" x="45.874611" y="214.29723"><tspan font-size="36" x="45.874611" y="214.29723">n</tspan></text>
    <text font-size="5.18307" x="63.017052" y="219.66565"><tspan font-size="18.65905" x="63.017052" y="219.66565">1</tspan></text>
  </g>
  <g font-family="Times New Roman" font-style="italic" transform="translate(22 -80.45934)">
    <text font-size="10" x="113.13847" y="213.42223"><tspan font-size="36" x="113.13847" y="213.42223">n</tspan></text>
    <text font-size="6.027103" x="128.20628" y="220.54065"><tspan font-size="21.697573" x="128.20628" y="220.54065">2</tspan></text>
  </g>
  <path d="m71.461249 125.03272 12.7246-12.89862m-13.59092 9.59091 6.5909-6.63636m1.4091 6.63636 6.5909-6.63636" fill="none" stroke="#a3a3a3"/>
  <path d="m21.688987 134.81409 12.7246-12.89862m-13.59092 9.59091 6.5909-6.63637m1.4091 6.63637 6.5909-6.63637" fill="none" stroke="#a3a3a3"/>
  <path d="m104.77216 122.68136c-14.434661-15.41946-23.27216-36.143353-23.27216-58.93136 0-23.057713 9.047928-44.00217 23.78703-59.476612" fill="none" stroke="#000" stroke-linecap="round" stroke-linejoin="round" stroke-width="3"/>
  <path d="m105.02965 240.68136c14.43466-15.41946 23.27216-36.14335 23.27216-58.93136 0-23.05771-9.04793-44.00217-23.78703-59.47661" fill="none" stroke="#000" stroke-linecap="round" stroke-linejoin="round" stroke-width="3"/>
  <g fill="none" stroke="#000" stroke-width="7" transform="translate(0 124)">
    <path d="m20.5 63.35666h150.42273"/>
    <path d="m156.81818 46.77712 18.18182 16.72727-17.81818 16.36364" stroke-linecap="round"/>
  </g>
  <text font-family="Times New Roman" font-size="10" font-style="italic" x="124.7334" y="235.67383"><tspan font-size="28" x="124.7334" y="235.67383">R&gt;0</tspan></text>
  <text font-family="Times New Roman" font-size="10" font-style="italic" x="23.733398" y="51.673828"><tspan font-size="28" x="23.733398" y="51.673828">R&lt;0</tspan></text>
  <path d="m101.18899 174.31409 12.7246-12.89862m-13.59092 9.59091 6.5909-6.63637m1.4091 6.63637 6.5909-6.63637" fill="none" stroke="#a3a3a3"/>
  <path d="m99.18899 211.81409 12.7246-12.89862m-13.59092 9.59091 6.5909-6.63637m1.4091 6.63637 6.5909-6.63637" fill="none" stroke="#a3a3a3"/>
  <path d="m70.18899 234.81409 12.7246-12.89862m-13.59092 9.59091 6.5909-6.63637m1.4091 6.63637 6.5909-6.63637" fill="none" stroke="#a3a3a3"/>
  <path d="m57.68899 211.31409 12.7246-12.89862m-13.59092 9.59091 6.5909-6.63637m1.4091 6.63637 6.5909-6.63637" fill="none" stroke="#a3a3a3"/>
  <path d="m27.18899 231.31409 12.7246-12.89862m-13.59092 9.59091 6.5909-6.63637m1.4091 6.63637 6.5909-6.63637" fill="none" stroke="#a3a3a3"/>
  <path d="m63.688987 178.31409 12.7246-12.89862m-13.59092 9.59091 6.5909-6.63637m1.4091 6.63637 6.5909-6.63637" fill="none" stroke="#a3a3a3"/>
  <path d="m24.688987 173.81409 12.7246-12.89862m-13.59092 9.59091 6.5909-6.63637m1.4091 6.63637 6.5909-6.63637" fill="none" stroke="#a3a3a3"/>
  <path d="m150.6632 97.01395-6.63638 6.5909m6.98864-.2273-6.5909-6.63637" fill="none" stroke="#a3a3a3"/>
  <path d="m140.1632 20.51395-6.63638 6.5909m6.98864-.2273-6.5909-6.63637" fill="none" stroke="#a3a3a3"/>
  <path d="m176.6632 112.51395-6.63638 6.5909m6.98864-.2273-6.5909-6.63637" fill="none" stroke="#a3a3a3"/>
  <path d="m178.1632 152.51395-6.63638 6.5909m6.98864-.2273-6.5909-6.63637" fill="none" stroke="#a3a3a3"/>
  <path d="m143.6632 163.51395-6.63638 6.5909m6.98864-.2273-6.5909-6.63637" fill="none" stroke="#a3a3a3"/>
  <path d="m142.1632 201.51395-6.63638 6.5909m6.98864-.2273-6.5909-6.63637" fill="none" stroke="#a3a3a3"/>
  <path d="m179.6632 204.51395-6.63638 6.5909m6.98864-.2273-6.5909-6.63637" fill="none" stroke="#a3a3a3"/>
</svg>
