<svg height="250" width="200" xmlns="http://www.w3.org/2000/svg" xmlns:xlink="http://www.w3.org/1999/xlink">
<g fill="none">
<path d="m69 64.73v128.47m52-128.47v128.47" stroke="#8c8c8c"/>
<g stroke="#000">
<path d="m61.88 135.47-3.13 5.06c14.38 28.67 14.48 68.54.56 100.03l2.75 3.94h67.03l2.72-3.94c-14.8-31.49-14.53-71.36.56-100.03l-3.09-5.06z" stroke-width="3"/>
<path d="m78.47 5.47c-13.26 24.93-13.26 84.46 0 109.03h24.63c26.45-25.58 21.06-85.1 0-109.03z" stroke-width="3"/>
<path d="m75.14 154.23 12.72-12.9m-13.59 9.59 6.59-6.64m1.41 6.64 6.59-6.64"/>
<path d="m71.14 237.23 12.72-12.9m-13.59 9.59 6.59-6.64m1.41 6.64 6.59-6.64"/>
<path d="m74.34 55.5 12.72-12.9m-13.59 9.59 6.59-6.64m1.41 6.64 6.59-6.64"/>
<path d="m76.34 86.9 12.72-12.9m-13.59 9.59 6.59-6.64m1.41 6.64 6.59-6.64"/>
<path d="m80.23 24.89 12.72-12.9m-13.59 9.59 6.59-6.64m1.41 6.64 6.59-6.64"/>
<g stroke-width="7" transform="translate(-19.18 1.23)">
<path d="m20.5 63.36h186.42"/>
<path d="m190.82 46.78 18.18 16.73-17.82 16.36" stroke-linecap="round"/>
</g>
<g stroke-width="7" transform="translate(-19.18 128.87)">
<path d="m20.5 63.36h186.42"/>
<path d="m190.82 46.78 18.18 16.73-17.82 16.36" stroke-linecap="round"/>
</g>
<path d="m78.83 176.5 12.72-12.9m-13.59 9.59 6.59-6.64m1.41 6.64 6.59-6.64"/>
<path d="m101.9 155.55 12.72-12.9m-13.59 9.59 6.59-6.64m1.41 6.64 6.59-6.64"/>
<path d="m97.13 183.77 12.72-12.9m-13.59 9.59 6.59-6.64m1.41 6.64 6.59-6.64"/>
<path d="m96.86 222.13 12.72-12.9m-13.59 9.59 6.59-6.64m1.41 6.64 6.59-6.64"/>
<path d="m106.72 239.38 12.72-12.9m-13.59 9.59 6.59-6.64m1.41 6.64 6.59-6.64"/>
<path d="m78.55 212.97 12.72-12.9m-13.59 9.59 6.59-6.64m1.41 6.64 6.59-6.64"/>
<path d="m94.5 37.82 12.72-12.9m-13.59 9.59 6.59-6.64m1.41 6.64 6.59-6.64"/>
<path d="m86.6 107.76 12.72-12.9m-13.59 9.59 6.59-6.64m1.41 6.64 6.59-6.64"/>
<path d="m101.45 86.9 12.72-12.9m-13.59 9.59 6.59-6.64m1.41 6.64 6.59-6.64"/>
<path d="m102.27 58.68 12.72-12.9m-13.59 9.59 6.59-6.64m1.41 6.64 6.59-6.64"/>
</g>
</g>
<path id="a" d="m31.88 41.52 14.71-6.37v1.19l-12.66 5.5 12.66 5.55v1.23l-14.71-6.43z"/>
<path id="b" d="m28.22 43.56-2.93 10.21q-.26.9-.26 1.3 0 .34.23.52.24.17 1.09.24l-.09.34h-4.69l.13-.34q.75-.02.98-.12.38-.16.57-.44.3-.42.61-1.5l2.12-7.33q.19-.67.21-.77.03-.18.03-.36 0-.32-.17-.5-.17-.18-.47-.18-.24 0-.74.11l-.12-.33 3.07-.86z"/>
<path id="c" d="m150.57 35.67h-6.15v-.34q4.7-4.12 6.21-6.46.7-1.08.7-2.28 0-.95-.58-1.54-.58-.6-1.51-.6-1.28 0-2.11 1.23l-.32-.15q.46-1.18 1.36-1.82.89-.66 1.93-.66 1.18 0 1.98.81.8.8.8 1.95 0 .8-.28 1.49-.44 1.07-1.61 2.39-1.79 2.02-4.77 4.66h3.1q.75 0 1.23-.31.48-.31.69-.83h.36z"/>
<path d="m123.1 121.66h17.81" fill="none" stroke="#000" stroke-width="1.02"/>
<path d="m127.14 117.34-4.91 4.18 4.91 3.82" fill="none" stroke="#000"/>
<path d="m44.51 119.37h-17.67l.25-.65q1.41-.04 1.88-.23.74-.32 1.09-.83.54-.81 1.16-2.92l4.2-14.49q.53-1.79.53-2.64 0-.67-.49-1.04-.47-.37-1.81-.37-.3 0-.47-.02l.21-.65h9.72l-.14.65q-1.63 0-2.32.32-.69.32-1.14 1.04-.32.47-1.04 2.95l-4.13 14.26q-.47 1.62-.47 2.25 0 .42.47.81.3.26 1.35.26h2.3q2.51 0 3.99-.63 1.09-.47 2-1.42.49-.53 1.74-2.62l.46-.79h.65z"/>
<g fill="none" stroke="#000">
<path d="m21.1 121.66h45.81" stroke-width="1.02"/>
<path d="m62.89 117.34 4.91 4.36-4.91 3.64"/>
<path d="m61.1 121.66h65.81" stroke-width="1.02"/>
<g transform="matrix(.97 -.26 .26 .97 -5.88 157.6)">
<path d="m129.86 98.59-28.55-22.91" stroke-width="1.5"/>
<path d="m102.77 81.68-1.82-6.36 7.45 1.27"/>
</g>
</g>
<path d="m154.75 218.35-2.34 8q3.29-4.9 5.03-6.45 1.76-1.55 3.38-1.55.88 0 1.44.58.58.58.58 1.51 0 1.05-.51 2.81l-2.14 7.4q-.37 1.28-.37 1.56 0 .25.14.42.14.16.3.16.21 0 .51-.23.93-.74 2.04-2.25l.54.33q-1.63 2.34-3.09 3.34-1.02.69-1.83.69-.65 0-1.04-.4-.39-.39-.39-1.05 0-.84.6-2.9l2.04-7.07q.39-1.32.39-2.06 0-.35-.23-.56-.23-.23-.56-.23-.49 0-1.18.42-1.3.79-2.71 2.62-1.41 1.81-2.97 4.64-.83 1.49-1.37 3.27l-.88 2.9h-2.64l3.2-11q.56-1.99.56-2.39 0-.39-.32-.67-.3-.3-.76-.3-.21 0-.74.07l-.67.11-.11-.63z"/>
<use transform="translate(-2 128)" xlink:href="#b"/>
<use transform="translate(6.24 134)" xlink:href="#c"/>
<path id="d" d="m17.36 51.17-2.97-9.01c-.69.01-1.4-.06-2.13-.21l-1.6 5.61c-.21.73-.31 1.34-.31 1.85 0 .38.13.68.4.9.2.16.75.28 1.64.36l-.12.51h-7.18l.15-.52c.67-.02 1.13-.09 1.37-.2.37-.16.64-.37.82-.63.29-.43.59-1.18.91-2.27l3.24-11.2c.22-.75.33-1.33.33-1.74 0-.42-.17-.77-.52-1.07-.34-.29-.82-.43-1.46-.42l.16-.51h6.04c2.02 0 3.48.38 4.38 1.15.89.77 1.34 1.77 1.34 3.02 0 1.19-.46 2.29-1.38 3.28-.91.98-2.16 1.61-3.76 1.87l1.8 5.43c.44 1.33.88 2.2 1.31 2.6.44.4 1.14.63 2.12.68l-.15.51zm-4.87-9.99c.58.08 1.1.12 1.56.12 1.57 0 2.81-.43 3.72-1.3.91-.88 1.37-1.96 1.37-3.25 0-1.01-.29-1.79-.86-2.32-.57-.54-1.42-.81-2.56-.81-.29 0-.64.04-1.04.11zm45.91-8.93c1.17 0 2.15.49 2.94 1.46.8.98 1.2 2.52 1.2 4.62 0 1.8-.3 3.65-.89 5.52-.59 1.88-1.43 3.5-2.5 4.88-.86 1.08-1.75 1.87-2.69 2.35-.55.27-1.18.41-1.9.41-1.18 0-2.18-.49-2.98-1.46-.79-.98-1.19-2.52-1.19-4.63 0-2.09.4-4.18 1.2-6.29.94-2.46 2.14-4.33 3.6-5.61.96-.84 2.03-1.26 3.21-1.26zm.01.71c-.53 0-1.07.21-1.61.63-.54.41-1.1 1.27-1.68 2.58-.57 1.31-1.13 3-1.65 5.07-.68 2.71-1.03 5.01-1.03 6.92 0 .95.21 1.66.62 2.13.41.46.91.7 1.49.7.56 0 1.03-.18 1.42-.55 1.05-.98 1.95-2.67 2.69-5.04 1.21-3.89 1.82-7.05 1.82-9.49 0-1.01-.21-1.75-.62-2.23s-.89-.72-1.45-.72z"/>
<use transform="translate(130.64 113)" xlink:href="#a"/>
<use transform="translate(130.64 113)" xlink:href="#d"/>
<use transform="matrix(-1 0 0 1 202.48 -21)" xlink:href="#a"/>
<use transform="translate(124 -21)" xlink:href="#d"/>
<use transform="matrix(-1 0 0 1 76.48 128)" xlink:href="#a"/>
<use transform="translate(-2 128)" xlink:href="#d"/>
</svg>
