<svg height="385" width="260" xmlns="http://www.w3.org/2000/svg" xmlns:xlink="http://www.w3.org/1999/xlink">
<linearGradient id="a" gradientTransform="matrix(.83 0 0 1 33.35 3.98)" gradientUnits="userSpaceOnUse" x1="75.63" x2="75.63" y1="49.2" y2="206.53">
<stop offset="0" stop-color="#f0f0f0"/>
<stop offset=".5" stop-color="#6a6a6a"/>
<stop offset="1" stop-color="#f0f0f0"/>
</linearGradient>
<linearGradient id="b" gradientTransform="matrix(.83 0 0 1 33.35 171.98)" gradientUnits="userSpaceOnUse" x1="75.63" x2="75.63" y1="50.28" y2="206.81">
<stop offset="0" stop-color="#6a6a6a"/>
<stop offset=".5" stop-color="#f0f0f0"/>
<stop offset="1" stop-color="#6a6a6a"/>
</linearGradient>
<g stroke="#000">
<path d="m49.52 221.48h97v157h-97z" fill="url(#b)" stroke-width="3"/>
<g fill="none">
<path d="m3.52 299.98h250.42" stroke-width="4"/>
<path d="m248.02 305.98 7-6-7-6" stroke-linecap="round" stroke-width="3"/>
<path d="m252.52 236.2.71-9.19-9.19.71" stroke-linecap="round" stroke-width="3"/>
<path d="m3.52 280.98h66.79c80.53 0 134.88-14.59 181.63-51.99" stroke-width="4"/>
</g>
<path d="m49.52 53.48h97v157h-97z" fill="url(#a)" stroke-width="3"/>
<g fill="none">
<path d="m3.52 131.98h250.42" stroke-width="4"/>
<path d="m147.52 30.8v34.47"/>
<path d="m50.43 34.48h95.47" stroke-width="1.02"/>
<path d="m141.66 30.16 4.91 4.36-4.91 3.64m-87-8-4.91 4.18 4.91 3.82"/>
</g>
</g>
<path d="m105.78 27.97h-17.67l.25-.65q1.41-.04 1.88-.23.74-.32 1.09-.83.54-.81 1.16-2.92l4.2-14.5q.53-1.79.53-2.64 0-.67-.49-1.04-.47-.37-1.81-.37-.3 0-.47-.02l.21-.65h9.72l-.14.65q-1.63 0-2.32.32-.69.32-1.14 1.04-.32.47-1.04 2.95l-4.14 14.27q-.47 1.62-.47 2.25 0 .42.47.81.3.26 1.35.26h2.3q2.51 0 3.99-.63 1.09-.47 2-1.42.49-.53 1.74-2.62l.46-.79h.65z"/>
<g fill="none" stroke="#000">
<path d="m3.52 71.04h66.79c80.53 0 134.88 42.59 181.63 79.99" stroke-width="4"/>
<path d="m48.52 30.8v34.47"/>
<g stroke-linecap="round" stroke-width="3">
<path d="m248.02 137.98 7-6-7-6"/>
<path d="m252.52 120.2.71-9.19-9.19.71"/>
<path d="m252.52 143.78.71 9.19-9.19-.71"/>
</g>
</g>
<path id="c" d="m91.56 101.8-2.34 8q3.29-4.9 5.03-6.45 1.76-1.55 3.38-1.55.88 0 1.44.58.58.58.58 1.51 0 1.05-.51 2.81l-2.14 7.4q-.37 1.28-.37 1.56 0 .25.14.42.14.16.3.16.21 0 .51-.23.93-.74 2.04-2.25l.54.33q-1.63 2.34-3.09 3.34-1.02.69-1.83.69-.65 0-1.04-.4-.39-.39-.39-1.05 0-.84.6-2.9l2.04-7.07q.39-1.32.39-2.06 0-.35-.23-.56-.23-.23-.56-.23-.49 0-1.18.42-1.3.79-2.71 2.62-1.41 1.81-2.97 4.64-.83 1.49-1.37 3.27l-.89 2.91h-2.64l3.2-11q.56-1.99.56-2.39 0-.39-.32-.67-.3-.3-.76-.3-.21 0-.74.07l-.67.11-.11-.63z"/>
<path d="m108.84 107.98q1.58 0 2.65 1.32 1.09 1.32 1.09 4.17 0 2.44-.8 4.99-.8 2.54-2.26 4.41-1.16 1.47-2.43 2.12-.74.37-1.72.37-1.6 0-2.69-1.32-1.07-1.32-1.07-4.18 0-2.83 1.09-5.68 1.27-3.33 3.25-5.06 1.3-1.14 2.9-1.14zm.01.64q-.72 0-1.46.57-.73.56-1.52 2.33-.78 1.78-1.49 4.58-.93 3.67-.93 6.25 0 1.28.56 1.93.56.63 1.35.63.75 0 1.28-.49 1.42-1.33 2.43-4.55 1.64-5.27 1.64-8.57 0-1.37-.56-2.01-.56-.65-1.31-.65z" transform="scale(.99 1.01)"/>
<path d="m3.52 192.98h66.79c80.53 0 134.88-42.59 181.63-79.99" fill="none" stroke="#000" stroke-width="4"/>
<path id="d" d="m217.16 60.95-18.91 8.19v-1.51l16.29-7.07-16.29-7.14v-1.6l18.91 8.26z"/>
<path id="e" d="m194.68 80.24h-8.33v-.46q6.37-5.58 8.42-8.75.95-1.47.95-3.09 0-1.28-.79-2.09-.79-.81-2.05-.81-1.74 0-2.86 1.67l-.43-.2q.63-1.59 1.84-2.47 1.21-.89 2.62-.89 1.59 0 2.68 1.1 1.09 1.09 1.09 2.64 0 1.09-.38 2.01-.59 1.44-2.18 3.23-2.42 2.74-6.46 6.31h4.2q1.01 0 1.67-.42.65-.42.94-1.12h.49z" transform="scale(.99 1.01)"/>
<g fill="none" stroke="#000">
<path d="m252.52 364.16.71 9.19-9.19-.71" stroke-linecap="round" stroke-width="3"/>
<path d="m3.52 319.38h66.79c80.53 0 134.88 14.59 181.63 51.99" stroke-width="4"/>
</g>
<use id="f" transform="translate(85 -45.28)" xlink:href="#c"/>
<path id="g" d="m232.35 48.1c1.5 0 2.76.63 3.78 1.88 1.03 1.25 1.55 3.23 1.55 5.94 0 2.32-.38 4.69-1.14 7.1s-1.83 4.51-3.22 6.28c-1.1 1.39-2.26 2.4-3.46 3.02-.7.35-1.52.53-2.44.53-1.52 0-2.8-.63-3.83-1.88-1.02-1.25-1.53-3.24-1.53-5.96 0-2.68.52-5.38 1.55-8.09 1.21-3.16 2.75-5.57 4.62-7.21 1.23-1.08 2.61-1.62 4.13-1.62zm.02.91c-.68 0-1.37.27-2.07.81-.69.53-1.41 1.63-2.16 3.32-.74 1.69-1.45 3.86-2.13 6.52-.88 3.48-1.32 6.45-1.32 8.89 0 1.22.26 2.13.79 2.74.53.6 1.17.9 1.92.9.71 0 1.32-.23 1.83-.7 1.35-1.27 2.5-3.43 3.46-6.49 1.56-5 2.34-9.07 2.34-12.2 0-1.3-.26-2.26-.79-2.87-.53-.62-1.15-.93-1.86-.93z"/>
<use transform="matrix(-1 0 0 1 405.62 164.18)" xlink:href="#d"/>
<g transform="translate(-9.79 164.18)">
<use xlink:href="#e"/>
<use xlink:href="#f"/>
<use xlink:href="#g"/>
</g>
</svg>
