<svg height="24" width="24" xmlns="http://www.w3.org/2000/svg" xmlns:xlink="http://www.w3.org/1999/xlink">
  <linearGradient id="a" gradientUnits="userSpaceOnUse" x1="14.417367" x2="14.417367" y1="-3.758862" y2="17.241138">
    <stop offset="0" stop-color="#dbf6ff"/>
    <stop offset="1" stop-color="#7ddcfd"/>
  </linearGradient>
  <g stroke-linecap="round">
    <path d="m11.222797-4.364495h6.054427v21.525425h-6.054427z" fill="url(#a)" fill-rule="evenodd" stroke="#00b4ff" stroke-dashoffset="21.443998" transform="matrix(.8986833 .4385982 -.4385982 .8986833 0 0)"/>
    <path d="m10.036732 7.4775264 3.509678-3.350402m-1.509677 4.350402 3.509677-3.350402" fill="none" stroke="#00b4ff" stroke-width=".6"/>
    <path d="m4.2331925 19.350402 3.5096779-3.350402m-1.509677 4.350402 3.509677-3.350402" fill="none" stroke="#00b4ff" stroke-width=".7"/>
    <path d="m-1.7187269 10.531316h9.1529699l4.67212 3.994294h9.024757" fill="none" stroke="#f00" stroke-width="3"/>
    <path d="m18.504706 10.568774 4 3.948792-4.031855 4.012501" fill="none" stroke="#f00" stroke-linejoin="round" stroke-width="3"/>
  </g>
  <path d="m7.088176 12.214142 1.3488011-2.7880839 3.9891619 3.3916859-1.375753 2.786891z" fill="#da9999" fill-rule="evenodd"/>
  <path d="m2.8610699 3.2591052h3.6680804v.8832489h-3.6680804zm1.8392358-2.4730967q-1.1430279 0-1.8132579.8520753-.6754256.8520754-.6754256 2.3224249 0 1.4651539.67023 2.3172293.6754256.8520753 1.8184535.8520753 1.1430279 0 1.8132578-.8520753.6650345-.8520754.6650345-2.3172293 0-1.4703495-.6650345-2.3224249-.6702299-.8520753-1.8132578-.8520753zm0-.85207535q1.6314125 0 2.6081818 1.09626765.9767693 1.0910721.9767693 2.9303079 0 1.8340402-.9767693 2.9251123-.9767693 1.0962677-2.6081818 1.0962677-1.6366082 0-2.6133775-1.0910721-.9819648-1.0910721-.9819648-2.9303079 0-1.8392358.9819648-2.9355035.9767693-1.09107205 2.6133775-1.09107205z" transform="scale(.9907912 1.0092943)"/>
</svg>
