<svg height="385" width="320" xmlns="http://www.w3.org/2000/svg" xmlns:xlink="http://www.w3.org/1999/xlink">
  <linearGradient id="a" gradientTransform="matrix(1.11 0 0 1 69.1 1)" gradientUnits="userSpaceOnUse" x1="75.63" x2="75.63" y1="48.89" y2="206.11">
    <stop offset="0" stop-color="#6a6a6a"/>
    <stop offset=".5" stop-color="#f0f0f0"/>
    <stop offset="1" stop-color="#6a6a6a"/>
  </linearGradient>
  <linearGradient id="b" gradientTransform="matrix(1.11 0 0 1 69.1 171)" gradientUnits="userSpaceOnUse" x1="75.63" x2="75.63" y1="48.89" y2="206.81">
    <stop offset="0" stop-color="#f0f0f0"/>
    <stop offset=".5" stop-color="#6a6a6a"/>
    <stop offset="1" stop-color="#f0f0f0"/>
  </linearGradient>
  <path d="m90.83 220.5h130.34c5.31 4.09 12.72 16.41 3.93 31.25-13.21 22.29-2.5 25.88 2.71 41.28 6.39 18.92-17.85 32.36-3.31 55.15 12.1 18.96-6.53 26.36-3.33 29.32h-130.34c4.35-10.63 8.33-23.41.75-36.17-9.95-16.75 9.78-34.82 3.75-46.66-10.47-20.56-7.37-35.69-2.75-43.56 4.64-7.91 6.32-19.19-1.75-30.61z" fill="url(#b)"/>
  <path d="m90.83 50.5h130.34c5.31 4.09 12.72 16.41 3.93 31.25-13.21 22.29-2.5 25.88 2.71 41.28 6.39 18.92-17.85 32.36-3.31 55.15 12.1 18.96-6.53 26.36-3.33 29.32h-130.34c4.35-10.63 8.33-23.41.75-36.17-9.95-16.75 9.78-34.82 3.75-46.66-10.47-20.56-7.37-35.69-2.75-43.56 4.64-7.91 6.32-19.19-1.75-30.61z" fill="url(#a)"/>
  <path d="m91.5 220.5h129m0 157h-129" fill="none" stroke="#000" stroke-width="3"/>
  <path d="m91.5 50.5h129m0 157h-129" fill="none" stroke="#000" stroke-width="3"/>
  <path d="m106.5 51.82v154.47m99-154.47v154.47" fill="none" stroke="#000" stroke-dasharray="3 3"/>
  <g fill="none" stroke="#000" transform="translate(58)">
    <path d="m-52.48 299.98h306.42" stroke-width="4"/>
    <path d="m248.02 305.98 7-6-7-6" stroke-linecap="round" stroke-width="3"/>
    <path d="m252.52 236.2.71-9.19-9.19.71" stroke-linecap="round" stroke-width="3"/>
    <path d="m-52.48 280.98h122.79c80.53 0 134.88-14.59 181.63-51.99" stroke-width="4"/>
  </g>
  <g fill="none" stroke="#000" transform="translate(58)">
    <path d="m-52.48 131.98h306.42" stroke-width="4"/>
    <path d="m147.52 30.8v34.47"/>
    <path d="m50.43 34.48h95.47" stroke-width="1.02"/>
    <path d="m141.66 30.16 4.91 4.36-4.91 3.64m-87-8-4.91 4.18 4.91 3.82"/>
  </g>
  <path d="m163.78 27.97h-17.67l.25-.65q1.41-.04 1.88-.23.74-.32 1.09-.83.54-.81 1.16-2.92l4.2-14.5q.53-1.79.53-2.64 0-.67-.49-1.04-.47-.37-1.81-.37-.3 0-.47-.02l.21-.65h9.72l-.14.65q-1.63 0-2.32.32-.69.32-1.14 1.04-.32.47-1.04 2.95l-4.13 14.26q-.47 1.62-.47 2.25 0 .42.47.81.3.26 1.35.26h2.3q2.51 0 3.99-.63 1.09-.47 2-1.42.49-.53 1.74-2.62l.46-.79h.65z"/>
  <g fill="none" stroke="#000" transform="translate(58)">
    <path d="m-52.48 83.04h122.79c80.53 0 134.88 30.59 181.63 67.99" stroke-width="4"/>
    <path d="m48.52 30.8v34.47"/>
    <g stroke-linecap="round" stroke-width="3">
      <path d="m248.02 137.98 7-6-7-6"/>
      <path d="m252.52 120.2.71-9.19-9.19.71"/>
      <path d="m252.52 143.78.71 9.19-9.19-.71"/>
    </g>
  </g>
  <path d="m165.3 111.4c.77 0 1.41.33 1.93.98.53.65.79 1.69.79 3.1 0 1.21-.19 2.44-.58 3.7s-.94 2.35-1.64 3.27c-.56.73-1.15 1.25-1.77 1.58-.36.18-.77.27-1.25.27-.78 0-1.43-.33-1.96-.98-.52-.65-.78-1.69-.78-3.1 0-1.4.26-2.8.79-4.21.62-1.65 1.4-2.9 2.36-3.75.63-.56 1.33-.84 2.11-.84zm.01.48c-.35 0-.7.14-1.06.42-.35.27-.72.85-1.1 1.73s-.74 2.01-1.09 3.4c-.45 1.81-.67 3.36-.67 4.63 0 .63.13 1.11.4 1.43.27.31.6.47.98.47.37 0 .68-.12.93-.37.69-.66 1.28-1.79 1.77-3.38.8-2.61 1.19-4.73 1.19-6.36 0-.68-.13-1.18-.4-1.49-.27-.32-.59-.49-.95-.49z"/>
  <path d="m5.52 180.98h122.79c80.53 0 134.88-30.59 181.63-67.99" fill="none" stroke="#000" stroke-width="4"/>
  <g fill="none" stroke="#000" transform="translate(58)">
    <path d="m252.52 364.16.71 9.19-9.19-.71" stroke-linecap="round" stroke-width="3"/>
    <path d="m-52.48 319.38h122.79c80.53 0 134.88 14.59 181.63 51.99" stroke-width="4"/>
  </g>
  <path d="m8.56 239.4s39.98 21.62 39.98 65.04-39.98 64.02-39.98 64.02" fill="none" stroke="#000" stroke-width="1.21"/>
  <path d="m66.04 232.3 4.91 4.35-4.91 3.63m-57.22-3.64h61.45" fill="none" stroke="#6a6a6a" stroke-width=".98"/>
  <path d="m4.55 228.82 4.35-4.91 3.63 4.91m-3.67 143.24v-147.47" fill="none" stroke="#6a6a6a" stroke-width=".98"/>
  <path d="m48.88 67.41s-39.98 21.62-39.98 65.04 39.98 64.02 39.98 64.02" fill="none" stroke="#000" stroke-width="1.21"/>
  <path d="m66.04 60.34 4.91 4.35-4.91 3.63m-57.22-3.67h61.45" fill="none" stroke="#6a6a6a" stroke-width=".98"/>
  <path d="m4.55 56.83 4.35-4.92 3.63 4.91m-3.67 141.24v-145.47" fill="none" stroke="#6a6a6a" stroke-width=".98"/>
  <path id="c" d="m58.35 52.1-.64 3.21h-.38q-.04-1.4-.6-2.04-.53-.64-1.36-.64-.64 0-1.02.34-.38.34-.38.87 0 .34.15.64.15.3.68.87 1.36 1.47 1.74 2.23.38.76.38 1.4 0 1.1-.91 1.93-.91.83-2.27.83-.76 0-1.74-.34-.34-.11-.53-.11-.45 0-.72.49h-.38l.64-3.37h.38q.08 1.59.64 2.23.6.64 1.63.64.79 0 1.25-.45.45-.45.45-1.1 0-.42-.15-.76-.3-.64-1.25-1.74-.95-1.1-1.21-1.66-.26-.57-.26-1.1 0-1.02.72-1.7.76-.68 1.89-.68.34 0 .6.04.15.04.68.23.53.19.72.19.45 0 .76-.49zm-8.28 0-.64 3.21h-.38q-.04-1.4-.6-2.04-.53-.64-1.36-.64-.64 0-1.02.34-.38.34-.38.87 0 .34.15.64.15.3.68.87 1.36 1.47 1.74 2.23.38.76.38 1.4 0 1.1-.91 1.93-.91.83-2.27.83-.76 0-1.74-.34-.34-.11-.53-.11-.45 0-.72.49h-.38l.64-3.36h.38q.08 1.59.64 2.23.6.64 1.63.64.79 0 1.25-.45.45-.45.45-1.1 0-.42-.15-.76-.3-.64-1.25-1.74-.94-1.1-1.21-1.66-.26-.57-.26-1.1 0-1.02.72-1.7.76-.68 1.89-.68.34 0 .6.04.15.04.68.23.53.19.72.19.45 0 .76-.49zm-8.54 3.25q0 1.55-.83 3.1-.83 1.55-2.31 2.42-1.47.91-2.87.91-1.44 0-2.34-.91-.91-.91-.91-2.38 0-1.55.87-3.06.87-1.55 2.34-2.42 1.47-.91 2.87-.91 1.36 0 2.27.91.91.91.91 2.34zm-1.74-.72q0-.98-.49-1.47-.45-.53-1.21-.53-1.55 0-2.84 2.19-1.29 2.19-1.29 4.35 0 .98.49 1.55.49.53 1.25.53 1.47 0 2.76-2.19 1.29-2.19 1.29-4.42zm-7.71-7.94-3.56 12.4q-.26.95-.26 1.13 0 .15.08.26.11.11.26.11.19 0 .42-.19.53-.42 1.13-1.32l.3.34q-.98 1.4-1.81 1.97-.6.38-1.17.38-.38 0-.68-.26-.26-.26-.26-.64 0-.38.34-1.55l2.84-9.79q.34-1.21.34-1.36 0-.26-.19-.42-.19-.15-.6-.15-.23 0-.72.08v-.38z" stroke-width=".98"/>
  <path id="d" d="m149.56 101.8-2.34 8c2.19-3.27 3.87-5.42 5.03-6.45 1.17-1.03 2.3-1.55 3.38-1.55.59 0 1.07.19 1.44.58.39.39.58.89.58 1.51 0 .7-.17 1.64-.51 2.81l-2.14 7.4c-.25.86-.37 1.38-.37 1.56 0 .16.05.3.14.42.09.11.19.16.3.16.14 0 .31-.08.51-.23.62-.49 1.3-1.24 2.04-2.25l.54.33c-1.09 1.56-2.12 2.67-3.09 3.34-.68.46-1.29.69-1.83.69-.43 0-.78-.13-1.04-.4-.26-.26-.39-.61-.39-1.05 0-.56.2-1.53.6-2.9l2.04-7.07c.26-.88.39-1.56.39-2.06 0-.23-.08-.42-.23-.56-.15-.15-.34-.23-.56-.23-.33 0-.72.14-1.18.42-.87.53-1.77 1.4-2.71 2.62-.94 1.21-1.93 2.75-2.97 4.64-.55 1-1.01 2.09-1.37 3.27l-.88 2.9h-2.64l3.2-11c.38-1.32.56-2.12.56-2.39 0-.26-.11-.48-.32-.67-.2-.2-.45-.3-.76-.3-.14 0-.39.02-.74.07l-.67.11-.11-.63z"/>
  <g transform="translate(0 18)">
    <path id="e" d="m275.16 60.95-18.91 8.19v-1.51l16.29-7.07-16.29-7.14v-1.6l18.91 8.26z"/>
    <g id="f" stroke-width="1.2" transform="matrix(.82 0 0 .84 41.48 12.1)">
      <path d="m253.27 80.24h-8.33v-.46c4.25-3.72 7.05-6.64 8.42-8.75.63-.98.95-2.01.95-3.09 0-.86-.26-1.55-.79-2.09s-1.21-.81-2.05-.81c-1.16 0-2.11.56-2.86 1.67l-.43-.2c.42-1.06 1.03-1.88 1.84-2.47s1.68-.89 2.62-.89c1.06 0 1.95.37 2.68 1.1.72.72 1.09 1.6 1.09 2.64 0 .72-.13 1.39-.38 2.01-.39.96-1.12 2.04-2.18 3.23-1.61 1.83-3.76 3.93-6.46 6.31h4.2c.67 0 1.23-.14 1.67-.42s.75-.65.94-1.12h.49z" stroke-width="1.2"/>
    </g>
    <use id="g" height="100%" transform="translate(84.83 -45.27)" width="100%" xlink:href="#d"/>
    <path id="h" d="m290.38 48.1c1.5 0 2.76.63 3.78 1.88 1.03 1.25 1.55 3.23 1.55 5.94 0 2.32-.38 4.69-1.14 7.1s-1.83 4.51-3.22 6.28c-1.1 1.39-2.26 2.4-3.46 3.02-.7.35-1.52.53-2.44.53-1.52 0-2.8-.63-3.83-1.88-1.02-1.25-1.53-3.24-1.53-5.96 0-2.68.52-5.38 1.55-8.09 1.21-3.16 2.75-5.57 4.62-7.21 1.23-1.08 2.61-1.62 4.13-1.62zm.02.91c-.68 0-1.37.27-2.07.81-.69.53-1.41 1.63-2.16 3.32-.74 1.69-1.45 3.86-2.13 6.52-.88 3.48-1.32 6.45-1.32 8.89 0 1.22.26 2.13.79 2.74.53.6 1.17.9 1.92.9.71 0 1.32-.23 1.83-.7 1.35-1.27 2.5-3.43 3.46-6.49 1.56-5 2.34-9.07 2.34-12.2 0-1.3-.26-2.26-.79-2.87-.53-.62-1.15-.93-1.86-.93z"/>
  </g>
  <use height="100%" transform="translate(0 172.36)" width="100%" xlink:href="#c"/>
  <path id="i" d="m35.03 147.89h2.27l-3.29 7.52c.15 2.82.64 4.23 1.47 4.23.28 0 .55-.15.83-.45.25-.3.4-.68.45-1.13h.64c-.3 2.49-1.02 3.74-2.15 3.74-.38 0-.74-.2-1.1-.6-.33-.4-.62-1.84-.87-4.31-1.89 3.28-4.02 4.91-6.39 4.91-1.34 0-2.41-.45-3.21-1.36-.81-.91-1.21-2.13-1.21-3.67 0-1.49.38-2.94 1.13-4.35.76-1.41 1.69-2.58 2.8-3.52 1.11-.96 2.34-1.44 3.7-1.44.96 0 1.71.3 2.27.91.55.6.93 1.52 1.13 2.76zm-2.08 4.46c-.05-.76-.29-1.6-.72-2.53s-1.05-1.4-1.85-1.4c-1.21 0-2.43 1.16-3.67 3.48-1.23 2.29-1.85 4.32-1.85 6.09 0 .96.2 1.73.6 2.31.4.55.96.83 1.66.83.73 0 1.4-.38 2-1.13.6-.78 1.44-2.36 2.49-4.72z" stroke-width="1.13"/>
  <use id="j" height="100%" transform="translate(-207.4 92.99)" width="100%" xlink:href="#e"/>
  <use id="k" height="100%" transform="translate(-207.4 92.99)" width="100%" xlink:href="#h"/>
  <use id="l" height="100%" transform="translate(-207.62 91.15)" width="100%" xlink:href="#f"/>
  <g transform="translate(-10 172)">
    <use height="100%" transform="matrix(-1 0 0 1 531.41 0)" width="100%" xlink:href="#e"/>
    <use height="100%" width="100%" xlink:href="#f"/>
    <use height="100%" width="100%" xlink:href="#g"/>
    <use height="100%" width="100%" xlink:href="#h"/>
  </g>
  <use height="100%" transform="translate(12 204)" width="100%" xlink:href="#i"/>
  <use height="100%" transform="matrix(-1 0 0 1 128.61 204)" width="100%" xlink:href="#j"/>
  <g transform="translate(12 204)">
    <use height="100%" width="100%" xlink:href="#k"/>
    <use height="100%" width="100%" xlink:href="#l"/>
  </g>
</svg>
