<?xml version="1.0" encoding="UTF-8" standalone="no"?>
<!-- Created with Inkscape (http://www.inkscape.org/) -->

<svg
   xmlns:dc="http://purl.org/dc/elements/1.1/"
   xmlns:cc="http://creativecommons.org/ns#"
   xmlns:rdf="http://www.w3.org/1999/02/22-rdf-syntax-ns#"
   xmlns:svg="http://www.w3.org/2000/svg"
   xmlns="http://www.w3.org/2000/svg"
   xmlns:sodipodi="http://sodipodi.sourceforge.net/DTD/sodipodi-0.dtd"
   xmlns:inkscape="http://www.inkscape.org/namespaces/inkscape"
   width="96"
   height="48"
   viewBox="0 0 96 47.999999"
   id="svg2"
   version="1.1"
   inkscape:version="0.91 r13725"
   sodipodi:docname="formula_stab_normal.svg">
  <defs
     id="defs4" />
  <sodipodi:namedview
     id="base"
     pagecolor="#ffffff"
     bordercolor="#666666"
     borderopacity="1.0"
     inkscape:pageopacity="0.0"
     inkscape:pageshadow="2"
     inkscape:zoom="8"
     inkscape:cx="40.134392"
     inkscape:cy="29.717773"
     inkscape:document-units="px"
     inkscape:current-layer="layer1"
     showgrid="false"
     inkscape:window-width="1855"
     inkscape:window-height="1056"
     inkscape:window-x="65"
     inkscape:window-y="24"
     inkscape:window-maximized="1"
     units="px">
    <inkscape:grid
       type="xygrid"
       id="grid4247" />
  </sodipodi:namedview>
  <metadata
     id="metadata7">
    <rdf:RDF>
      <cc:Work
         rdf:about="">
        <dc:format>image/svg+xml</dc:format>
        <dc:type
           rdf:resource="http://purl.org/dc/dcmitype/StillImage" />
        <dc:title />
      </cc:Work>
    </rdf:RDF>
  </metadata>
  <g
     inkscape:label="Layer 1"
     inkscape:groupmode="layer"
     id="layer1"
     transform="translate(0,-1004.3622)">
    <g
       transform="matrix(0.97057602,0,0,1.030316,-5.073629,0)"
       style="font-style:italic;font-variant:normal;font-weight:bold;font-stretch:semi-condensed;font-size:18.65625px;line-height:125%;font-family:'DejaVu Serif';-inkscape-font-specification:'DejaVu Serif, Bold Italic Semi-Condensed';text-align:start;letter-spacing:0px;word-spacing:0px;writing-mode:lr-tb;text-anchor:start;fill:#0b1f83;fill-opacity:1;stroke:none;stroke-width:1px;stroke-linecap:butt;stroke-linejoin:miter;stroke-opacity:1"
       id="text4136">
      <path
         d="m 35.16782,995.20227 0.191299,-1.10225 1.002045,0 6.795685,-12.49823 1.958542,0 2.432235,12.49823 1.156907,0 -0.1913,1.10225 -5.729873,0 0.191299,-1.10225 1.202454,0 -0.528351,-2.7784 -4.600296,0 -1.503067,2.7784 1.457519,0 -0.191299,1.10225 -3.643799,0 z m 4.481873,-4.98289 3.78955,0 -0.974716,-5.20153 -2.814834,5.20153 z"
         style="font-style:italic;font-variant:normal;font-weight:bold;font-stretch:semi-condensed;font-size:18.65625px;line-height:125%;font-family:'DejaVu Serif';-inkscape-font-specification:'DejaVu Serif, Bold Italic Semi-Condensed';text-align:start;writing-mode:lr-tb;text-anchor:start;fill:#0b1f83;fill-opacity:1"
         id="path4264"
         inkscape:connector-curvature="0" />
      <path
         d="m 65.702854,994.10002 1.138687,0 q 1.922104,0 3.051682,-1.36642 1.129577,-1.36643 1.648819,-4.34523 0.519241,-2.96059 -0.127533,-4.3179 -0.646774,-1.36643 -2.577988,-1.36643 l -1.138687,0 -1.99498,11.39598 z m -4.910019,1.10225 0.1913,-1.10225 1.566833,0 1.99498,-11.39598 -1.566833,0 0.191299,-1.10225 6.276443,0 q 3.297638,0 4.736939,1.74902 1.4393,1.74903 0.865402,5.03756 -0.573898,3.30674 -2.632645,5.06488 -2.058746,1.74902 -5.347274,1.74902 l -6.276444,0 z"
         style="font-style:italic;font-variant:normal;font-weight:bold;font-stretch:semi-condensed;font-size:18.65625px;line-height:125%;font-family:'DejaVu Serif';-inkscape-font-specification:'DejaVu Serif, Bold Italic Semi-Condensed';text-align:start;writing-mode:lr-tb;text-anchor:start;fill:#0b1f83;fill-opacity:1"
         id="path4266"
         inkscape:connector-curvature="0" />
    </g>
    <path
       style="fill:none;fill-rule:evenodd;stroke:#0b1f83;stroke-width:0.9054051;stroke-linecap:butt;stroke-linejoin:miter;stroke-miterlimit:4;stroke-dasharray:none;stroke-opacity:1"
       d="m 28.073891,1029.9108 38.479714,0"
       id="path4140"
       inkscape:connector-curvature="0"
       sodipodi:nodetypes="cc" />
    <g
       transform="matrix(0.93736094,0,0,1.0668249,-5.073629,0)"
       style="font-style:italic;font-variant:normal;font-weight:bold;font-stretch:normal;font-size:19.31753159px;line-height:125%;font-family:'DejaVu Serif';-inkscape-font-specification:'DejaVu Serif, Bold Italic';text-align:start;letter-spacing:0px;word-spacing:0px;writing-mode:lr-tb;text-anchor:start;fill:#0b1f83;fill-opacity:1;stroke:none;stroke-width:1px;stroke-linecap:butt;stroke-linejoin:miter;stroke-opacity:1"
       id="text4231">
      <path
         d="m 53.008456,970.98387 -1.056427,0 0,-2.50901 q 1.009265,-0.53765 2.027963,-0.82062 1.028131,-0.28297 2.009099,-0.28297 2.197746,0 3.471119,1.06586 1.273372,1.06586 1.273372,2.89574 0,2.06569 -2.886311,4.94257 -0.226377,0.21695 -0.339566,0.33013 l -3.55601,3.55601 5.876378,0 0,-1.73556 1.10359,0 0,3.28248 -9.083391,0 0,-1.02813 4.272872,-4.26344 q 1.414859,-1.41486 2.018532,-2.59391 0.603672,-1.18848 0.603672,-2.49015 0,-1.42429 -0.745158,-2.22604 -0.735727,-0.80176 -2.037396,-0.80176 -1.348832,0 -2.084558,0.6697 -0.735726,0.6697 -0.86778,2.0091 z"
         style="font-style:normal;font-variant:normal;font-weight:normal;font-stretch:normal;font-size:19.31753159px;line-height:125%;font-family:'DejaVu Serif';-inkscape-font-specification:'DejaVu Serif, Normal';text-align:start;writing-mode:lr-tb;text-anchor:start;fill:#0b1f83;fill-opacity:1"
         id="path4261"
         inkscape:connector-curvature="0" />
    </g>
    <path
       style="fill:none;fill-rule:evenodd;stroke:#0b1f83;stroke-width:0.9054051;stroke-linecap:butt;stroke-linejoin:miter;stroke-miterlimit:4;stroke-dasharray:none;stroke-opacity:1"
       d="m 44.862056,1018.8989 7.12885,0"
       id="path4241"
       inkscape:connector-curvature="0"
       sodipodi:nodetypes="cc" />
    <path
       sodipodi:nodetypes="cc"
       inkscape:connector-curvature="0"
       id="path4243"
       d="m 48.426481,1015.3345 0,7.1288"
       style="fill:none;fill-rule:evenodd;stroke:#0b1f83;stroke-width:0.9054051;stroke-linecap:butt;stroke-linejoin:miter;stroke-miterlimit:4;stroke-dasharray:none;stroke-opacity:1" />
  </g>
</svg>
