<svg height="48" viewBox="0 0 96 47.999999" width="96" xmlns="http://www.w3.org/2000/svg">
  <g transform="translate(0 -1004.3622)">
    <g fill="#840000" transform="matrix(.97057602 0 0 1.030316 -1.19481 0)">
      <path d="m35.16782 995.20227.191299-1.10225h1.002045l6.795685-12.49823h1.958542l2.432235 12.49823h1.156907l-.1913 1.10225h-5.729873l.191299-1.10225h1.202454l-.528351-2.7784h-4.600296l-1.503067 2.7784h1.457519l-.191299 1.10225zm4.481873-4.98289h3.78955l-.974716-5.20153z"/>
      <path d="m65.702854 994.10002h1.138687q1.922104 0 3.051682-1.36642 1.129577-1.36643 1.648819-4.34523.519241-2.96059-.127533-4.3179-.646774-1.36643-2.577988-1.36643h-1.138687zm-4.910019 1.10225.1913-1.10225h1.566833l1.99498-11.39598h-1.566833l.191299-1.10225h6.276443q3.297638 0 4.736939 1.74902 1.4393 1.74903.865402 5.03756-.573898 3.30674-2.632645 5.06488-2.058746 1.74902-5.347274 1.74902z"/>
    </g>
    <path d="m31.95271 1029.9108h38.479714" fill="none" stroke="#840000" stroke-width=".905405"/>
    <path d="m16.785347 1029.9108h7.12885" fill="none" stroke="#840000" stroke-width=".905405"/>
    <g fill="#840000">
      <path d="m30.369473 1009.3473c-1.377235 4.1166-1.93616 6.2228-2.49069 9.2864-.767924 4.3081-1.007777 8.6641-.711243 13.4988.143862 2.3456.456077 5.0741.829474 7.3239.510912 3.0157 1.06539 5.2655 2.481689 10.0523l.360211-.6223-.63229-2.6327c-.776169-3.2072-1.315457-7.276-1.59731-11.8714-.278918-4.5474-.262726-8.712.05445-12.3978.350945-4.021.826186-6.6058 2.183854-11.632l-.478142-1.0052z"/>
      <path d="m75.784093 1009.3473c1.377234 4.1166 1.936157 6.2228 2.490692 9.2864.76792 4.3081 1.007776 8.6641.711241 13.4988-.14386 2.3456-.456077 5.0741-.829475 7.3239-.510912 3.0157-1.065387 5.2655-2.481687 10.0523l-.360212-.6223.63229-2.6327c.776169-3.2072 1.315454-7.276 1.597308-11.8714.278919-4.5474.262726-8.712-.05445-12.3978-.350945-4.021-.826183-6.6058-2.183851-11.632l.478141-1.0052z"/>
      <path d="m53.008456 970.98387h-1.056427v-2.50901q1.009265-.53765 2.027963-.82062 1.028131-.28297 2.009099-.28297 2.197746 0 3.471119 1.06586 1.273372 1.06586 1.273372 2.89574 0 2.06569-2.886311 4.94257-.226377.21695-.339566.33013l-3.55601 3.55601h5.876378v-1.73556h1.10359v3.28248h-9.083391v-1.02813l4.272872-4.26344q1.414859-1.41486 2.018532-2.59391.603672-1.18848.603672-2.49015 0-1.42429-.745158-2.22604-.735727-.80176-2.037396-.80176-1.348832 0-2.084558.6697-.735726.6697-.86778 2.0091z" transform="matrix(.93736094 0 0 1.0668249 -1.19481 0)"/>
    </g>
    <path d="m48.740875 1018.8989h7.12885" fill="none" stroke="#840000" stroke-width=".905405"/>
    <path d="m52.3053 1015.3345v7.1288" fill="none" stroke="#840000" stroke-width=".905405"/>
    <path d="m9.3322954 967.73151v-1.00272h2.4594966v-11.74883l-2.8473404 1.84462v-1.2392l3.4432954-2.23247h1.305426v13.37588h2.459497v1.00272z" fill="#840000" transform="matrix(.93466418 0 0 1.069903 -1.19481 0)"/>
    <path d="m89.587741 946.76579h-.861072v-2.04505q.822631-.43822 1.65295-.66887.838008-.23064 1.637574-.23064 1.791337 0 2.829236.86876 1.037899.86876 1.037899 2.36026 0 1.6837-2.352571 4.02858-.184515.17683-.276773.26909l-2.898429 2.89843h4.789712v-1.41462h.899512v2.67547h-7.403679v-.83801l3.482727-3.47503q1.153221-1.15323 1.645262-2.11424.492041-.96871.492041-2.02967 0-1.16091-.607363-1.8144-.599675-.6535-1.660638-.6535-1.099404 0-1.699079.54586-.599675.54586-.707309 1.63758z" fill="#840000" transform="matrix(.93736094 0 0 1.0668249 -1.19481 0)"/>
  </g>
</svg>
