<svg height="48" viewBox="0 0 96 47.999999" width="96" xmlns="http://www.w3.org/2000/svg">
  <g transform="translate(0 -1004.3622)">
    <g fill="#0b1f83" transform="matrix(.97057602 0 0 1.030316 -5.073629 0)">
      <path d="m35.16782 995.20227.191299-1.10225h1.002045l6.795685-12.49823h1.958542l2.432235 12.49823h1.156907l-.1913 1.10225h-5.729873l.191299-1.10225h1.202454l-.528351-2.7784h-4.600296l-1.503067 2.7784h1.457519l-.191299 1.10225zm4.481873-4.98289h3.78955l-.974716-5.20153z"/>
      <path d="m65.702854 994.10002h1.138687q1.922104 0 3.051682-1.36642 1.129577-1.36643 1.648819-4.34523.519241-2.96059-.127533-4.3179-.646774-1.36643-2.577988-1.36643h-1.138687zm-4.910019 1.10225.1913-1.10225h1.566833l1.99498-11.39598h-1.566833l.191299-1.10225h6.276443q3.297638 0 4.736939 1.74902 1.4393 1.74903.865402 5.03756-.573898 3.30674-2.632645 5.06488-2.058746 1.74902-5.347274 1.74902z"/>
    </g>
    <path d="m28.073891 1029.9108h38.479714" fill="none" stroke="#0b1f83" stroke-width=".905405"/>
    <path d="m53.008456 970.98387h-1.056427v-2.50901q1.009265-.53765 2.027963-.82062 1.028131-.28297 2.009099-.28297 2.197746 0 3.471119 1.06586 1.273372 1.06586 1.273372 2.89574 0 2.06569-2.886311 4.94257-.226377.21695-.339566.33013l-3.55601 3.55601h5.876378v-1.73556h1.10359v3.28248h-9.083391v-1.02813l4.272872-4.26344q1.414859-1.41486 2.018532-2.59391.603672-1.18848.603672-2.49015 0-1.42429-.745158-2.22604-.735727-.80176-2.037396-.80176-1.348832 0-2.084558.6697-.735726.6697-.86778 2.0091z" fill="#0b1f83" transform="matrix(.93736094 0 0 1.0668249 -5.073629 0)"/>
    <g fill="none" stroke="#0b1f83" stroke-width=".905405">
      <path d="m44.862056 1018.8989h7.12885"/>
      <path d="m48.426481 1015.3345v7.1288"/>
    </g>
  </g>
</svg>
