<svg height="256" viewBox="0 0 256 256" width="256" xmlns="http://www.w3.org/2000/svg" xmlns:xlink="http://www.w3.org/1999/xlink">
  <linearGradient id="a" gradientTransform="matrix(74.246261 0 0 61.04571 -133.40253 -131.27182)" gradientUnits="userSpaceOnUse" x1="8.5" x2="8.5" y1="4.2211" y2="11.187">
    <stop offset="0" stop-color="#fff"/>
    <stop offset="1" stop-color="#fff" stop-opacity="0"/>
  </linearGradient>
  <linearGradient id="b" gradientTransform="matrix(11.159378 4.9485436 -4.0687214 9.1753058 87.131 -24.453035)" gradientUnits="userSpaceOnUse" x1="8.5" x2="8.5" xlink:href="#a" y1="4.2211" y2="11.187"/>
  <linearGradient id="c" gradientTransform="matrix(17.71491 0 0 16.429036 -22.578741 -20.826978)" gradientUnits="userSpaceOnUse" x1="8.5" x2="8.5" xlink:href="#a" y1="4.2211" y2="11.187"/>
  <path d="m239.05636 128.02051a111.05636 111.05714 0 0 1 -222.112717 0 111.05636 111.05714 0 1 1 222.112717 0z" style="fill:none;stroke:#5e5e5e;stroke-width:15.318123;stroke-linecap:round;stroke-linejoin:round;stroke-opacity:.297468"/>
  <path d="m224.85985 128.0182a96.859847 96.860509 0 0 1 -193.719693 0 96.859847 96.860509 0 1 1 193.719693 0z" fill="#ff6464" stroke="#ac0f0f" stroke-linecap="round" stroke-linejoin="round" stroke-width="13.359982"/>
  <path d="m207.71509 118.81984a79.717099 73.930672 0 0 1 -159.434193 0 79.717099 73.930672 0 1 1 159.434193 0z" fill="url(#c)" opacity=".5"/>
  <path d="m197.61878 117.86813a54.933151 45.166359 23.914538 1 1 -100.4344-44.536894 54.933151 45.166359 23.914538 0 1 100.4344 44.536894z" fill="url(#b)" opacity=".5"/>
  <path d="m203.72967 177.19747c-46.04573 36.12168-107.834055 33.62362-152.849583-2.25263 14.202248 24.35915 43.71448 43.56473 78.157583 43.0926 30.29611-.41529 58.23714-15.44115 74.692-40.83997z" fill="#0e200a" fill-opacity=".28481" opacity=".5"/>
</svg>
