<svg height="48" width="48" xmlns="http://www.w3.org/2000/svg">
<path d="m7.55 29.96h33.53" fill="none" stroke="#606060" stroke-width="1.36"/>
<g transform="matrix(1.36 0 0 1.36 2.64 4.41)">
<path d="m-3.75 9.55v19h7.97c-1.09-2.82-1.72-6.05-1.72-9.5 0-3.46.63-6.69 1.72-9.5z" fill="#fff" stroke="#000" stroke-linecap="round" stroke-width=".5"/>
<g fill="none">
<path d="m-3.72 12.67 3.11-3.11m1.91 19.07 2.28-2.13m-7.29-7.64 7.45-7.45m-7.52 4.45 6.34-6.28m-4.12 18.95 4.58-4.43m-6.75 3.83 6.31-6.31m-6.32 3.21 6.3-6.3m-6.28 3.3 6.52-6.52" stroke="#000" stroke-width=".5"/>
<path d="m4.95 28.55c-1.09-2.82-1.72-6.04-1.72-9.5s.63-6.68 1.72-9.5" stroke="#606060" stroke-linecap="round"/>
</g>
</g>
<g transform="matrix(1.36 0 0 1.36 2.64 3.41)">
<path d="m35.16 10.28v19h-7.97c1.09-2.82 1.72-6.04 1.72-9.5s-.63-6.68-1.72-9.5z" fill="#fff" stroke="#000" stroke-linecap="round" stroke-width=".5"/>
<g fill="none">
<path d="m35.13 26.77-2.52 2.52m-2.19-19.02-2.43 2.43m7.14 7.88-7.45 7.45m7.52-4.45-5.72 5.72m3.94-19.01-4.92 4.92m6.64-3.7-6.31 6.31m6.32-3.21-6.3 6.3m6.28-3.3-6.52 6.52" stroke="#000" stroke-width=".5"/>
<path d="m26.46 29.28c1.09-2.82 1.72-6.04 1.72-9.5s-.63-6.68-1.72-9.5" stroke="#606060" stroke-linecap="round"/>
</g>
</g>
<path d="m23.92 21.77h10.68l-9.72 17.68h-10.68z" fill="#b9caf3" fill-opacity=".68" stroke="#007efa" stroke-linecap="round" stroke-width="1.36"/>
<path d="m7.43 9.79 2.06-5h3.09v.21h-.25q-.34 0-.54.12-.14.08-.22.26-.06.13-.06.7v5.01q0 .58.06.73.06.15.25.26.19.11.51.11h.25v.21h-3.96v-.21h.25q.34 0 .54-.12.14-.08.22-.27.06-.13.06-.71v-5.64l-2.92 6.93h-.13l-2.96-6.88v5.35q0 .56.03.69.07.28.31.46.25.17.77.17v.21h-2.6v-.21h.08q.25.01.47-.08.22-.09.33-.24.11-.15.17-.41.01-.06.01-.57v-4.8q0-.58-.06-.72-.06-.14-.25-.25-.19-.11-.51-.11h-.24v-.2h3.1zm9.1-5.16v6.21q0 .7.06.9.06.19.26.31.2.12.63.12h.17v.21h-4v-.21h.2q.49 0 .69-.11.21-.11.28-.31.07-.2.07-.91v-3.94q0-.53-.05-.66-.05-.13-.19-.22-.13-.1-.31-.1-.29 0-.69.18l-.1-.2 2.8-1.28z" transform="scale(.95 1.05)"/>
<g fill="none" stroke="#007efa" stroke-linecap="round" stroke-width=".68" transform="translate(0 16)">
<path d="m26.9 7.38 2.54 3.83"/>
<path d="m23.94 10.01 2.54 3.83"/>
<path d="m22.61 15.25 2.54 3.83"/>
<path d="m19.36 17.83 2.54 3.83"/>
</g>
<path d="m37.43 9.79 2.06-5.01h3.09v.21h-.25q-.34 0-.54.12-.14.08-.22.26-.06.13-.06.7v5.01q0 .58.06.73.06.15.25.26.19.11.51.11h.25v.21h-3.97v-.21h.25q.34 0 .54-.12.14-.08.22-.27.06-.13.06-.71v-5.63l-2.91 6.93h-.13l-2.96-6.88v5.35q0 .56.03.69.07.28.31.46.25.17.77.17v.21h-2.6v-.21h.08q.25.01.47-.08.22-.09.33-.24.11-.15.17-.41.01-.06.01-.57v-4.8q0-.58-.06-.72-.06-.14-.25-.25-.19-.11-.51-.11h-.24v-.2h3.1zm10.11 2.59h-4.47v-.12q2.06-2.45 2.49-3.29.44-.85.44-1.65 0-.59-.36-.97-.36-.39-.89-.39-.86 0-1.34.86l-.21-.07q.3-1.08.92-1.59.62-.52 1.42-.52.58 0 1.05.27.48.27.75.74.27.46.27.87 0 .75-.41 1.51-.57 1.04-2.47 2.89h1.64q.6 0 .78-.05.18-.05.3-.17.12-.12.31-.51h.2z" transform="scale(.95 1.05)"/>
</svg>
