<svg height="48" width="48" xmlns="http://www.w3.org/2000/svg" xmlns:xlink="http://www.w3.org/1999/xlink">
<linearGradient id="a">
<stop offset="0" stop-color="#50506f"/>
<stop offset="1" stop-color="#a3a3bc"/>
</linearGradient>
<linearGradient id="b" gradientUnits="userSpaceOnUse" x1="7.16" x2="40.77" y1="21.34" y2="21.34">
<stop offset="0" stop-color="#1e1e48"/>
<stop offset="1" stop-color="#8888ab"/>
</linearGradient>
<linearGradient id="c" gradientUnits="userSpaceOnUse" x1="9.9" x2="22.5" y1="33.07" y2="33.17">
<stop offset="0" stop-color="#7a7abd"/>
<stop offset="1" stop-color="#7a7abd" stop-opacity="0"/>
</linearGradient>
<linearGradient id="d" gradientTransform="matrix(-1.4 0 0 1.4 55.41 -18.05)" gradientUnits="userSpaceOnUse" x1="11.96" x2="20.96" y1="36.52" y2="36.59">
<stop offset="0" stop-color="#49494e"/>
<stop offset="1" stop-color="#7a7abd" stop-opacity="0"/>
</linearGradient>
<linearGradient id="e" gradientUnits="userSpaceOnUse" x1="15.86" x2="33.15" xlink:href="#a" y1="7.02" y2="7.02"/>
<linearGradient id="f" gradientUnits="userSpaceOnUse" x1="16.46" x2="33.75" xlink:href="#a" y1="23.82" y2="23.82"/>
<g fill-rule="evenodd">
<path d="m7.19 23.01v16.42c1.02 4.83 8.69 7.65 16.46 7.69 7.97.06 16.05-2.77 17.16-7.69v-16.71c-.06-4.3-11.99-4.39-11.95-9.3.03-3.53 5.45-3.55 5.56-7.5-.03-2.91-5.21-5.03-10.41-5.04-5.25-.01-10.52 2.09-10.5 4.9-.03 4.13 5.59 4.16 5.62 7.64-.12 4.98-11.88 4.98-11.94 9.59z" fill="url(#b)"/>
<path d="m8.61 22.82.11 16.32c1.54 5.84 14.99 6.76 14.99 6.76l.29-18.8s-13.74.43-15.4-4.29z" fill="url(#c)"/>
<path d="m38.83 22.82-.18 15.35c-1.54 5.84-13.98 6.16-13.98 6.16l-.08-17.23s12.59.43 14.25-4.29z" fill="url(#d)"/>
<path d="m15.89 7.67c4.3 4.11 11.26 3.08 12.67 2.61 1.39-.46 7.65-3.35 2.83-6.95-1.33 5.73-11.06 5.06-15.5 4.34z" fill="url(#e)"/>
<path d="m8.59 22.83c2.51 5.44 16.57 4.78 18.86 4.69 2.28-.08 10.6-1.02 11.3-4.41.32-1.5-5.8-3.84-7.33-3.87 2.35 6.49-18.21 5.95-22.83 3.59z" fill="url(#f)"/>
</g>
<g fill="#fff" fill-opacity=".64" stroke-width=".71" transform="matrix(1.12 .15 0 1.75 3.27 -19.19)">
<path d="m8.94 32.32 1.58.2v-4.52l-1.63.34v-1.22l1.61-.34h1.7v5.88l1.58.12v1.24c-1.42.05-2.96-.02-4.86-.46z"/>
<path d="m18.83 30.25q0-1.3-.25-1.83-.24-.54-.82-.54-.58 0-.82.54-.25.53-.25 1.83 0 1.32.25 1.86.25.54.82.54.57 0 .82-.54.25-.54.25-1.86zm1.79.01q0 1.73-.74 2.67-.74.94-2.11.94-1.37 0-2.12-.94-.74-.94-.74-2.67 0-1.73.74-2.67.74-.94 2.12-.94 1.37 0 2.11.94.74.94.74 2.67z"/>
</g>
</svg>
