<svg height="48" viewBox="0 0 48.000001 48.000001" width="48" xmlns="http://www.w3.org/2000/svg" xmlns:xlink="http://www.w3.org/1999/xlink">
  <linearGradient id="a" gradientTransform="matrix(2.1015389 0 0 2.0983563 -.540496 984.84594)" gradientUnits="userSpaceOnUse" x1="17.907984" x2="5.347423" y1="26.90328" y2="14.50869">
    <stop offset="0" stop-color="#0e65d9"/>
    <stop offset="1" stop-color="#0eb4d9"/>
  </linearGradient>
  <linearGradient id="b" gradientTransform="matrix(1.6673764 0 0 1.6648515 1.722674 -702.22778)" gradientUnits="userSpaceOnUse" x1="21.068115" x2="5.818075" y1="1051.3199" y2="1028.5631">
    <stop offset="0" stop-color="#0a489a"/>
    <stop offset="1" stop-color="#61a0d9"/>
  </linearGradient>
  <g transform="translate(0 -1004.3622)">
    <path d="m28.428524 1006.8747-1.83884 4.3935c-1.58295-.2036-3.19668-.221-4.72846 0l-1.83885-4.3279-3.08664.8524.65674 4.6558c-1.44423.5994-2.83226 1.4056-4.07174 2.3608l-3.8090405-2.8853-2.23288 2.2948 2.8896205 3.6721c-.9460705 1.2148-1.7541005 2.5953-2.3642405 4.0656l-4.66279-.59-.85375 3.1475 4.33443 1.7705c-.21735 1.6181-.14859 3.228.0657 4.7871l-4.4001 1.7047.85375 3.0821 4.59712-.5248c.6057 1.4693 1.45088 2.8134 2.4299005 4.0655l-2.8896105 3.6723 2.23288 2.2953 3.8090405-2.82c1.22092.9334 2.53131 1.7596 4.00606 2.3608l-.52539 4.5899 3.15231.7871 1.7075-4.2622c1.61452.2275 3.16926.2098 4.72846 0l1.7075 4.328 3.15231-.8529-.59106-4.5899c1.48851-.604 2.93359-1.3757 4.20308-2.3608l3.54635 2.82 2.29855-2.2953-2.75826-3.6723c.97034-1.2514 1.81609-2.6742 2.4299-4.1968l4.53144.7217.85375-3.1477-4.33442-1.7705c.20275-1.5828.20877-3.1923 0-4.7213l4.26875-1.7705-.85375-3.1475-4.46577.6561c-.60493-1.4743-1.45136-2.8741-2.4299-4.1317l2.75826-3.7373-2.29855-2.2296-3.61202 2.8853c-1.25479-.97-2.6126-1.812-4.13741-2.4264l.72241-4.6554-3.15231-.8528zm-4.66279 8.9837c.67134-.026 1.3587-.025 2.03587.065l-1.37913 5.2459c-2.77763-.066-5.34765 1.4448-6.69866 3.869l-5.18817-1.4426c1.97764-4.5405 6.38744-7.5411 11.23009-7.7375zm5.51655 1.0493c5.20636 2.2146 8.29279 7.6256 7.61807 13.2458l-5.1225-1.3771c.04-2.7801-1.48513-5.3659-3.94038-6.6886zm-4.85981 8.7213c.19754 0 .39276.076.59105.1292 1.58633.4246 2.52706 2.0864 2.10154 3.6722-.42551 1.5854-2.02569 2.5228-3.61202 2.0982-1.58632-.4241-2.52705-2.0209-2.10154-3.6063.37233-1.3875 1.63811-2.3671 3.02097-2.2952zm-12.87193 1.4423 5.18818 1.3771c-.0917 2.8126 1.40884 5.4674 3.87471 6.82l-1.37914 5.1147c-5.25609-2.2239-8.41584-7.6525-7.68375-13.3118zm19.30789 5.1807 5.1225 1.3768c-2.20045 5.2438-7.62105 8.3612-13.26596 7.6722l1.37913-5.1147c2.80817.065 5.4278-1.462 6.76433-3.9343z" fill="none" stroke="#000" stroke-linejoin="round" stroke-opacity=".468354" stroke-width="1.5"/>
    <path d="m27.830284 1006.1571-1.83885 4.3935c-1.58294-.2036-3.19667-.221-4.72846 0l-1.83884-4.3279-3.08664.8524.65673 4.6558c-1.44423.5994-2.83225 1.4056-4.07173 2.3608l-3.8090405-2.8853-2.23289 2.2948 2.88962 3.6721c-.94606 1.2148-1.75409 2.5953-2.36423 4.0656l-4.66279-.59-.85375 3.1475 4.33442 1.7705c-.21734 1.6181-.14859 3.228.0657 4.7871l-4.4001 1.7047.85375 3.0821 4.59712-.5248c.60571 1.4693 1.45088 2.8134 2.4299 4.0655l-2.88961 3.6723 2.23288 2.2953 3.8090405-2.82c1.22092.9334 2.53131 1.7596 4.00606 2.3608l-.52538 4.5899 3.1523.7871 1.70751-4.2622c1.61451.2275 3.16925.2098 4.72846 0l1.7075 4.328 3.15231-.8529-.59106-4.5899c1.4885-.604 2.93359-1.3757 4.20307-2.3608l3.54635 2.82 2.29856-2.2953-2.75827-3.6723c.97035-1.2514 1.8161-2.6742 2.4299-4.1968l4.53145.7217.85375-3.1477-4.33443-1.7705c.20276-1.5828.20877-3.1923 0-4.7213l4.26875-1.7705-.85375-3.1475-4.46577.6561c-.60492-1.4743-1.45136-2.8741-2.4299-4.1317l2.75827-3.7373-2.29856-2.2296-3.61202 2.8853c-1.25478-.97-2.61259-1.812-4.1374-2.4264l.7224-4.6554-3.15231-.8528zm-4.66279 8.9837c.67134-.026 1.35869-.025 2.03587.065l-1.37914 5.2459c-2.77763-.066-5.34765 1.4448-6.69865 3.869l-5.18818-1.4426c1.97764-4.5405 6.38744-7.5411 11.2301-7.7375zm5.51654 1.0493c5.20636 2.2146 8.2928 7.6256 7.61808 13.2458l-5.12251-1.3771c.04-2.7801-1.48512-5.3659-3.94038-6.6886zm-4.85981 8.7213c.19754 0 .39277.076.59106.1292 1.58632.4246 2.52705 2.0864 2.10154 3.6722-.42552 1.5854-2.0257 2.5228-3.61202 2.0982-1.58633-.4241-2.52705-2.0209-2.10154-3.6063.37232-1.3875 1.6381-2.3671 3.02096-2.2952zm-12.87192 1.4423 5.18817 1.3771c-.0917 2.8126 1.40885 5.4674 3.87471 6.82l-1.37913 5.1147c-5.25609-2.2239-8.41584-7.6525-7.68375-13.3118zm19.30788 5.1807 5.1225 1.3768c-2.20045 5.2438-7.62104 8.3612-13.26596 7.6722l1.37914-5.1147c2.80817.065 5.42779-1.462 6.76432-3.9343z" fill="url(#a)" stroke="url(#b)"/>
  </g>
</svg>
