<?xml version="1.0" encoding="UTF-8" standalone="no"?>
<svg
   xmlns:dc="http://purl.org/dc/elements/1.1/"
   xmlns:cc="http://creativecommons.org/ns#"
   xmlns:rdf="http://www.w3.org/1999/02/22-rdf-syntax-ns#"
   xmlns:svg="http://www.w3.org/2000/svg"
   xmlns="http://www.w3.org/2000/svg"
   version="1.1"
   id="svg3999"
   height="48"
   width="48">
  <defs
     id="defs4001" />
  <metadata
     id="metadata4004">
    <rdf:RDF>
      <cc:Work
         rdf:about="">
        <dc:format>image/svg+xml</dc:format>
        <dc:type
           rdf:resource="http://purl.org/dc/dcmitype/StillImage" />
        <dc:title></dc:title>
      </cc:Work>
    </rdf:RDF>
  </metadata>
  <g
     transform="translate(0,16)"
     id="layer1">
    <path
       id="path4575"
       d="m 7.5456211,13.95851 33.5390949,0"
       style="fill:none;stroke:#606060;stroke-width:1.36015177px;stroke-linecap:butt;stroke-linejoin:miter;stroke-opacity:1" />
    <g
       transform="matrix(1.3601518,0,0,1.3601518,2.6354312,-11.59006)"
       id="g4577">
      <path
         style="fill:#ffffff;fill-opacity:1;stroke:#000000;stroke-width:0.5;stroke-linecap:round;stroke-linejoin:miter;stroke-miterlimit:4;stroke-dasharray:none;stroke-dashoffset:0;stroke-opacity:1"
         d="m -3.75,9.5481546 0,19.0000004 7.96875,0 C 3.1268252,25.733101 2.5,22.504428 2.5,19.048155 2.5,15.591882 3.1268252,12.363209 4.21875,9.5481546 Z"
         id="rect4532" />
      <path
         id="path4544"
         style="fill:none;stroke:#000000;stroke-width:0.5;stroke-linecap:butt;stroke-linejoin:miter;stroke-miterlimit:4;stroke-dasharray:none;stroke-opacity:1"
         d="M -3.7163823,12.670322 -0.60947742,9.5634168 M 1.2952642,28.626316 3.5773475,26.495663 m -7.291886,-7.639247 7.4456559,-7.44566 m -7.5191345,4.4475 6.3427604,-6.2778653 M -1.5579666,28.526782 3.0187488,24.101496 m -6.7454313,3.829381 6.3070413,-6.307042 m -6.3200439,3.213077 6.2958784,-6.295878 m -6.2800546,3.297718 6.5191349,-6.519139" />
      <path
         id="path4549"
         d="m 4.952994,28.548155 c -1.091925,-2.815054 -1.71875,-6.043727 -1.71875,-9.5 0,-3.456273 0.626825,-6.684946 1.71875,-9.5000004"
         style="fill:none;stroke:#606060;stroke-width:1;stroke-linecap:round;stroke-linejoin:miter;stroke-miterlimit:4;stroke-dasharray:none;stroke-dashoffset:0;stroke-opacity:1" />
    </g>
    <g
       transform="matrix(1.3601518,0,0,1.3601518,2.6354312,-12.588743)"
       id="g6156">
      <path
         id="path4558"
         d="m 35.164977,10.282398 0,19.000001 -7.96875,0 c 1.091925,-2.815054 1.71875,-6.043727 1.71875,-9.5 0,-3.456273 -0.626825,-6.684946 -1.71875,-9.500001 z"
         style="fill:#ffffff;fill-opacity:1;stroke:#000000;stroke-width:0.5;stroke-linecap:round;stroke-linejoin:miter;stroke-miterlimit:4;stroke-dasharray:none;stroke-dashoffset:0;stroke-opacity:1" />
      <path
         d="m 35.131359,26.768183 -2.522817,2.522815 m -2.185969,-19.01963 -2.433514,2.433513 m 7.140457,7.877208 -7.445656,7.44566 m 7.519134,-4.4475 -5.715407,5.715408 m 3.939647,-19.011287 -4.922841,4.922842 m 6.637267,-3.699584 -6.307042,6.307042 m 6.320044,-3.213077 -6.295878,6.295878 m 6.280054,-3.297718 -6.519135,6.519139"
         style="fill:none;stroke:#000000;stroke-width:0.5;stroke-linecap:butt;stroke-linejoin:miter;stroke-miterlimit:4;stroke-dasharray:none;stroke-opacity:1"
         id="path4560" />
      <path
         style="fill:none;stroke:#606060;stroke-width:1;stroke-linecap:round;stroke-linejoin:miter;stroke-miterlimit:4;stroke-dasharray:none;stroke-dashoffset:0;stroke-opacity:1"
         d="m 26.461983,29.282399 c 1.091925,-2.815054 1.71875,-6.043727 1.71875,-9.5 0,-3.456273 -0.626825,-6.684946 -1.71875,-9.500001"
         id="path4562" />
    </g>
    <rect
       transform="matrix(1,0,-0.48171678,0.87632696,0,0)"
       y="6.5880775"
       x="27.090082"
       height="20.17737"
       width="10.6825"
       id="rect4582"
       style="fill:#b9caf3;fill-opacity:0.67525772;stroke:#007efa;stroke-width:1.45296204;stroke-linecap:round;stroke-linejoin:miter;stroke-miterlimit:4;stroke-dasharray:none;stroke-dashoffset:0;stroke-opacity:1" />
    <text
       transform="scale(0.95258889,1.0497708)"
       id="text6161"
       y="-2.8598673"
       x="1.9608685"
       style="font-style:normal;font-variant:normal;font-weight:bold;font-stretch:normal;font-size:11.4725008px;line-height:125%;font-family:'Times New Roman';-inkscape-font-specification:'Times New Roman, Bold';text-align:start;letter-spacing:0px;word-spacing:0px;writing-mode:lr-tb;text-anchor:start;fill:#000000;fill-opacity:1;stroke:none"
       xml:space="preserve"><tspan
         style="font-style:normal;font-variant:normal;font-weight:bold;font-stretch:normal;font-size:11.4725008px;line-height:125%;font-family:'Times New Roman';-inkscape-font-specification:'Times New Roman, Bold';text-align:start;writing-mode:lr-tb;text-anchor:start"
         y="-2.8598673"
         x="1.9608685"
         id="tspan6163">M1</tspan></text>
    <path
       id="path6191"
       d="m 26.895098,7.3838508 2.538319,3.8282812"
       style="fill:none;stroke:#007efa;stroke-width:0.68007588;stroke-linecap:round;stroke-linejoin:miter;stroke-miterlimit:4;stroke-dasharray:none;stroke-opacity:1" />
    <path
       style="fill:none;stroke:#007efa;stroke-width:0.68007588;stroke-linecap:round;stroke-linejoin:miter;stroke-miterlimit:4;stroke-dasharray:none;stroke-opacity:1"
       d="m 23.940662,10.005395 2.538319,3.828282"
       id="path6193" />
    <path
       id="path6195"
       d="m 22.609084,15.248477 2.538319,3.828283"
       style="fill:none;stroke:#007efa;stroke-width:0.68007588;stroke-linecap:round;stroke-linejoin:miter;stroke-miterlimit:4;stroke-dasharray:none;stroke-opacity:1" />
    <path
       style="fill:none;stroke:#007efa;stroke-width:0.68007588;stroke-linecap:round;stroke-linejoin:miter;stroke-miterlimit:4;stroke-dasharray:none;stroke-opacity:1"
       d="m 19.363367,17.828406 2.53832,3.828283"
       id="path6197" />
    <text
       xml:space="preserve"
       style="font-style:normal;font-variant:normal;font-weight:bold;font-stretch:normal;font-size:11.4725008px;line-height:125%;font-family:'Times New Roman';-inkscape-font-specification:'Times New Roman, Bold';text-align:start;letter-spacing:0px;word-spacing:0px;writing-mode:lr-tb;text-anchor:start;fill:#000000;fill-opacity:1;stroke:none"
       x="31.95949"
       y="-2.8598673"
       id="text4152"
       transform="scale(0.95258889,1.0497708)"><tspan
         id="tspan4154"
         x="31.95949"
         y="-2.8598673"
         style="font-style:normal;font-variant:normal;font-weight:bold;font-stretch:normal;font-size:11.4725008px;line-height:125%;font-family:'Times New Roman';-inkscape-font-specification:'Times New Roman, Bold';text-align:start;writing-mode:lr-tb;text-anchor:start">M2</tspan></text>
  </g>
</svg>
