<?xml version="1.0" encoding="UTF-8" standalone="no"?>
<svg
   xmlns:dc="http://purl.org/dc/elements/1.1/"
   xmlns:cc="http://creativecommons.org/ns#"
   xmlns:rdf="http://www.w3.org/1999/02/22-rdf-syntax-ns#"
   xmlns:svg="http://www.w3.org/2000/svg"
   xmlns="http://www.w3.org/2000/svg"
   xmlns:xlink="http://www.w3.org/1999/xlink"
   version="1.1"
   id="svg4212"
   viewBox="0 0 48.000001 48.000001"
   height="48"
   width="48">
  <defs
     id="defs4214">
    <linearGradient
       y2="14.50869"
       x2="5.3474231"
       y1="26.90328"
       x1="17.907984"
       gradientTransform="matrix(2.1015389,0,0,2.0983563,-0.54049647,984.84594)"
       gradientUnits="userSpaceOnUse"
       id="linearGradient4966"
       xlink:href="#linearGradient3966" />
    <linearGradient
       id="linearGradient3966">
      <stop
         id="stop3968"
         offset="0"
         style="stop-color:#0e65d9;stop-opacity:1;" />
      <stop
         id="stop3970"
         offset="1"
         style="stop-color:#0eb4d9;stop-opacity:1;" />
    </linearGradient>
    <linearGradient
       y2="1028.5631"
       x2="5.8180747"
       y1="1051.3199"
       x1="21.068115"
       gradientTransform="matrix(1.6673764,0,0,1.6648515,1.7226735,-702.22778)"
       gradientUnits="userSpaceOnUse"
       id="linearGradient4968"
       xlink:href="#linearGradient4885" />
    <linearGradient
       id="linearGradient4885">
      <stop
         style="stop-color:#0a489a;stop-opacity:1;"
         offset="0"
         id="stop4887" />
      <stop
         style="stop-color:#61a0d9;stop-opacity:1;"
         offset="1"
         id="stop4889" />
    </linearGradient>
  </defs>
  <metadata
     id="metadata4217">
    <rdf:RDF>
      <cc:Work
         rdf:about="">
        <dc:format>image/svg+xml</dc:format>
        <dc:type
           rdf:resource="http://purl.org/dc/dcmitype/StillImage" />
        <dc:title></dc:title>
      </cc:Work>
    </rdf:RDF>
  </metadata>
  <g
     transform="translate(0,-1004.3622)"
     id="layer1">
    <path
       id="path4206"
       d="m 28.428524,1006.8747 -1.83884,4.3935 c -1.58295,-0.2036 -3.19668,-0.221 -4.72846,0 l -1.83885,-4.3279 -3.08664,0.8524 0.65674,4.6558 c -1.44423,0.5994 -2.83226,1.4056 -4.07174,2.3608 l -3.8090405,-2.8853 -2.23288,2.2948 2.8896205,3.6721 c -0.9460705,1.2148 -1.7541005,2.5953 -2.3642405,4.0656 l -4.66279,-0.59 -0.85375,3.1475 4.33443,1.7705 c -0.21735,1.6181 -0.14859,3.228 0.0657,4.7871 l -4.4001,1.7047 0.85375,3.0821 4.59712,-0.5248 c 0.6057,1.4693 1.45088,2.8134 2.4299005,4.0655 l -2.8896105,3.6723 2.23288,2.2953 3.8090405,-2.82 c 1.22092,0.9334 2.53131,1.7596 4.00606,2.3608 l -0.52539,4.5899 3.15231,0.7871 1.7075,-4.2622 c 1.61452,0.2275 3.16926,0.2098 4.72846,0 l 1.7075,4.328 3.15231,-0.8529 -0.59106,-4.5899 c 1.48851,-0.604 2.93359,-1.3757 4.20308,-2.3608 l 3.54635,2.82 2.29855,-2.2953 -2.75826,-3.6723 c 0.97034,-1.2514 1.81609,-2.6742 2.4299,-4.1968 l 4.53144,0.7217 0.85375,-3.1477 -4.33442,-1.7705 c 0.20275,-1.5828 0.20877,-3.1923 0,-4.7213 l 4.26875,-1.7705 -0.85375,-3.1475 -4.46577,0.6561 c -0.60493,-1.4743 -1.45136,-2.8741 -2.4299,-4.1317 l 2.75826,-3.7373 -2.29855,-2.2296 -3.61202,2.8853 c -1.25479,-0.97 -2.6126,-1.812 -4.13741,-2.4264 l 0.72241,-4.6554 -3.15231,-0.8528 z m -4.66279,8.9837 c 0.67134,-0.026 1.3587,-0.025 2.03587,0.065 l -1.37913,5.2459 c -2.77763,-0.066 -5.34765,1.4448 -6.69866,3.869 l -5.18817,-1.4426 c 1.97764,-4.5405 6.38744,-7.5411 11.23009,-7.7375 z m 5.51655,1.0493 c 5.20636,2.2146 8.29279,7.6256 7.61807,13.2458 l -5.1225,-1.3771 c 0.04,-2.7801 -1.48513,-5.3659 -3.94038,-6.6886 l 1.44481,-5.1801 z m -4.85981,8.7213 c 0.19754,0 0.39276,0.076 0.59105,0.1292 1.58633,0.4246 2.52706,2.0864 2.10154,3.6722 -0.42551,1.5854 -2.02569,2.5228 -3.61202,2.0982 -1.58632,-0.4241 -2.52705,-2.0209 -2.10154,-3.6063 0.37233,-1.3875 1.63811,-2.3671 3.02097,-2.2952 z m -12.87193,1.4423 5.18818,1.3771 c -0.0917,2.8126 1.40884,5.4674 3.87471,6.82 l -1.37914,5.1147 c -5.25609,-2.2239 -8.41584,-7.6525 -7.68375,-13.3118 z m 19.30789,5.1807 5.1225,1.3768 c -2.20045,5.2438 -7.62105,8.3612 -13.26596,7.6722 l 1.37913,-5.1147 c 2.80817,0.065 5.4278,-1.462 6.76433,-3.9343 z"
       style="fill:none;fill-opacity:1;stroke:#000000;stroke-width:1.5;stroke-linejoin:round;stroke-miterlimit:4;stroke-dasharray:none;stroke-opacity:0.46835447" />
    <path
       style="fill:url(#linearGradient4966);fill-opacity:1;stroke:url(#linearGradient4968);stroke-width:1;stroke-miterlimit:4;stroke-dasharray:none;stroke-opacity:1"
       d="m 27.830284,1006.1571 -1.83885,4.3935 c -1.58294,-0.2036 -3.19667,-0.221 -4.72846,0 l -1.83884,-4.3279 -3.08664,0.8524 0.65673,4.6558 c -1.44423,0.5994 -2.83225,1.4056 -4.07173,2.3608 l -3.8090405,-2.8853 -2.23289,2.2948 2.88962,3.6721 c -0.94606,1.2148 -1.75409,2.5953 -2.36423,4.0656 l -4.66279,-0.59 -0.85375,3.1475 4.33442,1.7705 c -0.21734,1.6181 -0.14859,3.228 0.0657,4.7871 l -4.4001,1.7047 0.85375,3.0821 4.59712,-0.5248 c 0.60571,1.4693 1.45088,2.8134 2.4299,4.0655 l -2.88961,3.6723 2.23288,2.2953 3.8090405,-2.82 c 1.22092,0.9334 2.53131,1.7596 4.00606,2.3608 l -0.52538,4.5899 3.1523,0.7871 1.70751,-4.2622 c 1.61451,0.2275 3.16925,0.2098 4.72846,0 l 1.7075,4.328 3.15231,-0.8529 -0.59106,-4.5899 c 1.4885,-0.604 2.93359,-1.3757 4.20307,-2.3608 l 3.54635,2.82 2.29856,-2.2953 -2.75827,-3.6723 c 0.97035,-1.2514 1.8161,-2.6742 2.4299,-4.1968 l 4.53145,0.7217 0.85375,-3.1477 -4.33443,-1.7705 c 0.20276,-1.5828 0.20877,-3.1923 0,-4.7213 l 4.26875,-1.7705 -0.85375,-3.1475 -4.46577,0.6561 c -0.60492,-1.4743 -1.45136,-2.8741 -2.4299,-4.1317 l 2.75827,-3.7373 -2.29856,-2.2296 -3.61202,2.8853 c -1.25478,-0.97 -2.61259,-1.812 -4.1374,-2.4264 l 0.7224,-4.6554 -3.15231,-0.8528 z m -4.66279,8.9837 c 0.67134,-0.026 1.35869,-0.025 2.03587,0.065 l -1.37914,5.2459 c -2.77763,-0.066 -5.34765,1.4448 -6.69865,3.869 l -5.18818,-1.4426 c 1.97764,-4.5405 6.38744,-7.5411 11.2301,-7.7375 z m 5.51654,1.0493 c 5.20636,2.2146 8.2928,7.6256 7.61808,13.2458 l -5.12251,-1.3771 c 0.04,-2.7801 -1.48512,-5.3659 -3.94038,-6.6886 l 1.44481,-5.1801 z m -4.85981,8.7213 c 0.19754,0 0.39277,0.076 0.59106,0.1292 1.58632,0.4246 2.52705,2.0864 2.10154,3.6722 -0.42552,1.5854 -2.0257,2.5228 -3.61202,2.0982 -1.58633,-0.4241 -2.52705,-2.0209 -2.10154,-3.6063 0.37232,-1.3875 1.6381,-2.3671 3.02096,-2.2952 z m -12.87192,1.4423 5.18817,1.3771 c -0.0917,2.8126 1.40885,5.4674 3.87471,6.82 l -1.37913,5.1147 c -5.25609,-2.2239 -8.41584,-7.6525 -7.68375,-13.3118 z m 19.30788,5.1807 5.1225,1.3768 c -2.20045,5.2438 -7.62104,8.3612 -13.26596,7.6722 l 1.37914,-5.1147 c 2.80817,0.065 5.42779,-1.462 6.76432,-3.9343 z"
       id="path4964" />
  </g>
</svg>
