<svg height="48" width="48" xmlns="http://www.w3.org/2000/svg">
  <g transform="translate(0 16)">
    <path d="m7.5456211 13.95851h33.5390949" fill="none" stroke="#606060" stroke-width="1.360152"/>
    <g transform="matrix(1.3601518 0 0 1.3601518 2.635431 -11.59006)">
      <path d="m-3.75 9.5481546v19.0000004h7.96875c-1.0919248-2.815054-1.71875-6.043727-1.71875-9.5s.6268252-6.684946 1.71875-9.5000004z" fill="#fff" stroke="#000" stroke-linecap="round" stroke-width=".5"/>
      <g fill="none">
        <path d="m-3.7163823 12.670322 3.10690488-3.1069052m1.90474162 19.0628992 2.2820833-2.130653m-7.291886-7.639247 7.4456559-7.44566m-7.5191345 4.4475 6.3427604-6.2778653m-4.1127099 18.9463913 4.5767154-4.425286m-6.7454313 3.829381 6.3070413-6.307042m-6.3200439 3.213077 6.2958784-6.295878m-6.2800546 3.297718 6.5191349-6.519139" stroke="#000" stroke-width=".5"/>
        <path d="m4.952994 28.548155c-1.091925-2.815054-1.71875-6.043727-1.71875-9.5s.626825-6.684946 1.71875-9.5000004" stroke="#606060" stroke-linecap="round"/>
      </g>
    </g>
    <g transform="matrix(1.3601518 0 0 1.3601518 2.635431 -12.588743)">
      <path d="m35.164977 10.282398v19.000001h-7.96875c1.091925-2.815054 1.71875-6.043727 1.71875-9.5s-.626825-6.684946-1.71875-9.500001z" fill="#fff" stroke="#000" stroke-linecap="round" stroke-width=".5"/>
      <g fill="none">
        <path d="m35.131359 26.768183-2.522817 2.522815m-2.185969-19.01963-2.433514 2.433513m7.140457 7.877208-7.445656 7.44566m7.519134-4.4475-5.715407 5.715408m3.939647-19.011287-4.922841 4.922842m6.637267-3.699584-6.307042 6.307042m6.320044-3.213077-6.295878 6.295878m6.280054-3.297718-6.519135 6.519139" stroke="#000" stroke-width=".5"/>
        <path d="m26.461983 29.282399c1.091925-2.815054 1.71875-6.043727 1.71875-9.5s-.626825-6.684946-1.71875-9.500001" stroke="#606060" stroke-linecap="round"/>
      </g>
    </g>
    <path d="m27.090082 6.588078h10.6825v20.17737h-10.6825z" fill="#b9caf3" fill-opacity=".675258" stroke="#007efa" stroke-linecap="round" stroke-width="1.452962" transform="matrix(1 0 -.48171678 .87632696 0 0)"/>
    <text font-family="Times New Roman" font-size="11.472501" font-weight="bold" letter-spacing="0" transform="scale(.95258889 1.0497708)" word-spacing="0" x="1.960869" y="-2.859867"><tspan font-family="Times New Roman" font-size="11.472501" font-weight="bold" x="1.960869" y="-2.859867">M1</tspan></text>
    <g fill="none" stroke="#007efa" stroke-linecap="round" stroke-width=".680076">
      <path d="m26.895098 7.3838508 2.538319 3.8282812"/>
      <path d="m23.940662 10.005395 2.538319 3.828282"/>
      <path d="m22.609084 15.248477 2.538319 3.828283"/>
      <path d="m19.363367 17.828406 2.53832 3.828283"/>
    </g>
    <text font-family="Times New Roman" font-size="11.472501" font-weight="bold" letter-spacing="0" transform="scale(.95258889 1.0497708)" word-spacing="0" x="31.95949" y="-2.859867"><tspan font-family="Times New Roman" font-size="11.472501" font-weight="bold" x="31.95949" y="-2.859867">M2</tspan></text>
  </g>
</svg>
