<svg height="24" width="24" xmlns="http://www.w3.org/2000/svg" xmlns:xlink="http://www.w3.org/1999/xlink">
  <linearGradient id="a" gradientUnits="userSpaceOnUse" x1="5.42373" x2="25.169493" y1="11.847458" y2="11.745763">
    <stop offset="0" stop-color="#00acff" stop-opacity=".559211"/>
    <stop offset="1" stop-color="#00acff" stop-opacity=".138158"/>
  </linearGradient>
  <path d="m1.8389838 8.1538459-1.8389838-.0457712v7.7302353l1.8389838.0078c7.692309 0 22.3409162 7.692309 28.1101472 11.538461v-30.7692302c-5.769231 3.84619795-20.4178382 11.5385051-28.1101472 11.5385051z" fill="url(#a)" stroke="#00acff" stroke-linecap="round" stroke-opacity=".680365" stroke-width=".5"/>
  <g fill="#1b4627">
    <g transform="matrix(.72647854 0 0 .72647854 2.346881 1.030692)">
      <path d="m5.6917037 20.637652-1.3603373-1.038304 10.8750886-14.2480259 1.360338 1.0383036z"/>
      <path d="m4.5513468 13.353273 2.4813793 1.218535h-8.352498l2.8912502-1.218535 1.9607317-11.1440482-2.63646568-.1550861 6.08159348-2.45922303z"/>
    </g>
    <path d="m17.415876 11.884951c-.587303 2.736536-2.47909 4.892058-5.025883 5.734929.922029 1.479881 2.295841 2.459207 3.597364 2.3461l.135553.813317c-3.502657.744513-5.563734-.522574-7.0383216-2.763186-4.501674-.405122-5.9114558-4.084111-5.1822903-7.924629.7821451-4.1195615 4.0452966-6.369148 7.9246289-6.4022659 4.893226-.041774 6.467263 4.1032315 5.588949 8.1957349zm-5.8392-7.1008849c-3.1684736-.0202019-4.1951005 3.6835334-4.6400792 6.3292759-.4380434 2.604507-.038596 5.7934 2.8153288 5.849628 3.1545464.06215 4.4828494-3.585594 4.6922144-6.256286.22357-2.8518915-.05079-5.9046591-2.867464-5.9226179z" transform="matrix(.81631828 0 0 .81631828 6.852222 6.509454)"/>
  </g>
</svg>
