<?xml version="1.0" encoding="UTF-8" standalone="no"?>
<svg
   xmlns:dc="http://purl.org/dc/elements/1.1/"
   xmlns:cc="http://creativecommons.org/ns#"
   xmlns:rdf="http://www.w3.org/1999/02/22-rdf-syntax-ns#"
   xmlns:svg="http://www.w3.org/2000/svg"
   xmlns="http://www.w3.org/2000/svg"
   xmlns:xlink="http://www.w3.org/1999/xlink"
   id="svg2742"
   height="24"
   width="24"
   version="1.0">
  <defs
     id="defs2744">
    <linearGradient
       id="linearGradient6861">
      <stop
         offset="0"
         style="stop-color:#00acff;stop-opacity:0.55921054"
         id="stop6863" />
      <stop
         offset="1"
         style="stop-color:#00acff;stop-opacity:0.13815789"
         id="stop6865" />
    </linearGradient>
    <linearGradient
       gradientUnits="userSpaceOnUse"
       xlink:href="#linearGradient6861"
       id="linearGradient6867"
       y2="11.745763"
       x2="22.830509"
       y1="11.847458"
       x1="3.0847456" />
  </defs>
  <metadata
     id="metadata2747">
    <rdf:RDF>
      <cc:Work
         rdf:about="">
        <dc:format>image/svg+xml</dc:format>
        <dc:type
           rdf:resource="http://purl.org/dc/dcmitype/StillImage" />
        <dc:title></dc:title>
      </cc:Work>
    </rdf:RDF>
  </metadata>
  <path
     style="display:inline;fill:url(#linearGradient6867);fill-opacity:1;stroke:#00acff;stroke-width:0.5;stroke-linecap:round;stroke-linejoin:miter;stroke-miterlimit:4;stroke-dasharray:none;stroke-opacity:0.68036535"
     id="path6066"
     d="m 0,8.1538459 0,7.6923081 c 7.6923078,0 25.332464,7.692309 31.101695,11.538461 l 0,-30.7692302 C 25.332464,0.46153875 7.6923078,8.1538459 0,8.1538459 Z" />
  <path
     style="fill:none;stroke:#00acff;stroke-width:3;stroke-miterlimit:4;stroke-dasharray:none;stroke-opacity:0.8538813"
     id="path6759"
     d="M 19.477155,2.4513601 C 22.431888,8.7703266 21.497627,15.683867 18.882053,21.286215" />
  <g
     style="display:inline"
     id="layer6" />
  <g
     style="display:none"
     id="layer5">
    <text
       style="font-size:17.97815323px;font-style:normal;font-variant:normal;font-weight:normal;font-stretch:normal;text-align:start;line-height:125%;writing-mode:lr-tb;text-anchor:start;fill:#000000;fill-opacity:1;stroke:none;display:inline;font-family:Times New Roman;-inkscape-font-specification:Times New Roman"
       xml:space="preserve"
       id="text13317"
       transform="scale(1.1328754,0.8827096)"
       y="13.279749"
       x="5.9327812"><tspan
         id="tspan13323"
         y="13.279749"
         x="5.9327812">S</tspan></text>
    <path
       style="fill:none;stroke:#ff0005;stroke-width:1.5;stroke-linecap:round;stroke-linejoin:miter;stroke-miterlimit:4;stroke-opacity:1;stroke-dasharray:none;display:inline"
       id="path13321"
       d="m 4,17.000267 c 8.802697,0.26229 13.999999,-3 18.999999,-7.9999992" />
  </g>
  <g
     style="display:none"
     id="layer2">
    <path
       style="fill:none;stroke:#ff4300;stroke-width:1.5;stroke-linecap:round;stroke-linejoin:miter;stroke-miterlimit:4;stroke-opacity:1;stroke-dasharray:none"
       id="path12606"
       d="M 4.0111821,15.990455 C 12.813879,16.252745 18,13 23,7" />
    <path
       style="font-size:18.61267853px;font-style:normal;font-variant:normal;font-weight:normal;font-stretch:normal;text-align:start;line-height:125%;writing-mode:lr-tb;text-anchor:start;fill:#000000;fill-opacity:1;stroke:none;display:inline;font-family:Times New Roman;-inkscape-font-specification:Times New Roman"
       id="text3163"
       transform="scale(1.103083,0.9065501)"
       d="M 12.71547,8.1177516 C 12.188347,9.3173972 11.382526,9.9172193 10.298003,9.9172195 9.5406477,9.9172193 8.8453994,9.5673231 8.2122556,8.8675299 7.5791085,8.1677383 7.2625357,7.1604614 7.2625364,5.8456961 7.2625357,4.767232 7.4518735,3.88719 7.8305503,3.2055676 8.2092245,2.5239581 8.7045321,2.0013859 9.3164745,1.6378493 9.9284115,1.2743288 10.743321,1.0925646 11.761206,1.092556 l 0,0.3362642 c -0.896709,8.2e-6 -1.593472,0.3695956 -2.0902908,1.1087631 -0.4968254,0.7391818 -0.7452365,1.7873556 -0.7452342,3.1445248 -2.3e-6,1.3753535 0.1620708,2.3174982 0.4862199,2.826437 0.3241434,0.5089411 0.7073631,0.763411 1.1496601,0.7634106 1.93319,-0.616632 1.687496,-2.4827973 1.32688,-4.5713756 -5e-6,-1.3511093 0.275671,-2.0266665 0.827029,-2.0266735 0.551345,7e-6 0.827021,0.6240643 0.827028,1.8721737 -0.396598,2.2133163 -0.914348,3.9202555 1.272351,4.7258754 0.454402,4e-7 0.84671,-0.2378078 1.176925,-0.7134254 C 16.321969,8.082915 16.487072,7.1846966 16.487082,5.8638725 16.487072,4.7611732 16.379528,3.9174841 16.16445,3.3328027 15.949352,2.748134 15.62975,2.290694 15.205642,1.9604812 14.781517,1.6302838 14.263489,1.4530637 13.651556,1.4288202 l 0,-0.3362642 c 1.017873,8.6e-6 1.832783,0.1848022 2.444732,0.5543815 0.61193,0.3695954 1.105723,0.8906529 1.48138,1.5631742 0.375635,0.6725342 0.563458,1.5419732 0.56347,2.6083197 -1.2e-5,1.3329417 -0.304467,2.3493069 -0.913366,3.0490985 -0.608921,0.6997932 -1.319316,1.0496894 -2.131188,1.0496896 -1.11483,-2e-7 -1.908534,-0.5998223 -2.381114,-1.7994679 l 0,0 z" />
    <text
       style="font-size:18.61267853px;font-style:normal;font-variant:normal;font-weight:normal;font-stretch:normal;text-align:start;line-height:125%;writing-mode:lr-tb;text-anchor:start;fill:#003366;fill-opacity:1;stroke:none;display:inline;font-family:Times New Roman;-inkscape-font-specification:Times New Roman"
       xml:space="preserve"
       id="text13304"
       transform="scale(1.103083,0.9065501)"
       y="9.6627493"
       x="-13.363182"><tspan
         id="tspan13306"
         y="9.6627493"
         x="-13.363182">ω</tspan></text>
  </g>
  <g
     style="display:none"
     id="layer3">
    <path
       style="fill:none;stroke:#ff4300;stroke-width:1.5;stroke-linecap:round;stroke-linejoin:miter;stroke-miterlimit:4;stroke-opacity:1;stroke-dasharray:none;display:inline"
       id="path13302"
       d="M 5,0 C 5.3889246,8.1174473 5.7825075,18 9,18 14,18 23,8 23,8" />
    <text
       style="font-size:18.46304131px;font-style:normal;font-variant:normal;font-weight:normal;font-stretch:normal;text-align:start;line-height:125%;writing-mode:lr-tb;text-anchor:start;fill:#000000;fill-opacity:1;stroke:none;display:inline;font-family:Times New Roman;-inkscape-font-specification:Times New Roman"
       xml:space="preserve"
       id="text13296"
       transform="scale(1.1120232,0.8992618)"
       y="13.344278"
       x="6.2948327"><tspan
         id="tspan13300"
         y="13.344278"
         x="6.2948327">R</tspan></text>
  </g>
  <path
     style="fill:none;stroke:#009eeb;stroke-width:2;stroke-miterlimit:4;stroke-dasharray:none;stroke-opacity:0.85490196"
     id="path6761"
     d="m 11.561901,5.5600764 c 1.581956,4.0015395 1.51093,8.9084846 -0.08283,12.8161976" />
  <path
     style="fill:none;stroke:#008fd3;stroke-width:2.78571439;stroke-miterlimit:4;stroke-dasharray:none;stroke-opacity:0.85490196"
     id="path6763"
     transform="matrix(0.35897436,0,0,0.35897436,-4.3012819,5.717949)"
     d="m 23.272037,5.5034626 c 2.418026,8.3253804 2.674909,15.2172984 0.356644,24.0797514" />
  <circle
     style="opacity:1;fill:#c30000;fill-opacity:1;fill-rule:nonzero;stroke:none;stroke-width:10;stroke-linecap:round;stroke-linejoin:round;stroke-miterlimit:4;stroke-dasharray:none;stroke-dashoffset:0;stroke-opacity:1"
     id="path4172-3"
     cx="21.160154"
     cy="12.000001"
     r="2.4915254" />
  <g
     transform="matrix(0,1,1,0,-3.6516795,-0.5)"
     id="g3284">
    <path
       d="m 12.5,18 0,-14.3483205"
       id="path3264"
       style="fill:none;stroke:#c30000;stroke-width:1px;stroke-linecap:butt;stroke-linejoin:miter;stroke-opacity:1" />
    <path
       d="m 8.5,16 4,6 4,-6"
       id="path3282"
       style="fill:#c30000;fill-opacity:1;fill-rule:evenodd;stroke:none" />
  </g>
</svg>
