<svg height="256" viewBox="0 0 256 256" width="256" xmlns="http://www.w3.org/2000/svg">
  <g fill="#001851" fill-rule="evenodd" transform="matrix(.07100423 0 0 .07100423 2.063757 177.03575)">
    <path d="m816.95318-2214.9085c-724.608152 6.9753-793.555227 1326.15874-799.293857 1902.18363 99.186507-301.2184 282.744397-1006.28753 570.664137-1000.97243 440.56214 8.133 1288.21724 2150.05406 1964.39214 2147.4107 745.7908-2.91546 984.8062-1507.5982 976.716-1904.1106-145.8831 479.98115-393.4371 1003.051099-679.209 1002.340645-411.0888-1.022014-1379.9547-2153.141045-2033.26942-2146.851945zm891.77132 1285.95073c379.1433 445.94219 776.0534 1433.94934 1288.8192 1122.50131-465.377 912.80516-946.3453-163.296453-1273.4925-646.89216-284.3264-420.29688-764.08361-1429.04078-1305.2365-1111.70568 445.36236-926.0472 968.2253 257.7364 1289.9098 636.09653z"/>
    <path d="m268.57143-1400.4164c22.85714 5.0347 565.71428 0 565.71428 0l1491.42859 2054.20369h474.2857l377.1429-553.829414-508.5715-20.139215-1611.4285-2089.447461-485.71433 5.0348z" fill-opacity=".392405"/>
  </g>
</svg>
