<svg height="24" width="24" xmlns="http://www.w3.org/2000/svg" xmlns:xlink="http://www.w3.org/1999/xlink">
  <linearGradient id="a" gradientUnits="userSpaceOnUse" x1="-4.398955" x2="22.398954" y1="13" y2="13">
    <stop offset="0" stop-color="#97b094"/>
    <stop offset="1" stop-color="#b0c892"/>
  </linearGradient>
  <linearGradient id="b" gradientUnits="userSpaceOnUse" x1="-4.546595" x2="22.546595" y1="13" y2="13">
    <stop offset="0" stop-color="#4a5405"/>
    <stop offset="1" stop-color="#594740"/>
  </linearGradient>
  <linearGradient id="c" gradientUnits="userSpaceOnUse" x1="5.411739" x2="23.563744" y1="14.141372" y2="14.141372">
    <stop offset="0" stop-color="#ffe168"/>
    <stop offset="1" stop-color="#e4dcd4"/>
  </linearGradient>
  <linearGradient id="d" gradientTransform="matrix(.45519824 .80090079 -.78842639 .46240034 19.143413 -4.378195)" gradientUnits="userSpaceOnUse" x1="19.892296" x2="19.892296" y1="18.08366" y2="7.277968">
    <stop offset="0" stop-color="#aa803b"/>
    <stop offset="1" stop-color="#ccb383"/>
  </linearGradient>
  <g stroke-linecap="round">
    <path d="m17 24c-2.189807 1.592588-2.478747-2.784322-5.053514-1.94637-2.5747676.837953-.232297 4.546546-2.9399878 4.547839-2.7076908.001294-.3687649-3.709535-2.9443316-4.545027-2.5755668-.835492-2.8603243 3.541692-5.0516526 1.951197-2.1913282-1.590494 1.8820732-3.217831.2894859-5.407639-1.59258728-2.189807-4.3958051 1.184033-5.2337579-1.390735-.8379528-2.574767 3.41402323-1.497025 3.41272961-4.204716-.00129361-2.707691-4.25223791-1.625887-3.41674571-4.2014541.8354921-2.5755667 3.64193245.7955933 5.2324266-1.3957349 1.5904942-2.1913283-2.4844603-3.814773-.29465276-5.4073604 2.18980756-1.59258725 2.47874726 2.7843227 5.05351456 1.94637 2.5747673-.8379528.2322967-4.54654536 2.9399875-4.54783899 2.7076912-.00129364.3687649 3.70953549 2.9443312 4.54502769 2.575567.8354922 2.860325-3.54169191 5.051653-1.9511977 2.191328 1.5904941-1.882073 3.2178318-.289486 5.4076393s4.395805-1.1840325 5.233758 1.3907348-3.414023 1.4970253-3.41273 4.2047163c.001294 2.707691 4.252238 1.625887 3.416746 4.201454s-3.641932-.795593-5.232427 1.395735c-1.590494 2.191328 2.484461 3.814773.294653 5.40736z" fill="url(#a)" stroke="url(#b)" stroke-width="1.506753" transform="matrix(.53235650293 -.16969271786 .16327385141 .55262039045 1.07875085899 2.34278462785)"/>
    <path d="m20 12a8 9 0 1 1 -16 0 8 9 0 1 1 16 0z" fill="#8bb666" stroke="#abd9ad" stroke-width="1.172042" transform="matrix(.5188633923 -.16539163764 .14153889699 .4790557151 .14976345328 4.04027226166)"/>
    <path d="m20 12a8 9 0 1 1 -16 0 8 9 0 1 1 16 0z" fill="#fff" stroke="#5b6900" stroke-width="5.187696" transform="matrix(.2131372011 -.06793908501 .05814092758 .1967851103 4.72983841351 6.25021491986)"/>
  </g>
  <path d="m19.479399 8.7201418h.000033c-.692436-1.02195-2.134787-.794676-2.535048-.05666-.362191-.518293-1.937847-.865958-2.72455-.179441-.786701-.417509-2.32545-.22965-2.874596.131939-1.5242884-1.529684-2.3770864-4.0473263-4.0982228-2.613725-.560861.51078-.400012 1.525173.7925904 2.795609 1.197281 1.2754222 5.5485574 8.1071572 5.5485574 8.1071572s-3.113487-2.604504-5.3076714-3.676178c-1.5650554-.764396-2.8680504.510679-2.6555244 1.139424.290029.858032.872723 1.015542 2.23741 1.530011 1.2559334.473469 1.9387404 2.449588 2.9711038 3.361858 1.570198 1.38754 5.835756 4.105924 5.835756 4.105924l6.706722-3.933393c-.304231-4.841555-1.389967-7.12976-3.89656-10.7125282z" fill="none" stroke="#000" stroke-linejoin="round" stroke-opacity=".504808" stroke-width="1.036402"/>
  <path d="m19.304045 8.5915628h.000032c-.668115-.986056-2.151114-.609637-2.445977-.05467.707188 1.380097 1.511376 2.4036462 2.594831 4.2438002 0 0-2.304522-3.6022252-3.128342-4.4677182-.384826-.449639-1.557523-.285287-2.095344.05078 1.116588 1.9320492 2.012304 3.4906582 3.306987 5.5201342l-3.149765-5.1320802c-.623283-1.01555-2.401027-.609635-2.930885-.260746 1.594561 2.2673312 2.85503 4.2592302 4.324132 6.4396332-1.650312-2.394192-3.878006-6.0704152-6.0918154-8.5509242-.787197-.882032-1.415753-1.112646-2.1865974-.410632-.541161.49284-.385962 1.471604.7647524 2.697418 1.155229 1.230623 5.3536744 7.8224062 5.3536744 7.8224062s-3.004131-2.513025-5.1212494-3.547059c-1.5100854-.737548-2.7673154.492744-2.5622534 1.099404.279842.827895.84207.979874 2.1588254 1.476272 1.211821.45684 1.870645 2.363551 2.8667484 3.243779 1.515048 1.338805 5.630786 3.961712 5.630786 3.961712l6.471161-3.79524s-.218365-4.488934-1.889697-7.421018c-.746423-1.363139-1.870004-2.9152512-1.870004-2.9152512z" fill="url(#c)" fill-rule="evenodd" stroke="url(#d)" stroke-linejoin="round"/>
</svg>
