<svg height="24" width="24" xmlns="http://www.w3.org/2000/svg" xmlns:xlink="http://www.w3.org/1999/xlink">
<linearGradient id="a" gradientUnits="userSpaceOnUse" x1="18.81" x2="8.1" y1="22.02" y2="10.04">
<stop offset="0" stop-color="#f3c668"/>
<stop offset="1" stop-color="#f9f398"/>
</linearGradient>
<linearGradient id="b" gradientUnits="userSpaceOnUse" x1="2.53" x2="21.5" y1="2.38" y2="20.73">
<stop offset="0" stop-color="#ded0b0"/>
<stop offset="1" stop-color="#b49759"/>
</linearGradient>
<linearGradient id="c" gradientUnits="userSpaceOnUse" x1="3" x2="21.5" y1="1" y2="16.59">
<stop offset="0" stop-color="#ceba8b"/>
<stop offset="1" stop-color="#b99f65"/>
</linearGradient>
<linearGradient id="d" gradientUnits="userSpaceOnUse" x1="17.34" x2="21" y1="2.22" y2="2.22">
<stop offset="0" stop-color="#d7e5f4"/>
<stop offset="1" stop-color="#b0cae7"/>
</linearGradient>
<g stroke-linecap="round">
<path d="m19.5 4.61c1.3 0 2.01.98 2 2v14.96c0 1.07-.92 1.9-2 1.93h-13.5c-2.43-.04-3.63-3.02-3.5-6v-14.89" fill="url(#a)" stroke="url(#b)" stroke-linejoin="round"/>
<path d="m6 22v-15.5" fill="#bd9e82" stroke="#fff" stroke-linejoin="round" stroke-opacity=".63"/>
<path d="m19 1.23-14-.63c-3.69 0-2.97 4.02 0 4.01h14.5c1.3 0 2.01.98 2 2" fill="none" stroke="url(#c)" stroke-linejoin="round"/>
<path d="m5 22v-15.5" fill="#bd9e82" stroke="#d2b673" stroke-linejoin="round" stroke-opacity=".46"/>
</g>
<path d="m19.49 1.37-14.49-.33c-3.29 0-2.22 3.18 0 3.18h12.5c2.5 0 2.94.07 3.5.46" fill="url(#d)"/>
<path d="m4.31 2.5 14.69.43" style="fill:#bd9e82;stroke:#92b1de;stroke-linecap:round;stroke-linejoin:round;stroke-opacity:.61;stroke-width:.5"/>
<g fill="#bd9e82" stroke-linejoin="round" stroke-opacity=".61" transform="translate(.47 2.33)">
<path d="m11.19 7.45h-.95v2.29h-.8v-2.29h-.95v-.55h2.7zm4.1 2.29h-.74c-.01-.47.03-.95-.04-1.43-.09-.32-.61-.24-.79-.07v1.5h-.74v-2.97h.74v1.06c.35-.29.91-.42 1.31-.14.36.29.25.77.27 1.16zm-2.86 0h-.73v-2.14h.74zm.02-2.45h-.78v-.52h.78zm5.6 1.77c.01.45-.51.7-.93.73-.41.04-.84-.01-1.22-.16v-.57c.29.1.59.3.93.28.23.08.7-.17.32-.33-.41-.1-.96-.07-1.18-.48-.18-.34.06-.75.43-.87.49-.19 1.06-.14 1.55.03v.54c-.26-.07-.51-.25-.81-.24-.23-.08-.71.17-.33.33.41.12.97.07 1.19.48.04.08.05.17.05.25z"/>
<path d="m8.34 12.32c0 .66-.46.85-.79.79h-.57v-2.57c.36.03.73-.09 1.07.11.28.21.2.89-.05 1.05.19.04.35.3.34.62zm-.53-1.06c-.04-.4-.56-.4-.42.12-.09.36.5.19.42-.12zm.1 1.05c.01-.4-.64-.54-.52-.03-.13.56.43.45.52.11l.01-.09zm1.92-.17c.05.75-.46 1.2-.87.99-.59-.18-.59-1.8 0-1.98.42-.2.9.22.86.99zm-.47.47c.3-.5-.18-1.6-.42-.76-.1.45.08 1.21.42.76zm3.53-.47c.05.75-.46 1.2-.87.99-.59-.18-.59-1.8 0-1.98.42-.2.9.22.86.99zm-.47.47c.3-.5-.18-1.6-.42-.76-.1.45.08 1.21.42.76zm-1.02.5c-.15-.02-.33.05-.46-.03-.11-.27-.21-.54-.32-.81-.17.2-.08.55-.1.84-.11-.06-.39.14-.38-.12v-2.56c.11.06.39-.14.38.12v1.48l.41-.86c.13.02.37-.04.42.03l-.41.8.46 1.1zm8.12-.22c.06.77-.46 1.07-.85.94-.28.27-.4-.68-.14-.51.23.15.66.14.61-.43-.39.57-.99-.11-.86-.91-.01-.69.52-1.1.86-.72.04-.17.32-.09.38-.05v1.67zm-.38-.39v-.88c-.52-.47-.67 1.25-.1.96l.05-.03.05-.04zm-2.6-.37c.05.75-.46 1.2-.87.99-.59-.18-.59-1.8 0-1.98.42-.2.9.22.86.99zm-.47.47c.3-.5-.18-1.6-.42-.76-.1.45.08 1.21.42.76zm1.96-.47c.05.75-.46 1.2-.87.99-.59-.18-.59-1.8 0-1.98.42-.2.9.22.86.99zm-.47.47c.3-.5-.18-1.6-.42-.76-.1.45.08 1.21.42.76zm-2.64.5c0 .13-.39.14-.38-.12-.16.18-.78.33-.83-.42-.13-.6.07-1.46.51-1.45.31.21.35.07.32-.4-.07-.37.12-.3.28-.29.2-.07.07.39.1.58v2.11zm-.38-.53v-.95c-.49-.46-.68 1.18-.16 1.06.06-.02.11-.05.16-.11z"/>
</g>
</svg>
