<svg height="512" width="512" xmlns="http://www.w3.org/2000/svg" xmlns:xlink="http://www.w3.org/1999/xlink">
  <linearGradient id="a">
    <stop offset="0" stop-color="#ef6c5b"/>
    <stop offset="1" stop-color="#ea290f"/>
  </linearGradient>
  <linearGradient id="b" gradientTransform="matrix(-27.844944 0 0 27.844944 632.37191 -121.4307)" gradientUnits="userSpaceOnUse" x1="11.423368" x2="10.463881" xlink:href="#a" y1="10.537481" y2="15.848443"/>
  <linearGradient id="c" gradientTransform="matrix(28.165668 0 0 23.288462 -126.78176 -55.97219)" gradientUnits="userSpaceOnUse" x1="15.688045" x2="12.286315" y1="8.781764" y2="3.462478">
    <stop offset="0" stop-color="#5f5350"/>
    <stop offset="1" stop-color="#958986"/>
  </linearGradient>
  <linearGradient id="d" gradientUnits="userSpaceOnUse" x1="207.69908608224" x2="203.92066640616" xlink:href="#a" y1="182.12644246997" y2="346.3515783707"/>
  <path d="m130.26673 127.54049 66.86664-44.57776h133.73326l66.86663 44.57776-89.15551 356.62204h-89.15551z" fill="#240602"/>
  <path d="m241.71112 506.26228c-111.44439.18912-178.31102-100.83432-178.31102-200.41077 0-83.89919 25.871233-163.59285 96.06781-198.83571 9.82228 34.37442 34.1873 52.67264 66.64258 62.104 11.41976 5.09148 26.85778 22.86114 26.94807 38.38002l.4 130.78149c0 94.16973-11.74744 167.98097-11.74744 167.98097z" fill="url(#d)" stroke="#fff" stroke-width="5"/>
  <path d="m363.00782 91.75946c0 37.47324-42.39519 75.66332-98.65597 75.66332s-98.65594-38.19008-98.65594-75.66332c0-37.47329 42.39516-75.66336 98.65594-75.66336s98.65597 38.19007 98.65597 75.66336z" fill="url(#c)"/>
  <path d="m286.28888 506.26228c111.44438.18912 178.31102-100.83432 178.31102-200.41077 0-83.89919-25.87133-163.59285-96.0679-198.83571-8.93936 32.31145-37.86688 56.16243-71.01014 64.57037-11.65447 2.80413-21.99226 17.63844-22.14075 29.4131l-.83977 137.28204c0 94.16973 11.74754 167.98097 11.74754 167.98097z" fill="url(#b)" stroke="#fff" stroke-width="5"/>
  <path d="m224.1177 233.71265a55.722195 55.722195 0 0 1 -111.44439 0 55.722195 55.722195 0 1 1 111.44439 0z" fill-opacity=".505882"/>
  <path d="m414.83044 363.20026a55.722195 55.722195 0 0 1 -111.44439 0 55.722195 55.722195 0 1 1 111.44439 0z" fill-opacity=".505882"/>
  <path d="m128.10722 365.78783c-18.86854 0-35.19362 9.33237-45.274282 23.68193 13.597352 33.49952 35.444572 63.4294 64.080522 84.27982 21.38988-7.78408 36.91595-28.1585 36.91595-52.23956 0-30.77452-24.94767-55.72219-55.72219-55.72219z" fill-opacity=".507463"/>
  <path d="m415.91291 150.47345c-23.18746 6.74332-40.39859 27.57263-40.39859 52.93608 0 30.77452 24.94767 55.7222 55.72219 55.7222 9.72435 0 18.51056-2.5866 26.46804-6.96528-6.12413-38.60204-19.56595-73.84452-41.79164-101.693z" fill-opacity=".505882"/>
  <path id="e" d="m233.04231 41.371475a30.096412 30.959338 89.997187 1 1 -61.13522 9.545183 30.096412 30.959338 89.997187 1 1 61.13522-9.545183z"/>
  <use height="512" transform="matrix(.97213834 0 0 .97373946 130.24296 1.991932)" width="512" xlink:href="#e"/>
</svg>
