<svg height="48" width="48" xmlns="http://www.w3.org/2000/svg" xmlns:xlink="http://www.w3.org/1999/xlink">
  <linearGradient id="a">
    <stop offset="0"/>
    <stop offset="1" stop-color="#1444a1"/>
  </linearGradient>
  <linearGradient id="b">
    <stop offset="0" stop-color="#aebdcc"/>
    <stop offset="1" stop-color="#e6eaf1"/>
  </linearGradient>
  <linearGradient id="c" gradientUnits="userSpaceOnUse" x1="24.6" x2="39.6" xlink:href="#b" y1="24" y2="24"/>
  <linearGradient id="d" gradientTransform="matrix(.862 0 0 1 5.53 4)" gradientUnits="userSpaceOnUse" x1="25" x2="39" xlink:href="#b" y1="45.5" y2="45.5"/>
  <linearGradient id="e" gradientUnits="userSpaceOnUse" x1="5" x2="43" y1="45.8" y2="45.8">
    <stop offset="0" stop-color="#b5d2df"/>
    <stop offset="1" stop-color="#c5c2d1"/>
  </linearGradient>
  <linearGradient id="f" gradientUnits="userSpaceOnUse" x1="1" x2="47.5" xlink:href="#a" y1="24" y2="24"/>
  <linearGradient id="g" gradientUnits="userSpaceOnUse" x1="1" x2="43" xlink:href="#a" y1="45.8" y2="45.8"/>
  <linearGradient id="h" gradientTransform="matrix(.862 0 0 1 5.53 4)" gradientUnits="userSpaceOnUse" x1="25.1" x2="38.9" xlink:href="#a" y1="45.5" y2="45.5"/>
  <g fill-rule="evenodd" stroke-width="1.3">
    <path d="m1.5 13.2h26.1v22.2l14.8.07v-34.9c-12.2 0-30.7 3.94-40.9 11.6z" fill="url(#c)" stroke="url(#f)"/>
    <path d="m46.4 34.6v18.4h-26.7v-7.5c-5.76-.14-14.7-4.6-18-9.86v-1z" fill="url(#e)" stroke="url(#g)"/>
    <rect fill="url(#d)" height="10.5" rx="1.64" ry="1.74" stroke="url(#h)" stroke-dashoffset="21.4" stroke-linecap="round" stroke-linejoin="round" width="15.1" x="27.5" y="38.5"/>
  </g>
  <path d="m16.3 16v16.2h-5.53v-9.53c-1.86 1.36-3.4 2.06-5.74 2.75v-4.31c2.88-.89 5.33-2.17 6.75-5.08z"/>
  <g fill="none" stroke-linecap="round">
    <g stroke="#1d109a">
      <path d="m28 16.5h7"/>
      <path d="m28 22.5h4"/>
      <path d="m28 28.5h7"/>
      <path d="m28 44.5h4"/>
    </g>
    <g stroke-width="1.5">
      <path d="m5 11.6c9.43-5.34 18.9-8.48 31-9.2" stroke="#d5e2ea"/>
      <path d="m4 36.2c5 4.7 9 6.85 16 7.73" stroke="#d9e6ed"/>
    </g>
  </g>
</svg>
