<svg height="24" width="24" xmlns="http://www.w3.org/2000/svg" xmlns:xlink="http://www.w3.org/1999/xlink">
  <linearGradient id="a" gradientTransform="matrix(.79590474 0 0 .76501399 -19.795503 11.874302)" gradientUnits="userSpaceOnUse" x1="40.036739" x2="40.065495" y1="21.035145" y2="45.060703">
    <stop offset="0" stop-color="#fdffff"/>
    <stop offset="1" stop-color="#b2d3fa"/>
  </linearGradient>
  <linearGradient id="b" gradientTransform="matrix(.79590474 0 0 .76501399 -19.795503 11.874302)" gradientUnits="userSpaceOnUse" x1="30.733227" x2="48.908943" y1="19.348246" y2="46.492016">
    <stop offset="0" stop-color="#92b1de"/>
    <stop offset="1" stop-color="#525f96"/>
  </linearGradient>
  <linearGradient id="c" gradientUnits="userSpaceOnUse" x1="-3.325194" x2="8.674806" y1="25.566127" y2="14.566127">
    <stop offset="0" stop-color="#cd3232"/>
    <stop offset="1" stop-color="#e08e8e"/>
  </linearGradient>
  <g transform="translate(0 -24)">
    <g stroke-linecap="round">
      <path d="m2.5 26.500002h19v11.740569l-7.475339 7.259431h-11.524661z" fill="url(#a)" stroke="url(#b)" stroke-opacity=".691542"/>
      <path d="m7.156018 44v-16" fill="none" stroke="#f00" stroke-opacity=".469697" stroke-width=".312036"/>
      <path d="m5 30.843982h14" fill="none" opacity=".517094" stroke="#000" stroke-width=".312036"/>
      <path d="m5 33.843982h14" fill="none" opacity=".517094" stroke="#000" stroke-width=".312036"/>
      <path d="m5 36.843982h14" fill="none" opacity=".517094" stroke="#000" stroke-width=".312036"/>
      <path d="m5 39.843982h14" fill="none" opacity=".517094" stroke="#000" stroke-width=".312036"/>
      <path d="m5 42.843982h14" fill="none" opacity=".517094" stroke="#000" stroke-width=".312036"/>
      <path d="m12 22 4-4-4-4 2-2 4 4 4-4" fill="none" stroke="#fff" stroke-linejoin="round" stroke-width="2" transform="translate(0 24)"/>
    </g>
    <g stroke-linejoin="round" transform="matrix(.631579 0 0 .6384772 16.312369 28.805193)">
      <path d="m5.6748065 20.566127 5.9999995-6-2.9999995-3-6 6-6-6-3 3 5.99999996 6-5.99999996 6 3 3 6-6 6 6 2.9999995-3z" fill="url(#c)" fill-rule="evenodd" stroke="#661b1b"/>
      <path d="m-4.3251935 26.566127 4.99999996-5c1.00000004-1 0-2 0-2l-4.99999996-5" fill="none" stroke="#edbaba" stroke-linecap="round" stroke-width="1.5"/>
    </g>
  </g>
</svg>
