<svg height="48mm" viewBox="0 0 48 48" width="48mm" xmlns="http://www.w3.org/2000/svg" xmlns:xlink="http://www.w3.org/1999/xlink">
  <linearGradient id="a">
    <stop offset="0" stop-color="#92b1de"/>
    <stop offset="1" stop-color="#525f96"/>
  </linearGradient>
  <linearGradient id="b" gradientTransform="matrix(.97103949 0 0 .97101778 .222582 7.697477)" gradientUnits="userSpaceOnUse" x1="8.129786" x2="46.579292" xlink:href="#a" y1="254.82149" y2="289.50079"/>
  <linearGradient id="c" gradientTransform="matrix(.97103949 0 0 .97101778 .222582 7.697477)" gradientUnits="userSpaceOnUse" x1="7.468327" x2="46.484798" y1="265.59381" y2="277.97253">
    <stop offset="0" stop-color="#fdffff"/>
    <stop offset="1" stop-color="#b2d3fa"/>
  </linearGradient>
  <linearGradient id="d" gradientTransform="matrix(3.6700705 0 0 3.6699885 .841255 -912.00954)" gradientUnits="userSpaceOnUse" x1="5.386244" x2="40.74086" xlink:href="#a" y1="267.88113" y2="283.2796"/>
  <linearGradient id="e" gradientTransform="matrix(3.6700705 0 0 3.6699885 .841255 -912.00954)" gradientUnits="userSpaceOnUse" x1="4.921682" x2="43.008717" xlink:href="#a" y1="276.38153" y2="276.38153"/>
  <linearGradient id="f" gradientTransform="matrix(.97103949 0 0 .97101778 .222582 7.697477)" gradientUnits="userSpaceOnUse" x1="6.540844" x2="41.573544" xlink:href="#a" y1="262.6373" y2="262.6373"/>
  <linearGradient id="g" gradientTransform="matrix(.97103949 0 0 .97101778 .222582 7.697477)" gradientUnits="userSpaceOnUse" x1="4.791266" x2="43.96719" xlink:href="#a" y1="289.39175" y2="289.45859"/>
  <linearGradient id="h" gradientTransform="matrix(.97103947 0 0 .97101778 .222581 7.697479)" gradientUnits="userSpaceOnUse" x1="4.921682" x2="43.008717" xlink:href="#a" y1="276.38153" y2="276.38153"/>
  <linearGradient id="i" gradientTransform="matrix(.97103947 0 0 .97101778 .222581 7.697479)" gradientUnits="userSpaceOnUse" x1="5.386244" x2="40.74086" xlink:href="#a" y1="267.88113" y2="283.2796"/>
  <g transform="translate(0 -249)">
    <path d="m42.246228 268.70025 1.19592 7.92561c1.225765 3.42018 5.324064 9.0365.978485 14.18266-2.872579 3.40178-6.371191 4.93004-10.763261 2.7114-3.195569-1.61422-6.378209-4.18475-9.562859-4.06709-3.184656-.11766-6.367295 2.45287-9.562864 4.06709-4.392063 2.21864-7.8906641.69038-10.7632269-2.7114-4.34557715-5.14616-.2472817-10.76248.9784751-14.18266l1.1959135-7.92561c-.5285588-8.64711 2.699424-17.89471 18.1517023-17.51976 15.452282-.37495 18.680279 8.87265 18.151715 17.51976z" fill="none" stroke="#000007" stroke-opacity=".389423" stroke-width="2"/>
    <path d="m41.602205 267.81483 1.190845 7.82435c1.220564 3.37648 5.301472 8.92104.974333 14.00145-2.860389 3.35832-6.344155 4.86705-10.717588 2.67676-3.182009-1.5936-6.351143-4.13129-9.52228-4.01513-3.171142-.11616-6.340276 2.42153-9.522284 4.01513-4.373426 2.19029-7.8571811.68156-10.7175544-2.67676-4.3271373-5.08041-.2462324-10.62497.974323-14.00145l1.1908387-7.82435c-.5263159-8.53663 2.6835174-17.63001 18.0746767-17.63001 15.391164 0 18.601011 9.09338 18.07469 17.63001z" fill="url(#c)" stroke="url(#b)"/>
    <path d="m89.046875 104.67578c-22.564153.49985-28.037983 16.29378-52.570313 31.36524 6.336809 4.98436 9.868884 1.17283 13.308594-1.09961 12.716482-8.40114 20.778652-18.24344 39.009766-18.43555 18.231118.192 26.293278 10.03441 39.009768 18.43555 3.4397 2.27244 6.97372 6.08397 13.31054 1.09961-19.04825-12.82034-26.10247-30.73354-52.068355-31.36524z" fill="url(#e)" stroke="url(#d)" stroke-width="3.779527" transform="matrix(.26458333 0 0 .26458333 0 249)"/>
    <path d="m7.0664353 262.72296h33.0332657" fill="none" stroke="url(#f)" stroke-linecap="round"/>
    <path d="m3.3536698 287.9429c1.7488187 2.12541 4.1416404 4.07069 7.1010632 2.6714 4.151546-1.96294 7.022902-5.55582 12.967577-5.55448 5.446551.00097 9.174034 3.56141 13.021167 5.60544 4.460143 2.36973 7.680566-3.25862 9.163037-5.6564" fill="none" stroke="url(#g)" stroke-linecap="round" stroke-opacity=".6875"/>
    <path d="m6.3127913 266.50332c.08798 3.02257.427612 7.44904 3.9527297 9.31106 8.218934-1.51568 5.984531-5.72177 13.294796-6.03477 7.497535.32102 4.959207 4.73619 13.951601 6.14484 2.810266-1.59264 3.166533-6.60894 3.188954-9.42113z" fill="url(#h)" stroke="url(#i)"/>
  </g>
</svg>
