<svg height="24" width="24" xmlns="http://www.w3.org/2000/svg" xmlns:xlink="http://www.w3.org/1999/xlink">
  <linearGradient id="a">
    <stop offset="0" stop-color="#818eaf"/>
    <stop offset="1" stop-color="#818eaf" stop-opacity="0"/>
  </linearGradient>
  <linearGradient id="b">
    <stop offset="0" stop-color="#92b1de"/>
    <stop offset="1" stop-color="#525f96"/>
  </linearGradient>
  <linearGradient id="c">
    <stop offset="0" stop-color="#fdffff"/>
    <stop offset="1" stop-color="#b2d3fa"/>
  </linearGradient>
  <linearGradient id="d" gradientTransform="matrix(.96153846 0 0 .96153843 1.596153 7.25)" gradientUnits="userSpaceOnUse" x1="18.1" x2="15.1" xlink:href="#b" y1="3.900001" y2="6.900001"/>
  <linearGradient id="e" gradientTransform="matrix(.96895413 0 0 .96221414 1.651963 7.037786)" gradientUnits="userSpaceOnUse" x1="13" x2="18" xlink:href="#c" y1="9.000202" y2="4"/>
  <linearGradient id="f" gradientUnits="userSpaceOnUse" x1="11.5" x2="18.5" xlink:href="#a" y1="12.5" y2="12.5"/>
  <linearGradient id="g" gradientUnits="userSpaceOnUse" x1="11.5" x2="18.5" xlink:href="#a" y1="10.5" y2="10.5"/>
  <linearGradient id="h" gradientUnits="userSpaceOnUse" x1="11.5" x2="18.5" xlink:href="#a" y1="14.5" y2="14.5"/>
  <linearGradient id="i" gradientUnits="userSpaceOnUse" x1="11.5" x2="18.5" xlink:href="#a" y1="16.5" y2="16.5"/>
  <linearGradient id="j" gradientUnits="userSpaceOnUse" x1="11.5" x2="16.5" xlink:href="#a" y1="18.5" y2="18.5"/>
  <linearGradient id="k" gradientTransform="matrix(.99517843 0 0 .89422263 4.53568 5.726706)" gradientUnits="userSpaceOnUse" x1="4.593023" x2="16.453487" xlink:href="#c" y1="2.660808" y2="16.978306"/>
  <linearGradient id="l" gradientTransform="matrix(.99517843 0 0 .89422263 4.53568 5.726706)" gradientUnits="userSpaceOnUse" x1="16.453487" x2="4.593023" xlink:href="#b" y1="2.660808" y2="16.978306"/>
  <linearGradient id="m" gradientUnits="userSpaceOnUse" x1="4.5" x2="9.5" xlink:href="#a" y1="12.5" y2="12.5"/>
  <linearGradient id="n" gradientUnits="userSpaceOnUse" x1="4.5" x2="11.5" xlink:href="#a" y1="10.5" y2="10.5"/>
  <linearGradient id="o" gradientUnits="userSpaceOnUse" x1="4.5" x2="11.5" xlink:href="#a" y1="8.5" y2="8.5"/>
  <linearGradient id="p" gradientUnits="userSpaceOnUse" x1="4.5" x2="9.5" xlink:href="#a" y1="6.5" y2="6.5"/>
  <linearGradient id="q" gradientUnits="userSpaceOnUse" x1="4.5" x2="13.5" xlink:href="#a" y1="4.5" y2="4.5"/>
  <linearGradient id="r" gradientTransform="matrix(.99517844 0 0 .89422268 -1.480713 -.273294)" gradientUnits="userSpaceOnUse" x1="4.593023" x2="16.453487" xlink:href="#c" y1="2.660808" y2="16.978306"/>
  <linearGradient id="s" gradientTransform="matrix(.99517844 0 0 .89422268 -1.480713 -.273294)" gradientUnits="userSpaceOnUse" x1="16.453487" x2="4.593023" xlink:href="#b" y1="2.660808" y2="16.978306"/>
  <path d="m14.5 2.5v13h-12v-13z" style="fill-rule:evenodd;stroke-linecap:round;stroke-linejoin:round;stroke-dashoffset:21.443998;fill:url(#r);stroke:url(#s)"/>
  <g fill="none" stroke-linecap="square">
    <path d="m5 4.5h8" stroke="url(#q)"/>
    <path d="m5 6.5h4" stroke="url(#p)"/>
    <path d="m5 8.5h6" stroke="url(#o)"/>
    <path d="m5 10.5h6" stroke="url(#n)"/>
    <path d="m5 12.5h4" stroke="url(#m)"/>
  </g>
  <path d="m21.5 14.113638v7.386362h-12v-13h6.393443" style="fill-rule:evenodd;stroke-linecap:round;stroke-linejoin:round;stroke-dashoffset:21.443998;fill:url(#k);stroke:url(#l)"/>
  <g fill="none" stroke-linecap="square">
    <path d="m12 18.5h4" stroke="url(#j)"/>
    <path d="m12 16.5h6" stroke="url(#i)"/>
    <path d="m12 14.5h6" stroke="url(#h)"/>
    <path d="m12 10.5h6" stroke="url(#g)"/>
    <path d="m12 12.5h6" stroke="url(#f)"/>
  </g>
  <path d="m22 13h-5v-5" fill="url(#e)" fill-rule="evenodd"/>
  <path d="m21.5 13.5h-5v-5" fill="none" stroke="url(#d)" stroke-linecap="square" stroke-linejoin="round"/>
</svg>
