<svg height="24" width="24" xmlns="http://www.w3.org/2000/svg" xmlns:xlink="http://www.w3.org/1999/xlink">
  <linearGradient id="a" gradientTransform="matrix(.99517844 0 0 .89422268 6.519287 7.726706)" gradientUnits="userSpaceOnUse" x1="4.593023" x2="16.453487" xlink:href="#j" y1="2.660808" y2="16.978306"/>
  <linearGradient id="b" gradientTransform="matrix(.99517844 0 0 .89422268 6.519287 7.726706)" gradientUnits="userSpaceOnUse" x1="16.453487" x2="4.593023" xlink:href="#i" y1="2.660808" y2="16.978306"/>
  <linearGradient id="c" gradientTransform="matrix(1.4615385 0 0 1 -2.02256 12.464021)" gradientUnits="userSpaceOnUse" x1="5" x2="8" y1="5" y2="12">
    <stop offset="0" stop-color="#a1de92"/>
    <stop offset="1" stop-color="#5f9652"/>
  </linearGradient>
  <linearGradient id="d">
    <stop offset="0" stop-color="#f3c668"/>
    <stop offset="1" stop-color="#f9f398"/>
  </linearGradient>
  <linearGradient id="e" gradientUnits="userSpaceOnUse" x1="16.936782" x2="19.609454" xlink:href="#d" y1="14.462523" y2="11.683958"/>
  <linearGradient id="f" gradientTransform="matrix(1.4615385 0 0 1 -2.02256 12.464021)" gradientUnits="userSpaceOnUse" x1="12.962985" x2="10.722088" y1="16.161497" y2="20.562643">
    <stop offset="0" stop-color="#50b938"/>
    <stop offset="1" stop-color="#2f4b29"/>
  </linearGradient>
  <linearGradient id="g" gradientUnits="userSpaceOnUse" x1="17.5702" x2="14.578796" xlink:href="#d" y1="20.148996" y2="16.504297"/>
  <linearGradient id="h">
    <stop offset="0" stop-color="#818eaf"/>
    <stop offset="1" stop-color="#818eaf" stop-opacity="0"/>
  </linearGradient>
  <linearGradient id="i">
    <stop offset="0" stop-color="#92b1de"/>
    <stop offset="1" stop-color="#525f96"/>
  </linearGradient>
  <linearGradient id="j">
    <stop offset="0" stop-color="#fdffff"/>
    <stop offset="1" stop-color="#b2d3fa"/>
  </linearGradient>
  <linearGradient id="k" gradientUnits="userSpaceOnUse" x1="4.5" x2="9.5" xlink:href="#h" y1="12.5" y2="12.5"/>
  <linearGradient id="l" gradientUnits="userSpaceOnUse" x1="4.5" x2="11.5" xlink:href="#h" y1="10.5" y2="10.5"/>
  <linearGradient id="m" gradientUnits="userSpaceOnUse" x1="4.5" x2="11.5" xlink:href="#h" y1="8.5" y2="8.5"/>
  <linearGradient id="n" gradientUnits="userSpaceOnUse" x1="4.5" x2="9.5" xlink:href="#h" y1="6.5" y2="6.5"/>
  <linearGradient id="o" gradientUnits="userSpaceOnUse" x1="4.5" x2="13.5" xlink:href="#h" y1="4.5" y2="4.5"/>
  <linearGradient id="p" gradientTransform="matrix(.99517844 0 0 .89422268 -1.480713 -.273294)" gradientUnits="userSpaceOnUse" x1="4.593023" x2="16.453487" xlink:href="#j" y1="2.660808" y2="16.978306"/>
  <linearGradient id="q" gradientTransform="matrix(.99517844 0 0 .89422268 -1.480713 -.273294)" gradientUnits="userSpaceOnUse" x1="16.453487" x2="4.593023" xlink:href="#i" y1="2.660808" y2="16.978306"/>
  <path d="m14.5 2.5v13h-12v-13z" style="fill-rule:evenodd;stroke-linecap:round;stroke-linejoin:round;stroke-dashoffset:21.443998;fill:url(#p);stroke:url(#q)"/>
  <g fill="none" stroke-linecap="square">
    <path d="m5 4.5h8" stroke="url(#o)"/>
    <path d="m5 6.5h4" stroke="url(#n)"/>
    <path d="m5 8.5h6" stroke="url(#m)"/>
    <path d="m5 10.5h6" stroke="url(#l)"/>
    <path d="m5 12.5h4" stroke="url(#k)"/>
  </g>
  <path d="m21.5 9.5v12h-12v-12z" style="fill-rule:evenodd;stroke-linecap:round;stroke-linejoin:round;stroke-dashoffset:21.443998;fill:url(#a);stroke:url(#b)"/>
  <path d="m13.354339 15.275839 3.914061 2.565263 3.7316-.377081v3.535979h-11v-2.096701z" fill="url(#c)"/>
  <circle cx="18.009174" cy="12.996867" fill="url(#e)" r="2.407"/>
  <g fill-rule="evenodd">
    <path d="m13.282277 15.355565-.802192 5.646888-2.4821665.0015.00154-2.095059z" fill="url(#f)" opacity=".506"/>
    <path d="m13.480774 15.355565 6.214616 4.03037-2.778485 1.622661z" fill="url(#g)" opacity=".319"/>
  </g>
</svg>
