<svg height="24" width="24" xmlns="http://www.w3.org/2000/svg" xmlns:xlink="http://www.w3.org/1999/xlink">
  <linearGradient id="a" gradientUnits="userSpaceOnUse" x1="7.383387" x2="14.383387" y1="23" y2="2">
    <stop offset="0" stop-color="#0043ff"/>
    <stop offset=".45180282" stop-color="#4369d4"/>
    <stop offset=".49084893" stop-color="#7b86a1"/>
    <stop offset="1" stop-color="#dde8f6"/>
  </linearGradient>
  <linearGradient id="b" gradientUnits="userSpaceOnUse" x1="18.923323" x2="4.383387" y1="20.41214" y2="6">
    <stop offset="0" stop-color="#0043ff"/>
    <stop offset=".5" stop-color="#4369d4"/>
    <stop offset=".55000001" stop-color="#7b86a1"/>
    <stop offset="1" stop-color="#dde8f6"/>
  </linearGradient>
  <g fill-rule="evenodd" stroke="#000" stroke-linejoin="round" stroke-width=".5">
    <path d="m4.5708865 1.75c.0000001 0-1.8251471 1.7375366-1.375 4.3125.4501471 2.5749633 7.1874985 7.9375 7.1874985 7.9375l2.96875 1c-1.513808 3.21121.749386 6.858606 3.143071 7.201278 2.418728.346257 4.283513-2.242891 3.961448-4.383441-.325826-2.16554-3.139277-4.144898-6.104519-3.817837l-2.96875-1zm10.9062485 13.4375c2.044438-.0253 4.648922 3.975746 2.90625 5.25-1.991626 1.456292-5.780845-3.461531-3.75-4.96875.253855-.188402.551687-.277636.84375-.28125z" fill="url(#b)"/>
    <path d="m12.414635.40625-1.03125 12.59375-1.9999985 2c-3.5613946.501105-5.1119744 3.842496-4.15625 6.375.9557244 2.532503 3.3880718 2.8094 5.1562485 1.625 1.768178-1.1844 1.491893-5.158301 0-7l2-2s4.102312-8.4507046 3.5-10.71875-3.46875-2.87499999-3.46875-2.875zm-3.9687485 15.96875c.1427535-.02497.2811382-.02314.4375 0 2.5017875.370259 1.5942945 6.566039-.84375 6.1875-2.2856677-.354879-1.7350524-5.812921.40625-6.1875z" fill="url(#a)"/>
  </g>
</svg>
