<svg height="24" width="24" xmlns="http://www.w3.org/2000/svg" xmlns:xlink="http://www.w3.org/1999/xlink">
<linearGradient id="a" gradientUnits="userSpaceOnUse" x1="5.47" x2="23.62" y1="14.21" y2="14.21">
<stop offset="0" stop-color="#ffe168"/>
<stop offset="1" stop-color="#e4dcd4"/>
</linearGradient>
<linearGradient id="b" gradientTransform="matrix(.46 .8 -.79 .46 19.2 -4.31)" gradientUnits="userSpaceOnUse" x1="19.89" x2="19.89" y1="18.08" y2="7.28">
<stop offset="0" stop-color="#aa803b"/>
<stop offset="1" stop-color="#ccb383"/>
</linearGradient>
<path d="m12.69 9.8c-.77 2.44-1.07 5.21-2.22 7.45-.75 1.46-2.2 2.33-3.38 2.34-.46.01-.89-.09-1.12-.33-.5-.51-.43-1.05-.12-1.32.45-.38 1.04-.26 1.37.02.35.3.31.79.02 1.1.13.18.43.02.56-.06 1.2-.76 2.02-6.08 2.83-9.22h-2.19l.26-.96h2.17c.65-1.49 1.24-2.35 2.2-3.21.65-.47 1.38-.71 2.18-.71.97.01 1.47.37 1.56 1.07.08.65-.48.9-.9.9-.57 0-.75-.37-.76-.67-.01-.33.3-.62.29-.74-.01-.14-.13-.2-.22-.2-.31-.01-.64.19-.97.58-.54.63-.98 1.62-1.31 2.98h2.08l-.28.98z" fill-opacity=".82" transform="matrix(1.53 0 .02 1.54 -8.25 -7.4)"/>
<g stroke-linejoin="round" transform="matrix(.88 0 0 .88 2.86 2.91)">
<path d="m19.53 8.79c-.69-1.02-2.13-.79-2.53-.06-.36-.51-1.94-.86-2.73-.18-.78-.41-2.32-.23-2.87.14-1.52-1.53-2.38-4.05-4.1-2.62-.56.51-.4 1.53.79 2.8 1.2 1.28 5.55 8.11 5.55 8.11s-3.11-2.6-5.31-3.68c-1.57-.76-2.87.51-2.66 1.14.29.86.87 1.02 2.24 1.53 1.26.47 1.94 2.45 2.97 3.36 1.57 1.39 5.84 4.11 5.84 4.11l6.71-3.93c-.3-4.84-1.39-7.13-3.9-10.71z" fill="none" stroke="#000" stroke-opacity=".5" stroke-width="1.04"/>
<path d="m19.36 8.66c-.67-.99-2.15-.61-2.45-.05.71 1.38 1.51 2.4 2.59 4.24 0 0-2.3-3.6-3.13-4.47-.38-.45-1.56-.29-2.1.05 1.12 1.93 2.01 3.49 3.31 5.52l-3.14-5.13c-.62-1.02-2.4-.61-2.93-.26 1.59 2.27 2.86 4.26 4.32 6.44-1.65-2.39-3.87-6.07-6.09-8.55-.78-.88-1.41-1.11-2.18-.41-.54.49-.39 1.47.76 2.7 1.16 1.23 5.35 7.82 5.35 7.82s-3-2.51-5.12-3.55c-1.51-.74-2.77.49-2.56 1.1.28.83.84.98 2.16 1.48 1.21.46 1.87 2.36 2.87 3.24 1.52 1.34 5.63 3.96 5.63 3.96l6.47-3.8s-.22-4.49-1.89-7.42c-.75-1.36-1.87-2.92-1.87-2.92z" fill="url(#a)" fill-rule="evenodd" stroke="url(#b)"/>
</g>
</svg>
