<svg height="24" width="24" xmlns="http://www.w3.org/2000/svg" xmlns:xlink="http://www.w3.org/1999/xlink">
<linearGradient id="a" gradientTransform="matrix(1.29 .19 -.25 .98 -7.3 5.5)" gradientUnits="userSpaceOnUse" x1="21.25" x2="23.54" y1=".47" y2="12.27">
<stop offset="0" stop-color="#dbf6ff"/>
<stop offset="1" stop-color="#7ddcfd"/>
</linearGradient>
<linearGradient id="b">
<stop offset="0" stop-color="#00b4ff"/>
<stop offset="1" stop-color="#797ac2"/>
</linearGradient>
<linearGradient id="c" gradientUnits="userSpaceOnUse" x1="5" x2="5" xlink:href="#b" y1="23" y2="18"/>
<linearGradient id="d" gradientTransform="matrix(-1 0 0 -1 23.16 23.8)" gradientUnits="userSpaceOnUse" x1="4.96" x2="12.37" xlink:href="#b" y1="15.37" y2="22.43"/>
<filter id="e" height="1.21" width="1.27" x="-.14" y="-.1">
<feGaussianBlur stdDeviation=".33319131"/>
</filter>
<linearGradient id="f" gradientUnits="userSpaceOnUse" x1=".29" x2="12.77" y1="6.64" y2="6.64">
<stop offset="0" stop-color="#0e0f55"/>
<stop offset="1" stop-color="#a5a6f1"/>
</linearGradient>
<linearGradient id="g" gradientUnits="userSpaceOnUse" x1="1.14" x2="11.93" y1="6.66" y2="6.66">
<stop offset="0" stop-color="#0e0f55"/>
<stop offset="1" stop-color="#6a6de8"/>
</linearGradient>
<path d="m13.86 4.95 4.7 4.25 4.08-4.25h-3c-1.11-4.59-3.87-4.71-13.11-4.79l.76 2.23c7.32-.11 8.98.38 9.69 2.57z" fill="url(#d)" fill-rule="evenodd"/>
<path d="m9.31 18.85-4.57-4.52-4.21 4.52h3c.54 5.03 3.1 5.29 13.25 5.15l-.91-2.16c-6.96.02-9.36-.01-9.68-2.99z" fill="url(#c)" fill-rule="evenodd"/>
<path d="m12.32 6.66a5.78 5.78 0 1 1 -11.55 0 5.78 5.78 0 1 1 11.55 0z" fill="#7fe1ff" stroke="url(#f)" stroke-width=".95"/>
<path d="m11.3 7.05a4.26 4.37 0 1 1 -8.51 0 4.26 4.37 0 1 1 8.51 0z" fill="#42a5c9" stroke-width=".59"/>
<path d="m5.26 2.3a.8 2.28 42.79 1 1 -3.11 3.32.8 2.28 42.79 1 1 3.11-3.32z" fill="#fff" stroke-width=".45"/>
<path d="m10.79 4.47a3.64 4.48 41.79 1 1 -6.4 6.25 3.64 4.48 41.79 1 1 6.4-6.25z" fill="#7fe1ff" stroke-width=".62"/>
<path d="m11.78 6.66a5.24 5.24 0 1 1 -10.47 0 5.24 5.24 0 1 1 10.47 0z" fill="none" opacity=".66" stroke="url(#g)" stroke-width=".33"/>
<path d="m18.68 15.6a2.93 3.62 0 1 1 -5.85 0 2.93 3.62 0 1 1 5.85 0z" fill="#d2edf7" filter="url(#e)" transform="matrix(.85 .51 -.64 .84 4.57 -13.44)"/>
<path d="m10.19 7.75a.61 1.74 47.47 1 1 -2.54 2.39.61 1.74 47.47 1 1 2.54-2.39z" fill="#fff" stroke-width=".34"/>
<g stroke="#00b4ff" stroke-linecap="round">
<path d="m12.5 10.5h11v13h-11z" fill="url(#a)" fill-rule="evenodd" stroke-dashoffset="21.44"/>
<path d="m14.25 15.68 3.51-3.35m-1.51 4.35 3.51-3.35" fill="none" stroke-width=".6"/>
<path d="m16.47 21 3.51-3.35m-1.51 4.35 3.51-3.35" fill="none" stroke-width=".7"/>
</g>
</svg>
