<?xml version="1.0" encoding="UTF-8"?>
<!-- Created with Inkscape (http://www.inkscape.org/) -->
<svg width="24" height="24" version="1.0" xmlns="http://www.w3.org/2000/svg" xmlns:cc="http://creativecommons.org/ns#" xmlns:dc="http://purl.org/dc/elements/1.1/" xmlns:rdf="http://www.w3.org/1999/02/22-rdf-syntax-ns#" xmlns:xlink="http://www.w3.org/1999/xlink">
 <defs>
  <linearGradient id="linearGradient6496" x1="18.4" x2="4" y1="20.6" y2="6" gradientTransform="rotate(-15 17.4 3.1)" gradientUnits="userSpaceOnUse">
   <stop stop-color="#0043ff" offset="0"/>
   <stop stop-color="#4369d4" offset=".5"/>
   <stop stop-color="#7b86a1" offset=".547"/>
   <stop stop-color="#dde8f6" offset="1"/>
  </linearGradient>
  <linearGradient id="linearGradient7979" x1="17.3" x2="14.4" y1="10.8" y2="8.83" gradientTransform="rotate(105 13.4 15)" gradientUnits="userSpaceOnUse">
   <stop stop-color="#945021" offset="0"/>
   <stop stop-color="#e58d2b" offset="1"/>
  </linearGradient>
  <linearGradient id="linearGradient22" x1="21.2" x2="23.5" y1=".47" y2="12.3" gradientTransform="matrix(1.29 .19 -.25 .98 -7.3 5.5)" gradientUnits="userSpaceOnUse" xlink:href="#a"/>
  <linearGradient id="a" x1="21.2" x2="23.5" y1=".47" y2="12.3" gradientTransform="matrix(1.29 .19 -.25 .98 -7.3 5.5)" gradientUnits="userSpaceOnUse">
   <stop stop-color="#dbf6ff" offset="0"/>
   <stop stop-color="#7ddcfd" offset="1"/>
  </linearGradient>
 </defs>
 <metadata>
  <rdf:RDF>
   <cc:Work rdf:about="">
    <dc:format>image/svg+xml</dc:format>
    <dc:type rdf:resource="http://purl.org/dc/dcmitype/StillImage"/>
   </cc:Work>
  </rdf:RDF>
 </metadata>
 <g stroke-linecap="round">
  <g transform="translate(-13)" stroke="#00b4ff">
   <path d="m13.5 12.5h10v11h-10z" fill="url(#linearGradient22)" fill-rule="evenodd" stroke-dashoffset="21.4"/>
   <path d="m15.5 20 3.51-3.35m-1.51 4.35 3.51-3.35" fill="none" stroke-width=".7"/>
  </g>
  <g transform="translate(-3,-12)" stroke="#00b4ff">
   <path d="m13.5 12.5h10v11h-10z" fill="url(#linearGradient22)" fill-rule="evenodd" stroke-dashoffset="21.4"/>
   <path d="m16.5 19 3.51-3.35m-1.51 4.35 3.51-3.35" fill="none" stroke-width=".7"/>
  </g>
  <path d="m2 12c2.05 2.57 5.37 4.44 9 5.5v-3.5h10c-4-3.25-6.45-3.29-11-8v6z" fill="#fff" stroke-linejoin="round" stroke-width="2"/>
 </g>
 <path d="m2.6 1.13c-3.54 10.5 6.16 13.3 10.6 15.1l2.53-3.58c-7.32-4.65-12.7-11-13.1-11.5z" fill="url(#linearGradient6496)" fill-rule="evenodd" stroke="#000" stroke-width=".5"/>
 <path d="m15.8 12.6c4.05 2.4 5.43 3.96 7.7 6.39-1.94 1.5-1.42 3.78-3.44 4.24-0.683-2.69-3.98-5.68-6.23-6.08-0.501-0.089-2.29 1.83-0.965-0.381z" fill="url(#linearGradient7979)" fill-rule="evenodd" stroke="#501500" stroke-width=".6"/>
 <path d="m15.9 14.3c1.59 0.821 4.27 2.9 6 4.9" fill="none" stroke="#f4cea3" stroke-linecap="round" stroke-width="1px"/>
 <path d="m3.26 3.23c2.42 3.18 7.36 7.13 11.2 9.61" fill="none" stroke="#fff" stroke-linecap="round" stroke-width=".75"/>
</svg>
