<?xml version="1.0" encoding="UTF-8" standalone="no"?>
<!-- Created with Inkscape (http://www.inkscape.org/) -->
<svg
   xmlns:dc="http://purl.org/dc/elements/1.1/"
   xmlns:cc="http://creativecommons.org/ns#"
   xmlns:rdf="http://www.w3.org/1999/02/22-rdf-syntax-ns#"
   xmlns:svg="http://www.w3.org/2000/svg"
   xmlns="http://www.w3.org/2000/svg"
   xmlns:xlink="http://www.w3.org/1999/xlink"
   xmlns:sodipodi="http://sodipodi.sourceforge.net/DTD/sodipodi-0.dtd"
   xmlns:inkscape="http://www.inkscape.org/namespaces/inkscape"
   width="24"
   height="24"
   id="svg4986"
   sodipodi:version="0.32"
   inkscape:version="0.46"
   version="1.0"
   sodipodi:docname="lens_prop_light.svg"
   inkscape:output_extension="org.inkscape.output.svg.inkscape"
   inkscape:export-filename="D:\Projects\rezonator2\img\elem_prop_24.png"
   inkscape:export-xdpi="90"
   inkscape:export-ydpi="90">
  <defs
     id="defs4988">
    <linearGradient
       id="linearGradient4718">
      <stop
         style="stop-color:#aa803b;stop-opacity:1;"
         offset="0"
         id="stop4720" />
      <stop
         style="stop-color:#ccb383;stop-opacity:1;"
         offset="1"
         id="stop4722" />
    </linearGradient>
    <linearGradient
       id="linearGradient4672">
      <stop
         style="stop-color:#ffe168;stop-opacity:1;"
         offset="0"
         id="stop4674" />
      <stop
         style="stop-color:#e4dcd4;stop-opacity:1;"
         offset="1"
         id="stop4676" />
    </linearGradient>
    <filter
       inkscape:collect="always"
       id="filter4886"
       x="-0.11544522"
       width="1.2308904"
       y="-0.12398467"
       height="1.2479693">
      <feGaussianBlur
         inkscape:collect="always"
         stdDeviation="0.33319131"
         id="feGaussianBlur4888" />
    </filter>
    <linearGradient
       inkscape:collect="always"
       xlink:href="#linearGradient3167"
       id="linearGradient4895"
       gradientUnits="userSpaceOnUse"
       x1="2.2127304"
       y1="9.8866615"
       x2="18.562609"
       y2="9.8866615" />
    <linearGradient
       id="linearGradient4613">
      <stop
         style="stop-color:#0e0f55;stop-opacity:1;"
         offset="0"
         id="stop4615" />
      <stop
         style="stop-color:#a5a6f1;stop-opacity:1;"
         offset="1"
         id="stop4617" />
    </linearGradient>
    <linearGradient
       inkscape:collect="always"
       xlink:href="#linearGradient4613"
       id="linearGradient4893"
       gradientUnits="userSpaceOnUse"
       x1="3.417697"
       y1="12.191525"
       x2="23.230306"
       y2="12.191525" />
    <linearGradient
       id="linearGradient3167">
      <stop
         style="stop-color:#0e0f55;stop-opacity:1;"
         offset="0"
         id="stop3169" />
      <stop
         style="stop-color:#6a6de8;stop-opacity:1;"
         offset="1"
         id="stop3171" />
    </linearGradient>
    <linearGradient
       inkscape:collect="always"
       xlink:href="#linearGradient3167"
       id="linearGradient4891"
       gradientUnits="userSpaceOnUse"
       gradientTransform="translate(2.8039461,6.7588051)"
       x1="0.74631572"
       y1="12"
       x2="8.3092041"
       y2="12" />
    <inkscape:perspective
       sodipodi:type="inkscape:persp3d"
       inkscape:vp_x="0 : 526.18109 : 1"
       inkscape:vp_y="0 : 1000 : 0"
       inkscape:vp_z="744.09448 : 526.18109 : 1"
       inkscape:persp3d-origin="372.04724 : 350.78739 : 1"
       id="perspective4994" />
    <linearGradient
       inkscape:collect="always"
       xlink:href="#linearGradient4718"
       id="linearGradient5044"
       gradientUnits="userSpaceOnUse"
       gradientTransform="matrix(0.5,0.8660253,-0.8660253,0.5,19.191227,-5.8049831)"
       x1="19.892296"
       y1="18.08366"
       x2="19.892296"
       y2="7.2779684" />
    <linearGradient
       inkscape:collect="always"
       xlink:href="#linearGradient4672"
       id="linearGradient5047"
       gradientUnits="userSpaceOnUse"
       gradientTransform="matrix(0.5,0.8660253,-0.8660253,0.5,19.350217,-5.5296057)"
       x1="18.821608"
       y1="18.383104"
       x2="18.666157"
       y2="7.0166574" />
    <linearGradient
       inkscape:collect="always"
       xlink:href="#linearGradient4672"
       id="linearGradient5050"
       gradientUnits="userSpaceOnUse"
       gradientTransform="matrix(0.5460156,0.8343151,-0.8025921,0.5252545,17.696271,-5.4955641)"
       x1="15.199285"
       y1="14.877687"
       x2="4.6415753"
       y2="16.416857" />
    <linearGradient
       inkscape:collect="always"
       xlink:href="#linearGradient4718"
       id="linearGradient5052"
       gradientUnits="userSpaceOnUse"
       gradientTransform="matrix(0.5460156,0.8343151,-0.9631103,0.6303054,20.34414,-7.2284566)"
       x1="3.5124271"
       y1="14.751556"
       x2="15.489261"
       y2="16.350063" />
    <linearGradient
       inkscape:collect="always"
       xlink:href="#linearGradient4672"
       id="linearGradient5055"
       gradientUnits="userSpaceOnUse"
       gradientTransform="matrix(0.9265324,0.3762147,-0.3135123,0.7721104,5.1630162,1.477887)"
       x1="10.253586"
       y1="14.427205"
       x2="5.1425667"
       y2="13.96378" />
    <linearGradient
       inkscape:collect="always"
       xlink:href="#linearGradient4718"
       id="linearGradient5057"
       gradientUnits="userSpaceOnUse"
       gradientTransform="matrix(0.7071068,0.7071067,-0.7071067,0.7071068,11.980537,-7.1781527)"
       x1="15.031294"
       y1="19.683817"
       x2="11.101351"
       y2="17.709242" />
    <linearGradient
       inkscape:collect="always"
       xlink:href="#linearGradient4672"
       id="linearGradient5060"
       gradientUnits="userSpaceOnUse"
       gradientTransform="matrix(0.5439283,0.8391315,-0.6992761,0.4532735,20.521354,-2.1534895)"
       x1="5.8189707"
       y1="14.995732"
       x2="16.981876"
       y2="14.995732" />
    <linearGradient
       inkscape:collect="always"
       xlink:href="#linearGradient4718"
       id="linearGradient5062"
       gradientUnits="userSpaceOnUse"
       gradientTransform="matrix(0.5439283,0.8391315,-0.8391315,0.5439283,18.440802,-5.8377586)"
       x1="10.042229"
       y1="12.754565"
       x2="21.205133"
       y2="12.754565" />
    <linearGradient
       inkscape:collect="always"
       xlink:href="#linearGradient4672"
       id="linearGradient5065"
       gradientUnits="userSpaceOnUse"
       gradientTransform="matrix(0.5239466,0.851751,-0.7097925,0.4366222,23.297789,-2.5485616)"
       x1="5.4617586"
       y1="14.995729"
       x2="12.248805"
       y2="14.995729" />
    <linearGradient
       inkscape:collect="always"
       xlink:href="#linearGradient4718"
       id="linearGradient5067"
       gradientUnits="userSpaceOnUse"
       gradientTransform="matrix(0.5239466,0.851751,-0.851751,0.5239466,18.785313,-5.6222736)"
       x1="10.444094"
       y1="10.263395"
       x2="17.23114"
       y2="10.263395" />
    <linearGradient
       inkscape:collect="always"
       xlink:href="#linearGradient4672"
       id="linearGradient5071"
       gradientUnits="userSpaceOnUse"
       gradientTransform="matrix(0.5669675,0.82374,-0.6315384,0.4346781,24.425713,-2.482866)"
       x1="5.3724556"
       y1="14.995723"
       x2="8.8999338"
       y2="14.995723" />
    <linearGradient
       inkscape:collect="always"
       xlink:href="#linearGradient4718"
       id="linearGradient5073"
       gradientUnits="userSpaceOnUse"
       gradientTransform="matrix(0.5669675,0.82374,-0.82374,0.5669675,17.923961,-5.5198006)"
       x1="11.560384"
       y1="7.8628902"
       x2="15.087862"
       y2="7.8628902" />
  </defs>
  <sodipodi:namedview
     id="base"
     pagecolor="#ffffff"
     bordercolor="#666666"
     borderopacity="1.0"
     gridtolerance="10000"
     guidetolerance="10"
     objecttolerance="10"
     inkscape:pageopacity="0.0"
     inkscape:pageshadow="2"
     inkscape:zoom="38.5"
     inkscape:cx="11.457002"
     inkscape:cy="11.758511"
     inkscape:document-units="px"
     inkscape:current-layer="layer1"
     showgrid="false"
     inkscape:window-width="1920"
     inkscape:window-height="1144"
     inkscape:window-x="-4"
     inkscape:window-y="-4" />
  <metadata
     id="metadata4991">
    <rdf:RDF>
      <cc:Work
         rdf:about="">
        <dc:format>image/svg+xml</dc:format>
        <dc:type
           rdf:resource="http://purl.org/dc/dcmitype/StillImage" />
      </cc:Work>
    </rdf:RDF>
  </metadata>
  <g
     inkscape:label="Layer 1"
     inkscape:groupmode="layer"
     id="layer1">
    <g
       id="g4881"
       transform="translate(-3.5502618,-6.758805)">
      <path
         sodipodi:nodetypes="cssscc"
         id="path3559"
         d="M 11.113151,29.758805 C 10.112257,29.758805 9.9907311,29.758805 9.3053975,29.758805 C 6.5429324,29.758805 3.5502618,24.830806 3.5502618,18.758805 C 3.5502618,12.686805 6.5429324,7.7588051 9.3053975,7.7588051 C 10.128738,7.7588051 10.112257,7.7588051 11.113151,7.7588051 C 11.113151,17.758805 11.113151,20.758805 11.113151,29.758805 z"
         style="fill:url(#linearGradient4891);fill-opacity:1;fill-rule:nonzero;stroke:none;stroke-width:0.57363141;stroke-miterlimit:4;stroke-opacity:1" />
      <path
         transform="matrix(0.6399498,0,0,1.1310271,2.7690587,4.9698593)"
         d="M 22.480306,12.191525 A 9.1563044,9.1563044 0 1 1 4.167697,12.191525 A 9.1563044,9.1563044 0 1 1 22.480306,12.191525 z"
         sodipodi:ry="9.1563044"
         sodipodi:rx="9.1563044"
         sodipodi:cy="12.191525"
         sodipodi:cx="13.324001"
         id="path2395"
         style="fill:#7fe1ff;fill-opacity:1;fill-rule:nonzero;stroke:url(#linearGradient4893);stroke-width:1.5;stroke-miterlimit:4;stroke-dasharray:none;stroke-opacity:1"
         sodipodi:type="arc" />
      <path
         transform="matrix(0.5868157,0,0,1.06384,4.261406,4.7050052)"
         d="M 20.207017,13.864919 A 7.356617,7.356617 0 1 1 5.493783,13.864919 A 7.356617,7.356617 0 1 1 20.207017,13.864919 z"
         sodipodi:ry="7.356617"
         sodipodi:rx="7.356617"
         sodipodi:cy="13.864919"
         sodipodi:cx="12.8504"
         id="path4641"
         style="fill:#42a5c9;fill-opacity:1;fill-rule:nonzero;stroke:none;stroke-width:0.5;stroke-miterlimit:4;stroke-dasharray:none;stroke-opacity:1"
         sodipodi:type="arc" />
      <path
         transform="matrix(0.3119749,-0.5892705,0.3211621,0.5724138,4.6778946,13.766472)"
         d="M 10.725712,6.1170263 A 5.0549564,1.7865229 0 1 1 0.61579943,6.1170263 A 5.0549564,1.7865229 0 1 1 10.725712,6.1170263 z"
         sodipodi:ry="1.7865229"
         sodipodi:rx="5.0549564"
         sodipodi:cy="6.1170263"
         sodipodi:cx="5.6707559"
         id="path4878"
         style="fill:#ffffff;fill-opacity:1;fill-rule:nonzero;stroke:none;stroke-width:0.58099997;stroke-miterlimit:4;stroke-dasharray:none;stroke-opacity:1"
         sodipodi:type="arc" />
      <path
         transform="matrix(0.454709,-0.7845447,0.417777,0.8110211,-5.2940189e-2,20.007428)"
         d="M 21.331295,14.259586 A 7.1390228,5.9515977 0 1 1 7.0532494,14.259586 A 7.1390228,5.9515977 0 1 1 21.331295,14.259586 z"
         sodipodi:ry="5.9515977"
         sodipodi:rx="7.1390228"
         sodipodi:cy="14.259586"
         sodipodi:cx="14.192272"
         id="path4645"
         style="fill:#7fe1ff;fill-opacity:1;fill-rule:nonzero;stroke:none;stroke-width:0.5;stroke-miterlimit:4;stroke-dasharray:none;stroke-opacity:1"
         sodipodi:type="arc" />
      <path
         sodipodi:type="arc"
         style="opacity:0.65740739;fill:none;fill-opacity:1;fill-rule:nonzero;stroke:url(#linearGradient4895);stroke-width:0.49996206;stroke-miterlimit:4;stroke-dasharray:none;stroke-opacity:1"
         id="path4625"
         sodipodi:cx="10.38767"
         sodipodi:cy="9.8866615"
         sodipodi:rx="7.9249392"
         sodipodi:ry="7.9249392"
         d="M 18.312609,9.8866615 A 7.9249392,7.9249392 0 1 1 2.4627304,9.8866615 A 7.9249392,7.9249392 0 1 1 18.312609,9.8866615 z"
         transform="matrix(0.6654362,0,0,1.2332639,4.3532235,6.5659427)" />
      <path
         transform="matrix(0.8596781,0.9159958,-0.6540163,1.5134581,9.2980113,-17.266782)"
         d="M 18.681998,15.595762 A 2.9268398,3.6230018 0 1 1 12.828319,15.595762 A 2.9268398,3.6230018 0 1 1 18.681998,15.595762 z"
         sodipodi:ry="3.6230018"
         sodipodi:rx="2.9268398"
         sodipodi:cy="15.595762"
         sodipodi:cx="15.755158"
         id="path4623"
         style="fill:#d2edf7;fill-opacity:1;fill-rule:nonzero;stroke:none;stroke-width:0.5;stroke-miterlimit:4;stroke-dasharray:none;stroke-opacity:1;filter:url(#filter4886)"
         sodipodi:type="arc" />
      <path
         sodipodi:type="arc"
         style="fill:#ffffff;fill-opacity:1;fill-rule:nonzero;stroke:none;stroke-width:0.58099997;stroke-miterlimit:4;stroke-dasharray:none;stroke-opacity:1"
         id="path4884"
         sodipodi:cx="5.6707559"
         sodipodi:cy="6.1170263"
         sodipodi:rx="5.0549564"
         sodipodi:ry="1.7865229"
         d="M 10.725712,6.1170263 A 5.0549564,1.7865229 0 1 1 0.61579943,6.1170263 A 5.0549564,1.7865229 0 1 1 10.725712,6.1170263 z"
         transform="matrix(0.2545787,-0.4233647,0.2620756,0.4112539,10.662378,22.748479)" />
    </g>
    <g
       id="g5075"
       transform="matrix(0.8998949,0,0,0.8900926,2.3243419,2.4819336)">
      <path
         style="fill:url(#linearGradient5071);fill-opacity:1;fill-rule:nonzero;stroke:url(#linearGradient5073);stroke-width:1.11734283;stroke-miterlimit:4;stroke-dasharray:none;stroke-opacity:1"
         d="M 19.367705,8.219398 C 18.633832,7.1531623 17.569746,6.7260756 17.044122,7.0878551 C 16.518496,7.4496343 16.320275,8.0468808 17.054149,9.113116 L 19.571164,12.770056 C 20.159332,12.336419 20.911694,12.101663 21.542776,11.599807 C 20.638702,9.9707592 19.367705,8.219398 19.367705,8.219398 z"
         id="path4700"
         sodipodi:nodetypes="cscccc" />
      <path
         sodipodi:nodetypes="ccscsssccszsccc"
         id="path5089"
         d="M 12.714462,7.2578526 C 12.27921,7.5255933 12.198453,7.8851991 12.452504,8.4916263 C 11.74845,7.4054663 11.05829,7.3789498 10.476282,7.7562102 C 10.068474,8.0205513 9.8297106,8.4085394 9.9623779,8.9911058 C 9.040476,7.778929 8.7519303,5.9758804 7.8882713,5.1870891 C 6.936293,4.3176345 5.7868502,4.0803515 4.9481183,4.8482574 C 3.9121367,5.7967564 4.4161982,6.9986105 5.6801675,8.3240995 C 6.8811823,9.58357 10.318666,13.952823 10.77097,14.616813 C 9.9180787,13.8699 7.8450314,12.54496 6.7020133,12.180644 C 5.2215549,11.836643 4.0994127,11.831737 3.554352,12.916333 C 2.6933932,14.629523 3.7250717,15.56424 5.1483329,16.255777 C 6.5567172,16.940086 7.6020883,17.891515 8.4045276,18.828001 C 10.209802,20.934846 12.44193,22.325068 14.608147,23.714764 L 21.927823,19.403358 C 18.054604,13 18.439236,7.7732586 12.714462,7.2578526 z"
         style="opacity:0.5;fill:#000000;fill-opacity:1;fill-rule:nonzero;stroke:none;stroke-width:1;stroke-miterlimit:4;stroke-dasharray:none;stroke-opacity:1" />
      <path
         sodipodi:nodetypes="cscccc"
         id="path4696"
         d="M 16.094968,7.9181621 C 15.672266,7.4319606 14.868328,6.8947221 14.277573,7.2581199 C 13.686812,7.6215211 13.726034,8.1274944 14.404223,9.2299879 L 17.361915,14.038144 C 18.025659,13.601987 18.490122,13.312622 19.491287,12.728282 C 19.491287,12.728282 16.999871,8.8540314 16.094968,7.9181621 z"
         style="fill:url(#linearGradient5065);fill-opacity:1;fill-rule:nonzero;stroke:url(#linearGradient5067);stroke-width:1.11734283;stroke-miterlimit:4;stroke-dasharray:none;stroke-opacity:1" />
      <path
         style="fill:url(#linearGradient5060);fill-opacity:1;fill-rule:nonzero;stroke:url(#linearGradient5062);stroke-width:1.11734283;stroke-miterlimit:4;stroke-dasharray:none;stroke-opacity:1"
         d="M 14.006439,8.4721213 C 13.302385,7.3859612 12.619889,7.3759974 12.037881,7.7532569 C 11.455873,8.1305173 11.204558,8.7457814 11.90861,9.831941 L 15.391983,15.205826 C 16.045235,14.754105 16.50273,14.453844 17.489813,13.846004 L 14.006439,8.4721213 z"
         id="path4692"
         sodipodi:nodetypes="cscccc" />
      <path
         style="fill:url(#linearGradient5055);fill-opacity:1;fill-rule:nonzero;stroke:url(#linearGradient5057);stroke-width:1.11734283;stroke-miterlimit:4;stroke-dasharray:none;stroke-opacity:1"
         d="M 7.4985916,12.923486 C 5.8398791,12.125965 4.45891,13.456297 4.6841542,14.112287 C 4.9915396,15.007502 5.6091035,15.171839 7.0554564,15.708601 C 8.3865488,16.202588 8.8898971,18.633245 11.162057,19.294462 C 11.308447,18.206486 12.877891,18.221537 13.054604,17 C 13.054604,17 9.8240823,14.041601 7.4985916,12.923486 z"
         id="path4704"
         sodipodi:nodetypes="cssccs" />
      <path
         sodipodi:nodetypes="cszccs"
         id="rect4159"
         d="M 8.8050778,5.8277578 C 7.8530996,4.9583033 7.2499816,4.6246383 6.4032695,5.3837356 C 5.8088462,5.9166501 5.9793201,6.9750014 7.2432899,8.3004913 C 8.5122202,9.6311828 13.19317,16.517942 13.19317,16.517942 C 13.944793,15.99776 14.470127,15.650249 15.600947,14.942177 C 15.600947,14.942177 11.664948,8.4397164 8.8050778,5.8277578 z"
         style="fill:url(#linearGradient5050);fill-opacity:1;fill-rule:nonzero;stroke:url(#linearGradient5052);stroke-width:1.11734283;stroke-miterlimit:4;stroke-dasharray:none;stroke-opacity:1" />
      <path
         sodipodi:nodetypes="cccc"
         id="path4760"
         d="M 10.073714,17.871281 C 11.368902,20.682165 16.436701,23.58203 16.436701,23.58203 L 23.544771,19.478184 C 23.544771,19.478184 23.341744,14.697272 21.421725,11.371702"
         style="fill:url(#linearGradient5047);fill-opacity:1;fill-rule:evenodd;stroke:none;stroke-width:1;stroke-linecap:butt;stroke-linejoin:miter;stroke-miterlimit:4;stroke-dasharray:none;stroke-opacity:1" />
      <path
         style="fill:none;fill-opacity:1;fill-rule:evenodd;stroke:url(#linearGradient5044);stroke-width:1.11734283;stroke-linecap:butt;stroke-linejoin:miter;stroke-miterlimit:4;stroke-dasharray:none;stroke-opacity:1"
         d="M 9.9729244,18.661191 C 12.091337,21.036733 16.389341,23.5 16.389341,23.5 L 23.497411,19.396154 C 23.497411,19.396154 23.294384,14.615243 21.374365,11.289672"
         id="path4838"
         sodipodi:nodetypes="cccc" />
    </g>
  </g>
</svg>
