<svg height="24" width="24" xmlns="http://www.w3.org/2000/svg" xmlns:xlink="http://www.w3.org/1999/xlink">
  <linearGradient id="a" gradientUnits="userSpaceOnUse" x1="5.466338" x2="23.618344" y1="14.211954" y2="14.211954">
    <stop offset="0" stop-color="#ffe168"/>
    <stop offset="1" stop-color="#e4dcd4"/>
  </linearGradient>
  <linearGradient id="b" gradientTransform="matrix(.45519824 .80090079 -.78842639 .46240034 19.198012 -4.307613)" gradientUnits="userSpaceOnUse" x1="19.892296" x2="19.892296" y1="18.08366" y2="7.277968">
    <stop offset="0" stop-color="#aa803b"/>
    <stop offset="1" stop-color="#ccb383"/>
  </linearGradient>
  <linearGradient id="c" gradientTransform="matrix(.6654362 0 0 1.2332639 .802962 -.192862)" gradientUnits="userSpaceOnUse" x1="2.21273" x2="18.562609" xlink:href="#e" y1="9.886662" y2="9.886662"/>
  <linearGradient id="d" gradientTransform="matrix(.6399498 0 0 1.1310271 -.781203 -1.788946)" gradientUnits="userSpaceOnUse" x1="3.417697" x2="23.230306" y1="12.191525" y2="12.191525">
    <stop offset="0" stop-color="#0e0f55"/>
    <stop offset="1" stop-color="#a5a6f1"/>
  </linearGradient>
  <linearGradient id="e">
    <stop offset="0" stop-color="#0e0f55"/>
    <stop offset="1" stop-color="#6a6de8"/>
  </linearGradient>
  <linearGradient id="f" gradientUnits="userSpaceOnUse" x1="0" x2="7.562888" xlink:href="#e" y1="12" y2="12"/>
  <path d="m7.562889 23c-1.000894 0-1.1224199 0-1.8077535 0-2.7624651 0-5.7551357-4.927999-5.7551357-11 0-6.072 2.9926706-10.9999999 5.7551357-10.9999999h1.8077535z" fill="url(#f)"/>
  <path d="m13.605064 11.999999a5.8595752 10.356029 0 1 1 -11.7191501 0 5.8595752 10.356029 0 1 1 11.7191501 0z" fill="#7fe1ff" stroke="url(#d)" stroke-width="1.276147"/>
  <path d="m12.568939 12.696255a4.3169785 7.8262635 0 1 1 -8.6339569 0 4.3169784 7.8262635 0 1 1 8.6339569 0z" fill="#42a5c9" stroke-width=".790113"/>
  <path d="m6.4383429 4.1887916a.96702504 3.4350695 24.588436 1 1 -3.1540389 5.9574734.96702504 3.4350695 24.588436 1 1 3.1540389-5.9574734z" fill="#fff" stroke-width=".60649"/>
  <path d="m12.053657 8.0780937a3.9672507 7.459863 9.0199646 1 1 -6.492356 11.2017653 3.9672507 7.459863 9.0199646 1 1 6.492356-11.2017653z" fill="#7fe1ff" stroke-width=".834592"/>
  <path d="m12.988835 12.000001a5.2735415 9.7735415 0 1 1 -10.547083 0 5.2735415 9.7735415 0 1 1 10.547083 0z" fill="none" opacity=".657407" stroke="url(#c)" stroke-width=".452917"/>
  <g stroke-linejoin="round">
    <path d="m19.533998 8.7907238h.000033c-.692436-1.0219501-2.134787-.7946762-2.535048-.0566601-.362191-.5182931-1.937846-.8659582-2.724549-.1794405-.786701-.4175094-2.32545-.22965-2.874596.1319391-1.5242881-1.5296846-2.3770868-4.0473268-4.0982228-2.6137255-.5608602.51078-.4000117 1.5251731.7925903 2.7956089 1.1972813 1.2754223 5.5485575 8.1071573 5.5485575 8.1071573s-3.113487-2.604504-5.3076719-3.676178c-1.5650547-.764396-2.86805.510679-2.6555234 1.139424.2900288.858032.8727228 1.015542 2.23741 1.530011 1.2559333.473469 1.9387396 2.449588 2.9711033 3.361858 1.570198 1.38754 5.835755 4.105924 5.835755 4.105924l6.706722-3.933393c-.304231-4.841555-1.389967-7.12976-3.89656-10.7125283z" fill="none" stroke="#000" stroke-opacity=".504808" stroke-width="1.036402"/>
    <path d="m19.358644 8.6621447h.000032c-.668115-.986056-2.151114-.609637-2.445977-.05467.707188 1.3800976 1.511376 2.4036463 2.594831 4.2438003 0 0-2.304522-3.6022253-3.128342-4.4677183-.384826-.449639-1.557522-.285287-2.095343.05078 1.116587 1.9320493 2.012303 3.4906583 3.306986 5.5201343l-3.149764-5.1320803c-.623283-1.01555-2.401027-.609635-2.930885-.260746 1.594561 2.2673313 2.85503 4.2592303 4.324131 6.4396333-1.650311-2.394192-3.878005-6.0704153-6.0918143-8.5509241-.787197-.8820322-1.415753-1.1126456-2.186597-.410632-.541161.4928398-.385962 1.4716038.764752 2.6974178 1.155229 1.2306236 5.3536743 7.8224063 5.3536743 7.8224063s-3.004131-2.513025-5.1212493-3.547059c-1.510085-.737548-2.767315.492744-2.562253 1.099404.279842.827895.84207.979874 2.158825 1.476272 1.211821.45684 1.8706443 2.363551 2.8667483 3.243779 1.515048 1.338805 5.630785 3.961712 5.630785 3.961712l6.471161-3.79524s-.218365-4.488934-1.889697-7.421018c-.746423-1.363139-1.870004-2.9152513-1.870004-2.9152513z" fill="url(#a)" fill-rule="evenodd" stroke="url(#b)"/>
  </g>
</svg>
