<svg height="256" width="256" xmlns="http://www.w3.org/2000/svg" xmlns:xlink="http://www.w3.org/1999/xlink">
  <linearGradient id="a" gradientUnits="userSpaceOnUse" x1="3.417697" x2="23.230307" y1="12.191525" y2="12.191525">
    <stop offset="0" stop-color="#0e0f55"/>
    <stop offset="1" stop-color="#a5a6f1"/>
  </linearGradient>
  <linearGradient id="b" gradientUnits="userSpaceOnUse" x1="2.21273" x2="18.562609" y1="9.886662" y2="9.886662">
    <stop offset="0" stop-color="#0e0f55"/>
    <stop offset="1" stop-color="#6a6de8"/>
  </linearGradient>
  <g transform="translate(0 232)">
    <path d="m22.480306 12.191525a9.1563044 9.1563044 0 1 1 -18.312609 0 9.1563044 9.1563044 0 1 1 18.312609 0z" fill="#7fe1ff" stroke="url(#a)" stroke-width="1.5" transform="matrix(12.61822020652 0 0 12.61837344227 -40.12519219662 -257.8386134024)"/>
    <path d="m20.207017 13.864919a7.356617 7.356617 0 1 1 -14.713234 0 7.356617 7.356617 0 1 1 14.713234 0z" fill="#42a5c9" transform="matrix(11.57054806594 0 0 11.86879657746 -10.69981094757 -260.7934771766)"/>
    <path d="m10.725712 6.1170263a5.0549564 1.7865229 0 1 1 -10.10991257 0 5.0549564 1.7865229 0 1 1 10.10991257 0z" fill="#fff" transform="matrix(6.1513692825 -6.57423297321 6.3325180447 6.38616943108 -2.48769054636 -159.69866974428)"/>
    <path d="m21.331295 14.259586a7.1390228 5.9515977 0 1 1 -14.2780456 0 7.1390228 5.9515977 0 1 1 14.2780456 0z" fill="#7fe1ff" transform="matrix(8.96573247919 -8.75282184606 8.23752493244 9.04820708594 -95.76800194572 -90.0710450054)"/>
    <path d="m18.312609 9.8866615a7.9249392 7.9249392 0 1 1 -15.8498786 0 7.9249392 7.9249392 0 1 1 15.8498786 0z" fill="none" opacity=".657407" stroke="url(#b)" stroke-width=".499962" transform="matrix(13.20554033217 0 0 13.20570070034 -9.17478907431 -234.56168467467)"/>
    <path d="m10.725712 6.1170263a5.0549564 1.7865229 0 1 1 -10.10991257 0 5.0549564 1.7865229 0 1 1 10.10991257 0z" fill="#fff" transform="matrix(5.01965855263 -4.72329448674 5.16748006076 4.58817928522 115.51145928317 -59.49033848987)"/>
    <path d="m106 52.75-34 85.03895c-1.448916 20.21459 8.235225 26.24587 21.175965 27.78465-25.346231 18.09959-22.339606 58.40627-4.833437 81.01722 12.460532 4.16149 25.794622 6.40918 39.657472 6.40918 69.03559 0 125-55.96441 125-125 0-28.253829-9.38006-54.315322-25.1875-75.25z" fill="#fff" fill-opacity=".427861" transform="translate(0 -232)"/>
    <g fill="#800080">
      <path d="m166.08039-88.244532h-17.46192l-6.94138-18.058438h-31.77851l-6.56178 18.058438h-17.028077l30.965067-79.500518h16.97385zm-29.55511-31.453138-10.95437-29.50087-10.73745 29.50087z"/>
      <path d="m174.70288-167.74505h31.77852c6.29058.00008 10.97239.27123 14.04545.81345 3.1091.50622 5.87481 1.59081 8.29712 3.25377 2.45834 1.66311 4.50099 3.88652 6.12794 6.67023 1.62682 2.7477 2.44026 5.83878 2.44033 9.27326-.00007 3.72381-1.01236 7.14027-3.03686 10.24938-1.98848 3.10921-4.69995 5.44108-8.13443 6.99561 4.84444 1.41001 8.5682 3.81418 11.17129 7.21253 2.60294 3.39842 3.90445 7.39332 3.90453 11.98473-.00008 3.61532-.84967 7.14024-2.54879 10.57476-1.66311 3.398397-3.95883 6.127948-6.88716 8.188664-2.8923 2.024572-6.47145 3.271851-10.73745 3.741839-2.67537.289224-9.12868.469989-19.35994.542295h-27.06055zm16.05195 13.23201v18.38382h10.52053c6.25443.00005 10.14088-.0903 11.65935-.27115 2.74758-.32533 4.89869-1.26531 6.45332-2.81994 1.59068-1.59068 2.38604-3.66947 2.3861-6.23639-.00006-2.45835-.68696-4.44676-2.06072-5.96525-1.33772-1.55452-3.34421-2.4945-6.01948-2.81994-1.59078-.1807-6.16414-.27108-13.72008-.27115zm0 31.61583v21.25798h14.85889c5.78444.00001 9.45397-.16267 11.0086-.48807 2.38605-.43382 4.32024-1.48225 5.80256-3.14531 1.51837-1.69917 2.27759-3.95874 2.27764-6.77869-.00005-2.38608-.5785-4.41064-1.73534-6.07371-1.15695-1.66301-2.83807-2.87413-5.04335-3.63338-2.16923-.75918-6.90527-1.13879-14.20814-1.13882z"/>
      <path d="m145.25624-18.334637 15.56388 4.934888c-2.38617 8.6767435-6.363 15.130053-11.9305 19.3599485-5.53147 4.1937525-12.56323 6.2906255-21.09529 6.2906275-10.55672-.000002-19.23344-3.5972245-26.03019-10.7916799-6.796774-7.2305895-10.195156-17.1003571-10.195151-29.6093321-.000005-13.231957 3.416453-23.499408 10.249381-30.802382 6.8329-7.338989 15.81692-11.008518 26.95209-11.008598 9.72511.00008 17.62454 2.874244 23.69831 8.622497 3.61523 3.398454 6.32671 8.279109 8.13443 14.641978l-15.88926 3.796068c-.94003-4.121387-2.91037-7.375157-5.91102-9.761318-2.96459-2.386034-6.57989-3.579083-10.8459-3.57915-5.89298.000067-10.68326 2.115017-14.37083 6.344857-3.65148 4.229961-5.47721 11.080953-5.47719 20.552998-.00002 10.050573 1.80763 17.208866 5.42296 21.4749002 3.61527 4.2660721 8.31516 6.3990988 14.09968 6.3990864 4.26601.0000124 7.93554-1.3557249 11.0086-4.0672159 3.07295-2.7114582 5.27828-6.9775117 6.616-12.7981727"/>
      <path d="m174.59442-68.605427h29.33819c6.61596.00008 11.6593.506222 15.13004 1.518428 4.66369 1.373891 8.65859 3.814218 11.98473 7.320988 3.32601 3.506911 5.85672 7.809118 7.59214 12.906632 1.73527 5.061477 2.60294 11.315945 2.60302 18.763423-.00008 6.543731-.81352 12.183599-2.44033 16.919619-1.98849 5.7845011-4.8265 10.46631388-8.51404 14.0454523-2.78385 2.7114827-6.54376 4.8264329-11.27975 6.344857-3.54304 1.1207447-8.27909 1.6811157-14.20814 1.6811157h-30.20586zm16.05195 13.448928v52.6568893h11.98473c4.48293.0000133 7.71863-.2530576 9.70709-.7592137 2.60297-.6507397 4.75407-1.7534061 6.45331-3.3080023 1.7353-1.5545613 3.14526-4.1033473 4.22991-7.6463663 1.08453-3.579121 1.62683-8.441699 1.62689-14.587748-.00006-6.145969-.54236-10.863935-1.62689-14.153911-1.08465-3.289869-2.60307-5.856732-4.55528-7.700596-1.95232-1.843741-4.4288-3.091019-7.42945-3.741839-2.24153-.506076-6.63412-.759147-13.17778-.759213z"/>
    </g>
  </g>
</svg>
