<?xml version="1.0" encoding="UTF-8" standalone="no"?>
<!-- Created with Inkscape (http://www.inkscape.org/) -->

<svg
   xmlns:dc="http://purl.org/dc/elements/1.1/"
   xmlns:cc="http://creativecommons.org/ns#"
   xmlns:rdf="http://www.w3.org/1999/02/22-rdf-syntax-ns#"
   xmlns:svg="http://www.w3.org/2000/svg"
   xmlns="http://www.w3.org/2000/svg"
   xmlns:xlink="http://www.w3.org/1999/xlink"
   version="1.0"
   width="256"
   height="256"
   id="svg5701">
  <defs
     id="defs5703">
    <linearGradient
       id="linearGradient3167">
      <stop
         id="stop3169"
         style="stop-color:#0e0f55;stop-opacity:1"
         offset="0" />
      <stop
         id="stop3171"
         style="stop-color:#6a6de8;stop-opacity:1"
         offset="1" />
    </linearGradient>
    <linearGradient
       id="linearGradient4613">
      <stop
         id="stop4615"
         style="stop-color:#0e0f55;stop-opacity:1"
         offset="0" />
      <stop
         id="stop4617"
         style="stop-color:#a5a6f1;stop-opacity:1"
         offset="1" />
    </linearGradient>
    <linearGradient
       x1="3.417697"
       y1="12.191525"
       x2="23.230307"
       y2="12.191525"
       id="linearGradient3926"
       xlink:href="#linearGradient4613"
       gradientUnits="userSpaceOnUse" />
    <linearGradient
       x1="2.2127304"
       y1="9.8866615"
       x2="18.562609"
       y2="9.8866615"
       id="linearGradient3928"
       xlink:href="#linearGradient3167"
       gradientUnits="userSpaceOnUse" />
  </defs>
  <metadata
     id="metadata5706">
    <rdf:RDF>
      <cc:Work
         rdf:about="">
        <dc:format>image/svg+xml</dc:format>
        <dc:type
           rdf:resource="http://purl.org/dc/dcmitype/StillImage" />
        <dc:title></dc:title>
      </cc:Work>
    </rdf:RDF>
  </metadata>
  <g
     transform="translate(0,232)"
     id="layer1">
    <g
       transform="matrix(11.36363,0,0,11.363768,-28.787994,-335.63156)"
       id="g2518">
      <path
         d="m 22.480306,12.191525 a 9.1563044,9.1563044 0 1 1 -18.312609,0 9.1563044,9.1563044 0 1 1 18.312609,0 z"
         transform="matrix(1.110404,0,0,1.110404,-0.9976738,6.8457001)"
         id="path2395"
         style="fill:#7fe1ff;fill-opacity:1;fill-rule:nonzero;stroke:url(#linearGradient3926);stroke-width:1.5;stroke-miterlimit:4;stroke-opacity:1;stroke-dasharray:none" />
      <path
         d="m 20.207017,13.864919 a 7.356617,7.356617 0 1 1 -14.713234,0 7.356617,7.356617 0 1 1 14.713234,0 z"
         transform="matrix(1.0182088,0,0,1.044442,1.5917609,6.5856753)"
         id="path4641"
         style="fill:#42a5c9;fill-opacity:1;fill-rule:nonzero;stroke:none" />
      <path
         d="m 10.725712,6.1170263 a 5.0549564,1.7865229 0 1 1 -10.10991257,0 5.0549564,1.7865229 0 1 1 10.10991257,0 z"
         transform="matrix(0.5413208,-0.5785258,0.5572619,0.5619764,2.3144279,15.481915)"
         id="path4878"
         style="fill:#ffffff;fill-opacity:1;fill-rule:nonzero;stroke:none" />
      <path
         d="m 21.331295,14.259586 a 7.1390228,5.9515977 0 1 1 -14.2780456,0 7.1390228,5.9515977 0 1 1 14.2780456,0 z"
         transform="matrix(0.7889849,-0.7702394,0.7249026,0.796233,-5.8942436,21.609075)"
         id="path4645"
         style="fill:#7fe1ff;fill-opacity:1;fill-rule:nonzero;stroke:none" />
      <path
         d="m 18.312609,9.8866615 a 7.9249392,7.9249392 0 1 1 -15.8498786,0 7.9249392,7.9249392 0 1 1 15.8498786,0 z"
         transform="matrix(1.1620882,0,0,1.1620882,1.7259627,8.8940457)"
         id="path4625"
         style="opacity:0.65740739;fill:none;stroke:url(#linearGradient3928);stroke-width:0.49996206;stroke-miterlimit:4;stroke-opacity:1;stroke-dasharray:none" />
      <path
         d="m 10.725712,6.1170263 a 5.0549564,1.7865229 0 1 1 -10.10991257,0 5.0549564,1.7865229 0 1 1 10.10991257,0 z"
         transform="matrix(0.4417302,-0.4156451,0.4547385,0.4037551,12.698359,24.300146)"
         id="path4884"
         style="fill:#ffffff;fill-opacity:1;fill-rule:nonzero;stroke:none" />
    </g>
    <path
       d="m 106,52.75 -34,85.03895 c -1.448916,20.21459 8.235225,26.24587 21.175965,27.78465 -25.346231,18.09959 -22.339606,58.40627 -4.833437,81.01722 C 100.80306,250.75231 114.13715,253 128,253 c 69.03559,0 125,-55.96441 125,-125 0,-28.253829 -9.38006,-54.315322 -25.1875,-75.25 z"
       transform="translate(0,-232)"
       id="rect4164"
       style="fill:#ffffff;fill-opacity:0.42786069;stroke:none" />
    <g
       id="text5713"
       style="font-size:292.72821045px;font-style:normal;font-weight:normal;line-height:100%;fill:#800080;fill-opacity:1;stroke:none;font-family:Bitstream Vera Sans">
      <path
         d="m 166.08039,-88.244532 -17.46192,0 -6.94138,-18.058438 -31.77851,0 -6.56178,18.058438 -17.028077,0 30.965067,-79.500518 16.97385,0 31.83275,79.500518 m -29.55511,-31.453138 -10.95437,-29.50087 -10.73745,29.50087 21.69182,0"
         id="path4197"
         style="font-size:111.0621109px;font-variant:normal;font-weight:bold;font-stretch:normal;text-align:start;line-height:100%;writing-mode:lr-tb;text-anchor:start;fill:#800080;font-family:Arial;-inkscape-font-specification:Arial Bold" />
      <path
         d="m 174.70288,-167.74505 31.77852,0 c 6.29058,8e-5 10.97239,0.27123 14.04545,0.81345 3.1091,0.50622 5.87481,1.59081 8.29712,3.25377 2.45834,1.66311 4.50099,3.88652 6.12794,6.67023 1.62682,2.7477 2.44026,5.83878 2.44033,9.27326 -7e-5,3.72381 -1.01236,7.14027 -3.03686,10.24938 -1.98848,3.10921 -4.69995,5.44108 -8.13443,6.99561 4.84444,1.41001 8.5682,3.81418 11.17129,7.21253 2.60294,3.39842 3.90445,7.39332 3.90453,11.98473 -8e-5,3.61532 -0.84967,7.14024 -2.54879,10.57476 -1.66311,3.398397 -3.95883,6.127948 -6.88716,8.188664 -2.8923,2.024572 -6.47145,3.271851 -10.73745,3.741839 -2.67537,0.289224 -9.12868,0.469989 -19.35994,0.542295 l -27.06055,0 0,-79.500518 m 16.05195,13.23201 0,18.38382 10.52053,0 c 6.25443,5e-5 10.14088,-0.0903 11.65935,-0.27115 2.74758,-0.32533 4.89869,-1.26531 6.45332,-2.81994 1.59068,-1.59068 2.38604,-3.66947 2.3861,-6.23639 -6e-5,-2.45835 -0.68696,-4.44676 -2.06072,-5.96525 -1.33772,-1.55452 -3.34421,-2.4945 -6.01948,-2.81994 -1.59078,-0.1807 -6.16414,-0.27108 -13.72008,-0.27115 l -9.21902,0 m 0,31.61583 0,21.25798 14.85889,0 c 5.78444,1e-5 9.45397,-0.16267 11.0086,-0.48807 2.38605,-0.43382 4.32024,-1.48225 5.80256,-3.14531 1.51837,-1.69917 2.27759,-3.95874 2.27764,-6.77869 -5e-5,-2.38608 -0.5785,-4.41064 -1.73534,-6.07371 -1.15695,-1.66301 -2.83807,-2.87413 -5.04335,-3.63338 -2.16923,-0.75918 -6.90527,-1.13879 -14.20814,-1.13882 l -12.96086,0"
         id="path4199"
         style="font-size:111.0621109px;font-variant:normal;font-weight:bold;font-stretch:normal;text-align:start;line-height:100%;writing-mode:lr-tb;text-anchor:start;fill:#800080;font-family:Arial;-inkscape-font-specification:Arial Bold" />
      <path
         d="m 145.25624,-18.334637 15.56388,4.934888 c -2.38617,8.6767435 -6.363,15.130053 -11.9305,19.3599485 -5.53147,4.1937525 -12.56323,6.2906255 -21.09529,6.2906275 -10.55672,-2e-6 -19.23344,-3.5972245 -26.03019,-10.7916799 C 94.967366,-5.7714424 91.568984,-15.64121 91.568989,-28.150185 c -5e-6,-13.231957 3.416453,-23.499408 10.249381,-30.802382 6.8329,-7.338989 15.81692,-11.008518 26.95209,-11.008598 9.72511,8e-5 17.62454,2.874244 23.69831,8.622497 3.61523,3.398454 6.32671,8.279109 8.13443,14.641978 l -15.88926,3.796068 c -0.94003,-4.121387 -2.91037,-7.375157 -5.91102,-9.761318 -2.96459,-2.386034 -6.57989,-3.579083 -10.8459,-3.57915 -5.89298,6.7e-5 -10.68326,2.115017 -14.37083,6.344857 -3.65148,4.229961 -5.47721,11.080953 -5.47719,20.552998 -2e-5,10.050573 1.80763,17.208866 5.42296,21.4749002 3.61527,4.2660721 8.31516,6.3990988 14.09968,6.3990864 4.26601,1.24e-5 7.93554,-1.3557249 11.0086,-4.0672159 3.07295,-2.7114582 5.27828,-6.9775117 6.616,-12.7981727"
         id="path4201"
         style="font-size:111.0621109px;font-variant:normal;font-weight:bold;font-stretch:normal;text-align:start;line-height:100%;writing-mode:lr-tb;text-anchor:start;fill:#800080;font-family:Arial;-inkscape-font-specification:Arial Bold" />
      <path
         d="m 174.59442,-68.605427 29.33819,0 c 6.61596,8e-5 11.6593,0.506222 15.13004,1.518428 4.66369,1.373891 8.65859,3.814218 11.98473,7.320988 3.32601,3.506911 5.85672,7.809118 7.59214,12.906632 1.73527,5.061477 2.60294,11.315945 2.60302,18.763423 -8e-5,6.543731 -0.81352,12.183599 -2.44033,16.919619 -1.98849,5.7845011 -4.8265,10.46631388 -8.51404,14.0454523 -2.78385,2.7114827 -6.54376,4.8264329 -11.27975,6.344857 -3.54304,1.1207447 -8.27909,1.6811157 -14.20814,1.6811157 l -30.20586,0 0,-79.500515 m 16.05195,13.448928 0,52.6568893 11.98473,0 c 4.48293,1.33e-5 7.71863,-0.2530576 9.70709,-0.7592137 2.60297,-0.6507397 4.75407,-1.7534061 6.45331,-3.3080023 1.7353,-1.5545613 3.14526,-4.1033473 4.22991,-7.6463663 1.08453,-3.579121 1.62683,-8.441699 1.62689,-14.587748 -6e-5,-6.145969 -0.54236,-10.863935 -1.62689,-14.153911 -1.08465,-3.289869 -2.60307,-5.856732 -4.55528,-7.700596 -1.95232,-1.843741 -4.4288,-3.091019 -7.42945,-3.741839 -2.24153,-0.506076 -6.63412,-0.759147 -13.17778,-0.759213 l -7.21253,0"
         id="path4203"
         style="font-size:111.0621109px;font-variant:normal;font-weight:bold;font-stretch:normal;text-align:start;line-height:100%;writing-mode:lr-tb;text-anchor:start;fill:#800080;font-family:Arial;-inkscape-font-specification:Arial Bold" />
    </g>
  </g>
</svg>
