<svg height="256" width="256" xmlns="http://www.w3.org/2000/svg" xmlns:xlink="http://www.w3.org/1999/xlink">
  <filter id="a" color-interpolation-filters="sRGB" height="1.247969" width="1.23089" x="-.115445" y="-.123985">
    <feGaussianBlur stdDeviation=".33319131"/>
  </filter>
  <linearGradient id="b" gradientUnits="userSpaceOnUse" x1="3.417697" x2="23.230307" y1="12.191525" y2="12.191525">
    <stop offset="0" stop-color="#0e0f55"/>
    <stop offset="1" stop-color="#a5a6f1"/>
  </linearGradient>
  <linearGradient id="c" gradientUnits="userSpaceOnUse" x1="2.21273" x2="18.562609" y1="9.886662" y2="9.886662">
    <stop offset="0" stop-color="#0e0f55"/>
    <stop offset="1" stop-color="#6a6de8"/>
  </linearGradient>
  <linearGradient gradientTransform="matrix(27.479575 0 0 23.357641 -88.049938 -277.49072)" gradientUnits="userSpaceOnUse" x1="20.515984" x2="15.138612" y1="8.76923" y2="2.269732">
    <stop offset="0" stop-color="#92b1de"/>
    <stop offset="1" stop-color="#7380b2"/>
  </linearGradient>
  <path d="m334.05217-233.10887v157.30237h129.88456" fill="none"/>
  <g opacity=".5" transform="matrix(.47567675 0 0 .47572338 -170.60775 96.19405)">
    <path d="m22.480306 12.191525a9.1563045 9.1563045 0 1 1 -18.312609 0 9.1563045 9.1563045 0 1 1 18.312609 0z" fill="#7fe1ff" stroke="url(#b)" stroke-width="1.500063" transform="matrix(15.038305 0 0 15.038305 355.68155 -185.10611)"/>
    <path d="m20.207017 13.864919a7.356617 7.356617 0 1 1 -14.713234 0 7.356617 7.356617 0 1 1 14.713234 0z" fill="#42a5c9" transform="matrix(13.789697 0 0 14.144975 390.75058 -188.62759)"/>
    <path d="m10.725712 6.1170263a5.0549564 1.7865229 0 1 1 -10.10991257 0 5.0549564 1.7865229 0 1 1 10.10991257 0z" fill="#fff" transform="matrix(7.3311581 -7.8350289 7.5470499 7.6108988 400.53763 -68.144982)"/>
    <path d="m21.331295 14.259586a7.1390228 5.9515977 0 1 1 -14.2780456 0 7.1390228 5.9515977 0 1 1 14.2780456 0z" fill="#7fe1ff" transform="matrix(10.685296 -10.431424 9.8174235 10.783458 289.36685 14.835717)"/>
    <path d="m18.312609 9.8866615a7.9249393 7.9249393 0 1 1 -15.8498786 0 7.9249393 7.9249393 0 1 1 15.8498786 0z" fill="none" opacity=".657407" stroke="url(#c)" stroke-width=".499983" transform="matrix(15.738269 0 0 15.738269 392.56806 -157.36512)"/>
    <path d="m18.681998 15.595762a2.9268398 3.6230018 0 1 1 -5.853679 0 2.9268398 3.6230018 0 1 1 5.853679 0z" fill="#d2edf7" filter="url(#a)" transform="matrix(20.201742 12.179217 -15.368857 20.123165 509.10665 -480.76782)"/>
    <path d="m10.725712 6.1170263a5.0549564 1.7865229 0 1 1 -10.10991257 0 5.0549564 1.7865229 0 1 1 10.10991257 0z" fill="#fff" transform="matrix(5.9823933 -5.6291203 6.1585659 5.468093 541.16816 51.281129)"/>
  </g>
  <path d="m22.480306 12.191525a9.1563045 9.1563045 0 1 1 -18.312609 0 9.1563045 9.1563045 0 1 1 18.312609 0z" fill="#7fe1ff" stroke="url(#b)" stroke-width="1.5" transform="matrix(7.15402395388 0 0 7.17062931449 68.10515802262 76.13444244326)"/>
  <path d="m20.207017 13.864919a7.356617 7.356617 0 1 1 -14.713234 0 7.356617 7.356617 0 1 1 14.713234 0z" fill="#42a5c9" transform="matrix(6.56003603164 0 0 6.74466785903 84.78820047052 74.45531519332)"/>
  <path d="m10.725712 6.1170263a5.0549564 1.7865229 0 1 1 -10.10991257 0 5.0549564 1.7865229 0 1 1 10.10991257 0z" fill="#fff" transform="matrix(3.48757926223 -3.73593220182 3.59028333085 3.62906152289 89.44409687227 131.90435089324)"/>
  <path d="m21.331295 14.259586a7.1390228 5.9515977 0 1 1 -14.2780456 0 7.1390228 5.9515977 0 1 1 14.2780456 0z" fill="#7fe1ff" transform="matrix(5.08321007842 -4.9739564882 4.67034568619 5.14181485523 36.5579223272 171.47156493675)"/>
  <path d="m18.312609 9.8866615a7.9249393 7.9249393 0 1 1 -15.8498786 0 7.9249393 7.9249393 0 1 1 15.8498786 0z" fill="none" opacity=".657407" stroke="url(#c)" stroke-width=".499962" transform="matrix(7.48701089775 0 0 7.5043891616 85.65281223732 89.36202069141)"/>
  <path d="m18.681998 15.595762a2.9268398 3.6230018 0 1 1 -5.853679 0 2.9268398 3.6230018 0 1 1 5.853679 0z" fill="#d2edf7" filter="url(#a)" transform="matrix(9.61037471831 5.80734666891 -7.31127418428 9.59521414477 141.09256189074 -64.84424663768)"/>
  <path d="m10.725712 6.1170263a5.0549564 1.7865229 0 1 1 -10.10991257 0 5.0549564 1.7865229 0 1 1 10.10991257 0z" fill="#fff" transform="matrix(2.84594473711 -2.684101369 2.92975358394 2.60731963876 156.3448666244 188.8496231465)"/>
</svg>
