<svg height="24" width="24" xmlns="http://www.w3.org/2000/svg" xmlns:xlink="http://www.w3.org/1999/xlink">
  <filter id="a" height="1.247969" width="1.23089" x="-.115445" y="-.123985">
    <feGaussianBlur stdDeviation=".33319131"/>
  </filter>
  <linearGradient id="b" gradientUnits="userSpaceOnUse" x1="3.417697" x2="23.230306" y1="12.191525" y2="12.191525">
    <stop offset="0" stop-color="#0e0f55"/>
    <stop offset="1" stop-color="#a5a6f1"/>
  </linearGradient>
  <linearGradient id="c" gradientUnits="userSpaceOnUse" x1="2.21273" x2="18.562609" y1="9.886662" y2="9.886662">
    <stop offset="0" stop-color="#0e0f55"/>
    <stop offset="1" stop-color="#6a6de8"/>
  </linearGradient>
  <path d="m0 12h24v12h-24z" fill="#89b2f4"/>
  <path d="m22.480306 12.191525a9.1563044 9.1563044 0 1 1 -18.312609 0 9.1563044 9.1563044 0 1 1 18.312609 0z" fill="#7fe1ff" stroke="url(#b)" stroke-width="1.5" transform="matrix(.50472114647 0 0 .50480165076 .27495295609 11.84505815356)"/>
  <path d="m20.207017 13.864919a7.356617 7.356617 0 1 1 -14.713234 0 7.356617 7.356617 0 1 1 14.713234 0z" fill="#42a5c9" transform="matrix(.462814897 0 0 .47481461317 1.45195033895 11.72684798029)"/>
  <path d="m10.725712 6.1170263a5.0549564 1.7865229 0 1 1 -10.10991257 0 5.0549564 1.7865229 0 1 1 10.10991257 0z" fill="#fff" transform="matrix(.24605103619 -.26300407676 .25329687668 .25548054079 1.78043016859 15.77117476368)"/>
  <path d="m21.331295 14.259586a7.1390228 5.9515977 0 1 1 -14.2780456 0 7.1390228 5.9515977 0 1 1 14.2780456 0z" fill="#7fe1ff" transform="matrix(.35862385517 -.35015914983 .32949599547 .36197612112 -1.95072564755 18.55664787301)"/>
  <path d="m18.312609 9.8866615a7.9249392 7.9249392 0 1 1 -15.8498786 0 7.9249392 7.9249392 0 1 1 15.8498786 0z" fill="none" opacity=".657407" stroke="url(#c)" stroke-width=".499962" transform="matrix(.52821359488 0 0 .52829784627 1.51295028788 12.7762583673)"/>
  <path d="m18.681998 15.595762a2.9268398 3.6230018 0 1 1 -5.853679 0 2.9268398 3.6230018 0 1 1 5.853679 0z" fill="#d2edf7" filter="url(#a)" transform="matrix(.67801832782 .40882858293 -.51581524458 .67548882159 5.42426372284 1.92036840343)"/>
  <path d="m10.725712 6.1170263a5.0549564 1.7865229 0 1 1 -10.10991257 0 5.0549564 1.7865229 0 1 1 10.10991257 0z" fill="#fff" transform="matrix(.20078329417 -.18895675143 .20669606473 .18355142902 6.50032451265 19.78003781318)"/>
  <path d="m22.480306 12.191525a9.1563044 9.1563044 0 1 1 -18.312609 0 9.1563044 9.1563044 0 1 1 18.312609 0z" fill="#7fe1ff" stroke="url(#b)" stroke-width="1.5" transform="matrix(.50472392248 0 0 .50479898579 -.7249655381 -.15491027612)"/>
  <path d="m20.207017 13.864919a7.356617 7.356617 0 1 1 -14.713234 0 7.356617 7.356617 0 1 1 14.713234 0z" fill="#42a5c9" transform="matrix(.46281744252 0 0 .47481210651 .45203831835 -.27311982533)"/>
  <path d="m10.725712 6.1170263a5.0549564 1.7865229 0 1 1 -10.10991257 0 5.0549564 1.7865229 0 1 1 10.10991257 0z" fill="#fff" transform="matrix(.24605238949 -.2630026883 .25329826984 .25547919204 .78051995466 3.77118560709)"/>
  <path d="m21.331295 14.259586a7.1390228 5.9515977 0 1 1 -14.2780456 0 7.1390228 5.9515977 0 1 1 14.2780456 0z" fill="#7fe1ff" transform="matrix(.35862582763 -.35015730125 .32949780773 .36197421016 -2.95065638316 6.55664401123)"/>
  <path d="m18.312609 9.8866615a7.9249392 7.9249392 0 1 1 -15.8498786 0 7.9249392 7.9249392 0 1 1 15.8498786 0z" fill="none" opacity=".657407" stroke="url(#c)" stroke-width=".499962" transform="matrix(.5282165001 0 0 .52829505726 .51303860279 .77628502159)"/>
  <path d="m18.681998 15.595762a2.9268398 3.6230018 0 1 1 -5.853679 0 2.9268398 3.6230018 0 1 1 5.853679 0z" fill="#d2edf7" filter="url(#a)" transform="matrix(.67802205698 .40882642463 -.51581808161 .67548525552 4.42437355031 -10.07954763142)"/>
  <path d="m10.725712 6.1170263a5.0549564 1.7865229 0 1 1 -10.10991257 0 5.0549564 1.7865229 0 1 1 10.10991257 0z" fill="#fff" transform="matrix(.20078439849 -.18895575388 .20669720158 .18355046 5.50044025855 7.78002749283)"/>
  <path d="m22.491172 3.5088322h-6v-2.5044165l-3.944063 5.0009814 3.944063 5.0456329.029932-2.5451421 5.970068.0299316z" fill="#f16174" fill-rule="evenodd" stroke="#bf0808"/>
  <rect fill="#ffacac" height="1.060476" rx=".507208" ry=".530238" width="5.503312" x="16.271357" y="4.240071"/>
</svg>
