<?xml version="1.0" encoding="UTF-8"?>
<svg width="24" height="24" version="1.1" xmlns="http://www.w3.org/2000/svg">
 <defs>
  <radialGradient id="a-0" cx="11.6" cy="3.47" r="10.1" gradientTransform="matrix(-1.11 0 0 -.764 28 13.4)" gradientUnits="userSpaceOnUse">
   <stop stop-color="#df8888" offset="0"/>
   <stop stop-color="#ca2828" offset="1"/>
  </radialGradient>
  <linearGradient id="b-8" x1="13.6" x2="13.7" y1="22.4" y2="1.53" gradientTransform="matrix(.794 0 0 .794 5.73 5.56)" gradientUnits="userSpaceOnUse">
   <stop stop-color="#7b2c2c" offset="0"/>
   <stop stop-color="#d83b3b" offset="1"/>
  </linearGradient>
 </defs>
 <linearGradient id="a" x1="3.42" x2="23.2" y1="12.2" y2="12.2" gradientUnits="userSpaceOnUse">
  <stop stop-color="#0e0f55" offset="0"/>
  <stop stop-color="#a5a6f1" offset="1"/>
 </linearGradient>
 <linearGradient id="b" x1="2.21" x2="18.6" y1="9.89" y2="9.89" gradientUnits="userSpaceOnUse">
  <stop stop-color="#0e0f55" offset="0"/>
  <stop stop-color="#6a6de8" offset="1"/>
 </linearGradient>
 <filter id="c" x="-.137" y="-.11" width="1.27" height="1.22">
  <feGaussianBlur stdDeviation=".33319131"/>
 </filter>
 <g transform="matrix(.818 0 0 .818 -.286 4.3)" opacity=".7">
  <path transform="matrix(1.11 0 0 1.11 -2.22 -6.58)" d="m22.5 12.2a9.16 9.16 0 1 1-18.3 0 9.16 9.16 0 1 1 18.3 0z" fill="#7fe1ff" stroke="url(#a)" stroke-width="1.5"/>
  <path transform="matrix(1.02 0 0 1.04 .366 -6.84)" d="m20.2 13.9a7.36 7.36 0 1 1-14.7 0 7.36 7.36 0 1 1 14.7 0z" fill="#42a5c9"/>
  <path transform="matrix(.541 -.579 .557 .562 1.09 2.06)" d="m10.7 6.12a5.05 1.79 0 1 1-10.1 0 5.05 1.79 0 1 1 10.1 0z" fill="#fff" opacity="1"/>
  <path transform="matrix(.789 -.77 .725 .796 -7.12 8.19)" d="m21.3 14.3a7.14 5.95 0 1 1-14.3 0 7.14 5.95 0 1 1 14.3 0z" fill="#7fe1ff"/>
  <path transform="matrix(1.16 0 0 1.16 .5 -4.53)" d="m18.3 9.89a7.92 7.92 0 1 1-15.8 0 7.92 7.92 0 1 1 15.8 0z" fill="none" opacity=".657" stroke="url(#b)" stroke-width=".5"/>
  <path transform="matrix(1.49 .899 -1.13 1.49 9.11 -28.4)" d="m18.7 15.6a2.93 3.62 0 1 1-5.85 0 2.93 3.62 0 1 1 5.85 0z" fill="#d2edf7" filter="url(#c)"/>
  <path transform="matrix(.442 -.416 .455 .404 11.5 10.9)" d="m10.7 6.12a5.05 1.79 0 1 1-10.1 0 5.05 1.79 0 1 1 10.1 0z" fill="#fff" opacity="1"/>
 </g>
 <path d="m23.1 14.7a8.34 8.34 0 0 1-16.7 0 8.34 8.34 0 1 1 16.7 0z" fill="none" stroke="#fff" stroke-width=".794"/>
 <path d="m23.6 15.1a8.34 8.34 0 0 1-16.7 0 8.34 8.34 0 1 1 16.7 0z" fill="url(#a-0)" stroke="url(#b-8)" stroke-width=".794"/>
 <g transform="matrix(.562 -.562 .562 .562 1.78 14.2)" fill="none" stroke="#fff" stroke-linecap="round" stroke-width="4">
  <path d="m10.8 13.2 5.12-5.12"/>
  <path d="m7.17 16.8-0.296 0.296"/>
 </g>
</svg>
