<?xml version="1.0" encoding="UTF-8"?>
<!-- Created with Inkscape (http://www.inkscape.org/) -->
<svg width="24" height="24" version="1.0" xmlns="http://www.w3.org/2000/svg" xmlns:cc="http://creativecommons.org/ns#" xmlns:dc="http://purl.org/dc/elements/1.1/" xmlns:rdf="http://www.w3.org/1999/02/22-rdf-syntax-ns#" xmlns:xlink="http://www.w3.org/1999/xlink">
 <defs>
  <linearGradient id="linearGradient22" x1="21.2" x2="20.3" y1=".47" y2="7.79" gradientTransform="matrix(-1.29 .19 .25 .98 31.3 -2.5)" gradientUnits="userSpaceOnUse" xlink:href="#a"/>
  <linearGradient id="a" x1="21.2" x2="23.5" y1=".47" y2="12.3" gradientTransform="matrix(1.29 .19 -.25 .98 -7.3 5.5)" gradientUnits="userSpaceOnUse">
   <stop stop-color="#dbf6ff" offset="0"/>
   <stop stop-color="#7ddcfd" offset="1"/>
  </linearGradient>
  <linearGradient id="linearGradient19" x1="21.2" x2="14.3" y1=".47" y2="10.5" gradientTransform="matrix(-1.29 .19 .25 .98 31.3 10.5)" gradientUnits="userSpaceOnUse" xlink:href="#a"/>
  <linearGradient id="linearGradient23" x1="-10.7" x2="-5.31" y1="8.57" y2="16" gradientTransform="translate(20)" gradientUnits="userSpaceOnUse">
   <stop stop-color="#7b86a1" offset="0"/>
   <stop stop-color="#dde8f6" offset="1"/>
  </linearGradient>
 </defs>
 <metadata>
  <rdf:RDF>
   <cc:Work rdf:about="">
    <dc:format>image/svg+xml</dc:format>
    <dc:type rdf:resource="http://purl.org/dc/dcmitype/StillImage"/>
   </cc:Work>
  </rdf:RDF>
 </metadata>
 <use transform="translate(14)" xlink:href="#g24"/>
 <g id="g24" stroke="#00b4ff" stroke-linecap="round">
  <path d="m9.5 0.5h-9v9h9z" fill="url(#linearGradient22)" fill-rule="evenodd" stroke-dashoffset="21.4"/>
  <path d="M 7.51,5.35 4,2 M 5.51,6.35 2,3" fill="none" stroke-width=".7"/>
 </g>
 <g stroke="#00b4ff" stroke-linecap="round">
  <path d="m23.5 14.5h-23v9h23z" fill="url(#linearGradient19)" fill-rule="evenodd" stroke-dashoffset="21.4"/>
  <path d="m7.76 20.7-3.51-3.35m1.51 4.35-3.51-3.35" fill="none" stroke-width=".7"/>
  <path d="m21.8 21-3.51-3.35m1.51 4.35-3.51-3.35" fill="none" stroke-width=".7"/>
 </g>
 <path d="m12 4c-6 6-7 15 0 15s6-9 0-15z" fill="url(#linearGradient23)" fill-rule="evenodd" stroke="#40475a" stroke-width=".75"/>
 <path d="m10.6 17c-3.4-2.08-0.768-7.44 0.8-9.48" fill="none" stroke="#fff" stroke-linecap="round" stroke-width=".75"/>
</svg>
