<svg height="24" width="24" xmlns="http://www.w3.org/2000/svg">
  <g fill="#adb7be" stroke-linejoin="round" stroke-width=".811714" transform="matrix(.87535445 0 0 1.1096603 .7447 -.846008)">
    <path d="m14.022497 17.905145h-3.5011l-.8129208-2.109722h-4.5264891l-.8683469 2.109722h-3.46414973l4.84980973-12.9352454h3.5750025zm-5.2008432-4.518043-1.3579467-4.8183116-1.3764222 4.8183116z" fill="#6270b8"/>
    <path d="m25.032768 17.905145h-3.029977v-1.277227c-.289456.363352-.747156.628167-1.042756.794445-.517319.289449-1.105455.434174-1.764407.434174-1.065423 0-2.013829-.36643-2.845222-1.09929-.991518-.874504-1.487275-2.032299-1.487275-3.473388 0-1.465714.508074-2.635826 1.524226-3.5103383 1.837176-1.3330992 4.039034-1.2296982 5.615434.073902v-1.209166h3.029977zm-2.937599-4.612048c.0043-1.157556-.905633-1.952493-2.123572-1.949162-1.512439.0041-1.969734.958721-1.958399 1.949162.01319 1.152517.698853 1.963647 1.958399 1.949161 1.478844-.01701 2.120035-.987145 2.123572-1.949161z" fill="#3b81b2"/>
  </g>
</svg>
