<?xml version="1.0" encoding="UTF-8" standalone="no"?>
<!-- Created with Inkscape (http://www.inkscape.org/) -->

<svg
   xmlns:dc="http://purl.org/dc/elements/1.1/"
   xmlns:cc="http://creativecommons.org/ns#"
   xmlns:rdf="http://www.w3.org/1999/02/22-rdf-syntax-ns#"
   xmlns:svg="http://www.w3.org/2000/svg"
   xmlns="http://www.w3.org/2000/svg"
   xmlns:sodipodi="http://sodipodi.sourceforge.net/DTD/sodipodi-0.dtd"
   xmlns:inkscape="http://www.inkscape.org/namespaces/inkscape"
   width="96"
   height="48"
   viewBox="0 0 96 47.999999"
   id="svg2"
   version="1.1"
   inkscape:version="0.91 r13725"
   sodipodi:docname="formula_stab_squared.svg">
  <defs
     id="defs4" />
  <sodipodi:namedview
     id="base"
     pagecolor="#ffffff"
     bordercolor="#666666"
     borderopacity="1.0"
     inkscape:pageopacity="0.0"
     inkscape:pageshadow="2"
     inkscape:zoom="11.313708"
     inkscape:cx="58.201562"
     inkscape:cy="26.737566"
     inkscape:document-units="px"
     inkscape:current-layer="layer1"
     showgrid="false"
     inkscape:window-width="1855"
     inkscape:window-height="1056"
     inkscape:window-x="65"
     inkscape:window-y="24"
     inkscape:window-maximized="1"
     units="px">
    <inkscape:grid
       type="xygrid"
       id="grid4247" />
  </sodipodi:namedview>
  <metadata
     id="metadata7">
    <rdf:RDF>
      <cc:Work
         rdf:about="">
        <dc:format>image/svg+xml</dc:format>
        <dc:type
           rdf:resource="http://purl.org/dc/dcmitype/StillImage" />
        <dc:title></dc:title>
      </cc:Work>
    </rdf:RDF>
  </metadata>
  <g
     inkscape:label="Layer 1"
     inkscape:groupmode="layer"
     id="layer1"
     transform="translate(0,-1004.3622)">
    <g
       transform="matrix(0.97057602,0,0,1.030316,-1.1948101,0)"
       style="font-style:italic;font-variant:normal;font-weight:bold;font-stretch:semi-condensed;font-size:18.65625px;line-height:125%;font-family:'DejaVu Serif';-inkscape-font-specification:'DejaVu Serif, Bold Italic Semi-Condensed';text-align:start;letter-spacing:0px;word-spacing:0px;writing-mode:lr-tb;text-anchor:start;fill:#000000;fill-opacity:1;stroke:none;stroke-width:1px;stroke-linecap:butt;stroke-linejoin:miter;stroke-opacity:1"
       id="text4136">
      <path
         d="m 35.16782,995.20227 0.191299,-1.10225 1.002045,0 6.795685,-12.49823 1.958542,0 2.432235,12.49823 1.156907,0 -0.1913,1.10225 -5.729873,0 0.191299,-1.10225 1.202454,0 -0.528351,-2.7784 -4.600296,0 -1.503067,2.7784 1.457519,0 -0.191299,1.10225 -3.643799,0 z m 4.481873,-4.98289 3.78955,0 -0.974716,-5.20153 -2.814834,5.20153 z"
         style="font-style:italic;font-variant:normal;font-weight:bold;font-stretch:semi-condensed;font-size:18.65625px;line-height:125%;font-family:'DejaVu Serif';-inkscape-font-specification:'DejaVu Serif, Bold Italic Semi-Condensed';text-align:start;writing-mode:lr-tb;text-anchor:start"
         id="path4264"
         inkscape:connector-curvature="0" />
      <path
         d="m 65.702854,994.10002 1.138687,0 q 1.922104,0 3.051682,-1.36642 1.129577,-1.36643 1.648819,-4.34523 0.519241,-2.96059 -0.127533,-4.3179 -0.646774,-1.36643 -2.577988,-1.36643 l -1.138687,0 -1.99498,11.39598 z m -4.910019,1.10225 0.1913,-1.10225 1.566833,0 1.99498,-11.39598 -1.566833,0 0.191299,-1.10225 6.276443,0 q 3.297638,0 4.736939,1.74902 1.4393,1.74903 0.865402,5.03756 -0.573898,3.30674 -2.632645,5.06488 -2.058746,1.74902 -5.347274,1.74902 l -6.276444,0 z"
         style="font-style:italic;font-variant:normal;font-weight:bold;font-stretch:semi-condensed;font-size:18.65625px;line-height:125%;font-family:'DejaVu Serif';-inkscape-font-specification:'DejaVu Serif, Bold Italic Semi-Condensed';text-align:start;writing-mode:lr-tb;text-anchor:start"
         id="path4266"
         inkscape:connector-curvature="0" />
    </g>
    <path
       style="fill:none;fill-rule:evenodd;stroke:#000000;stroke-width:0.9054051;stroke-linecap:butt;stroke-linejoin:miter;stroke-miterlimit:4;stroke-dasharray:none;stroke-opacity:1"
       d="m 31.95271,1029.9108 38.479714,0"
       id="path4140"
       inkscape:connector-curvature="0"
       sodipodi:nodetypes="cc" />
    <path
       sodipodi:nodetypes="cc"
       inkscape:connector-curvature="0"
       id="path4150"
       d="m 16.785347,1029.9108 7.12885,0"
       style="fill:none;fill-rule:evenodd;stroke:#000000;stroke-width:0.9054051;stroke-linecap:butt;stroke-linejoin:miter;stroke-miterlimit:4;stroke-dasharray:none;stroke-opacity:1" />
    <path
       style="font-style:italic;font-variant:normal;font-weight:normal;font-stretch:normal;font-size:medium;line-height:125%;font-family:'URW Palladio L';-inkscape-font-specification:'URW Palladio L, Italic';text-align:start;letter-spacing:0px;word-spacing:0px;writing-mode:lr-tb;text-anchor:start;fill:#000000;fill-opacity:1;stroke:none;stroke-width:1px;stroke-linecap:butt;stroke-linejoin:miter;stroke-opacity:1"
       inkscape:connector-curvature="0"
       id="path4157"
       d="m 30.369473,1009.3473 c -1.377235,4.1166 -1.93616,6.2228 -2.49069,9.2864 -0.767924,4.3081 -1.007777,8.6641 -0.711243,13.4988 0.143862,2.3456 0.456077,5.0741 0.829474,7.3239 0.510912,3.0157 1.06539,5.2655 2.481689,10.0523 l 0.360211,-0.6223 -0.63229,-2.6327 c -0.776169,-3.2072 -1.315457,-7.276 -1.59731,-11.8714 -0.278918,-4.5474 -0.262726,-8.712 0.05445,-12.3978 0.350945,-4.021 0.826186,-6.6058 2.183854,-11.632 l -0.478142,-1.0052 z" />
    <path
       style="font-style:italic;font-variant:normal;font-weight:normal;font-stretch:normal;font-size:medium;line-height:125%;font-family:'URW Palladio L';-inkscape-font-specification:'URW Palladio L, Italic';text-align:start;letter-spacing:0px;word-spacing:0px;writing-mode:lr-tb;text-anchor:start;fill:#000000;fill-opacity:1;stroke:none;stroke-width:1px;stroke-linecap:butt;stroke-linejoin:miter;stroke-opacity:1"
       d="m 75.784093,1009.3473 c 1.377234,4.1166 1.936157,6.2228 2.490692,9.2864 0.76792,4.3081 1.007776,8.6641 0.711241,13.4988 -0.14386,2.3456 -0.456077,5.0741 -0.829475,7.3239 -0.510912,3.0157 -1.065387,5.2655 -2.481687,10.0523 l -0.360212,-0.6223 0.63229,-2.6327 c 0.776169,-3.2072 1.315454,-7.276 1.597308,-11.8714 0.278919,-4.5474 0.262726,-8.712 -0.05445,-12.3978 -0.350945,-4.021 -0.826183,-6.6058 -2.183851,-11.632 l 0.478141,-1.0052 z"
       id="path4159"
       inkscape:connector-curvature="0" />
    <g
       transform="matrix(0.93736094,0,0,1.0668249,-1.1948101,0)"
       style="font-style:italic;font-variant:normal;font-weight:bold;font-stretch:normal;font-size:19.31753159px;line-height:125%;font-family:'DejaVu Serif';-inkscape-font-specification:'DejaVu Serif, Bold Italic';text-align:start;letter-spacing:0px;word-spacing:0px;writing-mode:lr-tb;text-anchor:start;fill:#000000;fill-opacity:1;stroke:none;stroke-width:1px;stroke-linecap:butt;stroke-linejoin:miter;stroke-opacity:1"
       id="text4231">
      <path
         d="m 53.008456,970.98387 -1.056427,0 0,-2.50901 q 1.009265,-0.53765 2.027963,-0.82062 1.028131,-0.28297 2.009099,-0.28297 2.197746,0 3.471119,1.06586 1.273372,1.06586 1.273372,2.89574 0,2.06569 -2.886311,4.94257 -0.226377,0.21695 -0.339566,0.33013 l -3.55601,3.55601 5.876378,0 0,-1.73556 1.10359,0 0,3.28248 -9.083391,0 0,-1.02813 4.272872,-4.26344 q 1.414859,-1.41486 2.018532,-2.59391 0.603672,-1.18848 0.603672,-2.49015 0,-1.42429 -0.745158,-2.22604 -0.735727,-0.80176 -2.037396,-0.80176 -1.348832,0 -2.084558,0.6697 -0.735726,0.6697 -0.86778,2.0091 z"
         style="font-style:normal;font-variant:normal;font-weight:normal;font-stretch:normal;font-size:19.31753159px;line-height:125%;font-family:'DejaVu Serif';-inkscape-font-specification:'DejaVu Serif, Normal';text-align:start;writing-mode:lr-tb;text-anchor:start"
         id="path4261"
         inkscape:connector-curvature="0" />
    </g>
    <path
       style="fill:none;fill-rule:evenodd;stroke:#000000;stroke-width:0.9054051;stroke-linecap:butt;stroke-linejoin:miter;stroke-miterlimit:4;stroke-dasharray:none;stroke-opacity:1"
       d="m 48.740875,1018.8989 7.12885,0"
       id="path4241"
       inkscape:connector-curvature="0"
       sodipodi:nodetypes="cc" />
    <path
       sodipodi:nodetypes="cc"
       inkscape:connector-curvature="0"
       id="path4243"
       d="m 52.3053,1015.3345 0,7.1288"
       style="fill:none;fill-rule:evenodd;stroke:#000000;stroke-width:0.9054051;stroke-linecap:butt;stroke-linejoin:miter;stroke-miterlimit:4;stroke-dasharray:none;stroke-opacity:1" />
    <g
       transform="matrix(0.93466418,0,0,1.069903,-1.1948101,0)"
       style="font-style:italic;font-variant:normal;font-weight:bold;font-stretch:normal;font-size:19.37326813px;line-height:125%;font-family:'DejaVu Serif';-inkscape-font-specification:'DejaVu Serif, Bold Italic';text-align:start;letter-spacing:0px;word-spacing:0px;writing-mode:lr-tb;text-anchor:start;fill:#000000;fill-opacity:1;stroke:none;stroke-width:1px;stroke-linecap:butt;stroke-linejoin:miter;stroke-opacity:1"
       id="text4249">
      <path
         d="m 9.3322954,967.73151 0,-1.00272 2.4594966,0 0,-11.74883 -2.8473404,1.84462 0,-1.2392 3.4432954,-2.23247 1.305426,0 0,13.37588 2.459497,0 0,1.00272 -6.8203746,0 z"
         style="font-style:normal;font-variant:normal;font-weight:normal;font-stretch:normal;font-size:19.37326813px;line-height:125%;font-family:'DejaVu Serif';-inkscape-font-specification:'DejaVu Serif, Normal';text-align:start;writing-mode:lr-tb;text-anchor:start"
         id="path4258"
         inkscape:connector-curvature="0" />
    </g>
    <g
       transform="matrix(0.93736094,0,0,1.0668249,-1.1948101,0)"
       style="font-style:italic;font-variant:normal;font-weight:bold;font-stretch:normal;font-size:15.74531174px;line-height:125%;font-family:'DejaVu Serif';-inkscape-font-specification:'DejaVu Serif, Bold Italic';text-align:start;letter-spacing:0px;word-spacing:0px;writing-mode:lr-tb;text-anchor:start;fill:#000000;fill-opacity:1;stroke:none;stroke-width:1px;stroke-linecap:butt;stroke-linejoin:miter;stroke-opacity:1"
       id="text4253">
      <path
         d="m 89.587741,946.76579 -0.861072,0 0,-2.04505 q 0.822631,-0.43822 1.65295,-0.66887 0.838008,-0.23064 1.637574,-0.23064 1.791337,0 2.829236,0.86876 1.037899,0.86876 1.037899,2.36026 0,1.6837 -2.352571,4.02858 -0.184515,0.17683 -0.276773,0.26909 l -2.898429,2.89843 4.789712,0 0,-1.41462 0.899512,0 0,2.67547 -7.403679,0 0,-0.83801 3.482727,-3.47503 q 1.153221,-1.15323 1.645262,-2.11424 0.492041,-0.96871 0.492041,-2.02967 0,-1.16091 -0.607363,-1.8144 -0.599675,-0.6535 -1.660638,-0.6535 -1.099404,0 -1.699079,0.54586 -0.599675,0.54586 -0.707309,1.63758 z"
         style="font-style:normal;font-variant:normal;font-weight:normal;font-stretch:normal;font-size:15.74531174px;line-height:125%;font-family:'DejaVu Serif';-inkscape-font-specification:'DejaVu Serif, Normal';text-align:start;writing-mode:lr-tb;text-anchor:start"
         id="path4269"
         inkscape:connector-curvature="0" />
    </g>
  </g>
</svg>
