<svg height="24" width="24" xmlns="http://www.w3.org/2000/svg" xmlns:xlink="http://www.w3.org/1999/xlink">
  <linearGradient id="a" gradientTransform="matrix(1.0946961 0 0 1.0455526 6.221216 4.957379)" gradientUnits="userSpaceOnUse" x1="4.593023" x2="16.453487" y1="2.660808" y2="16.978306">
    <stop offset="0" stop-color="#fdffff"/>
    <stop offset="1" stop-color="#b2d3fa"/>
  </linearGradient>
  <linearGradient id="b" gradientTransform="matrix(1.0946961 0 0 1.0455526 6.221216 4.957379)" gradientUnits="userSpaceOnUse" x1="16.453487" x2="4.593023" y1="2.660808" y2="16.978306">
    <stop offset="0" stop-color="#92b1de"/>
    <stop offset="1" stop-color="#525f96"/>
  </linearGradient>
  <g fill="none" stroke="#777" stroke-linecap="round" transform="translate(-1.000381)">
    <path d="m12 1v22" stroke-width="1.5"/>
    <path d="m8 2.961039 4 3.038961 4-3"/>
    <path d="m8 21 4-3 4 3"/>
    <path d="m8 5.961039 4 3.038961 4-3"/>
    <path d="m8 18 4-3 4 3"/>
    <g transform="matrix(.5 .8660253 -.8660253 .5 16.388739 -4.392775)">
      <path d="m12 1v22" stroke-width="1.5"/>
      <path d="m8 2.961039 4 3.038961 4-3"/>
      <path d="m8 21 4-3 4 3"/>
      <path d="m8 5.961039 4 3.038961 4-3"/>
      <path d="m8 18 4-3 4 3"/>
    </g>
    <g transform="matrix(-.4999999 .8660254 -.8660254 -.4999999 28.384913 7.606719)">
      <path d="m12 1v22" stroke-width="1.5"/>
      <path d="m8 2.961039 4 3.038961 4-3"/>
      <path d="m8 21 4-3 4 3"/>
      <path d="m8 5.961039 4 3.038961 4-3"/>
      <path d="m8 18 4-3 4 3"/>
    </g>
  </g>
  <path d="m23.488313 8.6155839v14.7844161h-13.888313v-14.7844161z" style="fill-rule:evenodd;stroke-width:1.2;stroke-linecap:round;stroke-linejoin:round;stroke-dashoffset:21.443998;fill:url(#a);stroke:url(#b)"/>
  <g fill="#158110">
    <path d="m19 12.5a1.5 1.5 0 1 1 -3 0 1.5 1.5 0 1 1 3 0z" fill-rule="evenodd" transform="translate(-.425222 -.99221)"/>
    <path d="m20.218007 21.290153c-.42221-.02533-.835513-.116231-1.252413-.177626-.486636-.118383-.550104-.469707-.544527-.651298l-.02723-6.250066c-1.614601.386225-2.601539.487658-3.920595.592089-.281608.103192-.24229.504765-.163358.611825.48679.144446.972794.349515 1.442997.552616.206493.102332.242025.246541.245037.434198.009 1.533602.01157 2.547452-.05445 4.079075-.07545.427-.242051.530172-.490074.611824-.400358.111938-.816236.136786-1.225186.197363-.292575.218663.02005.581235.02723.789451.93472-.02698 1.869269-.04826 2.804323-.05921 1.007781-.0041 2.014996.02971 3.022133.05921.285101-.184465.097-.562565.136115-.789452z"/>
  </g>
</svg>
