<svg height="24" width="24" xmlns="http://www.w3.org/2000/svg">
  <path d="m8.0511183 26.971242c-1.2555911-8.386581-4.1022365-10-11.460064-10.335463l.4089457-2.124597h28v-4.511182c-8-1-10.693291-3.5111821-11.693291-13.5111821l-3.8178911.5111821v30z" fill="#c9d4f3" fill-rule="evenodd"/>
  <g fill="none">
    <path d="m13.511182-3.715655c1 10 4.204473 12.9201278 12.920128 13.971246m-18.0734826 17.533542c-.4376996-11.760383-6.5047923-10.920128-11.971246-11.255591" stroke="#4d0808"/>
    <g stroke="#182e6d">
      <g transform="translate(-11.554313 -.196486)">
        <path d="m11.554313 14.696486h23"/>
        <path d="m31.554313 12.196486 3 2.5-3 2.5" stroke-linecap="round"/>
      </g>
      <g transform="matrix(0 -1 1 0 -5.196486 35.554313)">
        <path d="m11.554313 14.696486h23"/>
        <path d="m31.554313 12.196486 3 2.5-3 2.5" stroke-linecap="round"/>
      </g>
    </g>
  </g>
</svg>
