<svg height="24" width="24" xmlns="http://www.w3.org/2000/svg" xmlns:xlink="http://www.w3.org/1999/xlink">
<filter id="a" height="1.39" width="1.17" x="-.09" y="-.2">
<feGaussianBlur stdDeviation=".81613532"/>
</filter>
<path d="m21.5 22c1.77-7 1.78-14 0-20-6.5 5-11 5-19 0-2.23 4.83-1.82 14.76-.5 20 8-5 12.5-5 19.5 0z" fill="#fc0" fill-rule="evenodd" stroke="#ff9c00"/>
<path d="m22.23 17c1.21-3.36 1.24-6.86 0-10-6.5 2.5-12.51 2.5-20.51 0-1.69 2.49-1.39 7.44-.5 10 8-2.5 14.01-2.5 21.01 0z" fill="#ffea93" fill-rule="evenodd" filter="url(#a)"/>
<path d="m3 0c-3 8-3 17 0 24" fill="none" stroke="#454545" stroke-linecap="round" stroke-width="1.5"/>
<path d="m20.75 0c3 8 3 17 0 24" fill="none" stroke="#454545" stroke-linecap="round" stroke-width="1.5"/>
<path d="m15.36 8.03.14-.42q2.33.51 2.33 2.89 0 1.26-.55 2.44-.55 1.17-1.47 1.76-.91.58-1.89.58-.71 0-1.25-.32-.54-.32-.82-1.28-1.33 1.6-2.7 1.6-.99 0-1.52-.66-.52-.67-.52-1.89 0-2.12 1.36-3.62 1.37-1.5 3.28-1.5.08 0 .27.01l-.14.43q-1.36.26-2.11 2.17-.75 1.91-.75 3.14 0 .52.23.86.23.34.65.34.8 0 1.85-1.35-.06-.62-.06-1.15 0-1.53.52-2.56.53-1.03 1.21-1.03.71 0 .71.87 0 1.52-1.94 3.93.22 1.24 1.21 1.24 1.1 0 1.85-1.6.76-1.6.76-3.12 0-.67-.16-1.07-.13-.39-.49-.69z" fill="#100080" transform="scale(.95 1.05)"/>
</svg>
