<svg height="24" width="24" xmlns="http://www.w3.org/2000/svg" xmlns:xlink="http://www.w3.org/1999/xlink">
  <linearGradient id="a" gradientTransform="matrix(.2083332 0 0 .5833333 7.5 8.5)" gradientUnits="userSpaceOnUse" spreadMethod="pad" x1="12" x2="12" y1="0" y2="24">
    <stop offset="0" stop-color="#dbf6ff" stop-opacity=".545455"/>
    <stop offset="1" stop-color="#7ddcfd" stop-opacity=".676136"/>
  </linearGradient>
  <filter id="b" height="1.467019" width="1.193415" x="-.096708" y="-.233509">
    <feGaussianBlur stdDeviation=".97295539"/>
  </filter>
  <path d="m21.707792 22.434416c1.774156-4.795 1.78361-9.382208 0-13.4922084-6.707792 4.0577924-23.707792 4.0577924-23.707792 4.0577924v5s17 0 23.707792 4.434416z" fill="#fc0" fill-rule="evenodd" stroke="#ff9c00"/>
  <path d="m22.227273 17c1.209279-3.358781 1.240348-6.864185 0-10-6.383588 4.149172-23.227273 2.0129873-23.227273 2.0129873v4.9999997s16.420887-1.234002 23.227273 2.987013z" fill="#ffea93" fill-rule="evenodd" filter="url(#b)" transform="matrix(1 0 0 .6 0 8.592208)"/>
  <path d="m21.742869 8c2 5 2 10 0 15" fill="none" stroke="#454545" stroke-linecap="round" stroke-width="1.5"/>
  <path d="m7.5 8.5h5v14h-5z" fill="url(#a)" stroke="#00b4ff" stroke-linecap="round" stroke-opacity=".792929"/>
  <g fill="none" stroke="#182e6d">
    <path d="m3.4999998-1.442044v11"/>
    <path d="m5.9999998 6.557956-2.5 3-2.4999998-3" stroke-linecap="round"/>
    <g transform="translate(6 -4)">
      <path d="m3.4999998-1.442044v11"/>
      <path d="m5.9999998 6.557956-2.5 3-2.4999998-3" stroke-linecap="round"/>
    </g>
    <g transform="translate(14 -2)">
      <path d="m3.4999998-1.442044v11"/>
      <path d="m5.9999998 6.557956-2.5 3-2.4999998-3" stroke-linecap="round"/>
    </g>
  </g>
</svg>
