<svg height="24" width="24" xmlns="http://www.w3.org/2000/svg" xmlns:xlink="http://www.w3.org/1999/xlink">
  <linearGradient id="a" gradientTransform="matrix(.2083332 0 0 .5833333 9.5 8.5)" gradientUnits="userSpaceOnUse" spreadMethod="pad" x1="12" x2="12" y1="0" y2="24">
    <stop offset="0" stop-color="#dbf6ff" stop-opacity=".545455"/>
    <stop offset="1" stop-color="#7ddcfd" stop-opacity=".676136"/>
  </linearGradient>
  <filter id="b" height="1.391745" width="1.172991" x="-.086495" y="-.195872">
    <feGaussianBlur stdDeviation=".81613532"/>
  </filter>
  <path d="m21.707792 22.434416c1.774156-4.795 1.78361-9.382208 0-13.4922084-6.687159 5.7332904-11.7990245 6.2320234-19.5714284 0-2.1363636 4.0577924-1.45675153 9.9026094-.1363636 13.4922084 7.9250382-5.598893 12.644429-5.262513 19.707792 0z" fill="#fc0" fill-rule="evenodd" stroke="#ff9c00"/>
  <path d="m22.227273 17c1.209279-3.358781 1.240348-6.864185 0-10-6.383588 4.149172-12.3472703 4.755667-20.5064938 0-1.6944077 2.4901257-1.38928389 7.441441-.5 10 8.2215776-4.469579 14.2001078-4.221015 21.0064938 0z" fill="#ffea93" fill-rule="evenodd" filter="url(#b)" transform="matrix(1 0 0 .6 0 8.592208)"/>
  <path d="m2.2571296 8c-1.99999986 5-1.99999986 10 0 15" fill="none" stroke="#454545" stroke-linecap="round" stroke-width="1.5"/>
  <text fill="#036" font-family="Times New Roman" font-size="13.063871" font-weight="bold" transform="scale(1.0521153 .9504662)" x=".443591" y="6.149367"><tspan x=".443591" y="6.149367">ω</tspan></text>
  <path d="m21.742869 8c2 5 2 10 0 15" fill="none" stroke="#454545" stroke-linecap="round" stroke-width="1.5"/>
  <path d="m9.5 8.5h5v14h-5z" fill="url(#a)" stroke="#00b4ff" stroke-linecap="round" stroke-opacity=".792929"/>
  <text fill="#036" font-family="Times New Roman" font-size="13.063871" font-weight="bold" transform="scale(1.0521153 .9504662)" x="12.79184" y="6.149367"><tspan x="12.79184" y="6.149367">ω</tspan></text>
</svg>
