<svg height="24" width="24" xmlns="http://www.w3.org/2000/svg" xmlns:xlink="http://www.w3.org/1999/xlink">
  <filter id="a" height="1.391745" width="1.172991" x="-.086495" y="-.195872">
    <feGaussianBlur stdDeviation=".81613532"/>
  </filter>
  <path d="m21.5 22c1.774156-7 1.78361-14 0-20-6.5 5-11 5-19 0-2.23059211 4.8270559-1.82038793 14.759709-.5 20 8-5 12.5-5 19.5 0z" fill="#fc0" fill-rule="evenodd" stroke="#ff9c00"/>
  <path d="m22.227273 17c1.209279-3.358781 1.240348-6.864185 0-10-6.5 2.5-12.5064938 2.5-20.5064938 0-1.6944077 2.4901257-1.38928389 7.441441-.5 10 8-2.5 14.0064938-2.5 21.0064938 0z" fill="#ffea93" fill-rule="evenodd" filter="url(#a)"/>
  <path d="m3 0c-3 8-3 17 0 24" fill="none" stroke="#454545" stroke-linecap="round" stroke-width="1.5"/>
  <path d="m20.75 0c3 8 3 17 0 24" fill="none" stroke="#454545" stroke-linecap="round" stroke-width="1.5"/>
  <text fill="#100080" font-family="Times New Roman" font-size="16.430622" font-style="italic" font-weight="bold" transform="scale(.95298724 1.049332)" x="6.650317" y="15.049776"><tspan x="6.650317" y="15.049776">ω</tspan></text>
</svg>
