<svg height="24" width="24" xmlns="http://www.w3.org/2000/svg">
  <path d="m24 22c-6 0-3.195011-15-5-15s1 15-7 15-5.1950112-15-7-15 1 15-5 15" fill="#4d7808" fill-opacity=".343434" fill-rule="evenodd" stroke="#376605"/>
  <path d="m0 22.5h24" fill="none" stroke="#182e6d"/>
  <path d="m11.505933 5.2924603-.755608 3.0016714c-.393373 1.5686876-.7771494 2.7056243-1.1513294 3.4108143-.3741836.705188-.8119284 1.226884-1.3132355 1.565089-.5013083.3382-1.0757733.507302-1.7233968.507305-.4077611-.000003-.7075862-.077958-.8994764-.233864-.1918861-.155912-.2878301-.339405-.2878325-.55048.0000024-.196687.0791562-.366988.2374618-.510902.1583098-.143918.3669881-.215876.6260356-.215875.2158756-.000001.3813791.055167.4965109.165504.1151339.110334.1727003.249453.1726995.417357.0000008.153508-.0359782.267442-.1079371.341801-.0719572.074354-.1079362.123526-.1079372.147514l.035979.050371c.0287843.023983.0623647.035976.1007414.035979.143917-.000003.2662457-.045576.3669864-.13672.2542523-.225472.4437418-.498912.5684691-.820323.0863496-.220673.2518531-.803533.4965109-1.748582l1.3987175-5.4266597h-1.1026635l.170009-1.0584921h1.2232598c.3735265-1.0548922.8930195-2.5841036 1.8012405-3.30974826 1.46884-1.17356392 2.963898-.93034355 3.126607.28555136.004885.8293336-.656018.9889652-1.024842.7557361-.395327-.3153459.392669-.9590736-.703667-.98336136-.647824-.01658178-.935337 1.91071206-1.351092 3.25182216h1.043393l-.30392 1.0584921z" fill="#182e6d" transform="matrix(1.058492 0 .1710204 .9447402 0 0)"/>
  <g fill="none" stroke="#454545" stroke-linecap="round">
    <g transform="translate(-2)">
      <path d="m5 3.5h5"/>
      <path d="m7 2-3 1.5 3 1.5"/>
    </g>
    <g transform="matrix(-1 0 0 1 26 0)">
      <path d="m5 3.5h5"/>
      <path d="m7 2-3 1.5 3 1.5"/>
    </g>
  </g>
</svg>
