<svg height="24" width="24" xmlns="http://www.w3.org/2000/svg" xmlns:xlink="http://www.w3.org/1999/xlink">
  <filter id="a" height="1.247969" width="1.23089" x="-.115445" y="-.123985">
    <feGaussianBlur stdDeviation=".33319131"/>
  </filter>
  <linearGradient id="b">
    <stop offset="0" stop-color="#0e0f55"/>
    <stop offset="1" stop-color="#6a6de8"/>
  </linearGradient>
  <linearGradient id="c" gradientUnits="userSpaceOnUse" x1=".746316" x2="8.309204" xlink:href="#b" y1="12" y2="12"/>
  <linearGradient id="d" gradientUnits="userSpaceOnUse" x1="3.417697" x2="23.230306" y1="12.191525" y2="12.191525">
    <stop offset="0" stop-color="#0e0f55"/>
    <stop offset="1" stop-color="#a5a6f1"/>
  </linearGradient>
  <linearGradient id="e" gradientUnits="userSpaceOnUse" x1="2.21273" x2="18.562609" xlink:href="#b" y1="9.886662" y2="9.886662"/>
  <path d="m0 14.5h25" fill="none" stroke="#182e6d"/>
  <g transform="matrix(.6140783 0 0 .556316 -.458296 .443684)">
    <path d="m8.3092044 23c-1.0008932 0-1.1224194 0-1.807753 0-2.7624651 0-5.75513568-4.927999-5.75513568-11 0-6.072 2.99267058-11 5.75513568-11h1.807753z" fill="url(#c)"/>
    <path d="m22.480306 12.191525a9.1563044 9.1563044 0 1 1 -18.312609 0 9.1563044 9.1563044 0 1 1 18.312609 0z" fill="#7fe1ff" stroke="url(#d)" stroke-width="1.5" transform="matrix(.6399498 0 0 1.1310271 -.034887 -1.788946)"/>
    <path d="m20.207017 13.864919a7.356617 7.356617 0 1 1 -14.713234 0 7.356617 7.356617 0 1 1 14.713234 0z" fill="#42a5c9" transform="matrix(.5868157 0 0 1.06384 1.45746 -2.0538)"/>
    <path d="m10.725712 6.1170263a5.0549564 1.7865229 0 1 1 -10.10991257 0 5.0549564 1.7865229 0 1 1 10.10991257 0z" fill="#fff" transform="matrix(.3119749 -.5892705 .3211621 .5724138 1.873949 7.007667)"/>
    <path d="m21.331295 14.259586a7.1390228 5.9515977 0 1 1 -14.2780456 0 7.1390228 5.9515977 0 1 1 14.2780456 0z" fill="#7fe1ff" transform="matrix(.454709 -.7845447 .417777 .8110211 -2.856886 13.248623)"/>
    <path d="m18.312609 9.8866615a7.9249392 7.9249392 0 1 1 -15.8498786 0 7.9249392 7.9249392 0 1 1 15.8498786 0z" fill="none" opacity=".657407" stroke="url(#e)" stroke-width=".499962" transform="matrix(.6654362 0 0 1.2332639 1.549277 -.192862)"/>
    <path d="m18.681998 15.595762a2.9268398 3.6230018 0 1 1 -5.853679 0 2.9268398 3.6230018 0 1 1 5.853679 0z" fill="#d2edf7" filter="url(#a)" transform="matrix(.8596781 .9159958 -.6540163 1.5134581 6.494065 -24.025587)"/>
    <path d="m10.725712 6.1170263a5.0549564 1.7865229 0 1 1 -10.10991257 0 5.0549564 1.7865229 0 1 1 10.10991257 0z" fill="#fff" transform="matrix(.2545787 -.4233647 .2620756 .4112539 7.858432 15.989674)"/>
  </g>
  <g opacity=".8" transform="matrix(.5727989 -.2213448 .2005244 .5189195 11.730531 9.895757)">
    <path d="m8.3092044 23c-1.0008932 0-1.1224194 0-1.807753 0-2.7624651 0-5.75513568-4.927999-5.75513568-11 0-6.072 2.99267058-11 5.75513568-11h1.807753z" fill="url(#c)"/>
    <path d="m22.480306 12.191525a9.1563044 9.1563044 0 1 1 -18.312609 0 9.1563044 9.1563044 0 1 1 18.312609 0z" fill="#7fe1ff" stroke="url(#d)" stroke-width="1.5" transform="matrix(.6399498 0 0 1.1310271 -.034887 -1.788946)"/>
    <path d="m20.207017 13.864919a7.356617 7.356617 0 1 1 -14.713234 0 7.356617 7.356617 0 1 1 14.713234 0z" fill="#42a5c9" transform="matrix(.5868157 0 0 1.06384 1.45746 -2.0538)"/>
    <path d="m10.725712 6.1170263a5.0549564 1.7865229 0 1 1 -10.10991257 0 5.0549564 1.7865229 0 1 1 10.10991257 0z" fill="#fff" transform="matrix(.3119749 -.5892705 .3211621 .5724138 1.873949 7.007667)"/>
    <path d="m21.331295 14.259586a7.1390228 5.9515977 0 1 1 -14.2780456 0 7.1390228 5.9515977 0 1 1 14.2780456 0z" fill="#7fe1ff" transform="matrix(.454709 -.7845447 .417777 .8110211 -2.856886 13.248623)"/>
    <path d="m18.312609 9.8866615a7.9249392 7.9249392 0 1 1 -15.8498786 0 7.9249392 7.9249392 0 1 1 15.8498786 0z" fill="none" opacity=".657407" stroke="url(#e)" stroke-width=".499962" transform="matrix(.6654362 0 0 1.2332639 1.549277 -.192862)"/>
    <path d="m18.681998 15.595762a2.9268398 3.6230018 0 1 1 -5.853679 0 2.9268398 3.6230018 0 1 1 5.853679 0z" fill="#d2edf7" filter="url(#a)" transform="matrix(.8596781 .9159958 -.6540163 1.5134581 6.494065 -24.025587)"/>
    <path d="m10.725712 6.1170263a5.0549564 1.7865229 0 1 1 -10.10991257 0 5.0549564 1.7865229 0 1 1 10.10991257 0z" fill="#fff" transform="matrix(.2545787 -.4233647 .2620756 .4112539 7.858432 15.989674)"/>
  </g>
  <g fill="none" stroke="#9f29ab">
    <path d="m13 6c2-2 5-3.5 9-3.5"/>
    <path d="m13.63134 3.1476829-1 3h3" stroke-linecap="round"/>
    <path d="m19.547315 4.5 2.366026-2.0980741-2.598077-1.5000009" stroke-linecap="round"/>
    <g transform="translate(1)">
      <path d="m6.5 8v11"/>
      <g stroke-linecap="round">
        <path d="m8.5 10-2-2.8264592-2 2.8264592"/>
        <path d="m8.5 17-2 2.677556-2-2.677556"/>
      </g>
    </g>
  </g>
</svg>
