<svg height="24" width="24" xmlns="http://www.w3.org/2000/svg" xmlns:xlink="http://www.w3.org/1999/xlink">
<linearGradient id="a" gradientTransform="matrix(.21 0 0 .58 9.5 8.5)" gradientUnits="userSpaceOnUse" spreadMethod="pad" x1="12" x2="12" y1="0" y2="24">
<stop offset="0" stop-color="#dbf6ff" stop-opacity=".55"/>
<stop offset="1" stop-color="#7ddcfd" stop-opacity=".68"/>
</linearGradient>
<filter id="b" height="1.39" width="1.17" x="-.09" y="-.2">
<feGaussianBlur stdDeviation=".81613532"/>
</filter>
<path d="m21.71 22.43c1.77-4.8 1.78-9.38 0-13.49-6.69 5.73-11.8 6.23-19.57 0-2.14 4.06-1.46 9.9-.14 13.49 7.93-5.6 12.64-5.26 19.71 0z" fill="#fc0" fill-rule="evenodd" stroke="#ff9c00"/>
<path d="m22.23 17c1.21-3.36 1.24-6.86 0-10-6.38 4.15-12.35 4.76-20.51 0-1.69 2.49-1.39 7.44-.5 10 8.22-4.47 14.2-4.22 21.01 0z" fill="#ffea93" fill-rule="evenodd" filter="url(#b)" transform="matrix(1 0 0 .6 0 8.59)"/>
<path d="m2.26 8c-2 5-2 10 0 15" fill="none" stroke="#454545" stroke-linecap="round" stroke-width="1.5"/>
<path id="c" d="m4.5.01v.24q-1.7 0-1.7 2.88 0 1.1.25 1.8.26.7.76.7.31 0 .59-.25.28-.25.64-.79-.64-1.53-.64-2.4 0-.52.21-.84.22-.33.61-.33.38 0 .6.32.22.32.22.9 0 .71-.4 1.75-.17.43-.22.58.73 1.05 1.19 1.05 1.04 0 1.04-2.54 0-1.39-.41-2.09-.42-.7-1.3-.73v-.25q.2-.01.32-.01 1.57 0 2.4.96.84.96.84 2.32 0 1.26-.7 2.16-.69.89-1.63.89-1.03 0-1.94-1.27-.59.76-1 1.01-.41.26-.9.26-1.06 0-1.72-.93-.66-.93-.66-2.11 0-1.4.85-2.34.86-.94 2.42-.94.09 0 .27.01z" fill="#036" transform="scale(1.05 .95)"/>
<path d="m21.74 8c2 5 2 10 0 15" fill="none" stroke="#454545" stroke-linecap="round" stroke-width="1.5"/>
<path d="m9.5 8.5h5v14h-5z" fill="url(#a)" stroke="#00b4ff" stroke-linecap="round" stroke-opacity=".79"/>
<use transform="translate(12.99)" xlink:href="#c"/>
</svg>
