<svg height="24" width="24" xmlns="http://www.w3.org/2000/svg" xmlns:xlink="http://www.w3.org/1999/xlink">
  <linearGradient id="a">
    <stop offset="0" stop-color="#c6b5a5"/>
    <stop offset="1" stop-color="#735a42"/>
  </linearGradient>
  <linearGradient id="b" gradientUnits="userSpaceOnUse" x1="9" x2="15" y1="7" y2="11">
    <stop offset="0" stop-color="#ffde73"/>
    <stop offset="1" stop-color="#d69c31"/>
  </linearGradient>
  <linearGradient id="c" gradientUnits="userSpaceOnUse" x1="8" x2="16" xlink:href="#a" y1="5" y2="13"/>
  <linearGradient id="d" gradientUnits="userSpaceOnUse" x1="8.5" x2="15.5" xlink:href="#a" y1="3" y2="3"/>
  <path d="m12 11c-4 0-10-4-13-6v16c3-2 9-6 13-6s10 4 13 6v-16c-3 2-9 6-13 6z" style="fill:#00acff;fill-opacity:.2;stroke:#00acff;stroke-width:1.5;stroke-linecap:round;stroke-opacity:.854902"/>
  <rect fill="url(#b)" height="7" ry="1" stroke="url(#c)" stroke-linejoin="round" width="9" x="7.5" y="5.5"/>
  <path d="m8.5 10.5v-4h6" fill="none" stroke="#fff7c6" stroke-linecap="round" stroke-linejoin="round"/>
  <path d="m9 5c0-2 0-4 3-4s3 2 3 4" fill="none" stroke="url(#d)"/>
  <path d="m11 8.559322.5-1h1l.5 1-.5.7966102v1.6440678h-1v-1.6440678z" fill-opacity=".611872"/>
</svg>
