<svg height="24" width="24" xmlns="http://www.w3.org/2000/svg">
  <path d="m-1 16v-6c9-1 21-3 26-8v22c-5-4.99425-17-7.011498-26-8z" fill="#e53d3c" fill-opacity=".25" stroke="#e53d3c"/>
  <path d="m9.3470401 6.4191442h-5.6082241l3.7388161-5.3492868h-2.8041121l-.934704 1.0698573v-2.1397147h5.6082241l-3.3971331 5.3130034 2.4624291.036283.934704-1.0698574z" transform="matrix(1.0698574 0 0 .93470404 2 0)"/>
  <g fill="none" stroke="#182e6d">
    <path d="m0 13h25"/>
    <path d="m18.5 24v-24" stroke-dasharray="2 2"/>
    <path d="m.5 24v-24" stroke-dasharray="2 2"/>
  </g>
  <path d="m12.29661 12.694915a1.3050847 1.3050847 0 1 1 -2.6101691 0 1.3050847 1.3050847 0 1 1 2.6101691 0z" stroke="#000" stroke-linejoin="round" transform="translate(7.51695 .305085)"/>
</svg>
