<svg height="24" width="24" xmlns="http://www.w3.org/2000/svg" xmlns:xlink="http://www.w3.org/1999/xlink">
  <radialGradient id="a" cx="11.568233" cy="3.467792" gradientTransform="matrix(-1.394357 0 0 -.96218184 28.004748 9.819082)" gradientUnits="userSpaceOnUse" r="10.087649">
    <stop offset="0" stop-color="#bed5fd"/>
    <stop offset="1" stop-color="#4665c7"/>
  </radialGradient>
  <linearGradient id="b" gradientUnits="userSpaceOnUse" x1="14.016949" x2="13.542373" y1="22.271187" y2="1.830509">
    <stop offset="0" stop-color="#4e5e8c"/>
    <stop offset="1" stop-color="#6e7fae"/>
  </linearGradient>
  <path d="m22.499999 12.004347a10.5 10.5 0 0 1 -20.9999982 0 10.5 10.5 0 1 1 20.9999982 0z" fill="url(#a)" stroke="url(#b)"/>
  <g fill="#fff">
    <path d="m13.771081 14.882989c-.06221 1.452889-2.709587 1.379809-2.859063 0-.23735-2.19098.45614-3.928085 2.031482-5.0260728 2.524012-1.7591962 1.909977-3.6688776-.298615-4.0250581-1.690623-.2726474-3.0470042.5628485-3.3727094 2.0057439-.4014875 1.7786157-3.101025 1.4973403-2.8926993-.3587844.3465816-3.0879476 3.1022067-4.4083887 5.9070657-4.3517795 3.0416.061387 6.268159 1.8863141 5.919943 4.7202574-.434604 3.5370055-4.279485 3.3942035-4.435404 7.0356935z" transform="matrix(.89172317 0 0 .93336541 1.054309 1.069198)"/>
    <path d="m13.883622 18.574083a1.8246135 1.8246135 0 0 1 -3.649227 0 1.8246135 1.8246135 0 1 1 3.649227 0z"/>
  </g>
</svg>
