<?xml version="1.0" encoding="UTF-8" standalone="no"?>
<!-- Created with Inkscape (http://www.inkscape.org/) -->

<svg
   xmlns:dc="http://purl.org/dc/elements/1.1/"
   xmlns:cc="http://creativecommons.org/ns#"
   xmlns:rdf="http://www.w3.org/1999/02/22-rdf-syntax-ns#"
   xmlns:svg="http://www.w3.org/2000/svg"
   xmlns="http://www.w3.org/2000/svg"
   xmlns:xlink="http://www.w3.org/1999/xlink"
   version="1.1"
   width="24"
   height="24"
   id="svg2">
  <defs
     id="defs4">
    <linearGradient
       id="linearGradient4707">
      <stop
         id="stop4709"
         style="stop-color:#4e5e8c;stop-opacity:1"
         offset="0" />
      <stop
         id="stop4711"
         style="stop-color:#6e7fae;stop-opacity:1"
         offset="1" />
    </linearGradient>
    <linearGradient
       id="linearGradient3761">
      <stop
         id="stop3763"
         style="stop-color:#bed5fd;stop-opacity:1"
         offset="0" />
      <stop
         id="stop3765"
         style="stop-color:#4665c7;stop-opacity:1"
         offset="1" />
    </linearGradient>
    <radialGradient
       cx="11.568233"
       cy="3.4677923"
       r="10.087649"
       fx="11.568233"
       fy="3.4677923"
       id="radialGradient3767"
       xlink:href="#linearGradient3761"
       gradientUnits="userSpaceOnUse"
       gradientTransform="matrix(-1.3395986,0,0,-0.88496644,26.898132,10.276956)" />
    <radialGradient
       cx="11.568233"
       cy="3.4677923"
       r="10.087649"
       fx="11.568233"
       fy="3.4677923"
       id="radialGradient3014"
       xlink:href="#linearGradient3761"
       gradientUnits="userSpaceOnUse"
       gradientTransform="matrix(-1.394357,0,0,-0.96218184,28.004748,9.8190824)" />
    <linearGradient
       x1="14.016949"
       y1="22.271187"
       x2="13.542373"
       y2="1.8305085"
       id="linearGradient4713"
       xlink:href="#linearGradient4707"
       gradientUnits="userSpaceOnUse" />
  </defs>
  <metadata
     id="metadata7">
    <rdf:RDF>
      <cc:Work
         rdf:about="">
        <dc:format>image/svg+xml</dc:format>
        <dc:type
           rdf:resource="http://purl.org/dc/dcmitype/StillImage" />
        <dc:title></dc:title>
      </cc:Work>
    </rdf:RDF>
  </metadata>
  <path
     d="m 22.499999,12.004347 a 10.5,10.5 0 0 1 -20.9999982,0 10.5,10.5 0 1 1 20.9999982,0 z"
     id="path2985"
     style="fill:url(#radialGradient3014);fill-opacity:1;stroke:url(#linearGradient4713);stroke-width:1;stroke-opacity:1" />
  <g
     transform="matrix(0.89172317,0,0,0.93336541,1.0543086,1.0691975)"
     id="text3784"
     style="font-size:22.96220207px;font-style:normal;font-variant:normal;font-weight:bold;font-stretch:normal;text-align:start;line-height:125%;letter-spacing:0px;word-spacing:0px;writing-mode:lr-tb;text-anchor:start;fill:#ffffff;fill-opacity:1;stroke:none;font-family:Sans;-inkscape-font-specification:Sans Bold">
    <path
       d="m 13.771081,14.882989 c -0.06221,1.452889 -2.709587,1.379809 -2.859063,0 -0.23735,-2.19098 0.45614,-3.928085 2.031482,-5.0260728 C 15.467512,8.09772 14.853477,6.1880386 12.644885,5.8318581 10.954262,5.5592107 9.5978808,6.3947066 9.2721756,7.837602 8.8706881,9.6162177 6.1711506,9.3349423 6.3794763,7.4788176 6.7260579,4.39087 9.481683,3.0704289 12.286542,3.1270381 c 3.0416,0.061387 6.268159,1.8863141 5.919943,4.7202574 C 17.771881,11.384301 13.927,11.241499 13.771081,14.882989 z"
       id="path3789" />
  </g>
  <path
     d="m 13.883622,18.574083 a 1.8246135,1.8246135 0 0 1 -3.649227,0 1.8246135,1.8246135 0 1 1 3.649227,0 z"
     id="path3793"
     style="fill:#ffffff;fill-opacity:1;stroke:none" />
</svg>
