<?xml version="1.0" encoding="UTF-8"?>
<!-- Created with Inkscape (http://www.inkscape.org/) -->
<svg width="24" height="24" version="1.0" xmlns="http://www.w3.org/2000/svg" xmlns:cc="http://creativecommons.org/ns#" xmlns:dc="http://purl.org/dc/elements/1.1/" xmlns:rdf="http://www.w3.org/1999/02/22-rdf-syntax-ns#" xmlns:xlink="http://www.w3.org/1999/xlink">
 <defs>
  <linearGradient id="linearGradient6496" x1="18.4" x2="4" y1="20.6" y2="6" gradientTransform="rotate(-15 17.4 3.1)" gradientUnits="userSpaceOnUse">
   <stop stop-color="#0043ff" offset="0"/>
   <stop stop-color="#4369d4" offset=".5"/>
   <stop stop-color="#7b86a1" offset=".547"/>
   <stop stop-color="#dde8f6" offset="1"/>
  </linearGradient>
  <linearGradient id="linearGradient7979" x1="17.3" x2="14.4" y1="10.8" y2="8.83" gradientTransform="rotate(105 13.4 15)" gradientUnits="userSpaceOnUse">
   <stop stop-color="#945021" offset="0"/>
   <stop stop-color="#e58d2b" offset="1"/>
  </linearGradient>
 </defs>
 <metadata>
  <rdf:RDF>
   <cc:Work rdf:about="">
    <dc:format>image/svg+xml</dc:format>
    <dc:type rdf:resource="http://purl.org/dc/dcmitype/StillImage"/>
   </cc:Work>
  </rdf:RDF>
 </metadata>
 <g>
  <path d="m2.6 1.13c-3.54 10.5 6.16 13.3 10.6 15.1l2.53-3.58c-4.17-2.65-10.5-8.01-13.2-11.5z" fill="url(#linearGradient6496)" fill-rule="evenodd" stroke="#000" stroke-width=".5"/>
  <path d="m15.8 12.6c1.75-3.48 0.397 0.0898 0.853 0.4 2.06 1.4 7.02 5.86 6.85 5.99-1.94 1.5-1.42 3.78-3.44 4.24-0.683-2.69-3.98-5.68-6.23-6.08-0.501-0.089-2.29 1.83-0.965-0.381z" fill="url(#linearGradient7979)" fill-rule="evenodd" stroke="#501500" stroke-width=".6"/>
  <path d="m15.9 14.3c1.59 0.821 4.27 2.9 6 4.9" fill="none" stroke="#f4cea3" stroke-linecap="round" stroke-width="1px"/>
  <path d="m3.43 3.04c2.42 3.18 7.19 7.32 11 9.8" fill="none" stroke="#fff" stroke-linecap="round" stroke-width=".75"/>
 </g>
</svg>
