<svg height="24" width="24" xmlns="http://www.w3.org/2000/svg" xmlns:xlink="http://www.w3.org/1999/xlink">
  <linearGradient id="a">
    <stop offset="0" stop-color="#305080"/>
    <stop offset="1" stop-color="#5b79a4"/>
  </linearGradient>
  <linearGradient id="b" gradientUnits="userSpaceOnUse" x1="-.5" x2="24.5" xlink:href="#a" y1="21.5" y2="21.5"/>
  <linearGradient id="c" gradientUnits="userSpaceOnUse" x1="20" x2="20" y1="19" y2="24">
    <stop offset="0" stop-color="#5080e0"/>
    <stop offset="1" stop-color="#4058a0"/>
  </linearGradient>
  <linearGradient id="d" gradientUnits="userSpaceOnUse" x1="22.410208" x2="19.5" xlink:href="#a" y1="21.5" y2="21.5"/>
  <path d="m0 5v13h24v-13z" fill="#c9d4f3" fill-rule="evenodd"/>
  <path d="m0 17.5h24" fill="none" stroke="#f00" stroke-opacity=".164706"/>
  <path d="m0 21.5h23" fill="none" stroke="url(#b)"/>
  <path d="m20 19.5 3 2-3 2" fill="url(#d)" fill-rule="evenodd" stroke="url(#c)" stroke-linecap="round"/>
  <g transform="matrix(0 -1 1 0 -19 24)">
    <path d="m0 21.5h23" fill="none" stroke="url(#b)"/>
    <path d="m20 19.5 3 2-3 2" fill="url(#d)" fill-rule="evenodd" stroke="url(#c)" stroke-linecap="round"/>
  </g>
  <path d="m0 17.5h24" fill="none" stroke="#f00" stroke-dasharray="1 1"/>
  <path d="m0 5.5h24" fill="none" stroke="#f00" stroke-dasharray="1 1"/>
  <g transform="translate(-2.998109 1)">
    <path d="m12.5 18v-15" fill="none" stroke="#000"/>
    <g fill-rule="evenodd">
      <path d="m10.5 4 2-3 2 3"/>
      <path d="m10.5 17 2 3 2-3"/>
    </g>
  </g>
  <path d="m0 5.5h24" fill="none" stroke="#f00" stroke-opacity=".164706"/>
  <path d="m18.826247 8.180069h-.838097v-4.6743251h-.87338s1.165429-2.3371626 1.165429-2.3371626h.546048z" transform="scale(1.1685813 .8557385)"/>
  <path d="m22 18h-.979384v-4h-1.020616s1.361899-2 1.361899-2h.638101z"/>
  <g fill="none" stroke="#000">
    <path d="m16 15.5h3"/>
    <path d="m16 3.5h3"/>
    <path d="m17.5 2v3"/>
  </g>
</svg>
