<svg height="24" width="24" xmlns="http://www.w3.org/2000/svg" xmlns:xlink="http://www.w3.org/1999/xlink">
  <linearGradient id="a">
    <stop offset="0" stop-color="#305080"/>
    <stop offset="1" stop-color="#5b79a4"/>
  </linearGradient>
  <linearGradient id="b" gradientUnits="userSpaceOnUse" x1="-.5" x2="17.99222" xlink:href="#a" y1="21.5" y2="21.5"/>
  <linearGradient id="c" gradientUnits="userSpaceOnUse" x1="23.273118" x2="20.36291" xlink:href="#a" y1="21.5" y2="21.5"/>
  <linearGradient id="d" gradientUnits="userSpaceOnUse" x1="15.27701206504" x2="6.99847412675" y1="20.53894052759" y2="8.71245730976">
    <stop offset="0" stop-color="#0e0f55"/>
    <stop offset="1" stop-color="#a5a6f1"/>
  </linearGradient>
  <linearGradient id="e" gradientUnits="userSpaceOnUse" x1="13.048836" x2="4.086309" y1="18.966317" y2="15.051063">
    <stop offset="0" stop-color="#705526"/>
    <stop offset="1" stop-color="#c69c59"/>
  </linearGradient>
  <linearGradient id="f" gradientUnits="userSpaceOnUse" x1="13.048836" x2="4.086309" y1="18.966317" y2="15.051063">
    <stop offset="0" stop-color="#f3c668"/>
    <stop offset="1" stop-color="#f9f398"/>
  </linearGradient>
  <g transform="matrix(0 -1 1 0 -17.5 24)">
    <path d="m0 21.5h21" fill="none" stroke="url(#b)" stroke-width="2"/>
    <path d="m18.86292 17.5 5 4-5 4" fill="url(#c)" fill-rule="evenodd"/>
  </g>
  <g transform="translate(0 -1.5)">
    <path d="m0 21.5h21" fill="none" stroke="url(#b)" stroke-width="2"/>
    <path d="m18.86292 17.5 5 4-5 4" fill="url(#c)" fill-rule="evenodd"/>
  </g>
  <rect fill="url(#f)" height="3.769373" ry="1.186501" stroke="url(#e)" stroke-linejoin="round" transform="matrix(.70710678 -.70710678 .70710678 .70710678 0 0)" width="11.176455" x="3.119175" y="14.628243"/>
  <g transform="translate(-1.042683)">
    <circle cx="9.152542" cy="15.406779" fill="#b9eeff" r="7.192111" stroke="url(#d)" stroke-width="1.7"/>
    <path d="m5.6550924 19.747515c-4.5822932-4.411439.0277239-11.719874 6.0339916-9.614086-4.6775749.247611-7.5334893 6.827709-6.0339916 9.614086z" fill="#42a5c9"/>
    <path d="m9.1525429 10.676187v9.461186" fill="none" stroke="#0e0f55" stroke-width="2.365"/>
    <path d="m4.4219499 15.40678h9.4611861" fill="none" stroke="#0e0f55" stroke-width="2.365"/>
    <g fill="#fff">
      <ellipse cx="-4.473101" cy="12.088474" rx="2.395521" ry=".845706" transform="matrix(.68323739 -.73019632 .70412203 .71007899 0 0)"/>
      <ellipse cx="-5.962112" cy="22.683292" rx="1.833892" ry=".649822" transform="matrix(.72828307 -.68527642 .74778228 .66394402 0 0)"/>
    </g>
  </g>
</svg>
