<svg height="24" width="24" xmlns="http://www.w3.org/2000/svg" xmlns:xlink="http://www.w3.org/1999/xlink">
  <linearGradient id="a">
    <stop offset="0" stop-color="#92b1de"/>
    <stop offset="1" stop-color="#525f96"/>
  </linearGradient>
  <linearGradient id="b">
    <stop offset="0" stop-color="#fdffff"/>
    <stop offset="1" stop-color="#b2d3fa"/>
  </linearGradient>
  <linearGradient id="c" gradientTransform="matrix(.79590474 0 0 .76501399 -20.795503 11.874302)" gradientUnits="userSpaceOnUse" x1="40.036739" x2="40.065495" xlink:href="#b" y1="21.035145" y2="45.060703"/>
  <linearGradient id="d" gradientTransform="matrix(.79590474 0 0 .76501399 -20.795503 11.874302)" gradientUnits="userSpaceOnUse" x1="30.733227" x2="48.908943" xlink:href="#a" y1="19.348246" y2="46.492016"/>
  <linearGradient id="e" gradientTransform="matrix(.79590474 0 0 .76501399 -18.795503 13.874302)" gradientUnits="userSpaceOnUse" x1="40.036739" x2="40.065495" xlink:href="#b" y1="21.035145" y2="45.060703"/>
  <linearGradient id="f" gradientTransform="matrix(.79590474 0 0 .76501399 -18.795503 13.874302)" gradientUnits="userSpaceOnUse" x1="30.733227" x2="48.908943" xlink:href="#a" y1="19.348246" y2="46.492016"/>
  <g stroke-linecap="round" transform="translate(0 -24)">
    <path d="m3.5 28.500002h19v19h-19z" fill="url(#e)" stroke="url(#f)" stroke-opacity=".691542"/>
    <path d="m1.5 26.500002h19v19h-19z" fill="url(#c)" stroke="url(#d)" stroke-opacity=".691542"/>
    <g fill="none">
      <g stroke="#000" stroke-opacity=".691542">
        <path d="m5.0143772 28.5c-1.1045696 0-2-.89543-2-2 0-1.104569.8954304-2 2-2 1.1045694 0 1.8977639.793195 2.0000003 1.514377"/>
        <path d="m11.014379 28.5c-1.104569 0-2-.89543-2-2 0-1.104569.895431-2 2-2 1.10457 0 1.897764.793195 2 1.514377"/>
        <path d="m17.014379 28.5c-1.104569 0-2-.89543-2-2 0-1.104569.895431-2 2-2 1.10457 0 1.897764.793195 2 1.514377"/>
      </g>
      <g stroke-width=".312036">
        <path d="m7.1565497 44v-14" stroke="#f00" stroke-opacity=".469697"/>
        <g stroke="#000">
          <path d="m4 32.846429h14" opacity=".517094"/>
          <path d="m4 36.861401h14" opacity=".517094"/>
          <path d="m4 40.861401h14" opacity=".517094"/>
        </g>
      </g>
    </g>
  </g>
</svg>
