<?xml version="1.0" encoding="UTF-8"?>
<svg width="24" height="24" version="1.1" xmlns="http://www.w3.org/2000/svg" xmlns:xlink="http://www.w3.org/1999/xlink">
 <defs>
  <linearGradient id="a-7" x1="5.47" x2="23.6" y1="14.2" y2="14.2" gradientUnits="userSpaceOnUse">
   <stop stop-color="#ffe168" offset="0"/>
   <stop stop-color="#e4dcd4" offset="1"/>
  </linearGradient>
  <linearGradient id="b" x1="19.9" x2="19.9" y1="18.1" y2="7.28" gradientTransform="matrix(.455 .801 -.788 .462 19.2 -4.31)" gradientUnits="userSpaceOnUse">
   <stop stop-color="#aa803b" offset="0"/>
   <stop stop-color="#ccb383" offset="1"/>
  </linearGradient>
  <linearGradient id="linearGradient12" x1="2.74" x2="11.2" y1="10.9" y2="11.5" gradientTransform="translate(.0292 -.0299)" gradientUnits="userSpaceOnUse">
   <stop stop-color="#fff" offset="0"/>
   <stop stop-color="#fff" stop-opacity="0" offset="1"/>
  </linearGradient>
 </defs>
 <path d="m1.25 7.77v-6.96l5.96 3.16z" fill="#b29175" fill-rule="evenodd" stroke="#725236" stroke-width=".5"/>
 <circle cx="7.13" cy="10.6" r="6.7" fill="#b08e71" stroke="#725236" stroke-width=".5"/>
 <path d="m6.4 15.5c-5.92-1.03-5.45-8.39-0.94-9.67" fill="none" stroke="url(#linearGradient12)" stroke-linecap="round" stroke-opacity=".28" stroke-width="1.47"/>
 <g transform="translate(1.08e-5 8.73e-5)" stroke-linejoin="round">
  <path d="m19.5 8.79h3.3e-5c-0.692-1.02-2.13-0.795-2.54-0.0567-0.362-0.518-1.94-0.866-2.72-0.179-0.787-0.418-2.33-0.23-2.87 0.132-1.52-1.53-2.38-4.05-4.1-2.61-0.561 0.511-0.4 1.53 0.793 2.8 1.2 1.28 5.55 8.11 5.55 8.11s-3.11-2.6-5.31-3.68c-1.57-0.764-2.87 0.511-2.66 1.14 0.29 0.858 0.873 1.02 2.24 1.53 1.26 0.473 1.94 2.45 2.97 3.36 1.57 1.39 5.84 4.11 5.84 4.11l6.71-3.93c-0.304-4.84-1.39-7.13-3.9-10.7z" fill="none" stroke="#000" stroke-opacity=".505" stroke-width="1.04"/>
  <path d="m19.4 8.66h3.2e-5c-0.668-0.986-2.15-0.61-2.45-0.0547 0.707 1.38 1.51 2.4 2.59 4.24 0 0-2.3-3.6-3.13-4.47-0.385-0.45-1.56-0.285-2.1 0.0508 1.12 1.93 2.01 3.49 3.31 5.52l-3.15-5.13c-0.623-1.02-2.4-0.61-2.93-0.261 1.59 2.27 2.86 4.26 4.32 6.44-1.65-2.39-3.88-6.07-6.09-8.55-0.787-0.882-1.42-1.11-2.19-0.411-0.541 0.493-0.386 1.47 0.765 2.7 1.16 1.23 5.35 7.82 5.35 7.82s-3-2.51-5.12-3.55c-1.51-0.738-2.77 0.493-2.56 1.1 0.28 0.828 0.842 0.98 2.16 1.48 1.21 0.457 1.87 2.36 2.87 3.24 1.52 1.34 5.63 3.96 5.63 3.96l6.47-3.8s-0.218-4.49-1.89-7.42c-0.746-1.36-1.87-2.92-1.87-2.92z" fill="url(#a-7)" fill-rule="evenodd" stroke="url(#b)"/>
 </g>
</svg>
