<?xml version="1.0" encoding="UTF-8"?>
<svg width="24" height="24" version="1.1" viewBox="0 0 24 24" xmlns="http://www.w3.org/2000/svg" xmlns:xlink="http://www.w3.org/1999/xlink">
 <defs>
  <linearGradient id="linearGradient20" x1="20" x2="10.1" y1="21" y2="8.84" gradientUnits="userSpaceOnUse">
   <stop stop-color="#707980" offset="0"/>
   <stop stop-color="#929aa1" offset="1"/>
  </linearGradient>
  <linearGradient id="linearGradient23" x1="21" x2="9.74" y1="19" y2="10.4" gradientUnits="userSpaceOnUse">
   <stop stop-color="#acb2b7" offset="0"/>
   <stop stop-color="#c5cacb" offset="1"/>
  </linearGradient>
 </defs>
 <linearGradient id="a">
  <stop stop-color="#725236" offset="0"/>
  <stop stop-color="#826044" offset="1"/>
 </linearGradient>
 <linearGradient id="b" x1="180" x2="76.7" y1="200" y2="143" gradientTransform="matrix(.0887 0 0 .0887 -5.84 -7.39)" gradientUnits="userSpaceOnUse" xlink:href="#a"/>
 <linearGradient id="c" x1="118" x2="70.9" y1="110" y2="106" gradientTransform="matrix(.0892 0 0 .0798 -5.87 -6.22)" gradientUnits="userSpaceOnUse" xlink:href="#a"/>
 <linearGradient id="d" x1="20.9" x2="61.5" y1="86.8" y2="86" gradientTransform="matrix(.095 0 0 .095 -.332 -.389)" gradientUnits="userSpaceOnUse">
  <stop stop-color="#fff" offset="0"/>
  <stop stop-color="#fff" stop-opacity="0" offset="1"/>
 </linearGradient>
 <path d="m0.377 6.18v-5.82l4.99 2.07z" fill="#b29175" fill-rule="evenodd" stroke="url(#c)" stroke-width=".475"/>
 <circle cx="5.51" cy="7.7" r="5.23" fill="#b08e71" stroke="url(#b)" stroke-width=".57"/>
 <path d="m7.66 21.2-3.09-9.79 8.62-6.39 7.51 3-6.71 1s-5 3.1-5 3.22c0 0.124-1.34 8.96-1.34 8.96z" fill="#fff"/>
 <path d="m4.79 11.8c-4.65-0.857-4.27-7.01-0.737-8.07" fill="none" stroke="url(#d)" stroke-linecap="round" stroke-opacity=".468" stroke-width="1.43"/>
 <path d="m13.7 6.32-7.41 5.35 1.82 9.65 8.58 2 6.75-5.5-1.39-8.98-8.36-2.52zm1.3 4.38a3.86 3.86 0 0 1 3.86 3.86 3.86 3.86 0 0 1-3.86 3.86 3.86 3.86 0 0 1-3.86-3.86 3.86 3.86 0 0 1 3.86-3.86z" fill="url(#linearGradient23)" stroke="url(#linearGradient20)" stroke-linecap="round" stroke-linejoin="round"/>
 <path d="m8.56 20.9-1.65-9.01 6.88-4.99 7.77 2.31-7.92-1.38-5.75 4.48z" fill="#fff" fill-opacity=".525"/>
 <path d="m15 19.1c3.47-0.267 4.51-2.81 4.51-4.39 0.0051-1.71-0.907-3.84-3.68-4.52 3.54 0.366 4.67 2.78 4.49 4.96-0.162 2-1.79 4.34-5.32 3.96z" fill="#fff" fill-opacity=".525"/>
</svg>
