<svg height="256" width="256" xmlns="http://www.w3.org/2000/svg" xmlns:xlink="http://www.w3.org/1999/xlink">
  <linearGradient id="a">
    <stop offset="0" stop-color="#463221"/>
    <stop offset="1" stop-color="#684d36"/>
  </linearGradient>
  <linearGradient id="b" gradientUnits="userSpaceOnUse" x1="184.833613" x2="65.384237" xlink:href="#a" y1="200.035529" y2="133.819943"/>
  <linearGradient id="c" gradientUnits="userSpaceOnUse" x1="113.8302" x2="61.328542" xlink:href="#a" y1="88.124106" y2="72.141031"/>
  <linearGradient id="d" gradientUnits="userSpaceOnUse" x1="200.491712" x2="136.091532" y1="41.981017" y2="14.846606">
    <stop offset="0" stop-color="#f00" stop-opacity=".708861"/>
    <stop offset="1" stop-color="#036e00" stop-opacity=".4"/>
  </linearGradient>
  <linearGradient id="e" gradientUnits="userSpaceOnUse" x1="79.353722" x2="112.9707" y1="166.54314" y2="167.10027">
    <stop offset="0" stop-color="#fff"/>
    <stop offset="1" stop-color="#fff" stop-opacity="0"/>
  </linearGradient>
  <path d="m4.9869785 90.593387c60.1996175-51.806041 146.2529715-78.234825 211.3741115-8.879561l33.27402-36.309291c-88.18788-71.274283-207.284049-39.3477171-244.6481315 45.188852z" fill="url(#d)"/>
  <path d="m219.37942 203.91065c-15.42703 39.02981-64.06917 56.04173-107.05389 38.64311-42.984718-17.39862-48.649844-136.77308-52.603347-181.906925l72.690277 30.19824c73.12425 2.100546 109.49969 56.058585 86.96696 113.065575z" fill="#6e6257" fill-opacity=".392405"/>
  <path d="m63.726837 136.54674-2.739954-73.522105 62.105637 34.706076z" fill="#a07959" fill-rule="evenodd" stroke="url(#c)" stroke-width="3"/>
  <circle cx="124.8806" cy="165.7861" fill="#a07959" r="68.333122" stroke="url(#b)" stroke-width="4"/>
  <path d="m117.06511 215.85105c-60.40008-10.46038-55.54385-85.55559-9.58574-98.60494" fill="none" stroke="url(#e)" stroke-linecap="round" stroke-opacity=".278481" stroke-width="15"/>
</svg>
