<svg height="256" width="256" xmlns="http://www.w3.org/2000/svg" xmlns:xlink="http://www.w3.org/1999/xlink">
  <linearGradient id="a">
    <stop offset="0" stop-color="#fff"/>
    <stop offset="1" stop-color="#fff" stop-opacity="0"/>
  </linearGradient>
  <linearGradient id="b">
    <stop offset="0" stop-color="#725236"/>
    <stop offset="1" stop-color="#826044"/>
  </linearGradient>
  <linearGradient id="c" gradientTransform="matrix(.9330052 0 0 .93300524 -57.931991 -73.654573)" gradientUnits="userSpaceOnUse" x1="179.71999" x2="76.673965" xlink:href="#b" y1="199.67673" y2="142.55418"/>
  <linearGradient id="d" gradientTransform="matrix(.93817422 0 0 .839491 -58.288916 -61.353679)" gradientUnits="userSpaceOnUse" x1="118.4671" x2="70.865715" xlink:href="#b" y1="110.17257" y2="105.76978"/>
  <linearGradient id="e" gradientTransform="matrix(3.4685429 8.1838191 -8.2732041 3.5064269 245.07484 -2.845926)" gradientUnits="userSpaceOnUse" x1="3.576698" x2="20.893307" y1="16.007038" y2="9.543611">
    <stop offset="0" stop-color="#f3c668"/>
    <stop offset="1" stop-color="#f9f398"/>
  </linearGradient>
  <linearGradient id="f" gradientUnits="userSpaceOnUse" x1="223.55429" x2="103.57833" y1="219.43105" y2="36.244999">
    <stop offset="0" stop-color="#c69c59"/>
    <stop offset="1" stop-color="#7d6642"/>
  </linearGradient>
  <linearGradient id="g" gradientUnits="userSpaceOnUse" x1="20.857927" x2="61.501271" xlink:href="#a" y1="86.813286" y2="86.025391"/>
  <linearGradient id="h" gradientUnits="userSpaceOnUse" x1="196.81285" x2="133.18478" xlink:href="#a" y1="111.10204" y2="145.069"/>
  <path d="m7.4544636 69.081936v-61.2453066l52.5018154 21.7858606z" fill="#b29175" fill-rule="evenodd" stroke="url(#d)" stroke-width="5"/>
  <circle cx="61.492683" cy="85.078156" fill="#b08e71" r="55" stroke="url(#c)" stroke-width="6"/>
  <path d="m53.89621 128.51009c-48.884183-9.01265-44.953844-73.714631-7.75812-84.95794" fill="none" stroke="url(#g)" stroke-linecap="round" stroke-opacity=".468354" stroke-width="15"/>
  <path d="m99.730265 33.87534c-52.049595 22.513499-41.427827 75.86698-41.031939 108.27354l40.182746 113.65414 87.456568.39396 60.66807-46.28895-74.85022-137.488028z" fill-opacity=".246835" fill-rule="evenodd"/>
  <g stroke-linejoin="round">
    <path d="m105.53906 34.978516c-29.626347 12.62104-37.398018 45.439649-22.561914 76.726604l62.800194 132.4355c2.98189 6.28832 12.34105 9.78073 19.88672 5.78907l76.54102-40.49024c9.69818-5.13034 12.05315-15.95435 7.27539-24.51562l-61.64453-110.460939c-27.30801-48.933269-56.08202-50.652097-82.29688-39.484375zm19.3418 24.865234c11.53178-.000878 20.88066 9.347125 20.88086 20.878906-.0002 11.531781-9.34908 20.879784-20.88086 20.878904-11.53102-.0002-20.87871-9.347885-20.87891-20.878904.0002-11.531019 9.34789-20.878707 20.87891-20.878906z" fill="url(#e)" fill-rule="evenodd" stroke="url(#f)" stroke-width="7"/>
    <path d="m90.119255 48.630903c42.152535-31.810068 72.796865-.742236 90.239995 30.750287l57.86939 104.47974c2.52742 4.56311 6.04693 13.97216-4.13991 19.38882l-40.01747 21.27853" fill="none" stroke="url(#h)" stroke-linecap="round" stroke-opacity=".802632" stroke-width="11.094586"/>
  </g>
</svg>
