<?xml version="1.0" encoding="UTF-8"?>
<svg width="24" height="24" version="1.1" xmlns="http://www.w3.org/2000/svg">
 <linearGradient id="a" x1="2.74" x2="11.2" y1="10.9" y2="11.5" gradientUnits="userSpaceOnUse">
  <stop stop-color="#fff" offset="0"/>
  <stop stop-color="#fff" stop-opacity="0" offset="1"/>
 </linearGradient>
 <linearGradient id="b" x1="109" x2="219" y1="210" y2="109" gradientUnits="userSpaceOnUse">
  <stop stop-color="#cd3232" offset="0"/>
  <stop stop-color="#e08e8e" offset="1"/>
 </linearGradient>
 <path d="m1.25 7.77v-6.96l5.96 3.16z" fill="#b29175" fill-rule="evenodd" stroke="#725236" stroke-width=".5"/>
 <circle cx="7.13" cy="10.6" r="6.7" fill="#b08e71" stroke="#725236" stroke-width=".5"/>
 <g fill="none" stroke="url(#a)" stroke-linecap="round" stroke-opacity=".28" stroke-width="1.47">
  <path d="m6.37 15.5c-5.92-1.03-5.45-8.39-0.94-9.67"/>
  <path d="m6.37 15.5c-5.92-1.03-5.45-8.39-0.94-9.67"/>
 </g>
 <path d="m6.47 18.1 4.14-4.02-5.63-5.59 3.46-3.38 5.6 5.53" fill="none" stroke="#fff" stroke-linecap="round" stroke-linejoin="round" stroke-width="1.1"/>
 <g transform="matrix(.1 0 0 .1 -2.47 -2.43)" stroke-linejoin="round">
  <path d="m192 164 55-55-27.5-27.5-55 55-55-55-27.5 27.5 55 55-55 55 27.5 27.5 55-55 55 55 27.5-27.5z" fill="url(#b)" fill-rule="evenodd" stroke="#661b1b" stroke-width="9.17"/>
  <path d="m100 219 45.8-45.8c9.17-9.17 0-18.3 0-18.3l-45.8-45.8" fill="none" stroke="#edbaba" stroke-linecap="round" stroke-width="13.8"/>
 </g>
</svg>
