<svg height="256" width="256" xmlns="http://www.w3.org/2000/svg" xmlns:xlink="http://www.w3.org/1999/xlink">
  <linearGradient id="a">
    <stop offset="0" stop-color="#725236"/>
    <stop offset="1" stop-color="#826044"/>
  </linearGradient>
  <linearGradient id="b" gradientTransform="matrix(.9330052 0 0 .93300524 -57.931991 -73.654573)" gradientUnits="userSpaceOnUse" x1="179.71999" x2="76.673965" xlink:href="#a" y1="199.67673" y2="142.55418"/>
  <linearGradient id="c" gradientTransform="matrix(.93817422 0 0 .839491 -58.288916 -61.353679)" gradientUnits="userSpaceOnUse" x1="118.4671" x2="70.865715" xlink:href="#a" y1="110.17257" y2="105.76978"/>
  <linearGradient id="d" gradientUnits="userSpaceOnUse" x1="20.857927" x2="61.501271" y1="86.813286" y2="86.025391">
    <stop offset="0" stop-color="#fff"/>
    <stop offset="1" stop-color="#fff" stop-opacity="0"/>
  </linearGradient>
  <linearGradient id="e" gradientTransform="matrix(15.075423 5.3205147 5.3201647 -15.076506 -876.065 388.89293)" gradientUnits="userSpaceOnUse" x1="58.532597" x2="52.474377" y1="34.038055" y2="37.619686">
    <stop offset="0" stop-color="#a1bbd9"/>
    <stop offset="1" stop-color="#b2d3fa"/>
  </linearGradient>
  <linearGradient id="f" gradientUnits="userSpaceOnUse" x1="76.263367" x2="211.66951" y1="98.003525" y2="218.15782">
    <stop offset="0" stop-color="#7595c4"/>
    <stop offset="1" stop-color="#5f6789"/>
  </linearGradient>
  <path d="m7.4544636 69.081936v-61.2453066l52.5018154 21.7858606z" fill="#b29175" fill-rule="evenodd" stroke="url(#c)" stroke-width="5"/>
  <circle cx="61.492683" cy="85.078156" fill="#b08e71" r="55" stroke="url(#b)" stroke-width="6"/>
  <path d="m53.89621 128.51009c-48.884183-9.01265-44.953844-73.714631-7.75812-84.95794" fill="none" stroke="url(#d)" stroke-linecap="round" stroke-opacity=".468354" stroke-width="15"/>
  <path d="m114.24414 45.630859-12.60547 43.728516-41.005521 1.935883-32.210254 41.480482 35.397417 22.3727 1.968955 10.04713-26.789267 32.49974 34.274776 39.19797 37.424444-23.04562 15.36523 41.03809h71.50091l2.40155-44.0098 51.57607-3.83426 4.45702-45.52971-53.11592-19.3623zm31.3201 75.245021c17.57297.00074 26.58969 14.44454 26.59072 27.96924.001 13.13152-11.38994 24.67476-25.80282 24.42566-13.63865-.23572-24.7408-12.13993-26.19871-24.03171-2.03914-16.63259 11.77657-28.36376 25.41081-28.36319z" fill="#595a62" fill-opacity=".392405" fill-rule="evenodd"/>
  <path d="m149.55273 41.189453-33.07031 6.453125 2.61328 43.800781c-5.13935 3.316151-9.91723 7.210329-13.95508 11.945311l-43.330073-9.878904-11.017578 32.218754 39.986328 20.64453c.145757 8.02318.965265 10.10816 3.169921 17.27539l-30.0625 32.24609 22.091797 25.26563 35.878905-23.27149c5.36718 3.3709 11.65607 5.52627 18.50391 6.93945l12.88476 40.58985-.002.008 32.57422-6.49219-1.69531-42.72656c5.35965-3.25267 10.2496-7.12668 14.45312-11.90625l42.41016 8.80274 11.51758-32.17969-39.14649-18.57227c-.13107-6.75121-1.84452-13.1019-4.00976-19.35351l29.10356-32.820506-21.59179-25.230468-35.45899 24.310546c-5.76296-3.543729-11.89029-5.292857-18.04297-6.40625zm.73829 67.474607c18.81966.00021 34.07596 15.25651 34.07617 34.07617-.0002 18.81967-15.2565 34.07597-34.07617 34.07618-18.81967-.0002-34.07598-15.25651-34.07618-34.07618.00021-18.81967 15.25651-34.07597 34.07618-34.07617z" fill="url(#e)" stroke="url(#f)" stroke-linejoin="round" stroke-width="7"/>
</svg>
