<svg height="256" width="256" xmlns="http://www.w3.org/2000/svg" xmlns:xlink="http://www.w3.org/1999/xlink">
  <linearGradient id="a">
    <stop offset="0" stop-color="#725236"/>
    <stop offset="1" stop-color="#826044"/>
  </linearGradient>
  <linearGradient id="b" gradientUnits="userSpaceOnUse" x1="142.72044669215" x2="23.27107111634" xlink:href="#a" y1="146.55130836203" y2="80.33572237705"/>
  <linearGradient id="c" gradientUnits="userSpaceOnUse" x1="71.71703377337" x2="19.21537596558" xlink:href="#a" y1="34.6398848493" y2="18.65680973202"/>
  <linearGradient id="d" gradientUnits="userSpaceOnUse" x1="37.240556" x2="70.857534" y1="113.058919" y2="113.616049">
    <stop offset="0" stop-color="#fff"/>
    <stop offset="1" stop-color="#fff" stop-opacity="0"/>
  </linearGradient>
  <linearGradient id="e" gradientUnits="userSpaceOnUse" x1="109.2609206" x2="219.292109" y1="209.6623363" y2="108.8004136">
    <stop offset="0" stop-color="#cd3232"/>
    <stop offset="1" stop-color="#e08e8e"/>
  </linearGradient>
  <path d="m21.613671 83.062519-2.739954-73.5221052 62.105637 34.7060762z" fill="#b29175" fill-rule="evenodd" stroke="url(#c)" stroke-width="3"/>
  <circle cx="82.767433" cy="112.30188" fill="#b08e71" r="68.333122" stroke="url(#b)" stroke-width="4"/>
  <path d="m74.951944 162.36683c-60.40008-10.46038-55.54385-85.555591-9.58574-98.604941" fill="none" stroke="url(#d)" stroke-linecap="round" stroke-opacity=".278481" stroke-width="15"/>
  <g stroke-linejoin="round">
    <path d="m191.78432 163.81605 55.0156-55.01559-27.5078-27.507792-55.01559 55.015582-55.01559-55.015582-27.507805 27.507792 55.015595 55.01559-55.015595 55.01559 27.507805 27.5078 55.01559-55.0156 55.01559 55.0156 27.5078-27.5078z" fill="url(#e)" fill-rule="evenodd" stroke="#661b1b" stroke-width="9.169266"/>
    <path d="m100.09167 218.83164 45.84633-45.84633c9.16926-9.16926 0-18.33853 0-18.33853l-45.84633-45.84632" fill="none" stroke="#edbaba" stroke-linecap="round" stroke-width="13.753899"/>
  </g>
</svg>
