<?xml version="1.0" encoding="UTF-8"?>
<svg width="24" height="24" version="1.1" viewBox="0 0 24 24" xmlns="http://www.w3.org/2000/svg" xmlns:xlink="http://www.w3.org/1999/xlink">
 <linearGradient id="b" x1="185" x2="65.4" y1="200" y2="134" gradientTransform="matrix(.0953 0 0 .0953 .0949 .196)" gradientUnits="userSpaceOnUse">
  <stop stop-color="#745336" offset="0"/>
  <stop stop-color="#9f7753" offset="1"/>
 </linearGradient>
 <linearGradient id="d" x1="200" x2="136" y1="42" y2="14.8" gradientTransform="matrix(.0981 0 0 .0981 -.489 -.597)" gradientUnits="userSpaceOnUse">
  <stop stop-color="#f00" stop-opacity=".709" offset="0"/>
  <stop stop-color="#036e00" stop-opacity=".4" offset="1"/>
 </linearGradient>
 <linearGradient id="e" x1="89.8" x2="113" y1="167" y2="167" gradientTransform="matrix(.0981 0 0 .0981 -.0301 -.279)" gradientUnits="userSpaceOnUse">
  <stop stop-color="#fff" offset="0"/>
  <stop stop-color="#fff" stop-opacity="0" offset="1"/>
 </linearGradient>
 <path d="m0 8.29c5.91-5.08 14.3-7.67 20.7-0.871l3.26-3.56c-8.65-6.99-20.3-3.86-24 4.43z" fill="url(#d)" stroke-width=".0981"/>
 <path d="m21 19.4c-1.51 3.83-6.29 5.5-10.5 3.79-4.22-1.71-4.1-13.4-4.49-17.8l7.31 2.61c7.24 0.453 9.89 5.85 7.68 11.4z" fill="#6e6257" fill-opacity=".392" stroke-width=".0981"/>
 <path d="m6.66 13.2-0.269-7.21 6.09 3.4z" fill="#a88263" fill-rule="evenodd" stroke="#9f7753" stroke-width=".75"/>
 <circle cx="12" cy="16" r="6.51" fill="#a88263" stroke="url(#b)" stroke-width=".972"/>
 <path d="m11.5 20.9c-5.93-1.03-5.45-8.39-0.94-9.67" fill="none" stroke="url(#e)" stroke-linecap="round" stroke-opacity=".278" stroke-width="1.47"/>
</svg>
