<svg height="24" width="24" xmlns="http://www.w3.org/2000/svg" xmlns:xlink="http://www.w3.org/1999/xlink">
<linearGradient id="a" gradientUnits="userSpaceOnUse" x1="2.744" x2="11.244" y1="10.936" y2="11.548">
<stop offset="0" stop-color="#fff"/>
<stop offset="1" stop-color="#fff" stop-opacity="0"/>
</linearGradient>
<linearGradient id="b" gradientUnits="userSpaceOnUse" x1="109.26" x2="219.29" y1="209.66" y2="108.8">
<stop offset="0" stop-color="#cd3232"/>
<stop offset="1" stop-color="#e08e8e"/>
</linearGradient>
<g>
<path d="m1.25 7.77v-6.96l5.96 3.16z" fill="#b29175" fill-rule="evenodd" stroke="#725236" stroke-width=".5"/>
<circle cx="7.13" cy="10.63" fill="#b08e71" r="6.7" stroke="#725236" stroke-width=".5"/>
<g fill="none" stroke="url(#a)" stroke-linecap="round" stroke-opacity=".28" stroke-width="1.47">
<path d="m6.37 15.54c-5.92-1.03-5.45-8.39-.94-9.67"/>
<path d="m6.37 15.54c-5.92-1.03-5.45-8.39-.94-9.67"/>
</g>
</g>
<g stroke-linejoin="round" transform="matrix(.1 0 0 .1 -2.47 -2.43)">
<path d="m191.78 163.82 55.02-55.02-27.51-27.51-55.02 55.02-55.02-55.02-27.51 27.51 55.02 55.02-55.02 55.02 27.51 27.51 55.02-55.02 55.02 55.02 27.51-27.51z" fill="url(#b)" fill-rule="evenodd" stroke="#661b1b" stroke-width="9.17"/>
<path d="m100.09 218.83 45.85-45.84c9.17-9.17 0-18.34 0-18.34l-45.85-45.85" fill="none" stroke="#edbaba" stroke-linecap="round" stroke-width="13.75"/>
</g>
</svg>
