<?xml version="1.0" encoding="UTF-8"?>
<svg width="24" height="24" version="1.1" viewBox="0 0 24 24" xmlns="http://www.w3.org/2000/svg" xmlns:xlink="http://www.w3.org/1999/xlink">
 <defs>
  <linearGradient id="linearGradient11" x1="8.91" x2="21.9" y1="10.8" y2="19.7" gradientTransform="matrix(1.07 0 0 1.07 -1.56 -1.52)" gradientUnits="userSpaceOnUse">
   <stop stop-color="#ffc57d" offset="0"/>
   <stop stop-color="#ff940f" offset="1"/>
  </linearGradient>
  <linearGradient id="linearGradient9" x1="20.2" x2="10" y1="22.2" y2="8.22" gradientTransform="matrix(1.07 0 0 1.07 -1.56 -1.52)" gradientUnits="userSpaceOnUse">
   <stop stop-color="#c67000" offset="0"/>
   <stop stop-color="#ff9514" offset="1"/>
  </linearGradient>
 </defs>
 <linearGradient id="a">
  <stop stop-color="#725236" offset="0"/>
  <stop stop-color="#826044" offset="1"/>
 </linearGradient>
 <linearGradient id="b" x1="180" x2="76.7" y1="200" y2="143" gradientTransform="matrix(.089 0 0 .089 -5.86 -7.43)" gradientUnits="userSpaceOnUse" xlink:href="#a"/>
 <linearGradient id="c" x1="118" x2="70.9" y1="110" y2="106" gradientTransform="matrix(.0895 0 0 .08 -5.9 -6.25)" gradientUnits="userSpaceOnUse" xlink:href="#a"/>
 <linearGradient id="d" x1="20.9" x2="61.5" y1="86.8" y2="86" gradientTransform="matrix(.0954 0 0 .0954 -.334 -.396)" gradientUnits="userSpaceOnUse">
  <stop stop-color="#fff" offset="0"/>
  <stop stop-color="#fff" stop-opacity="0" offset="1"/>
 </linearGradient>
 <path d="m0.377 6.2v-5.84l5.01 2.08z" fill="#b29175" fill-rule="evenodd" stroke="url(#c)" stroke-width=".477"/>
 <circle cx="5.53" cy="7.72" r="5.25" fill="#b08e71" stroke="url(#b)" stroke-width=".572"/>
 <g stroke-linecap="round">
  <path d="m4.81 11.9c-4.66-0.859-4.29-7.03-0.74-8.11" fill="none" stroke="url(#d)" stroke-opacity=".468" stroke-width="1.43"/>
  <path d="m11.2 6.17-4.93 4.93v6.97l4.93 4.93h6.97l4.93-4.93v-6.97l-4.93-4.93z" fill="none" stroke="#fff" stroke-linejoin="round" stroke-width="1.77"/>
  <path d="m11.2 6.49-4.69 4.69v6.63l4.69 4.69h6.63l4.69-4.69v-6.63l-4.69-4.69z" fill="url(#linearGradient11)" stroke="url(#linearGradient9)" stroke-linejoin="round" stroke-width=".982"/>
  <g transform="matrix(.642 -.642 .642 .642 -.569 12.5)" stroke-width="3.01">
   <path d="m8.31 14.3 4.68-6.02 2.67 2.67-6.02 4.68z" fill="none"/>
   <path d="m8.98 13.7 3.63-4.97c1.71-2.3 4.96 0.946 2.67 2.67l-4.97 3.63c-1.07 0.794-2.08-0.398-1.34-1.34z" fill="#fff"/>
   <circle transform="rotate(45)" cx="17" cy="7.57" r="1.89" fill="#fff"/>
  </g>
 </g>
</svg>
