<svg height="24" width="24" xmlns="http://www.w3.org/2000/svg" xmlns:xlink="http://www.w3.org/1999/xlink">
<linearGradient id="a" gradientUnits="userSpaceOnUse" x1="9.97" x2="18.81" y1="15.54" y2="18.69">
<stop offset="0" stop-color="#efff7c"/>
<stop offset="1" stop-color="#f7d709"/>
</linearGradient>
<linearGradient id="b" gradientUnits="userSpaceOnUse" x1="17.65" x2="20.72" xlink:href="#d" y1="9.22" y2="9.88"/>
<linearGradient id="c" gradientUnits="userSpaceOnUse" x1="15.52" x2="19.86" xlink:href="#d" y1="13" y2="14.68"/>
<linearGradient id="d">
<stop offset="0" stop-color="#d2d2dd"/>
<stop offset="1" stop-color="#a3aab7"/>
</linearGradient>
<linearGradient id="e">
<stop offset="0" stop-color="#cf9a01"/>
<stop offset="1" stop-color="#ddb138"/>
</linearGradient>
<linearGradient id="f" gradientTransform="matrix(.84 0 0 .94 1.23 .21)" gradientUnits="userSpaceOnUse" x1="3" x2="18" y1="18" y2="5">
<stop offset="0" stop-color="#5a441f"/>
<stop offset="1" stop-color="#c69c59"/>
</linearGradient>
<linearGradient id="g" gradientTransform="matrix(.84 0 0 .94 1.23 .21)" gradientUnits="userSpaceOnUse" x1="18" x2="3" y1="18" y2="5">
<stop offset="0" stop-color="#f3c668"/>
<stop offset="1" stop-color="#f9f398"/>
</linearGradient>
<linearGradient id="h" gradientUnits="userSpaceOnUse" x1="5" x2="15" xlink:href="#e" y1="3.51" y2="3.51"/>
<linearGradient id="i" gradientTransform="matrix(1 0 0 .91 -1 .74)" gradientUnits="userSpaceOnUse" x1="15" x2="6" xlink:href="#e" y1="17" y2="8"/>
<linearGradient id="j" gradientUnits="userSpaceOnUse" x1="5" x2="15" y1="3.51" y2="3.51">
<stop offset="0" stop-color="#5a441f"/>
<stop offset="1" stop-color="#a47c38"/>
</linearGradient>
<g stroke-linejoin="round">
<rect height="15.2" rx=".64" ry=".56" style="fill-rule:evenodd;stroke-width:1.2;stroke-linecap:square;stroke-dashoffset:21.44;fill:url(#g);stroke:url(#f)" width="15.2" x="2.4" y="3.4"/>
<path d="m5.5 5.51h9l-2-2v-2h-5v2z" fill="url(#h)" fill-rule="evenodd" stroke="url(#j)"/>
<g stroke-linecap="round" stroke-width=".6">
<path d="m12.29 5h-5.49l1.16-1v-2" fill="none" stroke="#fffbab"/>
<path d="m4 7.1h11v10h-11z" fill="url(#i)" fill-rule="evenodd" opacity=".5" stroke="#fffffd" stroke-dashoffset="21.44"/>
</g>
<path d="m18.16 6.07c-2.22 5.02-6.4 7.5-10.08 7.73-3.94.44-2.71 3.84-1.69 5.21-.6 0-1.26-.01-2.32.2-1.46.29-2.29 1.67.21 2.52 2.11.72 8.15 1.66 14.72 1.04 1.47-2.25 2.62-6.16 2.43-9.18.65-1.61 1.09-5.3.95-6.64l-2.86.23c-1.32 2.98-3.07 5.29-5.05 7.05l5.55-8.15z" fill="#4a5e65" fill-opacity=".35" stroke-width=".75"/>
<path d="m13.61 13.58c-2.09 1.7-4.04 1.9-6.09 2.15 1.6 3.12 5.67 5.56 10.03 6.09 1.25-1.79 1.93-3.33 2.69-5.81" fill="url(#a)" fill-rule="evenodd" stroke="#ebcd08" stroke-width=".75"/>
</g>
<path d="m16.21 11.69c1.11-2.25 1.38-3.59 1.99-5.17.45-1.18 4.01-.51 3.92.6-.1 1.32-1.03 4.33-1.89 5.92" fill="url(#b)" fill-rule="evenodd" stroke="#545f88" stroke-width=".6"/>
<path d="m17.52 11.17c.53-1.09 1.15-2.94 1.53-4.09" fill="none" stroke="#fff" stroke-linecap="round" stroke-opacity=".52"/>
<path d="m14.84 14.63c-.61.67-2.34 1.82-4.04 2.25m5.46-1.55c-.78 1.15-2.19 2.33-3.57 3.02m5.39-2.44c-.54 1.02-1.17 2.18-2.94 3.52" fill="none" stroke="#cbb107" stroke-linecap="round" stroke-width=".4"/>
<path d="m13.04 13.51c1.68 1.31 4.65 2.27 7.28 2.74.36-1.26.39-2.05-.07-3.26l-4.14-1.27c-1.29.29-1.73.86-3.07 1.8z" fill="url(#c)" fill-rule="evenodd" stroke="#545f88" stroke-linejoin="round" stroke-width=".6"/>
</svg>
