<svg height="24" width="24" xmlns="http://www.w3.org/2000/svg" xmlns:xlink="http://www.w3.org/1999/xlink">
  <linearGradient id="a">
    <stop offset="0" stop-color="#cf9a01"/>
    <stop offset="1" stop-color="#ddb138"/>
  </linearGradient>
  <linearGradient id="b">
    <stop offset="0" stop-color="#818eaf"/>
    <stop offset="1" stop-color="#818eaf" stop-opacity="0"/>
  </linearGradient>
  <linearGradient id="c">
    <stop offset="0" stop-color="#fdffff"/>
    <stop offset="1" stop-color="#b2d3fa"/>
  </linearGradient>
  <linearGradient id="d">
    <stop offset="0" stop-color="#92b1de"/>
    <stop offset="1" stop-color="#525f96"/>
  </linearGradient>
  <linearGradient id="e" gradientTransform="matrix(.8351649 0 0 .9382716 1.230769 .209876)" gradientUnits="userSpaceOnUse" x1="3" x2="18" y1="18" y2="5">
    <stop offset="0" stop-color="#5a441f"/>
    <stop offset="1" stop-color="#c69c59"/>
  </linearGradient>
  <linearGradient id="f" gradientTransform="matrix(.8351649 0 0 .9382716 1.230769 .209876)" gradientUnits="userSpaceOnUse" x1="18" x2="3" y1="18" y2="5">
    <stop offset="0" stop-color="#f3c668"/>
    <stop offset="1" stop-color="#f9f398"/>
  </linearGradient>
  <linearGradient id="g" gradientUnits="userSpaceOnUse" x1="5" x2="15" xlink:href="#a" y1="3.511182" y2="3.511182"/>
  <linearGradient id="h" gradientTransform="matrix(1 0 0 .9090909 -1 .736364)" gradientUnits="userSpaceOnUse" x1="15" x2="6" xlink:href="#a" y1="17" y2="8"/>
  <linearGradient id="i" gradientUnits="userSpaceOnUse" x1="15.999558" x2="12.799558" xlink:href="#d" y1="12" y2="15.2"/>
  <linearGradient id="j" gradientUnits="userSpaceOnUse" x1="15" x2="17" xlink:href="#c" y1="14" y2="11"/>
  <linearGradient id="k" gradientUnits="userSpaceOnUse" x1="10.499559" x2="17.499559" xlink:href="#b" y1="15.5" y2="15.5"/>
  <linearGradient id="l" gradientUnits="userSpaceOnUse" x1="10.499559" x2="17.499559" xlink:href="#b" y1="13.5" y2="13.5"/>
  <linearGradient id="m" gradientUnits="userSpaceOnUse" x1="10.499559" x2="17.499559" xlink:href="#b" y1="17.5" y2="17.5"/>
  <linearGradient id="n" gradientUnits="userSpaceOnUse" x1="10.499559" x2="17.499559" xlink:href="#b" y1="19.5" y2="19.5"/>
  <linearGradient id="o" gradientUnits="userSpaceOnUse" x1="10.499559" x2="17.499559" xlink:href="#b" y1="11.5" y2="11.5"/>
  <linearGradient id="p" gradientTransform="matrix(1.0117647 0 0 .9079799 2.352501 6.58404)" gradientUnits="userSpaceOnUse" x1="6.569767" x2="16.453487" xlink:href="#c" y1="2.660808" y2="16.978306"/>
  <linearGradient id="q" gradientTransform="matrix(1.0117647 0 0 .9079799 2.352501 6.58404)" gradientUnits="userSpaceOnUse" x1="15.465116" x2="6.569767" xlink:href="#d" y1="7.066192" y2="16.978306"/>
  <linearGradient id="r" gradientUnits="userSpaceOnUse" x1="5" x2="15" y1="3.511182" y2="3.511182">
    <stop offset="0" stop-color="#5a441f"/>
    <stop offset="1" stop-color="#a47c38"/>
  </linearGradient>
  <g stroke-linejoin="round">
    <rect height="15.200001" rx=".642254" ry=".562963" style="fill-rule:evenodd;stroke-width:1.2;stroke-linecap:square;stroke-dashoffset:21.443998;fill:url(#f);stroke:url(#e)" width="15.200001" x="2.4" y="3.399999"/>
    <path d="m5.5 5.511182h9l-2-2v-2h-5v2z" fill="url(#g)" fill-rule="evenodd" stroke="url(#r)"/>
    <path d="m12.288818 5h-5.488818l1.1565496-1v-2" fill="none" stroke="#fffbab" stroke-linecap="round" stroke-width=".6"/>
    <path d="m4 7.1h11v10h-11z" style="opacity:.5;fill-rule:evenodd;stroke:#fffffd;stroke-width:.6;stroke-linecap:round;stroke-dashoffset:21.443998;fill:url(#h)"/>
  </g>
  <g>
    <path d="m7.974 18v-9.6421726h6.792332l5.744409 5.6421726" fill="none" opacity=".5" stroke="#000" stroke-linecap="round" stroke-linejoin="round"/>
    <path d="m20.6 14.584809v7.015191h-12.200441v-13h6.000441" style="fill-rule:evenodd;stroke-width:1.2;stroke-linecap:round;stroke-linejoin:round;stroke-dashoffset:21.443998;fill:url(#p);stroke:url(#q)"/>
    <g fill="none">
      <path d="m10.999559 11.5h6" stroke="url(#o)" stroke-linecap="square"/>
      <path d="m10.999559 19.5h6" stroke="url(#n)" stroke-linecap="square"/>
      <path d="m10.999559 17.5h6" stroke="url(#m)" stroke-linecap="square"/>
      <path d="m10.999559 13.5h6" stroke="url(#l)" stroke-linecap="square"/>
      <path d="m10.999559 15.5h6" stroke="url(#k)" stroke-linecap="square"/>
    </g>
    <path d="m20.945246 14.099999h-6.048882v-5.8578265" fill="url(#j)" fill-rule="evenodd"/>
    <path d="m20.6 14.599999h-6.2v-5.999999" fill="none" stroke="url(#i)" stroke-linecap="round" stroke-linejoin="round" stroke-width="1.2"/>
  </g>
</svg>
