<svg height="24" width="24" xmlns="http://www.w3.org/2000/svg">
  <g fill="none">
    <path d="m3.661017 20.440678 20.338983-15.9661017" stroke="#868686" stroke-linecap="round"/>
    <path d="m15.304894 11.191199a15.101695 15.101695 0 0 1 3.20338 9.378277" stroke="#868686" stroke-linejoin="round"/>
    <path d="m17.668493 9.3436585a18.101696 18.101696 0 0 1 3.839742 11.2413025" stroke="#868686" stroke-linejoin="round"/>
    <path d="m4.000001 11.305082c8.802697.26229 13.999999-2.999997 18.999999-7.999997" stroke="#00a529" stroke-linecap="round" stroke-width="1.5"/>
  </g>
  <path d="m15.261156 1.0136215v.4784791l-.902084.1595523-3.307641 7.9346568h-.312968l-3.3444606-7.9346568-.9266304-.1595523v-.4784791h3.326051v.4784791l-1.1045926.1595523 2.4914696 6.0568494 2.485334-6.0568494-1.080046-.1595523v-.4784791z" transform="scale(1.0654965 .93852957)"/>
  <g fill="none" stroke="#182e6d">
    <path d="m0 19.5h24" transform="translate(0 1)"/>
    <g transform="matrix(0 -1 1 0 -16 24)">
      <path d="m0 19.5h23"/>
      <path d="m20 17 3 2.5-3 2.5" stroke-linecap="round"/>
    </g>
  </g>
</svg>
