<svg height="24" width="24" xmlns="http://www.w3.org/2000/svg">
  <path d="m7.1529781 10.110748h.5705957l.3072439 1.58889c2.1908313.825416 5.3220183 1.327485 5.2933723-1.316755-.042393-3.9132161-6.1979016-1.6386427-6.1887686-6.0044267.0084149-4.02249872 4.7584246-3.0768329 7.0666076-2.6247402v2.4491723h-.570595l-.307244-1.4396569c-1.534249-.880607-4.7129203-1.5699585-4.7139983 1.1499698-.0015 3.7889978 6.1621023 1.5693675 6.2063253 5.9693087.04275 4.252864-5.1572007 3.784986-7.6635389 2.949541z" transform="scale(1.1328754 .8827096)"/>
  <g fill="none">
    <path d="m4 17.000267c8.802697.26229 13.999999-3 18.999999-7.9999992" stroke="#ff0005" stroke-linecap="round" stroke-width="1.5"/>
    <g stroke="#182e6d">
      <g transform="translate(0 1)">
        <path d="m0 19.5h23"/>
        <path d="m20 17 3 2.5-3 2.5" stroke-linecap="round"/>
      </g>
      <g transform="matrix(0 -1 1 0 -16 24)">
        <path d="m0 19.5h23"/>
        <path d="m20 17 3 2.5-3 2.5" stroke-linecap="round"/>
      </g>
    </g>
  </g>
</svg>
