<svg height="24" width="24" xmlns="http://www.w3.org/2000/svg">
  <path d="m5 0c.3889246 8.1174473.7825075 18 4 18 5 0 14-10 14-10" fill="none" stroke="#0062ff" stroke-linecap="round" stroke-width="1.5"/>
  <path d="m10.117259 8.0433661v4.5796999l1.830077.243409v.477803h-5.003412v-.477803l1.4334099-.243409v-10.6559157l-1.5506069-.234394v-.5499306c1.0090883-.018705 2.6417251-.040921 4.279744 0 2.66352.06654 5.341271.6093141 5.375489 3.2995534.02446 1.9232569-1.171482 2.7776041-2.479168 3.3085626l3.272502 4.8321243 1.307198.243409v.477803h-2.893866l-3.398714-5.3009119zm4.570685-3.4347748c-.042214-2.9513444-2.643508-2.5422742-4.570685-2.5422742v5.1656849c2.121745.075834 4.61103.1972849 4.570685-2.6234107z" transform="matrix(1.1120232 0 0 .89926181 0 -.143818)"/>
  <g fill="none" stroke="#182e6d">
    <g transform="translate(0 1)">
      <path d="m0 19.5h23"/>
      <path d="m20 17 3 2.5-3 2.5" stroke-linecap="round"/>
    </g>
    <g transform="matrix(0 -1 1 0 -16 24)">
      <path d="m0 19.5h23"/>
      <path d="m20 17 3 2.5-3 2.5" stroke-linecap="round"/>
    </g>
  </g>
</svg>
