<svg height="24" width="24" xmlns="http://www.w3.org/2000/svg">
  <path d="m9.3288652 13.345381v-.477764l1.9200698-.243389v-10.5919341c-1.233233-.0180277-2.3758137.026715-3.5787215.1802878l-.2433891 1.884012h-.6039656v-2.8395397h10.6370062v2.8395397h-.61298l-.243389-1.884012c-1.20401-.1541495-2.38762-.1619507-3.61478-.16226v10.5739053l1.92007.243389v.477764z" transform="scale(1.1121151 .8991875)"/>
  <g fill="none">
    <path d="m4.000001 17c8.802697.26229 13.999999-3 18.999999-8" stroke="#008107" stroke-linecap="round" stroke-width="1.5"/>
    <g stroke="#182e6d">
      <g transform="translate(0 1)">
        <path d="m0 19.5h23"/>
        <path d="m20 17 3 2.5-3 2.5" stroke-linecap="round"/>
      </g>
      <g transform="matrix(0 -1 1 0 -16 24)">
        <path d="m0 19.5h23"/>
        <path d="m20 17 3 2.5-3 2.5" stroke-linecap="round"/>
      </g>
    </g>
  </g>
</svg>
