<svg height="24" width="24" xmlns="http://www.w3.org/2000/svg">
  <path d="m4.0111821 15.990455c8.8026969.26229 13.9888179-2.990455 18.9888179-8.990455" fill="none" stroke="#ff4300" stroke-linecap="round" stroke-width="1.5"/>
  <path d="m12.71547 8.1177516c-.527123 1.1996456-1.332944 1.7994677-2.417467 1.7994679-.7573553-.0000002-1.4526036-.3498964-2.0857474-1.0496896-.6331471-.6997916-.9497199-1.7070685-.9497192-3.0218338-.0000007-1.0784641.1893371-1.9585061.5680139-2.6401285.3786742-.6816095.8739818-1.2041817 1.4859242-1.5677183.611937-.3635205 1.4268465-.5452847 2.4447315-.5452933v.3362642c-.896709.0000082-1.593472.3695956-2.0902908 1.1087631-.4968254.7391818-.7452365 1.7873556-.7452342 3.1445248-.0000023 1.3753535.1620708 2.3174982.4862199 2.826437.3241434.5089411.7073631.763411 1.1496601.7634106 1.93319-.616632 1.687496-2.4827973 1.32688-4.5713756-.000005-1.3511093.275671-2.0266665.827029-2.0266735.551345.000007.827021.6240643.827028 1.8721737-.396598 2.2133163-.914348 3.9202555 1.272351 4.7258754.454402.0000004.84671-.2378078 1.176925-.7134254.330195-.4756153.495298-1.3738337.495308-2.6946578-.00001-1.1026993-.107554-1.9463884-.322632-2.5310698-.215098-.5846687-.5347-1.0421087-.958808-1.3723215-.424125-.3301974-.942153-.5074175-1.554086-.531661v-.3362642c1.017873.0000086 1.832783.1848022 2.444732.5543815.61193.3695954 1.105723.8906529 1.48138 1.5631742.375635.6725342.563458 1.5419732.56347 2.6083197-.000012 1.3329417-.304467 2.3493069-.913366 3.0490985-.608921.6997932-1.319316 1.0496894-2.131188 1.0496896-1.11483-.0000002-1.908534-.5998223-2.381114-1.7994679z" transform="scale(1.103083 .9065501)"/>
  <g fill="none" stroke="#182e6d">
    <g transform="translate(0 1)">
      <path d="m0 19.5h23"/>
      <path d="m20 17 3 2.5-3 2.5" stroke-linecap="round"/>
    </g>
    <g transform="matrix(0 -1 1 0 -16 24)">
      <path d="m0 19.5h23"/>
      <path d="m20 17 3 2.5-3 2.5" stroke-linecap="round"/>
    </g>
  </g>
</svg>
