<?xml version="1.0" encoding="UTF-8"?>
<svg width="24" height="24" version="1.1" xmlns="http://www.w3.org/2000/svg">
 <g fill="none" stroke="#182e6d">
  <g transform="translate(0 1)">
   <path d="m0 19.5h23"/>
   <path d="m20 17 3 2.5-3 2.5" stroke-linecap="round"/>
  </g>
  <g transform="matrix(0 -1 1 0 -16 24)">
   <path d="m0 19.5h23"/>
   <path d="m20 17 3 2.5-3 2.5" stroke-linecap="round"/>
  </g>
 </g>
 <g transform="matrix(.141 0 0 .141 12.7 6.47)" stroke-width="7.11">
  <path d="m-19.5-33.4v15.9c-14.2 0-28.5 7.11-28.4 35.6-0.05 21.3 7.06 35.6 28.4 35.6 0 21.3 14.2 28.5 35.6 28.5s35.6-2.86 35.6-21.3v-7.11c14.2 0 28.5 0 28.5-35.6 0-27.4-10.6-35.6-28.5-35.6v-14.2c0-7.11-13.1-13.8-35.6-14.2s-35.6 5.4-35.6 12.6z" fill="#fff"/>
  <path d="m-12.4 60.7v-28.5c0.7-11.1 9.58-10.5 14.2-10.4 0 0 22.3 0.02 33.7-0.68 6.56-0.89 16.1-6.82 16.1-13.4v-18.3c17.5 0 21.3 14.2 21.3 28.5s-4.08 28.5-14.2 28.5h-42.7v7.11h28.5v10.6c0 7.16-14.2 10.8-28.5 10.8-20.3-0.74-28.5-7.11-28.5-14.2z" fill="#fed142"/>
  <path d="m44.8-28.6 0.04 14.8c0.16 14.9 1.62 25.8-14.6 28.3l-32 0.6c-12.7 0.24-17.8 6.5-17.8 13.1v18.4c-17.1 0-21.3-14.2-21.3-28.5s4.78-28.5 21.3-28.5h35.6v-7.11h-28.5c0.01-5.01 0-5.19 0-10.3 0-7.16 8.12-11.8 28.5-11.1s27.3 5.32 28.8 10.2z" fill="#3571a3"/>
 </g>
</svg>
