<svg height="24" width="24" xmlns="http://www.w3.org/2000/svg">
  <path d="m8.5283565 23.010792h.5660259l.2894451 1.382904c1.1573675 1.150827 4.8070825.633506 3.5955515-1.415064-1.342822-2.270569-4.4028455-.976377-4.3995656-3.717762.00379-3.167515 3.4605126-2.430852 5.4351356-2.051841v2.051844h-.572458l-.289445-1.183509c-1.145902-.667202-3.4449294-.98789-3.171032.713965.420413 2.612223 4.572517 1.04217 4.611825 4.245194.04428 3.608317-4.017558 2.7744-6.0654825 2.28983z" fill="#e00005" transform="matrix(1.1469476 0 0 .87187942 0 -.20339)"/>
  <path d="m10.027221 10.879872v-.468053l1.36569-.173116v-7.2772693c-.815996-.024528-1.5984866.030839-2.3915608.128234l-.1731156 1.5965111h-.5834639v-2.4043842h8.3544333v2.4043842h-.589875l-.173116-1.5965111c-.829538-.1223613-1.600688-.1150412-2.417208-.1154106v7.2644459l1.365691.173116v.468053z" fill="#008107" transform="scale(1.0879872 .91912847)"/>
  <g fill="none" stroke="#182e6d">
    <g transform="translate(0 -6.987912)">
      <path d="m0 19.5h23"/>
      <path d="m20 17 3 2.5-3 2.5" stroke-linecap="round"/>
    </g>
    <g transform="matrix(0 -1 1 0 -16 24)">
      <path d="m0 19.5h23"/>
      <path d="m20 17 3 2.5-3 2.5" stroke-linecap="round"/>
    </g>
  </g>
</svg>
