<svg height="24" width="24" xmlns="http://www.w3.org/2000/svg" xmlns:xlink="http://www.w3.org/1999/xlink">
  <linearGradient id="a" gradientUnits="userSpaceOnUse" x1="2.415491" x2="20.567497" y1="14.517039" y2="14.517039">
    <stop offset="0" stop-color="#ffe168"/>
    <stop offset="1" stop-color="#e4dcd4"/>
  </linearGradient>
  <linearGradient id="b" gradientTransform="matrix(.45519824 .80090079 -.78842639 .46240034 16.147165 -4.002528)" gradientUnits="userSpaceOnUse" x1="19.892296" x2="19.892296" y1="18.08366" y2="7.277968">
    <stop offset="0" stop-color="#aa803b"/>
    <stop offset="1" stop-color="#ccb383"/>
  </linearGradient>
  <linearGradient id="c" gradientUnits="userSpaceOnUse" x1="3" x2="3" y1=".899999" y2="10.899999">
    <stop offset="0" stop-color="#418af9"/>
    <stop offset=".2" stop-color="#fdfdfd"/>
    <stop offset=".40000001" stop-color="#418af9"/>
    <stop offset="1" stop-color="#aecbf8"/>
  </linearGradient>
  <linearGradient id="d" gradientUnits="userSpaceOnUse" x1="4" x2="4" y1=".899999" y2="10.899999">
    <stop offset="0" stop-color="#2d77e6"/>
    <stop offset="1" stop-color="#71a3ee"/>
  </linearGradient>
  <path d="m5.0095844 4h13.9904156v-4l5 6.0319489-5 5.9680511v-4h-13.9904156z" fill="#f00" fill-rule="evenodd" opacity=".5"/>
  <g stroke-linejoin="round">
    <path d="m0 .59999998h5.4l1 1.40000002v8l-1 1.4h-5.4" fill="url(#c)" fill-rule="evenodd" stroke="url(#d)" stroke-width="1.2"/>
    <path d="m16.483151 9.0958086h.000033c-.692436-1.02195-2.134787-.794676-2.535048-.05666-.362191-.518293-1.937847-.865958-2.72455-.179441-.786701-.417509-2.3254504-.22965-2.8745964.131939-1.524287-1.529684-2.377086-4.047326-4.0982218-2.613725-.5608602.51078-.4000117 1.525173.7925898 2.795609 1.197282 1.2754224 5.5485574 8.1071574 5.5485574 8.1071574s-3.1134874-2.604504-5.3076714-3.676178c-1.5650546-.764396-2.8680499.510679-2.6555233 1.139424.2900288.858032.8727228 1.015542 2.2374103 1.530011 1.255933.473469 1.938739 2.449588 2.971102 3.361858 1.570198 1.38754 5.8357564 4.105924 5.8357564 4.105924l6.706722-3.933393c-.304231-4.841555-1.389967-7.12976-3.89656-10.7125284z" fill="none" stroke="#000" stroke-opacity=".504808" stroke-width="1.036402"/>
    <path d="m16.307797 8.9672296h.000032c-.668115-.986056-2.151114-.609637-2.445977-.05467.707188 1.3800974 1.511376 2.4036464 2.594831 4.2438004 0 0-2.304522-3.6022254-3.128342-4.4677184-.384826-.449639-1.557523-.285287-2.095344.05078 1.116588 1.9320494 2.012304 3.4906584 3.306987 5.5201344l-3.149765-5.1320804c-.623283-1.01555-2.4010274-.609635-2.9308854-.260746 1.5945614 2.2673314 2.8550304 4.2592304 4.3241324 6.4396334-1.650312-2.394192-3.8780064-6.0704154-6.0918144-8.5509244-.787197-.882032-1.415753-1.112646-2.1865973-.410632-.541161.49284-.385962 1.471604.7647523 2.697418 1.155229 1.2306234 5.3536734 7.8224064 5.3536734 7.8224064s-3.0041314-2.513025-5.1212484-3.547059c-1.5100853-.737548-2.7673153.492744-2.5622533 1.099404.279842.827895.84207.979874 2.1588253 1.476272 1.211821.45684 1.870644 2.363551 2.866747 3.243779 1.515048 1.338805 5.6307864 3.961712 5.6307864 3.961712l6.471161-3.79524s-.218365-4.488934-1.889697-7.421018c-.746423-1.363139-1.870004-2.9152514-1.870004-2.9152514z" fill="url(#a)" fill-rule="evenodd" stroke="url(#b)"/>
  </g>
</svg>
