<svg height="128" width="128" xmlns="http://www.w3.org/2000/svg">
  <g stroke-width=".999999" transform="translate(0 -308.268)">
    <path d="m61.24 436.01c-21.81-.79-26.34-8.93-27.94-14.19l-.04-15.81c-.05-18.1-.03-18.47.93-21.35 2.64-7.89 9.86-9.55 13.86-10.45 12.18-.42 24.44.44 36.61-.31 7-.95 11.89-5.52 13.91-12.22.73-2.74.71-2.44.79-12.05l.07-8.94h12.88c14.62 4.08 15.68 20.1 15.69 31.35.43 11.67-1.61 24.62-14 29.23-4.29 1.46-24 1-50 1v5h31c-.01 5.35 0 10.57 0 16 0 7.64-12.15 13.53-33.76 12.74zm26.14-16.22c-.41-2.41-2.27-4.28-4.67-4.68-3.67-.61-7 2.76-6.35 6.41.47 2.65 2.6 4.52 5.38 4.73 2.05.15 6.35-2.18 5.63-6.45z" fill="#fed142"/>
    <path d="m66.81 308.34c21.81.79 26.34 8.93 27.94 14.19l.04 15.81c.05 18.1.03 18.47-.93 21.35-2.64 7.89-9.86 9.55-13.86 10.45-12.18.42-24.44-.44-36.61.31-7 .95-11.89 5.52-13.91 12.22-.73 2.74-.71 2.44-.79 12.05l-.07 8.94h-12.88c-14.62-4.08-15.68-20.1-15.69-31.35-.43-11.67 1.61-24.62 14-29.23 4.29-1.46 24-1 50-1v-5h-31c.01-5.35 0-10.57 0-16 0-7.64 12.15-13.53 33.76-12.74zm-26.14 16.22c.41 2.41 2.27 4.28 4.67 4.68 3.67.61 7-2.76 6.35-6.41-.47-2.65-2.6-4.52-5.38-4.73-2.05-.15-6.35 2.18-5.63 6.45z" fill="#3571a3"/>
  </g>
</svg>
