<svg height="128" width="128" xmlns="http://www.w3.org/2000/svg">
  <g stroke-width=".999999" transform="translate(0 -308.268)">
    <path d="m62.87 308.27c-19.14.03-31.87 5.65-31.87 12.81 0 5.43-.02 18.75-.02 18.75-10.47.13-12.65 1-16.94 2.45-12.39 4.61-14.43 18.36-14 30.03.01 11.25 1.37 28.48 18.05 33.47h13.04l.03 16.04c1.6 5.26 8.26 13.4 30.06 14.19 21.61.78 35.77-5.11 35.77-12.74v-18.99c10 0 13.28-.56 17.56-2.01 12.39-4.61 13.86-18.56 13.43-30.23-.01-11.25-1.07-29.14-15.69-33.23l-15.36-.01-.04-16.28c-1.6-5.26-8.3-13.39-30.1-14.19-1.35-.05-2.66-.07-3.94-.07z" fill="#fff"/>
    <path d="m61.39 431.98c-20.43-.74-24.68-8.37-26.18-13.29l-.04-14.82c-.04-16.96-.03-17.31.88-20.01 2.47-7.39 9.24-8.95 12.98-9.8 11.42-.39 22.9.41 34.31-.29 6.56-.89 11.14-5.17 13.04-11.45.68-2.57.67-2.28.74-11.3l.07-8.38h12.07c13.7 3.83 14.7 18.84 14.7 29.38.4 10.94-1.51 23.07-13.12 27.39-4.02 1.36-22.49.94-46.86.94v4.69h29.05c-.01 5.01 0 9.91 0 14.99 0 7.16-11.39 12.68-31.64 11.94zm24.49-15.2c-.38-2.26-2.13-4.01-4.38-4.39-3.43-.57-6.56 2.58-5.95 6 .44 2.49 2.44 4.24 5.04 4.43 1.92.14 5.95-2.05 5.28-6.05z" fill="#fed142"/>
    <path d="m66.61 312.33c20.43.74 24.68 8.37 26.18 13.29l.04 14.82c.04 16.96.03 17.31-.88 20.01-2.47 7.39-9.24 8.95-12.98 9.8-11.42.39-22.9-.41-34.31.29-6.56.89-11.14 5.17-13.04 11.45-.68 2.57-.67 2.28-.74 11.3l-.07 8.38h-12.07c-13.7-3.83-14.7-18.84-14.7-29.38-.4-10.94 1.51-23.07 13.12-27.39 4.02-1.36 22.49-.94 46.86-.94v-4.69h-29.05c.01-5.01 0-9.91 0-14.99 0-7.16 11.39-12.68 31.64-11.94zm-24.49 15.2c.38 2.26 2.13 4.01 4.38 4.39 3.43.57 6.56-2.58 5.95-6-.44-2.49-2.44-4.24-5.04-4.43-1.92-.14-5.95 2.05-5.28 6.05z" fill="#3571a3"/>
  </g>
</svg>
