<svg height="24" width="24" xmlns="http://www.w3.org/2000/svg" xmlns:xlink="http://www.w3.org/1999/xlink">
  <linearGradient id="a" gradientTransform="matrix(.7647059 0 0 .9 2.441178 -1.292013)" gradientUnits="userSpaceOnUse" x1="4" x2="20" y1="3" y2="22">
    <stop offset="0" stop-color="#92b1de"/>
    <stop offset="1" stop-color="#525f96"/>
  </linearGradient>
  <linearGradient id="b" gradientTransform="matrix(.7647059 0 0 .9 2.441178 -1.292013)" gradientUnits="userSpaceOnUse" x1="5" x2="20" y1="3" y2="21">
    <stop offset="0" stop-color="#fdffff"/>
    <stop offset="1" stop-color="#b2d3fa"/>
  </linearGradient>
  <linearGradient id="c">
    <stop offset="0" stop-color="#705526"/>
    <stop offset="1" stop-color="#c69c59"/>
  </linearGradient>
  <linearGradient id="d">
    <stop offset="0" stop-color="#f3c668"/>
    <stop offset="1" stop-color="#f9f398"/>
  </linearGradient>
  <linearGradient id="e" gradientUnits="userSpaceOnUse" x1="1" x2="16" xlink:href="#c" y1="17" y2="7"/>
  <linearGradient id="f" gradientUnits="userSpaceOnUse" x1="3" x2="10" xlink:href="#d" y1="13" y2="8"/>
  <linearGradient id="g" gradientUnits="userSpaceOnUse" x1="6" x2="17" xlink:href="#d" y1="13" y2="20"/>
  <linearGradient id="h" gradientUnits="userSpaceOnUse" x1="3" x2="21" xlink:href="#c" y1="20" y2="11"/>
  <g stroke-linejoin="round">
    <path d="m.6 21.4v-14.4l2.4-4.4h7l1 2.8h7v16z" fill="url(#f)" fill-rule="evenodd" stroke="url(#e)" stroke-width="1.2"/>
    <path d="m5.5.507987h13v18h-13z" fill="url(#b)" fill-rule="evenodd" stroke="url(#a)" stroke-dashoffset="21.443998" stroke-linecap="round"/>
    <path d="m8.0300319 3.507987h8.4699681l-9.469968 11.999993" fill="none" opacity=".7" stroke="#f00"/>
  </g>
  <path d="m9.5 6.007986h3l4 4.999993h-3z" fill="#4aadff" fill-opacity=".784314" fill-rule="evenodd"/>
  <path d="m.6 21.4h17.4l5-12h-13l-1 2h-4z" fill="url(#g)" fill-rule="evenodd" stroke="url(#h)" stroke-linejoin="round" stroke-width="1.2"/>
  <path d="m8.5 1.5079873v3.9999995" fill="none" stroke="#373737"/>
</svg>
