<svg height="24" width="24" xmlns="http://www.w3.org/2000/svg" xmlns:xlink="http://www.w3.org/1999/xlink">
  <linearGradient id="a" gradientUnits="userSpaceOnUse" x1="5.533059" x2="23.685065" y1="14.223702" y2="14.223702">
    <stop offset="0" stop-color="#ffe168"/>
    <stop offset="1" stop-color="#e4dcd4"/>
  </linearGradient>
  <linearGradient id="b" gradientTransform="matrix(.45519824 .80090079 -.78842639 .46240034 19.264733 -4.295865)" gradientUnits="userSpaceOnUse" x1="19.892296" x2="19.892296" y1="18.08366" y2="7.277968">
    <stop offset="0" stop-color="#aa803b"/>
    <stop offset="1" stop-color="#ccb383"/>
  </linearGradient>
  <linearGradient id="c" gradientTransform="matrix(1 0 0 .9 -3.499999 -1.3)" gradientUnits="userSpaceOnUse" x1="5" x2="20" y1="3" y2="21">
    <stop offset="0" stop-color="#fdffff"/>
    <stop offset="1" stop-color="#b2d3fa"/>
  </linearGradient>
  <linearGradient id="d" gradientTransform="matrix(1 0 0 .9 -3.499999 -1.3)" gradientUnits="userSpaceOnUse" x1="4" x2="20" y1="3" y2="22">
    <stop offset="0" stop-color="#92b1de"/>
    <stop offset="1" stop-color="#7380b2"/>
  </linearGradient>
  <path d="m.5.5h17v18h-17z" style="fill-rule:evenodd;stroke-linecap:round;stroke-linejoin:round;stroke-dashoffset:21.443998;fill:url(#c);stroke:url(#d)"/>
  <path d="m3.5 1.5v4" fill="none" stroke="#373737"/>
  <g stroke-linejoin="round">
    <path d="m4 3.5000002h11l-11.9999999 11.9999998h10.9999999" fill="none" opacity=".7" stroke="#f00"/>
    <path d="m19.600719 8.8024718h.000033c-.692436-1.02195-2.134787-.794676-2.535048-.05666-.362191-.518293-1.937847-.865958-2.72455-.179441-.786701-.417509-2.32545-.22965-2.874596.131939-1.5242884-1.529684-2.3770864-4.0473264-4.0982224-2.613725-.560861.51078-.400012 1.525173.79259 2.795609 1.197281 1.2754222 5.5485574 8.1071572 5.5485574 8.1071572s-3.113487-2.604504-5.3076714-3.676178c-1.565055-.764396-2.86805.510679-2.655524 1.139424.290029.858032.872723 1.015542 2.23741 1.530011 1.255933.473469 1.93874 2.449588 2.9711034 3.361858 1.570198 1.38754 5.835756 4.105924 5.835756 4.105924l6.706722-3.933393c-.304231-4.841555-1.389967-7.12976-3.89656-10.7125282z" fill="none" stroke="#000" stroke-opacity=".504808" stroke-width="1.036402"/>
    <path d="m19.425365 8.6738928h.000032c-.668115-.986056-2.151114-.609637-2.445977-.05467.707188 1.380097 1.511376 2.4036462 2.594831 4.2438002 0 0-2.304522-3.6022252-3.128342-4.4677182-.384826-.449639-1.557523-.285287-2.095344.05078 1.116588 1.9320492 2.012304 3.4906582 3.306987 5.5201342l-3.149765-5.1320802c-.623283-1.01555-2.401027-.609635-2.930885-.260746 1.594561 2.2673312 2.85503 4.2592302 4.324132 6.4396332-1.650312-2.394192-3.878006-6.0704152-6.0918154-8.5509242-.787197-.882032-1.415753-1.112646-2.186597-.410632-.541161.49284-.385962 1.471604.764752 2.697418 1.155229 1.230623 5.3536744 7.8224062 5.3536744 7.8224062s-3.004131-2.513025-5.1212494-3.547059c-1.510085-.737548-2.767315.492744-2.562253 1.099404.279842.827895.84207.979874 2.158825 1.476272 1.211821.45684 1.8706454 2.363551 2.8667484 3.243779 1.515048 1.338805 5.630786 3.961712 5.630786 3.961712l6.471161-3.79524s-.218365-4.488934-1.889697-7.421018c-.746423-1.363139-1.870004-2.9152512-1.870004-2.9152512z" fill="url(#a)" fill-rule="evenodd" stroke="url(#b)"/>
  </g>
</svg>
