<svg height="24" width="24" xmlns="http://www.w3.org/2000/svg" xmlns:xlink="http://www.w3.org/1999/xlink">
  <linearGradient id="a">
    <stop offset="0" stop-color="#92b1de"/>
    <stop offset="1" stop-color="#525f96"/>
  </linearGradient>
  <linearGradient id="b">
    <stop offset="0" stop-color="#fdffff"/>
    <stop offset="1" stop-color="#b2d3fa"/>
  </linearGradient>
  <linearGradient id="c" gradientUnits="userSpaceOnUse" x1="15.1" x2="12.1" xlink:href="#a" y1="2.9" y2="5.9"/>
  <linearGradient id="d" gradientUnits="userSpaceOnUse" x1="12" x2="15" xlink:href="#b" y1="6" y2="3"/>
  <linearGradient id="e" gradientTransform="matrix(1.0000001 0 0 .89852177 -3.5 -2.286627)" gradientUnits="userSpaceOnUse" x1="5" x2="20" xlink:href="#b" y1="3" y2="21"/>
  <linearGradient id="f" gradientTransform="matrix(1.0000001 0 0 .89852177 -3.5 -2.286627)" gradientUnits="userSpaceOnUse" x1="17.559523" x2="4.404761" xlink:href="#a" y1="5.820224" y2="23.797752"/>
  <path d="m17.5 6.6205729v11.8794271h-17v-18h10.872094" style="fill-rule:evenodd;stroke-linecap:round;stroke-linejoin:round;stroke-dashoffset:21.443998;fill:url(#e);stroke:url(#f)"/>
  <g fill="none">
    <path d="m3.5 1.5786377v4.0000003" stroke="#3159ce"/>
    <path d="m14.5 13.5v4" stroke="#3159ce"/>
    <path d="m4 3.6355932h7.701299l1.001277 1.7789267-9.702576 10.0854801h11" opacity=".48718" stroke="#f00" stroke-linejoin="round"/>
  </g>
  <path d="m5.4956688 7.4137625h3.0000032l3.999992 4.6898285h-2.999992z" fill="#4aadff" fill-opacity=".784314" fill-rule="evenodd" stroke="#347db9" stroke-width=".7"/>
  <path d="m18 6.5h-6.5v-6.5" fill="url(#d)" fill-rule="evenodd"/>
  <path d="m17.5 6.5h-6v-6" fill="none" stroke="url(#c)" stroke-linecap="round" stroke-linejoin="round"/>
  <path d="m17.5 6.5v12h-17v-18h11v6z" style="opacity:.4;fill:#ddd;fill-opacity:.567164;fill-rule:evenodd;stroke:#dedede;stroke-linecap:round;stroke-linejoin:round;stroke-dashoffset:21.443998"/>
  <path d="m19.5 11.5h-5v7h-3.5l6 5 6-5h-3.5z" fill="#4aadff" fill-opacity=".784314" stroke="#347db9"/>
</svg>
