<svg height="24" width="24" xmlns="http://www.w3.org/2000/svg" xmlns:xlink="http://www.w3.org/1999/xlink">
  <linearGradient id="a" gradientUnits="userSpaceOnUse" x1="5.92169266006" x2="19.17649102353" y1="3.02905316568" y2="14.26433682754">
    <stop offset="0" stop-color="#92b1de"/>
    <stop offset="1" stop-color="#525f96"/>
  </linearGradient>
  <linearGradient id="b" gradientUnits="userSpaceOnUse" x1="4.65455597026" x2="17.23354935225" y1="4.63409352098" y2="16.29175647103">
    <stop offset="0" stop-color="#fdffff"/>
    <stop offset="1" stop-color="#b2d3fa"/>
  </linearGradient>
  <linearGradient id="c" gradientUnits="userSpaceOnUse" x1="16.563919" x2="10.38667" xlink:href="#e" y1="20.435306" y2="20.143043"/>
  <linearGradient id="d" gradientTransform="matrix(.42776621 0 0 .32248861 9.464716 19.06314)" gradientUnits="userSpaceOnUse" x1="10.563919" x2="1.761985" xlink:href="#e" y1="10.779858" y2="7.647183"/>
  <linearGradient id="e">
    <stop offset="0" stop-color="#705526"/>
    <stop offset="1" stop-color="#c69c59"/>
  </linearGradient>
  <linearGradient id="f" gradientUnits="userSpaceOnUse" x1="16.563919" x2="7.761985" xlink:href="#e" y1="21.059984" y2="17.927309"/>
  <linearGradient id="g" gradientUnits="userSpaceOnUse" x1="16.550462" x2="8.593356" y1="19.540849" y2="19.538537">
    <stop offset="0" stop-color="#f3c668"/>
    <stop offset="1" stop-color="#f9f398"/>
  </linearGradient>
  <path d="m13.956261 22.771759c-1.068328.320035-2.783146.284886-3.807119 0" fill="none" stroke="url(#d)" stroke-linecap="round" stroke-width="2"/>
  <path d="m20.701009 7.6181669c0 3.2101771-3.685553 6.4380441-4.289321 9.5223181-2.91547 1.481488-6.122164 1.50061-8.7771825-.05777-.4480918-3.097415-4.3355144-6.294923-4.3355143-9.4645481.0000002-4.8054345 3.8955743-6.70100877 8.7010088-6.70100877 4.805435-.00000011 8.701009 1.89557427 8.701009 6.70100877z" fill="url(#b)" stroke="url(#a)" stroke-linecap="round" stroke-linejoin="round"/>
  <path d="m8.0571565 5.5214437h8.4699685l-7.4699685 11.9999943" fill="none" opacity=".7" stroke="#f00" stroke-linejoin="round"/>
  <path d="m9 8.021443h4l4 4.999994h-4z" fill="#4aadff" fill-opacity=".797468" fill-rule="evenodd"/>
  <path d="m8.5271245 3.521444v3.9999995" fill="none" stroke="#373737"/>
  <path d="m7.6 21.780126v-5c2.412761 1.002697 6.401728.980438 8.9 0v5c-2.518847 1.077951-6.460488 1.047036-8.9 0z" fill="url(#g)" fill-rule="evenodd" stroke="url(#f)" stroke-linejoin="bevel"/>
  <path d="m9.4531859 19.916954c2.2956431.4175 5.1162971.232032 7.0468141-.525593" fill="none" stroke="url(#c)" stroke-linecap="round" stroke-linejoin="round"/>
</svg>
