<svg height="24" width="24" xmlns="http://www.w3.org/2000/svg" xmlns:xlink="http://www.w3.org/1999/xlink">
  <linearGradient id="a" gradientUnits="userSpaceOnUse" x1="-4.546595" x2="22.546595" y1="13" y2="13">
    <stop offset="0" stop-color="#717f09"/>
    <stop offset="1" stop-color="#95786d"/>
  </linearGradient>
  <linearGradient id="b" gradientUnits="userSpaceOnUse" x1="-4.398955" x2="22.398954" y1="13" y2="13">
    <stop offset="0" stop-color="#86c57f"/>
    <stop offset="1" stop-color="#b2dd7d"/>
  </linearGradient>
  <g stroke-linecap="round">
    <path d="m17 24c-2.189807 1.592588-2.478747-2.784322-5.053514-1.94637-2.5747676.837953-.232297 4.546546-2.9399878 4.547839-2.7076908.001294-.3687649-3.709535-2.9443316-4.545027-2.5755668-.835492-2.8603243 3.541692-5.0516526 1.951197-2.1913282-1.590494 1.8820732-3.217831.2894859-5.407639-1.59258728-2.189807-4.3958051 1.184033-5.2337579-1.390735-.8379528-2.574767 3.41402323-1.497025 3.41272961-4.204716-.00129361-2.707691-4.25223791-1.625887-3.41674571-4.2014541.8354921-2.5755667 3.64193245.7955933 5.2324266-1.3957349 1.5904942-2.1913283-2.4844603-3.814773-.29465276-5.4073604 2.18980756-1.59258725 2.47874726 2.7843227 5.05351456 1.94637 2.5747673-.8379528.2322967-4.54654536 2.9399875-4.54783899 2.7076912-.00129364.3687649 3.70953549 2.9443312 4.54502769 2.575567.8354922 2.860325-3.54169191 5.051653-1.9511977 2.191328 1.5904941-1.882073 3.2178318-.289486 5.4076393s4.395805-1.1840325 5.233758 1.3907348-3.414023 1.4970253-3.41273 4.2047163c.0013 2.707691 4.252238 1.625887 3.416746 4.201454s-3.641932-.795593-5.232427 1.395735c-1.590494 2.191328 2.484461 3.814773.294653 5.40736z" fill="url(#b)" stroke="url(#a)" stroke-width="1.271237" transform="matrix(.73810314 -.2352766 .22637627 .76620004 2.413963 4.157107)"/>
    <path d="m20 12a8 9 0 1 1 -16 0 8 9 0 1 1 16 0z" fill="#8bb666" stroke="#abd9ad" stroke-width="1.046364" transform="matrix(.69287596 -.21263291 .18900698 .61588979 1.417187 7.161135)"/>
    <path d="m20 12a8 9 0 1 1 -16 0 8 9 0 1 1 16 0z" fill="#fff" stroke="#5b6900" stroke-width="4.260013" transform="matrix(.30943165 -.09495978 .08440872 .27505033 7.273698 9.839131)"/>
  </g>
</svg>
