<svg height="24mm" viewBox="0 0 85.04 85.04" width="24mm" xmlns="http://www.w3.org/2000/svg">
<g transform="translate(0 -967.32)">
<path d="m42.37 1041.84c-6.83 2.55-13.48 6.93-19.87 8.64-5.6 1.5-11.84-3.46-11.09-9.32l2.59-20.22-11-12.88c-4.25-4.97-3.52-13.23 3.21-14.49l20.15-3.79 9.81-18.6c2.32-4.4 9.49-5.07 12.39.3l9.69 17.96 19.72 3.96c8.42 1.69 8.24 9.97 3.4 15.24l-11.43 12.46 3.26 22.36c.87 6.01-5.19 8.26-9.17 7.34-8.83-2.04-14.59-6.31-21.65-8.94z" fill="#6b4203" fill-opacity=".73"/>
<path d="m59.89 1044.77-17.41-8.41-18.25 8.95c-4.71 2.32-8.21-1.61-7.55-6.97l2.51-18.96-13.13-13.73c-4.02-4.27-3.42-8.92 1.88-10.14l20.07-3.71 9.8-18.54c1.95-3.62 6.3-4.39 9.01-.05l9.93 18.53 18.44 3.29c7.47 1.19 7.33 6.66 2.83 11.23l-12.32 13.01 2.86 20.67c.72 5.1-5.26 6.62-8.66 4.83z" fill="#fc0" stroke="#ff9c00" stroke-linecap="round" stroke-linejoin="round" stroke-width="3"/>
<path d="m8.67 997.33 20.9-3.47 10.43-20.12 1.83 15.47c.26 2.22-1.17 5.8-3.34 6.79-7.73 3.53-9.04 11.66-5.37 17.7 1.18 1.93 2.43 6.08.39 9.45l-12.52 20.68c-2.21-.91-2.41-2.76-2.06-5.89.59-5.3 1.92-14.59 2.59-19.23-7.01-7.33-8.99-9.69-13.8-14.41-3.55-3.49-2.23-6.44.96-6.97z" fill="#fff" fill-opacity=".65" fill-rule="evenodd"/>
</g>
</svg>
