<svg height="24" width="24" xmlns="http://www.w3.org/2000/svg" xmlns:xlink="http://www.w3.org/1999/xlink">
  <linearGradient id="a" gradientUnits="userSpaceOnUse" x1="20.09" x2="12.93" y1="21.65" y2="10.33">
    <stop offset="0" stop-color="#cd3232"/>
    <stop offset="1" stop-color="#e08e8e"/>
  </linearGradient>
  <linearGradient id="b" gradientUnits="userSpaceOnUse" x1="17.09" x2="11.4" y1="24.29" y2="18.43">
    <stop offset="0" stop-color="#7c2121"/>
    <stop offset="1" stop-color="#6a90cb"/>
  </linearGradient>
  <linearGradient id="c" gradientTransform="matrix(-1 0 0 -1 23.16 23.96)" gradientUnits="userSpaceOnUse" x1="4.96" x2="15.09" y1="15.37" y2="22.6">
    <stop offset="0" stop-color="#cd4c4c"/>
    <stop offset="1" stop-color="#797ac2"/>
  </linearGradient>
  <filter id="d" height="1.25" width="1.23" x="-.12" y="-.12">
    <feGaussianBlur stdDeviation=".33319131"/>
  </filter>
  <linearGradient id="e" gradientUnits="userSpaceOnUse" x1=".29" x2="12.77" y1="6.64" y2="6.64">
    <stop offset="0" stop-color="#0e0f55"/>
    <stop offset="1" stop-color="#a5a6f1"/>
  </linearGradient>
  <linearGradient id="f" gradientUnits="userSpaceOnUse" x1="1.14" x2="11.93" y1="6.66" y2="6.66">
    <stop offset="0" stop-color="#0e0f55"/>
    <stop offset="1" stop-color="#6a6de8"/>
  </linearGradient>
  <path d="m13.86 5.11 4.7 4.25 4.08-4.25h-3c-1.11-4.59-3.87-4.71-13.11-4.79l.76 2.23c7.32-.11 8.98.38 9.69 2.57z" fill="url(#c)" fill-rule="evenodd"/>
  <path d="m9.31 18.42-4.57-4.52-4.21 4.52h3c.54 5.03 4.02 5.15 13.25 5.24l-.91-2.25c-6.96.02-9.36-.01-9.68-2.99z" fill="url(#b)" fill-rule="evenodd"/>
  <path d="m12.32 6.66a5.78 5.78 0 1 1 -11.55 0 5.78 5.78 0 1 1 11.55 0z" fill="#7fe1ff" stroke="url(#e)" stroke-width=".95"/>
  <path d="m11.3 7.05a4.26 4.37 0 1 1 -8.51 0 4.26 4.37 0 1 1 8.51 0z" fill="#42a5c9" stroke-width=".59"/>
  <path d="m5.26 2.3a.8 2.28 42.79 1 1 -3.11 3.32.8 2.28 42.79 1 1 3.11-3.32z" fill="#fff" stroke-width=".45"/>
  <path d="m10.79 4.47a3.64 4.48 41.79 1 1 -6.4 6.25 3.64 4.48 41.79 1 1 6.4-6.25z" fill="#7fe1ff" stroke-width=".62"/>
  <path d="m11.78 6.66a5.24 5.24 0 1 1 -10.47 0 5.24 5.24 0 1 1 10.47 0z" fill="none" opacity=".66" stroke="url(#f)" stroke-width=".33"/>
  <path d="m18.68 15.6a2.93 3.62 0 1 1 -5.85 0 2.93 3.62 0 1 1 5.85 0z" fill="#d2edf7" filter="url(#d)" transform="matrix(.85 .51 -.64 .84 4.57 -13.44)"/>
  <path d="m10.19 7.75a.61 1.74 47.47 1 1 -2.54 2.39.61 1.74 47.47 1 1 2.54-2.39z" fill="#fff" stroke-width=".34"/>
  <path d="m16.86 10.22c-3.63 0-6.57 2.94-6.57 6.57s2.94 6.57 6.57 6.57 6.57-2.94 6.57-6.57-2.94-6.57-6.57-6.57zm2.23 2.91-5.9 5.9c-2.72-4.03 2-8.53 5.9-5.9zm1.44 1.44c2.18 3.82-2.13 8.23-5.9 5.89z" fill="url(#a)" stroke="#661b1b" stroke-width=".57"/>
</svg>
