<?xml version="1.0" encoding="UTF-8"?>
<svg width="24" height="24" version="1.1" xmlns="http://www.w3.org/2000/svg" xmlns:xlink="http://www.w3.org/1999/xlink">
 <defs>
  <linearGradient id="linearGradient9" x1="20.2" x2="10" y1="22.2" y2="8.22" gradientTransform="matrix(1.27 0 0 1.27 -7 -7)" gradientUnits="userSpaceOnUse">
   <stop stop-color="#c67000" offset="0"/>
   <stop stop-color="#ff9514" offset="1"/>
  </linearGradient>
  <linearGradient id="linearGradient11" x1="8.91" x2="21.9" y1="10.8" y2="19.7" gradientTransform="matrix(1.27 0 0 1.27 -7 -7)" gradientUnits="userSpaceOnUse">
   <stop stop-color="#ffc57d" offset="0"/>
   <stop stop-color="#ff940f" offset="1"/>
  </linearGradient>
 </defs>
 <g stroke-linecap="round">
  <path d="m8.06 2.5-5.56 5.56v7.87l5.56 5.56h7.87l5.56-5.56v-7.87l-5.56-5.56z" fill="#fff" stroke="#fff" stroke-linejoin="round" stroke-width="2"/>
  <path d="m8.06 2.5-5.56 5.56v7.87l5.56 5.56h7.87l5.56-5.56v-7.87l-5.56-5.56z" fill="url(#linearGradient11)" stroke="url(#linearGradient9)" stroke-linejoin="round"/>
  <g transform="matrix(.748 -.748 .748 .748 -5.94 9.49)" stroke-width="3.01">
   <path d="m8.31 14.3 4.68-6.02 2.67 2.67-6.02 4.68z" fill="none"/>
   <path d="m8.98 13.7 3.63-4.97c1.71-2.3 4.96 0.946 2.67 2.67l-4.97 3.63c-1.07 0.794-2.08-0.398-1.34-1.34z" fill="#fff"/>
   <ellipse transform="rotate(45)" cx="17" cy="7.57" rx="1.89" ry="1.89" fill="#fff"/>
  </g>
 </g>
</svg>
