<svg height="24" width="24" xmlns="http://www.w3.org/2000/svg" xmlns:xlink="http://www.w3.org/1999/xlink">
  <linearGradient id="a" gradientTransform="matrix(.5428268 0 0 .5427415 -.513933 11.48806)" gradientUnits="userSpaceOnUse" x1="11.026465" x2="20.822304" y1="19.060492" y2="9.776938">
    <stop offset="0" stop-color="#c7c7c7"/>
    <stop offset="1" stop-color="#fff"/>
  </linearGradient>
  <linearGradient id="b" gradientTransform="matrix(.5440651 0 0 .6066423 -.528792 11.379409)" gradientUnits="userSpaceOnUse" x1="1" x2="22.999999" y1="3.49841" y2="3.49841">
    <stop offset="0" stop-color="#4c407b"/>
    <stop offset="1" stop-color="#6ccdf6"/>
  </linearGradient>
  <linearGradient id="c" gradientTransform="matrix(.5440651 0 0 .6066423 -.528792 11.379409)" gradientUnits="userSpaceOnUse" x1=".99982" x2="23.000179" y1="3.49841" y2="3.49841">
    <stop offset="0" stop-color="#443289"/>
    <stop offset="1" stop-color="#4aa7cf"/>
  </linearGradient>
  <linearGradient id="d" gradientUnits="userSpaceOnUse" x1="-3.325194" x2="8.674806" y1="25.566127" y2="14.566127">
    <stop offset="0" stop-color="#cd3232"/>
    <stop offset="1" stop-color="#e08e8e"/>
  </linearGradient>
  <g stroke-linecap="round">
    <g transform="matrix(1.085293 0 0 .9978607 -.011744 -11.962482)">
      <rect fill="url(#a)" height="11.401022" rx=".855703" ry=".870471" stroke="#6b6868" stroke-linejoin="round" stroke-width=".599076" width="11.40282" x=".298581" y="12.300447"/>
      <path d="m1.1432316 12.287442h9.7135174c.475141 0 .857655.43394.857655.972959v1.455541h-11.42882819v-1.455541c0-.539019.38251451-.972959.85765579-.972959z" fill="url(#b)" stroke="url(#c)" stroke-width=".573078"/>
      <g fill="#fcfdff" stroke="#f1fcff" stroke-linejoin="round" stroke-width="1.003372">
        <path d="m20.597353 3.6294897c0 .3257331-.284371.589792-.63516.589792-.35079 0-.635161-.2640589-.635161-.589792 0-.3257332.284371-.5897921.635161-.5897921.350789 0 .63516.2640589.63516.5897921z" transform="matrix(.5999964 0 0 .5999019 -3.654395 11.270488)"/>
        <path d="m20.597353 3.6294897c0 .3257331-.284371.589792-.63516.589792-.35079 0-.635161-.2640589-.635161-.589792 0-.3257332.284371-.5897921.635161-.5897921.350789 0 .63516.2640589.63516.5897921z" transform="matrix(.5999964 0 0 .5999019 -1.798829 11.270488)"/>
      </g>
    </g>
    <g transform="matrix(1.085293 0 0 .9978607 4.988256 -5.962482)">
      <rect fill="url(#a)" height="11.401022" rx=".855703" ry=".870471" stroke="#6b6868" stroke-linejoin="round" stroke-width=".599076" width="11.40282" x=".298581" y="12.300447"/>
      <path d="m1.1432316 12.287442h9.7135174c.475141 0 .857655.43394.857655.972959v1.455541h-11.42882819v-1.455541c0-.539019.38251451-.972959.85765579-.972959z" fill="url(#b)" stroke="url(#c)" stroke-width=".573078"/>
      <g fill="#fcfdff" stroke="#f1fcff" stroke-linejoin="round" stroke-width="1.003372">
        <path d="m20.597353 3.6294897c0 .3257331-.284371.589792-.63516.589792-.35079 0-.635161-.2640589-.635161-.589792 0-.3257332.284371-.5897921.635161-.5897921.350789 0 .63516.2640589.63516.5897921z" transform="matrix(.5999964 0 0 .5999019 -3.654395 11.270488)"/>
        <path d="m20.597353 3.6294897c0 .3257331-.284371.589792-.63516.589792-.35079 0-.635161-.2640589-.635161-.589792 0-.3257332.284371-.5897921.635161-.5897921.350789 0 .63516.2640589.63516.5897921z" transform="matrix(.5999964 0 0 .5999019 -1.798829 11.270488)"/>
      </g>
    </g>
    <g transform="matrix(1.085293 0 0 .9978607 10.988256 .037518)">
      <rect fill="url(#a)" height="11.401022" rx=".855703" ry=".870471" stroke="#6b6868" stroke-linejoin="round" stroke-width=".599076" width="11.40282" x=".298581" y="12.300447"/>
      <path d="m1.1432316 12.287442h9.7135174c.475141 0 .857655.43394.857655.972959v1.455541h-11.42882819v-1.455541c0-.539019.38251451-.972959.85765579-.972959z" fill="url(#b)" stroke="url(#c)" stroke-width=".573078"/>
      <g fill="#fcfdff" stroke="#f1fcff" stroke-linejoin="round" stroke-width="1.003372">
        <path d="m20.597353 3.6294897c0 .3257331-.284371.589792-.63516.589792-.35079 0-.635161-.2640589-.635161-.589792 0-.3257332.284371-.5897921.635161-.5897921.350789 0 .63516.2640589.63516.5897921z" transform="matrix(.5999964 0 0 .5999019 -3.654395 11.270488)"/>
        <path d="m20.597353 3.6294897c0 .3257331-.284371.589792-.63516.589792-.35079 0-.635161-.2640589-.635161-.589792 0-.3257332.284371-.5897921.635161-.5897921.350789 0 .63516.2640589.63516.5897921z" transform="matrix(.5999964 0 0 .5999019 -1.798829 11.270488)"/>
      </g>
    </g>
    <path d="m1.25.3125c-.51449371 0-.9375.3937905-.9375.875v9.625c0 .48121.42300629.875.9375.875h4.0625v5.125c0 .481209.4230063.875.9375.875h5.0625v5.125c0 .481209.423006.875.9375.875h10.5c.514494 0 .9375-.393791.9375-.875v-9.625c0-.481209-.423006-.875-.9375-.875h-5.0625v-5.125c0-.4812095-.423006-.875-.9375-.875h-4.0625v-5.125c0-.4812095-.423006-.875-.9375-.875z" fill="#fff" opacity=".5" stroke="#fff" stroke-linejoin="round" stroke-width=".623434"/>
  </g>
  <g stroke-linejoin="round" transform="matrix(.631579 0 0 .6384772 16.310648 -7.046435)">
    <path d="m5.6748065 20.566127 5.9999995-6-2.9999995-3-6 6-6-6-3 3 5.99999996 6-5.99999996 6 3 3 6-6 6 6 2.9999995-3z" fill="url(#d)" fill-rule="evenodd" stroke="#661b1b"/>
    <path d="m-4.3251935 26.566127 4.99999996-5c1.00000004-1 0-2 0-2l-4.99999996-5" fill="none" stroke="#edbaba" stroke-linecap="round" stroke-width="1.5"/>
  </g>
</svg>
