<svg height="220" width="260" xmlns="http://www.w3.org/2000/svg" xmlns:xlink="http://www.w3.org/1999/xlink">
<linearGradient id="a" gradientUnits="userSpaceOnUse" x1="152" x2="153.5" y1="196" y2="41.5">
<stop offset="0" stop-color="#eafaff"/>
<stop offset=".5" stop-color="#4bcffc"/>
<stop offset="1" stop-color="#eafaff"/>
</linearGradient>
<path d="m107.5 39.5h97v157h-97z" fill="url(#a)" stroke="#00b4ff" stroke-width="3"/>
<g fill="none" stroke="#000">
<path d="m3.5 118h250.42" stroke-dasharray="8 4 2 4" stroke-width="2"/>
<path d="m205.5 24.82v26.47"/>
<path d="m199.64 24.18 4.91 4.36-4.91 3.64m-87-8-4.91 4.18 4.91 3.82m-4.23-3.68h95.47"/>
<path d="m106.5 24.82v26.47"/>
<path d="m199.26 204.18 4.91 4.36-4.91 3.64m-178.5-8-4.91 4.18 4.91 3.82m-4.23-3.68h186.97"/>
</g>
<path d="m91.49 184.68-2.5 8.39h2.78q1.87 0 2.8-.58.94-.58 1.92-2.47h.59l-2.2 7.71h-.62q.23-.94.23-1.55 0-.95-.64-1.47-.62-.53-2.36-.53h-2.81l-1.84 6.39q-.5 1.7-.5 2.26 0 .58.42.89.44.31 2.11.42l-.19.59h-8.37l.2-.58q1.22-.03 1.62-.22.62-.27.92-.72.42-.64 1-2.64l3.73-12.76q.45-1.55.45-2.42 0-.41-.2-.69-.2-.3-.61-.44-.39-.14-1.58-.14l.19-.58h16.43l-1.56 5.36h-.59q.17-.97.17-1.59 0-1.03-.58-1.62-.56-.61-1.45-.86-.62-.16-2.8-.16z" stroke-width=".89"/>
<path d="m163.81 24.59h-15.69l.22-.58q1.25-.03 1.67-.2.66-.28.97-.73.48-.72 1.03-2.59l3.73-12.88q.47-1.59.47-2.34 0-.59-.44-.92-.42-.33-1.61-.33-.27 0-.42-.02l.19-.58h8.64l-.12.58q-1.45 0-2.06.28-.61.28-1.01.92-.28.42-.92 2.62l-3.67 12.66q-.42 1.44-.42 2 0 .37.42.72.27.23 1.2.23h2.05q2.23 0 3.54-.56.97-.42 1.78-1.26.44-.47 1.55-2.33l.41-.7h.58z" stroke-width=".89"/>
<path d="m238.17 49.42 12.76 2.14-9.39 7.89m-238.04 17.1h103.48c32.49.5 67.64-3.74 97.54-12.83l46.41-12.16" fill="none" stroke="#f00" stroke-width="2"/>
<path d="m204.53 63.72-189.7 54" fill="none" stroke="#f00" stroke-dasharray="4 4" stroke-width="2"/>
<path d="m205.5 178.82v34.47" fill="none" stroke="#000"/>
<path d="m204.53 171.72-189.7-54" fill="none" stroke="#f00" stroke-dasharray="4 4" stroke-width="2"/>
<circle cx="14.73" cy="117.61" fill="#001217" r="4.75"/>
<path d="m238.17 186.6 12.76-2.14-9.39-7.89m-238.04-17.1h103.48c32.49-.5 67.64 3.74 97.54 12.83l46.41 12.16" fill="none" stroke="#f00" stroke-width="2"/>
<path d="m14.5 116.82v96.47" fill="none" stroke="#000"/>
<path id="b" d="m152.57 91.85-1.92 6.56q2.7-4.02 4.12-5.29 1.44-1.27 2.77-1.27.72 0 1.18.48.48.48.48 1.24 0 .86-.42 2.31l-1.76 6.07q-.3 1.05-.3 1.28 0 .2.12.35.12.13.25.13.17 0 .42-.19.76-.61 1.67-1.85l.45.27q-1.34 1.92-2.54 2.74-.84.56-1.5.56-.53 0-.85-.33-.32-.32-.32-.86 0-.69.49-2.38l1.67-5.79q.32-1.08.32-1.69 0-.29-.19-.46-.19-.19-.46-.19-.4 0-.97.35-1.07.65-2.22 2.15-1.15 1.48-2.44 3.81-.68 1.23-1.12 2.68l-.72 2.38h-2.16l2.62-9.02q.46-1.63.46-1.96 0-.32-.26-.55-.25-.25-.62-.25-.17 0-.61.06l-.55.09-.09-.52z" stroke-width="1.01"/>
<path d="m166.37 99.08q1.09 0 1.83.91.75.91.75 2.87 0 1.68-.55 3.44-.55 1.75-1.56 3.04-.8 1.01-1.68 1.46-.51.26-1.18.26-1.11 0-1.85-.91-.74-.91-.74-2.88 0-1.95.75-3.91.88-2.3 2.24-3.49.89-.78 2-.78zm.01.44q-.49 0-1 .39-.5.38-1.05 1.61-.54 1.22-1.03 3.15-.64 2.53-.64 4.3 0 .88.38 1.33.38.43.93.43.52 0 .88-.34.98-.92 1.68-3.14 1.13-3.63 1.13-5.9 0-.94-.38-1.39-.38-.45-.9-.45z" stroke-width="1.01" transform="scale(.99 1.01)"/>
<path d="m157.19 134.91 15.51-6.72v1.25l-13.35 5.79 13.35 5.85v1.3l-15.51-6.77zm27.96-9.77c1.23 0 2.26.51 3.1 1.54.85 1.03 1.27 2.65 1.27 4.87 0 1.9-.31 3.84-.94 5.82-.62 1.98-1.5 3.69-2.64 5.15-.9 1.14-1.85 1.97-2.84 2.48-.58.29-1.24.43-2 .43-1.25 0-2.3-.51-3.14-1.54s-1.25-2.66-1.25-4.89c0-2.2.42-4.41 1.27-6.63.99-2.59 2.25-4.56 3.79-5.91 1.01-.88 2.14-1.33 3.39-1.33zm.01.75c-.56 0-1.12.22-1.7.66-.57.43-1.16 1.34-1.77 2.72s-1.19 3.17-1.74 5.35c-.72 2.85-1.08 5.29-1.08 7.29 0 1 .22 1.75.65 2.25.43.49.96.74 1.57.74.59 0 1.09-.19 1.5-.58 1.11-1.04 2.05-2.81 2.84-5.32 1.28-4.1 1.92-7.44 1.92-10 0-1.07-.22-1.85-.65-2.35-.43-.51-.94-.76-1.53-.76z" stroke-width=".83"/>
<path d="m153.52 148.36h-4.62v-.25q3.53-3.09 4.67-4.85.53-.81.53-1.71 0-.71-.44-1.16-.44-.45-1.14-.45-.97 0-1.59.92l-.24-.11q.35-.88 1.02-1.37.67-.49 1.45-.49.88 0 1.49.61.6.6.6 1.47 0 .6-.21 1.12-.33.8-1.21 1.79-1.34 1.52-3.58 3.5h2.33q.56 0 .92-.23.36-.23.52-.62h.27z" stroke-width=".83" transform="scale(.99 1.01)"/>
<use transform="translate(-13.16 40.19)" xlink:href="#b"/>
</svg>
