<svg height="80" width="430" xmlns="http://www.w3.org/2000/svg">
<path d="m14.5 1006.4v12l400.5 12v-36z" fill="#f00" fill-opacity=".16" transform="translate(0 -972.36)"/>
<path d="m14.5 1006.4v12l401 26v-64z" fill="#f00" fill-opacity=".16" transform="translate(0 -972.36)"/>
<path d="m413.24 39.5h-397.24" fill="none" stroke="#7f7f7f" stroke-dasharray="8 2 1 2"/>
<g transform="translate(0 -972.36)">
<path d="m0 1026.9h14.5v-30h-14.5" fill-opacity=".16" stroke="#7f7f7f"/>
<path d="m3.95 1022.4q0-.97.69-1.55.69-.59 2.08-.59 1.37 0 2.08.59.71.58.71 1.56 0 .6-.23 1-.23.39-.55.61v.06q.17-.01.43-.03.26-.03.45-.03h2.2v.86h-7.76v-.7l.73-.12v-.04q-.35-.23-.59-.61-.24-.38-.24-1.01zm.74.16q0 .8.46 1.13t1.4.34h.17q.99 0 1.53-.31.53-.32.53-1.18 0-.47-.26-.78-.27-.31-.74-.46-.47-.16-1.07-.16-.92 0-1.47.35-.55.34-.55 1.06zm-.64-8.32h5.36v.7l-.71.13v.04q.42.25.62.7.19.45.19.96 0 .95-.46 1.42-.47.48-1.49.48h-3.51v-.87h3.45q1.28 0 1.28-1.16 0-.87-.5-1.2-.5-.34-1.44-.34h-2.79zm-.1-7.39q0-.89.47-1.33.47-.44 1.5-.44h3.49v.85h-3.45q-1.27 0-1.27 1.06 0 .76.45 1.09.45.32 1.31.32h2.96v.85h-3.45q-1.27 0-1.27 1.07 0 .79.5 1.09t1.44.3h2.78v.86h-5.36v-.69l.73-.13v-.05q-.42-.24-.62-.65-.21-.42-.21-.89 0-1.23.9-1.6v-.05q-.46-.26-.68-.71t-.22-.97zm-.02-6.39q0-.96.69-1.55.69-.59 2.08-.59 1.37 0 2.08.59.71.58.71 1.56 0 .6-.23 1-.23.39-.55.61v.06q.17-.01.43-.03.26-.03.45-.03h2.2v.86h-7.76v-.7l.73-.12v-.04q-.35-.23-.59-.61-.24-.38-.24-1.01zm.74.16q0 .8.46 1.13.46.33 1.4.34h.17q.99 0 1.53-.31.53-.32.53-1.18 0-.47-.26-.78-.27-.31-.74-.46-.47-.16-1.07-.16-.92 0-1.47.35-.55.34-.55 1.06z"/>
</g>
<path d="m430 1046.9h-14.5v-69h14.5" fill-opacity=".16" stroke="#7f7f7f" transform="translate(0 -972.36)"/>
<path d="m-1026.2 424.86q0 .82-.61 1.24-.61.42-1.64.42-.59 0-1.02-.09-.42-.09-.75-.26v-.84q.34.17.81.32.48.14.98.14.71 0 1.02-.22.32-.23.32-.61 0-.21-.12-.38-.12-.17-.42-.34-.3-.17-.85-.38-.55-.21-.94-.42-.39-.21-.6-.51t-.21-.76q0-.72.58-1.11.59-.39 1.54-.39.52 0 .96.11.45.11.84.27l-.32.74q-.36-.15-.75-.25-.39-.11-.8-.11-.57 0-.87.19-.3.18-.3.5 0 .24.14.4.14.16.45.32.33.16.86.36.54.2.92.41.38.21.58.52.2.3.2.75zm3.64 1.67q-.76 0-1.34-.31-.58-.31-.92-.95-.33-.64-.33-1.64 0-1.04.34-1.7.35-.65.95-.96t1.36-.31q.42 0 .82.09.41.08.66.21l-.28.77q-.25-.09-.59-.18-.34-.08-.63-.08-1.67 0-1.67 2.14 0 1.02.4 1.57.41.54 1.21.54.45 0 .81-.09t.65-.23v.82q-.28.15-.63.22-.34.08-.82.08zm4.28-8.12v2.35q0 .42-.05.79h.06q.27-.43.74-.65.47-.22 1.02-.22 1.02 0 1.54.5.53.48.53 1.57v3.68h-.92v-3.62q0-1.36-1.26-1.36-.95 0-1.31.54-.35.53-.35 1.52v2.92h-.93v-8.01zm7.77 2.26q.72 0 1.24.32t.8.9q.28.57.28 1.34v.56h-3.87q.02.96.48 1.47.47.5 1.32.5.54 0 .95-.09.42-.11.86-.3v.81q-.43.19-.85.27-.42.09-1 .09-.81 0-1.42-.33-.61-.33-.96-.97-.34-.64-.34-1.59 0-.93.31-1.59.32-.66.87-1.02.57-.36 1.32-.36zm-.01.76q-.66 0-1.05.43-.38.42-.45 1.18h2.88q-.01-.72-.34-1.16-.33-.45-1.03-.45zm9.97-.76q.96 0 1.43.5t.47 1.58v3.68h-.92v-3.64q0-1.34-1.15-1.34-.82 0-1.18.47-.35.47-.35 1.38v3.12h-.92v-3.64q0-1.34-1.16-1.34-.85 0-1.18.53-.33.53-.33 1.52v2.93h-.93v-5.65h.75l.14.77h.05q.26-.44.71-.65.45-.22.96-.22 1.33 0 1.73.95h.05q.28-.48.77-.72.48-.23 1.04-.23zm6.19.01q1.03 0 1.53.45.5.45.5 1.44v3.85h-.67l-.18-.8h-.04q-.37.46-.78.69-.41.22-1.12.22-.77 0-1.28-.4-.51-.41-.51-1.28 0-.84.66-1.3.66-.46 2.04-.51l.96-.03v-.34q0-.71-.31-.98t-.86-.27q-.44 0-.84.14-.4.13-.75.3l-.28-.7q.37-.2.87-.34.51-.15 1.05-.15zm1.11 2.98-.83.03q-1.05.04-1.47.34-.4.3-.4.83 0 .47.28.7.3.22.75.22.71 0 1.18-.39.48-.4.48-1.22z" transform="matrix(0 -1 1 0 0 -972.36)"/>
<g fill="none">
<path d="m413.24 69.5h-397.24" stroke="#000"/>
<path d="m409.13 72.73 5.04-3.27-5.13-3.45" stroke="#000"/>
<path d="m14.5 70.81v-19.77" stroke="#7f7f7f" stroke-dasharray="4 2"/>
<path d="m20.78 72.73-5.04-3.27 5.13-3.45" stroke="#000"/>
</g>
<text font-family="'Times New Roman'" font-weight="bold" letter-spacing="0" transform="scale(.96 1.04)" word-spacing="0" x="218.06" y="59.54"><tspan font-family="'Times New Roman'" font-size="16" font-weight="bold" x="218.06" y="59.54">z</tspan></text>
<path d="m304.85 25.51 10.65-.31-.49-9.86m-2.14 3.41 2.1-3.71 2.4 3.34" fill="none" stroke="#000"/>
<path d="m339.69 22.38 2.88-6.98h4.31v.29h-.34q-.47 0-.75.16-.2.11-.31.37-.09.19-.09.98v6.98q0 .81.09 1.02t.35.36q.27.15.71.15h.34v.29h-5.53v-.29h.34q.47 0 .75-.16.2-.11.31-.38.09-.19.09-.98v-7.85l-4.06 9.66h-.19l-4.13-9.59v7.46q0 .78.04.96.1.39.44.64.34.24 1.07.24v.29h-3.63v-.29h.11q.35.01.66-.11.3-.13.46-.33t.24-.57q.02-.09.02-.8v-6.7q0-.8-.09-1-.09-.2-.35-.35-.27-.16-.71-.16h-.34v-.29h4.33zm11.53-1.58h-3.87v-.14q1.77-1.84 2.09-2.42.32-.59.32-1.09 0-.4-.27-.66-.27-.27-.67-.27-.66 0-1.05.64l-.33-.1q.25-.79.77-1.18.52-.4 1.24-.4.81 0 1.31.45.5.45.5.98 0 .48-.41 1.13-.4.65-1.9 1.91h1.19q.57 0 .71-.07.14-.07.28-.34.04-.08.06-.11h.36z" transform="scale(.96 1.04)"/>
<path d="m35.68 12.43v.3q-2.08 0-2.08 3.52 0 1.35.3 2.2.31.85.93.85.38 0 .72-.3.34-.3.79-.97-.78-1.88-.78-2.93 0-.63.26-1.03.27-.41.74-.41.47 0 .73.39t.27 1.1q0 .88-.49 2.15-.21.53-.27.71.9 1.29 1.45 1.29 1.27 0 1.27-3.11 0-1.7-.51-2.56-.5-.86-1.57-.91v-.3q.24-.01.39-.01 1.92 0 2.94 1.17 1.02 1.17 1.02 2.84 0 1.55-.85 2.64-.84 1.09-1.99 1.09-1.26 0-2.38-1.55-.73.93-1.23 1.24t-1.11.31q-1.3 0-2.11-1.14-.8-1.14-.8-2.59 0-1.72 1.05-2.87 1.05-1.15 2.97-1.15.11 0 .34.01z" transform="scale(.96 1.04)"/>
<path d="m45.21 21.54q0 1.09-.31 2.04-.18.58-.49.95-.31.37-.7.59-.39.21-.85.21-.53 0-.95-.27-.42-.27-.75-.77-.24-.37-.41-.97-.23-.82-.23-1.7 0-1.19.33-2.18.27-.82.83-1.26.56-.44 1.18-.44.63 0 1.18.44.55.43.81 1.16.36 1 .36 2.2zm-1.65-.01q0-1.91-.02-2.23-.05-.75-.26-1.01-.13-.17-.44-.17-.23 0-.37.13-.2.19-.27.67-.07.47-.07 3.31 0 1.55.11 2.07.08.38.23.51.15.13.4.13.27 0 .4-.17.23-.3.26-.93z" transform="scale(1.02 .99)"/>
<path d="m217.28 60.04v.24q-1.69 0-1.69 2.86 0 1.1.25 1.79.25.69.76.69.31 0 .58-.25.28-.25.64-.79-.63-1.52-.63-2.38 0-.51.21-.84.22-.33.6-.33.38 0 .6.32t.22.9q0 .71-.4 1.75-.17.43-.22.58.73 1.05 1.18 1.05 1.03 0 1.03-2.53 0-1.38-.41-2.08-.41-.7-1.28-.74v-.24q.2-.01.32-.01 1.56 0 2.39.95.83.95.83 2.31 0 1.26-.69 2.15-.69.88-1.62.88-1.02 0-1.93-1.26-.59.76-1 1.01t-.9.25q-1.05 0-1.71-.93-.65-.93-.65-2.1 0-1.4.85-2.33.86-.93 2.41-.93.09 0 .27.01z" transform="scale(1.02 .98)"/>
<g fill="none" stroke="#000">
<g transform="translate(0 -972.36)">
<path d="m25.5 1033.2v-19.77"/>
<path d="m22.15 1018.3 3.27-5.04 3.45 5.13"/>
<path d="m25.5 984.59v19.77"/>
<path d="m22.21 999.45 3.27 5.04 3.45-5.13"/>
</g>
<path d="m14.38 33.5h15.5"/>
</g>
</svg>
