<svg height="80" width="430" xmlns="http://www.w3.org/2000/svg">
<path d="m14.5 1006.4v12l400.5 12v-36z" fill="#f00" fill-opacity=".16" transform="translate(0 -972.36)"/>
<path d="m14.5 1006.4v12l401 26v-64z" fill="#f00" fill-opacity=".16" transform="translate(0 -972.36)"/>
<path d="m413.24 39.5h-397.24" fill="none" stroke="#7f7f7f" stroke-dasharray="8 2 1 2"/>
<g transform="translate(0 -972.36)">
<path d="m0 1026.9h14.5v-30h-14.5" fill-opacity=".16" stroke="#7f7f7f"/>
<path d="m3.95 1022.4q0-.97.69-1.55.69-.59 2.08-.59 1.37 0 2.08.59.71.58.71 1.56 0 .6-.23 1-.23.39-.55.61v.06q.17-.01.43-.03.26-.03.45-.03h2.2v.86h-7.76v-.7l.73-.12v-.04q-.35-.23-.59-.61-.24-.38-.24-1.01zm.74.16q0 .8.46 1.13t1.4.34h.17q.99 0 1.53-.31.53-.32.53-1.18 0-.47-.26-.78-.27-.31-.74-.46-.47-.16-1.07-.16-.92 0-1.47.35-.55.34-.55 1.06zm-.64-8.32h5.36v.7l-.71.13v.04q.42.25.62.7.19.45.19.96 0 .95-.46 1.42-.47.48-1.49.48h-3.51v-.87h3.45q1.28 0 1.28-1.16 0-.87-.5-1.2-.5-.34-1.44-.34h-2.79zm-.1-7.39q0-.89.47-1.33.47-.44 1.5-.44h3.49v.85h-3.45q-1.27 0-1.27 1.06 0 .76.45 1.09.45.32 1.31.32h2.96v.85h-3.45q-1.27 0-1.27 1.07 0 .79.5 1.09t1.44.3h2.78v.86h-5.36v-.69l.73-.13v-.05q-.42-.24-.62-.65-.21-.42-.21-.89 0-1.23.9-1.6v-.05q-.46-.26-.68-.71t-.22-.97zm-.02-6.39q0-.96.69-1.55.69-.59 2.08-.59 1.37 0 2.08.59.71.58.71 1.56 0 .6-.23 1-.23.39-.55.61v.06q.17-.01.43-.03.26-.03.45-.03h2.2v.86h-7.76v-.7l.73-.12v-.04q-.35-.23-.59-.61-.24-.38-.24-1.01zm.74.16q0 .8.46 1.13.46.33 1.4.34h.17q.99 0 1.53-.31.53-.32.53-1.18 0-.47-.26-.78-.27-.31-.74-.46-.47-.16-1.07-.16-.92 0-1.47.35-.55.34-.55 1.06z"/>
</g>
<path d="m430 1046.9h-14.5v-69h14.5" fill-opacity=".16" stroke="#7f7f7f" transform="translate(0 -972.36)"/>
<path d="m-1026.2 424.86q0 .82-.61 1.24-.61.42-1.64.42-.59 0-1.02-.09-.42-.09-.75-.26v-.84q.34.17.81.32.48.14.98.14.71 0 1.02-.22.32-.23.32-.61 0-.21-.12-.38-.12-.17-.42-.34-.3-.17-.85-.38-.55-.21-.94-.42-.39-.21-.6-.51t-.21-.76q0-.72.58-1.11.59-.39 1.54-.39.52 0 .96.11.45.11.84.27l-.32.74q-.36-.15-.75-.25-.39-.11-.8-.11-.57 0-.87.19-.3.18-.3.5 0 .24.14.4.14.16.45.32.33.16.86.36.54.2.92.41.38.21.58.52.2.3.2.75zm3.64 1.67q-.76 0-1.34-.31-.58-.31-.92-.95-.33-.64-.33-1.64 0-1.04.34-1.7.35-.65.95-.96t1.36-.31q.42 0 .82.09.41.08.66.21l-.28.77q-.25-.09-.59-.18-.34-.08-.63-.08-1.67 0-1.67 2.14 0 1.02.4 1.57.41.54 1.21.54.45 0 .81-.09t.65-.23v.82q-.28.15-.63.22-.34.08-.82.08zm4.28-8.12v2.35q0 .42-.05.79h.06q.27-.43.74-.65.47-.22 1.02-.22 1.02 0 1.54.5.53.48.53 1.57v3.68h-.92v-3.62q0-1.36-1.26-1.36-.95 0-1.31.54-.35.53-.35 1.52v2.92h-.93v-8.01zm7.77 2.26q.72 0 1.24.32t.8.9q.28.57.28 1.34v.56h-3.87q.02.96.48 1.47.47.5 1.32.5.54 0 .95-.09.42-.11.86-.3v.81q-.43.19-.85.27-.42.09-1 .09-.81 0-1.42-.33-.61-.33-.96-.97-.34-.64-.34-1.59 0-.93.31-1.59.32-.66.87-1.02.57-.36 1.32-.36zm-.01.76q-.66 0-1.05.43-.38.42-.45 1.18h2.88q-.01-.72-.34-1.16-.33-.45-1.03-.45zm9.97-.76q.96 0 1.43.5t.47 1.58v3.68h-.92v-3.64q0-1.34-1.15-1.34-.82 0-1.18.47-.35.47-.35 1.38v3.12h-.92v-3.64q0-1.34-1.16-1.34-.85 0-1.18.53-.33.53-.33 1.52v2.93h-.93v-5.65h.75l.14.77h.05q.26-.44.71-.65.45-.22.96-.22 1.33 0 1.73.95h.05q.28-.48.77-.72.48-.23 1.04-.23zm6.19.01q1.03 0 1.53.45.5.45.5 1.44v3.85h-.67l-.18-.8h-.04q-.37.46-.78.69-.41.22-1.12.22-.77 0-1.28-.4-.51-.41-.51-1.28 0-.84.66-1.3.66-.46 2.04-.51l.96-.03v-.34q0-.71-.31-.98t-.86-.27q-.44 0-.84.14-.4.13-.75.3l-.28-.7q.37-.2.87-.34.51-.15 1.05-.15zm1.11 2.98-.83.03q-1.05.04-1.47.34-.4.3-.4.83 0 .47.28.7.3.22.75.22.71 0 1.18-.39.48-.4.48-1.22z" transform="matrix(0 -1 1 0 0 -972.36)"/>
<g opacity=".5">
<path d="m304.85 25.51 10.65-.31-.49-9.86m-2.14 3.41 2.1-3.71 2.4 3.34" fill="none" stroke="#000"/>
<path d="m339.69 22.38 2.88-6.98h4.31v.29h-.34q-.47 0-.75.16-.2.11-.31.37-.09.19-.09.98v6.98q0 .81.09 1.02t.35.36q.27.15.71.15h.34v.29h-5.53v-.29h.34q.47 0 .75-.16.2-.11.31-.38.09-.19.09-.98v-7.85l-4.06 9.66h-.19l-4.13-9.59v7.46q0 .78.04.96.1.39.44.64.34.24 1.07.24v.29h-3.63v-.29h.11q.35.01.66-.11.3-.13.46-.33t.24-.57q.02-.09.02-.8v-6.7q0-.8-.09-1-.09-.2-.35-.35-.27-.16-.71-.16h-.34v-.29h4.33zm11.53-1.58h-3.87v-.14q1.77-1.84 2.09-2.42.32-.59.32-1.09 0-.4-.27-.66-.27-.27-.67-.27-.66 0-1.05.64l-.33-.1q.25-.79.77-1.18.52-.4 1.24-.4.81 0 1.31.45.5.45.5.98 0 .48-.41 1.13-.4.65-1.9 1.91h1.19q.57 0 .71-.07.14-.07.28-.34.04-.08.06-.11h.36z" transform="scale(.96 1.04)"/>
<path d="m411.14 1.16c1.23 12.78 1.86 25.74 1.86 38.84 0 12.85-.61 25.55-1.79 38.09" fill="none" stroke="#d88686" stroke-width="3"/>
<path d="m405.61 68.08 4.81 3.59-5.34 3.1" fill="none" stroke="#000"/>
<path d="m371.96 58.73v2.97q0 .86.1 1.09.11.22.38.35.27.13.99.13v.29h-5.42v-.29q.73 0 .99-.13.27-.14.37-.36.11-.22.11-1.08v-6.88q0-.86-.11-1.08-.1-.23-.37-.36-.27-.13-.99-.13v-.29h4.92q1.92 0 2.81.27.89.27 1.45.98.56.71.56 1.67 0 1.17-.84 1.94-.54.48-1.51.73l2.55 3.59q.5.7.71.87.32.24.74.27v.29h-3.34l-3.41-4.83zm0-5.2v4.64h.45q1.09 0 1.63-.2.54-.2.84-.72.31-.52.31-1.36 0-1.21-.57-1.79-.56-.58-1.82-.58z" transform="scale(.96 1.04)"/>
<path d="m410.56 71.6-114.64-7.34" fill="none" stroke="#000"/>
</g>
<path d="m392.21 17.24v.3q-2.08 0-2.08 3.52 0 1.35.3 2.2.31.85.93.85.38 0 .72-.3.34-.3.79-.97-.78-1.88-.78-2.93 0-.63.26-1.03.27-.41.74-.41.47 0 .73.39.27.39.27 1.1 0 .88-.49 2.15-.21.53-.27.71.9 1.29 1.45 1.29 1.27 0 1.27-3.11 0-1.7-.51-2.56-.5-.86-1.57-.91v-.3q.24-.01.39-.01 1.92 0 2.94 1.17 1.02 1.17 1.02 2.84 0 1.55-.85 2.64-.84 1.09-1.99 1.09-1.26 0-2.38-1.55-.73.93-1.23 1.24t-1.11.31q-1.3 0-2.11-1.14-.8-1.14-.8-2.59 0-1.72 1.05-2.87 1.05-1.15 2.97-1.15.11 0 .34.01z" opacity=".5" transform="scale(.96 1.04)"/>
<path d="m186.13 32.14q-.54.56-1 .79-.62.32-1.28.32-1.55 0-2.44-1.38-.71-1.1-.71-2.63 0-1.27.54-2.39.54-1.13 1.49-1.71.95-.6 2-.6.7 0 1.25.24.55.24.95.72l1.38-.96h.3v10.64q0 .81.14 1.01.23.33.92.33v.33h-4.75v-.33q.54 0 .79-.12.25-.12.33-.33.1-.2.1-.83zm0-.8v-3.38q0-1.42-.16-1.87-.15-.46-.56-.79-.21-.17-.54-.17-.67 0-1.04.59-.58.91-.58 3.37 0 1.89.5 2.65.34.52.89.52.32 0 .71-.22.4-.22.77-.69zm9.67-10.53v.4q-.91.6-1.34 1.17-.6.79-.93 2.03-.42 1.54-.42 4.3 0 2.6.38 4.04.39 1.44 1.05 2.33.46.62 1.27 1.08v.44q-2.12-.71-3.59-2.91-1.47-2.19-1.47-5.04 0-2.81 1.47-4.97 1.47-2.17 3.59-2.87zm5.8 3.74v.33q-2.34 0-2.34 3.96 0 1.52.34 2.48.35.96 1.05.96.43 0 .81-.34.39-.34.89-1.09-.88-2.11-.88-3.3 0-.71.29-1.16.3-.46.83-.46.53 0 .83.44t.3 1.24q0 .98-.55 2.42-.24.6-.31.8 1.01 1.45 1.63 1.45 1.43 0 1.43-3.5 0-1.92-.57-2.88-.56-.97-1.77-1.02v-.33q.27-.01.44-.01 2.16 0 3.3 1.32 1.15 1.32 1.15 3.2 0 1.74-.96 2.97-.95 1.22-2.24 1.22-1.42 0-2.67-1.75-.82 1.05-1.38 1.4-.56.35-1.25.35-1.46 0-2.37-1.28-.91-1.28-.91-2.91 0-1.93 1.18-3.23 1.19-1.29 3.34-1.29.12 0 .38.01zm8.46 11.61v-.39q1.02-.44 1.48-1.14.47-.69.47-1.42 0-.15-.06-.23-.06-.07-.12-.07-.05 0-.16.06-.25.15-.63.15-.52 0-.91-.4-.38-.4-.38-.95 0-.58.44-1.02t1.06-.44q.76 0 1.29.59.54.58.54 1.6 0 1.26-.76 2.23-.76.98-2.25 1.43zm12.89-8.59v3.34q0 .97.11 1.22.12.25.42.4t1.12.15v.33h-6.1v-.33q.83 0 1.12-.15.3-.16.41-.4.12-.25.12-1.21v-7.73q0-.97-.12-1.21-.11-.25-.41-.4-.3-.15-1.12-.15v-.33h5.54q2.16 0 3.16.3 1 .3 1.63 1.11.63.8.63 1.88 0 1.32-.95 2.18-.61.54-1.7.82l2.87 4.03q.56.78.8.98.36.27.83.3v.33h-3.75l-3.84-5.43zm0-5.84v5.22h.5q1.22 0 1.83-.22.61-.23.95-.81.35-.59.35-1.53 0-1.36-.64-2.01-.63-.65-2.05-.65zm9.11 14.43v-.39q1.02-.44 1.48-1.14.47-.69.47-1.42 0-.15-.06-.23-.06-.07-.12-.07-.05 0-.16.06-.25.15-.63.15-.52 0-.91-.4-.38-.4-.38-.95 0-.58.44-1.02.44-.44 1.06-.44.76 0 1.29.59.54.58.54 1.6 0 1.26-.76 2.23-.76.98-2.25 1.43zm16.68-7.22 3.23-7.86h4.85v.33h-.39q-.53 0-.84.18-.22.12-.35.41-.1.21-.1 1.1v7.86q0 .91.1 1.14.1.23.4.4.3.17.8.17h.39v.33h-6.22v-.33h.39q.53 0 .84-.18.22-.12.35-.42.1-.21.1-1.11v-8.83l-4.57 10.87h-.21l-4.64-10.79v8.39q0 .88.04 1.08.11.44.49.72.39.27 1.2.27v.33h-4.08v-.33h.12q.4.01.74-.12.34-.14.52-.37.18-.23.27-.64.02-.1.02-.9v-7.54q0-.91-.1-1.13-.1-.23-.4-.4-.3-.18-.8-.18h-.38v-.33h4.87zm8.63 7.66v-.4q.91-.61 1.34-1.18.59-.79.93-2.02.42-1.55.42-4.31 0-2.6-.39-4.03-.38-1.44-1.04-2.33-.46-.62-1.27-1.08v-.44q2.12.71 3.59 2.91 1.48 2.19 1.48 5.04 0 2.8-1.48 4.97-1.47 2.17-3.59 2.88z"/>
<circle cx="411.715" cy="39.355" r="2.915" stroke-width=".11"/>
<g fill="none" opacity=".5" stroke="#000">
<path d="m384.21 33.08 3.27 5.04 3.45-5.13"/>
<path d="m387.5 8.22v29.77"/>
<path d="m384 7.5h31"/>
<path d="m384.21 13.53 3.27-5.04 3.45 5.13"/>
</g>
</svg>
