<?xml version="1.0" encoding="UTF-8"?>
<!-- Created with Inkscape (http://www.inkscape.org/) -->
<svg width="375" height="105" version="1.1" viewBox="0 0 375 105" xmlns="http://www.w3.org/2000/svg" xmlns:cc="http://creativecommons.org/ns#" xmlns:dc="http://purl.org/dc/elements/1.1/" xmlns:rdf="http://www.w3.org/1999/02/22-rdf-syntax-ns#" xmlns:xlink="http://www.w3.org/1999/xlink">
 <defs>
  <linearGradient id="linearGradient1774" x1="48.9" x2="103" y1="17.9" y2="63" gradientTransform="matrix(1.06 0 0 1.27 -29.8 -11.4)" gradientUnits="userSpaceOnUse">
   <stop stop-color="#fdffff" offset="0"/>
   <stop stop-color="#cfcfff" offset="1"/>
  </linearGradient>
  <linearGradient id="linearGradient1782" x1="67.1" x2="124" y1="23.1" y2="80.4" gradientTransform="translate(-44.8 -11.7)" gradientUnits="userSpaceOnUse">
   <stop stop-color="#a4c8f0" offset="0"/>
   <stop stop-color="#737ba6" offset="1"/>
  </linearGradient>
 </defs>
 <metadata>
  <rdf:RDF>
   <cc:Work rdf:about="">
    <dc:format>image/svg+xml</dc:format>
    <dc:type rdf:resource="http://purl.org/dc/dcmitype/StillImage"/>
   </cc:Work>
  </rdf:RDF>
 </metadata>
 <g transform="translate(0 -184)" display="none">
  <rect y="184" width="375" height="105" stroke-width="1.09"/>
 </g>
 <g>
  <path d="m31.6 45.3q-1.55-1.42-3.65-2.13-2.07-0.71-4.55-0.71-3 0-5.26 1.07-2.23 1.03-3.46 3.04-0.775 1.23-1.1 2.97-0.291 1.74-0.291 5.3v16.7h-9.46v-36.2h9.46v5.62q1.39-3.1 4.26-4.78 2.87-1.71 6.72-1.71 1.94 0 3.78 0.484 1.87 0.452 3.55 1.36zm38.2 24.4q-3.29 1.36-6.72 2.03-3.42 0.678-7.23 0.678-9.07 0-13.9-4.84-4.78-4.88-4.78-14 0-8.85 4.62-14 4.62-5.13 12.6-5.13 8.04 0 12.5 4.78 4.46 4.75 4.46 13.4v3.84h-24.5q0.0323 4.26 2.52 6.36 2.49 2.1 7.43 2.1 3.26 0 6.43-0.936 3.16-0.936 6.62-2.97zm-8.01-20.3q-0.0646-3.75-1.94-5.65-1.84-1.94-5.46-1.94-3.26 0-5.2 2-1.94 1.97-2.29 5.62zm93.6-7.23q-3.39 0-5.33 3-1.94 2.97-1.94 8.3t1.94 8.33q1.94 2.97 5.33 2.97 3.42 0 5.36-2.97 1.94-3 1.94-8.33t-1.94-8.3q-1.94-3-5.36-3zm-16.7 11.3q0-8.75 4.52-13.9 4.55-5.13 12.2-5.13 7.69 0 12.2 5.13 4.55 5.1 4.55 13.9t-4.55 13.9q-4.52 5.1-12.2 5.1-7.65 0-12.2-5.1-4.52-5.13-4.52-13.9zm71.2-5.43v23.5h-9.4v-22q0-3.94-1.13-5.62-1.1-1.71-3.62-1.71-2.55 0-4.04 2.29-1.45 2.29-1.45 6.36v20.7h-9.4v-36.2h9.4v5.43q1-3 3.42-4.65 2.42-1.65 5.85-1.65 5.13 0 7.75 3.42 2.62 3.39 2.62 10.1zm27.8 6.49q-5.3 0-7.4 1.36-2.1 1.36-2.1 4.65 0 2.45 1.45 3.91 1.45 1.45 3.94 1.45 3.75 0 5.81-2.81 2.07-2.84 2.07-7.91v-0.646zm13.2-3.65v20.6h-9.4v-4.04q-1.71 2.39-4.39 3.68t-5.91 1.29q-6.17 0-9.62-3.26-3.42-3.26-3.42-9.11 0-6.33 4.1-9.33 4.1-3.04 12.7-3.04h6.56v-1.58q0-2.29-1.68-3.46-1.65-1.19-4.88-1.19-3.39 0-6.59 0.872-3.16 0.84-6.62 2.71v-8.07q3.13-1.29 6.36-1.91t6.85-0.614q8.82 0 12.4 3.58 3.58 3.58 3.58 12.8zm26.3-25.8v10.3h12.4v7.27h-12.4v17.1q0 2.42 1.16 3.49 1.19 1.03 3.94 1.03h7.27v7.27h-7.94q-8.14 0-11-2.58-2.87-2.62-2.87-9.66v-16.7h-9.24v-7.27h9.24v-10.3zm37.4 17.1q-3.39 0-5.33 3-1.94 2.97-1.94 8.3t1.94 8.33q1.94 2.97 5.33 2.97 3.42 0 5.36-2.97 1.94-3 1.94-8.33t-1.94-8.3q-1.94-3-5.36-3zm-16.7 11.3q0-8.75 4.52-13.9 4.55-5.13 12.2-5.13 7.69 0 12.2 5.13 4.55 5.1 4.55 13.9t-4.55 13.9q-4.52 5.1-12.2 5.1-7.65 0-12.2-5.1-4.52-5.13-4.52-13.9zm73.8-8.14q-1.55-1.42-3.65-2.13-2.07-0.71-4.55-0.71-3 0-5.26 1.07-2.23 1.03-3.46 3.04-0.775 1.23-1.1 2.97-0.291 1.74-0.291 5.3v16.7h-9.46v-36.2h9.46v5.62q1.39-3.1 4.26-4.78 2.87-1.71 6.72-1.71 1.94 0 3.78 0.484 1.87 0.452 3.55 1.36z" fill="#fff2f2" fill-opacity=".742" stroke-opacity=".215" stroke-width="2" aria-label="re  onator"/>
 </g>
 <g>
  <g transform="matrix(1.14 0 0 1.14 46.1 -5.21)">
   <rect x="16.2" y="7.23" width="67.5" height="67.5" ry="9.22" fill="url(#linearGradient1774)" stroke="url(#linearGradient1782)" stroke-linejoin="round" stroke-width="1.76"/>
   <g transform="matrix(.265 0 0 .265 17.9 9.76)" fill-rule="evenodd">
    <path d="m127 130 47-63.4h-134v-24h179v28.6l-85.5 65.4-48.4 57.9h127l-0.351 24h-178v-29.3z" fill-opacity=".822"/>
    <path d="m126 127 47-63.4h-128v-24h173v28.6l-85.5 65.4-48.4 57.9h127l-0.351 24h-178v-29.3z" fill="#f00" fill-opacity=".988"/>
    <path d="m33 24h24v56h-24z" fill-opacity=".328"/>
    <path d="m33 24h12v56h-12z" fill-opacity=".717"/>
    <path transform="scale(-1,1)" d="m-223 176h24v56h-24z" fill-opacity=".328"/>
    <path transform="scale(-1,1)" d="m-223 176h12v56h-12z" fill-opacity=".717"/>
    <path d="m68.9 83h42.4l78 90h-42.4z" fill="#49b7ff" fill-opacity=".65" stroke="#49b7ff" stroke-linecap="square" stroke-width="6"/>
   </g>
  </g>
  <path d="m30.8 44.8q-1.55-1.42-3.65-2.13-2.07-0.71-4.55-0.71-3 0-5.26 1.07-2.23 1.03-3.46 3.04-0.775 1.23-1.1 2.97-0.291 1.74-0.291 5.3v16.7h-9.46v-36.2h9.46v5.62q1.39-3.1 4.26-4.78 2.87-1.71 6.72-1.71 1.94 0 3.78 0.484 1.87 0.452 3.55 1.36zm38.2 24.4q-3.29 1.36-6.72 2.03-3.42 0.678-7.23 0.678-9.07 0-13.9-4.84-4.78-4.88-4.78-14 0-8.85 4.62-14 4.62-5.13 12.6-5.13 8.04 0 12.5 4.78 4.46 4.75 4.46 13.4v3.84h-24.5q0.0323 4.26 2.52 6.36 2.49 2.1 7.43 2.1 3.26 0 6.43-0.936 3.16-0.936 6.62-2.97zm-8.01-20.3q-0.0646-3.75-1.94-5.65-1.84-1.94-5.46-1.94-3.26 0-5.2 2-1.94 1.97-2.29 5.62zm93.6-7.23q-3.39 0-5.33 3-1.94 2.97-1.94 8.3t1.94 8.33q1.94 2.97 5.33 2.97 3.42 0 5.36-2.97 1.94-3 1.94-8.33t-1.94-8.3q-1.94-3-5.36-3zm-16.7 11.3q0-8.75 4.52-13.9 4.55-5.13 12.2-5.13 7.69 0 12.2 5.13 4.55 5.1 4.55 13.9t-4.55 13.9q-4.52 5.1-12.2 5.1-7.65 0-12.2-5.1-4.52-5.13-4.52-13.9zm71.2-5.43v23.5h-9.4v-22q0-3.94-1.13-5.62-1.1-1.71-3.62-1.71-2.55 0-4.04 2.29-1.45 2.29-1.45 6.36v20.7h-9.4v-36.2h9.4v5.43q1-3 3.42-4.65 2.42-1.65 5.85-1.65 5.13 0 7.75 3.42 2.62 3.39 2.62 10.1zm27.8 6.49q-5.3 0-7.4 1.36-2.1 1.36-2.1 4.65 0 2.45 1.45 3.91 1.45 1.45 3.94 1.45 3.75 0 5.81-2.81 2.07-2.84 2.07-7.91v-0.646zm13.2-3.65v20.6h-9.4v-4.04q-1.71 2.39-4.39 3.68t-5.91 1.29q-6.17 0-9.62-3.26-3.42-3.26-3.42-9.11 0-6.33 4.1-9.33 4.1-3.04 12.7-3.04h6.56v-1.58q0-2.29-1.68-3.46-1.65-1.19-4.88-1.19-3.39 0-6.59 0.872-3.16 0.84-6.62 2.71v-8.07q3.13-1.29 6.36-1.91t6.85-0.614q8.82 0 12.4 3.58 3.58 3.58 3.58 12.8zm26.3-25.8v10.3h12.4v7.27h-12.4v17.1q0 2.42 1.16 3.49 1.19 1.03 3.94 1.03h7.27v7.27h-7.94q-8.14 0-11-2.58-2.87-2.62-2.87-9.66v-16.7h-9.24v-7.27h9.24v-10.3zm37.4 17.1q-3.39 0-5.33 3-1.94 2.97-1.94 8.3t1.94 8.33q1.94 2.97 5.33 2.97 3.42 0 5.36-2.97 1.94-3 1.94-8.33t-1.94-8.3q-1.94-3-5.36-3zm-16.7 11.3q0-8.75 4.52-13.9 4.55-5.13 12.2-5.13 7.69 0 12.2 5.13 4.55 5.1 4.55 13.9t-4.55 13.9q-4.52 5.1-12.2 5.1-7.65 0-12.2-5.1-4.52-5.13-4.52-13.9zm73.8-8.14q-1.55-1.42-3.65-2.13-2.07-0.71-4.55-0.71-3 0-5.26 1.07-2.23 1.03-3.46 3.04-0.775 1.23-1.1 2.97-0.291 1.74-0.291 5.3v16.7h-9.46v-36.2h9.46v5.62q1.39-3.1 4.26-4.78 2.87-1.71 6.72-1.71 1.94 0 3.78 0.484 1.87 0.452 3.55 1.36z" fill="#f00" fill-opacity=".994" stroke="#fdfdfe" stroke-opacity=".215" stroke-width="2" aria-label="re  onator"/>
  <path transform="scale(1.03 .969)" d="m9.12 92.8v-5.66h1.8v15.2h-1.8v-1.38q-0.45 0.811-1.2 1.24-0.743 0.42-1.72 0.42-1.98 0-3.13-1.53-1.13-1.54-1.13-4.25 0-2.67 1.14-4.18 1.14-1.52 3.12-1.52 0.987 0 1.74 0.43 0.753 0.42 1.18 1.23zm-5.29 4.09q0 2.09 0.665 3.16 0.665 1.07 1.96 1.07t1.97-1.08q0.684-1.07 0.684-3.15 0-2.08-0.684-3.15-0.674-1.08-1.97-1.08t-1.96 1.07q-0.665 1.07-0.665 3.16zm19.8-0.459v0.88h-7.79v0.0586q0 1.79 0.928 2.77 0.938 0.977 2.64 0.977 0.86 0 1.8-0.274t2-0.831v1.79q-1.03 0.42-1.98 0.625-0.948 0.215-1.84 0.215-2.55 0-3.99-1.52-1.44-1.53-1.44-4.22 0-2.62 1.41-4.18 1.41-1.56 3.75-1.56 2.09 0 3.29 1.42 1.21 1.42 1.21 3.87zm-1.8-0.528q-0.0391-1.58-0.753-2.4-0.704-0.831-2.03-0.831-1.3 0-2.14 0.86-0.84 0.86-0.997 2.38zm12.5-4.11v1.76q-0.772-0.45-1.55-0.674t-1.59-0.225q-1.22 0-1.83 0.401-0.596 0.391-0.596 1.2 0 0.733 0.45 1.09 0.45 0.362 2.24 0.704l0.723 0.137q1.34 0.254 2.02 1.02 0.694 0.762 0.694 1.98 0 1.62-1.15 2.54-1.15 0.909-3.21 0.909-0.811 0-1.7-0.176-0.889-0.166-1.93-0.508v-1.86q1.01 0.518 1.93 0.782 0.919 0.254 1.74 0.254 1.19 0 1.85-0.479 0.655-0.489 0.655-1.36 0-1.25-2.39-1.73l-0.0782-0.0195-0.674-0.137q-1.55-0.303-2.27-1.02-0.713-0.723-0.713-1.96 0-1.57 1.07-2.42 1.07-0.86 3.04-0.86 0.88 0 1.69 0.166 0.811 0.156 1.59 0.479zm5.04-0.381h4.6v9.55h3.57v1.4h-8.93v-1.4h3.57v-8.15h-2.8zm2.8-4.26h1.8v2.28h-1.8zm15.1 9.65q0-2.02-0.665-3.07-0.655-1.06-1.92-1.06-1.32 0-2.01 1.06-0.694 1.05-0.694 3.07 0 2.02 0.694 3.09 0.704 1.06 2.03 1.06 1.24 0 1.9-1.07 0.665-1.07 0.665-3.08zm1.8 4.86q0 2.46-1.16 3.73-1.16 1.27-3.42 1.27-0.743 0-1.55-0.137-0.811-0.137-1.62-0.401v-1.78q0.958 0.45 1.74 0.665 0.782 0.215 1.44 0.215 1.46 0 2.12-0.792t0.665-2.51v-1.3q-0.43 0.919-1.17 1.37-0.743 0.45-1.81 0.45-1.92 0-3.06-1.53-1.14-1.53-1.14-4.1 0-2.58 1.14-4.11 1.14-1.53 3.06-1.53 1.06 0 1.79 0.42 0.733 0.42 1.19 1.3v-1.42h1.8zm12.1-6.08v6.78h-1.81v-6.78q0-1.48-0.518-2.17-0.518-0.694-1.62-0.694-1.26 0-1.94 0.899-0.674 0.889-0.674 2.56v6.19h-1.8v-10.9h1.8v1.64q0.479-0.938 1.3-1.42 0.821-0.489 1.94-0.489 1.67 0 2.49 1.1 0.831 1.09 0.831 3.32zm12.6 0.86v0.88h-7.79v0.0586q0 1.79 0.928 2.77 0.938 0.977 2.64 0.977 0.86 0 1.8-0.274 0.938-0.274 2-0.831v1.79q-1.03 0.42-1.98 0.625-0.948 0.215-1.84 0.215-2.55 0-3.99-1.52-1.44-1.53-1.44-4.22 0-2.62 1.41-4.18 1.41-1.56 3.75-1.56 2.09 0 3.29 1.42 1.21 1.42 1.21 3.87zm-1.8-0.528q-0.0391-1.58-0.753-2.4-0.704-0.831-2.03-0.831-1.3 0-2.14 0.86-0.84 0.86-0.997 2.38zm11.4-3.1v-5.66h1.8v15.2h-1.8v-1.38q-0.45 0.811-1.2 1.24-0.743 0.42-1.72 0.42-1.98 0-3.13-1.53-1.13-1.54-1.13-4.25 0-2.67 1.14-4.18 1.14-1.52 3.12-1.52 0.987 0 1.74 0.43 0.753 0.42 1.18 1.23zm-5.29 4.09q0 2.09 0.665 3.16 0.665 1.07 1.96 1.07t1.97-1.08q0.684-1.07 0.684-3.15 0-2.08-0.684-3.15-0.674-1.08-1.97-1.08t-1.96 1.07q-0.665 1.07-0.665 3.16zm31.4-9.74v1.5h-2.04q-0.968 0-1.35 0.401-0.371 0.391-0.371 1.4v0.968h3.76v1.4h-3.76v9.55h-1.8v-9.55h-2.92v-1.4h2.92v-0.762q0-1.8 0.821-2.65 0.831-0.85 2.58-0.85zm7.68 5.52q-1.37 0-2.07 1.07-0.704 1.07-0.704 3.16 0 2.08 0.704 3.16 0.704 1.07 2.07 1.07 1.38 0 2.08-1.07 0.704-1.08 0.704-3.16 0-2.09-0.704-3.16-0.704-1.07-2.08-1.07zm0-1.52q2.28 0 3.48 1.48 1.21 1.48 1.21 4.27 0 2.8-1.2 4.28-1.2 1.47-3.49 1.47-2.28 0-3.48-1.47-1.2-1.48-1.2-4.28 0-2.8 1.2-4.27 1.2-1.48 3.48-1.48zm17.3 2.52q-0.577-0.45-1.17-0.655-0.596-0.205-1.31-0.205-1.68 0-2.57 1.06-0.889 1.06-0.889 3.05v5.44h-1.81v-10.9h1.81v2.14q0.45-1.16 1.38-1.78 0.938-0.625 2.22-0.625 0.665 0 1.24 0.166 0.577 0.166 1.1 0.518zm24.1 0q-0.577-0.45-1.17-0.655-0.596-0.205-1.31-0.205-1.68 0-2.57 1.06-0.889 1.06-0.889 3.05v5.44h-1.81v-10.9h1.81v2.14q0.45-1.16 1.38-1.78 0.938-0.625 2.22-0.625 0.665 0 1.24 0.166 0.577 0.166 1.1 0.518zm11.6 2.77v0.88h-7.79v0.0586q0 1.79 0.928 2.77 0.938 0.977 2.64 0.977 0.86 0 1.8-0.274 0.938-0.274 2-0.831v1.79q-1.03 0.42-1.98 0.625-0.948 0.215-1.84 0.215-2.55 0-3.99-1.52-1.44-1.53-1.44-4.22 0-2.62 1.41-4.18 1.41-1.56 3.75-1.56 2.09 0 3.29 1.42 1.21 1.42 1.21 3.87zm-1.8-0.528q-0.0391-1.58-0.753-2.4-0.704-0.831-2.03-0.831-1.3 0-2.14 0.86-0.84 0.86-0.997 2.38zm12.5-4.11v1.76q-0.772-0.45-1.55-0.674t-1.59-0.225q-1.22 0-1.83 0.401-0.596 0.391-0.596 1.2 0 0.733 0.45 1.09t2.24 0.704l0.723 0.137q1.34 0.254 2.02 1.02 0.694 0.762 0.694 1.98 0 1.62-1.15 2.54-1.15 0.909-3.21 0.909-0.811 0-1.7-0.176-0.889-0.166-1.93-0.508v-1.86q1.01 0.518 1.93 0.782 0.919 0.254 1.74 0.254 1.19 0 1.85-0.479 0.655-0.489 0.655-1.36 0-1.25-2.39-1.73l-0.0782-0.0195-0.674-0.137q-1.55-0.303-2.27-1.02-0.713-0.723-0.713-1.96 0-1.57 1.07-2.42 1.07-0.86 3.04-0.86 0.88 0 1.69 0.166 0.811 0.156 1.59 0.479zm8.56 0.88q-1.37 0-2.07 1.07-0.704 1.07-0.704 3.16 0 2.08 0.704 3.16 0.704 1.07 2.07 1.07 1.38 0 2.08-1.07 0.704-1.08 0.704-3.16 0-2.09-0.704-3.16-0.704-1.07-2.08-1.07zm0-1.52q2.28 0 3.48 1.48 1.21 1.48 1.21 4.27 0 2.8-1.2 4.28-1.2 1.47-3.49 1.47-2.28 0-3.48-1.47-1.2-1.48-1.2-4.28 0-2.8 1.2-4.27 1.2-1.48 3.48-1.48zm16.3 4.43v6.78h-1.81v-6.78q0-1.48-0.518-2.17-0.518-0.694-1.62-0.694-1.26 0-1.94 0.899-0.674 0.889-0.674 2.56v6.19h-1.8v-10.9h1.8v1.64q0.479-0.938 1.3-1.42 0.821-0.489 1.94-0.489 1.67 0 2.49 1.1 0.831 1.09 0.831 3.32zm8.64 1.28h-0.596q-1.57 0-2.37 0.557-0.792 0.547-0.792 1.64 0 0.987 0.596 1.53 0.596 0.547 1.65 0.547 1.49 0 2.34-1.03 0.85-1.04 0.86-2.85v-0.401zm3.49-0.743v6.24h-1.81v-1.62q-0.577 0.977-1.46 1.45-0.87 0.459-2.12 0.459-1.67 0-2.67-0.938-0.997-0.948-0.997-2.53 0-1.83 1.22-2.78 1.23-0.948 3.61-0.948h2.41v-0.283q-0.01-1.31-0.665-1.9-0.655-0.596-2.09-0.596-0.919 0-1.86 0.264-0.938 0.264-1.83 0.772v-1.8q0.997-0.381 1.91-0.567 0.919-0.195 1.78-0.195 1.36 0 2.32 0.401 0.968 0.401 1.56 1.2 0.371 0.489 0.528 1.21 0.156 0.713 0.156 2.15zm7.7-7.81v3.11h4.09v1.4h-4.09v5.94q0 1.21 0.459 1.69 0.459 0.479 1.6 0.479h2.02v1.44h-2.2q-2.02 0-2.85-0.811-0.831-0.811-0.831-2.8v-5.94h-2.92v-1.4h2.92v-3.11zm12.1 4.37q-1.37 0-2.07 1.07-0.704 1.07-0.704 3.16 0 2.08 0.704 3.16 0.704 1.07 2.07 1.07 1.38 0 2.08-1.07 0.704-1.08 0.704-3.16 0-2.09-0.704-3.16-0.704-1.07-2.08-1.07zm0-1.52q2.28 0 3.48 1.48 1.21 1.48 1.21 4.27 0 2.8-1.2 4.28-1.2 1.47-3.49 1.47-2.28 0-3.48-1.47-1.2-1.48-1.2-4.28 0-2.8 1.2-4.27 1.2-1.48 3.48-1.48zm17.3 2.52q-0.577-0.45-1.17-0.655-0.596-0.205-1.31-0.205-1.68 0-2.57 1.06-0.889 1.06-0.889 3.05v5.44h-1.81v-10.9h1.81v2.14q0.45-1.16 1.38-1.78 0.938-0.625 2.22-0.625 0.665 0 1.24 0.166 0.577 0.166 1.1 0.518zm10.3-1.88v1.76q-0.772-0.45-1.55-0.674t-1.59-0.225q-1.22 0-1.83 0.401-0.596 0.391-0.596 1.2 0 0.733 0.45 1.09t2.24 0.704l0.723 0.137q1.34 0.254 2.02 1.02 0.694 0.762 0.694 1.98 0 1.62-1.15 2.54-1.15 0.909-3.21 0.909-0.811 0-1.7-0.176-0.889-0.166-1.93-0.508v-1.86q1.01 0.518 1.93 0.782 0.919 0.254 1.74 0.254 1.19 0 1.85-0.479 0.655-0.489 0.655-1.36 0-1.25-2.39-1.73l-0.0782-0.0195-0.674-0.137q-1.55-0.303-2.27-1.02-0.713-0.723-0.713-1.96 0-1.57 1.07-2.42 1.07-0.86 3.04-0.86 0.88 0 1.69 0.166 0.811 0.156 1.59 0.479zm23 1.02v-5.66h1.8v15.2h-1.8v-1.38q-0.45 0.811-1.2 1.24-0.743 0.42-1.72 0.42-1.98 0-3.13-1.53-1.13-1.54-1.13-4.25 0-2.67 1.14-4.18 1.14-1.52 3.12-1.52 0.987 0 1.74 0.43 0.752 0.42 1.18 1.23zm-5.29 4.09q0 2.09 0.665 3.16 0.665 1.07 1.96 1.07 1.3 0 1.97-1.08 0.684-1.07 0.684-3.15 0-2.08-0.684-3.15-0.674-1.08-1.97-1.08-1.3 0-1.96 1.07-0.665 1.07-0.665 3.16zm19.8-0.459v0.88h-7.79v0.0586q0 1.79 0.928 2.77 0.938 0.977 2.64 0.977 0.86 0 1.8-0.274 0.938-0.274 2-0.831v1.79q-1.03 0.42-1.98 0.625-0.948 0.215-1.84 0.215-2.55 0-3.99-1.52-1.44-1.53-1.44-4.22 0-2.62 1.41-4.18 1.41-1.56 3.75-1.56 2.09 0 3.29 1.42 1.21 1.42 1.21 3.87zm-1.8-0.528q-0.0391-1.58-0.752-2.4-0.704-0.831-2.03-0.831-1.3 0-2.14 0.86-0.84 0.86-0.997 2.38zm12.5-4.11v1.76q-0.772-0.45-1.55-0.674t-1.59-0.225q-1.22 0-1.83 0.401-0.596 0.391-0.596 1.2 0 0.733 0.45 1.09 0.45 0.362 2.24 0.704l0.723 0.137q1.34 0.254 2.02 1.02 0.694 0.762 0.694 1.98 0 1.62-1.15 2.54-1.15 0.909-3.21 0.909-0.811 0-1.7-0.176-0.889-0.166-1.93-0.508v-1.86q1.01 0.518 1.93 0.782 0.919 0.254 1.74 0.254 1.19 0 1.85-0.479 0.655-0.489 0.655-1.36 0-1.25-2.39-1.73l-0.0782-0.0195-0.674-0.137q-1.55-0.303-2.27-1.02-0.713-0.723-0.713-1.96 0-1.57 1.07-2.42 1.07-0.86 3.04-0.86 0.88 0 1.69 0.166 0.811 0.156 1.59 0.479zm5.04-0.381h4.6v9.55h3.57v1.4h-8.93v-1.4h3.57v-8.15h-2.8zm2.8-4.26h1.8v2.28h-1.8zm15.1 9.65q0-2.02-0.665-3.07-0.655-1.06-1.92-1.06-1.32 0-2.01 1.06-0.694 1.05-0.694 3.07 0 2.02 0.694 3.09 0.704 1.06 2.03 1.06 1.24 0 1.9-1.07 0.665-1.07 0.665-3.08zm1.8 4.86q0 2.46-1.16 3.73t-3.42 1.27q-0.743 0-1.55-0.137t-1.62-0.401v-1.78q0.958 0.45 1.74 0.665t1.44 0.215q1.46 0 2.12-0.792 0.665-0.792 0.665-2.51v-1.3q-0.43 0.919-1.17 1.37-0.743 0.45-1.81 0.45-1.92 0-3.06-1.53-1.14-1.53-1.14-4.1 0-2.58 1.14-4.11t3.06-1.53q1.06 0 1.79 0.42 0.733 0.42 1.19 1.3v-1.42h1.8zm12.1-6.08v6.78h-1.81v-6.78q0-1.48-0.518-2.17-0.518-0.694-1.62-0.694-1.26 0-1.94 0.899-0.674 0.889-0.674 2.56v6.19h-1.8v-10.9h1.8v1.64q0.479-0.938 1.3-1.42 0.821-0.489 1.94-0.489 1.67 0 2.49 1.1 0.831 1.09 0.831 3.32z" fill="#fff" fill-opacity=".853" stroke-width=".944px" aria-label="designed for resonators design"/>
 </g>
</svg>
